M48
; DRILL file {KiCad 6.0.4-6f826c9f35~116~ubuntu20.04.1} date Fri May 13 07:00:53 2022
; FORMAT={-:-/ absolute / metric / decimal}
; #@! TF.CreationDate,2022-05-13T07:00:53+00:00
; #@! TF.GenerationSoftware,Kicad,Pcbnew,6.0.4-6f826c9f35~116~ubuntu20.04.1
; #@! TF.FileFunction,Plated,1,2,PTH
FMAT,2
METRIC
; #@! TA.AperFunction,Plated,PTH,ComponentDrill
T1C0.300
; #@! TA.AperFunction,Plated,PTH,ViaDrill
T2C0.400
; #@! TA.AperFunction,Plated,PTH,ViaDrill
T3C0.600
; #@! TA.AperFunction,Plated,PTH,ComponentDrill
T4C0.740
; #@! TA.AperFunction,Plated,PTH,ComponentDrill
T5C0.889
; #@! TA.AperFunction,Plated,PTH,ComponentDrill
T6C0.930
; #@! TA.AperFunction,Plated,PTH,ComponentDrill
T7C1.350
; #@! TA.AperFunction,Plated,PTH,ComponentDrill
T8C1.650
; #@! TA.AperFunction,Plated,PTH,ComponentDrill
T9C3.000
%
G90
G05
T1
X12.531Y29.145
X12.531Y28.595
X12.531Y28.045
X13.081Y29.145
X13.081Y28.595
X13.081Y28.045
X13.631Y29.145
X13.631Y28.595
X13.631Y28.045
T2
X12.548Y51.308
X14.681Y8.839
X14.884Y21.996
X16.612Y40.742
X23.292Y17.805
T3
X7.264Y23.622
X7.315Y9.347
X7.747Y29.261
X8.23Y13.564
X8.763Y38.684
X9.017Y8.788
X9.246Y27.737
X10.16Y8.788
X10.262Y40.081
X10.643Y27.711
X11.176Y8.788
X12.675Y25.248
X12.7Y23.851
X14.91Y39.675
X15.215Y41.072
X15.392Y25.578
X15.621Y31.242
X16.332Y24.613
X16.434Y32.182
X16.84Y51.359
X17.145Y21.869
X17.17Y15.037
X17.17Y13.614
X17.196Y34.569
X17.196Y12.319
X17.196Y10.719
X17.196Y9.296
X17.323Y33.02
X17.424Y23.673
X17.801Y29.127
X19.507Y51.46
X19.71Y14.021
X19.71Y12.751
X19.71Y11.278
X20.015Y8.534
X20.422Y21.336
X20.472Y29.235
X20.498Y27.407
X20.599Y34.595
X20.752Y49.962
X20.828Y9.703
X20.93Y19.025
X21.133Y45.822
X21.615Y21.565
X21.92Y48.565
X22.403Y44.729
X22.936Y27.61
X23.317Y47.142
X23.52Y10.465
X24.232Y28.88
X24.257Y30.683
X25.121Y39.319
X25.375Y10.719
X25.603Y19.101
X25.679Y42.697
X26.01Y30.734
X26.086Y38.405
X26.111Y29.413
X27.0Y7.112
X27.661Y25.07
X27.762Y29.312
X27.788Y31.648
X27.838Y37.262
X27.94Y39.776
X28.397Y5.944
X29.337Y11.887
X29.362Y14.681
X30.429Y5.791
X34.747Y19.964
X35.077Y41.783
X35.204Y40.056
X35.204Y37.897
X35.535Y22.428
T4
X8.335Y42.843
X9.605Y44.343
X10.875Y44.343
X12.145Y42.843
X13.415Y44.343
X14.685Y44.343
X15.955Y42.843
X16.205Y53.466
X16.51Y6.878
X17.475Y54.966
X17.78Y5.378
X18.745Y54.966
X19.05Y5.378
X20.015Y53.466
X20.32Y6.878
X21.285Y54.966
X21.59Y5.378
X22.555Y54.966
X22.86Y5.378
X23.825Y53.466
X24.13Y6.878
T5
X3.683Y37.739
X3.683Y35.199
X3.683Y32.659
X3.683Y18.943
X3.683Y16.403
X3.683Y13.863
X3.683Y11.323
X6.223Y37.739
X6.223Y35.199
X6.223Y32.659
X6.223Y18.943
X6.223Y16.403
X6.223Y13.863
X6.223Y11.323
T6
X25.785Y48.028
X25.785Y45.738
X25.785Y36.598
X25.785Y34.308
X25.785Y26.438
X25.785Y24.148
X25.785Y15.008
X25.785Y12.718
X30.605Y43.698
X30.605Y41.668
X30.605Y39.638
X30.605Y37.608
X30.605Y22.108
X30.605Y20.078
X30.605Y18.048
X30.605Y16.018
X32.385Y44.718
X32.385Y42.688
X32.385Y40.658
X32.385Y38.628
X32.385Y23.128
X32.385Y21.098
X32.385Y19.068
X32.385Y17.038
T7
X5.585Y45.343
X13.455Y55.966
X14.05Y5.378
X18.415Y44.343
X26.285Y54.966
X26.88Y4.378
T8
X31.495Y49.298
X31.495Y33.038
X31.495Y27.708
X31.495Y11.448
T9
X5.08Y55.88
X5.08Y4.973
X35.56Y55.88
X35.56Y5.08
T0
M30
