M48
; DRILL file {KiCad (5.99.0-10394-g2e15de97e0)} date Wed Jun 23 12:34:02 2021
; FORMAT={3:3/ absolute / metric / suppress leading zeros}
; #@! TF.CreationDate,2021-06-23T12:34:02+02:00
; #@! TF.GenerationSoftware,Kicad,Pcbnew,(5.99.0-10394-g2e15de97e0)
; #@! TF.FileFunction,Plated,1,2,PTH
FMAT,2
METRIC,TZ
; #@! TA.AperFunction,Plated,PTH,ComponentDrill
T1C0.300
; #@! TA.AperFunction,Plated,PTH,ViaDrill
T2C0.400
; #@! TA.AperFunction,Plated,PTH,ViaDrill
T3C0.600
; #@! TA.AperFunction,Plated,PTH,ComponentDrill
T4C0.740
; #@! TA.AperFunction,Plated,PTH,ComponentDrill
T5C0.889
; #@! TA.AperFunction,Plated,PTH,ComponentDrill
T6C0.930
; #@! TA.AperFunction,Plated,PTH,ComponentDrill
T7C1.350
; #@! TA.AperFunction,Plated,PTH,ComponentDrill
T8C1.650
; #@! TA.AperFunction,Plated,PTH,ComponentDrill
T9C3.000
%
G90
G05
T1
X12531Y29145
X12531Y28595
X12531Y28045
X13081Y29145
X13081Y28595
X13081Y28045
X13631Y29145
X13631Y28595
X13631Y28045
T2
X19812Y17805
X23292Y17805
T3
X7264Y23622
X7747Y29261
X8179Y11887
X8179Y10338
X8763Y38684
X9017Y8966
X9246Y27737
X10109Y8966
X10262Y40081
X10643Y27711
X11176Y8966
X12675Y25248
X12700Y23851
X14910Y39675
X15215Y41072
X15392Y25578
X15621Y31242
X16332Y24613
X16434Y32182
X16840Y51359
X17145Y21869
X17170Y15037
X17170Y13614
X17196Y34569
X17196Y12319
X17196Y10719
X17196Y9296
X17323Y33020
X17424Y23673
X17801Y29127
X19507Y51460
X19583Y8382
X19660Y14122
X19660Y12751
X19660Y11252
X20422Y21336
X20472Y29235
X20498Y27407
X20599Y34595
X20599Y9728
X20752Y49962
X20930Y19025
X21133Y45822
X21615Y21565
X21920Y48565
X22403Y44729
X22936Y27610
X23317Y47142
X23520Y10465
X24232Y28880
X24257Y30683
X25121Y39319
X25375Y10719
X25603Y19101
X25679Y42697
X26010Y30734
X26086Y38405
X26111Y29413
X27000Y7112
X27661Y25070
X27762Y29312
X27788Y31648
X27838Y37262
X27940Y39776
X28397Y5944
X29337Y11887
X29362Y14681
X30429Y5791
X34747Y19964
X35077Y41783
X35204Y40056
X35204Y37897
X35535Y22428
T4
X8335Y42843
X9605Y44343
X10875Y44343
X12145Y42843
X13415Y44343
X14685Y44343
X15955Y42843
X16205Y53466
X16510Y6878
X17475Y54966
X17780Y5378
X18745Y54966
X19050Y5378
X20015Y53466
X20320Y6878
X21285Y54966
X21590Y5378
X22555Y54966
X22860Y5378
X23825Y53466
X24130Y6878
T5
X3683Y37739
X3683Y35199
X3683Y32659
X3683Y18943
X3683Y16403
X3683Y13863
X3683Y11323
X6223Y37739
X6223Y35199
X6223Y32659
X6223Y18943
X6223Y16403
X6223Y13863
X6223Y11323
T6
X25785Y48028
X25785Y45738
X25785Y36598
X25785Y34308
X25785Y26438
X25785Y24148
X25785Y15008
X25785Y12718
X30605Y43698
X30605Y41668
X30605Y39638
X30605Y37608
X30605Y22108
X30605Y20078
X30605Y18048
X30605Y16018
X32385Y44718
X32385Y42688
X32385Y40658
X32385Y38628
X32385Y23128
X32385Y21098
X32385Y19068
X32385Y17038
T7
X5585Y45343
X13455Y55966
X14050Y5378
X18415Y44343
X26285Y54966
X26880Y4378
T8
X31495Y49298
X31495Y33038
X31495Y27708
X31495Y11448
T9
X5080Y55773
X5080Y4973
X35560Y55880
X35560Y5080
T0
M30
