%TF.GenerationSoftware,KiCad,Pcbnew,6.0.4-6f826c9f35~116~ubuntu20.04.1*%
%TF.CreationDate,2022-05-25T09:41:19+00:00*%
%TF.ProjectId,RFIQINT02B,52464951-494e-4543-9032-422e6b696361,REV*%
%TF.SameCoordinates,Original*%
%TF.FileFunction,Copper,L1,Top*%
%TF.FilePolarity,Positive*%
%FSLAX46Y46*%
G04 Gerber Fmt 4.6, Leading zero omitted, Abs format (unit mm)*
G04 Created by KiCad (PCBNEW 6.0.4-6f826c9f35~116~ubuntu20.04.1) date 2022-05-25 09:41:19*
%MOMM*%
%LPD*%
G01*
G04 APERTURE LIST*
G04 Aperture macros list*
%AMRoundRect*
0 Rectangle with rounded corners*
0 $1 Rounding radius*
0 $2 $3 $4 $5 $6 $7 $8 $9 X,Y pos of 4 corners*
0 Add a 4 corners polygon primitive as box body*
4,1,4,$2,$3,$4,$5,$6,$7,$8,$9,$2,$3,0*
0 Add four circle primitives for the rounded corners*
1,1,$1+$1,$2,$3*
1,1,$1+$1,$4,$5*
1,1,$1+$1,$6,$7*
1,1,$1+$1,$8,$9*
0 Add four rect primitives between the rounded corners*
20,1,$1+$1,$2,$3,$4,$5,0*
20,1,$1+$1,$4,$5,$6,$7,0*
20,1,$1+$1,$6,$7,$8,$9,0*
20,1,$1+$1,$8,$9,$2,$3,0*%
G04 Aperture macros list end*
%TA.AperFunction,ComponentPad*%
%ADD10R,1.524000X1.524000*%
%TD*%
%TA.AperFunction,ComponentPad*%
%ADD11O,1.100000X1.300000*%
%TD*%
%TA.AperFunction,ComponentPad*%
%ADD12C,2.500000*%
%TD*%
%TA.AperFunction,ComponentPad*%
%ADD13C,1.300000*%
%TD*%
%TA.AperFunction,ComponentPad*%
%ADD14C,1.500000*%
%TD*%
%TA.AperFunction,ComponentPad*%
%ADD15C,2.300000*%
%TD*%
%TA.AperFunction,ComponentPad*%
%ADD16C,6.000000*%
%TD*%
%TA.AperFunction,ComponentPad*%
%ADD17C,0.600000*%
%TD*%
%TA.AperFunction,SMDPad,CuDef*%
%ADD18RoundRect,0.250000X-0.600000X-0.600000X0.600000X-0.600000X0.600000X0.600000X-0.600000X0.600000X0*%
%TD*%
%TA.AperFunction,ViaPad*%
%ADD19C,0.800000*%
%TD*%
%TA.AperFunction,Conductor*%
%ADD20C,0.700000*%
%TD*%
%TA.AperFunction,Conductor*%
%ADD21C,0.500000*%
%TD*%
%TA.AperFunction,Conductor*%
%ADD22C,0.400000*%
%TD*%
%TA.AperFunction,Conductor*%
%ADD23C,0.250000*%
%TD*%
G04 APERTURE END LIST*
D10*
%TO.P,J6,1*%
%TO.N,GND*%
X3683000Y37739320D03*
%TO.P,J6,2*%
X6223000Y37739320D03*
%TO.P,J6,3*%
%TO.N,+3V8*%
X3683000Y35199320D03*
%TO.P,J6,4*%
X6223000Y35199320D03*
%TO.P,J6,5*%
%TO.N,GND*%
X3683000Y32659320D03*
%TO.P,J6,6*%
X6223000Y32659320D03*
%TD*%
D11*
%TO.P,J4,1,1*%
%TO.N,Net-(J4-Pad1)*%
X23825200Y53465600D03*
%TO.P,J4,2,2*%
%TO.N,/ADC3_P*%
X22555200Y54965600D03*
%TO.P,J4,3,3*%
%TO.N,/ADC3_N*%
X21285200Y54965600D03*
%TO.P,J4,4,4*%
%TO.N,Net-(J4-Pad1)*%
X20015200Y53465600D03*
%TO.P,J4,5,5*%
%TO.N,/ADC4_P*%
X18745200Y54965600D03*
%TO.P,J4,6,6*%
%TO.N,/ADC4_N*%
X17475200Y54965600D03*
%TO.P,J4,7,7*%
%TO.N,Net-(J4-Pad1)*%
X16205200Y53465600D03*
D12*
%TO.P,J4,8*%
%TO.N,N/C*%
X13455200Y55965600D03*
%TO.P,J4,9*%
X26285200Y54965600D03*
%TD*%
D13*
%TO.P,J5,1*%
%TO.N,/ADC3_P*%
X32385000Y44718320D03*
%TO.P,J5,2*%
%TO.N,/ADC3_N*%
X30605000Y43698320D03*
%TO.P,J5,3*%
%TO.N,/CLKOUT1_N*%
X32385000Y42688320D03*
%TO.P,J5,4*%
%TO.N,VCC*%
X30605000Y41668320D03*
%TO.P,J5,5*%
%TO.N,GND*%
X32385000Y40658320D03*
%TO.P,J5,6*%
%TO.N,/CLKOUT1_P*%
X30605000Y39638320D03*
%TO.P,J5,7*%
%TO.N,/ADC4_P*%
X32385000Y38628320D03*
%TO.P,J5,8*%
%TO.N,/ADC4_N*%
X30605000Y37608320D03*
D14*
%TO.P,J5,9,D2_K*%
%TO.N,GND*%
X25785000Y48028320D03*
%TO.P,J5,10,D2_A*%
%TO.N,Net-(J5-Pad10)*%
X25785000Y45738320D03*
%TO.P,J5,11,D1_K*%
%TO.N,GND*%
X25785000Y36598320D03*
%TO.P,J5,12,D1_A*%
%TO.N,Net-(J5-Pad12)*%
X25785000Y34308320D03*
D15*
%TO.P,J5,13,SHIELD*%
%TO.N,unconnected-(J5-Pad13)*%
X31495000Y33038320D03*
%TO.P,J5,14,SHIELD*%
%TO.N,Net-(C12-Pad1)*%
X31495000Y49298320D03*
%TD*%
D16*
%TO.P,M3,1*%
%TO.N,GND*%
X35560000Y55880000D03*
%TD*%
D13*
%TO.P,J2,1*%
%TO.N,/ADC1_P*%
X32385000Y23128320D03*
%TO.P,J2,2*%
%TO.N,/ADC1_N*%
X30605000Y22108320D03*
%TO.P,J2,3*%
%TO.N,/CLKOUT0_N*%
X32385000Y21098320D03*
%TO.P,J2,4*%
%TO.N,VCC*%
X30605000Y20078320D03*
%TO.P,J2,5*%
%TO.N,GND*%
X32385000Y19068320D03*
%TO.P,J2,6*%
%TO.N,/CLKOUT0_P*%
X30605000Y18048320D03*
%TO.P,J2,7*%
%TO.N,/ADC2_P*%
X32385000Y17038320D03*
%TO.P,J2,8*%
%TO.N,/ADC2_N*%
X30605000Y16018320D03*
D14*
%TO.P,J2,9,D2_K*%
%TO.N,GND*%
X25785000Y26438320D03*
%TO.P,J2,10,D2_A*%
%TO.N,Net-(J2-Pad10)*%
X25785000Y24148320D03*
%TO.P,J2,11,D1_K*%
%TO.N,GND*%
X25785000Y15008320D03*
%TO.P,J2,12,D1_A*%
%TO.N,Net-(J2-Pad12)*%
X25785000Y12718320D03*
D15*
%TO.P,J2,13,SHIELD*%
%TO.N,Net-(C7-Pad1)*%
X31495000Y11448320D03*
%TO.P,J2,14*%
%TO.N,N/C*%
X31495000Y27708320D03*
%TD*%
D11*
%TO.P,J3,1,1*%
%TO.N,Net-(J3-Pad1)*%
X15955000Y42843320D03*
%TO.P,J3,2,2*%
%TO.N,/CLKIN_N*%
X14685000Y44343320D03*
%TO.P,J3,3,3*%
%TO.N,/CLKIN_P*%
X13415000Y44343320D03*
%TO.P,J3,4,4*%
%TO.N,Net-(J3-Pad1)*%
X12145000Y42843320D03*
%TO.P,J3,5,5*%
%TO.N,unconnected-(J3-Pad5)*%
X10875000Y44343320D03*
%TO.P,J3,6,6*%
%TO.N,unconnected-(J3-Pad6)*%
X9605000Y44343320D03*
%TO.P,J3,7,7*%
%TO.N,Net-(J3-Pad1)*%
X8335000Y42843320D03*
D12*
%TO.P,J3,8*%
%TO.N,N/C*%
X5585000Y45343320D03*
%TO.P,J3,9*%
X18415000Y44343320D03*
%TD*%
D16*
%TO.P,M1,1*%
%TO.N,GND*%
X35560000Y5080000D03*
%TD*%
D11*
%TO.P,J1,1,1*%
%TO.N,Net-(J1-Pad1)*%
X16510000Y6878320D03*
%TO.P,J1,2,2*%
%TO.N,/ADC1_P*%
X17780000Y5378320D03*
%TO.P,J1,3,3*%
%TO.N,/ADC1_N*%
X19050000Y5378320D03*
%TO.P,J1,4,4*%
%TO.N,Net-(J1-Pad1)*%
X20320000Y6878320D03*
%TO.P,J1,5,5*%
%TO.N,/ADC2_P*%
X21590000Y5378320D03*
%TO.P,J1,6,6*%
%TO.N,/ADC2_N*%
X22860000Y5378320D03*
%TO.P,J1,7,7*%
%TO.N,Net-(J1-Pad1)*%
X24130000Y6878320D03*
D12*
%TO.P,J1,8*%
%TO.N,N/C*%
X26880000Y4378320D03*
%TO.P,J1,9*%
X14050000Y5378320D03*
%TD*%
D10*
%TO.P,J7,1*%
%TO.N,GND*%
X3683000Y18943320D03*
%TO.P,J7,2*%
X6223000Y18943320D03*
%TO.P,J7,3*%
%TO.N,VCC*%
X3683000Y16403320D03*
%TO.P,J7,4*%
X6223000Y16403320D03*
%TO.P,J7,5*%
X3683000Y13863320D03*
%TO.P,J7,6*%
X6223000Y13863320D03*
%TO.P,J7,7*%
%TO.N,GND*%
X3683000Y11323320D03*
%TO.P,J7,8*%
X6223000Y11323320D03*
%TD*%
D16*
%TO.P,M2,1*%
%TO.N,GND*%
X5080000Y4973320D03*
%TD*%
D17*
%TO.P,U1,17,GND*%
%TO.N,GND*%
X12531000Y29145320D03*
X13081000Y28045320D03*
X13631000Y28595320D03*
X13631000Y28045320D03*
X12531000Y28595320D03*
D18*
X13081000Y28595320D03*
D17*
X13631000Y29145320D03*
X12531000Y28045320D03*
X13081000Y28595320D03*
X13081000Y29145320D03*
%TD*%
D16*
%TO.P,M4,1*%
%TO.N,GND*%
X5080000Y55880000D03*
%TD*%
D19*
%TO.N,GND*%
X27000200Y7112000D03*
X25603200Y19100800D03*
X19710400Y11277600D03*
X26085800Y38404800D03*
X25679400Y42697400D03*
X19710400Y14020800D03*
X21920200Y48564800D03*
X17424400Y23672800D03*
X27940000Y39776400D03*
X35204400Y37896800D03*
X8229600Y13563600D03*
X19507200Y51460400D03*
X16332200Y24612600D03*
X8763000Y38684200D03*
X23317200Y47142400D03*
X17195800Y12319000D03*
X15214600Y41071800D03*
X10261600Y40081200D03*
X28397200Y5943600D03*
X20929600Y19024600D03*
X22936200Y27609800D03*
X16840200Y51358800D03*
X17801043Y29126769D03*
X20599400Y34594800D03*
X7264400Y23622000D03*
X17170400Y15036800D03*
X27660600Y25069800D03*
X7747000Y29260800D03*
X29362400Y14681200D03*
X35534600Y22428200D03*
X10160000Y8788400D03*
X9017000Y8788400D03*
X20828000Y9702800D03*
X17322800Y33020000D03*
X27838400Y37261800D03*
X29337000Y11887200D03*
X15621000Y31242000D03*
X17170400Y13614400D03*
X27787600Y31648400D03*
X25374600Y10718800D03*
X22402800Y44729400D03*
X20472400Y29235400D03*
X14909800Y39674800D03*
X20015200Y8534400D03*
X34747200Y19964400D03*
X16433800Y32181800D03*
X35204400Y40055800D03*
X35077400Y41783000D03*
X20497800Y27406600D03*
X26111200Y29413200D03*
X21615400Y21564600D03*
X30429200Y5791200D03*
X17145000Y21869400D03*
X23520400Y10464800D03*
X27762200Y29311600D03*
X26009600Y30734000D03*
X9245600Y27736800D03*
X25120600Y39319200D03*
X11176000Y8788400D03*
X17195800Y10718800D03*
X17195800Y34569400D03*
X19710400Y12750800D03*
X7315200Y9347200D03*
X20751800Y49961800D03*
X15392400Y25577800D03*
X20421600Y21336000D03*
X24257000Y30683200D03*
X12674600Y25247600D03*
X12700000Y23850600D03*
X24231600Y28879800D03*
X17195800Y9296400D03*
X21132800Y45821600D03*
X10642600Y27711400D03*
%TO.N,+3V8*%
X14884400Y21996400D03*
X23291800Y17805400D03*
%TO.N,Net-(J3-Pad1)*%
X16611600Y40741600D03*
%TO.N,Net-(J4-Pad1)*%
X12547600Y51308000D03*
%TO.N,Net-(J1-Pad1)*%
X14681200Y8839200D03*
%TD*%
D20*
%TO.N,VCC*%
X6223000Y16403320D02*
X25775920Y16403320D01*
X30605000Y20078320D02*
X29133800Y21549520D01*
X30605000Y20078320D02*
X26930000Y16403320D01*
X29133800Y21793200D02*
X29133800Y40197120D01*
X26930000Y16403320D02*
X25775920Y16403320D01*
X29133800Y21549520D02*
X29133800Y21793200D01*
X29133800Y40197120D02*
X30605000Y41668320D01*
D21*
%TO.N,+3V8*%
X19075400Y17805400D02*
X14884400Y21996400D01*
X23291800Y17805400D02*
X19075400Y17805400D01*
D22*
%TO.N,Net-(J3-Pad1)*%
X16611600Y40741600D02*
X16611600Y42186720D01*
X12145000Y42843320D02*
X15955000Y42843320D01*
X8335000Y42843320D02*
X12145000Y42843320D01*
X16611600Y42186720D02*
X15955000Y42843320D01*
%TO.N,Net-(J4-Pad1)*%
X12547600Y51409600D02*
X14603600Y53465600D01*
X20015200Y53465600D02*
X16205200Y53465600D01*
X23825200Y53465600D02*
X20015200Y53465600D01*
X14603600Y53465600D02*
X16205200Y53465600D01*
X12547600Y51308000D02*
X12547600Y51409600D01*
%TO.N,Net-(J1-Pad1)*%
X16510000Y6878320D02*
X20320000Y6878320D01*
X14681200Y8839200D02*
X14681200Y8707120D01*
X20320000Y6878320D02*
X24130000Y6878320D01*
X14681200Y8707120D02*
X16510000Y6878320D01*
%TD*%
%TO.N,GND*%
D23*
X39762000Y878000D02*
X878000Y878000D01*
X878000Y5368591D01*
X12320933Y5368591D01*
X12340699Y5117443D01*
X12343743Y5098225D01*
X12402553Y4853262D01*
X12408566Y4834756D01*
X12504973Y4602008D01*
X12513807Y4584671D01*
X12645437Y4369871D01*
X12656874Y4354129D01*
X12820486Y4162564D01*
X12834244Y4148806D01*
X13025809Y3985194D01*
X13041551Y3973757D01*
X13256351Y3842127D01*
X13273688Y3833293D01*
X13506436Y3736886D01*
X13524942Y3730873D01*
X13769905Y3672063D01*
X13789123Y3669019D01*
X14040271Y3649253D01*
X14059729Y3649253D01*
X14310877Y3669019D01*
X14330095Y3672063D01*
X14575058Y3730873D01*
X14593564Y3736886D01*
X14826312Y3833293D01*
X14843649Y3842127D01*
X15058449Y3973757D01*
X15074191Y3985194D01*
X15265756Y4148806D01*
X15279514Y4162564D01*
X15443126Y4354129D01*
X15454563Y4369871D01*
X15586193Y4584671D01*
X15595027Y4602008D01*
X15691434Y4834756D01*
X15697447Y4853262D01*
X15756257Y5098225D01*
X15759301Y5117443D01*
X15779067Y5368591D01*
X15779067Y5388049D01*
X15759301Y5639197D01*
X15756257Y5658415D01*
X15697447Y5903378D01*
X15691434Y5921884D01*
X15595027Y6154632D01*
X15586193Y6171969D01*
X15454563Y6386769D01*
X15443126Y6402511D01*
X15279514Y6594076D01*
X15265756Y6607834D01*
X15074191Y6771446D01*
X15058449Y6782883D01*
X14843649Y6914513D01*
X14826312Y6923347D01*
X14593564Y7019754D01*
X14575058Y7025767D01*
X14330095Y7084577D01*
X14310877Y7087621D01*
X14059729Y7107387D01*
X14040271Y7107387D01*
X13789123Y7087621D01*
X13769905Y7084577D01*
X13524942Y7025767D01*
X13506436Y7019754D01*
X13273688Y6923347D01*
X13256351Y6914513D01*
X13041551Y6782883D01*
X13025809Y6771446D01*
X12834244Y6607834D01*
X12820486Y6594076D01*
X12656874Y6402511D01*
X12645437Y6386769D01*
X12513807Y6171969D01*
X12504973Y6154632D01*
X12408566Y5921884D01*
X12402553Y5903378D01*
X12343743Y5658415D01*
X12340699Y5639197D01*
X12320933Y5388049D01*
X12320933Y5368591D01*
X878000Y5368591D01*
X878000Y8837645D01*
X13802617Y8837645D01*
X13819047Y8670075D01*
X13824794Y8643035D01*
X13877941Y8483269D01*
X13889537Y8458174D01*
X13976759Y8314153D01*
X13993626Y8292250D01*
X14110588Y8171133D01*
X14131888Y8153513D01*
X14272777Y8061317D01*
X14297452Y8048852D01*
X14437761Y7996672D01*
X15485500Y6948934D01*
X15485500Y6731128D01*
X15486179Y6718167D01*
X15501005Y6577103D01*
X15506395Y6551746D01*
X15564890Y6371718D01*
X15575434Y6348036D01*
X15670080Y6184104D01*
X15685317Y6163132D01*
X15811979Y6022460D01*
X15831244Y6005114D01*
X15984385Y5893851D01*
X16006834Y5880890D01*
X16179761Y5803897D01*
X16204416Y5795886D01*
X16389573Y5756530D01*
X16415354Y5753820D01*
X16604646Y5753820D01*
X16630427Y5756530D01*
X16805246Y5793689D01*
X16776395Y5704894D01*
X16771005Y5679537D01*
X16756179Y5538473D01*
X16755500Y5525512D01*
X16755500Y5231128D01*
X16756179Y5218167D01*
X16771005Y5077103D01*
X16776395Y5051746D01*
X16834890Y4871718D01*
X16845434Y4848036D01*
X16940080Y4684104D01*
X16955317Y4663132D01*
X17081979Y4522460D01*
X17101244Y4505114D01*
X17254385Y4393851D01*
X17276834Y4380890D01*
X17449761Y4303897D01*
X17474416Y4295886D01*
X17659573Y4256530D01*
X17685354Y4253820D01*
X17874646Y4253820D01*
X17900427Y4256530D01*
X18085584Y4295886D01*
X18110239Y4303897D01*
X18283166Y4380890D01*
X18305615Y4393851D01*
X18415000Y4473324D01*
X18524385Y4393851D01*
X18546834Y4380890D01*
X18719761Y4303897D01*
X18744416Y4295886D01*
X18929573Y4256530D01*
X18955354Y4253820D01*
X19144646Y4253820D01*
X19170427Y4256530D01*
X19355584Y4295886D01*
X19380239Y4303897D01*
X19553166Y4380890D01*
X19575615Y4393851D01*
X19728756Y4505114D01*
X19748021Y4522460D01*
X19874683Y4663132D01*
X19889920Y4684104D01*
X19984566Y4848036D01*
X19995110Y4871718D01*
X20053605Y5051746D01*
X20058995Y5077103D01*
X20073821Y5218167D01*
X20074500Y5231128D01*
X20074500Y5525512D01*
X20073821Y5538473D01*
X20058995Y5679537D01*
X20053605Y5704894D01*
X20024754Y5793689D01*
X20199573Y5756530D01*
X20225354Y5753820D01*
X20414646Y5753820D01*
X20440427Y5756530D01*
X20615246Y5793689D01*
X20586395Y5704894D01*
X20581005Y5679537D01*
X20566179Y5538473D01*
X20565500Y5525512D01*
X20565500Y5231128D01*
X20566179Y5218167D01*
X20581005Y5077103D01*
X20586395Y5051746D01*
X20644890Y4871718D01*
X20655434Y4848036D01*
X20750080Y4684104D01*
X20765317Y4663132D01*
X20891979Y4522460D01*
X20911244Y4505114D01*
X21064385Y4393851D01*
X21086834Y4380890D01*
X21259761Y4303897D01*
X21284416Y4295886D01*
X21469573Y4256530D01*
X21495354Y4253820D01*
X21684646Y4253820D01*
X21710427Y4256530D01*
X21895584Y4295886D01*
X21920239Y4303897D01*
X22093166Y4380890D01*
X22115615Y4393851D01*
X22225000Y4473324D01*
X22334385Y4393851D01*
X22356834Y4380890D01*
X22529761Y4303897D01*
X22554416Y4295886D01*
X22739573Y4256530D01*
X22765354Y4253820D01*
X22954646Y4253820D01*
X22980427Y4256530D01*
X23165584Y4295886D01*
X23190239Y4303897D01*
X23335542Y4368591D01*
X25150933Y4368591D01*
X25170699Y4117443D01*
X25173743Y4098225D01*
X25232553Y3853262D01*
X25238566Y3834756D01*
X25334973Y3602008D01*
X25343807Y3584671D01*
X25475437Y3369871D01*
X25486874Y3354129D01*
X25650486Y3162564D01*
X25664244Y3148806D01*
X25855809Y2985194D01*
X25871551Y2973757D01*
X26086351Y2842127D01*
X26103688Y2833293D01*
X26336436Y2736886D01*
X26354942Y2730873D01*
X26599905Y2672063D01*
X26619123Y2669019D01*
X26870271Y2649253D01*
X26889729Y2649253D01*
X27140877Y2669019D01*
X27160095Y2672063D01*
X27405058Y2730873D01*
X27423564Y2736886D01*
X27656312Y2833293D01*
X27673649Y2842127D01*
X27888449Y2973757D01*
X27904191Y2985194D01*
X28095756Y3148806D01*
X28109514Y3162564D01*
X28273126Y3354129D01*
X28284563Y3369871D01*
X28416193Y3584671D01*
X28425027Y3602008D01*
X28521434Y3834756D01*
X28527447Y3853262D01*
X28586257Y4098225D01*
X28589301Y4117443D01*
X28609067Y4368591D01*
X28609067Y4388049D01*
X28589301Y4639197D01*
X28586257Y4658415D01*
X28527447Y4903378D01*
X28521434Y4921884D01*
X28425027Y5154632D01*
X28416193Y5171969D01*
X28284563Y5386769D01*
X28273126Y5402511D01*
X28109514Y5594076D01*
X28095756Y5607834D01*
X27904191Y5771446D01*
X27888449Y5782883D01*
X27673649Y5914513D01*
X27656312Y5923347D01*
X27423564Y6019754D01*
X27405058Y6025767D01*
X27160095Y6084577D01*
X27140877Y6087621D01*
X26889729Y6107387D01*
X26870271Y6107387D01*
X26619123Y6087621D01*
X26599905Y6084577D01*
X26354942Y6025767D01*
X26336436Y6019754D01*
X26103688Y5923347D01*
X26086351Y5914513D01*
X25871551Y5782883D01*
X25855809Y5771446D01*
X25664244Y5607834D01*
X25650486Y5594076D01*
X25486874Y5402511D01*
X25475437Y5386769D01*
X25343807Y5171969D01*
X25334973Y5154632D01*
X25238566Y4921884D01*
X25232553Y4903378D01*
X25173743Y4658415D01*
X25170699Y4639197D01*
X25150933Y4388049D01*
X25150933Y4368591D01*
X23335542Y4368591D01*
X23363166Y4380890D01*
X23385615Y4393851D01*
X23538756Y4505114D01*
X23558021Y4522460D01*
X23684683Y4663132D01*
X23699920Y4684104D01*
X23794566Y4848036D01*
X23805110Y4871718D01*
X23863605Y5051746D01*
X23868995Y5077103D01*
X23883821Y5218167D01*
X23884500Y5231128D01*
X23884500Y5525512D01*
X23883821Y5538473D01*
X23868995Y5679537D01*
X23863605Y5704894D01*
X23834754Y5793689D01*
X24009573Y5756530D01*
X24035354Y5753820D01*
X24224646Y5753820D01*
X24250427Y5756530D01*
X24435584Y5795886D01*
X24460239Y5803897D01*
X24633166Y5880890D01*
X24655615Y5893851D01*
X24808756Y6005114D01*
X24828021Y6022460D01*
X24954683Y6163132D01*
X24969920Y6184104D01*
X25064566Y6348036D01*
X25075110Y6371718D01*
X25133605Y6551746D01*
X25138995Y6577103D01*
X25153821Y6718167D01*
X25154500Y6731128D01*
X25154500Y7025512D01*
X25153821Y7038473D01*
X25138995Y7179537D01*
X25133605Y7204894D01*
X25075110Y7384922D01*
X25064566Y7408604D01*
X24969920Y7572536D01*
X24954683Y7593508D01*
X24828021Y7734180D01*
X24808756Y7751526D01*
X24655615Y7862789D01*
X24633166Y7875750D01*
X24460239Y7952743D01*
X24435584Y7960754D01*
X24250427Y8000110D01*
X24224646Y8002820D01*
X24035354Y8002820D01*
X24009573Y8000110D01*
X23824416Y7960754D01*
X23799761Y7952743D01*
X23626834Y7875750D01*
X23604385Y7862789D01*
X23451244Y7751526D01*
X23431979Y7734180D01*
X23305317Y7593508D01*
X23290080Y7572536D01*
X23278697Y7552820D01*
X21171303Y7552820D01*
X21159920Y7572536D01*
X21144683Y7593508D01*
X21018021Y7734180D01*
X20998756Y7751526D01*
X20845615Y7862789D01*
X20823166Y7875750D01*
X20650239Y7952743D01*
X20625584Y7960754D01*
X20440427Y8000110D01*
X20414646Y8002820D01*
X20225354Y8002820D01*
X20199573Y8000110D01*
X20014416Y7960754D01*
X19989761Y7952743D01*
X19816834Y7875750D01*
X19794385Y7862789D01*
X19641244Y7751526D01*
X19621979Y7734180D01*
X19495317Y7593508D01*
X19480080Y7572536D01*
X19468697Y7552820D01*
X17361303Y7552820D01*
X17349920Y7572536D01*
X17334683Y7593508D01*
X17208021Y7734180D01*
X17188756Y7751526D01*
X17035615Y7862789D01*
X17013166Y7875750D01*
X16840239Y7952743D01*
X16815584Y7960754D01*
X16630427Y8000110D01*
X16604646Y8002820D01*
X16415354Y8002820D01*
X16389573Y8000110D01*
X16350419Y7991788D01*
X15556780Y8785426D01*
X15558948Y8800854D01*
X15560143Y8816383D01*
X15560437Y8837471D01*
X15559676Y8853022D01*
X15540908Y9020346D01*
X15534784Y9047304D01*
X15479411Y9206312D01*
X15467466Y9231242D01*
X15378242Y9374031D01*
X15361071Y9395696D01*
X15242429Y9515169D01*
X15220884Y9532491D01*
X15078721Y9622710D01*
X15053875Y9634828D01*
X14895258Y9691309D01*
X14868345Y9697622D01*
X14701156Y9717559D01*
X14673511Y9717752D01*
X14506059Y9700152D01*
X14479060Y9694215D01*
X14319670Y9639954D01*
X14294657Y9628184D01*
X14151248Y9539958D01*
X14129464Y9522938D01*
X14009166Y9405133D01*
X13991694Y9383711D01*
X13900485Y9242182D01*
X13888193Y9217421D01*
X13830605Y9059202D01*
X13824105Y9032332D01*
X13803003Y8865286D01*
X13802617Y8837645D01*
X878000Y8837645D01*
X878000Y10513232D01*
X2289001Y10513232D01*
X2289726Y10499843D01*
X2296473Y10437724D01*
X2303639Y10407585D01*
X2354719Y10271330D01*
X2371602Y10240493D01*
X2458870Y10124051D01*
X2483731Y10099190D01*
X2600173Y10011922D01*
X2631010Y9995039D01*
X2767265Y9943959D01*
X2797401Y9936793D01*
X2859519Y9930045D01*
X2872911Y9929320D01*
X3429000Y9929320D01*
X3496039Y9949005D01*
X3541794Y10001809D01*
X3553000Y10053320D01*
X3553000Y10053321D01*
X3813000Y10053321D01*
X3832685Y9986282D01*
X3885489Y9940527D01*
X3937000Y9929321D01*
X4493088Y9929321D01*
X4506477Y9930046D01*
X4568596Y9936793D01*
X4598735Y9943959D01*
X4734990Y9995039D01*
X4765827Y10011922D01*
X4882269Y10099190D01*
X4907130Y10124051D01*
X4953000Y10185256D01*
X4998870Y10124051D01*
X5023731Y10099190D01*
X5140173Y10011922D01*
X5171010Y9995039D01*
X5307265Y9943959D01*
X5337401Y9936793D01*
X5399519Y9930045D01*
X5412911Y9929320D01*
X5969000Y9929320D01*
X6036039Y9949005D01*
X6081794Y10001809D01*
X6093000Y10053320D01*
X6093000Y10053321D01*
X6353000Y10053321D01*
X6372685Y9986282D01*
X6425489Y9940527D01*
X6477000Y9929321D01*
X7033088Y9929321D01*
X7046477Y9930046D01*
X7108596Y9936793D01*
X7138735Y9943959D01*
X7274990Y9995039D01*
X7305827Y10011922D01*
X7422269Y10099190D01*
X7447130Y10124051D01*
X7534398Y10240493D01*
X7551281Y10271330D01*
X7602361Y10407585D01*
X7609527Y10437721D01*
X7616275Y10499839D01*
X7617000Y10513231D01*
X7617000Y11069320D01*
X7597315Y11136359D01*
X7544511Y11182114D01*
X7493000Y11193320D01*
X6477000Y11193320D01*
X6409961Y11173635D01*
X6364206Y11120831D01*
X6353000Y11069320D01*
X6353000Y10053321D01*
X6093000Y10053321D01*
X6093000Y11069320D01*
X6073315Y11136359D01*
X6020511Y11182114D01*
X5969000Y11193320D01*
X3937000Y11193320D01*
X3869961Y11173635D01*
X3824206Y11120831D01*
X3813000Y11069320D01*
X3813000Y10053321D01*
X3553000Y10053321D01*
X3553000Y11069320D01*
X3533315Y11136359D01*
X3480511Y11182114D01*
X3429000Y11193320D01*
X2413001Y11193320D01*
X2345962Y11173635D01*
X2300207Y11120831D01*
X2289001Y11069320D01*
X2289001Y10513232D01*
X878000Y10513232D01*
X878000Y11577320D01*
X2289000Y11577320D01*
X2308685Y11510281D01*
X2361489Y11464526D01*
X2413000Y11453320D01*
X7492999Y11453320D01*
X7560038Y11473005D01*
X7564338Y11477968D01*
X29866012Y11477968D01*
X29880216Y11231637D01*
X29883044Y11211514D01*
X29937289Y10970810D01*
X29943365Y10951419D01*
X30036194Y10722807D01*
X30045357Y10704669D01*
X30174279Y10494289D01*
X30186280Y10477891D01*
X30347831Y10291391D01*
X30362350Y10277173D01*
X30552192Y10119563D01*
X30568838Y10107908D01*
X30781872Y9983421D01*
X30800198Y9974641D01*
X31030704Y9886620D01*
X31050217Y9880950D01*
X31292004Y9831757D01*
X31312182Y9829351D01*
X31558756Y9820310D01*
X31579056Y9821232D01*
X31823797Y9852584D01*
X31843674Y9856809D01*
X32080007Y9927712D01*
X32098926Y9935127D01*
X32320506Y10043678D01*
X32337961Y10054083D01*
X32538836Y10197366D01*
X32554357Y10210482D01*
X32729133Y10384649D01*
X32742303Y10400124D01*
X32886286Y10600498D01*
X32896752Y10617916D01*
X33006075Y10839115D01*
X33013556Y10858009D01*
X33085284Y11094093D01*
X33089578Y11113955D01*
X33121784Y11358585D01*
X33122808Y11371740D01*
X33124606Y11445290D01*
X33124226Y11458481D01*
X33104008Y11704392D01*
X33100689Y11724439D01*
X33040580Y11963745D01*
X33034031Y11982982D01*
X32935643Y12209258D01*
X32926041Y12227167D01*
X32792018Y12434335D01*
X32779619Y12450434D01*
X32613560Y12632931D01*
X32598698Y12646790D01*
X32405062Y12799714D01*
X32388137Y12810960D01*
X32172125Y12930205D01*
X32153590Y12938535D01*
X31921002Y13020899D01*
X31901356Y13026089D01*
X31658440Y13069359D01*
X31638209Y13071272D01*
X31391487Y13074286D01*
X31371216Y13072868D01*
X31127314Y13035546D01*
X31107546Y13030837D01*
X30873016Y12954181D01*
X30854283Y12946306D01*
X30635422Y12832374D01*
X30618227Y12821546D01*
X30420912Y12673398D01*
X30405716Y12659906D01*
X30235248Y12481521D01*
X30222460Y12465729D01*
X30083415Y12261897D01*
X30073377Y12244228D01*
X29969491Y12020424D01*
X29962475Y12001354D01*
X29896536Y11763587D01*
X29892728Y11743626D01*
X29866508Y11498283D01*
X29866012Y11477968D01*
X7564338Y11477968D01*
X7605793Y11525809D01*
X7616999Y11577320D01*
X7616999Y12133408D01*
X7616274Y12146797D01*
X7609527Y12208916D01*
X7602361Y12239055D01*
X7551281Y12375310D01*
X7534398Y12406147D01*
X7447130Y12522589D01*
X7422269Y12547450D01*
X7305827Y12634718D01*
X7274990Y12651601D01*
X7201693Y12679079D01*
X7246504Y12701080D01*
X7279613Y12724783D01*
X7293946Y12739141D01*
X24556429Y12739141D01*
X24569657Y12537316D01*
X24573207Y12514903D01*
X24622993Y12318869D01*
X24630568Y12297478D01*
X24715246Y12113799D01*
X24726592Y12094147D01*
X24843324Y11928974D01*
X24858062Y11911718D01*
X25002940Y11770585D01*
X25020575Y11756305D01*
X25188746Y11643936D01*
X25208689Y11633108D01*
X25394522Y11553268D01*
X25416103Y11546256D01*
X25613373Y11501618D01*
X25635872Y11498656D01*
X25837974Y11490716D01*
X25860635Y11491903D01*
X26060800Y11520925D01*
X26082866Y11526223D01*
X26274390Y11591237D01*
X26295120Y11600466D01*
X26471590Y11699293D01*
X26490292Y11712147D01*
X26645796Y11841479D01*
X26661841Y11857524D01*
X26791173Y12013028D01*
X26804027Y12031730D01*
X26902854Y12208200D01*
X26912083Y12228930D01*
X26977097Y12420454D01*
X26982395Y12442520D01*
X27011417Y12642685D01*
X27012657Y12657231D01*
X27014172Y12715073D01*
X27013695Y12729666D01*
X26995188Y12931075D01*
X26991052Y12953387D01*
X26936151Y13148052D01*
X26928019Y13169238D01*
X26886708Y13253009D01*
X32795824Y13253009D01*
X32811392Y12970136D01*
X32813588Y12952759D01*
X32868857Y12674903D01*
X32873478Y12658008D01*
X32967346Y12390710D01*
X32974303Y12374635D01*
X33104897Y12123231D01*
X33114049Y12108297D01*
X33278764Y11877801D01*
X33289928Y11864305D01*
X33485476Y11659317D01*
X33498432Y11647529D01*
X33720913Y11472140D01*
X33735399Y11462294D01*
X33980373Y11320002D01*
X33996102Y11312297D01*
X34258680Y11205942D01*
X34275339Y11200529D01*
X34550284Y11132232D01*
X34567538Y11129221D01*
X34809151Y11104466D01*
X34821790Y11103820D01*
X34997170Y11103820D01*
X35005928Y11104130D01*
X35216351Y11119029D01*
X35233691Y11121497D01*
X35510645Y11181123D01*
X35527465Y11186009D01*
X35793255Y11284064D01*
X35809219Y11291272D01*
X36058542Y11425799D01*
X36073331Y11435184D01*
X36301211Y11603499D01*
X36314530Y11614875D01*
X36516420Y11813619D01*
X36528003Y11826757D01*
X36699877Y12051965D01*
X36709494Y12066605D01*
X36847920Y12313784D01*
X36855377Y12329632D01*
X36957595Y12593849D01*
X36962745Y12610590D01*
X37026715Y12886573D01*
X37029456Y12903873D01*
X37053901Y13186117D01*
X37054176Y13203631D01*
X37038608Y13486504D01*
X37036412Y13503881D01*
X36981143Y13781737D01*
X36976522Y13798632D01*
X36882654Y14065930D01*
X36875697Y14082005D01*
X36745103Y14333409D01*
X36735951Y14348343D01*
X36571236Y14578839D01*
X36560072Y14592335D01*
X36364524Y14797323D01*
X36351568Y14809111D01*
X36129087Y14984500D01*
X36114601Y14994346D01*
X35869627Y15136638D01*
X35853898Y15144343D01*
X35591320Y15250698D01*
X35574661Y15256111D01*
X35299716Y15324408D01*
X35282462Y15327419D01*
X35040849Y15352174D01*
X35028210Y15352820D01*
X34852830Y15352820D01*
X34844072Y15352510D01*
X34633649Y15337611D01*
X34616309Y15335143D01*
X34339355Y15275517D01*
X34322535Y15270631D01*
X34056745Y15172576D01*
X34040781Y15165368D01*
X33791458Y15030841D01*
X33776669Y15021456D01*
X33548789Y14853141D01*
X33535470Y14841765D01*
X33333580Y14643021D01*
X33321997Y14629883D01*
X33150123Y14404675D01*
X33140506Y14390035D01*
X33002080Y14142856D01*
X32994623Y14127008D01*
X32892405Y13862791D01*
X32887255Y13846050D01*
X32823285Y13570067D01*
X32820544Y13552767D01*
X32796099Y13270523D01*
X32795824Y13253009D01*
X26886708Y13253009D01*
X26838563Y13350637D01*
X26826706Y13369985D01*
X26705690Y13532045D01*
X26690506Y13548909D01*
X26541983Y13686202D01*
X26523980Y13700016D01*
X26407301Y13773635D01*
X26468808Y13802317D01*
X26487526Y13813124D01*
X26548111Y13855546D01*
X26591736Y13910123D01*
X26598930Y13979621D01*
X26564669Y14044802D01*
X25872681Y14736791D01*
X25811358Y14770276D01*
X25741667Y14765292D01*
X25697319Y14736791D01*
X25005331Y14044802D01*
X24971846Y13983479D01*
X24976830Y13913787D01*
X25021889Y13855546D01*
X25082474Y13813124D01*
X25101192Y13802317D01*
X25163297Y13773357D01*
X25071971Y13719024D01*
X25053612Y13705686D01*
X24901546Y13572328D01*
X24885925Y13555867D01*
X24760709Y13397030D01*
X24748351Y13378000D01*
X24654176Y13199004D01*
X24645491Y13178038D01*
X24585514Y12984878D01*
X24580797Y12962682D01*
X24557024Y12761826D01*
X24556429Y12739141D01*
X7293946Y12739141D01*
X7362051Y12807365D01*
X7385696Y12840515D01*
X7436939Y12945347D01*
X7448237Y12981902D01*
X7458201Y13050202D01*
X7459500Y13068102D01*
X7459500Y14658538D01*
X7458178Y14676598D01*
X7448036Y14745492D01*
X7436666Y14782081D01*
X7385240Y14886824D01*
X7361537Y14919933D01*
X7278955Y15002371D01*
X7245805Y15026016D01*
X7140973Y15077259D01*
X7104418Y15088557D01*
X7036118Y15098521D01*
X7018218Y15099820D01*
X5427782Y15099820D01*
X5409722Y15098498D01*
X5340828Y15088356D01*
X5304239Y15076986D01*
X5199496Y15025560D01*
X5166387Y15001857D01*
X5083949Y14919275D01*
X5060304Y14886125D01*
X5009061Y14781293D01*
X4997763Y14744738D01*
X4987799Y14676438D01*
X4986500Y14658538D01*
X4986500Y13068102D01*
X4987822Y13050042D01*
X4997964Y12981148D01*
X5009334Y12944559D01*
X5060760Y12839816D01*
X5084463Y12806707D01*
X5167045Y12724269D01*
X5200195Y12700624D01*
X5244287Y12679071D01*
X5171010Y12651601D01*
X5140173Y12634718D01*
X5023731Y12547450D01*
X4998870Y12522589D01*
X4953000Y12461384D01*
X4907130Y12522589D01*
X4882269Y12547450D01*
X4765827Y12634718D01*
X4734990Y12651601D01*
X4661693Y12679079D01*
X4706504Y12701080D01*
X4739613Y12724783D01*
X4822051Y12807365D01*
X4845696Y12840515D01*
X4896939Y12945347D01*
X4908237Y12981902D01*
X4918201Y13050202D01*
X4919500Y13068102D01*
X4919500Y14658538D01*
X4918178Y14676598D01*
X4908036Y14745492D01*
X4896666Y14782081D01*
X4845240Y14886824D01*
X4821537Y14919933D01*
X4738955Y15002371D01*
X4705805Y15026016D01*
X4600973Y15077259D01*
X4564418Y15088557D01*
X4496118Y15098521D01*
X4478218Y15099820D01*
X2887782Y15099820D01*
X2869722Y15098498D01*
X2800828Y15088356D01*
X2764239Y15076986D01*
X2659496Y15025560D01*
X2626387Y15001857D01*
X2543949Y14919275D01*
X2520304Y14886125D01*
X2469061Y14781293D01*
X2457763Y14744738D01*
X2447799Y14676438D01*
X2446500Y14658538D01*
X2446500Y13068102D01*
X2447822Y13050042D01*
X2457964Y12981148D01*
X2469334Y12944559D01*
X2520760Y12839816D01*
X2544463Y12806707D01*
X2627045Y12724269D01*
X2660195Y12700624D01*
X2704287Y12679071D01*
X2631010Y12651601D01*
X2600173Y12634718D01*
X2483731Y12547450D01*
X2458870Y12522589D01*
X2371602Y12406147D01*
X2354719Y12375310D01*
X2303639Y12239055D01*
X2296473Y12208919D01*
X2289725Y12146801D01*
X2289000Y12133409D01*
X2289000Y11577320D01*
X878000Y11577320D01*
X878000Y18133232D01*
X2289001Y18133232D01*
X2289726Y18119843D01*
X2296473Y18057724D01*
X2303639Y18027585D01*
X2354719Y17891330D01*
X2371602Y17860493D01*
X2458870Y17744051D01*
X2483731Y17719190D01*
X2600173Y17631922D01*
X2631010Y17615039D01*
X2704307Y17587561D01*
X2659496Y17565560D01*
X2626387Y17541857D01*
X2543949Y17459275D01*
X2520304Y17426125D01*
X2469061Y17321293D01*
X2457763Y17284738D01*
X2447799Y17216438D01*
X2446500Y17198538D01*
X2446500Y15608102D01*
X2447822Y15590042D01*
X2457964Y15521148D01*
X2469334Y15484559D01*
X2520760Y15379816D01*
X2544463Y15346707D01*
X2627045Y15264269D01*
X2660195Y15240624D01*
X2765027Y15189381D01*
X2801582Y15178083D01*
X2869882Y15168119D01*
X2887782Y15166820D01*
X4478218Y15166820D01*
X4496278Y15168142D01*
X4565172Y15178284D01*
X4601761Y15189654D01*
X4706504Y15241080D01*
X4739613Y15264783D01*
X4822051Y15347365D01*
X4845696Y15380515D01*
X4896939Y15485347D01*
X4908237Y15521902D01*
X4918201Y15590202D01*
X4919500Y15608102D01*
X4919500Y17198538D01*
X4918178Y17216598D01*
X4908036Y17285492D01*
X4896666Y17322081D01*
X4845240Y17426824D01*
X4821537Y17459933D01*
X4738955Y17542371D01*
X4705805Y17566016D01*
X4661713Y17587569D01*
X4734990Y17615039D01*
X4765827Y17631922D01*
X4882269Y17719190D01*
X4907130Y17744051D01*
X4953000Y17805256D01*
X4998870Y17744051D01*
X5023731Y17719190D01*
X5140173Y17631922D01*
X5171010Y17615039D01*
X5244307Y17587561D01*
X5199496Y17565560D01*
X5166387Y17541857D01*
X5083949Y17459275D01*
X5060304Y17426125D01*
X5009061Y17321293D01*
X4997763Y17284738D01*
X4987799Y17216438D01*
X4986500Y17198538D01*
X4986500Y15608102D01*
X4987822Y15590042D01*
X4997964Y15521148D01*
X5009334Y15484559D01*
X5060760Y15379816D01*
X5084463Y15346707D01*
X5167045Y15264269D01*
X5200195Y15240624D01*
X5305027Y15189381D01*
X5341582Y15178083D01*
X5409882Y15168119D01*
X5427782Y15166820D01*
X7018218Y15166820D01*
X7036278Y15168142D01*
X7105172Y15178284D01*
X7141761Y15189654D01*
X7246504Y15241080D01*
X7279613Y15264783D01*
X7362051Y15347365D01*
X7385696Y15380515D01*
X7436939Y15485347D01*
X7448237Y15521902D01*
X7456541Y15578820D01*
X24526160Y15578820D01*
X24485969Y15492630D01*
X24478576Y15472318D01*
X24421605Y15259697D01*
X24417852Y15238411D01*
X24398667Y15019127D01*
X24398667Y14997513D01*
X24417852Y14778229D01*
X24421605Y14756943D01*
X24478576Y14544322D01*
X24485969Y14524010D01*
X24578997Y14324513D01*
X24589804Y14305795D01*
X24632226Y14245209D01*
X24686802Y14201584D01*
X24756300Y14194390D01*
X24821482Y14228651D01*
X25785000Y15192168D01*
X26748518Y14228651D01*
X26809841Y14195166D01*
X26879533Y14200150D01*
X26937774Y14245209D01*
X26980196Y14305795D01*
X26991003Y14324513D01*
X27084031Y14524010D01*
X27091424Y14544322D01*
X27148395Y14756943D01*
X27152148Y14778229D01*
X27171333Y14997513D01*
X27171333Y15019127D01*
X27152148Y15238411D01*
X27148395Y15259697D01*
X27091424Y15472318D01*
X27084031Y15492630D01*
X27040661Y15585637D01*
X27050479Y15587350D01*
X27113216Y15594942D01*
X27142148Y15602048D01*
X27148545Y15604465D01*
X27155276Y15605640D01*
X27183795Y15614251D01*
X27241639Y15639642D01*
X27300754Y15661980D01*
X27327155Y15675782D01*
X27332788Y15679653D01*
X27339045Y15682400D01*
X27364689Y15697565D01*
X27414825Y15736036D01*
X27466886Y15771817D01*
X27489234Y15791519D01*
X27530232Y15837534D01*
X29503303Y17810604D01*
X29551062Y17644050D01*
X29559970Y17621549D01*
X29649656Y17447039D01*
X29662766Y17426697D01*
X29784640Y17272929D01*
X29801451Y17255520D01*
X29950871Y17128354D01*
X29970744Y17114543D01*
X30117610Y17032463D01*
X29997063Y16969442D01*
X29976813Y16956191D01*
X29823901Y16833247D01*
X29806610Y16816314D01*
X29680490Y16666009D01*
X29666818Y16646042D01*
X29572294Y16474104D01*
X29562760Y16451860D01*
X29503432Y16264836D01*
X29498401Y16241164D01*
X29476530Y16046179D01*
X29476192Y16021981D01*
X29492610Y15826461D01*
X29496979Y15802658D01*
X29551062Y15614050D01*
X29559970Y15591549D01*
X29649656Y15417039D01*
X29662766Y15396697D01*
X29784640Y15242929D01*
X29801451Y15225520D01*
X29950871Y15098354D01*
X29970744Y15084543D01*
X30142019Y14988821D01*
X30164195Y14979132D01*
X30350800Y14918500D01*
X30374436Y14913303D01*
X30569264Y14890071D01*
X30593459Y14889564D01*
X30789089Y14904617D01*
X30812923Y14908820D01*
X31001903Y14961585D01*
X31024465Y14970336D01*
X31199598Y15058802D01*
X31220031Y15071769D01*
X31374645Y15192566D01*
X31392171Y15209256D01*
X31520377Y15357785D01*
X31534326Y15377560D01*
X31631242Y15548162D01*
X31641086Y15570270D01*
X31703019Y15756447D01*
X31708380Y15780047D01*
X31732971Y15974708D01*
X31733937Y15988518D01*
X31734329Y16016589D01*
X31733749Y16030421D01*
X31724604Y16123688D01*
X31730871Y16118354D01*
X31750744Y16104543D01*
X31922019Y16008821D01*
X31944195Y15999132D01*
X32130800Y15938500D01*
X32154436Y15933303D01*
X32349264Y15910071D01*
X32373459Y15909564D01*
X32569089Y15924617D01*
X32592923Y15928820D01*
X32781903Y15981585D01*
X32804465Y15990336D01*
X32979598Y16078802D01*
X33000031Y16091769D01*
X33154645Y16212566D01*
X33172171Y16229256D01*
X33300377Y16377785D01*
X33314326Y16397560D01*
X33411242Y16568162D01*
X33421086Y16590270D01*
X33483019Y16776447D01*
X33488380Y16800047D01*
X33512971Y16994708D01*
X33513937Y17008518D01*
X33514329Y17036589D01*
X33513749Y17050421D01*
X33494602Y17245693D01*
X33489902Y17269432D01*
X33433192Y17457266D01*
X33423969Y17479641D01*
X33331855Y17652882D01*
X33318463Y17673038D01*
X33194454Y17825089D01*
X33177401Y17842262D01*
X33032960Y17961754D01*
X33066162Y17980348D01*
X33115036Y18030280D01*
X33129155Y18098708D01*
X33104038Y18163907D01*
X33093254Y18176218D01*
X32201152Y19068320D01*
X32227510Y19094678D01*
X32623044Y19094678D01*
X32628028Y19024986D01*
X32656529Y18980639D01*
X33277102Y18360066D01*
X33338425Y18326581D01*
X33408117Y18331565D01*
X33464050Y18373437D01*
X33472972Y18387158D01*
X33555607Y18534712D01*
X33564837Y18555443D01*
X33633247Y18756974D01*
X33638545Y18779039D01*
X33669084Y18989662D01*
X33670324Y19004209D01*
X33671918Y19065074D01*
X33671441Y19079666D01*
X33651967Y19291599D01*
X33647832Y19313911D01*
X33590063Y19518746D01*
X33581930Y19539932D01*
X33487799Y19730809D01*
X33475943Y19750157D01*
X33465370Y19764316D01*
X33409486Y19806254D01*
X33339800Y19811322D01*
X33278333Y19777805D01*
X32656529Y19156001D01*
X32623044Y19094678D01*
X32227510Y19094678D01*
X33092026Y19959194D01*
X33125511Y20020517D01*
X33120527Y20090209D01*
X33078655Y20146142D01*
X33070513Y20151745D01*
X33031504Y20176358D01*
X33154645Y20272566D01*
X33172171Y20289256D01*
X33300377Y20437785D01*
X33314326Y20457560D01*
X33411242Y20628162D01*
X33421086Y20650270D01*
X33483019Y20836447D01*
X33488380Y20860047D01*
X33512971Y21054708D01*
X33513937Y21068518D01*
X33514329Y21096589D01*
X33513749Y21110421D01*
X33494602Y21305693D01*
X33489902Y21329432D01*
X33433192Y21517266D01*
X33423969Y21539641D01*
X33331855Y21712882D01*
X33318463Y21733038D01*
X33194454Y21885089D01*
X33177401Y21902262D01*
X33026220Y22027329D01*
X33006158Y22040861D01*
X32870996Y22113943D01*
X32979598Y22168802D01*
X33000031Y22181769D01*
X33154645Y22302566D01*
X33172171Y22319256D01*
X33300377Y22467785D01*
X33314326Y22487560D01*
X33411242Y22658162D01*
X33421086Y22680270D01*
X33483019Y22866447D01*
X33488380Y22890047D01*
X33512971Y23084708D01*
X33513937Y23098518D01*
X33514329Y23126589D01*
X33513749Y23140421D01*
X33494602Y23335693D01*
X33489902Y23359432D01*
X33433192Y23547266D01*
X33423969Y23569641D01*
X33331855Y23742882D01*
X33318463Y23763038D01*
X33194454Y23915089D01*
X33177401Y23932262D01*
X33026220Y24057329D01*
X33006158Y24070861D01*
X32833563Y24164183D01*
X32811253Y24173562D01*
X32623820Y24231582D01*
X32600114Y24236448D01*
X32404981Y24256958D01*
X32380780Y24257127D01*
X32185379Y24239344D01*
X32161607Y24234809D01*
X31973382Y24179411D01*
X31950944Y24170345D01*
X31777063Y24079442D01*
X31756813Y24066191D01*
X31603901Y23943247D01*
X31586610Y23926314D01*
X31460490Y23776009D01*
X31446818Y23756042D01*
X31352294Y23584104D01*
X31342760Y23561860D01*
X31283432Y23374836D01*
X31278401Y23351164D01*
X31256530Y23156179D01*
X31256192Y23131981D01*
X31265478Y23021398D01*
X31246220Y23037329D01*
X31226158Y23050861D01*
X31053563Y23144183D01*
X31031253Y23153562D01*
X30843820Y23211582D01*
X30820114Y23216448D01*
X30624981Y23236958D01*
X30600780Y23237127D01*
X30405379Y23219344D01*
X30381607Y23214809D01*
X30193382Y23159411D01*
X30170944Y23150345D01*
X29997063Y23059442D01*
X29976813Y23046191D01*
X29958300Y23031306D01*
X29958300Y25953009D01*
X32795824Y25953009D01*
X32811392Y25670136D01*
X32813588Y25652759D01*
X32868857Y25374903D01*
X32873478Y25358008D01*
X32967346Y25090710D01*
X32974303Y25074635D01*
X33104897Y24823231D01*
X33114049Y24808297D01*
X33278764Y24577801D01*
X33289928Y24564305D01*
X33485476Y24359317D01*
X33498432Y24347529D01*
X33720913Y24172140D01*
X33735399Y24162294D01*
X33980373Y24020002D01*
X33996102Y24012297D01*
X34258680Y23905942D01*
X34275339Y23900529D01*
X34550284Y23832232D01*
X34567538Y23829221D01*
X34809151Y23804466D01*
X34821790Y23803820D01*
X34997170Y23803820D01*
X35005928Y23804130D01*
X35216351Y23819029D01*
X35233691Y23821497D01*
X35510645Y23881123D01*
X35527465Y23886009D01*
X35793255Y23984064D01*
X35809219Y23991272D01*
X36058542Y24125799D01*
X36073331Y24135184D01*
X36301211Y24303499D01*
X36314530Y24314875D01*
X36516420Y24513619D01*
X36528003Y24526757D01*
X36699877Y24751965D01*
X36709494Y24766605D01*
X36847920Y25013784D01*
X36855377Y25029632D01*
X36957595Y25293849D01*
X36962745Y25310590D01*
X37026715Y25586573D01*
X37029456Y25603873D01*
X37053901Y25886117D01*
X37054176Y25903631D01*
X37038608Y26186504D01*
X37036412Y26203881D01*
X36981143Y26481737D01*
X36976522Y26498632D01*
X36882654Y26765930D01*
X36875697Y26782005D01*
X36745103Y27033409D01*
X36735951Y27048343D01*
X36571236Y27278839D01*
X36560072Y27292335D01*
X36364524Y27497323D01*
X36351568Y27509111D01*
X36129087Y27684500D01*
X36114601Y27694346D01*
X35869627Y27836638D01*
X35853898Y27844343D01*
X35591320Y27950698D01*
X35574661Y27956111D01*
X35299716Y28024408D01*
X35282462Y28027419D01*
X35040849Y28052174D01*
X35028210Y28052820D01*
X34852830Y28052820D01*
X34844072Y28052510D01*
X34633649Y28037611D01*
X34616309Y28035143D01*
X34339355Y27975517D01*
X34322535Y27970631D01*
X34056745Y27872576D01*
X34040781Y27865368D01*
X33791458Y27730841D01*
X33776669Y27721456D01*
X33548789Y27553141D01*
X33535470Y27541765D01*
X33333580Y27343021D01*
X33321997Y27329883D01*
X33150123Y27104675D01*
X33140506Y27090035D01*
X33002080Y26842856D01*
X32994623Y26827008D01*
X32892405Y26562791D01*
X32887255Y26546050D01*
X32823285Y26270067D01*
X32820544Y26252767D01*
X32796099Y25970523D01*
X32795824Y25953009D01*
X29958300Y25953009D01*
X29958300Y27174638D01*
X30036194Y26982807D01*
X30045357Y26964669D01*
X30174279Y26754289D01*
X30186280Y26737891D01*
X30347831Y26551391D01*
X30362350Y26537173D01*
X30552192Y26379563D01*
X30568838Y26367908D01*
X30781872Y26243421D01*
X30800198Y26234641D01*
X31030704Y26146620D01*
X31050217Y26140950D01*
X31292004Y26091757D01*
X31312182Y26089351D01*
X31558756Y26080310D01*
X31579056Y26081232D01*
X31823797Y26112584D01*
X31843674Y26116809D01*
X32080007Y26187712D01*
X32098926Y26195127D01*
X32320506Y26303678D01*
X32337961Y26314083D01*
X32538836Y26457366D01*
X32554357Y26470482D01*
X32729133Y26644649D01*
X32742303Y26660124D01*
X32886286Y26860498D01*
X32896752Y26877916D01*
X33006075Y27099115D01*
X33013556Y27118009D01*
X33085284Y27354093D01*
X33089578Y27373955D01*
X33121784Y27618585D01*
X33122808Y27631740D01*
X33124606Y27705290D01*
X33124226Y27718481D01*
X33104008Y27964392D01*
X33100689Y27984439D01*
X33040580Y28223745D01*
X33034031Y28242982D01*
X32935643Y28469258D01*
X32926041Y28487167D01*
X32792018Y28694335D01*
X32779619Y28710434D01*
X32613560Y28892931D01*
X32598698Y28906790D01*
X32405062Y29059714D01*
X32388137Y29070960D01*
X32172125Y29190205D01*
X32153590Y29198535D01*
X31921002Y29280899D01*
X31901356Y29286089D01*
X31658440Y29329359D01*
X31638209Y29331272D01*
X31391487Y29334286D01*
X31371216Y29332868D01*
X31127314Y29295546D01*
X31107546Y29290837D01*
X30873016Y29214181D01*
X30854283Y29206306D01*
X30635422Y29092374D01*
X30618227Y29081546D01*
X30420912Y28933398D01*
X30405716Y28919906D01*
X30235248Y28741521D01*
X30222460Y28725729D01*
X30083415Y28521897D01*
X30073377Y28504228D01*
X29969491Y28280424D01*
X29962475Y28261354D01*
X29958300Y28246300D01*
X29958300Y32504638D01*
X30036194Y32312807D01*
X30045357Y32294669D01*
X30174279Y32084289D01*
X30186280Y32067891D01*
X30347831Y31881391D01*
X30362350Y31867173D01*
X30552192Y31709563D01*
X30568838Y31697908D01*
X30781872Y31573421D01*
X30800198Y31564641D01*
X31030704Y31476620D01*
X31050217Y31470950D01*
X31292004Y31421757D01*
X31312182Y31419351D01*
X31558756Y31410310D01*
X31579056Y31411232D01*
X31823797Y31442584D01*
X31843674Y31446809D01*
X32080007Y31517712D01*
X32098926Y31525127D01*
X32320506Y31633678D01*
X32337961Y31644083D01*
X32538836Y31787366D01*
X32554357Y31800482D01*
X32729133Y31974649D01*
X32742303Y31990124D01*
X32886286Y32190498D01*
X32896752Y32207916D01*
X33006075Y32429115D01*
X33013556Y32448009D01*
X33085284Y32684093D01*
X33089578Y32703955D01*
X33121784Y32948585D01*
X33122808Y32961740D01*
X33124606Y33035290D01*
X33124226Y33048481D01*
X33104008Y33294392D01*
X33100689Y33314439D01*
X33040580Y33553745D01*
X33034031Y33572982D01*
X32935643Y33799258D01*
X32926041Y33817167D01*
X32792018Y34024335D01*
X32779619Y34040434D01*
X32613560Y34222931D01*
X32598698Y34236790D01*
X32405062Y34389714D01*
X32388137Y34400960D01*
X32172125Y34520205D01*
X32153590Y34528535D01*
X31921002Y34610899D01*
X31901356Y34616089D01*
X31658440Y34659359D01*
X31638209Y34661272D01*
X31391487Y34664286D01*
X31371216Y34662868D01*
X31127314Y34625546D01*
X31107546Y34620837D01*
X30873016Y34544181D01*
X30854283Y34536306D01*
X30635422Y34422374D01*
X30618227Y34411546D01*
X30420912Y34263398D01*
X30405716Y34249906D01*
X30235248Y34071521D01*
X30222460Y34055729D01*
X30083415Y33851897D01*
X30073377Y33834228D01*
X29969491Y33610424D01*
X29962475Y33591354D01*
X29958300Y33576300D01*
X29958300Y34843009D01*
X32795824Y34843009D01*
X32811392Y34560136D01*
X32813588Y34542759D01*
X32868857Y34264903D01*
X32873478Y34248008D01*
X32967346Y33980710D01*
X32974303Y33964635D01*
X33104897Y33713231D01*
X33114049Y33698297D01*
X33278764Y33467801D01*
X33289928Y33454305D01*
X33485476Y33249317D01*
X33498432Y33237529D01*
X33720913Y33062140D01*
X33735399Y33052294D01*
X33980373Y32910002D01*
X33996102Y32902297D01*
X34258680Y32795942D01*
X34275339Y32790529D01*
X34550284Y32722232D01*
X34567538Y32719221D01*
X34809151Y32694466D01*
X34821790Y32693820D01*
X34997170Y32693820D01*
X35005928Y32694130D01*
X35216351Y32709029D01*
X35233691Y32711497D01*
X35510645Y32771123D01*
X35527465Y32776009D01*
X35793255Y32874064D01*
X35809219Y32881272D01*
X36058542Y33015799D01*
X36073331Y33025184D01*
X36301211Y33193499D01*
X36314530Y33204875D01*
X36516420Y33403619D01*
X36528003Y33416757D01*
X36699877Y33641965D01*
X36709494Y33656605D01*
X36847920Y33903784D01*
X36855377Y33919632D01*
X36957595Y34183849D01*
X36962745Y34200590D01*
X37026715Y34476573D01*
X37029456Y34493873D01*
X37053901Y34776117D01*
X37054176Y34793631D01*
X37038608Y35076504D01*
X37036412Y35093881D01*
X36981143Y35371737D01*
X36976522Y35388632D01*
X36882654Y35655930D01*
X36875697Y35672005D01*
X36745103Y35923409D01*
X36735951Y35938343D01*
X36571236Y36168839D01*
X36560072Y36182335D01*
X36364524Y36387323D01*
X36351568Y36399111D01*
X36129087Y36574500D01*
X36114601Y36584346D01*
X35869627Y36726638D01*
X35853898Y36734343D01*
X35591320Y36840698D01*
X35574661Y36846111D01*
X35299716Y36914408D01*
X35282462Y36917419D01*
X35040849Y36942174D01*
X35028210Y36942820D01*
X34852830Y36942820D01*
X34844072Y36942510D01*
X34633649Y36927611D01*
X34616309Y36925143D01*
X34339355Y36865517D01*
X34322535Y36860631D01*
X34056745Y36762576D01*
X34040781Y36755368D01*
X33791458Y36620841D01*
X33776669Y36611456D01*
X33548789Y36443141D01*
X33535470Y36431765D01*
X33333580Y36233021D01*
X33321997Y36219883D01*
X33150123Y35994675D01*
X33140506Y35980035D01*
X33002080Y35732856D01*
X32994623Y35717008D01*
X32892405Y35452791D01*
X32887255Y35436050D01*
X32823285Y35160067D01*
X32820544Y35142767D01*
X32796099Y34860523D01*
X32795824Y34843009D01*
X29958300Y34843009D01*
X29958300Y36683191D01*
X29970744Y36674543D01*
X30142019Y36578821D01*
X30164195Y36569132D01*
X30350800Y36508500D01*
X30374436Y36503303D01*
X30569264Y36480071D01*
X30593459Y36479564D01*
X30789089Y36494617D01*
X30812923Y36498820D01*
X31001903Y36551585D01*
X31024465Y36560336D01*
X31199598Y36648802D01*
X31220031Y36661769D01*
X31374645Y36782566D01*
X31392171Y36799256D01*
X31520377Y36947785D01*
X31534326Y36967560D01*
X31631242Y37138162D01*
X31641086Y37160270D01*
X31703019Y37346447D01*
X31708380Y37370047D01*
X31732971Y37564708D01*
X31733937Y37578518D01*
X31734329Y37606589D01*
X31733749Y37620421D01*
X31724604Y37713688D01*
X31730871Y37708354D01*
X31750744Y37694543D01*
X31922019Y37598821D01*
X31944195Y37589132D01*
X32130800Y37528500D01*
X32154436Y37523303D01*
X32349264Y37500071D01*
X32373459Y37499564D01*
X32569089Y37514617D01*
X32592923Y37518820D01*
X32781903Y37571585D01*
X32804465Y37580336D01*
X32979598Y37668802D01*
X33000031Y37681769D01*
X33154645Y37802566D01*
X33172171Y37819256D01*
X33300377Y37967785D01*
X33314326Y37987560D01*
X33411242Y38158162D01*
X33421086Y38180270D01*
X33483019Y38366447D01*
X33488380Y38390047D01*
X33512971Y38584708D01*
X33513937Y38598518D01*
X33514329Y38626589D01*
X33513749Y38640421D01*
X33494602Y38835693D01*
X33489902Y38859432D01*
X33433192Y39047266D01*
X33423969Y39069641D01*
X33331855Y39242882D01*
X33318463Y39263038D01*
X33194454Y39415089D01*
X33177401Y39432262D01*
X33032960Y39551754D01*
X33066162Y39570348D01*
X33115036Y39620280D01*
X33129155Y39688708D01*
X33104038Y39753907D01*
X33093254Y39766218D01*
X32201152Y40658320D01*
X32227510Y40684678D01*
X32623044Y40684678D01*
X32628028Y40614986D01*
X32656529Y40570639D01*
X33277102Y39950066D01*
X33338425Y39916581D01*
X33408117Y39921565D01*
X33464050Y39963437D01*
X33472972Y39977158D01*
X33555607Y40124712D01*
X33564837Y40145443D01*
X33633247Y40346974D01*
X33638545Y40369039D01*
X33669084Y40579662D01*
X33670324Y40594209D01*
X33671918Y40655074D01*
X33671441Y40669666D01*
X33651967Y40881599D01*
X33647832Y40903911D01*
X33590063Y41108746D01*
X33581930Y41129932D01*
X33487799Y41320809D01*
X33475943Y41340157D01*
X33465370Y41354316D01*
X33409486Y41396254D01*
X33339800Y41401322D01*
X33278333Y41367805D01*
X32656529Y40746001D01*
X32623044Y40684678D01*
X32227510Y40684678D01*
X33092026Y41549194D01*
X33125511Y41610517D01*
X33120527Y41680209D01*
X33078655Y41736142D01*
X33070513Y41741745D01*
X33031504Y41766358D01*
X33154645Y41862566D01*
X33172171Y41879256D01*
X33300377Y42027785D01*
X33314326Y42047560D01*
X33411242Y42218162D01*
X33421086Y42240270D01*
X33483019Y42426447D01*
X33488380Y42450047D01*
X33512971Y42644708D01*
X33513937Y42658518D01*
X33514329Y42686589D01*
X33513749Y42700421D01*
X33494602Y42895693D01*
X33489902Y42919432D01*
X33433192Y43107266D01*
X33423969Y43129641D01*
X33331855Y43302882D01*
X33318463Y43323038D01*
X33194454Y43475089D01*
X33177401Y43492262D01*
X33026220Y43617329D01*
X33006158Y43630861D01*
X32870996Y43703943D01*
X32979598Y43758802D01*
X33000031Y43771769D01*
X33154645Y43892566D01*
X33172171Y43909256D01*
X33300377Y44057785D01*
X33314326Y44077560D01*
X33411242Y44248162D01*
X33421086Y44270270D01*
X33483019Y44456447D01*
X33488380Y44480047D01*
X33512971Y44674708D01*
X33513937Y44688518D01*
X33514329Y44716589D01*
X33513749Y44730421D01*
X33494602Y44925693D01*
X33489902Y44949432D01*
X33433192Y45137266D01*
X33423969Y45159641D01*
X33331855Y45332882D01*
X33318463Y45353038D01*
X33194454Y45505089D01*
X33177401Y45522262D01*
X33026220Y45647329D01*
X33006158Y45660861D01*
X32833563Y45754183D01*
X32811253Y45763562D01*
X32623820Y45821582D01*
X32600114Y45826448D01*
X32404981Y45846958D01*
X32380780Y45847127D01*
X32185379Y45829344D01*
X32161607Y45824809D01*
X31973382Y45769411D01*
X31950944Y45760345D01*
X31777063Y45669442D01*
X31756813Y45656191D01*
X31603901Y45533247D01*
X31586610Y45516314D01*
X31460490Y45366009D01*
X31446818Y45346042D01*
X31352294Y45174104D01*
X31342760Y45151860D01*
X31283432Y44964836D01*
X31278401Y44941164D01*
X31256530Y44746179D01*
X31256192Y44721981D01*
X31265478Y44611398D01*
X31246220Y44627329D01*
X31226158Y44640861D01*
X31053563Y44734183D01*
X31031253Y44743562D01*
X30843820Y44801582D01*
X30820114Y44806448D01*
X30624981Y44826958D01*
X30600780Y44827127D01*
X30405379Y44809344D01*
X30381607Y44804809D01*
X30193382Y44749411D01*
X30170944Y44740345D01*
X29997063Y44649442D01*
X29976813Y44636191D01*
X29823901Y44513247D01*
X29806610Y44496314D01*
X29680490Y44346009D01*
X29666818Y44326042D01*
X29572294Y44154104D01*
X29562760Y44131860D01*
X29503432Y43944836D01*
X29498401Y43921164D01*
X29476530Y43726179D01*
X29476192Y43701981D01*
X29492610Y43506461D01*
X29496979Y43482658D01*
X29551062Y43294050D01*
X29559970Y43271549D01*
X29649656Y43097039D01*
X29662766Y43076697D01*
X29784640Y42922929D01*
X29801451Y42905520D01*
X29950871Y42778354D01*
X29970744Y42764543D01*
X30117610Y42682463D01*
X29997063Y42619442D01*
X29976813Y42606191D01*
X29823901Y42483247D01*
X29806610Y42466314D01*
X29680490Y42316009D01*
X29666818Y42296042D01*
X29572294Y42124104D01*
X29562760Y42101860D01*
X29503432Y41914836D01*
X29498401Y41891164D01*
X29477754Y41707093D01*
X28570993Y40800332D01*
X28527890Y40762731D01*
X28507953Y40740589D01*
X28471633Y40688910D01*
X28432636Y40639176D01*
X28417201Y40613688D01*
X28414390Y40607462D01*
X28410464Y40601876D01*
X28396384Y40575617D01*
X28373433Y40516753D01*
X28347431Y40459163D01*
X28338522Y40430735D01*
X28337277Y40424016D01*
X28334794Y40417648D01*
X28327385Y40388791D01*
X28319140Y40326159D01*
X28307624Y40264026D01*
X28305754Y40234291D01*
X28309300Y40172787D01*
X28309300Y21578098D01*
X28305409Y21521024D01*
X28306969Y21491270D01*
X28317830Y21429041D01*
X28325422Y21366304D01*
X28332528Y21337372D01*
X28334945Y21330975D01*
X28336120Y21324244D01*
X28344731Y21295725D01*
X28370122Y21237881D01*
X28392460Y21178766D01*
X28406262Y21152365D01*
X28410133Y21146732D01*
X28412880Y21140475D01*
X28428045Y21114831D01*
X28466516Y21064695D01*
X28502297Y21012634D01*
X28521999Y20990286D01*
X28568014Y20949288D01*
X29438981Y20078320D01*
X26588481Y17227820D01*
X23953433Y17227820D01*
X23955867Y17230138D01*
X23973636Y17251314D01*
X24066813Y17391556D01*
X24079450Y17416144D01*
X24139240Y17573544D01*
X24146114Y17600319D01*
X24169548Y17767054D01*
X24170743Y17782583D01*
X24171037Y17803671D01*
X24170276Y17819222D01*
X24151508Y17986546D01*
X24145384Y18013504D01*
X24090011Y18172512D01*
X24078066Y18197442D01*
X23988842Y18340231D01*
X23971671Y18361896D01*
X23853029Y18481369D01*
X23831484Y18498691D01*
X23689321Y18588910D01*
X23664475Y18601028D01*
X23505858Y18657509D01*
X23478945Y18663822D01*
X23311756Y18683759D01*
X23284111Y18683952D01*
X23116659Y18666352D01*
X23089660Y18660415D01*
X22930270Y18606154D01*
X22905257Y18594384D01*
X22800440Y18529900D01*
X19375497Y18529900D01*
X15746162Y22159235D01*
X15744108Y22177546D01*
X15737984Y22204504D01*
X15682611Y22363512D01*
X15670666Y22388442D01*
X15581442Y22531231D01*
X15564271Y22552896D01*
X15445629Y22672369D01*
X15424084Y22689691D01*
X15281921Y22779910D01*
X15257075Y22792028D01*
X15098458Y22848509D01*
X15071545Y22854822D01*
X14904356Y22874759D01*
X14876711Y22874952D01*
X14709259Y22857352D01*
X14682260Y22851415D01*
X14522870Y22797154D01*
X14497857Y22785384D01*
X14354448Y22697158D01*
X14332664Y22680138D01*
X14212366Y22562333D01*
X14194894Y22540911D01*
X14103685Y22399382D01*
X14091393Y22374621D01*
X14033805Y22216402D01*
X14027305Y22189532D01*
X14006203Y22022486D01*
X14005817Y21994845D01*
X14022247Y21827275D01*
X14027994Y21800235D01*
X14081141Y21640469D01*
X14092737Y21615374D01*
X14179959Y21471353D01*
X14196826Y21449450D01*
X14313788Y21328333D01*
X14335088Y21310713D01*
X14475977Y21218517D01*
X14500652Y21206052D01*
X14658466Y21147362D01*
X14685289Y21140674D01*
X14720185Y21136018D01*
X18529519Y17326684D01*
X18548742Y17301632D01*
X18571632Y17278742D01*
X18637995Y17227820D01*
X7456526Y17227820D01*
X7448036Y17285492D01*
X7436666Y17322081D01*
X7385240Y17426824D01*
X7361537Y17459933D01*
X7278955Y17542371D01*
X7245805Y17566016D01*
X7201713Y17587569D01*
X7274990Y17615039D01*
X7305827Y17631922D01*
X7422269Y17719190D01*
X7447130Y17744051D01*
X7534398Y17860493D01*
X7551281Y17891330D01*
X7602361Y18027585D01*
X7609527Y18057721D01*
X7616275Y18119839D01*
X7617000Y18133231D01*
X7617000Y18689320D01*
X7597315Y18756359D01*
X7544511Y18802114D01*
X7493000Y18813320D01*
X2413001Y18813320D01*
X2345962Y18793635D01*
X2300207Y18740831D01*
X2289001Y18689320D01*
X2289001Y18133232D01*
X878000Y18133232D01*
X878000Y19197320D01*
X2289000Y19197320D01*
X2308685Y19130281D01*
X2361489Y19084526D01*
X2413000Y19073320D01*
X3429000Y19073320D01*
X3496039Y19093005D01*
X3541794Y19145809D01*
X3553000Y19197320D01*
X3813000Y19197320D01*
X3832685Y19130281D01*
X3885489Y19084526D01*
X3937000Y19073320D01*
X5969000Y19073320D01*
X6036039Y19093005D01*
X6081794Y19145809D01*
X6093000Y19197320D01*
X6353000Y19197320D01*
X6372685Y19130281D01*
X6425489Y19084526D01*
X6477000Y19073320D01*
X7492999Y19073320D01*
X7560038Y19093005D01*
X7605793Y19145809D01*
X7616999Y19197320D01*
X7616999Y19753408D01*
X7616274Y19766797D01*
X7609527Y19828916D01*
X7602361Y19859055D01*
X7551281Y19995310D01*
X7534398Y20026147D01*
X7447130Y20142589D01*
X7422269Y20167450D01*
X7305827Y20254718D01*
X7274990Y20271601D01*
X7138735Y20322681D01*
X7108599Y20329847D01*
X7046481Y20336595D01*
X7033089Y20337320D01*
X6477000Y20337320D01*
X6409961Y20317635D01*
X6364206Y20264831D01*
X6353000Y20213320D01*
X6353000Y19197320D01*
X6093000Y19197320D01*
X6093000Y20213319D01*
X6073315Y20280358D01*
X6020511Y20326113D01*
X5969000Y20337319D01*
X5412912Y20337319D01*
X5399523Y20336594D01*
X5337404Y20329847D01*
X5307265Y20322681D01*
X5171010Y20271601D01*
X5140173Y20254718D01*
X5023731Y20167450D01*
X4998870Y20142589D01*
X4953000Y20081384D01*
X4907130Y20142589D01*
X4882269Y20167450D01*
X4765827Y20254718D01*
X4734990Y20271601D01*
X4598735Y20322681D01*
X4568599Y20329847D01*
X4506481Y20336595D01*
X4493089Y20337320D01*
X3937000Y20337320D01*
X3869961Y20317635D01*
X3824206Y20264831D01*
X3813000Y20213320D01*
X3813000Y19197320D01*
X3553000Y19197320D01*
X3553000Y20213319D01*
X3533315Y20280358D01*
X3480511Y20326113D01*
X3429000Y20337319D01*
X2872912Y20337319D01*
X2859523Y20336594D01*
X2797404Y20329847D01*
X2767265Y20322681D01*
X2631010Y20271601D01*
X2600173Y20254718D01*
X2483731Y20167450D01*
X2458870Y20142589D01*
X2371602Y20026147D01*
X2354719Y19995310D01*
X2303639Y19859055D01*
X2296473Y19828919D01*
X2289725Y19766801D01*
X2289000Y19753409D01*
X2289000Y19197320D01*
X878000Y19197320D01*
X878000Y24169141D01*
X24556429Y24169141D01*
X24569657Y23967316D01*
X24573207Y23944903D01*
X24622993Y23748869D01*
X24630568Y23727478D01*
X24715246Y23543799D01*
X24726592Y23524147D01*
X24843324Y23358974D01*
X24858062Y23341718D01*
X25002940Y23200585D01*
X25020575Y23186305D01*
X25188746Y23073936D01*
X25208689Y23063108D01*
X25394522Y22983268D01*
X25416103Y22976256D01*
X25613373Y22931618D01*
X25635872Y22928656D01*
X25837974Y22920716D01*
X25860635Y22921903D01*
X26060800Y22950925D01*
X26082866Y22956223D01*
X26274390Y23021237D01*
X26295120Y23030466D01*
X26471590Y23129293D01*
X26490292Y23142147D01*
X26645796Y23271479D01*
X26661841Y23287524D01*
X26791173Y23443028D01*
X26804027Y23461730D01*
X26902854Y23638200D01*
X26912083Y23658930D01*
X26977097Y23850454D01*
X26982395Y23872520D01*
X27011417Y24072685D01*
X27012657Y24087231D01*
X27014172Y24145073D01*
X27013695Y24159666D01*
X26995188Y24361075D01*
X26991052Y24383387D01*
X26936151Y24578052D01*
X26928019Y24599238D01*
X26838563Y24780637D01*
X26826706Y24799985D01*
X26705690Y24962045D01*
X26690506Y24978909D01*
X26541983Y25116202D01*
X26523980Y25130016D01*
X26407301Y25203635D01*
X26468808Y25232317D01*
X26487526Y25243124D01*
X26548111Y25285546D01*
X26591736Y25340123D01*
X26598930Y25409621D01*
X26564669Y25474802D01*
X25872681Y26166791D01*
X25811358Y26200276D01*
X25741667Y26195292D01*
X25697319Y26166791D01*
X25005331Y25474802D01*
X24971846Y25413479D01*
X24976830Y25343787D01*
X25021889Y25285546D01*
X25082474Y25243124D01*
X25101192Y25232317D01*
X25163297Y25203357D01*
X25071971Y25149024D01*
X25053612Y25135686D01*
X24901546Y25002328D01*
X24885925Y24985867D01*
X24760709Y24827030D01*
X24748351Y24808000D01*
X24654176Y24629004D01*
X24645491Y24608038D01*
X24585514Y24414878D01*
X24580797Y24392682D01*
X24557024Y24191826D01*
X24556429Y24169141D01*
X878000Y24169141D01*
X878000Y26427513D01*
X24398667Y26427513D01*
X24417852Y26208229D01*
X24421605Y26186943D01*
X24478576Y25974322D01*
X24485969Y25954010D01*
X24578997Y25754513D01*
X24589804Y25735795D01*
X24632226Y25675209D01*
X24686802Y25631584D01*
X24756300Y25624390D01*
X24821482Y25658651D01*
X25513471Y26350639D01*
X25546956Y26411962D01*
X25543186Y26464678D01*
X26023044Y26464678D01*
X26028028Y26394987D01*
X26056529Y26350639D01*
X26748518Y25658651D01*
X26809841Y25625166D01*
X26879533Y25630150D01*
X26937774Y25675209D01*
X26980196Y25735795D01*
X26991003Y25754513D01*
X27084031Y25954010D01*
X27091424Y25974322D01*
X27148395Y26186943D01*
X27152148Y26208229D01*
X27171333Y26427513D01*
X27171333Y26449127D01*
X27152148Y26668411D01*
X27148395Y26689697D01*
X27091424Y26902318D01*
X27084031Y26922630D01*
X26991003Y27122127D01*
X26980196Y27140845D01*
X26937774Y27201431D01*
X26883198Y27245056D01*
X26813700Y27252250D01*
X26748518Y27217989D01*
X26056529Y26526001D01*
X26023044Y26464678D01*
X25543186Y26464678D01*
X25541972Y26481653D01*
X25513471Y26526001D01*
X24821482Y27217989D01*
X24760159Y27251474D01*
X24690467Y27246490D01*
X24632226Y27201431D01*
X24589804Y27140845D01*
X24578997Y27122127D01*
X24485969Y26922630D01*
X24478576Y26902318D01*
X24421605Y26689697D01*
X24417852Y26668411D01*
X24398667Y26449127D01*
X24398667Y26427513D01*
X878000Y26427513D01*
X878000Y27345891D01*
X12043258Y27345891D01*
X12048242Y27276199D01*
X12090114Y27220266D01*
X12121201Y27203310D01*
X12291067Y27140137D01*
X12317890Y27133449D01*
X12497571Y27109474D01*
X12525210Y27108895D01*
X12705738Y27125325D01*
X12732816Y27130884D01*
X12803870Y27153970D01*
X12841067Y27140137D01*
X12867890Y27133449D01*
X13047571Y27109474D01*
X13075210Y27108895D01*
X13255738Y27125325D01*
X13282816Y27130884D01*
X13353870Y27153970D01*
X13391067Y27140137D01*
X13417890Y27133449D01*
X13597571Y27109474D01*
X13625210Y27108895D01*
X13805738Y27125325D01*
X13832817Y27130884D01*
X14005219Y27186900D01*
X14030395Y27198320D01*
X14058825Y27215268D01*
X14106330Y27266504D01*
X14118593Y27335289D01*
X14091721Y27399785D01*
X14083012Y27409460D01*
X14025452Y27467020D01*
X24971070Y27467020D01*
X25005331Y27401838D01*
X25697319Y26709849D01*
X25758642Y26676364D01*
X25828333Y26681348D01*
X25872681Y26709849D01*
X26564669Y27401838D01*
X26598154Y27463161D01*
X26593170Y27532853D01*
X26548111Y27591094D01*
X26487526Y27633516D01*
X26468808Y27644323D01*
X26269310Y27737351D01*
X26248998Y27744744D01*
X26036377Y27801715D01*
X26015091Y27805468D01*
X25795807Y27824653D01*
X25774193Y27824653D01*
X25554909Y27805468D01*
X25533623Y27801715D01*
X25321002Y27744744D01*
X25300690Y27737351D01*
X25101193Y27644323D01*
X25082475Y27633516D01*
X25021889Y27591094D01*
X24978264Y27536518D01*
X24971070Y27467020D01*
X14025452Y27467020D01*
X13718681Y27773791D01*
X13657358Y27807276D01*
X13587666Y27802292D01*
X13543319Y27773791D01*
X13210979Y27441450D01*
X13168681Y27483748D01*
X13107358Y27517232D01*
X13037666Y27512248D01*
X12993319Y27483748D01*
X12951021Y27441450D01*
X12618681Y27773791D01*
X12557358Y27807276D01*
X12487667Y27802292D01*
X12443319Y27773791D01*
X12076743Y27407214D01*
X12043258Y27345891D01*
X878000Y27345891D01*
X878000Y28044573D01*
X11594558Y28044573D01*
X11612247Y27864164D01*
X11617994Y27837123D01*
X11675213Y27665117D01*
X11686810Y27640021D01*
X11701088Y27616446D01*
X11752654Y27569301D01*
X11821523Y27557519D01*
X11885830Y27584840D01*
X11894833Y27593002D01*
X12259471Y27957639D01*
X12292956Y28018962D01*
X12289186Y28071678D01*
X13869044Y28071678D01*
X13874028Y28001987D01*
X13902529Y27957639D01*
X14268631Y27591538D01*
X14329954Y27558053D01*
X14399646Y27563037D01*
X14455579Y27604909D01*
X14472230Y27635185D01*
X14534486Y27799073D01*
X14541361Y27825850D01*
X14566589Y28005360D01*
X14567784Y28020886D01*
X14568101Y28043589D01*
X14567340Y28059142D01*
X14547134Y28239286D01*
X14541010Y28266243D01*
X14522841Y28318418D01*
X14534486Y28349074D01*
X14541361Y28375850D01*
X14566589Y28555360D01*
X14567784Y28570886D01*
X14568101Y28593589D01*
X14567340Y28609142D01*
X14547134Y28789286D01*
X14541010Y28816243D01*
X14522841Y28868418D01*
X14534486Y28899074D01*
X14541361Y28925850D01*
X14566589Y29105360D01*
X14567784Y29120886D01*
X14568101Y29143589D01*
X14567340Y29159142D01*
X14547134Y29339286D01*
X14541010Y29366243D01*
X14481395Y29537434D01*
X14469452Y29562362D01*
X14460705Y29576361D01*
X14408487Y29622784D01*
X14339461Y29633606D01*
X14275541Y29605392D01*
X14267864Y29598335D01*
X13902529Y29233001D01*
X13869044Y29171678D01*
X13874028Y29101987D01*
X13902529Y29057639D01*
X14234870Y28725299D01*
X14192572Y28683001D01*
X14159088Y28621678D01*
X14164072Y28551986D01*
X14192572Y28507639D01*
X14234870Y28465341D01*
X13902529Y28133001D01*
X13869044Y28071678D01*
X12289186Y28071678D01*
X12287972Y28088653D01*
X12259471Y28133001D01*
X11927130Y28465341D01*
X11969428Y28507639D01*
X12002912Y28568962D01*
X11997928Y28638654D01*
X11969428Y28683001D01*
X11927130Y28725299D01*
X12259471Y29057639D01*
X12292956Y29118962D01*
X12287972Y29188653D01*
X12259471Y29233001D01*
X11893331Y29599140D01*
X11832008Y29632625D01*
X11762316Y29627641D01*
X11706383Y29585769D01*
X11701425Y29578639D01*
X11698460Y29574039D01*
X11686163Y29549269D01*
X11624164Y29378927D01*
X11617664Y29352059D01*
X11594944Y29172215D01*
X11594558Y29144573D01*
X11612247Y28964164D01*
X11617994Y28937124D01*
X11639745Y28871737D01*
X11624164Y28828927D01*
X11617664Y28802059D01*
X11594944Y28622215D01*
X11594558Y28594573D01*
X11612247Y28414164D01*
X11617994Y28387124D01*
X11639745Y28321737D01*
X11624164Y28278927D01*
X11617664Y28252059D01*
X11594944Y28072215D01*
X11594558Y28044573D01*
X878000Y28044573D01*
X878000Y29854275D01*
X12042967Y29854275D01*
X12070735Y29790161D01*
X12078347Y29781822D01*
X12443319Y29416849D01*
X12504642Y29383364D01*
X12574333Y29388348D01*
X12618681Y29416849D01*
X12951021Y29749190D01*
X12993319Y29706892D01*
X13054642Y29673408D01*
X13124334Y29678392D01*
X13168681Y29706892D01*
X13210979Y29749190D01*
X13543319Y29416849D01*
X13604642Y29383364D01*
X13674333Y29388348D01*
X13718681Y29416849D01*
X14084403Y29782572D01*
X14117888Y29843895D01*
X14112904Y29913587D01*
X14071032Y29969520D01*
X14063170Y29974946D01*
X14053893Y29980834D01*
X14029041Y29992956D01*
X13858271Y30053765D01*
X13831357Y30060078D01*
X13651359Y30081541D01*
X13623716Y30081734D01*
X13443435Y30062786D01*
X13416435Y30056850D01*
X13356708Y30036517D01*
X13308271Y30053765D01*
X13281357Y30060078D01*
X13101359Y30081541D01*
X13073716Y30081734D01*
X12893435Y30062786D01*
X12866435Y30056850D01*
X12806708Y30036517D01*
X12758271Y30053765D01*
X12731357Y30060078D01*
X12551359Y30081541D01*
X12523716Y30081734D01*
X12343435Y30062786D01*
X12316435Y30056850D01*
X12144832Y29998432D01*
X12119820Y29986662D01*
X12101055Y29975118D01*
X12054269Y29923225D01*
X12042967Y29854275D01*
X878000Y29854275D01*
X878000Y31849232D01*
X2289001Y31849232D01*
X2289726Y31835843D01*
X2296473Y31773724D01*
X2303639Y31743585D01*
X2354719Y31607330D01*
X2371602Y31576493D01*
X2458870Y31460051D01*
X2483731Y31435190D01*
X2600173Y31347922D01*
X2631010Y31331039D01*
X2767265Y31279959D01*
X2797401Y31272793D01*
X2859519Y31266045D01*
X2872911Y31265320D01*
X3429000Y31265320D01*
X3496039Y31285005D01*
X3541794Y31337809D01*
X3553000Y31389320D01*
X3553000Y31389321D01*
X3813000Y31389321D01*
X3832685Y31322282D01*
X3885489Y31276527D01*
X3937000Y31265321D01*
X4493088Y31265321D01*
X4506477Y31266046D01*
X4568596Y31272793D01*
X4598735Y31279959D01*
X4734990Y31331039D01*
X4765827Y31347922D01*
X4882269Y31435190D01*
X4907130Y31460051D01*
X4953000Y31521256D01*
X4998870Y31460051D01*
X5023731Y31435190D01*
X5140173Y31347922D01*
X5171010Y31331039D01*
X5307265Y31279959D01*
X5337401Y31272793D01*
X5399519Y31266045D01*
X5412911Y31265320D01*
X5969000Y31265320D01*
X6036039Y31285005D01*
X6081794Y31337809D01*
X6093000Y31389320D01*
X6093000Y31389321D01*
X6353000Y31389321D01*
X6372685Y31322282D01*
X6425489Y31276527D01*
X6477000Y31265321D01*
X7033088Y31265321D01*
X7046477Y31266046D01*
X7108596Y31272793D01*
X7138735Y31279959D01*
X7274990Y31331039D01*
X7305827Y31347922D01*
X7422269Y31435190D01*
X7447130Y31460051D01*
X7534398Y31576493D01*
X7551281Y31607330D01*
X7602361Y31743585D01*
X7609527Y31773721D01*
X7616275Y31835839D01*
X7617000Y31849231D01*
X7617000Y32405320D01*
X7597315Y32472359D01*
X7544511Y32518114D01*
X7493000Y32529320D01*
X6477000Y32529320D01*
X6409961Y32509635D01*
X6364206Y32456831D01*
X6353000Y32405320D01*
X6353000Y31389321D01*
X6093000Y31389321D01*
X6093000Y32405320D01*
X6073315Y32472359D01*
X6020511Y32518114D01*
X5969000Y32529320D01*
X3937000Y32529320D01*
X3869961Y32509635D01*
X3824206Y32456831D01*
X3813000Y32405320D01*
X3813000Y31389321D01*
X3553000Y31389321D01*
X3553000Y32405320D01*
X3533315Y32472359D01*
X3480511Y32518114D01*
X3429000Y32529320D01*
X2413001Y32529320D01*
X2345962Y32509635D01*
X2300207Y32456831D01*
X2289001Y32405320D01*
X2289001Y31849232D01*
X878000Y31849232D01*
X878000Y32913320D01*
X2289000Y32913320D01*
X2308685Y32846281D01*
X2361489Y32800526D01*
X2413000Y32789320D01*
X7492999Y32789320D01*
X7560038Y32809005D01*
X7605793Y32861809D01*
X7616999Y32913320D01*
X7616999Y33469408D01*
X7616274Y33482797D01*
X7609527Y33544916D01*
X7602361Y33575055D01*
X7551281Y33711310D01*
X7534398Y33742147D01*
X7447130Y33858589D01*
X7422269Y33883450D01*
X7305827Y33970718D01*
X7274990Y33987601D01*
X7201693Y34015079D01*
X7246504Y34037080D01*
X7279613Y34060783D01*
X7362051Y34143365D01*
X7385696Y34176515D01*
X7436939Y34281347D01*
X7448237Y34317902D01*
X7449877Y34329141D01*
X24556429Y34329141D01*
X24569657Y34127316D01*
X24573207Y34104903D01*
X24622993Y33908869D01*
X24630568Y33887478D01*
X24715246Y33703799D01*
X24726592Y33684147D01*
X24843324Y33518974D01*
X24858062Y33501718D01*
X25002940Y33360585D01*
X25020575Y33346305D01*
X25188746Y33233936D01*
X25208689Y33223108D01*
X25394522Y33143268D01*
X25416103Y33136256D01*
X25613373Y33091618D01*
X25635872Y33088656D01*
X25837974Y33080716D01*
X25860635Y33081903D01*
X26060800Y33110925D01*
X26082866Y33116223D01*
X26274390Y33181237D01*
X26295120Y33190466D01*
X26471590Y33289293D01*
X26490292Y33302147D01*
X26645796Y33431479D01*
X26661841Y33447524D01*
X26791173Y33603028D01*
X26804027Y33621730D01*
X26902854Y33798200D01*
X26912083Y33818930D01*
X26977097Y34010454D01*
X26982395Y34032520D01*
X27011417Y34232685D01*
X27012657Y34247231D01*
X27014172Y34305073D01*
X27013695Y34319666D01*
X26995188Y34521075D01*
X26991052Y34543387D01*
X26936151Y34738052D01*
X26928019Y34759238D01*
X26838563Y34940637D01*
X26826706Y34959985D01*
X26705690Y35122045D01*
X26690506Y35138909D01*
X26541983Y35276202D01*
X26523980Y35290016D01*
X26407301Y35363635D01*
X26468808Y35392317D01*
X26487526Y35403124D01*
X26548111Y35445546D01*
X26591736Y35500123D01*
X26598930Y35569621D01*
X26564669Y35634802D01*
X25872681Y36326791D01*
X25811358Y36360276D01*
X25741667Y36355292D01*
X25697319Y36326791D01*
X25005331Y35634802D01*
X24971846Y35573479D01*
X24976830Y35503787D01*
X25021889Y35445546D01*
X25082474Y35403124D01*
X25101192Y35392317D01*
X25163297Y35363357D01*
X25071971Y35309024D01*
X25053612Y35295686D01*
X24901546Y35162328D01*
X24885925Y35145867D01*
X24760709Y34987030D01*
X24748351Y34968000D01*
X24654176Y34789004D01*
X24645491Y34768038D01*
X24585514Y34574878D01*
X24580797Y34552682D01*
X24557024Y34351826D01*
X24556429Y34329141D01*
X7449877Y34329141D01*
X7458201Y34386202D01*
X7459500Y34404102D01*
X7459500Y35994538D01*
X7458178Y36012598D01*
X7448036Y36081492D01*
X7436666Y36118081D01*
X7385240Y36222824D01*
X7361537Y36255933D01*
X7278955Y36338371D01*
X7245805Y36362016D01*
X7201713Y36383569D01*
X7274990Y36411039D01*
X7305827Y36427922D01*
X7422269Y36515190D01*
X7447130Y36540051D01*
X7482701Y36587513D01*
X24398667Y36587513D01*
X24417852Y36368229D01*
X24421605Y36346943D01*
X24478576Y36134322D01*
X24485969Y36114010D01*
X24578997Y35914513D01*
X24589804Y35895795D01*
X24632226Y35835209D01*
X24686802Y35791584D01*
X24756300Y35784390D01*
X24821482Y35818651D01*
X25513471Y36510639D01*
X25546956Y36571962D01*
X25543186Y36624678D01*
X26023044Y36624678D01*
X26028028Y36554987D01*
X26056529Y36510639D01*
X26748518Y35818651D01*
X26809841Y35785166D01*
X26879533Y35790150D01*
X26937774Y35835209D01*
X26980196Y35895795D01*
X26991003Y35914513D01*
X27084031Y36114010D01*
X27091424Y36134322D01*
X27148395Y36346943D01*
X27152148Y36368229D01*
X27171333Y36587513D01*
X27171333Y36609127D01*
X27152148Y36828411D01*
X27148395Y36849697D01*
X27091424Y37062318D01*
X27084031Y37082630D01*
X26991003Y37282127D01*
X26980196Y37300845D01*
X26937774Y37361431D01*
X26883198Y37405056D01*
X26813700Y37412250D01*
X26748518Y37377989D01*
X26056529Y36686001D01*
X26023044Y36624678D01*
X25543186Y36624678D01*
X25541972Y36641653D01*
X25513471Y36686001D01*
X24821482Y37377989D01*
X24760159Y37411474D01*
X24690467Y37406490D01*
X24632226Y37361431D01*
X24589804Y37300845D01*
X24578997Y37282127D01*
X24485969Y37082630D01*
X24478576Y37062318D01*
X24421605Y36849697D01*
X24417852Y36828411D01*
X24398667Y36609127D01*
X24398667Y36587513D01*
X7482701Y36587513D01*
X7534398Y36656493D01*
X7551281Y36687330D01*
X7602361Y36823585D01*
X7609527Y36853721D01*
X7616275Y36915839D01*
X7617000Y36929231D01*
X7617000Y37485320D01*
X7597315Y37552359D01*
X7544511Y37598114D01*
X7493000Y37609320D01*
X2413001Y37609320D01*
X2345962Y37589635D01*
X2300207Y37536831D01*
X2289001Y37485320D01*
X2289001Y36929232D01*
X2289726Y36915843D01*
X2296473Y36853724D01*
X2303639Y36823585D01*
X2354719Y36687330D01*
X2371602Y36656493D01*
X2458870Y36540051D01*
X2483731Y36515190D01*
X2600173Y36427922D01*
X2631010Y36411039D01*
X2704307Y36383561D01*
X2659496Y36361560D01*
X2626387Y36337857D01*
X2543949Y36255275D01*
X2520304Y36222125D01*
X2469061Y36117293D01*
X2457763Y36080738D01*
X2447799Y36012438D01*
X2446500Y35994538D01*
X2446500Y34404102D01*
X2447822Y34386042D01*
X2457964Y34317148D01*
X2469334Y34280559D01*
X2520760Y34175816D01*
X2544463Y34142707D01*
X2627045Y34060269D01*
X2660195Y34036624D01*
X2704287Y34015071D01*
X2631010Y33987601D01*
X2600173Y33970718D01*
X2483731Y33883450D01*
X2458870Y33858589D01*
X2371602Y33742147D01*
X2354719Y33711310D01*
X2303639Y33575055D01*
X2296473Y33544919D01*
X2289725Y33482801D01*
X2289000Y33469409D01*
X2289000Y32913320D01*
X878000Y32913320D01*
X878000Y37627020D01*
X24971070Y37627020D01*
X25005331Y37561838D01*
X25697319Y36869849D01*
X25758642Y36836364D01*
X25828333Y36841348D01*
X25872681Y36869849D01*
X26564669Y37561838D01*
X26598154Y37623161D01*
X26593170Y37692853D01*
X26548111Y37751094D01*
X26487526Y37793516D01*
X26468808Y37804323D01*
X26269310Y37897351D01*
X26248998Y37904744D01*
X26036377Y37961715D01*
X26015091Y37965468D01*
X25795807Y37984653D01*
X25774193Y37984653D01*
X25554909Y37965468D01*
X25533623Y37961715D01*
X25321002Y37904744D01*
X25300690Y37897351D01*
X25101193Y37804323D01*
X25082475Y37793516D01*
X25021889Y37751094D01*
X24978264Y37696518D01*
X24971070Y37627020D01*
X878000Y37627020D01*
X878000Y37993320D01*
X2289000Y37993320D01*
X2308685Y37926281D01*
X2361489Y37880526D01*
X2413000Y37869320D01*
X3429000Y37869320D01*
X3496039Y37889005D01*
X3541794Y37941809D01*
X3553000Y37993320D01*
X3813000Y37993320D01*
X3832685Y37926281D01*
X3885489Y37880526D01*
X3937000Y37869320D01*
X5969000Y37869320D01*
X6036039Y37889005D01*
X6081794Y37941809D01*
X6093000Y37993320D01*
X6353000Y37993320D01*
X6372685Y37926281D01*
X6425489Y37880526D01*
X6477000Y37869320D01*
X7492999Y37869320D01*
X7560038Y37889005D01*
X7605793Y37941809D01*
X7616999Y37993320D01*
X7616999Y38549408D01*
X7616274Y38562797D01*
X7609527Y38624916D01*
X7602361Y38655055D01*
X7551281Y38791310D01*
X7534398Y38822147D01*
X7447130Y38938589D01*
X7422269Y38963450D01*
X7305827Y39050718D01*
X7274990Y39067601D01*
X7138735Y39118681D01*
X7108599Y39125847D01*
X7046481Y39132595D01*
X7033089Y39133320D01*
X6477000Y39133320D01*
X6409961Y39113635D01*
X6364206Y39060831D01*
X6353000Y39009320D01*
X6353000Y37993320D01*
X6093000Y37993320D01*
X6093000Y39009319D01*
X6073315Y39076358D01*
X6020511Y39122113D01*
X5969000Y39133319D01*
X5412912Y39133319D01*
X5399523Y39132594D01*
X5337404Y39125847D01*
X5307265Y39118681D01*
X5171010Y39067601D01*
X5140173Y39050718D01*
X5023731Y38963450D01*
X4998870Y38938589D01*
X4953000Y38877384D01*
X4907130Y38938589D01*
X4882269Y38963450D01*
X4765827Y39050718D01*
X4734990Y39067601D01*
X4598735Y39118681D01*
X4568599Y39125847D01*
X4506481Y39132595D01*
X4493089Y39133320D01*
X3937000Y39133320D01*
X3869961Y39113635D01*
X3824206Y39060831D01*
X3813000Y39009320D01*
X3813000Y37993320D01*
X3553000Y37993320D01*
X3553000Y39009319D01*
X3533315Y39076358D01*
X3480511Y39122113D01*
X3429000Y39133319D01*
X2872912Y39133319D01*
X2859523Y39132594D01*
X2797404Y39125847D01*
X2767265Y39118681D01*
X2631010Y39067601D01*
X2600173Y39050718D01*
X2483731Y38963450D01*
X2458870Y38938589D01*
X2371602Y38822147D01*
X2354719Y38791310D01*
X2303639Y38655055D01*
X2296473Y38624919D01*
X2289725Y38562801D01*
X2289000Y38549409D01*
X2289000Y37993320D01*
X878000Y37993320D01*
X878000Y42696128D01*
X7310500Y42696128D01*
X7311179Y42683167D01*
X7326005Y42542103D01*
X7331395Y42516746D01*
X7389890Y42336718D01*
X7400434Y42313036D01*
X7495080Y42149104D01*
X7510317Y42128132D01*
X7636979Y41987460D01*
X7656244Y41970114D01*
X7809385Y41858851D01*
X7831834Y41845890D01*
X8004761Y41768897D01*
X8029416Y41760886D01*
X8214573Y41721530D01*
X8240354Y41718820D01*
X8429646Y41718820D01*
X8455427Y41721530D01*
X8640584Y41760886D01*
X8665239Y41768897D01*
X8838166Y41845890D01*
X8860615Y41858851D01*
X9013756Y41970114D01*
X9033021Y41987460D01*
X9159683Y42128132D01*
X9174920Y42149104D01*
X9186303Y42168820D01*
X11293697Y42168820D01*
X11305080Y42149104D01*
X11320317Y42128132D01*
X11446979Y41987460D01*
X11466244Y41970114D01*
X11619385Y41858851D01*
X11641834Y41845890D01*
X11814761Y41768897D01*
X11839416Y41760886D01*
X12024573Y41721530D01*
X12050354Y41718820D01*
X12239646Y41718820D01*
X12265427Y41721530D01*
X12450584Y41760886D01*
X12475239Y41768897D01*
X12648166Y41845890D01*
X12670615Y41858851D01*
X12823756Y41970114D01*
X12843021Y41987460D01*
X12969683Y42128132D01*
X12984920Y42149104D01*
X12996303Y42168820D01*
X15103697Y42168820D01*
X15115080Y42149104D01*
X15130317Y42128132D01*
X15256979Y41987460D01*
X15276244Y41970114D01*
X15429385Y41858851D01*
X15451834Y41845890D01*
X15624761Y41768897D01*
X15649416Y41760886D01*
X15834573Y41721530D01*
X15860354Y41718820D01*
X15937100Y41718820D01*
X15937100Y41304510D01*
X15922094Y41286111D01*
X15830885Y41144582D01*
X15818593Y41119821D01*
X15761005Y40961602D01*
X15754505Y40934732D01*
X15733403Y40767686D01*
X15733017Y40740045D01*
X15749447Y40572475D01*
X15755194Y40545435D01*
X15808341Y40385669D01*
X15819937Y40360574D01*
X15907159Y40216553D01*
X15924026Y40194650D01*
X16040988Y40073533D01*
X16062288Y40055913D01*
X16203177Y39963717D01*
X16227852Y39951252D01*
X16385666Y39892562D01*
X16412490Y39885874D01*
X16579384Y39863606D01*
X16607021Y39863027D01*
X16774702Y39878287D01*
X16801782Y39883846D01*
X16961915Y39935876D01*
X16987091Y39947296D01*
X17131717Y40033511D01*
X17153736Y40050225D01*
X17275667Y40166338D01*
X17293436Y40187514D01*
X17386613Y40327756D01*
X17399250Y40352344D01*
X17459040Y40509744D01*
X17465914Y40536519D01*
X17489348Y40703254D01*
X17490543Y40718783D01*
X17490837Y40739871D01*
X17490076Y40755422D01*
X17471308Y40922746D01*
X17465184Y40949704D01*
X17409811Y41108712D01*
X17397866Y41133642D01*
X17308642Y41276431D01*
X17291471Y41298096D01*
X17286100Y41303505D01*
X17286100Y42171763D01*
X17288701Y42233821D01*
X17285534Y42267330D01*
X17275576Y42309784D01*
X17269659Y42352981D01*
X17260607Y42385399D01*
X17254566Y42399358D01*
X17251092Y42414171D01*
X17239030Y42445593D01*
X17218025Y42483802D01*
X17200707Y42523821D01*
X17183273Y42552608D01*
X17173701Y42564429D01*
X17166368Y42577767D01*
X17151573Y42599053D01*
X17144569Y42607167D01*
X17138384Y42613823D01*
X17113772Y42638435D01*
X17088352Y42669826D01*
X17063817Y42692866D01*
X17048347Y42703860D01*
X16979500Y42772707D01*
X16979500Y42990512D01*
X16978821Y43003473D01*
X16963995Y43144537D01*
X16958605Y43169894D01*
X16900110Y43349922D01*
X16889566Y43373604D01*
X16794920Y43537536D01*
X16779683Y43558508D01*
X16653021Y43699180D01*
X16633756Y43716526D01*
X16480615Y43827789D01*
X16458166Y43840750D01*
X16285239Y43917743D01*
X16260584Y43925754D01*
X16075427Y43965110D01*
X16049646Y43967820D01*
X15860354Y43967820D01*
X15834573Y43965110D01*
X15659754Y43927951D01*
X15688605Y44016746D01*
X15693995Y44042103D01*
X15708821Y44183167D01*
X15709500Y44196128D01*
X15709500Y44333591D01*
X16685933Y44333591D01*
X16705699Y44082443D01*
X16708743Y44063225D01*
X16767553Y43818262D01*
X16773566Y43799756D01*
X16869973Y43567008D01*
X16878807Y43549671D01*
X17010437Y43334871D01*
X17021874Y43319129D01*
X17185486Y43127564D01*
X17199244Y43113806D01*
X17390809Y42950194D01*
X17406551Y42938757D01*
X17621351Y42807127D01*
X17638688Y42798293D01*
X17871436Y42701886D01*
X17889942Y42695873D01*
X18134905Y42637063D01*
X18154123Y42634019D01*
X18405271Y42614253D01*
X18424729Y42614253D01*
X18675877Y42634019D01*
X18695095Y42637063D01*
X18940058Y42695873D01*
X18958564Y42701886D01*
X19191312Y42798293D01*
X19208649Y42807127D01*
X19423449Y42938757D01*
X19439191Y42950194D01*
X19630756Y43113806D01*
X19644514Y43127564D01*
X19808126Y43319129D01*
X19819563Y43334871D01*
X19951193Y43549671D01*
X19960027Y43567008D01*
X20056434Y43799756D01*
X20062447Y43818262D01*
X20121257Y44063225D01*
X20124301Y44082443D01*
X20144067Y44333591D01*
X20144067Y44353049D01*
X20124301Y44604197D01*
X20121257Y44623415D01*
X20062447Y44868378D01*
X20056434Y44886884D01*
X19960027Y45119632D01*
X19951193Y45136969D01*
X19819563Y45351769D01*
X19808126Y45367511D01*
X19644514Y45559076D01*
X19630756Y45572834D01*
X19439191Y45736446D01*
X19423449Y45747883D01*
X19405078Y45759141D01*
X24556429Y45759141D01*
X24569657Y45557316D01*
X24573207Y45534903D01*
X24622993Y45338869D01*
X24630568Y45317478D01*
X24715246Y45133799D01*
X24726592Y45114147D01*
X24843324Y44948974D01*
X24858062Y44931718D01*
X25002940Y44790585D01*
X25020575Y44776305D01*
X25188746Y44663936D01*
X25208689Y44653108D01*
X25394522Y44573268D01*
X25416103Y44566256D01*
X25613373Y44521618D01*
X25635872Y44518656D01*
X25837974Y44510716D01*
X25860635Y44511903D01*
X26060800Y44540925D01*
X26082866Y44546223D01*
X26274390Y44611237D01*
X26295120Y44620466D01*
X26471590Y44719293D01*
X26490292Y44732147D01*
X26645796Y44861479D01*
X26661841Y44877524D01*
X26791173Y45033028D01*
X26804027Y45051730D01*
X26902854Y45228200D01*
X26912083Y45248930D01*
X26977097Y45440454D01*
X26982395Y45462520D01*
X27011417Y45662685D01*
X27012657Y45677231D01*
X27014172Y45735073D01*
X27013695Y45749666D01*
X26995188Y45951075D01*
X26991052Y45973387D01*
X26936151Y46168052D01*
X26928019Y46189238D01*
X26838563Y46370637D01*
X26826706Y46389985D01*
X26705690Y46552045D01*
X26690506Y46568909D01*
X26541983Y46706202D01*
X26523980Y46720016D01*
X26407301Y46793635D01*
X26468808Y46822317D01*
X26487526Y46833124D01*
X26548111Y46875546D01*
X26591736Y46930123D01*
X26598930Y46999621D01*
X26564669Y47064802D01*
X25872681Y47756791D01*
X25811358Y47790276D01*
X25741667Y47785292D01*
X25697319Y47756791D01*
X25005331Y47064802D01*
X24971846Y47003479D01*
X24976830Y46933787D01*
X25021889Y46875546D01*
X25082474Y46833124D01*
X25101192Y46822317D01*
X25163297Y46793357D01*
X25071971Y46739024D01*
X25053612Y46725686D01*
X24901546Y46592328D01*
X24885925Y46575867D01*
X24760709Y46417030D01*
X24748351Y46398000D01*
X24654176Y46219004D01*
X24645491Y46198038D01*
X24585514Y46004878D01*
X24580797Y45982682D01*
X24557024Y45781826D01*
X24556429Y45759141D01*
X19405078Y45759141D01*
X19208649Y45879513D01*
X19191312Y45888347D01*
X18958564Y45984754D01*
X18940058Y45990767D01*
X18695095Y46049577D01*
X18675877Y46052621D01*
X18424729Y46072387D01*
X18405271Y46072387D01*
X18154123Y46052621D01*
X18134905Y46049577D01*
X17889942Y45990767D01*
X17871436Y45984754D01*
X17638688Y45888347D01*
X17621351Y45879513D01*
X17406551Y45747883D01*
X17390809Y45736446D01*
X17199244Y45572834D01*
X17185486Y45559076D01*
X17021874Y45367511D01*
X17010437Y45351769D01*
X16878807Y45136969D01*
X16869973Y45119632D01*
X16773566Y44886884D01*
X16767553Y44868378D01*
X16708743Y44623415D01*
X16705699Y44604197D01*
X16685933Y44353049D01*
X16685933Y44333591D01*
X15709500Y44333591D01*
X15709500Y44490512D01*
X15708821Y44503473D01*
X15693995Y44644537D01*
X15688605Y44669894D01*
X15630110Y44849922D01*
X15619566Y44873604D01*
X15524920Y45037536D01*
X15509683Y45058508D01*
X15383021Y45199180D01*
X15363756Y45216526D01*
X15210615Y45327789D01*
X15188166Y45340750D01*
X15015239Y45417743D01*
X14990584Y45425754D01*
X14805427Y45465110D01*
X14779646Y45467820D01*
X14590354Y45467820D01*
X14564573Y45465110D01*
X14379416Y45425754D01*
X14354761Y45417743D01*
X14181834Y45340750D01*
X14159385Y45327789D01*
X14050000Y45248316D01*
X13940615Y45327789D01*
X13918166Y45340750D01*
X13745239Y45417743D01*
X13720584Y45425754D01*
X13535427Y45465110D01*
X13509646Y45467820D01*
X13320354Y45467820D01*
X13294573Y45465110D01*
X13109416Y45425754D01*
X13084761Y45417743D01*
X12911834Y45340750D01*
X12889385Y45327789D01*
X12736244Y45216526D01*
X12716979Y45199180D01*
X12590317Y45058508D01*
X12575080Y45037536D01*
X12480434Y44873604D01*
X12469890Y44849922D01*
X12411395Y44669894D01*
X12406005Y44644537D01*
X12391179Y44503473D01*
X12390500Y44490512D01*
X12390500Y44196128D01*
X12391179Y44183167D01*
X12406005Y44042103D01*
X12411395Y44016746D01*
X12440246Y43927951D01*
X12265427Y43965110D01*
X12239646Y43967820D01*
X12050354Y43967820D01*
X12024573Y43965110D01*
X11849754Y43927951D01*
X11878605Y44016746D01*
X11883995Y44042103D01*
X11898821Y44183167D01*
X11899500Y44196128D01*
X11899500Y44490512D01*
X11898821Y44503473D01*
X11883995Y44644537D01*
X11878605Y44669894D01*
X11820110Y44849922D01*
X11809566Y44873604D01*
X11714920Y45037536D01*
X11699683Y45058508D01*
X11573021Y45199180D01*
X11553756Y45216526D01*
X11400615Y45327789D01*
X11378166Y45340750D01*
X11205239Y45417743D01*
X11180584Y45425754D01*
X10995427Y45465110D01*
X10969646Y45467820D01*
X10780354Y45467820D01*
X10754573Y45465110D01*
X10569416Y45425754D01*
X10544761Y45417743D01*
X10371834Y45340750D01*
X10349385Y45327789D01*
X10240000Y45248316D01*
X10130615Y45327789D01*
X10108166Y45340750D01*
X9935239Y45417743D01*
X9910584Y45425754D01*
X9725427Y45465110D01*
X9699646Y45467820D01*
X9510354Y45467820D01*
X9484573Y45465110D01*
X9299416Y45425754D01*
X9274761Y45417743D01*
X9101834Y45340750D01*
X9079385Y45327789D01*
X8926244Y45216526D01*
X8906979Y45199180D01*
X8780317Y45058508D01*
X8765080Y45037536D01*
X8670434Y44873604D01*
X8659890Y44849922D01*
X8601395Y44669894D01*
X8596005Y44644537D01*
X8581179Y44503473D01*
X8580500Y44490512D01*
X8580500Y44196128D01*
X8581179Y44183167D01*
X8596005Y44042103D01*
X8601395Y44016746D01*
X8630246Y43927951D01*
X8455427Y43965110D01*
X8429646Y43967820D01*
X8240354Y43967820D01*
X8214573Y43965110D01*
X8029416Y43925754D01*
X8004761Y43917743D01*
X7831834Y43840750D01*
X7809385Y43827789D01*
X7656244Y43716526D01*
X7636979Y43699180D01*
X7510317Y43558508D01*
X7495080Y43537536D01*
X7400434Y43373604D01*
X7389890Y43349922D01*
X7331395Y43169894D01*
X7326005Y43144537D01*
X7311179Y43003473D01*
X7310500Y42990512D01*
X7310500Y42696128D01*
X878000Y42696128D01*
X878000Y45333591D01*
X3855933Y45333591D01*
X3875699Y45082443D01*
X3878743Y45063225D01*
X3937553Y44818262D01*
X3943566Y44799756D01*
X4039973Y44567008D01*
X4048807Y44549671D01*
X4180437Y44334871D01*
X4191874Y44319129D01*
X4355486Y44127564D01*
X4369244Y44113806D01*
X4560809Y43950194D01*
X4576551Y43938757D01*
X4791351Y43807127D01*
X4808688Y43798293D01*
X5041436Y43701886D01*
X5059942Y43695873D01*
X5304905Y43637063D01*
X5324123Y43634019D01*
X5575271Y43614253D01*
X5594729Y43614253D01*
X5845877Y43634019D01*
X5865095Y43637063D01*
X6110058Y43695873D01*
X6128564Y43701886D01*
X6361312Y43798293D01*
X6378649Y43807127D01*
X6593449Y43938757D01*
X6609191Y43950194D01*
X6800756Y44113806D01*
X6814514Y44127564D01*
X6978126Y44319129D01*
X6989563Y44334871D01*
X7121193Y44549671D01*
X7130027Y44567008D01*
X7226434Y44799756D01*
X7232447Y44818262D01*
X7291257Y45063225D01*
X7294301Y45082443D01*
X7314067Y45333591D01*
X7314067Y45353049D01*
X7294301Y45604197D01*
X7291257Y45623415D01*
X7232447Y45868378D01*
X7226434Y45886884D01*
X7130027Y46119632D01*
X7121193Y46136969D01*
X6989563Y46351769D01*
X6978126Y46367511D01*
X6814514Y46559076D01*
X6800756Y46572834D01*
X6609191Y46736446D01*
X6593449Y46747883D01*
X6378649Y46879513D01*
X6361312Y46888347D01*
X6128564Y46984754D01*
X6110058Y46990767D01*
X5865095Y47049577D01*
X5845877Y47052621D01*
X5594729Y47072387D01*
X5575271Y47072387D01*
X5324123Y47052621D01*
X5304905Y47049577D01*
X5059942Y46990767D01*
X5041436Y46984754D01*
X4808688Y46888347D01*
X4791351Y46879513D01*
X4576551Y46747883D01*
X4560809Y46736446D01*
X4369244Y46572834D01*
X4355486Y46559076D01*
X4191874Y46367511D01*
X4180437Y46351769D01*
X4048807Y46136969D01*
X4039973Y46119632D01*
X3943566Y45886884D01*
X3937553Y45868378D01*
X3878743Y45623415D01*
X3875699Y45604197D01*
X3855933Y45353049D01*
X3855933Y45333591D01*
X878000Y45333591D01*
X878000Y48017513D01*
X24398667Y48017513D01*
X24417852Y47798229D01*
X24421605Y47776943D01*
X24478576Y47564322D01*
X24485969Y47544010D01*
X24578997Y47344513D01*
X24589804Y47325795D01*
X24632226Y47265209D01*
X24686802Y47221584D01*
X24756300Y47214390D01*
X24821482Y47248651D01*
X25513471Y47940639D01*
X25546956Y48001962D01*
X25543186Y48054678D01*
X26023044Y48054678D01*
X26028028Y47984987D01*
X26056529Y47940639D01*
X26748518Y47248651D01*
X26809841Y47215166D01*
X26879533Y47220150D01*
X26937774Y47265209D01*
X26980196Y47325795D01*
X26991003Y47344513D01*
X27083564Y47543009D01*
X32795824Y47543009D01*
X32811392Y47260136D01*
X32813588Y47242759D01*
X32868857Y46964903D01*
X32873478Y46948008D01*
X32967346Y46680710D01*
X32974303Y46664635D01*
X33104897Y46413231D01*
X33114049Y46398297D01*
X33278764Y46167801D01*
X33289928Y46154305D01*
X33485476Y45949317D01*
X33498432Y45937529D01*
X33720913Y45762140D01*
X33735399Y45752294D01*
X33980373Y45610002D01*
X33996102Y45602297D01*
X34258680Y45495942D01*
X34275339Y45490529D01*
X34550284Y45422232D01*
X34567538Y45419221D01*
X34809151Y45394466D01*
X34821790Y45393820D01*
X34997170Y45393820D01*
X35005928Y45394130D01*
X35216351Y45409029D01*
X35233691Y45411497D01*
X35510645Y45471123D01*
X35527465Y45476009D01*
X35793255Y45574064D01*
X35809219Y45581272D01*
X36058542Y45715799D01*
X36073331Y45725184D01*
X36301211Y45893499D01*
X36314530Y45904875D01*
X36516420Y46103619D01*
X36528003Y46116757D01*
X36699877Y46341965D01*
X36709494Y46356605D01*
X36847920Y46603784D01*
X36855377Y46619632D01*
X36957595Y46883849D01*
X36962745Y46900590D01*
X37026715Y47176573D01*
X37029456Y47193873D01*
X37053901Y47476117D01*
X37054176Y47493631D01*
X37038608Y47776504D01*
X37036412Y47793881D01*
X36981143Y48071737D01*
X36976522Y48088632D01*
X36882654Y48355930D01*
X36875697Y48372005D01*
X36745103Y48623409D01*
X36735951Y48638343D01*
X36571236Y48868839D01*
X36560072Y48882335D01*
X36364524Y49087323D01*
X36351568Y49099111D01*
X36129087Y49274500D01*
X36114601Y49284346D01*
X35869627Y49426638D01*
X35853898Y49434343D01*
X35591320Y49540698D01*
X35574661Y49546111D01*
X35299716Y49614408D01*
X35282462Y49617419D01*
X35040849Y49642174D01*
X35028210Y49642820D01*
X34852830Y49642820D01*
X34844072Y49642510D01*
X34633649Y49627611D01*
X34616309Y49625143D01*
X34339355Y49565517D01*
X34322535Y49560631D01*
X34056745Y49462576D01*
X34040781Y49455368D01*
X33791458Y49320841D01*
X33776669Y49311456D01*
X33548789Y49143141D01*
X33535470Y49131765D01*
X33333580Y48933021D01*
X33321997Y48919883D01*
X33150123Y48694675D01*
X33140506Y48680035D01*
X33002080Y48432856D01*
X32994623Y48417008D01*
X32892405Y48152791D01*
X32887255Y48136050D01*
X32823285Y47860067D01*
X32820544Y47842767D01*
X32796099Y47560523D01*
X32795824Y47543009D01*
X27083564Y47543009D01*
X27084031Y47544010D01*
X27091424Y47564322D01*
X27148395Y47776943D01*
X27152148Y47798229D01*
X27171333Y48017513D01*
X27171333Y48039127D01*
X27152148Y48258411D01*
X27148395Y48279697D01*
X27091424Y48492318D01*
X27084031Y48512630D01*
X26991003Y48712127D01*
X26980196Y48730845D01*
X26937774Y48791431D01*
X26883198Y48835056D01*
X26813700Y48842250D01*
X26748518Y48807989D01*
X26056529Y48116001D01*
X26023044Y48054678D01*
X25543186Y48054678D01*
X25541972Y48071653D01*
X25513471Y48116001D01*
X24821482Y48807989D01*
X24760159Y48841474D01*
X24690467Y48836490D01*
X24632226Y48791431D01*
X24589804Y48730845D01*
X24578997Y48712127D01*
X24485969Y48512630D01*
X24478576Y48492318D01*
X24421605Y48279697D01*
X24417852Y48258411D01*
X24398667Y48039127D01*
X24398667Y48017513D01*
X878000Y48017513D01*
X878000Y49057020D01*
X24971070Y49057020D01*
X25005331Y48991838D01*
X25697319Y48299849D01*
X25758642Y48266364D01*
X25828333Y48271348D01*
X25872681Y48299849D01*
X26564669Y48991838D01*
X26598154Y49053161D01*
X26593170Y49122853D01*
X26548111Y49181094D01*
X26487526Y49223516D01*
X26468808Y49234323D01*
X26269310Y49327351D01*
X26267615Y49327968D01*
X29866012Y49327968D01*
X29880216Y49081637D01*
X29883044Y49061514D01*
X29937289Y48820810D01*
X29943365Y48801419D01*
X30036194Y48572807D01*
X30045357Y48554669D01*
X30174279Y48344289D01*
X30186280Y48327891D01*
X30347831Y48141391D01*
X30362350Y48127173D01*
X30552192Y47969563D01*
X30568838Y47957908D01*
X30781872Y47833421D01*
X30800198Y47824641D01*
X31030704Y47736620D01*
X31050217Y47730950D01*
X31292004Y47681757D01*
X31312182Y47679351D01*
X31558756Y47670310D01*
X31579056Y47671232D01*
X31823797Y47702584D01*
X31843674Y47706809D01*
X32080007Y47777712D01*
X32098926Y47785127D01*
X32320506Y47893678D01*
X32337961Y47904083D01*
X32538836Y48047366D01*
X32554357Y48060482D01*
X32729133Y48234649D01*
X32742303Y48250124D01*
X32886286Y48450498D01*
X32896752Y48467916D01*
X33006075Y48689115D01*
X33013556Y48708009D01*
X33085284Y48944093D01*
X33089578Y48963955D01*
X33121784Y49208585D01*
X33122808Y49221740D01*
X33124606Y49295290D01*
X33124226Y49308481D01*
X33104008Y49554392D01*
X33100689Y49574439D01*
X33040580Y49813745D01*
X33034031Y49832982D01*
X32935643Y50059258D01*
X32926041Y50077167D01*
X32792018Y50284335D01*
X32779619Y50300434D01*
X32613560Y50482931D01*
X32598698Y50496790D01*
X32405062Y50649714D01*
X32388137Y50660960D01*
X32172125Y50780205D01*
X32153590Y50788535D01*
X31921002Y50870899D01*
X31901356Y50876089D01*
X31658440Y50919359D01*
X31638209Y50921272D01*
X31391487Y50924286D01*
X31371216Y50922868D01*
X31127314Y50885546D01*
X31107546Y50880837D01*
X30873016Y50804181D01*
X30854283Y50796306D01*
X30635422Y50682374D01*
X30618227Y50671546D01*
X30420912Y50523398D01*
X30405716Y50509906D01*
X30235248Y50331521D01*
X30222460Y50315729D01*
X30083415Y50111897D01*
X30073377Y50094228D01*
X29969491Y49870424D01*
X29962475Y49851354D01*
X29896536Y49613587D01*
X29892728Y49593626D01*
X29866508Y49348283D01*
X29866012Y49327968D01*
X26267615Y49327968D01*
X26248998Y49334744D01*
X26036377Y49391715D01*
X26015091Y49395468D01*
X25795807Y49414653D01*
X25774193Y49414653D01*
X25554909Y49395468D01*
X25533623Y49391715D01*
X25321002Y49334744D01*
X25300690Y49327351D01*
X25101193Y49234323D01*
X25082475Y49223516D01*
X25021889Y49181094D01*
X24978264Y49126518D01*
X24971070Y49057020D01*
X878000Y49057020D01*
X878000Y51306445D01*
X11669017Y51306445D01*
X11685447Y51138875D01*
X11691194Y51111835D01*
X11744341Y50952069D01*
X11755937Y50926974D01*
X11843159Y50782953D01*
X11860026Y50761050D01*
X11976988Y50639933D01*
X11998288Y50622313D01*
X12139177Y50530117D01*
X12163852Y50517652D01*
X12321666Y50458962D01*
X12348490Y50452274D01*
X12515384Y50430006D01*
X12543021Y50429427D01*
X12710702Y50444687D01*
X12737782Y50450246D01*
X12897915Y50502276D01*
X12923091Y50513696D01*
X13067717Y50599911D01*
X13089736Y50616625D01*
X13211667Y50732738D01*
X13229436Y50753914D01*
X13322613Y50894156D01*
X13335250Y50918744D01*
X13395040Y51076144D01*
X13401914Y51102919D01*
X13425348Y51269654D01*
X13426543Y51285183D01*
X13426837Y51306271D01*
X13426076Y51321821D01*
X13424829Y51332942D01*
X14882986Y52791100D01*
X15353897Y52791100D01*
X15365280Y52771384D01*
X15380517Y52750412D01*
X15507179Y52609740D01*
X15526444Y52592394D01*
X15679585Y52481131D01*
X15702034Y52468170D01*
X15874961Y52391177D01*
X15899616Y52383166D01*
X16084773Y52343810D01*
X16110554Y52341100D01*
X16299846Y52341100D01*
X16325627Y52343810D01*
X16510784Y52383166D01*
X16535439Y52391177D01*
X16708366Y52468170D01*
X16730815Y52481131D01*
X16883956Y52592394D01*
X16903221Y52609740D01*
X17029883Y52750412D01*
X17045120Y52771384D01*
X17056503Y52791100D01*
X19163897Y52791100D01*
X19175280Y52771384D01*
X19190517Y52750412D01*
X19317179Y52609740D01*
X19336444Y52592394D01*
X19489585Y52481131D01*
X19512034Y52468170D01*
X19684961Y52391177D01*
X19709616Y52383166D01*
X19894773Y52343810D01*
X19920554Y52341100D01*
X20109846Y52341100D01*
X20135627Y52343810D01*
X20320784Y52383166D01*
X20345439Y52391177D01*
X20518366Y52468170D01*
X20540815Y52481131D01*
X20693956Y52592394D01*
X20713221Y52609740D01*
X20839883Y52750412D01*
X20855120Y52771384D01*
X20866503Y52791100D01*
X22973897Y52791100D01*
X22985280Y52771384D01*
X23000517Y52750412D01*
X23127179Y52609740D01*
X23146444Y52592394D01*
X23299585Y52481131D01*
X23322034Y52468170D01*
X23494961Y52391177D01*
X23519616Y52383166D01*
X23704773Y52343810D01*
X23730554Y52341100D01*
X23919846Y52341100D01*
X23945627Y52343810D01*
X24130784Y52383166D01*
X24155439Y52391177D01*
X24328366Y52468170D01*
X24350815Y52481131D01*
X24503956Y52592394D01*
X24523221Y52609740D01*
X24649883Y52750412D01*
X24665120Y52771384D01*
X24759766Y52935316D01*
X24770310Y52958998D01*
X24828805Y53139026D01*
X24834195Y53164383D01*
X24849021Y53305447D01*
X24849700Y53318408D01*
X24849700Y53612792D01*
X24849021Y53625753D01*
X24834195Y53766817D01*
X24828805Y53792174D01*
X24770310Y53972202D01*
X24759766Y53995884D01*
X24665120Y54159816D01*
X24649883Y54180788D01*
X24523221Y54321460D01*
X24503956Y54338806D01*
X24350815Y54450069D01*
X24328366Y54463030D01*
X24155439Y54540023D01*
X24130784Y54548034D01*
X23945627Y54587390D01*
X23919846Y54590100D01*
X23730554Y54590100D01*
X23704773Y54587390D01*
X23529954Y54550231D01*
X23558805Y54639026D01*
X23564195Y54664383D01*
X23579021Y54805447D01*
X23579700Y54818408D01*
X23579700Y54955871D01*
X24556133Y54955871D01*
X24575899Y54704723D01*
X24578943Y54685505D01*
X24637753Y54440542D01*
X24643766Y54422036D01*
X24740173Y54189288D01*
X24749007Y54171951D01*
X24880637Y53957151D01*
X24892074Y53941409D01*
X25055686Y53749844D01*
X25069444Y53736086D01*
X25261009Y53572474D01*
X25276751Y53561037D01*
X25491551Y53429407D01*
X25508888Y53420573D01*
X25741636Y53324166D01*
X25760142Y53318153D01*
X26005105Y53259343D01*
X26024323Y53256299D01*
X26275471Y53236533D01*
X26294929Y53236533D01*
X26546077Y53256299D01*
X26565295Y53259343D01*
X26810258Y53318153D01*
X26828764Y53324166D01*
X27061512Y53420573D01*
X27078849Y53429407D01*
X27293649Y53561037D01*
X27309391Y53572474D01*
X27500956Y53736086D01*
X27514714Y53749844D01*
X27678326Y53941409D01*
X27689763Y53957151D01*
X27821393Y54171951D01*
X27830227Y54189288D01*
X27926634Y54422036D01*
X27932647Y54440542D01*
X27991457Y54685505D01*
X27994501Y54704723D01*
X28014267Y54955871D01*
X28014267Y54975329D01*
X27994501Y55226477D01*
X27991457Y55245695D01*
X27932647Y55490658D01*
X27926634Y55509164D01*
X27830227Y55741912D01*
X27821393Y55759249D01*
X27689763Y55974049D01*
X27678326Y55989791D01*
X27514714Y56181356D01*
X27500956Y56195114D01*
X27309391Y56358726D01*
X27293649Y56370163D01*
X27078849Y56501793D01*
X27061512Y56510627D01*
X26828764Y56607034D01*
X26810258Y56613047D01*
X26565295Y56671857D01*
X26546077Y56674901D01*
X26294929Y56694667D01*
X26275471Y56694667D01*
X26024323Y56674901D01*
X26005105Y56671857D01*
X25760142Y56613047D01*
X25741636Y56607034D01*
X25508888Y56510627D01*
X25491551Y56501793D01*
X25276751Y56370163D01*
X25261009Y56358726D01*
X25069444Y56195114D01*
X25055686Y56181356D01*
X24892074Y55989791D01*
X24880637Y55974049D01*
X24749007Y55759249D01*
X24740173Y55741912D01*
X24643766Y55509164D01*
X24637753Y55490658D01*
X24578943Y55245695D01*
X24575899Y55226477D01*
X24556133Y54975329D01*
X24556133Y54955871D01*
X23579700Y54955871D01*
X23579700Y55112792D01*
X23579021Y55125753D01*
X23564195Y55266817D01*
X23558805Y55292174D01*
X23500310Y55472202D01*
X23489766Y55495884D01*
X23395120Y55659816D01*
X23379883Y55680788D01*
X23253221Y55821460D01*
X23233956Y55838806D01*
X23080815Y55950069D01*
X23058366Y55963030D01*
X22885439Y56040023D01*
X22860784Y56048034D01*
X22675627Y56087390D01*
X22649846Y56090100D01*
X22460554Y56090100D01*
X22434773Y56087390D01*
X22249616Y56048034D01*
X22224961Y56040023D01*
X22052034Y55963030D01*
X22029585Y55950069D01*
X21920200Y55870596D01*
X21810815Y55950069D01*
X21788366Y55963030D01*
X21615439Y56040023D01*
X21590784Y56048034D01*
X21405627Y56087390D01*
X21379846Y56090100D01*
X21190554Y56090100D01*
X21164773Y56087390D01*
X20979616Y56048034D01*
X20954961Y56040023D01*
X20782034Y55963030D01*
X20759585Y55950069D01*
X20606444Y55838806D01*
X20587179Y55821460D01*
X20460517Y55680788D01*
X20445280Y55659816D01*
X20350634Y55495884D01*
X20340090Y55472202D01*
X20281595Y55292174D01*
X20276205Y55266817D01*
X20261379Y55125753D01*
X20260700Y55112792D01*
X20260700Y54818408D01*
X20261379Y54805447D01*
X20276205Y54664383D01*
X20281595Y54639026D01*
X20310446Y54550231D01*
X20135627Y54587390D01*
X20109846Y54590100D01*
X19920554Y54590100D01*
X19894773Y54587390D01*
X19719954Y54550231D01*
X19748805Y54639026D01*
X19754195Y54664383D01*
X19769021Y54805447D01*
X19769700Y54818408D01*
X19769700Y55112792D01*
X19769021Y55125753D01*
X19754195Y55266817D01*
X19748805Y55292174D01*
X19690310Y55472202D01*
X19679766Y55495884D01*
X19585120Y55659816D01*
X19569883Y55680788D01*
X19443221Y55821460D01*
X19423956Y55838806D01*
X19270815Y55950069D01*
X19248366Y55963030D01*
X19075439Y56040023D01*
X19050784Y56048034D01*
X18865627Y56087390D01*
X18839846Y56090100D01*
X18650554Y56090100D01*
X18624773Y56087390D01*
X18439616Y56048034D01*
X18414961Y56040023D01*
X18242034Y55963030D01*
X18219585Y55950069D01*
X18110200Y55870596D01*
X18000815Y55950069D01*
X17978366Y55963030D01*
X17805439Y56040023D01*
X17780784Y56048034D01*
X17595627Y56087390D01*
X17569846Y56090100D01*
X17380554Y56090100D01*
X17354773Y56087390D01*
X17169616Y56048034D01*
X17144961Y56040023D01*
X16972034Y55963030D01*
X16949585Y55950069D01*
X16796444Y55838806D01*
X16777179Y55821460D01*
X16650517Y55680788D01*
X16635280Y55659816D01*
X16540634Y55495884D01*
X16530090Y55472202D01*
X16471595Y55292174D01*
X16466205Y55266817D01*
X16451379Y55125753D01*
X16450700Y55112792D01*
X16450700Y54818408D01*
X16451379Y54805447D01*
X16466205Y54664383D01*
X16471595Y54639026D01*
X16500446Y54550231D01*
X16325627Y54587390D01*
X16299846Y54590100D01*
X16110554Y54590100D01*
X16084773Y54587390D01*
X15899616Y54548034D01*
X15874961Y54540023D01*
X15702034Y54463030D01*
X15679585Y54450069D01*
X15526444Y54338806D01*
X15507179Y54321460D01*
X15380517Y54180788D01*
X15365280Y54159816D01*
X15353897Y54140100D01*
X14618557Y54140100D01*
X14556499Y54142701D01*
X14522990Y54139534D01*
X14480536Y54129576D01*
X14437339Y54123659D01*
X14404921Y54114607D01*
X14390962Y54108566D01*
X14376149Y54105092D01*
X14344727Y54093030D01*
X14306518Y54072025D01*
X14266499Y54054707D01*
X14237712Y54037273D01*
X14225891Y54027701D01*
X14212553Y54020368D01*
X14191267Y54005573D01*
X14183153Y53998569D01*
X14176497Y53992384D01*
X14151885Y53967772D01*
X14120494Y53942352D01*
X14097454Y53917817D01*
X14086460Y53902347D01*
X12347599Y52163485D01*
X12345460Y52163015D01*
X12186070Y52108754D01*
X12161057Y52096984D01*
X12017648Y52008758D01*
X11995864Y51991738D01*
X11875566Y51873933D01*
X11858094Y51852511D01*
X11766885Y51710982D01*
X11754593Y51686221D01*
X11697005Y51528002D01*
X11690505Y51501132D01*
X11669403Y51334086D01*
X11669017Y51306445D01*
X878000Y51306445D01*
X878000Y55955871D01*
X11726133Y55955871D01*
X11745899Y55704723D01*
X11748943Y55685505D01*
X11807753Y55440542D01*
X11813766Y55422036D01*
X11910173Y55189288D01*
X11919007Y55171951D01*
X12050637Y54957151D01*
X12062074Y54941409D01*
X12225686Y54749844D01*
X12239444Y54736086D01*
X12431009Y54572474D01*
X12446751Y54561037D01*
X12661551Y54429407D01*
X12678888Y54420573D01*
X12911636Y54324166D01*
X12930142Y54318153D01*
X13175105Y54259343D01*
X13194323Y54256299D01*
X13445471Y54236533D01*
X13464929Y54236533D01*
X13716077Y54256299D01*
X13735295Y54259343D01*
X13980258Y54318153D01*
X13998764Y54324166D01*
X14231512Y54420573D01*
X14248849Y54429407D01*
X14463649Y54561037D01*
X14479391Y54572474D01*
X14670956Y54736086D01*
X14684714Y54749844D01*
X14848326Y54941409D01*
X14859763Y54957151D01*
X14991393Y55171951D01*
X15000227Y55189288D01*
X15096634Y55422036D01*
X15102647Y55440542D01*
X15161457Y55685505D01*
X15164501Y55704723D01*
X15184267Y55955871D01*
X15184267Y55975329D01*
X15164501Y56226477D01*
X15161457Y56245695D01*
X15102647Y56490658D01*
X15096634Y56509164D01*
X15000227Y56741912D01*
X14991393Y56759249D01*
X14859763Y56974049D01*
X14848326Y56989791D01*
X14684714Y57181356D01*
X14670956Y57195114D01*
X14479391Y57358726D01*
X14463649Y57370163D01*
X14248849Y57501793D01*
X14231512Y57510627D01*
X13998764Y57607034D01*
X13980258Y57613047D01*
X13735295Y57671857D01*
X13716077Y57674901D01*
X13464929Y57694667D01*
X13445471Y57694667D01*
X13194323Y57674901D01*
X13175105Y57671857D01*
X12930142Y57613047D01*
X12911636Y57607034D01*
X12678888Y57510627D01*
X12661551Y57501793D01*
X12446751Y57370163D01*
X12431009Y57358726D01*
X12239444Y57195114D01*
X12225686Y57181356D01*
X12062074Y56989791D01*
X12050637Y56974049D01*
X11919007Y56759249D01*
X11910173Y56741912D01*
X11813766Y56509164D01*
X11807753Y56490658D01*
X11748943Y56245695D01*
X11745899Y56226477D01*
X11726133Y55975329D01*
X11726133Y55955871D01*
X878000Y55955871D01*
X878000Y60082000D01*
X39762000Y60082000D01*
X39762000Y878000D01*
X39762000Y878000D02*
X39762000Y60082000D01*
%TA.AperFunction,Conductor*%
G36*
X39762000Y878000D02*
G01*
X878000Y878000D01*
X878000Y5368591D01*
X12320933Y5368591D01*
X12340699Y5117443D01*
X12343743Y5098225D01*
X12402553Y4853262D01*
X12408566Y4834756D01*
X12504973Y4602008D01*
X12513807Y4584671D01*
X12645437Y4369871D01*
X12656874Y4354129D01*
X12820486Y4162564D01*
X12834244Y4148806D01*
X13025809Y3985194D01*
X13041551Y3973757D01*
X13256351Y3842127D01*
X13273688Y3833293D01*
X13506436Y3736886D01*
X13524942Y3730873D01*
X13769905Y3672063D01*
X13789123Y3669019D01*
X14040271Y3649253D01*
X14059729Y3649253D01*
X14310877Y3669019D01*
X14330095Y3672063D01*
X14575058Y3730873D01*
X14593564Y3736886D01*
X14826312Y3833293D01*
X14843649Y3842127D01*
X15058449Y3973757D01*
X15074191Y3985194D01*
X15265756Y4148806D01*
X15279514Y4162564D01*
X15443126Y4354129D01*
X15454563Y4369871D01*
X15586193Y4584671D01*
X15595027Y4602008D01*
X15691434Y4834756D01*
X15697447Y4853262D01*
X15756257Y5098225D01*
X15759301Y5117443D01*
X15779067Y5368591D01*
X15779067Y5388049D01*
X15759301Y5639197D01*
X15756257Y5658415D01*
X15697447Y5903378D01*
X15691434Y5921884D01*
X15595027Y6154632D01*
X15586193Y6171969D01*
X15454563Y6386769D01*
X15443126Y6402511D01*
X15279514Y6594076D01*
X15265756Y6607834D01*
X15074191Y6771446D01*
X15058449Y6782883D01*
X14843649Y6914513D01*
X14826312Y6923347D01*
X14593564Y7019754D01*
X14575058Y7025767D01*
X14330095Y7084577D01*
X14310877Y7087621D01*
X14059729Y7107387D01*
X14040271Y7107387D01*
X13789123Y7087621D01*
X13769905Y7084577D01*
X13524942Y7025767D01*
X13506436Y7019754D01*
X13273688Y6923347D01*
X13256351Y6914513D01*
X13041551Y6782883D01*
X13025809Y6771446D01*
X12834244Y6607834D01*
X12820486Y6594076D01*
X12656874Y6402511D01*
X12645437Y6386769D01*
X12513807Y6171969D01*
X12504973Y6154632D01*
X12408566Y5921884D01*
X12402553Y5903378D01*
X12343743Y5658415D01*
X12340699Y5639197D01*
X12320933Y5388049D01*
X12320933Y5368591D01*
X878000Y5368591D01*
X878000Y8837645D01*
X13802617Y8837645D01*
X13819047Y8670075D01*
X13824794Y8643035D01*
X13877941Y8483269D01*
X13889537Y8458174D01*
X13976759Y8314153D01*
X13993626Y8292250D01*
X14110588Y8171133D01*
X14131888Y8153513D01*
X14272777Y8061317D01*
X14297452Y8048852D01*
X14437761Y7996672D01*
X15485500Y6948934D01*
X15485500Y6731128D01*
X15486179Y6718167D01*
X15501005Y6577103D01*
X15506395Y6551746D01*
X15564890Y6371718D01*
X15575434Y6348036D01*
X15670080Y6184104D01*
X15685317Y6163132D01*
X15811979Y6022460D01*
X15831244Y6005114D01*
X15984385Y5893851D01*
X16006834Y5880890D01*
X16179761Y5803897D01*
X16204416Y5795886D01*
X16389573Y5756530D01*
X16415354Y5753820D01*
X16604646Y5753820D01*
X16630427Y5756530D01*
X16805246Y5793689D01*
X16776395Y5704894D01*
X16771005Y5679537D01*
X16756179Y5538473D01*
X16755500Y5525512D01*
X16755500Y5231128D01*
X16756179Y5218167D01*
X16771005Y5077103D01*
X16776395Y5051746D01*
X16834890Y4871718D01*
X16845434Y4848036D01*
X16940080Y4684104D01*
X16955317Y4663132D01*
X17081979Y4522460D01*
X17101244Y4505114D01*
X17254385Y4393851D01*
X17276834Y4380890D01*
X17449761Y4303897D01*
X17474416Y4295886D01*
X17659573Y4256530D01*
X17685354Y4253820D01*
X17874646Y4253820D01*
X17900427Y4256530D01*
X18085584Y4295886D01*
X18110239Y4303897D01*
X18283166Y4380890D01*
X18305615Y4393851D01*
X18415000Y4473324D01*
X18524385Y4393851D01*
X18546834Y4380890D01*
X18719761Y4303897D01*
X18744416Y4295886D01*
X18929573Y4256530D01*
X18955354Y4253820D01*
X19144646Y4253820D01*
X19170427Y4256530D01*
X19355584Y4295886D01*
X19380239Y4303897D01*
X19553166Y4380890D01*
X19575615Y4393851D01*
X19728756Y4505114D01*
X19748021Y4522460D01*
X19874683Y4663132D01*
X19889920Y4684104D01*
X19984566Y4848036D01*
X19995110Y4871718D01*
X20053605Y5051746D01*
X20058995Y5077103D01*
X20073821Y5218167D01*
X20074500Y5231128D01*
X20074500Y5525512D01*
X20073821Y5538473D01*
X20058995Y5679537D01*
X20053605Y5704894D01*
X20024754Y5793689D01*
X20199573Y5756530D01*
X20225354Y5753820D01*
X20414646Y5753820D01*
X20440427Y5756530D01*
X20615246Y5793689D01*
X20586395Y5704894D01*
X20581005Y5679537D01*
X20566179Y5538473D01*
X20565500Y5525512D01*
X20565500Y5231128D01*
X20566179Y5218167D01*
X20581005Y5077103D01*
X20586395Y5051746D01*
X20644890Y4871718D01*
X20655434Y4848036D01*
X20750080Y4684104D01*
X20765317Y4663132D01*
X20891979Y4522460D01*
X20911244Y4505114D01*
X21064385Y4393851D01*
X21086834Y4380890D01*
X21259761Y4303897D01*
X21284416Y4295886D01*
X21469573Y4256530D01*
X21495354Y4253820D01*
X21684646Y4253820D01*
X21710427Y4256530D01*
X21895584Y4295886D01*
X21920239Y4303897D01*
X22093166Y4380890D01*
X22115615Y4393851D01*
X22225000Y4473324D01*
X22334385Y4393851D01*
X22356834Y4380890D01*
X22529761Y4303897D01*
X22554416Y4295886D01*
X22739573Y4256530D01*
X22765354Y4253820D01*
X22954646Y4253820D01*
X22980427Y4256530D01*
X23165584Y4295886D01*
X23190239Y4303897D01*
X23335542Y4368591D01*
X25150933Y4368591D01*
X25170699Y4117443D01*
X25173743Y4098225D01*
X25232553Y3853262D01*
X25238566Y3834756D01*
X25334973Y3602008D01*
X25343807Y3584671D01*
X25475437Y3369871D01*
X25486874Y3354129D01*
X25650486Y3162564D01*
X25664244Y3148806D01*
X25855809Y2985194D01*
X25871551Y2973757D01*
X26086351Y2842127D01*
X26103688Y2833293D01*
X26336436Y2736886D01*
X26354942Y2730873D01*
X26599905Y2672063D01*
X26619123Y2669019D01*
X26870271Y2649253D01*
X26889729Y2649253D01*
X27140877Y2669019D01*
X27160095Y2672063D01*
X27405058Y2730873D01*
X27423564Y2736886D01*
X27656312Y2833293D01*
X27673649Y2842127D01*
X27888449Y2973757D01*
X27904191Y2985194D01*
X28095756Y3148806D01*
X28109514Y3162564D01*
X28273126Y3354129D01*
X28284563Y3369871D01*
X28416193Y3584671D01*
X28425027Y3602008D01*
X28521434Y3834756D01*
X28527447Y3853262D01*
X28586257Y4098225D01*
X28589301Y4117443D01*
X28609067Y4368591D01*
X28609067Y4388049D01*
X28589301Y4639197D01*
X28586257Y4658415D01*
X28527447Y4903378D01*
X28521434Y4921884D01*
X28425027Y5154632D01*
X28416193Y5171969D01*
X28284563Y5386769D01*
X28273126Y5402511D01*
X28109514Y5594076D01*
X28095756Y5607834D01*
X27904191Y5771446D01*
X27888449Y5782883D01*
X27673649Y5914513D01*
X27656312Y5923347D01*
X27423564Y6019754D01*
X27405058Y6025767D01*
X27160095Y6084577D01*
X27140877Y6087621D01*
X26889729Y6107387D01*
X26870271Y6107387D01*
X26619123Y6087621D01*
X26599905Y6084577D01*
X26354942Y6025767D01*
X26336436Y6019754D01*
X26103688Y5923347D01*
X26086351Y5914513D01*
X25871551Y5782883D01*
X25855809Y5771446D01*
X25664244Y5607834D01*
X25650486Y5594076D01*
X25486874Y5402511D01*
X25475437Y5386769D01*
X25343807Y5171969D01*
X25334973Y5154632D01*
X25238566Y4921884D01*
X25232553Y4903378D01*
X25173743Y4658415D01*
X25170699Y4639197D01*
X25150933Y4388049D01*
X25150933Y4368591D01*
X23335542Y4368591D01*
X23363166Y4380890D01*
X23385615Y4393851D01*
X23538756Y4505114D01*
X23558021Y4522460D01*
X23684683Y4663132D01*
X23699920Y4684104D01*
X23794566Y4848036D01*
X23805110Y4871718D01*
X23863605Y5051746D01*
X23868995Y5077103D01*
X23883821Y5218167D01*
X23884500Y5231128D01*
X23884500Y5525512D01*
X23883821Y5538473D01*
X23868995Y5679537D01*
X23863605Y5704894D01*
X23834754Y5793689D01*
X24009573Y5756530D01*
X24035354Y5753820D01*
X24224646Y5753820D01*
X24250427Y5756530D01*
X24435584Y5795886D01*
X24460239Y5803897D01*
X24633166Y5880890D01*
X24655615Y5893851D01*
X24808756Y6005114D01*
X24828021Y6022460D01*
X24954683Y6163132D01*
X24969920Y6184104D01*
X25064566Y6348036D01*
X25075110Y6371718D01*
X25133605Y6551746D01*
X25138995Y6577103D01*
X25153821Y6718167D01*
X25154500Y6731128D01*
X25154500Y7025512D01*
X25153821Y7038473D01*
X25138995Y7179537D01*
X25133605Y7204894D01*
X25075110Y7384922D01*
X25064566Y7408604D01*
X24969920Y7572536D01*
X24954683Y7593508D01*
X24828021Y7734180D01*
X24808756Y7751526D01*
X24655615Y7862789D01*
X24633166Y7875750D01*
X24460239Y7952743D01*
X24435584Y7960754D01*
X24250427Y8000110D01*
X24224646Y8002820D01*
X24035354Y8002820D01*
X24009573Y8000110D01*
X23824416Y7960754D01*
X23799761Y7952743D01*
X23626834Y7875750D01*
X23604385Y7862789D01*
X23451244Y7751526D01*
X23431979Y7734180D01*
X23305317Y7593508D01*
X23290080Y7572536D01*
X23278697Y7552820D01*
X21171303Y7552820D01*
X21159920Y7572536D01*
X21144683Y7593508D01*
X21018021Y7734180D01*
X20998756Y7751526D01*
X20845615Y7862789D01*
X20823166Y7875750D01*
X20650239Y7952743D01*
X20625584Y7960754D01*
X20440427Y8000110D01*
X20414646Y8002820D01*
X20225354Y8002820D01*
X20199573Y8000110D01*
X20014416Y7960754D01*
X19989761Y7952743D01*
X19816834Y7875750D01*
X19794385Y7862789D01*
X19641244Y7751526D01*
X19621979Y7734180D01*
X19495317Y7593508D01*
X19480080Y7572536D01*
X19468697Y7552820D01*
X17361303Y7552820D01*
X17349920Y7572536D01*
X17334683Y7593508D01*
X17208021Y7734180D01*
X17188756Y7751526D01*
X17035615Y7862789D01*
X17013166Y7875750D01*
X16840239Y7952743D01*
X16815584Y7960754D01*
X16630427Y8000110D01*
X16604646Y8002820D01*
X16415354Y8002820D01*
X16389573Y8000110D01*
X16350419Y7991788D01*
X15556780Y8785426D01*
X15558948Y8800854D01*
X15560143Y8816383D01*
X15560437Y8837471D01*
X15559676Y8853022D01*
X15540908Y9020346D01*
X15534784Y9047304D01*
X15479411Y9206312D01*
X15467466Y9231242D01*
X15378242Y9374031D01*
X15361071Y9395696D01*
X15242429Y9515169D01*
X15220884Y9532491D01*
X15078721Y9622710D01*
X15053875Y9634828D01*
X14895258Y9691309D01*
X14868345Y9697622D01*
X14701156Y9717559D01*
X14673511Y9717752D01*
X14506059Y9700152D01*
X14479060Y9694215D01*
X14319670Y9639954D01*
X14294657Y9628184D01*
X14151248Y9539958D01*
X14129464Y9522938D01*
X14009166Y9405133D01*
X13991694Y9383711D01*
X13900485Y9242182D01*
X13888193Y9217421D01*
X13830605Y9059202D01*
X13824105Y9032332D01*
X13803003Y8865286D01*
X13802617Y8837645D01*
X878000Y8837645D01*
X878000Y10513232D01*
X2289001Y10513232D01*
X2289726Y10499843D01*
X2296473Y10437724D01*
X2303639Y10407585D01*
X2354719Y10271330D01*
X2371602Y10240493D01*
X2458870Y10124051D01*
X2483731Y10099190D01*
X2600173Y10011922D01*
X2631010Y9995039D01*
X2767265Y9943959D01*
X2797401Y9936793D01*
X2859519Y9930045D01*
X2872911Y9929320D01*
X3429000Y9929320D01*
X3496039Y9949005D01*
X3541794Y10001809D01*
X3553000Y10053320D01*
X3553000Y10053321D01*
X3813000Y10053321D01*
X3832685Y9986282D01*
X3885489Y9940527D01*
X3937000Y9929321D01*
X4493088Y9929321D01*
X4506477Y9930046D01*
X4568596Y9936793D01*
X4598735Y9943959D01*
X4734990Y9995039D01*
X4765827Y10011922D01*
X4882269Y10099190D01*
X4907130Y10124051D01*
X4953000Y10185256D01*
X4998870Y10124051D01*
X5023731Y10099190D01*
X5140173Y10011922D01*
X5171010Y9995039D01*
X5307265Y9943959D01*
X5337401Y9936793D01*
X5399519Y9930045D01*
X5412911Y9929320D01*
X5969000Y9929320D01*
X6036039Y9949005D01*
X6081794Y10001809D01*
X6093000Y10053320D01*
X6093000Y10053321D01*
X6353000Y10053321D01*
X6372685Y9986282D01*
X6425489Y9940527D01*
X6477000Y9929321D01*
X7033088Y9929321D01*
X7046477Y9930046D01*
X7108596Y9936793D01*
X7138735Y9943959D01*
X7274990Y9995039D01*
X7305827Y10011922D01*
X7422269Y10099190D01*
X7447130Y10124051D01*
X7534398Y10240493D01*
X7551281Y10271330D01*
X7602361Y10407585D01*
X7609527Y10437721D01*
X7616275Y10499839D01*
X7617000Y10513231D01*
X7617000Y11069320D01*
X7597315Y11136359D01*
X7544511Y11182114D01*
X7493000Y11193320D01*
X6477000Y11193320D01*
X6409961Y11173635D01*
X6364206Y11120831D01*
X6353000Y11069320D01*
X6353000Y10053321D01*
X6093000Y10053321D01*
X6093000Y11069320D01*
X6073315Y11136359D01*
X6020511Y11182114D01*
X5969000Y11193320D01*
X3937000Y11193320D01*
X3869961Y11173635D01*
X3824206Y11120831D01*
X3813000Y11069320D01*
X3813000Y10053321D01*
X3553000Y10053321D01*
X3553000Y11069320D01*
X3533315Y11136359D01*
X3480511Y11182114D01*
X3429000Y11193320D01*
X2413001Y11193320D01*
X2345962Y11173635D01*
X2300207Y11120831D01*
X2289001Y11069320D01*
X2289001Y10513232D01*
X878000Y10513232D01*
X878000Y11577320D01*
X2289000Y11577320D01*
X2308685Y11510281D01*
X2361489Y11464526D01*
X2413000Y11453320D01*
X7492999Y11453320D01*
X7560038Y11473005D01*
X7564338Y11477968D01*
X29866012Y11477968D01*
X29880216Y11231637D01*
X29883044Y11211514D01*
X29937289Y10970810D01*
X29943365Y10951419D01*
X30036194Y10722807D01*
X30045357Y10704669D01*
X30174279Y10494289D01*
X30186280Y10477891D01*
X30347831Y10291391D01*
X30362350Y10277173D01*
X30552192Y10119563D01*
X30568838Y10107908D01*
X30781872Y9983421D01*
X30800198Y9974641D01*
X31030704Y9886620D01*
X31050217Y9880950D01*
X31292004Y9831757D01*
X31312182Y9829351D01*
X31558756Y9820310D01*
X31579056Y9821232D01*
X31823797Y9852584D01*
X31843674Y9856809D01*
X32080007Y9927712D01*
X32098926Y9935127D01*
X32320506Y10043678D01*
X32337961Y10054083D01*
X32538836Y10197366D01*
X32554357Y10210482D01*
X32729133Y10384649D01*
X32742303Y10400124D01*
X32886286Y10600498D01*
X32896752Y10617916D01*
X33006075Y10839115D01*
X33013556Y10858009D01*
X33085284Y11094093D01*
X33089578Y11113955D01*
X33121784Y11358585D01*
X33122808Y11371740D01*
X33124606Y11445290D01*
X33124226Y11458481D01*
X33104008Y11704392D01*
X33100689Y11724439D01*
X33040580Y11963745D01*
X33034031Y11982982D01*
X32935643Y12209258D01*
X32926041Y12227167D01*
X32792018Y12434335D01*
X32779619Y12450434D01*
X32613560Y12632931D01*
X32598698Y12646790D01*
X32405062Y12799714D01*
X32388137Y12810960D01*
X32172125Y12930205D01*
X32153590Y12938535D01*
X31921002Y13020899D01*
X31901356Y13026089D01*
X31658440Y13069359D01*
X31638209Y13071272D01*
X31391487Y13074286D01*
X31371216Y13072868D01*
X31127314Y13035546D01*
X31107546Y13030837D01*
X30873016Y12954181D01*
X30854283Y12946306D01*
X30635422Y12832374D01*
X30618227Y12821546D01*
X30420912Y12673398D01*
X30405716Y12659906D01*
X30235248Y12481521D01*
X30222460Y12465729D01*
X30083415Y12261897D01*
X30073377Y12244228D01*
X29969491Y12020424D01*
X29962475Y12001354D01*
X29896536Y11763587D01*
X29892728Y11743626D01*
X29866508Y11498283D01*
X29866012Y11477968D01*
X7564338Y11477968D01*
X7605793Y11525809D01*
X7616999Y11577320D01*
X7616999Y12133408D01*
X7616274Y12146797D01*
X7609527Y12208916D01*
X7602361Y12239055D01*
X7551281Y12375310D01*
X7534398Y12406147D01*
X7447130Y12522589D01*
X7422269Y12547450D01*
X7305827Y12634718D01*
X7274990Y12651601D01*
X7201693Y12679079D01*
X7246504Y12701080D01*
X7279613Y12724783D01*
X7293946Y12739141D01*
X24556429Y12739141D01*
X24569657Y12537316D01*
X24573207Y12514903D01*
X24622993Y12318869D01*
X24630568Y12297478D01*
X24715246Y12113799D01*
X24726592Y12094147D01*
X24843324Y11928974D01*
X24858062Y11911718D01*
X25002940Y11770585D01*
X25020575Y11756305D01*
X25188746Y11643936D01*
X25208689Y11633108D01*
X25394522Y11553268D01*
X25416103Y11546256D01*
X25613373Y11501618D01*
X25635872Y11498656D01*
X25837974Y11490716D01*
X25860635Y11491903D01*
X26060800Y11520925D01*
X26082866Y11526223D01*
X26274390Y11591237D01*
X26295120Y11600466D01*
X26471590Y11699293D01*
X26490292Y11712147D01*
X26645796Y11841479D01*
X26661841Y11857524D01*
X26791173Y12013028D01*
X26804027Y12031730D01*
X26902854Y12208200D01*
X26912083Y12228930D01*
X26977097Y12420454D01*
X26982395Y12442520D01*
X27011417Y12642685D01*
X27012657Y12657231D01*
X27014172Y12715073D01*
X27013695Y12729666D01*
X26995188Y12931075D01*
X26991052Y12953387D01*
X26936151Y13148052D01*
X26928019Y13169238D01*
X26886708Y13253009D01*
X32795824Y13253009D01*
X32811392Y12970136D01*
X32813588Y12952759D01*
X32868857Y12674903D01*
X32873478Y12658008D01*
X32967346Y12390710D01*
X32974303Y12374635D01*
X33104897Y12123231D01*
X33114049Y12108297D01*
X33278764Y11877801D01*
X33289928Y11864305D01*
X33485476Y11659317D01*
X33498432Y11647529D01*
X33720913Y11472140D01*
X33735399Y11462294D01*
X33980373Y11320002D01*
X33996102Y11312297D01*
X34258680Y11205942D01*
X34275339Y11200529D01*
X34550284Y11132232D01*
X34567538Y11129221D01*
X34809151Y11104466D01*
X34821790Y11103820D01*
X34997170Y11103820D01*
X35005928Y11104130D01*
X35216351Y11119029D01*
X35233691Y11121497D01*
X35510645Y11181123D01*
X35527465Y11186009D01*
X35793255Y11284064D01*
X35809219Y11291272D01*
X36058542Y11425799D01*
X36073331Y11435184D01*
X36301211Y11603499D01*
X36314530Y11614875D01*
X36516420Y11813619D01*
X36528003Y11826757D01*
X36699877Y12051965D01*
X36709494Y12066605D01*
X36847920Y12313784D01*
X36855377Y12329632D01*
X36957595Y12593849D01*
X36962745Y12610590D01*
X37026715Y12886573D01*
X37029456Y12903873D01*
X37053901Y13186117D01*
X37054176Y13203631D01*
X37038608Y13486504D01*
X37036412Y13503881D01*
X36981143Y13781737D01*
X36976522Y13798632D01*
X36882654Y14065930D01*
X36875697Y14082005D01*
X36745103Y14333409D01*
X36735951Y14348343D01*
X36571236Y14578839D01*
X36560072Y14592335D01*
X36364524Y14797323D01*
X36351568Y14809111D01*
X36129087Y14984500D01*
X36114601Y14994346D01*
X35869627Y15136638D01*
X35853898Y15144343D01*
X35591320Y15250698D01*
X35574661Y15256111D01*
X35299716Y15324408D01*
X35282462Y15327419D01*
X35040849Y15352174D01*
X35028210Y15352820D01*
X34852830Y15352820D01*
X34844072Y15352510D01*
X34633649Y15337611D01*
X34616309Y15335143D01*
X34339355Y15275517D01*
X34322535Y15270631D01*
X34056745Y15172576D01*
X34040781Y15165368D01*
X33791458Y15030841D01*
X33776669Y15021456D01*
X33548789Y14853141D01*
X33535470Y14841765D01*
X33333580Y14643021D01*
X33321997Y14629883D01*
X33150123Y14404675D01*
X33140506Y14390035D01*
X33002080Y14142856D01*
X32994623Y14127008D01*
X32892405Y13862791D01*
X32887255Y13846050D01*
X32823285Y13570067D01*
X32820544Y13552767D01*
X32796099Y13270523D01*
X32795824Y13253009D01*
X26886708Y13253009D01*
X26838563Y13350637D01*
X26826706Y13369985D01*
X26705690Y13532045D01*
X26690506Y13548909D01*
X26541983Y13686202D01*
X26523980Y13700016D01*
X26407301Y13773635D01*
X26468808Y13802317D01*
X26487526Y13813124D01*
X26548111Y13855546D01*
X26591736Y13910123D01*
X26598930Y13979621D01*
X26564669Y14044802D01*
X25872681Y14736791D01*
X25811358Y14770276D01*
X25741667Y14765292D01*
X25697319Y14736791D01*
X25005331Y14044802D01*
X24971846Y13983479D01*
X24976830Y13913787D01*
X25021889Y13855546D01*
X25082474Y13813124D01*
X25101192Y13802317D01*
X25163297Y13773357D01*
X25071971Y13719024D01*
X25053612Y13705686D01*
X24901546Y13572328D01*
X24885925Y13555867D01*
X24760709Y13397030D01*
X24748351Y13378000D01*
X24654176Y13199004D01*
X24645491Y13178038D01*
X24585514Y12984878D01*
X24580797Y12962682D01*
X24557024Y12761826D01*
X24556429Y12739141D01*
X7293946Y12739141D01*
X7362051Y12807365D01*
X7385696Y12840515D01*
X7436939Y12945347D01*
X7448237Y12981902D01*
X7458201Y13050202D01*
X7459500Y13068102D01*
X7459500Y14658538D01*
X7458178Y14676598D01*
X7448036Y14745492D01*
X7436666Y14782081D01*
X7385240Y14886824D01*
X7361537Y14919933D01*
X7278955Y15002371D01*
X7245805Y15026016D01*
X7140973Y15077259D01*
X7104418Y15088557D01*
X7036118Y15098521D01*
X7018218Y15099820D01*
X5427782Y15099820D01*
X5409722Y15098498D01*
X5340828Y15088356D01*
X5304239Y15076986D01*
X5199496Y15025560D01*
X5166387Y15001857D01*
X5083949Y14919275D01*
X5060304Y14886125D01*
X5009061Y14781293D01*
X4997763Y14744738D01*
X4987799Y14676438D01*
X4986500Y14658538D01*
X4986500Y13068102D01*
X4987822Y13050042D01*
X4997964Y12981148D01*
X5009334Y12944559D01*
X5060760Y12839816D01*
X5084463Y12806707D01*
X5167045Y12724269D01*
X5200195Y12700624D01*
X5244287Y12679071D01*
X5171010Y12651601D01*
X5140173Y12634718D01*
X5023731Y12547450D01*
X4998870Y12522589D01*
X4953000Y12461384D01*
X4907130Y12522589D01*
X4882269Y12547450D01*
X4765827Y12634718D01*
X4734990Y12651601D01*
X4661693Y12679079D01*
X4706504Y12701080D01*
X4739613Y12724783D01*
X4822051Y12807365D01*
X4845696Y12840515D01*
X4896939Y12945347D01*
X4908237Y12981902D01*
X4918201Y13050202D01*
X4919500Y13068102D01*
X4919500Y14658538D01*
X4918178Y14676598D01*
X4908036Y14745492D01*
X4896666Y14782081D01*
X4845240Y14886824D01*
X4821537Y14919933D01*
X4738955Y15002371D01*
X4705805Y15026016D01*
X4600973Y15077259D01*
X4564418Y15088557D01*
X4496118Y15098521D01*
X4478218Y15099820D01*
X2887782Y15099820D01*
X2869722Y15098498D01*
X2800828Y15088356D01*
X2764239Y15076986D01*
X2659496Y15025560D01*
X2626387Y15001857D01*
X2543949Y14919275D01*
X2520304Y14886125D01*
X2469061Y14781293D01*
X2457763Y14744738D01*
X2447799Y14676438D01*
X2446500Y14658538D01*
X2446500Y13068102D01*
X2447822Y13050042D01*
X2457964Y12981148D01*
X2469334Y12944559D01*
X2520760Y12839816D01*
X2544463Y12806707D01*
X2627045Y12724269D01*
X2660195Y12700624D01*
X2704287Y12679071D01*
X2631010Y12651601D01*
X2600173Y12634718D01*
X2483731Y12547450D01*
X2458870Y12522589D01*
X2371602Y12406147D01*
X2354719Y12375310D01*
X2303639Y12239055D01*
X2296473Y12208919D01*
X2289725Y12146801D01*
X2289000Y12133409D01*
X2289000Y11577320D01*
X878000Y11577320D01*
X878000Y18133232D01*
X2289001Y18133232D01*
X2289726Y18119843D01*
X2296473Y18057724D01*
X2303639Y18027585D01*
X2354719Y17891330D01*
X2371602Y17860493D01*
X2458870Y17744051D01*
X2483731Y17719190D01*
X2600173Y17631922D01*
X2631010Y17615039D01*
X2704307Y17587561D01*
X2659496Y17565560D01*
X2626387Y17541857D01*
X2543949Y17459275D01*
X2520304Y17426125D01*
X2469061Y17321293D01*
X2457763Y17284738D01*
X2447799Y17216438D01*
X2446500Y17198538D01*
X2446500Y15608102D01*
X2447822Y15590042D01*
X2457964Y15521148D01*
X2469334Y15484559D01*
X2520760Y15379816D01*
X2544463Y15346707D01*
X2627045Y15264269D01*
X2660195Y15240624D01*
X2765027Y15189381D01*
X2801582Y15178083D01*
X2869882Y15168119D01*
X2887782Y15166820D01*
X4478218Y15166820D01*
X4496278Y15168142D01*
X4565172Y15178284D01*
X4601761Y15189654D01*
X4706504Y15241080D01*
X4739613Y15264783D01*
X4822051Y15347365D01*
X4845696Y15380515D01*
X4896939Y15485347D01*
X4908237Y15521902D01*
X4918201Y15590202D01*
X4919500Y15608102D01*
X4919500Y17198538D01*
X4918178Y17216598D01*
X4908036Y17285492D01*
X4896666Y17322081D01*
X4845240Y17426824D01*
X4821537Y17459933D01*
X4738955Y17542371D01*
X4705805Y17566016D01*
X4661713Y17587569D01*
X4734990Y17615039D01*
X4765827Y17631922D01*
X4882269Y17719190D01*
X4907130Y17744051D01*
X4953000Y17805256D01*
X4998870Y17744051D01*
X5023731Y17719190D01*
X5140173Y17631922D01*
X5171010Y17615039D01*
X5244307Y17587561D01*
X5199496Y17565560D01*
X5166387Y17541857D01*
X5083949Y17459275D01*
X5060304Y17426125D01*
X5009061Y17321293D01*
X4997763Y17284738D01*
X4987799Y17216438D01*
X4986500Y17198538D01*
X4986500Y15608102D01*
X4987822Y15590042D01*
X4997964Y15521148D01*
X5009334Y15484559D01*
X5060760Y15379816D01*
X5084463Y15346707D01*
X5167045Y15264269D01*
X5200195Y15240624D01*
X5305027Y15189381D01*
X5341582Y15178083D01*
X5409882Y15168119D01*
X5427782Y15166820D01*
X7018218Y15166820D01*
X7036278Y15168142D01*
X7105172Y15178284D01*
X7141761Y15189654D01*
X7246504Y15241080D01*
X7279613Y15264783D01*
X7362051Y15347365D01*
X7385696Y15380515D01*
X7436939Y15485347D01*
X7448237Y15521902D01*
X7456541Y15578820D01*
X24526160Y15578820D01*
X24485969Y15492630D01*
X24478576Y15472318D01*
X24421605Y15259697D01*
X24417852Y15238411D01*
X24398667Y15019127D01*
X24398667Y14997513D01*
X24417852Y14778229D01*
X24421605Y14756943D01*
X24478576Y14544322D01*
X24485969Y14524010D01*
X24578997Y14324513D01*
X24589804Y14305795D01*
X24632226Y14245209D01*
X24686802Y14201584D01*
X24756300Y14194390D01*
X24821482Y14228651D01*
X25785000Y15192168D01*
X26748518Y14228651D01*
X26809841Y14195166D01*
X26879533Y14200150D01*
X26937774Y14245209D01*
X26980196Y14305795D01*
X26991003Y14324513D01*
X27084031Y14524010D01*
X27091424Y14544322D01*
X27148395Y14756943D01*
X27152148Y14778229D01*
X27171333Y14997513D01*
X27171333Y15019127D01*
X27152148Y15238411D01*
X27148395Y15259697D01*
X27091424Y15472318D01*
X27084031Y15492630D01*
X27040661Y15585637D01*
X27050479Y15587350D01*
X27113216Y15594942D01*
X27142148Y15602048D01*
X27148545Y15604465D01*
X27155276Y15605640D01*
X27183795Y15614251D01*
X27241639Y15639642D01*
X27300754Y15661980D01*
X27327155Y15675782D01*
X27332788Y15679653D01*
X27339045Y15682400D01*
X27364689Y15697565D01*
X27414825Y15736036D01*
X27466886Y15771817D01*
X27489234Y15791519D01*
X27530232Y15837534D01*
X29503303Y17810604D01*
X29551062Y17644050D01*
X29559970Y17621549D01*
X29649656Y17447039D01*
X29662766Y17426697D01*
X29784640Y17272929D01*
X29801451Y17255520D01*
X29950871Y17128354D01*
X29970744Y17114543D01*
X30117610Y17032463D01*
X29997063Y16969442D01*
X29976813Y16956191D01*
X29823901Y16833247D01*
X29806610Y16816314D01*
X29680490Y16666009D01*
X29666818Y16646042D01*
X29572294Y16474104D01*
X29562760Y16451860D01*
X29503432Y16264836D01*
X29498401Y16241164D01*
X29476530Y16046179D01*
X29476192Y16021981D01*
X29492610Y15826461D01*
X29496979Y15802658D01*
X29551062Y15614050D01*
X29559970Y15591549D01*
X29649656Y15417039D01*
X29662766Y15396697D01*
X29784640Y15242929D01*
X29801451Y15225520D01*
X29950871Y15098354D01*
X29970744Y15084543D01*
X30142019Y14988821D01*
X30164195Y14979132D01*
X30350800Y14918500D01*
X30374436Y14913303D01*
X30569264Y14890071D01*
X30593459Y14889564D01*
X30789089Y14904617D01*
X30812923Y14908820D01*
X31001903Y14961585D01*
X31024465Y14970336D01*
X31199598Y15058802D01*
X31220031Y15071769D01*
X31374645Y15192566D01*
X31392171Y15209256D01*
X31520377Y15357785D01*
X31534326Y15377560D01*
X31631242Y15548162D01*
X31641086Y15570270D01*
X31703019Y15756447D01*
X31708380Y15780047D01*
X31732971Y15974708D01*
X31733937Y15988518D01*
X31734329Y16016589D01*
X31733749Y16030421D01*
X31724604Y16123688D01*
X31730871Y16118354D01*
X31750744Y16104543D01*
X31922019Y16008821D01*
X31944195Y15999132D01*
X32130800Y15938500D01*
X32154436Y15933303D01*
X32349264Y15910071D01*
X32373459Y15909564D01*
X32569089Y15924617D01*
X32592923Y15928820D01*
X32781903Y15981585D01*
X32804465Y15990336D01*
X32979598Y16078802D01*
X33000031Y16091769D01*
X33154645Y16212566D01*
X33172171Y16229256D01*
X33300377Y16377785D01*
X33314326Y16397560D01*
X33411242Y16568162D01*
X33421086Y16590270D01*
X33483019Y16776447D01*
X33488380Y16800047D01*
X33512971Y16994708D01*
X33513937Y17008518D01*
X33514329Y17036589D01*
X33513749Y17050421D01*
X33494602Y17245693D01*
X33489902Y17269432D01*
X33433192Y17457266D01*
X33423969Y17479641D01*
X33331855Y17652882D01*
X33318463Y17673038D01*
X33194454Y17825089D01*
X33177401Y17842262D01*
X33032960Y17961754D01*
X33066162Y17980348D01*
X33115036Y18030280D01*
X33129155Y18098708D01*
X33104038Y18163907D01*
X33093254Y18176218D01*
X32201152Y19068320D01*
X32227510Y19094678D01*
X32623044Y19094678D01*
X32628028Y19024986D01*
X32656529Y18980639D01*
X33277102Y18360066D01*
X33338425Y18326581D01*
X33408117Y18331565D01*
X33464050Y18373437D01*
X33472972Y18387158D01*
X33555607Y18534712D01*
X33564837Y18555443D01*
X33633247Y18756974D01*
X33638545Y18779039D01*
X33669084Y18989662D01*
X33670324Y19004209D01*
X33671918Y19065074D01*
X33671441Y19079666D01*
X33651967Y19291599D01*
X33647832Y19313911D01*
X33590063Y19518746D01*
X33581930Y19539932D01*
X33487799Y19730809D01*
X33475943Y19750157D01*
X33465370Y19764316D01*
X33409486Y19806254D01*
X33339800Y19811322D01*
X33278333Y19777805D01*
X32656529Y19156001D01*
X32623044Y19094678D01*
X32227510Y19094678D01*
X33092026Y19959194D01*
X33125511Y20020517D01*
X33120527Y20090209D01*
X33078655Y20146142D01*
X33070513Y20151745D01*
X33031504Y20176358D01*
X33154645Y20272566D01*
X33172171Y20289256D01*
X33300377Y20437785D01*
X33314326Y20457560D01*
X33411242Y20628162D01*
X33421086Y20650270D01*
X33483019Y20836447D01*
X33488380Y20860047D01*
X33512971Y21054708D01*
X33513937Y21068518D01*
X33514329Y21096589D01*
X33513749Y21110421D01*
X33494602Y21305693D01*
X33489902Y21329432D01*
X33433192Y21517266D01*
X33423969Y21539641D01*
X33331855Y21712882D01*
X33318463Y21733038D01*
X33194454Y21885089D01*
X33177401Y21902262D01*
X33026220Y22027329D01*
X33006158Y22040861D01*
X32870996Y22113943D01*
X32979598Y22168802D01*
X33000031Y22181769D01*
X33154645Y22302566D01*
X33172171Y22319256D01*
X33300377Y22467785D01*
X33314326Y22487560D01*
X33411242Y22658162D01*
X33421086Y22680270D01*
X33483019Y22866447D01*
X33488380Y22890047D01*
X33512971Y23084708D01*
X33513937Y23098518D01*
X33514329Y23126589D01*
X33513749Y23140421D01*
X33494602Y23335693D01*
X33489902Y23359432D01*
X33433192Y23547266D01*
X33423969Y23569641D01*
X33331855Y23742882D01*
X33318463Y23763038D01*
X33194454Y23915089D01*
X33177401Y23932262D01*
X33026220Y24057329D01*
X33006158Y24070861D01*
X32833563Y24164183D01*
X32811253Y24173562D01*
X32623820Y24231582D01*
X32600114Y24236448D01*
X32404981Y24256958D01*
X32380780Y24257127D01*
X32185379Y24239344D01*
X32161607Y24234809D01*
X31973382Y24179411D01*
X31950944Y24170345D01*
X31777063Y24079442D01*
X31756813Y24066191D01*
X31603901Y23943247D01*
X31586610Y23926314D01*
X31460490Y23776009D01*
X31446818Y23756042D01*
X31352294Y23584104D01*
X31342760Y23561860D01*
X31283432Y23374836D01*
X31278401Y23351164D01*
X31256530Y23156179D01*
X31256192Y23131981D01*
X31265478Y23021398D01*
X31246220Y23037329D01*
X31226158Y23050861D01*
X31053563Y23144183D01*
X31031253Y23153562D01*
X30843820Y23211582D01*
X30820114Y23216448D01*
X30624981Y23236958D01*
X30600780Y23237127D01*
X30405379Y23219344D01*
X30381607Y23214809D01*
X30193382Y23159411D01*
X30170944Y23150345D01*
X29997063Y23059442D01*
X29976813Y23046191D01*
X29958300Y23031306D01*
X29958300Y25953009D01*
X32795824Y25953009D01*
X32811392Y25670136D01*
X32813588Y25652759D01*
X32868857Y25374903D01*
X32873478Y25358008D01*
X32967346Y25090710D01*
X32974303Y25074635D01*
X33104897Y24823231D01*
X33114049Y24808297D01*
X33278764Y24577801D01*
X33289928Y24564305D01*
X33485476Y24359317D01*
X33498432Y24347529D01*
X33720913Y24172140D01*
X33735399Y24162294D01*
X33980373Y24020002D01*
X33996102Y24012297D01*
X34258680Y23905942D01*
X34275339Y23900529D01*
X34550284Y23832232D01*
X34567538Y23829221D01*
X34809151Y23804466D01*
X34821790Y23803820D01*
X34997170Y23803820D01*
X35005928Y23804130D01*
X35216351Y23819029D01*
X35233691Y23821497D01*
X35510645Y23881123D01*
X35527465Y23886009D01*
X35793255Y23984064D01*
X35809219Y23991272D01*
X36058542Y24125799D01*
X36073331Y24135184D01*
X36301211Y24303499D01*
X36314530Y24314875D01*
X36516420Y24513619D01*
X36528003Y24526757D01*
X36699877Y24751965D01*
X36709494Y24766605D01*
X36847920Y25013784D01*
X36855377Y25029632D01*
X36957595Y25293849D01*
X36962745Y25310590D01*
X37026715Y25586573D01*
X37029456Y25603873D01*
X37053901Y25886117D01*
X37054176Y25903631D01*
X37038608Y26186504D01*
X37036412Y26203881D01*
X36981143Y26481737D01*
X36976522Y26498632D01*
X36882654Y26765930D01*
X36875697Y26782005D01*
X36745103Y27033409D01*
X36735951Y27048343D01*
X36571236Y27278839D01*
X36560072Y27292335D01*
X36364524Y27497323D01*
X36351568Y27509111D01*
X36129087Y27684500D01*
X36114601Y27694346D01*
X35869627Y27836638D01*
X35853898Y27844343D01*
X35591320Y27950698D01*
X35574661Y27956111D01*
X35299716Y28024408D01*
X35282462Y28027419D01*
X35040849Y28052174D01*
X35028210Y28052820D01*
X34852830Y28052820D01*
X34844072Y28052510D01*
X34633649Y28037611D01*
X34616309Y28035143D01*
X34339355Y27975517D01*
X34322535Y27970631D01*
X34056745Y27872576D01*
X34040781Y27865368D01*
X33791458Y27730841D01*
X33776669Y27721456D01*
X33548789Y27553141D01*
X33535470Y27541765D01*
X33333580Y27343021D01*
X33321997Y27329883D01*
X33150123Y27104675D01*
X33140506Y27090035D01*
X33002080Y26842856D01*
X32994623Y26827008D01*
X32892405Y26562791D01*
X32887255Y26546050D01*
X32823285Y26270067D01*
X32820544Y26252767D01*
X32796099Y25970523D01*
X32795824Y25953009D01*
X29958300Y25953009D01*
X29958300Y27174638D01*
X30036194Y26982807D01*
X30045357Y26964669D01*
X30174279Y26754289D01*
X30186280Y26737891D01*
X30347831Y26551391D01*
X30362350Y26537173D01*
X30552192Y26379563D01*
X30568838Y26367908D01*
X30781872Y26243421D01*
X30800198Y26234641D01*
X31030704Y26146620D01*
X31050217Y26140950D01*
X31292004Y26091757D01*
X31312182Y26089351D01*
X31558756Y26080310D01*
X31579056Y26081232D01*
X31823797Y26112584D01*
X31843674Y26116809D01*
X32080007Y26187712D01*
X32098926Y26195127D01*
X32320506Y26303678D01*
X32337961Y26314083D01*
X32538836Y26457366D01*
X32554357Y26470482D01*
X32729133Y26644649D01*
X32742303Y26660124D01*
X32886286Y26860498D01*
X32896752Y26877916D01*
X33006075Y27099115D01*
X33013556Y27118009D01*
X33085284Y27354093D01*
X33089578Y27373955D01*
X33121784Y27618585D01*
X33122808Y27631740D01*
X33124606Y27705290D01*
X33124226Y27718481D01*
X33104008Y27964392D01*
X33100689Y27984439D01*
X33040580Y28223745D01*
X33034031Y28242982D01*
X32935643Y28469258D01*
X32926041Y28487167D01*
X32792018Y28694335D01*
X32779619Y28710434D01*
X32613560Y28892931D01*
X32598698Y28906790D01*
X32405062Y29059714D01*
X32388137Y29070960D01*
X32172125Y29190205D01*
X32153590Y29198535D01*
X31921002Y29280899D01*
X31901356Y29286089D01*
X31658440Y29329359D01*
X31638209Y29331272D01*
X31391487Y29334286D01*
X31371216Y29332868D01*
X31127314Y29295546D01*
X31107546Y29290837D01*
X30873016Y29214181D01*
X30854283Y29206306D01*
X30635422Y29092374D01*
X30618227Y29081546D01*
X30420912Y28933398D01*
X30405716Y28919906D01*
X30235248Y28741521D01*
X30222460Y28725729D01*
X30083415Y28521897D01*
X30073377Y28504228D01*
X29969491Y28280424D01*
X29962475Y28261354D01*
X29958300Y28246300D01*
X29958300Y32504638D01*
X30036194Y32312807D01*
X30045357Y32294669D01*
X30174279Y32084289D01*
X30186280Y32067891D01*
X30347831Y31881391D01*
X30362350Y31867173D01*
X30552192Y31709563D01*
X30568838Y31697908D01*
X30781872Y31573421D01*
X30800198Y31564641D01*
X31030704Y31476620D01*
X31050217Y31470950D01*
X31292004Y31421757D01*
X31312182Y31419351D01*
X31558756Y31410310D01*
X31579056Y31411232D01*
X31823797Y31442584D01*
X31843674Y31446809D01*
X32080007Y31517712D01*
X32098926Y31525127D01*
X32320506Y31633678D01*
X32337961Y31644083D01*
X32538836Y31787366D01*
X32554357Y31800482D01*
X32729133Y31974649D01*
X32742303Y31990124D01*
X32886286Y32190498D01*
X32896752Y32207916D01*
X33006075Y32429115D01*
X33013556Y32448009D01*
X33085284Y32684093D01*
X33089578Y32703955D01*
X33121784Y32948585D01*
X33122808Y32961740D01*
X33124606Y33035290D01*
X33124226Y33048481D01*
X33104008Y33294392D01*
X33100689Y33314439D01*
X33040580Y33553745D01*
X33034031Y33572982D01*
X32935643Y33799258D01*
X32926041Y33817167D01*
X32792018Y34024335D01*
X32779619Y34040434D01*
X32613560Y34222931D01*
X32598698Y34236790D01*
X32405062Y34389714D01*
X32388137Y34400960D01*
X32172125Y34520205D01*
X32153590Y34528535D01*
X31921002Y34610899D01*
X31901356Y34616089D01*
X31658440Y34659359D01*
X31638209Y34661272D01*
X31391487Y34664286D01*
X31371216Y34662868D01*
X31127314Y34625546D01*
X31107546Y34620837D01*
X30873016Y34544181D01*
X30854283Y34536306D01*
X30635422Y34422374D01*
X30618227Y34411546D01*
X30420912Y34263398D01*
X30405716Y34249906D01*
X30235248Y34071521D01*
X30222460Y34055729D01*
X30083415Y33851897D01*
X30073377Y33834228D01*
X29969491Y33610424D01*
X29962475Y33591354D01*
X29958300Y33576300D01*
X29958300Y34843009D01*
X32795824Y34843009D01*
X32811392Y34560136D01*
X32813588Y34542759D01*
X32868857Y34264903D01*
X32873478Y34248008D01*
X32967346Y33980710D01*
X32974303Y33964635D01*
X33104897Y33713231D01*
X33114049Y33698297D01*
X33278764Y33467801D01*
X33289928Y33454305D01*
X33485476Y33249317D01*
X33498432Y33237529D01*
X33720913Y33062140D01*
X33735399Y33052294D01*
X33980373Y32910002D01*
X33996102Y32902297D01*
X34258680Y32795942D01*
X34275339Y32790529D01*
X34550284Y32722232D01*
X34567538Y32719221D01*
X34809151Y32694466D01*
X34821790Y32693820D01*
X34997170Y32693820D01*
X35005928Y32694130D01*
X35216351Y32709029D01*
X35233691Y32711497D01*
X35510645Y32771123D01*
X35527465Y32776009D01*
X35793255Y32874064D01*
X35809219Y32881272D01*
X36058542Y33015799D01*
X36073331Y33025184D01*
X36301211Y33193499D01*
X36314530Y33204875D01*
X36516420Y33403619D01*
X36528003Y33416757D01*
X36699877Y33641965D01*
X36709494Y33656605D01*
X36847920Y33903784D01*
X36855377Y33919632D01*
X36957595Y34183849D01*
X36962745Y34200590D01*
X37026715Y34476573D01*
X37029456Y34493873D01*
X37053901Y34776117D01*
X37054176Y34793631D01*
X37038608Y35076504D01*
X37036412Y35093881D01*
X36981143Y35371737D01*
X36976522Y35388632D01*
X36882654Y35655930D01*
X36875697Y35672005D01*
X36745103Y35923409D01*
X36735951Y35938343D01*
X36571236Y36168839D01*
X36560072Y36182335D01*
X36364524Y36387323D01*
X36351568Y36399111D01*
X36129087Y36574500D01*
X36114601Y36584346D01*
X35869627Y36726638D01*
X35853898Y36734343D01*
X35591320Y36840698D01*
X35574661Y36846111D01*
X35299716Y36914408D01*
X35282462Y36917419D01*
X35040849Y36942174D01*
X35028210Y36942820D01*
X34852830Y36942820D01*
X34844072Y36942510D01*
X34633649Y36927611D01*
X34616309Y36925143D01*
X34339355Y36865517D01*
X34322535Y36860631D01*
X34056745Y36762576D01*
X34040781Y36755368D01*
X33791458Y36620841D01*
X33776669Y36611456D01*
X33548789Y36443141D01*
X33535470Y36431765D01*
X33333580Y36233021D01*
X33321997Y36219883D01*
X33150123Y35994675D01*
X33140506Y35980035D01*
X33002080Y35732856D01*
X32994623Y35717008D01*
X32892405Y35452791D01*
X32887255Y35436050D01*
X32823285Y35160067D01*
X32820544Y35142767D01*
X32796099Y34860523D01*
X32795824Y34843009D01*
X29958300Y34843009D01*
X29958300Y36683191D01*
X29970744Y36674543D01*
X30142019Y36578821D01*
X30164195Y36569132D01*
X30350800Y36508500D01*
X30374436Y36503303D01*
X30569264Y36480071D01*
X30593459Y36479564D01*
X30789089Y36494617D01*
X30812923Y36498820D01*
X31001903Y36551585D01*
X31024465Y36560336D01*
X31199598Y36648802D01*
X31220031Y36661769D01*
X31374645Y36782566D01*
X31392171Y36799256D01*
X31520377Y36947785D01*
X31534326Y36967560D01*
X31631242Y37138162D01*
X31641086Y37160270D01*
X31703019Y37346447D01*
X31708380Y37370047D01*
X31732971Y37564708D01*
X31733937Y37578518D01*
X31734329Y37606589D01*
X31733749Y37620421D01*
X31724604Y37713688D01*
X31730871Y37708354D01*
X31750744Y37694543D01*
X31922019Y37598821D01*
X31944195Y37589132D01*
X32130800Y37528500D01*
X32154436Y37523303D01*
X32349264Y37500071D01*
X32373459Y37499564D01*
X32569089Y37514617D01*
X32592923Y37518820D01*
X32781903Y37571585D01*
X32804465Y37580336D01*
X32979598Y37668802D01*
X33000031Y37681769D01*
X33154645Y37802566D01*
X33172171Y37819256D01*
X33300377Y37967785D01*
X33314326Y37987560D01*
X33411242Y38158162D01*
X33421086Y38180270D01*
X33483019Y38366447D01*
X33488380Y38390047D01*
X33512971Y38584708D01*
X33513937Y38598518D01*
X33514329Y38626589D01*
X33513749Y38640421D01*
X33494602Y38835693D01*
X33489902Y38859432D01*
X33433192Y39047266D01*
X33423969Y39069641D01*
X33331855Y39242882D01*
X33318463Y39263038D01*
X33194454Y39415089D01*
X33177401Y39432262D01*
X33032960Y39551754D01*
X33066162Y39570348D01*
X33115036Y39620280D01*
X33129155Y39688708D01*
X33104038Y39753907D01*
X33093254Y39766218D01*
X32201152Y40658320D01*
X32227510Y40684678D01*
X32623044Y40684678D01*
X32628028Y40614986D01*
X32656529Y40570639D01*
X33277102Y39950066D01*
X33338425Y39916581D01*
X33408117Y39921565D01*
X33464050Y39963437D01*
X33472972Y39977158D01*
X33555607Y40124712D01*
X33564837Y40145443D01*
X33633247Y40346974D01*
X33638545Y40369039D01*
X33669084Y40579662D01*
X33670324Y40594209D01*
X33671918Y40655074D01*
X33671441Y40669666D01*
X33651967Y40881599D01*
X33647832Y40903911D01*
X33590063Y41108746D01*
X33581930Y41129932D01*
X33487799Y41320809D01*
X33475943Y41340157D01*
X33465370Y41354316D01*
X33409486Y41396254D01*
X33339800Y41401322D01*
X33278333Y41367805D01*
X32656529Y40746001D01*
X32623044Y40684678D01*
X32227510Y40684678D01*
X33092026Y41549194D01*
X33125511Y41610517D01*
X33120527Y41680209D01*
X33078655Y41736142D01*
X33070513Y41741745D01*
X33031504Y41766358D01*
X33154645Y41862566D01*
X33172171Y41879256D01*
X33300377Y42027785D01*
X33314326Y42047560D01*
X33411242Y42218162D01*
X33421086Y42240270D01*
X33483019Y42426447D01*
X33488380Y42450047D01*
X33512971Y42644708D01*
X33513937Y42658518D01*
X33514329Y42686589D01*
X33513749Y42700421D01*
X33494602Y42895693D01*
X33489902Y42919432D01*
X33433192Y43107266D01*
X33423969Y43129641D01*
X33331855Y43302882D01*
X33318463Y43323038D01*
X33194454Y43475089D01*
X33177401Y43492262D01*
X33026220Y43617329D01*
X33006158Y43630861D01*
X32870996Y43703943D01*
X32979598Y43758802D01*
X33000031Y43771769D01*
X33154645Y43892566D01*
X33172171Y43909256D01*
X33300377Y44057785D01*
X33314326Y44077560D01*
X33411242Y44248162D01*
X33421086Y44270270D01*
X33483019Y44456447D01*
X33488380Y44480047D01*
X33512971Y44674708D01*
X33513937Y44688518D01*
X33514329Y44716589D01*
X33513749Y44730421D01*
X33494602Y44925693D01*
X33489902Y44949432D01*
X33433192Y45137266D01*
X33423969Y45159641D01*
X33331855Y45332882D01*
X33318463Y45353038D01*
X33194454Y45505089D01*
X33177401Y45522262D01*
X33026220Y45647329D01*
X33006158Y45660861D01*
X32833563Y45754183D01*
X32811253Y45763562D01*
X32623820Y45821582D01*
X32600114Y45826448D01*
X32404981Y45846958D01*
X32380780Y45847127D01*
X32185379Y45829344D01*
X32161607Y45824809D01*
X31973382Y45769411D01*
X31950944Y45760345D01*
X31777063Y45669442D01*
X31756813Y45656191D01*
X31603901Y45533247D01*
X31586610Y45516314D01*
X31460490Y45366009D01*
X31446818Y45346042D01*
X31352294Y45174104D01*
X31342760Y45151860D01*
X31283432Y44964836D01*
X31278401Y44941164D01*
X31256530Y44746179D01*
X31256192Y44721981D01*
X31265478Y44611398D01*
X31246220Y44627329D01*
X31226158Y44640861D01*
X31053563Y44734183D01*
X31031253Y44743562D01*
X30843820Y44801582D01*
X30820114Y44806448D01*
X30624981Y44826958D01*
X30600780Y44827127D01*
X30405379Y44809344D01*
X30381607Y44804809D01*
X30193382Y44749411D01*
X30170944Y44740345D01*
X29997063Y44649442D01*
X29976813Y44636191D01*
X29823901Y44513247D01*
X29806610Y44496314D01*
X29680490Y44346009D01*
X29666818Y44326042D01*
X29572294Y44154104D01*
X29562760Y44131860D01*
X29503432Y43944836D01*
X29498401Y43921164D01*
X29476530Y43726179D01*
X29476192Y43701981D01*
X29492610Y43506461D01*
X29496979Y43482658D01*
X29551062Y43294050D01*
X29559970Y43271549D01*
X29649656Y43097039D01*
X29662766Y43076697D01*
X29784640Y42922929D01*
X29801451Y42905520D01*
X29950871Y42778354D01*
X29970744Y42764543D01*
X30117610Y42682463D01*
X29997063Y42619442D01*
X29976813Y42606191D01*
X29823901Y42483247D01*
X29806610Y42466314D01*
X29680490Y42316009D01*
X29666818Y42296042D01*
X29572294Y42124104D01*
X29562760Y42101860D01*
X29503432Y41914836D01*
X29498401Y41891164D01*
X29477754Y41707093D01*
X28570993Y40800332D01*
X28527890Y40762731D01*
X28507953Y40740589D01*
X28471633Y40688910D01*
X28432636Y40639176D01*
X28417201Y40613688D01*
X28414390Y40607462D01*
X28410464Y40601876D01*
X28396384Y40575617D01*
X28373433Y40516753D01*
X28347431Y40459163D01*
X28338522Y40430735D01*
X28337277Y40424016D01*
X28334794Y40417648D01*
X28327385Y40388791D01*
X28319140Y40326159D01*
X28307624Y40264026D01*
X28305754Y40234291D01*
X28309300Y40172787D01*
X28309300Y21578098D01*
X28305409Y21521024D01*
X28306969Y21491270D01*
X28317830Y21429041D01*
X28325422Y21366304D01*
X28332528Y21337372D01*
X28334945Y21330975D01*
X28336120Y21324244D01*
X28344731Y21295725D01*
X28370122Y21237881D01*
X28392460Y21178766D01*
X28406262Y21152365D01*
X28410133Y21146732D01*
X28412880Y21140475D01*
X28428045Y21114831D01*
X28466516Y21064695D01*
X28502297Y21012634D01*
X28521999Y20990286D01*
X28568014Y20949288D01*
X29438981Y20078320D01*
X26588481Y17227820D01*
X23953433Y17227820D01*
X23955867Y17230138D01*
X23973636Y17251314D01*
X24066813Y17391556D01*
X24079450Y17416144D01*
X24139240Y17573544D01*
X24146114Y17600319D01*
X24169548Y17767054D01*
X24170743Y17782583D01*
X24171037Y17803671D01*
X24170276Y17819222D01*
X24151508Y17986546D01*
X24145384Y18013504D01*
X24090011Y18172512D01*
X24078066Y18197442D01*
X23988842Y18340231D01*
X23971671Y18361896D01*
X23853029Y18481369D01*
X23831484Y18498691D01*
X23689321Y18588910D01*
X23664475Y18601028D01*
X23505858Y18657509D01*
X23478945Y18663822D01*
X23311756Y18683759D01*
X23284111Y18683952D01*
X23116659Y18666352D01*
X23089660Y18660415D01*
X22930270Y18606154D01*
X22905257Y18594384D01*
X22800440Y18529900D01*
X19375497Y18529900D01*
X15746162Y22159235D01*
X15744108Y22177546D01*
X15737984Y22204504D01*
X15682611Y22363512D01*
X15670666Y22388442D01*
X15581442Y22531231D01*
X15564271Y22552896D01*
X15445629Y22672369D01*
X15424084Y22689691D01*
X15281921Y22779910D01*
X15257075Y22792028D01*
X15098458Y22848509D01*
X15071545Y22854822D01*
X14904356Y22874759D01*
X14876711Y22874952D01*
X14709259Y22857352D01*
X14682260Y22851415D01*
X14522870Y22797154D01*
X14497857Y22785384D01*
X14354448Y22697158D01*
X14332664Y22680138D01*
X14212366Y22562333D01*
X14194894Y22540911D01*
X14103685Y22399382D01*
X14091393Y22374621D01*
X14033805Y22216402D01*
X14027305Y22189532D01*
X14006203Y22022486D01*
X14005817Y21994845D01*
X14022247Y21827275D01*
X14027994Y21800235D01*
X14081141Y21640469D01*
X14092737Y21615374D01*
X14179959Y21471353D01*
X14196826Y21449450D01*
X14313788Y21328333D01*
X14335088Y21310713D01*
X14475977Y21218517D01*
X14500652Y21206052D01*
X14658466Y21147362D01*
X14685289Y21140674D01*
X14720185Y21136018D01*
X18529519Y17326684D01*
X18548742Y17301632D01*
X18571632Y17278742D01*
X18637995Y17227820D01*
X7456526Y17227820D01*
X7448036Y17285492D01*
X7436666Y17322081D01*
X7385240Y17426824D01*
X7361537Y17459933D01*
X7278955Y17542371D01*
X7245805Y17566016D01*
X7201713Y17587569D01*
X7274990Y17615039D01*
X7305827Y17631922D01*
X7422269Y17719190D01*
X7447130Y17744051D01*
X7534398Y17860493D01*
X7551281Y17891330D01*
X7602361Y18027585D01*
X7609527Y18057721D01*
X7616275Y18119839D01*
X7617000Y18133231D01*
X7617000Y18689320D01*
X7597315Y18756359D01*
X7544511Y18802114D01*
X7493000Y18813320D01*
X2413001Y18813320D01*
X2345962Y18793635D01*
X2300207Y18740831D01*
X2289001Y18689320D01*
X2289001Y18133232D01*
X878000Y18133232D01*
X878000Y19197320D01*
X2289000Y19197320D01*
X2308685Y19130281D01*
X2361489Y19084526D01*
X2413000Y19073320D01*
X3429000Y19073320D01*
X3496039Y19093005D01*
X3541794Y19145809D01*
X3553000Y19197320D01*
X3813000Y19197320D01*
X3832685Y19130281D01*
X3885489Y19084526D01*
X3937000Y19073320D01*
X5969000Y19073320D01*
X6036039Y19093005D01*
X6081794Y19145809D01*
X6093000Y19197320D01*
X6353000Y19197320D01*
X6372685Y19130281D01*
X6425489Y19084526D01*
X6477000Y19073320D01*
X7492999Y19073320D01*
X7560038Y19093005D01*
X7605793Y19145809D01*
X7616999Y19197320D01*
X7616999Y19753408D01*
X7616274Y19766797D01*
X7609527Y19828916D01*
X7602361Y19859055D01*
X7551281Y19995310D01*
X7534398Y20026147D01*
X7447130Y20142589D01*
X7422269Y20167450D01*
X7305827Y20254718D01*
X7274990Y20271601D01*
X7138735Y20322681D01*
X7108599Y20329847D01*
X7046481Y20336595D01*
X7033089Y20337320D01*
X6477000Y20337320D01*
X6409961Y20317635D01*
X6364206Y20264831D01*
X6353000Y20213320D01*
X6353000Y19197320D01*
X6093000Y19197320D01*
X6093000Y20213319D01*
X6073315Y20280358D01*
X6020511Y20326113D01*
X5969000Y20337319D01*
X5412912Y20337319D01*
X5399523Y20336594D01*
X5337404Y20329847D01*
X5307265Y20322681D01*
X5171010Y20271601D01*
X5140173Y20254718D01*
X5023731Y20167450D01*
X4998870Y20142589D01*
X4953000Y20081384D01*
X4907130Y20142589D01*
X4882269Y20167450D01*
X4765827Y20254718D01*
X4734990Y20271601D01*
X4598735Y20322681D01*
X4568599Y20329847D01*
X4506481Y20336595D01*
X4493089Y20337320D01*
X3937000Y20337320D01*
X3869961Y20317635D01*
X3824206Y20264831D01*
X3813000Y20213320D01*
X3813000Y19197320D01*
X3553000Y19197320D01*
X3553000Y20213319D01*
X3533315Y20280358D01*
X3480511Y20326113D01*
X3429000Y20337319D01*
X2872912Y20337319D01*
X2859523Y20336594D01*
X2797404Y20329847D01*
X2767265Y20322681D01*
X2631010Y20271601D01*
X2600173Y20254718D01*
X2483731Y20167450D01*
X2458870Y20142589D01*
X2371602Y20026147D01*
X2354719Y19995310D01*
X2303639Y19859055D01*
X2296473Y19828919D01*
X2289725Y19766801D01*
X2289000Y19753409D01*
X2289000Y19197320D01*
X878000Y19197320D01*
X878000Y24169141D01*
X24556429Y24169141D01*
X24569657Y23967316D01*
X24573207Y23944903D01*
X24622993Y23748869D01*
X24630568Y23727478D01*
X24715246Y23543799D01*
X24726592Y23524147D01*
X24843324Y23358974D01*
X24858062Y23341718D01*
X25002940Y23200585D01*
X25020575Y23186305D01*
X25188746Y23073936D01*
X25208689Y23063108D01*
X25394522Y22983268D01*
X25416103Y22976256D01*
X25613373Y22931618D01*
X25635872Y22928656D01*
X25837974Y22920716D01*
X25860635Y22921903D01*
X26060800Y22950925D01*
X26082866Y22956223D01*
X26274390Y23021237D01*
X26295120Y23030466D01*
X26471590Y23129293D01*
X26490292Y23142147D01*
X26645796Y23271479D01*
X26661841Y23287524D01*
X26791173Y23443028D01*
X26804027Y23461730D01*
X26902854Y23638200D01*
X26912083Y23658930D01*
X26977097Y23850454D01*
X26982395Y23872520D01*
X27011417Y24072685D01*
X27012657Y24087231D01*
X27014172Y24145073D01*
X27013695Y24159666D01*
X26995188Y24361075D01*
X26991052Y24383387D01*
X26936151Y24578052D01*
X26928019Y24599238D01*
X26838563Y24780637D01*
X26826706Y24799985D01*
X26705690Y24962045D01*
X26690506Y24978909D01*
X26541983Y25116202D01*
X26523980Y25130016D01*
X26407301Y25203635D01*
X26468808Y25232317D01*
X26487526Y25243124D01*
X26548111Y25285546D01*
X26591736Y25340123D01*
X26598930Y25409621D01*
X26564669Y25474802D01*
X25872681Y26166791D01*
X25811358Y26200276D01*
X25741667Y26195292D01*
X25697319Y26166791D01*
X25005331Y25474802D01*
X24971846Y25413479D01*
X24976830Y25343787D01*
X25021889Y25285546D01*
X25082474Y25243124D01*
X25101192Y25232317D01*
X25163297Y25203357D01*
X25071971Y25149024D01*
X25053612Y25135686D01*
X24901546Y25002328D01*
X24885925Y24985867D01*
X24760709Y24827030D01*
X24748351Y24808000D01*
X24654176Y24629004D01*
X24645491Y24608038D01*
X24585514Y24414878D01*
X24580797Y24392682D01*
X24557024Y24191826D01*
X24556429Y24169141D01*
X878000Y24169141D01*
X878000Y26427513D01*
X24398667Y26427513D01*
X24417852Y26208229D01*
X24421605Y26186943D01*
X24478576Y25974322D01*
X24485969Y25954010D01*
X24578997Y25754513D01*
X24589804Y25735795D01*
X24632226Y25675209D01*
X24686802Y25631584D01*
X24756300Y25624390D01*
X24821482Y25658651D01*
X25513471Y26350639D01*
X25546956Y26411962D01*
X25543186Y26464678D01*
X26023044Y26464678D01*
X26028028Y26394987D01*
X26056529Y26350639D01*
X26748518Y25658651D01*
X26809841Y25625166D01*
X26879533Y25630150D01*
X26937774Y25675209D01*
X26980196Y25735795D01*
X26991003Y25754513D01*
X27084031Y25954010D01*
X27091424Y25974322D01*
X27148395Y26186943D01*
X27152148Y26208229D01*
X27171333Y26427513D01*
X27171333Y26449127D01*
X27152148Y26668411D01*
X27148395Y26689697D01*
X27091424Y26902318D01*
X27084031Y26922630D01*
X26991003Y27122127D01*
X26980196Y27140845D01*
X26937774Y27201431D01*
X26883198Y27245056D01*
X26813700Y27252250D01*
X26748518Y27217989D01*
X26056529Y26526001D01*
X26023044Y26464678D01*
X25543186Y26464678D01*
X25541972Y26481653D01*
X25513471Y26526001D01*
X24821482Y27217989D01*
X24760159Y27251474D01*
X24690467Y27246490D01*
X24632226Y27201431D01*
X24589804Y27140845D01*
X24578997Y27122127D01*
X24485969Y26922630D01*
X24478576Y26902318D01*
X24421605Y26689697D01*
X24417852Y26668411D01*
X24398667Y26449127D01*
X24398667Y26427513D01*
X878000Y26427513D01*
X878000Y27345891D01*
X12043258Y27345891D01*
X12048242Y27276199D01*
X12090114Y27220266D01*
X12121201Y27203310D01*
X12291067Y27140137D01*
X12317890Y27133449D01*
X12497571Y27109474D01*
X12525210Y27108895D01*
X12705738Y27125325D01*
X12732816Y27130884D01*
X12803870Y27153970D01*
X12841067Y27140137D01*
X12867890Y27133449D01*
X13047571Y27109474D01*
X13075210Y27108895D01*
X13255738Y27125325D01*
X13282816Y27130884D01*
X13353870Y27153970D01*
X13391067Y27140137D01*
X13417890Y27133449D01*
X13597571Y27109474D01*
X13625210Y27108895D01*
X13805738Y27125325D01*
X13832817Y27130884D01*
X14005219Y27186900D01*
X14030395Y27198320D01*
X14058825Y27215268D01*
X14106330Y27266504D01*
X14118593Y27335289D01*
X14091721Y27399785D01*
X14083012Y27409460D01*
X14025452Y27467020D01*
X24971070Y27467020D01*
X25005331Y27401838D01*
X25697319Y26709849D01*
X25758642Y26676364D01*
X25828333Y26681348D01*
X25872681Y26709849D01*
X26564669Y27401838D01*
X26598154Y27463161D01*
X26593170Y27532853D01*
X26548111Y27591094D01*
X26487526Y27633516D01*
X26468808Y27644323D01*
X26269310Y27737351D01*
X26248998Y27744744D01*
X26036377Y27801715D01*
X26015091Y27805468D01*
X25795807Y27824653D01*
X25774193Y27824653D01*
X25554909Y27805468D01*
X25533623Y27801715D01*
X25321002Y27744744D01*
X25300690Y27737351D01*
X25101193Y27644323D01*
X25082475Y27633516D01*
X25021889Y27591094D01*
X24978264Y27536518D01*
X24971070Y27467020D01*
X14025452Y27467020D01*
X13718681Y27773791D01*
X13657358Y27807276D01*
X13587666Y27802292D01*
X13543319Y27773791D01*
X13210979Y27441450D01*
X13168681Y27483748D01*
X13107358Y27517232D01*
X13037666Y27512248D01*
X12993319Y27483748D01*
X12951021Y27441450D01*
X12618681Y27773791D01*
X12557358Y27807276D01*
X12487667Y27802292D01*
X12443319Y27773791D01*
X12076743Y27407214D01*
X12043258Y27345891D01*
X878000Y27345891D01*
X878000Y28044573D01*
X11594558Y28044573D01*
X11612247Y27864164D01*
X11617994Y27837123D01*
X11675213Y27665117D01*
X11686810Y27640021D01*
X11701088Y27616446D01*
X11752654Y27569301D01*
X11821523Y27557519D01*
X11885830Y27584840D01*
X11894833Y27593002D01*
X12259471Y27957639D01*
X12292956Y28018962D01*
X12289186Y28071678D01*
X13869044Y28071678D01*
X13874028Y28001987D01*
X13902529Y27957639D01*
X14268631Y27591538D01*
X14329954Y27558053D01*
X14399646Y27563037D01*
X14455579Y27604909D01*
X14472230Y27635185D01*
X14534486Y27799073D01*
X14541361Y27825850D01*
X14566589Y28005360D01*
X14567784Y28020886D01*
X14568101Y28043589D01*
X14567340Y28059142D01*
X14547134Y28239286D01*
X14541010Y28266243D01*
X14522841Y28318418D01*
X14534486Y28349074D01*
X14541361Y28375850D01*
X14566589Y28555360D01*
X14567784Y28570886D01*
X14568101Y28593589D01*
X14567340Y28609142D01*
X14547134Y28789286D01*
X14541010Y28816243D01*
X14522841Y28868418D01*
X14534486Y28899074D01*
X14541361Y28925850D01*
X14566589Y29105360D01*
X14567784Y29120886D01*
X14568101Y29143589D01*
X14567340Y29159142D01*
X14547134Y29339286D01*
X14541010Y29366243D01*
X14481395Y29537434D01*
X14469452Y29562362D01*
X14460705Y29576361D01*
X14408487Y29622784D01*
X14339461Y29633606D01*
X14275541Y29605392D01*
X14267864Y29598335D01*
X13902529Y29233001D01*
X13869044Y29171678D01*
X13874028Y29101987D01*
X13902529Y29057639D01*
X14234870Y28725299D01*
X14192572Y28683001D01*
X14159088Y28621678D01*
X14164072Y28551986D01*
X14192572Y28507639D01*
X14234870Y28465341D01*
X13902529Y28133001D01*
X13869044Y28071678D01*
X12289186Y28071678D01*
X12287972Y28088653D01*
X12259471Y28133001D01*
X11927130Y28465341D01*
X11969428Y28507639D01*
X12002912Y28568962D01*
X11997928Y28638654D01*
X11969428Y28683001D01*
X11927130Y28725299D01*
X12259471Y29057639D01*
X12292956Y29118962D01*
X12287972Y29188653D01*
X12259471Y29233001D01*
X11893331Y29599140D01*
X11832008Y29632625D01*
X11762316Y29627641D01*
X11706383Y29585769D01*
X11701425Y29578639D01*
X11698460Y29574039D01*
X11686163Y29549269D01*
X11624164Y29378927D01*
X11617664Y29352059D01*
X11594944Y29172215D01*
X11594558Y29144573D01*
X11612247Y28964164D01*
X11617994Y28937124D01*
X11639745Y28871737D01*
X11624164Y28828927D01*
X11617664Y28802059D01*
X11594944Y28622215D01*
X11594558Y28594573D01*
X11612247Y28414164D01*
X11617994Y28387124D01*
X11639745Y28321737D01*
X11624164Y28278927D01*
X11617664Y28252059D01*
X11594944Y28072215D01*
X11594558Y28044573D01*
X878000Y28044573D01*
X878000Y29854275D01*
X12042967Y29854275D01*
X12070735Y29790161D01*
X12078347Y29781822D01*
X12443319Y29416849D01*
X12504642Y29383364D01*
X12574333Y29388348D01*
X12618681Y29416849D01*
X12951021Y29749190D01*
X12993319Y29706892D01*
X13054642Y29673408D01*
X13124334Y29678392D01*
X13168681Y29706892D01*
X13210979Y29749190D01*
X13543319Y29416849D01*
X13604642Y29383364D01*
X13674333Y29388348D01*
X13718681Y29416849D01*
X14084403Y29782572D01*
X14117888Y29843895D01*
X14112904Y29913587D01*
X14071032Y29969520D01*
X14063170Y29974946D01*
X14053893Y29980834D01*
X14029041Y29992956D01*
X13858271Y30053765D01*
X13831357Y30060078D01*
X13651359Y30081541D01*
X13623716Y30081734D01*
X13443435Y30062786D01*
X13416435Y30056850D01*
X13356708Y30036517D01*
X13308271Y30053765D01*
X13281357Y30060078D01*
X13101359Y30081541D01*
X13073716Y30081734D01*
X12893435Y30062786D01*
X12866435Y30056850D01*
X12806708Y30036517D01*
X12758271Y30053765D01*
X12731357Y30060078D01*
X12551359Y30081541D01*
X12523716Y30081734D01*
X12343435Y30062786D01*
X12316435Y30056850D01*
X12144832Y29998432D01*
X12119820Y29986662D01*
X12101055Y29975118D01*
X12054269Y29923225D01*
X12042967Y29854275D01*
X878000Y29854275D01*
X878000Y31849232D01*
X2289001Y31849232D01*
X2289726Y31835843D01*
X2296473Y31773724D01*
X2303639Y31743585D01*
X2354719Y31607330D01*
X2371602Y31576493D01*
X2458870Y31460051D01*
X2483731Y31435190D01*
X2600173Y31347922D01*
X2631010Y31331039D01*
X2767265Y31279959D01*
X2797401Y31272793D01*
X2859519Y31266045D01*
X2872911Y31265320D01*
X3429000Y31265320D01*
X3496039Y31285005D01*
X3541794Y31337809D01*
X3553000Y31389320D01*
X3553000Y31389321D01*
X3813000Y31389321D01*
X3832685Y31322282D01*
X3885489Y31276527D01*
X3937000Y31265321D01*
X4493088Y31265321D01*
X4506477Y31266046D01*
X4568596Y31272793D01*
X4598735Y31279959D01*
X4734990Y31331039D01*
X4765827Y31347922D01*
X4882269Y31435190D01*
X4907130Y31460051D01*
X4953000Y31521256D01*
X4998870Y31460051D01*
X5023731Y31435190D01*
X5140173Y31347922D01*
X5171010Y31331039D01*
X5307265Y31279959D01*
X5337401Y31272793D01*
X5399519Y31266045D01*
X5412911Y31265320D01*
X5969000Y31265320D01*
X6036039Y31285005D01*
X6081794Y31337809D01*
X6093000Y31389320D01*
X6093000Y31389321D01*
X6353000Y31389321D01*
X6372685Y31322282D01*
X6425489Y31276527D01*
X6477000Y31265321D01*
X7033088Y31265321D01*
X7046477Y31266046D01*
X7108596Y31272793D01*
X7138735Y31279959D01*
X7274990Y31331039D01*
X7305827Y31347922D01*
X7422269Y31435190D01*
X7447130Y31460051D01*
X7534398Y31576493D01*
X7551281Y31607330D01*
X7602361Y31743585D01*
X7609527Y31773721D01*
X7616275Y31835839D01*
X7617000Y31849231D01*
X7617000Y32405320D01*
X7597315Y32472359D01*
X7544511Y32518114D01*
X7493000Y32529320D01*
X6477000Y32529320D01*
X6409961Y32509635D01*
X6364206Y32456831D01*
X6353000Y32405320D01*
X6353000Y31389321D01*
X6093000Y31389321D01*
X6093000Y32405320D01*
X6073315Y32472359D01*
X6020511Y32518114D01*
X5969000Y32529320D01*
X3937000Y32529320D01*
X3869961Y32509635D01*
X3824206Y32456831D01*
X3813000Y32405320D01*
X3813000Y31389321D01*
X3553000Y31389321D01*
X3553000Y32405320D01*
X3533315Y32472359D01*
X3480511Y32518114D01*
X3429000Y32529320D01*
X2413001Y32529320D01*
X2345962Y32509635D01*
X2300207Y32456831D01*
X2289001Y32405320D01*
X2289001Y31849232D01*
X878000Y31849232D01*
X878000Y32913320D01*
X2289000Y32913320D01*
X2308685Y32846281D01*
X2361489Y32800526D01*
X2413000Y32789320D01*
X7492999Y32789320D01*
X7560038Y32809005D01*
X7605793Y32861809D01*
X7616999Y32913320D01*
X7616999Y33469408D01*
X7616274Y33482797D01*
X7609527Y33544916D01*
X7602361Y33575055D01*
X7551281Y33711310D01*
X7534398Y33742147D01*
X7447130Y33858589D01*
X7422269Y33883450D01*
X7305827Y33970718D01*
X7274990Y33987601D01*
X7201693Y34015079D01*
X7246504Y34037080D01*
X7279613Y34060783D01*
X7362051Y34143365D01*
X7385696Y34176515D01*
X7436939Y34281347D01*
X7448237Y34317902D01*
X7449877Y34329141D01*
X24556429Y34329141D01*
X24569657Y34127316D01*
X24573207Y34104903D01*
X24622993Y33908869D01*
X24630568Y33887478D01*
X24715246Y33703799D01*
X24726592Y33684147D01*
X24843324Y33518974D01*
X24858062Y33501718D01*
X25002940Y33360585D01*
X25020575Y33346305D01*
X25188746Y33233936D01*
X25208689Y33223108D01*
X25394522Y33143268D01*
X25416103Y33136256D01*
X25613373Y33091618D01*
X25635872Y33088656D01*
X25837974Y33080716D01*
X25860635Y33081903D01*
X26060800Y33110925D01*
X26082866Y33116223D01*
X26274390Y33181237D01*
X26295120Y33190466D01*
X26471590Y33289293D01*
X26490292Y33302147D01*
X26645796Y33431479D01*
X26661841Y33447524D01*
X26791173Y33603028D01*
X26804027Y33621730D01*
X26902854Y33798200D01*
X26912083Y33818930D01*
X26977097Y34010454D01*
X26982395Y34032520D01*
X27011417Y34232685D01*
X27012657Y34247231D01*
X27014172Y34305073D01*
X27013695Y34319666D01*
X26995188Y34521075D01*
X26991052Y34543387D01*
X26936151Y34738052D01*
X26928019Y34759238D01*
X26838563Y34940637D01*
X26826706Y34959985D01*
X26705690Y35122045D01*
X26690506Y35138909D01*
X26541983Y35276202D01*
X26523980Y35290016D01*
X26407301Y35363635D01*
X26468808Y35392317D01*
X26487526Y35403124D01*
X26548111Y35445546D01*
X26591736Y35500123D01*
X26598930Y35569621D01*
X26564669Y35634802D01*
X25872681Y36326791D01*
X25811358Y36360276D01*
X25741667Y36355292D01*
X25697319Y36326791D01*
X25005331Y35634802D01*
X24971846Y35573479D01*
X24976830Y35503787D01*
X25021889Y35445546D01*
X25082474Y35403124D01*
X25101192Y35392317D01*
X25163297Y35363357D01*
X25071971Y35309024D01*
X25053612Y35295686D01*
X24901546Y35162328D01*
X24885925Y35145867D01*
X24760709Y34987030D01*
X24748351Y34968000D01*
X24654176Y34789004D01*
X24645491Y34768038D01*
X24585514Y34574878D01*
X24580797Y34552682D01*
X24557024Y34351826D01*
X24556429Y34329141D01*
X7449877Y34329141D01*
X7458201Y34386202D01*
X7459500Y34404102D01*
X7459500Y35994538D01*
X7458178Y36012598D01*
X7448036Y36081492D01*
X7436666Y36118081D01*
X7385240Y36222824D01*
X7361537Y36255933D01*
X7278955Y36338371D01*
X7245805Y36362016D01*
X7201713Y36383569D01*
X7274990Y36411039D01*
X7305827Y36427922D01*
X7422269Y36515190D01*
X7447130Y36540051D01*
X7482701Y36587513D01*
X24398667Y36587513D01*
X24417852Y36368229D01*
X24421605Y36346943D01*
X24478576Y36134322D01*
X24485969Y36114010D01*
X24578997Y35914513D01*
X24589804Y35895795D01*
X24632226Y35835209D01*
X24686802Y35791584D01*
X24756300Y35784390D01*
X24821482Y35818651D01*
X25513471Y36510639D01*
X25546956Y36571962D01*
X25543186Y36624678D01*
X26023044Y36624678D01*
X26028028Y36554987D01*
X26056529Y36510639D01*
X26748518Y35818651D01*
X26809841Y35785166D01*
X26879533Y35790150D01*
X26937774Y35835209D01*
X26980196Y35895795D01*
X26991003Y35914513D01*
X27084031Y36114010D01*
X27091424Y36134322D01*
X27148395Y36346943D01*
X27152148Y36368229D01*
X27171333Y36587513D01*
X27171333Y36609127D01*
X27152148Y36828411D01*
X27148395Y36849697D01*
X27091424Y37062318D01*
X27084031Y37082630D01*
X26991003Y37282127D01*
X26980196Y37300845D01*
X26937774Y37361431D01*
X26883198Y37405056D01*
X26813700Y37412250D01*
X26748518Y37377989D01*
X26056529Y36686001D01*
X26023044Y36624678D01*
X25543186Y36624678D01*
X25541972Y36641653D01*
X25513471Y36686001D01*
X24821482Y37377989D01*
X24760159Y37411474D01*
X24690467Y37406490D01*
X24632226Y37361431D01*
X24589804Y37300845D01*
X24578997Y37282127D01*
X24485969Y37082630D01*
X24478576Y37062318D01*
X24421605Y36849697D01*
X24417852Y36828411D01*
X24398667Y36609127D01*
X24398667Y36587513D01*
X7482701Y36587513D01*
X7534398Y36656493D01*
X7551281Y36687330D01*
X7602361Y36823585D01*
X7609527Y36853721D01*
X7616275Y36915839D01*
X7617000Y36929231D01*
X7617000Y37485320D01*
X7597315Y37552359D01*
X7544511Y37598114D01*
X7493000Y37609320D01*
X2413001Y37609320D01*
X2345962Y37589635D01*
X2300207Y37536831D01*
X2289001Y37485320D01*
X2289001Y36929232D01*
X2289726Y36915843D01*
X2296473Y36853724D01*
X2303639Y36823585D01*
X2354719Y36687330D01*
X2371602Y36656493D01*
X2458870Y36540051D01*
X2483731Y36515190D01*
X2600173Y36427922D01*
X2631010Y36411039D01*
X2704307Y36383561D01*
X2659496Y36361560D01*
X2626387Y36337857D01*
X2543949Y36255275D01*
X2520304Y36222125D01*
X2469061Y36117293D01*
X2457763Y36080738D01*
X2447799Y36012438D01*
X2446500Y35994538D01*
X2446500Y34404102D01*
X2447822Y34386042D01*
X2457964Y34317148D01*
X2469334Y34280559D01*
X2520760Y34175816D01*
X2544463Y34142707D01*
X2627045Y34060269D01*
X2660195Y34036624D01*
X2704287Y34015071D01*
X2631010Y33987601D01*
X2600173Y33970718D01*
X2483731Y33883450D01*
X2458870Y33858589D01*
X2371602Y33742147D01*
X2354719Y33711310D01*
X2303639Y33575055D01*
X2296473Y33544919D01*
X2289725Y33482801D01*
X2289000Y33469409D01*
X2289000Y32913320D01*
X878000Y32913320D01*
X878000Y37627020D01*
X24971070Y37627020D01*
X25005331Y37561838D01*
X25697319Y36869849D01*
X25758642Y36836364D01*
X25828333Y36841348D01*
X25872681Y36869849D01*
X26564669Y37561838D01*
X26598154Y37623161D01*
X26593170Y37692853D01*
X26548111Y37751094D01*
X26487526Y37793516D01*
X26468808Y37804323D01*
X26269310Y37897351D01*
X26248998Y37904744D01*
X26036377Y37961715D01*
X26015091Y37965468D01*
X25795807Y37984653D01*
X25774193Y37984653D01*
X25554909Y37965468D01*
X25533623Y37961715D01*
X25321002Y37904744D01*
X25300690Y37897351D01*
X25101193Y37804323D01*
X25082475Y37793516D01*
X25021889Y37751094D01*
X24978264Y37696518D01*
X24971070Y37627020D01*
X878000Y37627020D01*
X878000Y37993320D01*
X2289000Y37993320D01*
X2308685Y37926281D01*
X2361489Y37880526D01*
X2413000Y37869320D01*
X3429000Y37869320D01*
X3496039Y37889005D01*
X3541794Y37941809D01*
X3553000Y37993320D01*
X3813000Y37993320D01*
X3832685Y37926281D01*
X3885489Y37880526D01*
X3937000Y37869320D01*
X5969000Y37869320D01*
X6036039Y37889005D01*
X6081794Y37941809D01*
X6093000Y37993320D01*
X6353000Y37993320D01*
X6372685Y37926281D01*
X6425489Y37880526D01*
X6477000Y37869320D01*
X7492999Y37869320D01*
X7560038Y37889005D01*
X7605793Y37941809D01*
X7616999Y37993320D01*
X7616999Y38549408D01*
X7616274Y38562797D01*
X7609527Y38624916D01*
X7602361Y38655055D01*
X7551281Y38791310D01*
X7534398Y38822147D01*
X7447130Y38938589D01*
X7422269Y38963450D01*
X7305827Y39050718D01*
X7274990Y39067601D01*
X7138735Y39118681D01*
X7108599Y39125847D01*
X7046481Y39132595D01*
X7033089Y39133320D01*
X6477000Y39133320D01*
X6409961Y39113635D01*
X6364206Y39060831D01*
X6353000Y39009320D01*
X6353000Y37993320D01*
X6093000Y37993320D01*
X6093000Y39009319D01*
X6073315Y39076358D01*
X6020511Y39122113D01*
X5969000Y39133319D01*
X5412912Y39133319D01*
X5399523Y39132594D01*
X5337404Y39125847D01*
X5307265Y39118681D01*
X5171010Y39067601D01*
X5140173Y39050718D01*
X5023731Y38963450D01*
X4998870Y38938589D01*
X4953000Y38877384D01*
X4907130Y38938589D01*
X4882269Y38963450D01*
X4765827Y39050718D01*
X4734990Y39067601D01*
X4598735Y39118681D01*
X4568599Y39125847D01*
X4506481Y39132595D01*
X4493089Y39133320D01*
X3937000Y39133320D01*
X3869961Y39113635D01*
X3824206Y39060831D01*
X3813000Y39009320D01*
X3813000Y37993320D01*
X3553000Y37993320D01*
X3553000Y39009319D01*
X3533315Y39076358D01*
X3480511Y39122113D01*
X3429000Y39133319D01*
X2872912Y39133319D01*
X2859523Y39132594D01*
X2797404Y39125847D01*
X2767265Y39118681D01*
X2631010Y39067601D01*
X2600173Y39050718D01*
X2483731Y38963450D01*
X2458870Y38938589D01*
X2371602Y38822147D01*
X2354719Y38791310D01*
X2303639Y38655055D01*
X2296473Y38624919D01*
X2289725Y38562801D01*
X2289000Y38549409D01*
X2289000Y37993320D01*
X878000Y37993320D01*
X878000Y42696128D01*
X7310500Y42696128D01*
X7311179Y42683167D01*
X7326005Y42542103D01*
X7331395Y42516746D01*
X7389890Y42336718D01*
X7400434Y42313036D01*
X7495080Y42149104D01*
X7510317Y42128132D01*
X7636979Y41987460D01*
X7656244Y41970114D01*
X7809385Y41858851D01*
X7831834Y41845890D01*
X8004761Y41768897D01*
X8029416Y41760886D01*
X8214573Y41721530D01*
X8240354Y41718820D01*
X8429646Y41718820D01*
X8455427Y41721530D01*
X8640584Y41760886D01*
X8665239Y41768897D01*
X8838166Y41845890D01*
X8860615Y41858851D01*
X9013756Y41970114D01*
X9033021Y41987460D01*
X9159683Y42128132D01*
X9174920Y42149104D01*
X9186303Y42168820D01*
X11293697Y42168820D01*
X11305080Y42149104D01*
X11320317Y42128132D01*
X11446979Y41987460D01*
X11466244Y41970114D01*
X11619385Y41858851D01*
X11641834Y41845890D01*
X11814761Y41768897D01*
X11839416Y41760886D01*
X12024573Y41721530D01*
X12050354Y41718820D01*
X12239646Y41718820D01*
X12265427Y41721530D01*
X12450584Y41760886D01*
X12475239Y41768897D01*
X12648166Y41845890D01*
X12670615Y41858851D01*
X12823756Y41970114D01*
X12843021Y41987460D01*
X12969683Y42128132D01*
X12984920Y42149104D01*
X12996303Y42168820D01*
X15103697Y42168820D01*
X15115080Y42149104D01*
X15130317Y42128132D01*
X15256979Y41987460D01*
X15276244Y41970114D01*
X15429385Y41858851D01*
X15451834Y41845890D01*
X15624761Y41768897D01*
X15649416Y41760886D01*
X15834573Y41721530D01*
X15860354Y41718820D01*
X15937100Y41718820D01*
X15937100Y41304510D01*
X15922094Y41286111D01*
X15830885Y41144582D01*
X15818593Y41119821D01*
X15761005Y40961602D01*
X15754505Y40934732D01*
X15733403Y40767686D01*
X15733017Y40740045D01*
X15749447Y40572475D01*
X15755194Y40545435D01*
X15808341Y40385669D01*
X15819937Y40360574D01*
X15907159Y40216553D01*
X15924026Y40194650D01*
X16040988Y40073533D01*
X16062288Y40055913D01*
X16203177Y39963717D01*
X16227852Y39951252D01*
X16385666Y39892562D01*
X16412490Y39885874D01*
X16579384Y39863606D01*
X16607021Y39863027D01*
X16774702Y39878287D01*
X16801782Y39883846D01*
X16961915Y39935876D01*
X16987091Y39947296D01*
X17131717Y40033511D01*
X17153736Y40050225D01*
X17275667Y40166338D01*
X17293436Y40187514D01*
X17386613Y40327756D01*
X17399250Y40352344D01*
X17459040Y40509744D01*
X17465914Y40536519D01*
X17489348Y40703254D01*
X17490543Y40718783D01*
X17490837Y40739871D01*
X17490076Y40755422D01*
X17471308Y40922746D01*
X17465184Y40949704D01*
X17409811Y41108712D01*
X17397866Y41133642D01*
X17308642Y41276431D01*
X17291471Y41298096D01*
X17286100Y41303505D01*
X17286100Y42171763D01*
X17288701Y42233821D01*
X17285534Y42267330D01*
X17275576Y42309784D01*
X17269659Y42352981D01*
X17260607Y42385399D01*
X17254566Y42399358D01*
X17251092Y42414171D01*
X17239030Y42445593D01*
X17218025Y42483802D01*
X17200707Y42523821D01*
X17183273Y42552608D01*
X17173701Y42564429D01*
X17166368Y42577767D01*
X17151573Y42599053D01*
X17144569Y42607167D01*
X17138384Y42613823D01*
X17113772Y42638435D01*
X17088352Y42669826D01*
X17063817Y42692866D01*
X17048347Y42703860D01*
X16979500Y42772707D01*
X16979500Y42990512D01*
X16978821Y43003473D01*
X16963995Y43144537D01*
X16958605Y43169894D01*
X16900110Y43349922D01*
X16889566Y43373604D01*
X16794920Y43537536D01*
X16779683Y43558508D01*
X16653021Y43699180D01*
X16633756Y43716526D01*
X16480615Y43827789D01*
X16458166Y43840750D01*
X16285239Y43917743D01*
X16260584Y43925754D01*
X16075427Y43965110D01*
X16049646Y43967820D01*
X15860354Y43967820D01*
X15834573Y43965110D01*
X15659754Y43927951D01*
X15688605Y44016746D01*
X15693995Y44042103D01*
X15708821Y44183167D01*
X15709500Y44196128D01*
X15709500Y44333591D01*
X16685933Y44333591D01*
X16705699Y44082443D01*
X16708743Y44063225D01*
X16767553Y43818262D01*
X16773566Y43799756D01*
X16869973Y43567008D01*
X16878807Y43549671D01*
X17010437Y43334871D01*
X17021874Y43319129D01*
X17185486Y43127564D01*
X17199244Y43113806D01*
X17390809Y42950194D01*
X17406551Y42938757D01*
X17621351Y42807127D01*
X17638688Y42798293D01*
X17871436Y42701886D01*
X17889942Y42695873D01*
X18134905Y42637063D01*
X18154123Y42634019D01*
X18405271Y42614253D01*
X18424729Y42614253D01*
X18675877Y42634019D01*
X18695095Y42637063D01*
X18940058Y42695873D01*
X18958564Y42701886D01*
X19191312Y42798293D01*
X19208649Y42807127D01*
X19423449Y42938757D01*
X19439191Y42950194D01*
X19630756Y43113806D01*
X19644514Y43127564D01*
X19808126Y43319129D01*
X19819563Y43334871D01*
X19951193Y43549671D01*
X19960027Y43567008D01*
X20056434Y43799756D01*
X20062447Y43818262D01*
X20121257Y44063225D01*
X20124301Y44082443D01*
X20144067Y44333591D01*
X20144067Y44353049D01*
X20124301Y44604197D01*
X20121257Y44623415D01*
X20062447Y44868378D01*
X20056434Y44886884D01*
X19960027Y45119632D01*
X19951193Y45136969D01*
X19819563Y45351769D01*
X19808126Y45367511D01*
X19644514Y45559076D01*
X19630756Y45572834D01*
X19439191Y45736446D01*
X19423449Y45747883D01*
X19405078Y45759141D01*
X24556429Y45759141D01*
X24569657Y45557316D01*
X24573207Y45534903D01*
X24622993Y45338869D01*
X24630568Y45317478D01*
X24715246Y45133799D01*
X24726592Y45114147D01*
X24843324Y44948974D01*
X24858062Y44931718D01*
X25002940Y44790585D01*
X25020575Y44776305D01*
X25188746Y44663936D01*
X25208689Y44653108D01*
X25394522Y44573268D01*
X25416103Y44566256D01*
X25613373Y44521618D01*
X25635872Y44518656D01*
X25837974Y44510716D01*
X25860635Y44511903D01*
X26060800Y44540925D01*
X26082866Y44546223D01*
X26274390Y44611237D01*
X26295120Y44620466D01*
X26471590Y44719293D01*
X26490292Y44732147D01*
X26645796Y44861479D01*
X26661841Y44877524D01*
X26791173Y45033028D01*
X26804027Y45051730D01*
X26902854Y45228200D01*
X26912083Y45248930D01*
X26977097Y45440454D01*
X26982395Y45462520D01*
X27011417Y45662685D01*
X27012657Y45677231D01*
X27014172Y45735073D01*
X27013695Y45749666D01*
X26995188Y45951075D01*
X26991052Y45973387D01*
X26936151Y46168052D01*
X26928019Y46189238D01*
X26838563Y46370637D01*
X26826706Y46389985D01*
X26705690Y46552045D01*
X26690506Y46568909D01*
X26541983Y46706202D01*
X26523980Y46720016D01*
X26407301Y46793635D01*
X26468808Y46822317D01*
X26487526Y46833124D01*
X26548111Y46875546D01*
X26591736Y46930123D01*
X26598930Y46999621D01*
X26564669Y47064802D01*
X25872681Y47756791D01*
X25811358Y47790276D01*
X25741667Y47785292D01*
X25697319Y47756791D01*
X25005331Y47064802D01*
X24971846Y47003479D01*
X24976830Y46933787D01*
X25021889Y46875546D01*
X25082474Y46833124D01*
X25101192Y46822317D01*
X25163297Y46793357D01*
X25071971Y46739024D01*
X25053612Y46725686D01*
X24901546Y46592328D01*
X24885925Y46575867D01*
X24760709Y46417030D01*
X24748351Y46398000D01*
X24654176Y46219004D01*
X24645491Y46198038D01*
X24585514Y46004878D01*
X24580797Y45982682D01*
X24557024Y45781826D01*
X24556429Y45759141D01*
X19405078Y45759141D01*
X19208649Y45879513D01*
X19191312Y45888347D01*
X18958564Y45984754D01*
X18940058Y45990767D01*
X18695095Y46049577D01*
X18675877Y46052621D01*
X18424729Y46072387D01*
X18405271Y46072387D01*
X18154123Y46052621D01*
X18134905Y46049577D01*
X17889942Y45990767D01*
X17871436Y45984754D01*
X17638688Y45888347D01*
X17621351Y45879513D01*
X17406551Y45747883D01*
X17390809Y45736446D01*
X17199244Y45572834D01*
X17185486Y45559076D01*
X17021874Y45367511D01*
X17010437Y45351769D01*
X16878807Y45136969D01*
X16869973Y45119632D01*
X16773566Y44886884D01*
X16767553Y44868378D01*
X16708743Y44623415D01*
X16705699Y44604197D01*
X16685933Y44353049D01*
X16685933Y44333591D01*
X15709500Y44333591D01*
X15709500Y44490512D01*
X15708821Y44503473D01*
X15693995Y44644537D01*
X15688605Y44669894D01*
X15630110Y44849922D01*
X15619566Y44873604D01*
X15524920Y45037536D01*
X15509683Y45058508D01*
X15383021Y45199180D01*
X15363756Y45216526D01*
X15210615Y45327789D01*
X15188166Y45340750D01*
X15015239Y45417743D01*
X14990584Y45425754D01*
X14805427Y45465110D01*
X14779646Y45467820D01*
X14590354Y45467820D01*
X14564573Y45465110D01*
X14379416Y45425754D01*
X14354761Y45417743D01*
X14181834Y45340750D01*
X14159385Y45327789D01*
X14050000Y45248316D01*
X13940615Y45327789D01*
X13918166Y45340750D01*
X13745239Y45417743D01*
X13720584Y45425754D01*
X13535427Y45465110D01*
X13509646Y45467820D01*
X13320354Y45467820D01*
X13294573Y45465110D01*
X13109416Y45425754D01*
X13084761Y45417743D01*
X12911834Y45340750D01*
X12889385Y45327789D01*
X12736244Y45216526D01*
X12716979Y45199180D01*
X12590317Y45058508D01*
X12575080Y45037536D01*
X12480434Y44873604D01*
X12469890Y44849922D01*
X12411395Y44669894D01*
X12406005Y44644537D01*
X12391179Y44503473D01*
X12390500Y44490512D01*
X12390500Y44196128D01*
X12391179Y44183167D01*
X12406005Y44042103D01*
X12411395Y44016746D01*
X12440246Y43927951D01*
X12265427Y43965110D01*
X12239646Y43967820D01*
X12050354Y43967820D01*
X12024573Y43965110D01*
X11849754Y43927951D01*
X11878605Y44016746D01*
X11883995Y44042103D01*
X11898821Y44183167D01*
X11899500Y44196128D01*
X11899500Y44490512D01*
X11898821Y44503473D01*
X11883995Y44644537D01*
X11878605Y44669894D01*
X11820110Y44849922D01*
X11809566Y44873604D01*
X11714920Y45037536D01*
X11699683Y45058508D01*
X11573021Y45199180D01*
X11553756Y45216526D01*
X11400615Y45327789D01*
X11378166Y45340750D01*
X11205239Y45417743D01*
X11180584Y45425754D01*
X10995427Y45465110D01*
X10969646Y45467820D01*
X10780354Y45467820D01*
X10754573Y45465110D01*
X10569416Y45425754D01*
X10544761Y45417743D01*
X10371834Y45340750D01*
X10349385Y45327789D01*
X10240000Y45248316D01*
X10130615Y45327789D01*
X10108166Y45340750D01*
X9935239Y45417743D01*
X9910584Y45425754D01*
X9725427Y45465110D01*
X9699646Y45467820D01*
X9510354Y45467820D01*
X9484573Y45465110D01*
X9299416Y45425754D01*
X9274761Y45417743D01*
X9101834Y45340750D01*
X9079385Y45327789D01*
X8926244Y45216526D01*
X8906979Y45199180D01*
X8780317Y45058508D01*
X8765080Y45037536D01*
X8670434Y44873604D01*
X8659890Y44849922D01*
X8601395Y44669894D01*
X8596005Y44644537D01*
X8581179Y44503473D01*
X8580500Y44490512D01*
X8580500Y44196128D01*
X8581179Y44183167D01*
X8596005Y44042103D01*
X8601395Y44016746D01*
X8630246Y43927951D01*
X8455427Y43965110D01*
X8429646Y43967820D01*
X8240354Y43967820D01*
X8214573Y43965110D01*
X8029416Y43925754D01*
X8004761Y43917743D01*
X7831834Y43840750D01*
X7809385Y43827789D01*
X7656244Y43716526D01*
X7636979Y43699180D01*
X7510317Y43558508D01*
X7495080Y43537536D01*
X7400434Y43373604D01*
X7389890Y43349922D01*
X7331395Y43169894D01*
X7326005Y43144537D01*
X7311179Y43003473D01*
X7310500Y42990512D01*
X7310500Y42696128D01*
X878000Y42696128D01*
X878000Y45333591D01*
X3855933Y45333591D01*
X3875699Y45082443D01*
X3878743Y45063225D01*
X3937553Y44818262D01*
X3943566Y44799756D01*
X4039973Y44567008D01*
X4048807Y44549671D01*
X4180437Y44334871D01*
X4191874Y44319129D01*
X4355486Y44127564D01*
X4369244Y44113806D01*
X4560809Y43950194D01*
X4576551Y43938757D01*
X4791351Y43807127D01*
X4808688Y43798293D01*
X5041436Y43701886D01*
X5059942Y43695873D01*
X5304905Y43637063D01*
X5324123Y43634019D01*
X5575271Y43614253D01*
X5594729Y43614253D01*
X5845877Y43634019D01*
X5865095Y43637063D01*
X6110058Y43695873D01*
X6128564Y43701886D01*
X6361312Y43798293D01*
X6378649Y43807127D01*
X6593449Y43938757D01*
X6609191Y43950194D01*
X6800756Y44113806D01*
X6814514Y44127564D01*
X6978126Y44319129D01*
X6989563Y44334871D01*
X7121193Y44549671D01*
X7130027Y44567008D01*
X7226434Y44799756D01*
X7232447Y44818262D01*
X7291257Y45063225D01*
X7294301Y45082443D01*
X7314067Y45333591D01*
X7314067Y45353049D01*
X7294301Y45604197D01*
X7291257Y45623415D01*
X7232447Y45868378D01*
X7226434Y45886884D01*
X7130027Y46119632D01*
X7121193Y46136969D01*
X6989563Y46351769D01*
X6978126Y46367511D01*
X6814514Y46559076D01*
X6800756Y46572834D01*
X6609191Y46736446D01*
X6593449Y46747883D01*
X6378649Y46879513D01*
X6361312Y46888347D01*
X6128564Y46984754D01*
X6110058Y46990767D01*
X5865095Y47049577D01*
X5845877Y47052621D01*
X5594729Y47072387D01*
X5575271Y47072387D01*
X5324123Y47052621D01*
X5304905Y47049577D01*
X5059942Y46990767D01*
X5041436Y46984754D01*
X4808688Y46888347D01*
X4791351Y46879513D01*
X4576551Y46747883D01*
X4560809Y46736446D01*
X4369244Y46572834D01*
X4355486Y46559076D01*
X4191874Y46367511D01*
X4180437Y46351769D01*
X4048807Y46136969D01*
X4039973Y46119632D01*
X3943566Y45886884D01*
X3937553Y45868378D01*
X3878743Y45623415D01*
X3875699Y45604197D01*
X3855933Y45353049D01*
X3855933Y45333591D01*
X878000Y45333591D01*
X878000Y48017513D01*
X24398667Y48017513D01*
X24417852Y47798229D01*
X24421605Y47776943D01*
X24478576Y47564322D01*
X24485969Y47544010D01*
X24578997Y47344513D01*
X24589804Y47325795D01*
X24632226Y47265209D01*
X24686802Y47221584D01*
X24756300Y47214390D01*
X24821482Y47248651D01*
X25513471Y47940639D01*
X25546956Y48001962D01*
X25543186Y48054678D01*
X26023044Y48054678D01*
X26028028Y47984987D01*
X26056529Y47940639D01*
X26748518Y47248651D01*
X26809841Y47215166D01*
X26879533Y47220150D01*
X26937774Y47265209D01*
X26980196Y47325795D01*
X26991003Y47344513D01*
X27083564Y47543009D01*
X32795824Y47543009D01*
X32811392Y47260136D01*
X32813588Y47242759D01*
X32868857Y46964903D01*
X32873478Y46948008D01*
X32967346Y46680710D01*
X32974303Y46664635D01*
X33104897Y46413231D01*
X33114049Y46398297D01*
X33278764Y46167801D01*
X33289928Y46154305D01*
X33485476Y45949317D01*
X33498432Y45937529D01*
X33720913Y45762140D01*
X33735399Y45752294D01*
X33980373Y45610002D01*
X33996102Y45602297D01*
X34258680Y45495942D01*
X34275339Y45490529D01*
X34550284Y45422232D01*
X34567538Y45419221D01*
X34809151Y45394466D01*
X34821790Y45393820D01*
X34997170Y45393820D01*
X35005928Y45394130D01*
X35216351Y45409029D01*
X35233691Y45411497D01*
X35510645Y45471123D01*
X35527465Y45476009D01*
X35793255Y45574064D01*
X35809219Y45581272D01*
X36058542Y45715799D01*
X36073331Y45725184D01*
X36301211Y45893499D01*
X36314530Y45904875D01*
X36516420Y46103619D01*
X36528003Y46116757D01*
X36699877Y46341965D01*
X36709494Y46356605D01*
X36847920Y46603784D01*
X36855377Y46619632D01*
X36957595Y46883849D01*
X36962745Y46900590D01*
X37026715Y47176573D01*
X37029456Y47193873D01*
X37053901Y47476117D01*
X37054176Y47493631D01*
X37038608Y47776504D01*
X37036412Y47793881D01*
X36981143Y48071737D01*
X36976522Y48088632D01*
X36882654Y48355930D01*
X36875697Y48372005D01*
X36745103Y48623409D01*
X36735951Y48638343D01*
X36571236Y48868839D01*
X36560072Y48882335D01*
X36364524Y49087323D01*
X36351568Y49099111D01*
X36129087Y49274500D01*
X36114601Y49284346D01*
X35869627Y49426638D01*
X35853898Y49434343D01*
X35591320Y49540698D01*
X35574661Y49546111D01*
X35299716Y49614408D01*
X35282462Y49617419D01*
X35040849Y49642174D01*
X35028210Y49642820D01*
X34852830Y49642820D01*
X34844072Y49642510D01*
X34633649Y49627611D01*
X34616309Y49625143D01*
X34339355Y49565517D01*
X34322535Y49560631D01*
X34056745Y49462576D01*
X34040781Y49455368D01*
X33791458Y49320841D01*
X33776669Y49311456D01*
X33548789Y49143141D01*
X33535470Y49131765D01*
X33333580Y48933021D01*
X33321997Y48919883D01*
X33150123Y48694675D01*
X33140506Y48680035D01*
X33002080Y48432856D01*
X32994623Y48417008D01*
X32892405Y48152791D01*
X32887255Y48136050D01*
X32823285Y47860067D01*
X32820544Y47842767D01*
X32796099Y47560523D01*
X32795824Y47543009D01*
X27083564Y47543009D01*
X27084031Y47544010D01*
X27091424Y47564322D01*
X27148395Y47776943D01*
X27152148Y47798229D01*
X27171333Y48017513D01*
X27171333Y48039127D01*
X27152148Y48258411D01*
X27148395Y48279697D01*
X27091424Y48492318D01*
X27084031Y48512630D01*
X26991003Y48712127D01*
X26980196Y48730845D01*
X26937774Y48791431D01*
X26883198Y48835056D01*
X26813700Y48842250D01*
X26748518Y48807989D01*
X26056529Y48116001D01*
X26023044Y48054678D01*
X25543186Y48054678D01*
X25541972Y48071653D01*
X25513471Y48116001D01*
X24821482Y48807989D01*
X24760159Y48841474D01*
X24690467Y48836490D01*
X24632226Y48791431D01*
X24589804Y48730845D01*
X24578997Y48712127D01*
X24485969Y48512630D01*
X24478576Y48492318D01*
X24421605Y48279697D01*
X24417852Y48258411D01*
X24398667Y48039127D01*
X24398667Y48017513D01*
X878000Y48017513D01*
X878000Y49057020D01*
X24971070Y49057020D01*
X25005331Y48991838D01*
X25697319Y48299849D01*
X25758642Y48266364D01*
X25828333Y48271348D01*
X25872681Y48299849D01*
X26564669Y48991838D01*
X26598154Y49053161D01*
X26593170Y49122853D01*
X26548111Y49181094D01*
X26487526Y49223516D01*
X26468808Y49234323D01*
X26269310Y49327351D01*
X26267615Y49327968D01*
X29866012Y49327968D01*
X29880216Y49081637D01*
X29883044Y49061514D01*
X29937289Y48820810D01*
X29943365Y48801419D01*
X30036194Y48572807D01*
X30045357Y48554669D01*
X30174279Y48344289D01*
X30186280Y48327891D01*
X30347831Y48141391D01*
X30362350Y48127173D01*
X30552192Y47969563D01*
X30568838Y47957908D01*
X30781872Y47833421D01*
X30800198Y47824641D01*
X31030704Y47736620D01*
X31050217Y47730950D01*
X31292004Y47681757D01*
X31312182Y47679351D01*
X31558756Y47670310D01*
X31579056Y47671232D01*
X31823797Y47702584D01*
X31843674Y47706809D01*
X32080007Y47777712D01*
X32098926Y47785127D01*
X32320506Y47893678D01*
X32337961Y47904083D01*
X32538836Y48047366D01*
X32554357Y48060482D01*
X32729133Y48234649D01*
X32742303Y48250124D01*
X32886286Y48450498D01*
X32896752Y48467916D01*
X33006075Y48689115D01*
X33013556Y48708009D01*
X33085284Y48944093D01*
X33089578Y48963955D01*
X33121784Y49208585D01*
X33122808Y49221740D01*
X33124606Y49295290D01*
X33124226Y49308481D01*
X33104008Y49554392D01*
X33100689Y49574439D01*
X33040580Y49813745D01*
X33034031Y49832982D01*
X32935643Y50059258D01*
X32926041Y50077167D01*
X32792018Y50284335D01*
X32779619Y50300434D01*
X32613560Y50482931D01*
X32598698Y50496790D01*
X32405062Y50649714D01*
X32388137Y50660960D01*
X32172125Y50780205D01*
X32153590Y50788535D01*
X31921002Y50870899D01*
X31901356Y50876089D01*
X31658440Y50919359D01*
X31638209Y50921272D01*
X31391487Y50924286D01*
X31371216Y50922868D01*
X31127314Y50885546D01*
X31107546Y50880837D01*
X30873016Y50804181D01*
X30854283Y50796306D01*
X30635422Y50682374D01*
X30618227Y50671546D01*
X30420912Y50523398D01*
X30405716Y50509906D01*
X30235248Y50331521D01*
X30222460Y50315729D01*
X30083415Y50111897D01*
X30073377Y50094228D01*
X29969491Y49870424D01*
X29962475Y49851354D01*
X29896536Y49613587D01*
X29892728Y49593626D01*
X29866508Y49348283D01*
X29866012Y49327968D01*
X26267615Y49327968D01*
X26248998Y49334744D01*
X26036377Y49391715D01*
X26015091Y49395468D01*
X25795807Y49414653D01*
X25774193Y49414653D01*
X25554909Y49395468D01*
X25533623Y49391715D01*
X25321002Y49334744D01*
X25300690Y49327351D01*
X25101193Y49234323D01*
X25082475Y49223516D01*
X25021889Y49181094D01*
X24978264Y49126518D01*
X24971070Y49057020D01*
X878000Y49057020D01*
X878000Y51306445D01*
X11669017Y51306445D01*
X11685447Y51138875D01*
X11691194Y51111835D01*
X11744341Y50952069D01*
X11755937Y50926974D01*
X11843159Y50782953D01*
X11860026Y50761050D01*
X11976988Y50639933D01*
X11998288Y50622313D01*
X12139177Y50530117D01*
X12163852Y50517652D01*
X12321666Y50458962D01*
X12348490Y50452274D01*
X12515384Y50430006D01*
X12543021Y50429427D01*
X12710702Y50444687D01*
X12737782Y50450246D01*
X12897915Y50502276D01*
X12923091Y50513696D01*
X13067717Y50599911D01*
X13089736Y50616625D01*
X13211667Y50732738D01*
X13229436Y50753914D01*
X13322613Y50894156D01*
X13335250Y50918744D01*
X13395040Y51076144D01*
X13401914Y51102919D01*
X13425348Y51269654D01*
X13426543Y51285183D01*
X13426837Y51306271D01*
X13426076Y51321821D01*
X13424829Y51332942D01*
X14882986Y52791100D01*
X15353897Y52791100D01*
X15365280Y52771384D01*
X15380517Y52750412D01*
X15507179Y52609740D01*
X15526444Y52592394D01*
X15679585Y52481131D01*
X15702034Y52468170D01*
X15874961Y52391177D01*
X15899616Y52383166D01*
X16084773Y52343810D01*
X16110554Y52341100D01*
X16299846Y52341100D01*
X16325627Y52343810D01*
X16510784Y52383166D01*
X16535439Y52391177D01*
X16708366Y52468170D01*
X16730815Y52481131D01*
X16883956Y52592394D01*
X16903221Y52609740D01*
X17029883Y52750412D01*
X17045120Y52771384D01*
X17056503Y52791100D01*
X19163897Y52791100D01*
X19175280Y52771384D01*
X19190517Y52750412D01*
X19317179Y52609740D01*
X19336444Y52592394D01*
X19489585Y52481131D01*
X19512034Y52468170D01*
X19684961Y52391177D01*
X19709616Y52383166D01*
X19894773Y52343810D01*
X19920554Y52341100D01*
X20109846Y52341100D01*
X20135627Y52343810D01*
X20320784Y52383166D01*
X20345439Y52391177D01*
X20518366Y52468170D01*
X20540815Y52481131D01*
X20693956Y52592394D01*
X20713221Y52609740D01*
X20839883Y52750412D01*
X20855120Y52771384D01*
X20866503Y52791100D01*
X22973897Y52791100D01*
X22985280Y52771384D01*
X23000517Y52750412D01*
X23127179Y52609740D01*
X23146444Y52592394D01*
X23299585Y52481131D01*
X23322034Y52468170D01*
X23494961Y52391177D01*
X23519616Y52383166D01*
X23704773Y52343810D01*
X23730554Y52341100D01*
X23919846Y52341100D01*
X23945627Y52343810D01*
X24130784Y52383166D01*
X24155439Y52391177D01*
X24328366Y52468170D01*
X24350815Y52481131D01*
X24503956Y52592394D01*
X24523221Y52609740D01*
X24649883Y52750412D01*
X24665120Y52771384D01*
X24759766Y52935316D01*
X24770310Y52958998D01*
X24828805Y53139026D01*
X24834195Y53164383D01*
X24849021Y53305447D01*
X24849700Y53318408D01*
X24849700Y53612792D01*
X24849021Y53625753D01*
X24834195Y53766817D01*
X24828805Y53792174D01*
X24770310Y53972202D01*
X24759766Y53995884D01*
X24665120Y54159816D01*
X24649883Y54180788D01*
X24523221Y54321460D01*
X24503956Y54338806D01*
X24350815Y54450069D01*
X24328366Y54463030D01*
X24155439Y54540023D01*
X24130784Y54548034D01*
X23945627Y54587390D01*
X23919846Y54590100D01*
X23730554Y54590100D01*
X23704773Y54587390D01*
X23529954Y54550231D01*
X23558805Y54639026D01*
X23564195Y54664383D01*
X23579021Y54805447D01*
X23579700Y54818408D01*
X23579700Y54955871D01*
X24556133Y54955871D01*
X24575899Y54704723D01*
X24578943Y54685505D01*
X24637753Y54440542D01*
X24643766Y54422036D01*
X24740173Y54189288D01*
X24749007Y54171951D01*
X24880637Y53957151D01*
X24892074Y53941409D01*
X25055686Y53749844D01*
X25069444Y53736086D01*
X25261009Y53572474D01*
X25276751Y53561037D01*
X25491551Y53429407D01*
X25508888Y53420573D01*
X25741636Y53324166D01*
X25760142Y53318153D01*
X26005105Y53259343D01*
X26024323Y53256299D01*
X26275471Y53236533D01*
X26294929Y53236533D01*
X26546077Y53256299D01*
X26565295Y53259343D01*
X26810258Y53318153D01*
X26828764Y53324166D01*
X27061512Y53420573D01*
X27078849Y53429407D01*
X27293649Y53561037D01*
X27309391Y53572474D01*
X27500956Y53736086D01*
X27514714Y53749844D01*
X27678326Y53941409D01*
X27689763Y53957151D01*
X27821393Y54171951D01*
X27830227Y54189288D01*
X27926634Y54422036D01*
X27932647Y54440542D01*
X27991457Y54685505D01*
X27994501Y54704723D01*
X28014267Y54955871D01*
X28014267Y54975329D01*
X27994501Y55226477D01*
X27991457Y55245695D01*
X27932647Y55490658D01*
X27926634Y55509164D01*
X27830227Y55741912D01*
X27821393Y55759249D01*
X27689763Y55974049D01*
X27678326Y55989791D01*
X27514714Y56181356D01*
X27500956Y56195114D01*
X27309391Y56358726D01*
X27293649Y56370163D01*
X27078849Y56501793D01*
X27061512Y56510627D01*
X26828764Y56607034D01*
X26810258Y56613047D01*
X26565295Y56671857D01*
X26546077Y56674901D01*
X26294929Y56694667D01*
X26275471Y56694667D01*
X26024323Y56674901D01*
X26005105Y56671857D01*
X25760142Y56613047D01*
X25741636Y56607034D01*
X25508888Y56510627D01*
X25491551Y56501793D01*
X25276751Y56370163D01*
X25261009Y56358726D01*
X25069444Y56195114D01*
X25055686Y56181356D01*
X24892074Y55989791D01*
X24880637Y55974049D01*
X24749007Y55759249D01*
X24740173Y55741912D01*
X24643766Y55509164D01*
X24637753Y55490658D01*
X24578943Y55245695D01*
X24575899Y55226477D01*
X24556133Y54975329D01*
X24556133Y54955871D01*
X23579700Y54955871D01*
X23579700Y55112792D01*
X23579021Y55125753D01*
X23564195Y55266817D01*
X23558805Y55292174D01*
X23500310Y55472202D01*
X23489766Y55495884D01*
X23395120Y55659816D01*
X23379883Y55680788D01*
X23253221Y55821460D01*
X23233956Y55838806D01*
X23080815Y55950069D01*
X23058366Y55963030D01*
X22885439Y56040023D01*
X22860784Y56048034D01*
X22675627Y56087390D01*
X22649846Y56090100D01*
X22460554Y56090100D01*
X22434773Y56087390D01*
X22249616Y56048034D01*
X22224961Y56040023D01*
X22052034Y55963030D01*
X22029585Y55950069D01*
X21920200Y55870596D01*
X21810815Y55950069D01*
X21788366Y55963030D01*
X21615439Y56040023D01*
X21590784Y56048034D01*
X21405627Y56087390D01*
X21379846Y56090100D01*
X21190554Y56090100D01*
X21164773Y56087390D01*
X20979616Y56048034D01*
X20954961Y56040023D01*
X20782034Y55963030D01*
X20759585Y55950069D01*
X20606444Y55838806D01*
X20587179Y55821460D01*
X20460517Y55680788D01*
X20445280Y55659816D01*
X20350634Y55495884D01*
X20340090Y55472202D01*
X20281595Y55292174D01*
X20276205Y55266817D01*
X20261379Y55125753D01*
X20260700Y55112792D01*
X20260700Y54818408D01*
X20261379Y54805447D01*
X20276205Y54664383D01*
X20281595Y54639026D01*
X20310446Y54550231D01*
X20135627Y54587390D01*
X20109846Y54590100D01*
X19920554Y54590100D01*
X19894773Y54587390D01*
X19719954Y54550231D01*
X19748805Y54639026D01*
X19754195Y54664383D01*
X19769021Y54805447D01*
X19769700Y54818408D01*
X19769700Y55112792D01*
X19769021Y55125753D01*
X19754195Y55266817D01*
X19748805Y55292174D01*
X19690310Y55472202D01*
X19679766Y55495884D01*
X19585120Y55659816D01*
X19569883Y55680788D01*
X19443221Y55821460D01*
X19423956Y55838806D01*
X19270815Y55950069D01*
X19248366Y55963030D01*
X19075439Y56040023D01*
X19050784Y56048034D01*
X18865627Y56087390D01*
X18839846Y56090100D01*
X18650554Y56090100D01*
X18624773Y56087390D01*
X18439616Y56048034D01*
X18414961Y56040023D01*
X18242034Y55963030D01*
X18219585Y55950069D01*
X18110200Y55870596D01*
X18000815Y55950069D01*
X17978366Y55963030D01*
X17805439Y56040023D01*
X17780784Y56048034D01*
X17595627Y56087390D01*
X17569846Y56090100D01*
X17380554Y56090100D01*
X17354773Y56087390D01*
X17169616Y56048034D01*
X17144961Y56040023D01*
X16972034Y55963030D01*
X16949585Y55950069D01*
X16796444Y55838806D01*
X16777179Y55821460D01*
X16650517Y55680788D01*
X16635280Y55659816D01*
X16540634Y55495884D01*
X16530090Y55472202D01*
X16471595Y55292174D01*
X16466205Y55266817D01*
X16451379Y55125753D01*
X16450700Y55112792D01*
X16450700Y54818408D01*
X16451379Y54805447D01*
X16466205Y54664383D01*
X16471595Y54639026D01*
X16500446Y54550231D01*
X16325627Y54587390D01*
X16299846Y54590100D01*
X16110554Y54590100D01*
X16084773Y54587390D01*
X15899616Y54548034D01*
X15874961Y54540023D01*
X15702034Y54463030D01*
X15679585Y54450069D01*
X15526444Y54338806D01*
X15507179Y54321460D01*
X15380517Y54180788D01*
X15365280Y54159816D01*
X15353897Y54140100D01*
X14618557Y54140100D01*
X14556499Y54142701D01*
X14522990Y54139534D01*
X14480536Y54129576D01*
X14437339Y54123659D01*
X14404921Y54114607D01*
X14390962Y54108566D01*
X14376149Y54105092D01*
X14344727Y54093030D01*
X14306518Y54072025D01*
X14266499Y54054707D01*
X14237712Y54037273D01*
X14225891Y54027701D01*
X14212553Y54020368D01*
X14191267Y54005573D01*
X14183153Y53998569D01*
X14176497Y53992384D01*
X14151885Y53967772D01*
X14120494Y53942352D01*
X14097454Y53917817D01*
X14086460Y53902347D01*
X12347599Y52163485D01*
X12345460Y52163015D01*
X12186070Y52108754D01*
X12161057Y52096984D01*
X12017648Y52008758D01*
X11995864Y51991738D01*
X11875566Y51873933D01*
X11858094Y51852511D01*
X11766885Y51710982D01*
X11754593Y51686221D01*
X11697005Y51528002D01*
X11690505Y51501132D01*
X11669403Y51334086D01*
X11669017Y51306445D01*
X878000Y51306445D01*
X878000Y55955871D01*
X11726133Y55955871D01*
X11745899Y55704723D01*
X11748943Y55685505D01*
X11807753Y55440542D01*
X11813766Y55422036D01*
X11910173Y55189288D01*
X11919007Y55171951D01*
X12050637Y54957151D01*
X12062074Y54941409D01*
X12225686Y54749844D01*
X12239444Y54736086D01*
X12431009Y54572474D01*
X12446751Y54561037D01*
X12661551Y54429407D01*
X12678888Y54420573D01*
X12911636Y54324166D01*
X12930142Y54318153D01*
X13175105Y54259343D01*
X13194323Y54256299D01*
X13445471Y54236533D01*
X13464929Y54236533D01*
X13716077Y54256299D01*
X13735295Y54259343D01*
X13980258Y54318153D01*
X13998764Y54324166D01*
X14231512Y54420573D01*
X14248849Y54429407D01*
X14463649Y54561037D01*
X14479391Y54572474D01*
X14670956Y54736086D01*
X14684714Y54749844D01*
X14848326Y54941409D01*
X14859763Y54957151D01*
X14991393Y55171951D01*
X15000227Y55189288D01*
X15096634Y55422036D01*
X15102647Y55440542D01*
X15161457Y55685505D01*
X15164501Y55704723D01*
X15184267Y55955871D01*
X15184267Y55975329D01*
X15164501Y56226477D01*
X15161457Y56245695D01*
X15102647Y56490658D01*
X15096634Y56509164D01*
X15000227Y56741912D01*
X14991393Y56759249D01*
X14859763Y56974049D01*
X14848326Y56989791D01*
X14684714Y57181356D01*
X14670956Y57195114D01*
X14479391Y57358726D01*
X14463649Y57370163D01*
X14248849Y57501793D01*
X14231512Y57510627D01*
X13998764Y57607034D01*
X13980258Y57613047D01*
X13735295Y57671857D01*
X13716077Y57674901D01*
X13464929Y57694667D01*
X13445471Y57694667D01*
X13194323Y57674901D01*
X13175105Y57671857D01*
X12930142Y57613047D01*
X12911636Y57607034D01*
X12678888Y57510627D01*
X12661551Y57501793D01*
X12446751Y57370163D01*
X12431009Y57358726D01*
X12239444Y57195114D01*
X12225686Y57181356D01*
X12062074Y56989791D01*
X12050637Y56974049D01*
X11919007Y56759249D01*
X11910173Y56741912D01*
X11813766Y56509164D01*
X11807753Y56490658D01*
X11748943Y56245695D01*
X11745899Y56226477D01*
X11726133Y55975329D01*
X11726133Y55955871D01*
X878000Y55955871D01*
X878000Y60082000D01*
X39762000Y60082000D01*
X39762000Y878000D01*
G37*
%TD.AperFunction*%
%TD*%
M02*
