G04 #@! TF.GenerationSoftware,KiCad,Pcbnew,(5.99.0-10394-g2e15de97e0)*
G04 #@! TF.CreationDate,2021-06-23T12:34:00+02:00*
G04 #@! TF.ProjectId,RFIQINT02A,52464951-494e-4543-9032-412e6b696361,REV*
G04 #@! TF.SameCoordinates,Original*
G04 #@! TF.FileFunction,Soldermask,Top*
G04 #@! TF.FilePolarity,Negative*
%FSLAX46Y46*%
G04 Gerber Fmt 4.6, Leading zero omitted, Abs format (unit mm)*
G04 Created by KiCad (PCBNEW (5.99.0-10394-g2e15de97e0)) date 2021-06-23 12:34:00*
%MOMM*%
%LPD*%
G01*
G04 APERTURE LIST*
G04 Aperture macros list*
%AMRoundRect*
0 Rectangle with rounded corners*
0 $1 Rounding radius*
0 $2 $3 $4 $5 $6 $7 $8 $9 X,Y pos of 4 corners*
0 Add a 4 corners polygon primitive as box body*
4,1,4,$2,$3,$4,$5,$6,$7,$8,$9,$2,$3,0*
0 Add four circle primitives for the rounded corners*
1,1,$1+$1,$2,$3*
1,1,$1+$1,$4,$5*
1,1,$1+$1,$6,$7*
1,1,$1+$1,$8,$9*
0 Add four rect primitives between the rounded corners*
20,1,$1+$1,$2,$3,$4,$5,0*
20,1,$1+$1,$4,$5,$6,$7,0*
20,1,$1+$1,$6,$7,$8,$9,0*
20,1,$1+$1,$8,$9,$2,$3,0*%
G04 Aperture macros list end*
%ADD10RoundRect,0.200000X-0.762000X-0.762000X0.762000X-0.762000X0.762000X0.762000X-0.762000X0.762000X0*%
%ADD11O,1.500000X1.700000*%
%ADD12C,2.900000*%
%ADD13C,3.700000*%
%ADD14C,1.700000*%
%ADD15C,1.900000*%
%ADD16C,2.700000*%
%ADD17C,6.400000*%
G04 APERTURE END LIST*
D10*
X3683000Y37739320D03*
X6223000Y37739320D03*
X3683000Y35199320D03*
X6223000Y35199320D03*
X3683000Y32659320D03*
X6223000Y32659320D03*
D11*
X23825200Y53465600D03*
X22555200Y54965600D03*
X21285200Y54965600D03*
X20015200Y53465600D03*
X18745200Y54965600D03*
X17475200Y54965600D03*
X16205200Y53465600D03*
D12*
X13455200Y55965600D03*
X26285200Y54965600D03*
D13*
X34925000Y34818320D03*
X34925000Y47518320D03*
D14*
X32385000Y44718320D03*
X30605000Y43698320D03*
X32385000Y42688320D03*
X30605000Y41668320D03*
X32385000Y40658320D03*
X30605000Y39638320D03*
X32385000Y38628320D03*
X30605000Y37608320D03*
D15*
X25785000Y48028320D03*
X25785000Y45738320D03*
X25785000Y36598320D03*
X25785000Y34308320D03*
D16*
X31495000Y33038320D03*
X31495000Y49298320D03*
D17*
X35560000Y55880000D03*
D13*
X34925000Y13228320D03*
X34925000Y25928320D03*
D14*
X32385000Y23128320D03*
X30605000Y22108320D03*
X32385000Y21098320D03*
X30605000Y20078320D03*
X32385000Y19068320D03*
X30605000Y18048320D03*
X32385000Y17038320D03*
X30605000Y16018320D03*
D15*
X25785000Y26438320D03*
X25785000Y24148320D03*
X25785000Y15008320D03*
X25785000Y12718320D03*
D16*
X31495000Y11448320D03*
X31495000Y27708320D03*
D11*
X15955000Y42843320D03*
X14685000Y44343320D03*
X13415000Y44343320D03*
X12145000Y42843320D03*
X10875000Y44343320D03*
X9605000Y44343320D03*
X8335000Y42843320D03*
D12*
X5585000Y45343320D03*
X18415000Y44343320D03*
D17*
X35560000Y5080000D03*
D11*
X16510000Y6878320D03*
X17780000Y5378320D03*
X19050000Y5378320D03*
X20320000Y6878320D03*
X21590000Y5378320D03*
X22860000Y5378320D03*
X24130000Y6878320D03*
D12*
X26880000Y4378320D03*
X14050000Y5378320D03*
D10*
X3683000Y18943320D03*
X6223000Y18943320D03*
X3683000Y16403320D03*
X6223000Y16403320D03*
X3683000Y13863320D03*
X6223000Y13863320D03*
X3683000Y11323320D03*
X6223000Y11323320D03*
D17*
X5080000Y4973320D03*
X5080000Y55773320D03*
M02*
