%TF.GenerationSoftware,KiCad,Pcbnew,6.0.4-6f826c9f35~116~ubuntu20.04.1*%
%TF.CreationDate,2022-05-13T07:00:53+00:00*%
%TF.ProjectId,RFIQINT02B,52464951-494e-4543-9032-422e6b696361,REV*%
%TF.SameCoordinates,Original*%
%TF.FileFunction,Legend,Top*%
%TF.FilePolarity,Positive*%
%FSLAX46Y46*%
G04 Gerber Fmt 4.6, Leading zero omitted, Abs format (unit mm)*
G04 Created by KiCad (PCBNEW 6.0.4-6f826c9f35~116~ubuntu20.04.1) date 2022-05-13 07:00:53*
%MOMM*%
%LPD*%
G01*
G04 APERTURE LIST*
%ADD10C,0.300000*%
%ADD11C,0.050000*%
%ADD12C,0.150000*%
%ADD13C,0.120000*%
%ADD14R,1.524000X1.524000*%
G04 APERTURE END LIST*
D10*
X18512128Y34801428D02*
X20012128Y34801428D01*
X18940700Y34301428D01*
X20012128Y33801428D01*
X18512128Y33801428D01*
X18512128Y32372857D02*
X18512128Y33087142D01*
X20012128Y33087142D01*
X18940700Y31944285D02*
X18940700Y31230000D01*
X18512128Y32087142D02*
X20012128Y31587142D01*
X18512128Y31087142D01*
X19297842Y30087142D02*
X19226414Y29872857D01*
X19154985Y29801428D01*
X19012128Y29730000D01*
X18797842Y29730000D01*
X18654985Y29801428D01*
X18583557Y29872857D01*
X18512128Y30015714D01*
X18512128Y30587142D01*
X20012128Y30587142D01*
X20012128Y30087142D01*
X19940700Y29944285D01*
X19869271Y29872857D01*
X19726414Y29801428D01*
X19583557Y29801428D01*
X19440700Y29872857D01*
X19369271Y29944285D01*
X19297842Y30087142D01*
X19297842Y30587142D01*
X18654985Y29087142D02*
X18583557Y29015714D01*
X18512128Y29087142D01*
X18583557Y29158571D01*
X18654985Y29087142D01*
X18512128Y29087142D01*
X18654985Y27515714D02*
X18583557Y27587142D01*
X18512128Y27801428D01*
X18512128Y27944285D01*
X18583557Y28158571D01*
X18726414Y28301428D01*
X18869271Y28372857D01*
X19154985Y28444285D01*
X19369271Y28444285D01*
X19654985Y28372857D01*
X19797842Y28301428D01*
X19940700Y28158571D01*
X20012128Y27944285D01*
X20012128Y27801428D01*
X19940700Y27587142D01*
X19869271Y27515714D01*
X20012128Y27015714D02*
X20012128Y26015714D01*
X18512128Y27015714D01*
X18512128Y26015714D01*
X16097128Y35694285D02*
X16811414Y36194285D01*
X16097128Y36551428D02*
X17597128Y36551428D01*
X17597128Y35980000D01*
X17525700Y35837142D01*
X17454271Y35765714D01*
X17311414Y35694285D01*
X17097128Y35694285D01*
X16954271Y35765714D01*
X16882842Y35837142D01*
X16811414Y35980000D01*
X16811414Y36551428D01*
X16882842Y34551428D02*
X16882842Y35051428D01*
X16097128Y35051428D02*
X17597128Y35051428D01*
X17597128Y34337142D01*
X16097128Y33765714D02*
X17597128Y33765714D01*
X15954271Y32051428D02*
X16025700Y32194285D01*
X16168557Y32337142D01*
X16382842Y32551428D01*
X16454271Y32694285D01*
X16454271Y32837142D01*
X16097128Y32765714D02*
X16168557Y32908571D01*
X16311414Y33051428D01*
X16597128Y33122857D01*
X17097128Y33122857D01*
X17382842Y33051428D01*
X17525700Y32908571D01*
X17597128Y32765714D01*
X17597128Y32480000D01*
X17525700Y32337142D01*
X17382842Y32194285D01*
X17097128Y32122857D01*
X16597128Y32122857D01*
X16311414Y32194285D01*
X16168557Y32337142D01*
X16097128Y32480000D01*
X16097128Y32765714D01*
X16097128Y31480000D02*
X17597128Y31480000D01*
X16097128Y30765714D02*
X17597128Y30765714D01*
X16097128Y29908571D01*
X17597128Y29908571D01*
X17597128Y29408571D02*
X17597128Y28551428D01*
X16097128Y28980000D02*
X17597128Y28980000D01*
X17597128Y27765714D02*
X17597128Y27622857D01*
X17525700Y27480000D01*
X17454271Y27408571D01*
X17311414Y27337142D01*
X17025700Y27265714D01*
X16668557Y27265714D01*
X16382842Y27337142D01*
X16239985Y27408571D01*
X16168557Y27480000D01*
X16097128Y27622857D01*
X16097128Y27765714D01*
X16168557Y27908571D01*
X16239985Y27980000D01*
X16382842Y28051428D01*
X16668557Y28122857D01*
X17025700Y28122857D01*
X17311414Y28051428D01*
X17454271Y27980000D01*
X17525700Y27908571D01*
X17597128Y27765714D01*
X17454271Y26694285D02*
X17525700Y26622857D01*
X17597128Y26480000D01*
X17597128Y26122857D01*
X17525700Y25980000D01*
X17454271Y25908571D01*
X17311414Y25837142D01*
X17168557Y25837142D01*
X16954271Y25908571D01*
X16097128Y26765714D01*
X16097128Y25837142D01*
X16882842Y24694285D02*
X16811414Y24480000D01*
X16739985Y24408571D01*
X16597128Y24337142D01*
X16382842Y24337142D01*
X16239985Y24408571D01*
X16168557Y24480000D01*
X16097128Y24622857D01*
X16097128Y25194285D01*
X17597128Y25194285D01*
X17597128Y24694285D01*
X17525700Y24551428D01*
X17454271Y24480000D01*
X17311414Y24408571D01*
X17168557Y24408571D01*
X17025700Y24480000D01*
X16954271Y24551428D01*
X16882842Y24694285D01*
X16882842Y25194285D01*
X22940200Y21326171D02*
X22940200Y20611885D01*
X22511628Y21469028D02*
X24011628Y20969028D01*
X22511628Y20469028D01*
X22511628Y19969028D02*
X24011628Y19969028D01*
X22511628Y19111885D01*
X24011628Y19111885D01*
X24011628Y18611885D02*
X24011628Y17754742D01*
X22511628Y18183314D02*
X24011628Y18183314D01*
X22511628Y16469028D02*
X22511628Y17326171D01*
X22511628Y16897600D02*
X24011628Y16897600D01*
X23797342Y17040457D01*
X23654485Y17183314D01*
X23583057Y17326171D01*
X18018428Y1096200D02*
X18732714Y1096200D01*
X17875571Y667628D02*
X18375571Y2167628D01*
X18875571Y667628D01*
X19375571Y667628D02*
X19375571Y2167628D01*
X20232714Y667628D01*
X20232714Y2167628D01*
X20732714Y2167628D02*
X21589857Y2167628D01*
X21161285Y667628D02*
X21161285Y2167628D01*
X22875571Y667628D02*
X22018428Y667628D01*
X22447000Y667628D02*
X22447000Y2167628D01*
X22304142Y1953342D01*
X22161285Y1810485D01*
X22018428Y1739057D01*
X18465800Y8744828D02*
X18465800Y10244828D01*
X9788828Y58627200D02*
X10503114Y58627200D01*
X9645971Y58198628D02*
X10145971Y59698628D01*
X10645971Y58198628D01*
X11145971Y58198628D02*
X11145971Y59698628D01*
X12003114Y58198628D01*
X12003114Y59698628D01*
X12503114Y59698628D02*
X13360257Y59698628D01*
X12931685Y58198628D02*
X12931685Y59698628D01*
X13788828Y59555771D02*
X13860257Y59627200D01*
X14003114Y59698628D01*
X14360257Y59698628D01*
X14503114Y59627200D01*
X14574542Y59555771D01*
X14645971Y59412914D01*
X14645971Y59270057D01*
X14574542Y59055771D01*
X13717400Y58198628D01*
X14645971Y58198628D01*
X22402800Y50146828D02*
X22402800Y51646828D01*
X11323928Y20311891D02*
X12823928Y20311891D01*
X12823928Y19740462D01*
X12752500Y19597605D01*
X12681071Y19526177D01*
X12538214Y19454748D01*
X12323928Y19454748D01*
X12181071Y19526177D01*
X12109642Y19597605D01*
X12038214Y19740462D01*
X12038214Y20311891D01*
X12823928Y18526177D02*
X12823928Y18240462D01*
X12752500Y18097605D01*
X12609642Y17954748D01*
X12323928Y17883320D01*
X11823928Y17883320D01*
X11538214Y17954748D01*
X11395357Y18097605D01*
X11323928Y18240462D01*
X11323928Y18526177D01*
X11395357Y18669034D01*
X11538214Y18811891D01*
X11823928Y18883320D01*
X12323928Y18883320D01*
X12609642Y18811891D01*
X12752500Y18669034D01*
X12823928Y18526177D01*
X12823928Y17383320D02*
X11323928Y17026177D01*
X12395357Y16740462D01*
X11323928Y16454748D01*
X12823928Y16097605D01*
X12109642Y15526177D02*
X12109642Y15026177D01*
X11323928Y14811891D02*
X11323928Y15526177D01*
X12823928Y15526177D01*
X12823928Y14811891D01*
X11323928Y13311891D02*
X12038214Y13811891D01*
X11323928Y14169034D02*
X12823928Y14169034D01*
X12823928Y13597605D01*
X12752500Y13454748D01*
X12681071Y13383320D01*
X12538214Y13311891D01*
X12323928Y13311891D01*
X12181071Y13383320D01*
X12109642Y13454748D01*
X12038214Y13597605D01*
X12038214Y14169034D01*
X11323928Y11526177D02*
X12823928Y11526177D01*
X11323928Y10811891D02*
X12823928Y10811891D01*
X11323928Y9954748D01*
X12823928Y9954748D01*
X9337500Y16847605D02*
X9337500Y16133320D01*
X8908928Y16990462D02*
X10408928Y16490462D01*
X8908928Y15990462D01*
X8908928Y15490462D02*
X10408928Y15490462D01*
X8908928Y14633320D01*
X10408928Y14633320D01*
X10408928Y14133320D02*
X10408928Y13276177D01*
X8908928Y13704748D02*
X10408928Y13704748D01*
X18732428Y50054771D02*
X18589571Y50126200D01*
X18446714Y50269057D01*
X18232428Y50483342D01*
X18089571Y50554771D01*
X17946714Y50554771D01*
X18018142Y50197628D02*
X17875285Y50269057D01*
X17732428Y50411914D01*
X17661000Y50697628D01*
X17661000Y51197628D01*
X17732428Y51483342D01*
X17875285Y51626200D01*
X18018142Y51697628D01*
X18303857Y51697628D01*
X18446714Y51626200D01*
X18589571Y51483342D01*
X18661000Y51197628D01*
X18661000Y50697628D01*
X18589571Y50411914D01*
X18446714Y50269057D01*
X18303857Y50197628D01*
X18018142Y50197628D01*
X22610000Y43596891D02*
X22610000Y42882605D01*
X22181428Y43739748D02*
X23681428Y43239748D01*
X22181428Y42739748D01*
X22181428Y42239748D02*
X23681428Y42239748D01*
X22181428Y41382605D01*
X23681428Y41382605D01*
X23681428Y40882605D02*
X23681428Y40025462D01*
X22181428Y40454034D02*
X23681428Y40454034D01*
X23538571Y39596891D02*
X23610000Y39525462D01*
X23681428Y39382605D01*
X23681428Y39025462D01*
X23610000Y38882605D01*
X23538571Y38811177D01*
X23395714Y38739748D01*
X23252857Y38739748D01*
X23038571Y38811177D01*
X22181428Y39668320D01*
X22181428Y38739748D01*
X11323928Y40631891D02*
X12823928Y40631891D01*
X12823928Y40060462D01*
X12752500Y39917605D01*
X12681071Y39846177D01*
X12538214Y39774748D01*
X12323928Y39774748D01*
X12181071Y39846177D01*
X12109642Y39917605D01*
X12038214Y40060462D01*
X12038214Y40631891D01*
X12823928Y38846177D02*
X12823928Y38560462D01*
X12752500Y38417605D01*
X12609642Y38274748D01*
X12323928Y38203320D01*
X11823928Y38203320D01*
X11538214Y38274748D01*
X11395357Y38417605D01*
X11323928Y38560462D01*
X11323928Y38846177D01*
X11395357Y38989034D01*
X11538214Y39131891D01*
X11823928Y39203320D01*
X12323928Y39203320D01*
X12609642Y39131891D01*
X12752500Y38989034D01*
X12823928Y38846177D01*
X12823928Y37703320D02*
X11323928Y37346177D01*
X12395357Y37060462D01*
X11323928Y36774748D01*
X12823928Y36417605D01*
X12109642Y35846177D02*
X12109642Y35346177D01*
X11323928Y35131891D02*
X11323928Y35846177D01*
X12823928Y35846177D01*
X12823928Y35131891D01*
X11323928Y33631891D02*
X12038214Y34131891D01*
X11323928Y34489034D02*
X12823928Y34489034D01*
X12823928Y33917605D01*
X12752500Y33774748D01*
X12681071Y33703320D01*
X12538214Y33631891D01*
X12323928Y33631891D01*
X12181071Y33703320D01*
X12109642Y33774748D01*
X12038214Y33917605D01*
X12038214Y34489034D01*
X11323928Y31846177D02*
X12823928Y31846177D01*
X11323928Y31131891D02*
X12823928Y31131891D01*
X11323928Y30274748D01*
X12823928Y30274748D01*
X10408928Y37310462D02*
X10408928Y36381891D01*
X9837500Y36881891D01*
X9837500Y36667605D01*
X9766071Y36524748D01*
X9694642Y36453320D01*
X9551785Y36381891D01*
X9194642Y36381891D01*
X9051785Y36453320D01*
X8980357Y36524748D01*
X8908928Y36667605D01*
X8908928Y37096177D01*
X8980357Y37239034D01*
X9051785Y37310462D01*
X10408928Y35953320D02*
X8908928Y35453320D01*
X10408928Y34953320D01*
X10408928Y34596177D02*
X10408928Y33667605D01*
X9837500Y34167605D01*
X9837500Y33953320D01*
X9766071Y33810462D01*
X9694642Y33739034D01*
X9551785Y33667605D01*
X9194642Y33667605D01*
X9051785Y33739034D01*
X8980357Y33810462D01*
X8908928Y33953320D01*
X8908928Y34381891D01*
X8980357Y34524748D01*
X9051785Y34596177D01*
X11159657Y47749685D02*
X11088228Y47678257D01*
X10873942Y47606828D01*
X10731085Y47606828D01*
X10516800Y47678257D01*
X10373942Y47821114D01*
X10302514Y47963971D01*
X10231085Y48249685D01*
X10231085Y48463971D01*
X10302514Y48749685D01*
X10373942Y48892542D01*
X10516800Y49035400D01*
X10731085Y49106828D01*
X10873942Y49106828D01*
X11088228Y49035400D01*
X11159657Y48963971D01*
X12516800Y47606828D02*
X11802514Y47606828D01*
X11802514Y49106828D01*
X13016800Y47606828D02*
X13016800Y49106828D01*
X13873942Y47606828D02*
X13231085Y48463971D01*
X13873942Y49106828D02*
X13016800Y48249685D01*
X15659657Y47606828D02*
X15659657Y49106828D01*
X16373942Y47606828D02*
X16373942Y49106828D01*
X17231085Y47606828D01*
X17231085Y49106828D01*
X22872628Y8551171D02*
X22729771Y8622600D01*
X22586914Y8765457D01*
X22372628Y8979742D01*
X22229771Y9051171D01*
X22086914Y9051171D01*
X22158342Y8694028D02*
X22015485Y8765457D01*
X21872628Y8908314D01*
X21801200Y9194028D01*
X21801200Y9694028D01*
X21872628Y9979742D01*
X22015485Y10122600D01*
X22158342Y10194028D01*
X22444057Y10194028D01*
X22586914Y10122600D01*
X22729771Y9979742D01*
X22801200Y9694028D01*
X22801200Y9194028D01*
X22729771Y8908314D01*
X22586914Y8765457D01*
X22444057Y8694028D01*
X22158342Y8694028D01*
D11*
%TO.C,J6*%
X2174857Y37513129D02*
X1889142Y37513129D01*
X2032000Y37513129D02*
X2032000Y38013129D01*
X1984380Y37941700D01*
X1936761Y37894081D01*
X1889142Y37870272D01*
D12*
%TO.C,J4*%
X26031866Y58966219D02*
X26031866Y58251933D01*
X25984247Y58109076D01*
X25889009Y58013838D01*
X25746152Y57966219D01*
X25650914Y57966219D01*
X26936628Y58632885D02*
X26936628Y57966219D01*
X26698533Y59013838D02*
X26460438Y58299552D01*
X27079485Y58299552D01*
%TO.C,J5*%
X38568380Y50644466D02*
X39282666Y50644466D01*
X39425523Y50596847D01*
X39520761Y50501609D01*
X39568380Y50358752D01*
X39568380Y50263514D01*
X38568380Y51596847D02*
X38568380Y51120657D01*
X39044571Y51073038D01*
X38996952Y51120657D01*
X38949333Y51215895D01*
X38949333Y51453990D01*
X38996952Y51549228D01*
X39044571Y51596847D01*
X39139809Y51644466D01*
X39377904Y51644466D01*
X39473142Y51596847D01*
X39520761Y51549228D01*
X39568380Y51453990D01*
X39568380Y51215895D01*
X39520761Y51120657D01*
X39473142Y51073038D01*
%TO.C,J2*%
X38669980Y9344066D02*
X39384266Y9344066D01*
X39527123Y9296447D01*
X39622361Y9201209D01*
X39669980Y9058352D01*
X39669980Y8963114D01*
X38765219Y9772638D02*
X38717600Y9820257D01*
X38669980Y9915495D01*
X38669980Y10153590D01*
X38717600Y10248828D01*
X38765219Y10296447D01*
X38860457Y10344066D01*
X38955695Y10344066D01*
X39098552Y10296447D01*
X39669980Y9725019D01*
X39669980Y10344066D01*
%TO.C,J3*%
X4314866Y48655219D02*
X4314866Y47940933D01*
X4267247Y47798076D01*
X4172009Y47702838D01*
X4029152Y47655219D01*
X3933914Y47655219D01*
X4695819Y48655219D02*
X5314866Y48655219D01*
X4981533Y48274266D01*
X5124390Y48274266D01*
X5219628Y48226647D01*
X5267247Y48179028D01*
X5314866Y48083790D01*
X5314866Y47845695D01*
X5267247Y47750457D01*
X5219628Y47702838D01*
X5124390Y47655219D01*
X4838676Y47655219D01*
X4743438Y47702838D01*
X4695819Y47750457D01*
%TO.C,J1*%
X29714866Y8497819D02*
X29714866Y7783533D01*
X29667247Y7640676D01*
X29572009Y7545438D01*
X29429152Y7497819D01*
X29333914Y7497819D01*
X30714866Y7497819D02*
X30143438Y7497819D01*
X30429152Y7497819D02*
X30429152Y8497819D01*
X30333914Y8354961D01*
X30238676Y8259723D01*
X30143438Y8212104D01*
D11*
%TO.C,J7*%
X2174857Y18717129D02*
X1889142Y18717129D01*
X2032000Y18717129D02*
X2032000Y19217129D01*
X1984380Y19145700D01*
X1936761Y19098081D01*
X1889142Y19074272D01*
D12*
%TO.C,J6*%
X2413000Y31389320D02*
X2413000Y39009320D01*
X2413000Y39009320D02*
X7493000Y39009320D01*
X7493000Y39009320D02*
X7493000Y31389320D01*
X7493000Y31389320D02*
X2413000Y31389320D01*
D13*
%TO.C,J4*%
X28315200Y57465600D02*
X28315200Y52465600D01*
X11715200Y57465600D02*
X28315200Y57465600D01*
X11715200Y52465600D02*
X11715200Y57465600D01*
X28315200Y52465600D02*
X11715200Y52465600D01*
D12*
%TO.C,J5*%
X40385000Y33038320D02*
X40385000Y49548320D01*
X24655000Y33038320D02*
X40385000Y33038320D01*
X24635000Y49548320D02*
X24635000Y33038320D01*
X40385000Y49548320D02*
X24635000Y49548320D01*
%TO.C,J2*%
X24635000Y27958320D02*
X24635000Y11448320D01*
X40385000Y11448320D02*
X40385000Y27958320D01*
X24655000Y11448320D02*
X40385000Y11448320D01*
X40385000Y27958320D02*
X24635000Y27958320D01*
D13*
%TO.C,J3*%
X3845000Y41843320D02*
X3845000Y46843320D01*
X3845000Y46843320D02*
X20445000Y46843320D01*
X20445000Y46843320D02*
X20445000Y41843320D01*
X20445000Y41843320D02*
X3845000Y41843320D01*
%TO.C,J1*%
X12020000Y7878320D02*
X28620000Y7878320D01*
X12020000Y2878320D02*
X12020000Y7878320D01*
X28620000Y2878320D02*
X12020000Y2878320D01*
X28620000Y7878320D02*
X28620000Y2878320D01*
D12*
%TO.C,J7*%
X7493000Y10053320D02*
X2413000Y10053320D01*
X7493000Y20213320D02*
X7493000Y10053320D01*
X2413000Y20213320D02*
X7493000Y20213320D01*
X2413000Y10053320D02*
X2413000Y20213320D01*
%TD*%
D14*
%TO.C,J7*%
X3683000Y18943320D03*
X6223000Y18943320D03*
X3683000Y16403320D03*
X6223000Y16403320D03*
X3683000Y13863320D03*
X6223000Y13863320D03*
X3683000Y11323320D03*
X6223000Y11323320D03*
%TD*%
M02*
