%TF.GenerationSoftware,KiCad,Pcbnew,6.0.4-6f826c9f35~116~ubuntu20.04.1*%
%TF.CreationDate,2022-05-13T07:00:53+00:00*%
%TF.ProjectId,RFIQINT02B,52464951-494e-4543-9032-422e6b696361,REV*%
%TF.SameCoordinates,Original*%
%TF.FileFunction,Soldermask,Bot*%
%TF.FilePolarity,Negative*%
%FSLAX46Y46*%
G04 Gerber Fmt 4.6, Leading zero omitted, Abs format (unit mm)*
G04 Created by KiCad (PCBNEW 6.0.4-6f826c9f35~116~ubuntu20.04.1) date 2022-05-13 07:00:53*
%MOMM*%
%LPD*%
G01*
G04 APERTURE LIST*
G04 Aperture macros list*
%AMRoundRect*
0 Rectangle with rounded corners*
0 $1 Rounding radius*
0 $2 $3 $4 $5 $6 $7 $8 $9 X,Y pos of 4 corners*
0 Add a 4 corners polygon primitive as box body*
4,1,4,$2,$3,$4,$5,$6,$7,$8,$9,$2,$3,0*
0 Add four circle primitives for the rounded corners*
1,1,$1+$1,$2,$3*
1,1,$1+$1,$4,$5*
1,1,$1+$1,$6,$7*
1,1,$1+$1,$8,$9*
0 Add four rect primitives between the rounded corners*
20,1,$1+$1,$2,$3,$4,$5,0*
20,1,$1+$1,$4,$5,$6,$7,0*
20,1,$1+$1,$6,$7,$8,$9,0*
20,1,$1+$1,$8,$9,$2,$3,0*%
G04 Aperture macros list end*
%ADD10RoundRect,0.200000X-0.762000X-0.762000X0.762000X-0.762000X0.762000X0.762000X-0.762000X0.762000X0*%
%ADD11O,1.500000X1.700000*%
%ADD12C,2.900000*%
%ADD13C,3.700000*%
%ADD14C,1.700000*%
%ADD15C,1.900000*%
%ADD16C,2.700000*%
%ADD17C,6.400000*%
%ADD18RoundRect,0.450000X-0.262500X-0.450000X0.262500X-0.450000X0.262500X0.450000X-0.262500X0.450000X0*%
%ADD19RoundRect,0.200000X0.900000X-1.250000X0.900000X1.250000X-0.900000X1.250000X-0.900000X-1.250000X0*%
%ADD20RoundRect,0.449999X-1.500001X1.025001X-1.500001X-1.025001X1.500001X-1.025001X1.500001X1.025001X0*%
%ADD21RoundRect,0.450000X-0.450000X0.262500X-0.450000X-0.262500X0.450000X-0.262500X0.450000X0.262500X0*%
%ADD22RoundRect,0.450000X0.475000X-0.250000X0.475000X0.250000X-0.475000X0.250000X-0.475000X-0.250000X0*%
%ADD23RoundRect,0.450000X0.262500X0.450000X-0.262500X0.450000X-0.262500X-0.450000X0.262500X-0.450000X0*%
%ADD24RoundRect,0.450000X0.450000X-0.262500X0.450000X0.262500X-0.450000X0.262500X-0.450000X-0.262500X0*%
%ADD25RoundRect,0.450000X0.250000X0.475000X-0.250000X0.475000X-0.250000X-0.475000X0.250000X-0.475000X0*%
%ADD26RoundRect,0.262500X-0.337500X-0.062500X0.337500X-0.062500X0.337500X0.062500X-0.337500X0.062500X0*%
%ADD27RoundRect,0.262500X-0.062500X-0.337500X0.062500X-0.337500X0.062500X0.337500X-0.062500X0.337500X0*%
%ADD28RoundRect,0.450000X-0.600000X-0.600000X0.600000X-0.600000X0.600000X0.600000X-0.600000X0.600000X0*%
%ADD29RoundRect,0.200000X-0.900000X1.250000X-0.900000X-1.250000X0.900000X-1.250000X0.900000X1.250000X0*%
G04 APERTURE END LIST*
D10*
%TO.C,J6*%
X3683000Y37739320D03*
X6223000Y37739320D03*
X3683000Y35199320D03*
X6223000Y35199320D03*
X3683000Y32659320D03*
X6223000Y32659320D03*
%TD*%
D11*
%TO.C,J4*%
X23825200Y53465600D03*
X22555200Y54965600D03*
X21285200Y54965600D03*
X20015200Y53465600D03*
X18745200Y54965600D03*
X17475200Y54965600D03*
X16205200Y53465600D03*
D12*
X13455200Y55965600D03*
X26285200Y54965600D03*
%TD*%
D13*
%TO.C,J5*%
X34925000Y47518320D03*
X34925000Y34818320D03*
D14*
X32385000Y44718320D03*
X30605000Y43698320D03*
X32385000Y42688320D03*
X30605000Y41668320D03*
X32385000Y40658320D03*
X30605000Y39638320D03*
X32385000Y38628320D03*
X30605000Y37608320D03*
D15*
X25785000Y48028320D03*
X25785000Y45738320D03*
X25785000Y36598320D03*
X25785000Y34308320D03*
D16*
X31495000Y33038320D03*
X31495000Y49298320D03*
%TD*%
D17*
%TO.C,M3*%
X35560000Y55880000D03*
%TD*%
D13*
%TO.C,J2*%
X34925000Y25928320D03*
X34925000Y13228320D03*
D14*
X32385000Y23128320D03*
X30605000Y22108320D03*
X32385000Y21098320D03*
X30605000Y20078320D03*
X32385000Y19068320D03*
X30605000Y18048320D03*
X32385000Y17038320D03*
X30605000Y16018320D03*
D15*
X25785000Y26438320D03*
X25785000Y24148320D03*
X25785000Y15008320D03*
X25785000Y12718320D03*
D16*
X31495000Y11448320D03*
X31495000Y27708320D03*
%TD*%
D11*
%TO.C,J3*%
X15955000Y42843320D03*
X14685000Y44343320D03*
X13415000Y44343320D03*
X12145000Y42843320D03*
X10875000Y44343320D03*
X9605000Y44343320D03*
X8335000Y42843320D03*
D12*
X5585000Y45343320D03*
X18415000Y44343320D03*
%TD*%
D17*
%TO.C,M1*%
X35560000Y5080000D03*
%TD*%
D11*
%TO.C,J1*%
X16510000Y6878320D03*
X17780000Y5378320D03*
X19050000Y5378320D03*
X20320000Y6878320D03*
X21590000Y5378320D03*
X22860000Y5378320D03*
X24130000Y6878320D03*
D12*
X26880000Y4378320D03*
X14050000Y5378320D03*
%TD*%
D10*
%TO.C,J7*%
X3683000Y18943320D03*
X6223000Y18943320D03*
X3683000Y16403320D03*
X6223000Y16403320D03*
X3683000Y13863320D03*
X6223000Y13863320D03*
X3683000Y11323320D03*
X6223000Y11323320D03*
%TD*%
D18*
%TO.C,C6*%
X20804500Y30835600D03*
X22629500Y30835600D03*
%TD*%
D19*
%TO.C,D2*%
X10160000Y20213320D03*
X10160000Y24213320D03*
%TD*%
D20*
%TO.C,C14*%
X10287000Y16496080D03*
X10287000Y10946080D03*
%TD*%
D21*
%TO.C,C7*%
X30378400Y9065900D03*
X30378400Y7240900D03*
%TD*%
D22*
%TO.C,C13*%
X10236200Y36845200D03*
X10236200Y38745200D03*
%TD*%
D21*
%TO.C,R2*%
X23418800Y14793600D03*
X23418800Y12968600D03*
%TD*%
D23*
%TO.C,R1*%
X14984100Y20142200D03*
X13159100Y20142200D03*
%TD*%
D18*
%TO.C,C1*%
X26976700Y19939000D03*
X28801700Y19939000D03*
%TD*%
D21*
%TO.C,R9*%
X27762200Y45362500D03*
X27762200Y43537500D03*
%TD*%
D18*
%TO.C,C11*%
X27027500Y41656000D03*
X28852500Y41656000D03*
%TD*%
D21*
%TO.C,R10*%
X23342600Y37412300D03*
X23342600Y35587300D03*
%TD*%
D24*
%TO.C,C12*%
X29705300Y51005100D03*
X29705300Y52830100D03*
%TD*%
D21*
%TO.C,C5*%
X12623800Y37496120D03*
X12623800Y35671120D03*
%TD*%
D18*
%TO.C,R4*%
X12701900Y33896300D03*
X14526900Y33896300D03*
%TD*%
D24*
%TO.C,R7*%
X18923000Y25427300D03*
X18923000Y27252300D03*
%TD*%
D21*
%TO.C,R3*%
X28473400Y9065900D03*
X28473400Y7240900D03*
%TD*%
D18*
%TO.C,C4*%
X20791800Y32862520D03*
X22616800Y32862520D03*
%TD*%
D24*
%TO.C,R5*%
X18948400Y32691700D03*
X18948400Y34516700D03*
%TD*%
D21*
%TO.C,C16*%
X13868400Y51204500D03*
X13868400Y49379500D03*
%TD*%
D18*
%TO.C,L1*%
X8460100Y35128200D03*
X10285100Y35128200D03*
%TD*%
D21*
%TO.C,R13*%
X11277600Y51204500D03*
X11277600Y49379500D03*
%TD*%
D24*
%TO.C,C17*%
X15646400Y10771500D03*
X15646400Y12596500D03*
%TD*%
D17*
%TO.C,M2*%
X5080000Y4973320D03*
%TD*%
D21*
%TO.C,C10*%
X14528800Y37475800D03*
X14528800Y35650800D03*
%TD*%
D25*
%TO.C,C2*%
X10348000Y33070800D03*
X8448000Y33070800D03*
%TD*%
D26*
%TO.C,U1*%
X11631000Y27845320D03*
X11631000Y28345320D03*
X11631000Y28845320D03*
X11631000Y29345320D03*
D27*
X12331000Y30045320D03*
X12831000Y30045320D03*
X13331000Y30045320D03*
X13831000Y30045320D03*
D26*
X14531000Y29345320D03*
X14531000Y28845320D03*
X14531000Y28345320D03*
X14531000Y27845320D03*
D27*
X13831000Y27145320D03*
X13331000Y27145320D03*
X12831000Y27145320D03*
X12331000Y27145320D03*
D28*
X13081000Y28595320D03*
%TD*%
D18*
%TO.C,C9*%
X20779100Y23571200D03*
X22604100Y23571200D03*
%TD*%
%TO.C,C8*%
X20779100Y25628600D03*
X22604100Y25628600D03*
%TD*%
D24*
%TO.C,R11*%
X27774900Y50992400D03*
X27774900Y52817400D03*
%TD*%
D21*
%TO.C,R8*%
X18897600Y23823300D03*
X18897600Y21998300D03*
%TD*%
%TO.C,C3*%
X9296400Y31113100D03*
X9296400Y29288100D03*
%TD*%
%TO.C,C15*%
X18034000Y40587300D03*
X18034000Y38762300D03*
%TD*%
D24*
%TO.C,R14*%
X13614400Y10771500D03*
X13614400Y12596500D03*
%TD*%
D21*
%TO.C,R6*%
X18948400Y31113100D03*
X18948400Y29288100D03*
%TD*%
%TO.C,R12*%
X20370800Y40587300D03*
X20370800Y38762300D03*
%TD*%
D17*
%TO.C,M4*%
X5080000Y55880000D03*
%TD*%
D29*
%TO.C,D1*%
X5080000Y28563320D03*
X5080000Y24563320D03*
%TD*%
M02*
