  0
SECTION
  2
HEADER
  9
$ANGBASE
  50
0.0
  9
$ANGDIR
  70
1
  9
$MEASUREMENT
  70
0
  0
ENDSEC
  0
SECTION
  2
TABLES
  0
TABLE
  2
LTYPE
  70
4
  0
LTYPE
  5
40F
  2
CONTINUOUS
  70
0
  3
Solid line
  72
65
  73
0
  40
0.0
  0
LTYPE
  5
410
  2
DASHDOT
 70
0
  3
Dash Dot ____ _ ____ _
 72
65
 73
4
 40
2.0
 49
1.25
 49
-0.25
 49
0.25
 49
-0.25
  0
LTYPE
  5
411
  2
DASHED
 70
0
  3
Dashed __ __ __ __ __
 72
65
 73
2
 40
0.75
 49
0.5
 49
-0.25
  0
LTYPE
  5
43B
  2
DOTTED
 70
0
  3
Dotted .  .  .  .
 72
65
 73
2
 40
0.2
 49
0.0
 49
-0.2
  0
ENDTAB
  0
TABLE
  2
STYLE
  70
4
  0
STYLE
  2
KICAD
  70
0
  40
0
  41
1
  42
1
  50
0
  71
0
  3
isocp.shx
  0
STYLE
  2
KICADB
  70
0
  40
0
  41
1
  42
1
  50
0
  71
0
  3
isocp.shx
  0
STYLE
  2
KICADI
  70
0
  40
0
  41
1
  42
1
  50
15
  71
0
  3
isocp.shx
  0
STYLE
  2
KICADBI
  70
0
  40
0
  41
1
  42
1
  50
15
  71
0
  3
isocp.shx
  0
ENDTAB
  0
TABLE
  2
LAYER
  70
1
  0
LAYER
  2
BLACK
  70
0
  62
7
  6
CONTINUOUS
  0
ENDTAB
  0
ENDSEC
  0
SECTION
  2
ENTITIES
0
LINE
8
BLACK
6
CONTINUOUS
10
1.14248
20
0.304503
11
1.14568
21
0.302369
0
LINE
8
BLACK
6
CONTINUOUS
10
1.14568
20
0.302369
11
1.14781
21
0.299176
0
LINE
8
BLACK
6
CONTINUOUS
10
1.14781
20
0.299176
11
1.14856
21
0.295409
0
LINE
8
BLACK
6
CONTINUOUS
10
1.14856
20
0.295409
11
1.14856
21
0.27474
0
LINE
8
BLACK
6
CONTINUOUS
10
1.14856
20
0.27474
11
1.14781
21
0.270974
0
LINE
8
BLACK
6
CONTINUOUS
10
1.14781
20
0.270974
11
1.14568
21
0.26778
0
LINE
8
BLACK
6
CONTINUOUS
10
1.14568
20
0.26778
11
1.14248
21
0.265647
0
LINE
8
BLACK
6
CONTINUOUS
10
1.14248
20
0.265647
11
1.13872
21
0.264898
0
LINE
8
BLACK
6
CONTINUOUS
10
1.13872
20
0.264898
11
1.10328
21
0.264898
0
LINE
8
BLACK
6
CONTINUOUS
10
1.10328
20
0.264898
11
1.09952
21
0.265647
0
LINE
8
BLACK
6
CONTINUOUS
10
1.09952
20
0.265647
11
1.09632
21
0.26778
0
LINE
8
BLACK
6
CONTINUOUS
10
1.09632
20
0.26778
11
1.09419
21
0.270974
0
LINE
8
BLACK
6
CONTINUOUS
10
1.09419
20
0.270974
11
1.09344
21
0.27474
0
LINE
8
BLACK
6
CONTINUOUS
10
1.09344
20
0.27474
11
1.09344
21
0.295409
0
LINE
8
BLACK
6
CONTINUOUS
10
1.09344
20
0.295409
11
1.09419
21
0.299176
0
LINE
8
BLACK
6
CONTINUOUS
10
1.09419
20
0.299176
11
1.09632
21
0.302369
0
LINE
8
BLACK
6
CONTINUOUS
10
1.09632
20
0.302369
11
1.09952
21
0.304503
0
LINE
8
BLACK
6
CONTINUOUS
10
1.09952
20
0.304503
11
1.10328
21
0.305252
0
LINE
8
BLACK
6
CONTINUOUS
10
1.10328
20
0.305252
11
1.13872
21
0.305252
0
LINE
8
BLACK
6
CONTINUOUS
10
1.13872
20
0.305252
11
1.14248
21
0.304503
0
LINE
8
BLACK
6
CONTINUOUS
10
1.21748
20
0.304503
11
1.22068
21
0.302369
0
LINE
8
BLACK
6
CONTINUOUS
10
1.22068
20
0.302369
11
1.22281
21
0.299176
0
LINE
8
BLACK
6
CONTINUOUS
10
1.22281
20
0.299176
11
1.22356
21
0.295409
0
LINE
8
BLACK
6
CONTINUOUS
10
1.22356
20
0.295409
11
1.22356
21
0.27474
0
LINE
8
BLACK
6
CONTINUOUS
10
1.22356
20
0.27474
11
1.22281
21
0.270974
0
LINE
8
BLACK
6
CONTINUOUS
10
1.22281
20
0.270974
11
1.22068
21
0.26778
0
LINE
8
BLACK
6
CONTINUOUS
10
1.22068
20
0.26778
11
1.21748
21
0.265647
0
LINE
8
BLACK
6
CONTINUOUS
10
1.21748
20
0.265647
11
1.21372
21
0.264898
0
LINE
8
BLACK
6
CONTINUOUS
10
1.21372
20
0.264898
11
1.17828
21
0.264898
0
LINE
8
BLACK
6
CONTINUOUS
10
1.17828
20
0.264898
11
1.17452
21
0.265647
0
LINE
8
BLACK
6
CONTINUOUS
10
1.17452
20
0.265647
11
1.17132
21
0.26778
0
LINE
8
BLACK
6
CONTINUOUS
10
1.17132
20
0.26778
11
1.16919
21
0.270974
0
LINE
8
BLACK
6
CONTINUOUS
10
1.16919
20
0.270974
11
1.16844
21
0.27474
0
LINE
8
BLACK
6
CONTINUOUS
10
1.16844
20
0.27474
11
1.16844
21
0.295409
0
LINE
8
BLACK
6
CONTINUOUS
10
1.16844
20
0.295409
11
1.16919
21
0.299176
0
LINE
8
BLACK
6
CONTINUOUS
10
1.16919
20
0.299176
11
1.17132
21
0.302369
0
LINE
8
BLACK
6
CONTINUOUS
10
1.17132
20
0.302369
11
1.17452
21
0.304503
0
LINE
8
BLACK
6
CONTINUOUS
10
1.17452
20
0.304503
11
1.17828
21
0.305252
0
LINE
8
BLACK
6
CONTINUOUS
10
1.17828
20
0.305252
11
1.21372
21
0.305252
0
LINE
8
BLACK
6
CONTINUOUS
10
1.21372
20
0.305252
11
1.21748
21
0.304503
0
LINE
8
BLACK
6
CONTINUOUS
10
1.14248
20
0.376353
11
1.14568
21
0.37422
0
LINE
8
BLACK
6
CONTINUOUS
10
1.14568
20
0.37422
11
1.14781
21
0.371026
0
LINE
8
BLACK
6
CONTINUOUS
10
1.14781
20
0.371026
11
1.14856
21
0.36726
0
LINE
8
BLACK
6
CONTINUOUS
10
1.14856
20
0.36726
11
1.14856
21
0.346591
0
LINE
8
BLACK
6
CONTINUOUS
10
1.14856
20
0.346591
11
1.14781
21
0.342824
0
LINE
8
BLACK
6
CONTINUOUS
10
1.14781
20
0.342824
11
1.14568
21
0.339631
0
LINE
8
BLACK
6
CONTINUOUS
10
1.14568
20
0.339631
11
1.14248
21
0.337497
0
LINE
8
BLACK
6
CONTINUOUS
10
1.14248
20
0.337497
11
1.13872
21
0.336748
0
LINE
8
BLACK
6
CONTINUOUS
10
1.13872
20
0.336748
11
1.10328
21
0.336748
0
LINE
8
BLACK
6
CONTINUOUS
10
1.10328
20
0.336748
11
1.09952
21
0.337497
0
LINE
8
BLACK
6
CONTINUOUS
10
1.09952
20
0.337497
11
1.09632
21
0.339631
0
LINE
8
BLACK
6
CONTINUOUS
10
1.09632
20
0.339631
11
1.09419
21
0.342824
0
LINE
8
BLACK
6
CONTINUOUS
10
1.09419
20
0.342824
11
1.09344
21
0.346591
0
LINE
8
BLACK
6
CONTINUOUS
10
1.09344
20
0.346591
11
1.09344
21
0.36726
0
LINE
8
BLACK
6
CONTINUOUS
10
1.09344
20
0.36726
11
1.09419
21
0.371026
0
LINE
8
BLACK
6
CONTINUOUS
10
1.09419
20
0.371026
11
1.09632
21
0.37422
0
LINE
8
BLACK
6
CONTINUOUS
10
1.09632
20
0.37422
11
1.09952
21
0.376353
0
LINE
8
BLACK
6
CONTINUOUS
10
1.09952
20
0.376353
11
1.10328
21
0.377102
0
LINE
8
BLACK
6
CONTINUOUS
10
1.10328
20
0.377102
11
1.13872
21
0.377102
0
LINE
8
BLACK
6
CONTINUOUS
10
1.13872
20
0.377102
11
1.14248
21
0.376353
0
LINE
8
BLACK
6
CONTINUOUS
10
1.21748
20
0.376353
11
1.22068
21
0.37422
0
LINE
8
BLACK
6
CONTINUOUS
10
1.22068
20
0.37422
11
1.22281
21
0.371026
0
LINE
8
BLACK
6
CONTINUOUS
10
1.22281
20
0.371026
11
1.22356
21
0.36726
0
LINE
8
BLACK
6
CONTINUOUS
10
1.22356
20
0.36726
11
1.22356
21
0.346591
0
LINE
8
BLACK
6
CONTINUOUS
10
1.22356
20
0.346591
11
1.22281
21
0.342824
0
LINE
8
BLACK
6
CONTINUOUS
10
1.22281
20
0.342824
11
1.22068
21
0.339631
0
LINE
8
BLACK
6
CONTINUOUS
10
1.22068
20
0.339631
11
1.21748
21
0.337497
0
LINE
8
BLACK
6
CONTINUOUS
10
1.21748
20
0.337497
11
1.21372
21
0.336748
0
LINE
8
BLACK
6
CONTINUOUS
10
1.21372
20
0.336748
11
1.17828
21
0.336748
0
LINE
8
BLACK
6
CONTINUOUS
10
1.17828
20
0.336748
11
1.17452
21
0.337497
0
LINE
8
BLACK
6
CONTINUOUS
10
1.17452
20
0.337497
11
1.17132
21
0.339631
0
LINE
8
BLACK
6
CONTINUOUS
10
1.17132
20
0.339631
11
1.16919
21
0.342824
0
LINE
8
BLACK
6
CONTINUOUS
10
1.16919
20
0.342824
11
1.16844
21
0.346591
0
LINE
8
BLACK
6
CONTINUOUS
10
1.16844
20
0.346591
11
1.16844
21
0.36726
0
LINE
8
BLACK
6
CONTINUOUS
10
1.16844
20
0.36726
11
1.16919
21
0.371026
0
LINE
8
BLACK
6
CONTINUOUS
10
1.16919
20
0.371026
11
1.17132
21
0.37422
0
LINE
8
BLACK
6
CONTINUOUS
10
1.17132
20
0.37422
11
1.17452
21
0.376353
0
LINE
8
BLACK
6
CONTINUOUS
10
1.17452
20
0.376353
11
1.17828
21
0.377102
0
LINE
8
BLACK
6
CONTINUOUS
10
1.17828
20
0.377102
11
1.21372
21
0.377102
0
LINE
8
BLACK
6
CONTINUOUS
10
1.21372
20
0.377102
11
1.21748
21
0.376353
0
LINE
8
BLACK
6
CONTINUOUS
10
0.467822
20
0.480396
11
0.471015
21
0.478262
0
LINE
8
BLACK
6
CONTINUOUS
10
0.471015
20
0.478262
11
0.473148
21
0.475069
0
LINE
8
BLACK
6
CONTINUOUS
10
0.473148
20
0.475069
11
0.473898
21
0.471302
0
LINE
8
BLACK
6
CONTINUOUS
10
0.473898
20
0.471302
11
0.473898
21
0.390594
0
LINE
8
BLACK
6
CONTINUOUS
10
0.473898
20
0.390594
11
0.473148
21
0.386827
0
LINE
8
BLACK
6
CONTINUOUS
10
0.473148
20
0.386827
11
0.471015
21
0.383634
0
LINE
8
BLACK
6
CONTINUOUS
10
0.471015
20
0.383634
11
0.467822
21
0.3815
0
LINE
8
BLACK
6
CONTINUOUS
10
0.467822
20
0.3815
11
0.464055
21
0.380751
0
LINE
8
BLACK
6
CONTINUOUS
10
0.464055
20
0.380751
11
0.345945
21
0.380751
0
LINE
8
BLACK
6
CONTINUOUS
10
0.345945
20
0.380751
11
0.342178
21
0.3815
0
LINE
8
BLACK
6
CONTINUOUS
10
0.342178
20
0.3815
11
0.338985
21
0.383634
0
LINE
8
BLACK
6
CONTINUOUS
10
0.338985
20
0.383634
11
0.336852
21
0.386827
0
LINE
8
BLACK
6
CONTINUOUS
10
0.336852
20
0.386827
11
0.336102
21
0.390594
0
LINE
8
BLACK
6
CONTINUOUS
10
0.336102
20
0.390594
11
0.336102
21
0.471302
0
LINE
8
BLACK
6
CONTINUOUS
10
0.336102
20
0.471302
11
0.336852
21
0.475069
0
LINE
8
BLACK
6
CONTINUOUS
10
0.336852
20
0.475069
11
0.338985
21
0.478262
0
LINE
8
BLACK
6
CONTINUOUS
10
0.338985
20
0.478262
11
0.342178
21
0.480396
0
LINE
8
BLACK
6
CONTINUOUS
10
0.342178
20
0.480396
11
0.345945
21
0.481145
0
LINE
8
BLACK
6
CONTINUOUS
10
0.345945
20
0.481145
11
0.464055
21
0.481145
0
LINE
8
BLACK
6
CONTINUOUS
10
0.464055
20
0.481145
11
0.467822
21
0.480396
0
LINE
8
BLACK
6
CONTINUOUS
10
0.557483
20
0.443503
11
0.560676
21
0.441369
0
LINE
8
BLACK
6
CONTINUOUS
10
0.560676
20
0.441369
11
0.56281
21
0.438176
0
LINE
8
BLACK
6
CONTINUOUS
10
0.56281
20
0.438176
11
0.563559
21
0.434409
0
LINE
8
BLACK
6
CONTINUOUS
10
0.563559
20
0.434409
11
0.563559
21
0.41374
0
LINE
8
BLACK
6
CONTINUOUS
10
0.563559
20
0.41374
11
0.56281
21
0.409974
0
LINE
8
BLACK
6
CONTINUOUS
10
0.56281
20
0.409974
11
0.560676
21
0.40678
0
LINE
8
BLACK
6
CONTINUOUS
10
0.560676
20
0.40678
11
0.557483
21
0.404647
0
LINE
8
BLACK
6
CONTINUOUS
10
0.557483
20
0.404647
11
0.553717
21
0.403898
0
LINE
8
BLACK
6
CONTINUOUS
10
0.553717
20
0.403898
11
0.518283
21
0.403898
0
LINE
8
BLACK
6
CONTINUOUS
10
0.518283
20
0.403898
11
0.514517
21
0.404647
0
LINE
8
BLACK
6
CONTINUOUS
10
0.514517
20
0.404647
11
0.511324
21
0.40678
0
LINE
8
BLACK
6
CONTINUOUS
10
0.511324
20
0.40678
11
0.50919
21
0.409974
0
LINE
8
BLACK
6
CONTINUOUS
10
0.50919
20
0.409974
11
0.508441
21
0.41374
0
LINE
8
BLACK
6
CONTINUOUS
10
0.508441
20
0.41374
11
0.508441
21
0.434409
0
LINE
8
BLACK
6
CONTINUOUS
10
0.508441
20
0.434409
11
0.50919
21
0.438176
0
LINE
8
BLACK
6
CONTINUOUS
10
0.50919
20
0.438176
11
0.511324
21
0.441369
0
LINE
8
BLACK
6
CONTINUOUS
10
0.511324
20
0.441369
11
0.514517
21
0.443503
0
LINE
8
BLACK
6
CONTINUOUS
10
0.514517
20
0.443503
11
0.518283
21
0.444252
0
LINE
8
BLACK
6
CONTINUOUS
10
0.518283
20
0.444252
11
0.553717
21
0.444252
0
LINE
8
BLACK
6
CONTINUOUS
10
0.553717
20
0.444252
11
0.557483
21
0.443503
0
LINE
8
BLACK
6
CONTINUOUS
10
0.637483
20
0.443503
11
0.640676
21
0.441369
0
LINE
8
BLACK
6
CONTINUOUS
10
0.640676
20
0.441369
11
0.64281
21
0.438176
0
LINE
8
BLACK
6
CONTINUOUS
10
0.64281
20
0.438176
11
0.643559
21
0.434409
0
LINE
8
BLACK
6
CONTINUOUS
10
0.643559
20
0.434409
11
0.643559
21
0.41374
0
LINE
8
BLACK
6
CONTINUOUS
10
0.643559
20
0.41374
11
0.64281
21
0.409974
0
LINE
8
BLACK
6
CONTINUOUS
10
0.64281
20
0.409974
11
0.640676
21
0.40678
0
LINE
8
BLACK
6
CONTINUOUS
10
0.640676
20
0.40678
11
0.637483
21
0.404647
0
LINE
8
BLACK
6
CONTINUOUS
10
0.637483
20
0.404647
11
0.633717
21
0.403898
0
LINE
8
BLACK
6
CONTINUOUS
10
0.633717
20
0.403898
11
0.598283
21
0.403898
0
LINE
8
BLACK
6
CONTINUOUS
10
0.598283
20
0.403898
11
0.594517
21
0.404647
0
LINE
8
BLACK
6
CONTINUOUS
10
0.594517
20
0.404647
11
0.591324
21
0.40678
0
LINE
8
BLACK
6
CONTINUOUS
10
0.591324
20
0.40678
11
0.58919
21
0.409974
0
LINE
8
BLACK
6
CONTINUOUS
10
0.58919
20
0.409974
11
0.588441
21
0.41374
0
LINE
8
BLACK
6
CONTINUOUS
10
0.588441
20
0.41374
11
0.588441
21
0.434409
0
LINE
8
BLACK
6
CONTINUOUS
10
0.588441
20
0.434409
11
0.58919
21
0.438176
0
LINE
8
BLACK
6
CONTINUOUS
10
0.58919
20
0.438176
11
0.591324
21
0.441369
0
LINE
8
BLACK
6
CONTINUOUS
10
0.591324
20
0.441369
11
0.594517
21
0.443503
0
LINE
8
BLACK
6
CONTINUOUS
10
0.594517
20
0.443503
11
0.598283
21
0.444252
0
LINE
8
BLACK
6
CONTINUOUS
10
0.598283
20
0.444252
11
0.633717
21
0.444252
0
LINE
8
BLACK
6
CONTINUOUS
10
0.633717
20
0.444252
11
0.637483
21
0.443503
0
LINE
8
BLACK
6
CONTINUOUS
10
0.557483
20
0.515353
11
0.560676
21
0.51322
0
LINE
8
BLACK
6
CONTINUOUS
10
0.560676
20
0.51322
11
0.56281
21
0.510026
0
LINE
8
BLACK
6
CONTINUOUS
10
0.56281
20
0.510026
11
0.563559
21
0.50626
0
LINE
8
BLACK
6
CONTINUOUS
10
0.563559
20
0.50626
11
0.563559
21
0.485591
0
LINE
8
BLACK
6
CONTINUOUS
10
0.563559
20
0.485591
11
0.56281
21
0.481824
0
LINE
8
BLACK
6
CONTINUOUS
10
0.56281
20
0.481824
11
0.560676
21
0.478631
0
LINE
8
BLACK
6
CONTINUOUS
10
0.560676
20
0.478631
11
0.557483
21
0.476497
0
LINE
8
BLACK
6
CONTINUOUS
10
0.557483
20
0.476497
11
0.553717
21
0.475748
0
LINE
8
BLACK
6
CONTINUOUS
10
0.553717
20
0.475748
11
0.518283
21
0.475748
0
LINE
8
BLACK
6
CONTINUOUS
10
0.518283
20
0.475748
11
0.514517
21
0.476497
0
LINE
8
BLACK
6
CONTINUOUS
10
0.514517
20
0.476497
11
0.511324
21
0.478631
0
LINE
8
BLACK
6
CONTINUOUS
10
0.511324
20
0.478631
11
0.50919
21
0.481824
0
LINE
8
BLACK
6
CONTINUOUS
10
0.50919
20
0.481824
11
0.508441
21
0.485591
0
LINE
8
BLACK
6
CONTINUOUS
10
0.508441
20
0.485591
11
0.508441
21
0.50626
0
LINE
8
BLACK
6
CONTINUOUS
10
0.508441
20
0.50626
11
0.50919
21
0.510026
0
LINE
8
BLACK
6
CONTINUOUS
10
0.50919
20
0.510026
11
0.511324
21
0.51322
0
LINE
8
BLACK
6
CONTINUOUS
10
0.511324
20
0.51322
11
0.514517
21
0.515353
0
LINE
8
BLACK
6
CONTINUOUS
10
0.514517
20
0.515353
11
0.518283
21
0.516102
0
LINE
8
BLACK
6
CONTINUOUS
10
0.518283
20
0.516102
11
0.553717
21
0.516102
0
LINE
8
BLACK
6
CONTINUOUS
10
0.553717
20
0.516102
11
0.557483
21
0.515353
0
LINE
8
BLACK
6
CONTINUOUS
10
0.637483
20
0.515353
11
0.640676
21
0.51322
0
LINE
8
BLACK
6
CONTINUOUS
10
0.640676
20
0.51322
11
0.64281
21
0.510026
0
LINE
8
BLACK
6
CONTINUOUS
10
0.64281
20
0.510026
11
0.643559
21
0.50626
0
LINE
8
BLACK
6
CONTINUOUS
10
0.643559
20
0.50626
11
0.643559
21
0.485591
0
LINE
8
BLACK
6
CONTINUOUS
10
0.643559
20
0.485591
11
0.64281
21
0.481824
0
LINE
8
BLACK
6
CONTINUOUS
10
0.64281
20
0.481824
11
0.640676
21
0.478631
0
LINE
8
BLACK
6
CONTINUOUS
10
0.640676
20
0.478631
11
0.637483
21
0.476497
0
LINE
8
BLACK
6
CONTINUOUS
10
0.637483
20
0.476497
11
0.633717
21
0.475748
0
LINE
8
BLACK
6
CONTINUOUS
10
0.633717
20
0.475748
11
0.598283
21
0.475748
0
LINE
8
BLACK
6
CONTINUOUS
10
0.598283
20
0.475748
11
0.594517
21
0.476497
0
LINE
8
BLACK
6
CONTINUOUS
10
0.594517
20
0.476497
11
0.591324
21
0.478631
0
LINE
8
BLACK
6
CONTINUOUS
10
0.591324
20
0.478631
11
0.58919
21
0.481824
0
LINE
8
BLACK
6
CONTINUOUS
10
0.58919
20
0.481824
11
0.588441
21
0.485591
0
LINE
8
BLACK
6
CONTINUOUS
10
0.588441
20
0.485591
11
0.588441
21
0.50626
0
LINE
8
BLACK
6
CONTINUOUS
10
0.588441
20
0.50626
11
0.58919
21
0.510026
0
LINE
8
BLACK
6
CONTINUOUS
10
0.58919
20
0.510026
11
0.591324
21
0.51322
0
LINE
8
BLACK
6
CONTINUOUS
10
0.591324
20
0.51322
11
0.594517
21
0.515353
0
LINE
8
BLACK
6
CONTINUOUS
10
0.594517
20
0.515353
11
0.598283
21
0.516102
0
LINE
8
BLACK
6
CONTINUOUS
10
0.598283
20
0.516102
11
0.633717
21
0.516102
0
LINE
8
BLACK
6
CONTINUOUS
10
0.633717
20
0.516102
11
0.637483
21
0.515353
0
LINE
8
BLACK
6
CONTINUOUS
10
0.943483
20
0.530003
11
0.946676
21
0.527869
0
LINE
8
BLACK
6
CONTINUOUS
10
0.946676
20
0.527869
11
0.94881
21
0.524676
0
LINE
8
BLACK
6
CONTINUOUS
10
0.94881
20
0.524676
11
0.949559
21
0.520909
0
LINE
8
BLACK
6
CONTINUOUS
10
0.949559
20
0.520909
11
0.949559
21
0.50024
0
LINE
8
BLACK
6
CONTINUOUS
10
0.949559
20
0.50024
11
0.94881
21
0.496474
0
LINE
8
BLACK
6
CONTINUOUS
10
0.94881
20
0.496474
11
0.946676
21
0.49328
0
LINE
8
BLACK
6
CONTINUOUS
10
0.946676
20
0.49328
11
0.943483
21
0.491147
0
LINE
8
BLACK
6
CONTINUOUS
10
0.943483
20
0.491147
11
0.939717
21
0.490398
0
LINE
8
BLACK
6
CONTINUOUS
10
0.939717
20
0.490398
11
0.904283
21
0.490398
0
LINE
8
BLACK
6
CONTINUOUS
10
0.904283
20
0.490398
11
0.900517
21
0.491147
0
LINE
8
BLACK
6
CONTINUOUS
10
0.900517
20
0.491147
11
0.897324
21
0.49328
0
LINE
8
BLACK
6
CONTINUOUS
10
0.897324
20
0.49328
11
0.89519
21
0.496474
0
LINE
8
BLACK
6
CONTINUOUS
10
0.89519
20
0.496474
11
0.894441
21
0.50024
0
LINE
8
BLACK
6
CONTINUOUS
10
0.894441
20
0.50024
11
0.894441
21
0.520909
0
LINE
8
BLACK
6
CONTINUOUS
10
0.894441
20
0.520909
11
0.89519
21
0.524676
0
LINE
8
BLACK
6
CONTINUOUS
10
0.89519
20
0.524676
11
0.897324
21
0.527869
0
LINE
8
BLACK
6
CONTINUOUS
10
0.897324
20
0.527869
11
0.900517
21
0.530003
0
LINE
8
BLACK
6
CONTINUOUS
10
0.900517
20
0.530003
11
0.904283
21
0.530752
0
LINE
8
BLACK
6
CONTINUOUS
10
0.904283
20
0.530752
11
0.939717
21
0.530752
0
LINE
8
BLACK
6
CONTINUOUS
10
0.939717
20
0.530752
11
0.943483
21
0.530003
0
LINE
8
BLACK
6
CONTINUOUS
10
0.943483
20
0.601853
11
0.946676
21
0.59972
0
LINE
8
BLACK
6
CONTINUOUS
10
0.946676
20
0.59972
11
0.94881
21
0.596526
0
LINE
8
BLACK
6
CONTINUOUS
10
0.94881
20
0.596526
11
0.949559
21
0.59276
0
LINE
8
BLACK
6
CONTINUOUS
10
0.949559
20
0.59276
11
0.949559
21
0.572091
0
LINE
8
BLACK
6
CONTINUOUS
10
0.949559
20
0.572091
11
0.94881
21
0.568324
0
LINE
8
BLACK
6
CONTINUOUS
10
0.94881
20
0.568324
11
0.946676
21
0.565131
0
LINE
8
BLACK
6
CONTINUOUS
10
0.946676
20
0.565131
11
0.943483
21
0.562997
0
LINE
8
BLACK
6
CONTINUOUS
10
0.943483
20
0.562997
11
0.939717
21
0.562248
0
LINE
8
BLACK
6
CONTINUOUS
10
0.939717
20
0.562248
11
0.904283
21
0.562248
0
LINE
8
BLACK
6
CONTINUOUS
10
0.904283
20
0.562248
11
0.900517
21
0.562997
0
LINE
8
BLACK
6
CONTINUOUS
10
0.900517
20
0.562997
11
0.897324
21
0.565131
0
LINE
8
BLACK
6
CONTINUOUS
10
0.897324
20
0.565131
11
0.89519
21
0.568324
0
LINE
8
BLACK
6
CONTINUOUS
10
0.89519
20
0.568324
11
0.894441
21
0.572091
0
LINE
8
BLACK
6
CONTINUOUS
10
0.894441
20
0.572091
11
0.894441
21
0.59276
0
LINE
8
BLACK
6
CONTINUOUS
10
0.894441
20
0.59276
11
0.89519
21
0.596526
0
LINE
8
BLACK
6
CONTINUOUS
10
0.89519
20
0.596526
11
0.897324
21
0.59972
0
LINE
8
BLACK
6
CONTINUOUS
10
0.897324
20
0.59972
11
0.900517
21
0.601853
0
LINE
8
BLACK
6
CONTINUOUS
10
0.900517
20
0.601853
11
0.904283
21
0.602602
0
LINE
8
BLACK
6
CONTINUOUS
10
0.904283
20
0.602602
11
0.939717
21
0.602602
0
LINE
8
BLACK
6
CONTINUOUS
10
0.939717
20
0.602602
11
0.943483
21
0.601853
0
LINE
8
BLACK
6
CONTINUOUS
10
0.467822
20
0.6989
11
0.471015
21
0.696766
0
LINE
8
BLACK
6
CONTINUOUS
10
0.471015
20
0.696766
11
0.473148
21
0.693573
0
LINE
8
BLACK
6
CONTINUOUS
10
0.473148
20
0.693573
11
0.473898
21
0.689806
0
LINE
8
BLACK
6
CONTINUOUS
10
0.473898
20
0.689806
11
0.473898
21
0.609098
0
LINE
8
BLACK
6
CONTINUOUS
10
0.473898
20
0.609098
11
0.473148
21
0.605331
0
LINE
8
BLACK
6
CONTINUOUS
10
0.473148
20
0.605331
11
0.471015
21
0.602138
0
LINE
8
BLACK
6
CONTINUOUS
10
0.471015
20
0.602138
11
0.467822
21
0.600004
0
LINE
8
BLACK
6
CONTINUOUS
10
0.467822
20
0.600004
11
0.464055
21
0.599255
0
LINE
8
BLACK
6
CONTINUOUS
10
0.464055
20
0.599255
11
0.345945
21
0.599255
0
LINE
8
BLACK
6
CONTINUOUS
10
0.345945
20
0.599255
11
0.342178
21
0.600004
0
LINE
8
BLACK
6
CONTINUOUS
10
0.342178
20
0.600004
11
0.338985
21
0.602138
0
LINE
8
BLACK
6
CONTINUOUS
10
0.338985
20
0.602138
11
0.336852
21
0.605331
0
LINE
8
BLACK
6
CONTINUOUS
10
0.336852
20
0.605331
11
0.336102
21
0.609098
0
LINE
8
BLACK
6
CONTINUOUS
10
0.336102
20
0.609098
11
0.336102
21
0.689806
0
LINE
8
BLACK
6
CONTINUOUS
10
0.336102
20
0.689806
11
0.336852
21
0.693573
0
LINE
8
BLACK
6
CONTINUOUS
10
0.336852
20
0.693573
11
0.338985
21
0.696766
0
LINE
8
BLACK
6
CONTINUOUS
10
0.338985
20
0.696766
11
0.342178
21
0.6989
0
LINE
8
BLACK
6
CONTINUOUS
10
0.342178
20
0.6989
11
0.345945
21
0.699649
0
LINE
8
BLACK
6
CONTINUOUS
10
0.345945
20
0.699649
11
0.464055
21
0.699649
0
LINE
8
BLACK
6
CONTINUOUS
10
0.464055
20
0.699649
11
0.467822
21
0.6989
0
LINE
8
BLACK
6
CONTINUOUS
10
0.435433
20
0.746587
11
0.364567
21
0.746587
0
LINE
8
BLACK
6
CONTINUOUS
10
0.364567
20
0.746587
11
0.364567
21
0.845013
0
LINE
8
BLACK
6
CONTINUOUS
10
0.364567
20
0.845013
11
0.435433
21
0.845013
0
LINE
8
BLACK
6
CONTINUOUS
10
0.435433
20
0.845013
11
0.435433
21
0.746587
0
LINE
8
BLACK
6
CONTINUOUS
10
1.07618
20
0.81181
11
1.07937
21
0.809676
0
LINE
8
BLACK
6
CONTINUOUS
10
1.07937
20
0.809676
11
1.0815
21
0.806483
0
LINE
8
BLACK
6
CONTINUOUS
10
1.0815
20
0.806483
11
1.08225
21
0.802717
0
LINE
8
BLACK
6
CONTINUOUS
10
1.08225
20
0.802717
11
1.08225
21
0.767283
0
LINE
8
BLACK
6
CONTINUOUS
10
1.08225
20
0.767283
11
1.0815
21
0.763517
0
LINE
8
BLACK
6
CONTINUOUS
10
1.0815
20
0.763517
11
1.07937
21
0.760324
0
LINE
8
BLACK
6
CONTINUOUS
10
1.07937
20
0.760324
11
1.07618
21
0.75819
0
LINE
8
BLACK
6
CONTINUOUS
10
1.07618
20
0.75819
11
1.07241
21
0.757441
0
LINE
8
BLACK
6
CONTINUOUS
10
1.07241
20
0.757441
11
1.05174
21
0.757441
0
LINE
8
BLACK
6
CONTINUOUS
10
1.05174
20
0.757441
11
1.04797
21
0.75819
0
LINE
8
BLACK
6
CONTINUOUS
10
1.04797
20
0.75819
11
1.04478
21
0.760324
0
LINE
8
BLACK
6
CONTINUOUS
10
1.04478
20
0.760324
11
1.04265
21
0.763517
0
LINE
8
BLACK
6
CONTINUOUS
10
1.04265
20
0.763517
11
1.0419
21
0.767283
0
LINE
8
BLACK
6
CONTINUOUS
10
1.0419
20
0.767283
11
1.0419
21
0.802717
0
LINE
8
BLACK
6
CONTINUOUS
10
1.0419
20
0.802717
11
1.04265
21
0.806483
0
LINE
8
BLACK
6
CONTINUOUS
10
1.04265
20
0.806483
11
1.04478
21
0.809676
0
LINE
8
BLACK
6
CONTINUOUS
10
1.04478
20
0.809676
11
1.04797
21
0.81181
0
LINE
8
BLACK
6
CONTINUOUS
10
1.04797
20
0.81181
11
1.05174
21
0.812559
0
LINE
8
BLACK
6
CONTINUOUS
10
1.05174
20
0.812559
11
1.07241
21
0.812559
0
LINE
8
BLACK
6
CONTINUOUS
10
1.07241
20
0.812559
11
1.07618
21
0.81181
0
LINE
8
BLACK
6
CONTINUOUS
10
1.14803
20
0.81181
11
1.15122
21
0.809676
0
LINE
8
BLACK
6
CONTINUOUS
10
1.15122
20
0.809676
11
1.15335
21
0.806483
0
LINE
8
BLACK
6
CONTINUOUS
10
1.15335
20
0.806483
11
1.1541
21
0.802717
0
LINE
8
BLACK
6
CONTINUOUS
10
1.1541
20
0.802717
11
1.1541
21
0.767283
0
LINE
8
BLACK
6
CONTINUOUS
10
1.1541
20
0.767283
11
1.15335
21
0.763517
0
LINE
8
BLACK
6
CONTINUOUS
10
1.15335
20
0.763517
11
1.15122
21
0.760324
0
LINE
8
BLACK
6
CONTINUOUS
10
1.15122
20
0.760324
11
1.14803
21
0.75819
0
LINE
8
BLACK
6
CONTINUOUS
10
1.14803
20
0.75819
11
1.14426
21
0.757441
0
LINE
8
BLACK
6
CONTINUOUS
10
1.14426
20
0.757441
11
1.12359
21
0.757441
0
LINE
8
BLACK
6
CONTINUOUS
10
1.12359
20
0.757441
11
1.11982
21
0.75819
0
LINE
8
BLACK
6
CONTINUOUS
10
1.11982
20
0.75819
11
1.11663
21
0.760324
0
LINE
8
BLACK
6
CONTINUOUS
10
1.11663
20
0.760324
11
1.1145
21
0.763517
0
LINE
8
BLACK
6
CONTINUOUS
10
1.1145
20
0.763517
11
1.11375
21
0.767283
0
LINE
8
BLACK
6
CONTINUOUS
10
1.11375
20
0.767283
11
1.11375
21
0.802717
0
LINE
8
BLACK
6
CONTINUOUS
10
1.11375
20
0.802717
11
1.1145
21
0.806483
0
LINE
8
BLACK
6
CONTINUOUS
10
1.1145
20
0.806483
11
1.11663
21
0.809676
0
LINE
8
BLACK
6
CONTINUOUS
10
1.11663
20
0.809676
11
1.11982
21
0.81181
0
LINE
8
BLACK
6
CONTINUOUS
10
1.11982
20
0.81181
11
1.12359
21
0.812559
0
LINE
8
BLACK
6
CONTINUOUS
10
1.12359
20
0.812559
11
1.14426
21
0.812559
0
LINE
8
BLACK
6
CONTINUOUS
10
1.14426
20
0.812559
11
1.14803
21
0.81181
0
LINE
8
BLACK
6
CONTINUOUS
10
0.604026
20
0.81981
11
0.60722
21
0.817676
0
LINE
8
BLACK
6
CONTINUOUS
10
0.60722
20
0.817676
11
0.609353
21
0.814483
0
LINE
8
BLACK
6
CONTINUOUS
10
0.609353
20
0.814483
11
0.610102
21
0.810717
0
LINE
8
BLACK
6
CONTINUOUS
10
0.610102
20
0.810717
11
0.610102
21
0.775283
0
LINE
8
BLACK
6
CONTINUOUS
10
0.610102
20
0.775283
11
0.609353
21
0.771517
0
LINE
8
BLACK
6
CONTINUOUS
10
0.609353
20
0.771517
11
0.60722
21
0.768324
0
LINE
8
BLACK
6
CONTINUOUS
10
0.60722
20
0.768324
11
0.604026
21
0.76619
0
LINE
8
BLACK
6
CONTINUOUS
10
0.604026
20
0.76619
11
0.60026
21
0.765441
0
LINE
8
BLACK
6
CONTINUOUS
10
0.60026
20
0.765441
11
0.579591
21
0.765441
0
LINE
8
BLACK
6
CONTINUOUS
10
0.579591
20
0.765441
11
0.575824
21
0.76619
0
LINE
8
BLACK
6
CONTINUOUS
10
0.575824
20
0.76619
11
0.572631
21
0.768324
0
LINE
8
BLACK
6
CONTINUOUS
10
0.572631
20
0.768324
11
0.570497
21
0.771517
0
LINE
8
BLACK
6
CONTINUOUS
10
0.570497
20
0.771517
11
0.569748
21
0.775283
0
LINE
8
BLACK
6
CONTINUOUS
10
0.569748
20
0.775283
11
0.569748
21
0.810717
0
LINE
8
BLACK
6
CONTINUOUS
10
0.569748
20
0.810717
11
0.570497
21
0.814483
0
LINE
8
BLACK
6
CONTINUOUS
10
0.570497
20
0.814483
11
0.572631
21
0.817676
0
LINE
8
BLACK
6
CONTINUOUS
10
0.572631
20
0.817676
11
0.575824
21
0.81981
0
LINE
8
BLACK
6
CONTINUOUS
10
0.575824
20
0.81981
11
0.579591
21
0.820559
0
LINE
8
BLACK
6
CONTINUOUS
10
0.579591
20
0.820559
11
0.60026
21
0.820559
0
LINE
8
BLACK
6
CONTINUOUS
10
0.60026
20
0.820559
11
0.604026
21
0.81981
0
LINE
8
BLACK
6
CONTINUOUS
10
0.532176
20
0.81981
11
0.535369
21
0.817676
0
LINE
8
BLACK
6
CONTINUOUS
10
0.535369
20
0.817676
11
0.537503
21
0.814483
0
LINE
8
BLACK
6
CONTINUOUS
10
0.537503
20
0.814483
11
0.538252
21
0.810717
0
LINE
8
BLACK
6
CONTINUOUS
10
0.538252
20
0.810717
11
0.538252
21
0.775283
0
LINE
8
BLACK
6
CONTINUOUS
10
0.538252
20
0.775283
11
0.537503
21
0.771517
0
LINE
8
BLACK
6
CONTINUOUS
10
0.537503
20
0.771517
11
0.535369
21
0.768324
0
LINE
8
BLACK
6
CONTINUOUS
10
0.535369
20
0.768324
11
0.532176
21
0.76619
0
LINE
8
BLACK
6
CONTINUOUS
10
0.532176
20
0.76619
11
0.528409
21
0.765441
0
LINE
8
BLACK
6
CONTINUOUS
10
0.528409
20
0.765441
11
0.50774
21
0.765441
0
LINE
8
BLACK
6
CONTINUOUS
10
0.50774
20
0.765441
11
0.503974
21
0.76619
0
LINE
8
BLACK
6
CONTINUOUS
10
0.503974
20
0.76619
11
0.50078
21
0.768324
0
LINE
8
BLACK
6
CONTINUOUS
10
0.50078
20
0.768324
11
0.498647
21
0.771517
0
LINE
8
BLACK
6
CONTINUOUS
10
0.498647
20
0.771517
11
0.497898
21
0.775283
0
LINE
8
BLACK
6
CONTINUOUS
10
0.497898
20
0.775283
11
0.497898
21
0.810717
0
LINE
8
BLACK
6
CONTINUOUS
10
0.497898
20
0.810717
11
0.498647
21
0.814483
0
LINE
8
BLACK
6
CONTINUOUS
10
0.498647
20
0.814483
11
0.50078
21
0.817676
0
LINE
8
BLACK
6
CONTINUOUS
10
0.50078
20
0.817676
11
0.503974
21
0.81981
0
LINE
8
BLACK
6
CONTINUOUS
10
0.503974
20
0.81981
11
0.50774
21
0.820559
0
LINE
8
BLACK
6
CONTINUOUS
10
0.50774
20
0.820559
11
0.528409
21
0.820559
0
LINE
8
BLACK
6
CONTINUOUS
10
0.528409
20
0.820559
11
0.532176
21
0.81981
0
LINE
8
BLACK
6
CONTINUOUS
10
0.765483
20
0.885503
11
0.768676
21
0.883369
0
LINE
8
BLACK
6
CONTINUOUS
10
0.768676
20
0.883369
11
0.77081
21
0.880176
0
LINE
8
BLACK
6
CONTINUOUS
10
0.77081
20
0.880176
11
0.771559
21
0.876409
0
LINE
8
BLACK
6
CONTINUOUS
10
0.771559
20
0.876409
11
0.771559
21
0.85574
0
LINE
8
BLACK
6
CONTINUOUS
10
0.771559
20
0.85574
11
0.77081
21
0.851974
0
LINE
8
BLACK
6
CONTINUOUS
10
0.77081
20
0.851974
11
0.768676
21
0.84878
0
LINE
8
BLACK
6
CONTINUOUS
10
0.768676
20
0.84878
11
0.765483
21
0.846647
0
LINE
8
BLACK
6
CONTINUOUS
10
0.765483
20
0.846647
11
0.761717
21
0.845898
0
LINE
8
BLACK
6
CONTINUOUS
10
0.761717
20
0.845898
11
0.726283
21
0.845898
0
LINE
8
BLACK
6
CONTINUOUS
10
0.726283
20
0.845898
11
0.722517
21
0.846647
0
LINE
8
BLACK
6
CONTINUOUS
10
0.722517
20
0.846647
11
0.719324
21
0.84878
0
LINE
8
BLACK
6
CONTINUOUS
10
0.719324
20
0.84878
11
0.71719
21
0.851974
0
LINE
8
BLACK
6
CONTINUOUS
10
0.71719
20
0.851974
11
0.716441
21
0.85574
0
LINE
8
BLACK
6
CONTINUOUS
10
0.716441
20
0.85574
11
0.716441
21
0.876409
0
LINE
8
BLACK
6
CONTINUOUS
10
0.716441
20
0.876409
11
0.71719
21
0.880176
0
LINE
8
BLACK
6
CONTINUOUS
10
0.71719
20
0.880176
11
0.719324
21
0.883369
0
LINE
8
BLACK
6
CONTINUOUS
10
0.719324
20
0.883369
11
0.722517
21
0.885503
0
LINE
8
BLACK
6
CONTINUOUS
10
0.722517
20
0.885503
11
0.726283
21
0.886252
0
LINE
8
BLACK
6
CONTINUOUS
10
0.726283
20
0.886252
11
0.761717
21
0.886252
0
LINE
8
BLACK
6
CONTINUOUS
10
0.761717
20
0.886252
11
0.765483
21
0.885503
0
LINE
8
BLACK
6
CONTINUOUS
10
0.832176
20
0.95481
11
0.835369
21
0.952676
0
LINE
8
BLACK
6
CONTINUOUS
10
0.835369
20
0.952676
11
0.837503
21
0.949483
0
LINE
8
BLACK
6
CONTINUOUS
10
0.837503
20
0.949483
11
0.838252
21
0.945717
0
LINE
8
BLACK
6
CONTINUOUS
10
0.838252
20
0.945717
11
0.838252
21
0.910283
0
LINE
8
BLACK
6
CONTINUOUS
10
0.838252
20
0.910283
11
0.837503
21
0.906517
0
LINE
8
BLACK
6
CONTINUOUS
10
0.837503
20
0.906517
11
0.835369
21
0.903324
0
LINE
8
BLACK
6
CONTINUOUS
10
0.835369
20
0.903324
11
0.832176
21
0.90119
0
LINE
8
BLACK
6
CONTINUOUS
10
0.832176
20
0.90119
11
0.828409
21
0.900441
0
LINE
8
BLACK
6
CONTINUOUS
10
0.828409
20
0.900441
11
0.80774
21
0.900441
0
LINE
8
BLACK
6
CONTINUOUS
10
0.80774
20
0.900441
11
0.803974
21
0.90119
0
LINE
8
BLACK
6
CONTINUOUS
10
0.803974
20
0.90119
11
0.80078
21
0.903324
0
LINE
8
BLACK
6
CONTINUOUS
10
0.80078
20
0.903324
11
0.798647
21
0.906517
0
LINE
8
BLACK
6
CONTINUOUS
10
0.798647
20
0.906517
11
0.797898
21
0.910283
0
LINE
8
BLACK
6
CONTINUOUS
10
0.797898
20
0.910283
11
0.797898
21
0.945717
0
LINE
8
BLACK
6
CONTINUOUS
10
0.797898
20
0.945717
11
0.798647
21
0.949483
0
LINE
8
BLACK
6
CONTINUOUS
10
0.798647
20
0.949483
11
0.80078
21
0.952676
0
LINE
8
BLACK
6
CONTINUOUS
10
0.80078
20
0.952676
11
0.803974
21
0.95481
0
LINE
8
BLACK
6
CONTINUOUS
10
0.803974
20
0.95481
11
0.80774
21
0.955559
0
LINE
8
BLACK
6
CONTINUOUS
10
0.80774
20
0.955559
11
0.828409
21
0.955559
0
LINE
8
BLACK
6
CONTINUOUS
10
0.828409
20
0.955559
11
0.832176
21
0.95481
0
LINE
8
BLACK
6
CONTINUOUS
10
0.904026
20
0.95481
11
0.90722
21
0.952676
0
LINE
8
BLACK
6
CONTINUOUS
10
0.90722
20
0.952676
11
0.909353
21
0.949483
0
LINE
8
BLACK
6
CONTINUOUS
10
0.909353
20
0.949483
11
0.910102
21
0.945717
0
LINE
8
BLACK
6
CONTINUOUS
10
0.910102
20
0.945717
11
0.910102
21
0.910283
0
LINE
8
BLACK
6
CONTINUOUS
10
0.910102
20
0.910283
11
0.909353
21
0.906517
0
LINE
8
BLACK
6
CONTINUOUS
10
0.909353
20
0.906517
11
0.90722
21
0.903324
0
LINE
8
BLACK
6
CONTINUOUS
10
0.90722
20
0.903324
11
0.904026
21
0.90119
0
LINE
8
BLACK
6
CONTINUOUS
10
0.904026
20
0.90119
11
0.90026
21
0.900441
0
LINE
8
BLACK
6
CONTINUOUS
10
0.90026
20
0.900441
11
0.879591
21
0.900441
0
LINE
8
BLACK
6
CONTINUOUS
10
0.879591
20
0.900441
11
0.875824
21
0.90119
0
LINE
8
BLACK
6
CONTINUOUS
10
0.875824
20
0.90119
11
0.872631
21
0.903324
0
LINE
8
BLACK
6
CONTINUOUS
10
0.872631
20
0.903324
11
0.870497
21
0.906517
0
LINE
8
BLACK
6
CONTINUOUS
10
0.870497
20
0.906517
11
0.869748
21
0.910283
0
LINE
8
BLACK
6
CONTINUOUS
10
0.869748
20
0.910283
11
0.869748
21
0.945717
0
LINE
8
BLACK
6
CONTINUOUS
10
0.869748
20
0.945717
11
0.870497
21
0.949483
0
LINE
8
BLACK
6
CONTINUOUS
10
0.870497
20
0.949483
11
0.872631
21
0.952676
0
LINE
8
BLACK
6
CONTINUOUS
10
0.872631
20
0.952676
11
0.875824
21
0.95481
0
LINE
8
BLACK
6
CONTINUOUS
10
0.875824
20
0.95481
11
0.879591
21
0.955559
0
LINE
8
BLACK
6
CONTINUOUS
10
0.879591
20
0.955559
11
0.90026
21
0.955559
0
LINE
8
BLACK
6
CONTINUOUS
10
0.90026
20
0.955559
11
0.904026
21
0.95481
0
LINE
8
BLACK
6
CONTINUOUS
10
0.435433
20
0.904068
11
0.364567
21
0.904068
0
LINE
8
BLACK
6
CONTINUOUS
10
0.364567
20
0.904068
11
0.364567
21
1.00249
0
LINE
8
BLACK
6
CONTINUOUS
10
0.364567
20
1.00249
11
0.435433
21
1.00249
0
LINE
8
BLACK
6
CONTINUOUS
10
0.435433
20
1.00249
11
0.435433
21
0.904068
0
LINE
8
BLACK
6
CONTINUOUS
10
0.765483
20
0.957353
11
0.768676
21
0.95522
0
LINE
8
BLACK
6
CONTINUOUS
10
0.768676
20
0.95522
11
0.77081
21
0.952026
0
LINE
8
BLACK
6
CONTINUOUS
10
0.77081
20
0.952026
11
0.771559
21
0.94826
0
LINE
8
BLACK
6
CONTINUOUS
10
0.771559
20
0.94826
11
0.771559
21
0.927591
0
LINE
8
BLACK
6
CONTINUOUS
10
0.771559
20
0.927591
11
0.77081
21
0.923824
0
LINE
8
BLACK
6
CONTINUOUS
10
0.77081
20
0.923824
11
0.768676
21
0.920631
0
LINE
8
BLACK
6
CONTINUOUS
10
0.768676
20
0.920631
11
0.765483
21
0.918497
0
LINE
8
BLACK
6
CONTINUOUS
10
0.765483
20
0.918497
11
0.761717
21
0.917748
0
LINE
8
BLACK
6
CONTINUOUS
10
0.761717
20
0.917748
11
0.726283
21
0.917748
0
LINE
8
BLACK
6
CONTINUOUS
10
0.726283
20
0.917748
11
0.722517
21
0.918497
0
LINE
8
BLACK
6
CONTINUOUS
10
0.722517
20
0.918497
11
0.719324
21
0.920631
0
LINE
8
BLACK
6
CONTINUOUS
10
0.719324
20
0.920631
11
0.71719
21
0.923824
0
LINE
8
BLACK
6
CONTINUOUS
10
0.71719
20
0.923824
11
0.716441
21
0.927591
0
LINE
8
BLACK
6
CONTINUOUS
10
0.716441
20
0.927591
11
0.716441
21
0.94826
0
LINE
8
BLACK
6
CONTINUOUS
10
0.716441
20
0.94826
11
0.71719
21
0.952026
0
LINE
8
BLACK
6
CONTINUOUS
10
0.71719
20
0.952026
11
0.719324
21
0.95522
0
LINE
8
BLACK
6
CONTINUOUS
10
0.719324
20
0.95522
11
0.722517
21
0.957353
0
LINE
8
BLACK
6
CONTINUOUS
10
0.722517
20
0.957353
11
0.726283
21
0.958102
0
LINE
8
BLACK
6
CONTINUOUS
10
0.726283
20
0.958102
11
0.761717
21
0.958102
0
LINE
8
BLACK
6
CONTINUOUS
10
0.761717
20
0.958102
11
0.765483
21
0.957353
0
LINE
8
BLACK
6
CONTINUOUS
10
0.235433
20
0.917847
11
0.164567
21
0.917847
0
LINE
8
BLACK
6
CONTINUOUS
10
0.164567
20
0.917847
11
0.164567
21
1.01627
0
LINE
8
BLACK
6
CONTINUOUS
10
0.164567
20
1.01627
11
0.235433
21
1.01627
0
LINE
8
BLACK
6
CONTINUOUS
10
0.235433
20
1.01627
11
0.235433
21
0.917847
0
LINE
8
BLACK
6
CONTINUOUS
10
0.766483
20
1.0205
11
0.769676
21
1.01837
0
LINE
8
BLACK
6
CONTINUOUS
10
0.769676
20
1.01837
11
0.77181
21
1.01518
0
LINE
8
BLACK
6
CONTINUOUS
10
0.77181
20
1.01518
11
0.772559
21
1.01141
0
LINE
8
BLACK
6
CONTINUOUS
10
0.772559
20
1.01141
11
0.772559
21
0.99074
0
LINE
8
BLACK
6
CONTINUOUS
10
0.772559
20
0.99074
11
0.77181
21
0.986974
0
LINE
8
BLACK
6
CONTINUOUS
10
0.77181
20
0.986974
11
0.769676
21
0.98378
0
LINE
8
BLACK
6
CONTINUOUS
10
0.769676
20
0.98378
11
0.766483
21
0.981647
0
LINE
8
BLACK
6
CONTINUOUS
10
0.766483
20
0.981647
11
0.762717
21
0.980898
0
LINE
8
BLACK
6
CONTINUOUS
10
0.762717
20
0.980898
11
0.727283
21
0.980898
0
LINE
8
BLACK
6
CONTINUOUS
10
0.727283
20
0.980898
11
0.723517
21
0.981647
0
LINE
8
BLACK
6
CONTINUOUS
10
0.723517
20
0.981647
11
0.720324
21
0.98378
0
LINE
8
BLACK
6
CONTINUOUS
10
0.720324
20
0.98378
11
0.71819
21
0.986974
0
LINE
8
BLACK
6
CONTINUOUS
10
0.71819
20
0.986974
11
0.717441
21
0.99074
0
LINE
8
BLACK
6
CONTINUOUS
10
0.717441
20
0.99074
11
0.717441
21
1.01141
0
LINE
8
BLACK
6
CONTINUOUS
10
0.717441
20
1.01141
11
0.71819
21
1.01518
0
LINE
8
BLACK
6
CONTINUOUS
10
0.71819
20
1.01518
11
0.720324
21
1.01837
0
LINE
8
BLACK
6
CONTINUOUS
10
0.720324
20
1.01837
11
0.723517
21
1.0205
0
LINE
8
BLACK
6
CONTINUOUS
10
0.723517
20
1.0205
11
0.727283
21
1.02125
0
LINE
8
BLACK
6
CONTINUOUS
10
0.727283
20
1.02125
11
0.762717
21
1.02125
0
LINE
8
BLACK
6
CONTINUOUS
10
0.762717
20
1.02125
11
0.766483
21
1.0205
0
LINE
8
BLACK
6
CONTINUOUS
10
0.832176
20
1.03581
11
0.835369
21
1.03368
0
LINE
8
BLACK
6
CONTINUOUS
10
0.835369
20
1.03368
11
0.837503
21
1.03048
0
LINE
8
BLACK
6
CONTINUOUS
10
0.837503
20
1.03048
11
0.838252
21
1.02672
0
LINE
8
BLACK
6
CONTINUOUS
10
0.838252
20
1.02672
11
0.838252
21
0.991283
0
LINE
8
BLACK
6
CONTINUOUS
10
0.838252
20
0.991283
11
0.837503
21
0.987517
0
LINE
8
BLACK
6
CONTINUOUS
10
0.837503
20
0.987517
11
0.835369
21
0.984324
0
LINE
8
BLACK
6
CONTINUOUS
10
0.835369
20
0.984324
11
0.832176
21
0.98219
0
LINE
8
BLACK
6
CONTINUOUS
10
0.832176
20
0.98219
11
0.828409
21
0.981441
0
LINE
8
BLACK
6
CONTINUOUS
10
0.828409
20
0.981441
11
0.80774
21
0.981441
0
LINE
8
BLACK
6
CONTINUOUS
10
0.80774
20
0.981441
11
0.803974
21
0.98219
0
LINE
8
BLACK
6
CONTINUOUS
10
0.803974
20
0.98219
11
0.80078
21
0.984324
0
LINE
8
BLACK
6
CONTINUOUS
10
0.80078
20
0.984324
11
0.798647
21
0.987517
0
LINE
8
BLACK
6
CONTINUOUS
10
0.798647
20
0.987517
11
0.797898
21
0.991283
0
LINE
8
BLACK
6
CONTINUOUS
10
0.797898
20
0.991283
11
0.797898
21
1.02672
0
LINE
8
BLACK
6
CONTINUOUS
10
0.797898
20
1.02672
11
0.798647
21
1.03048
0
LINE
8
BLACK
6
CONTINUOUS
10
0.798647
20
1.03048
11
0.80078
21
1.03368
0
LINE
8
BLACK
6
CONTINUOUS
10
0.80078
20
1.03368
11
0.803974
21
1.03581
0
LINE
8
BLACK
6
CONTINUOUS
10
0.803974
20
1.03581
11
0.80774
21
1.03656
0
LINE
8
BLACK
6
CONTINUOUS
10
0.80774
20
1.03656
11
0.828409
21
1.03656
0
LINE
8
BLACK
6
CONTINUOUS
10
0.828409
20
1.03656
11
0.832176
21
1.03581
0
LINE
8
BLACK
6
CONTINUOUS
10
0.904026
20
1.03581
11
0.90722
21
1.03368
0
LINE
8
BLACK
6
CONTINUOUS
10
0.90722
20
1.03368
11
0.909353
21
1.03048
0
LINE
8
BLACK
6
CONTINUOUS
10
0.909353
20
1.03048
11
0.910102
21
1.02672
0
LINE
8
BLACK
6
CONTINUOUS
10
0.910102
20
1.02672
11
0.910102
21
0.991283
0
LINE
8
BLACK
6
CONTINUOUS
10
0.910102
20
0.991283
11
0.909353
21
0.987517
0
LINE
8
BLACK
6
CONTINUOUS
10
0.909353
20
0.987517
11
0.90722
21
0.984324
0
LINE
8
BLACK
6
CONTINUOUS
10
0.90722
20
0.984324
11
0.904026
21
0.98219
0
LINE
8
BLACK
6
CONTINUOUS
10
0.904026
20
0.98219
11
0.90026
21
0.981441
0
LINE
8
BLACK
6
CONTINUOUS
10
0.90026
20
0.981441
11
0.879591
21
0.981441
0
LINE
8
BLACK
6
CONTINUOUS
10
0.879591
20
0.981441
11
0.875824
21
0.98219
0
LINE
8
BLACK
6
CONTINUOUS
10
0.875824
20
0.98219
11
0.872631
21
0.984324
0
LINE
8
BLACK
6
CONTINUOUS
10
0.872631
20
0.984324
11
0.870497
21
0.987517
0
LINE
8
BLACK
6
CONTINUOUS
10
0.870497
20
0.987517
11
0.869748
21
0.991283
0
LINE
8
BLACK
6
CONTINUOUS
10
0.869748
20
0.991283
11
0.869748
21
1.02672
0
LINE
8
BLACK
6
CONTINUOUS
10
0.869748
20
1.02672
11
0.870497
21
1.03048
0
LINE
8
BLACK
6
CONTINUOUS
10
0.870497
20
1.03048
11
0.872631
21
1.03368
0
LINE
8
BLACK
6
CONTINUOUS
10
0.872631
20
1.03368
11
0.875824
21
1.03581
0
LINE
8
BLACK
6
CONTINUOUS
10
0.875824
20
1.03581
11
0.879591
21
1.03656
0
LINE
8
BLACK
6
CONTINUOUS
10
0.879591
20
1.03656
11
0.90026
21
1.03656
0
LINE
8
BLACK
6
CONTINUOUS
10
0.90026
20
1.03656
11
0.904026
21
1.03581
0
LINE
8
BLACK
6
CONTINUOUS
10
0.766483
20
1.09235
11
0.769676
21
1.09022
0
LINE
8
BLACK
6
CONTINUOUS
10
0.769676
20
1.09022
11
0.77181
21
1.08703
0
LINE
8
BLACK
6
CONTINUOUS
10
0.77181
20
1.08703
11
0.772559
21
1.08326
0
LINE
8
BLACK
6
CONTINUOUS
10
0.772559
20
1.08326
11
0.772559
21
1.06259
0
LINE
8
BLACK
6
CONTINUOUS
10
0.772559
20
1.06259
11
0.77181
21
1.05882
0
LINE
8
BLACK
6
CONTINUOUS
10
0.77181
20
1.05882
11
0.769676
21
1.05563
0
LINE
8
BLACK
6
CONTINUOUS
10
0.769676
20
1.05563
11
0.766483
21
1.0535
0
LINE
8
BLACK
6
CONTINUOUS
10
0.766483
20
1.0535
11
0.762717
21
1.05275
0
LINE
8
BLACK
6
CONTINUOUS
10
0.762717
20
1.05275
11
0.727283
21
1.05275
0
LINE
8
BLACK
6
CONTINUOUS
10
0.727283
20
1.05275
11
0.723517
21
1.0535
0
LINE
8
BLACK
6
CONTINUOUS
10
0.723517
20
1.0535
11
0.720324
21
1.05563
0
LINE
8
BLACK
6
CONTINUOUS
10
0.720324
20
1.05563
11
0.71819
21
1.05882
0
LINE
8
BLACK
6
CONTINUOUS
10
0.71819
20
1.05882
11
0.717441
21
1.06259
0
LINE
8
BLACK
6
CONTINUOUS
10
0.717441
20
1.06259
11
0.717441
21
1.08326
0
LINE
8
BLACK
6
CONTINUOUS
10
0.717441
20
1.08326
11
0.71819
21
1.08703
0
LINE
8
BLACK
6
CONTINUOUS
10
0.71819
20
1.08703
11
0.720324
21
1.09022
0
LINE
8
BLACK
6
CONTINUOUS
10
0.720324
20
1.09022
11
0.723517
21
1.09235
0
LINE
8
BLACK
6
CONTINUOUS
10
0.723517
20
1.09235
11
0.727283
21
1.0931
0
LINE
8
BLACK
6
CONTINUOUS
10
0.727283
20
1.0931
11
0.762717
21
1.0931
0
LINE
8
BLACK
6
CONTINUOUS
10
0.762717
20
1.0931
11
0.766483
21
1.09235
0
LINE
8
BLACK
6
CONTINUOUS
10
0.54793
20
1.08427
11
0.548728
21
1.08374
0
LINE
8
BLACK
6
CONTINUOUS
10
0.548728
20
1.08374
11
0.549261
21
1.08294
0
LINE
8
BLACK
6
CONTINUOUS
10
0.549261
20
1.08294
11
0.549449
21
1.082
0
LINE
8
BLACK
6
CONTINUOUS
10
0.549449
20
1.082
11
0.549449
21
1.05543
0
LINE
8
BLACK
6
CONTINUOUS
10
0.549449
20
1.05543
11
0.549261
21
1.05448
0
LINE
8
BLACK
6
CONTINUOUS
10
0.549261
20
1.05448
11
0.548728
21
1.05369
0
LINE
8
BLACK
6
CONTINUOUS
10
0.548728
20
1.05369
11
0.54793
21
1.05315
0
LINE
8
BLACK
6
CONTINUOUS
10
0.54793
20
1.05315
11
0.546988
21
1.05297
0
LINE
8
BLACK
6
CONTINUOUS
10
0.546988
20
1.05297
11
0.542067
21
1.05297
0
LINE
8
BLACK
6
CONTINUOUS
10
0.542067
20
1.05297
11
0.541125
21
1.05315
0
LINE
8
BLACK
6
CONTINUOUS
10
0.541125
20
1.05315
11
0.540327
21
1.05369
0
LINE
8
BLACK
6
CONTINUOUS
10
0.540327
20
1.05369
11
0.539794
21
1.05448
0
LINE
8
BLACK
6
CONTINUOUS
10
0.539794
20
1.05448
11
0.539606
21
1.05543
0
LINE
8
BLACK
6
CONTINUOUS
10
0.539606
20
1.05543
11
0.539606
21
1.082
0
LINE
8
BLACK
6
CONTINUOUS
10
0.539606
20
1.082
11
0.539794
21
1.08294
0
LINE
8
BLACK
6
CONTINUOUS
10
0.539794
20
1.08294
11
0.540327
21
1.08374
0
LINE
8
BLACK
6
CONTINUOUS
10
0.540327
20
1.08374
11
0.541125
21
1.08427
0
LINE
8
BLACK
6
CONTINUOUS
10
0.541125
20
1.08427
11
0.542067
21
1.08446
0
LINE
8
BLACK
6
CONTINUOUS
10
0.542067
20
1.08446
11
0.546988
21
1.08446
0
LINE
8
BLACK
6
CONTINUOUS
10
0.546988
20
1.08446
11
0.54793
21
1.08427
0
LINE
8
BLACK
6
CONTINUOUS
10
0.488875
20
1.08427
11
0.489673
21
1.08374
0
LINE
8
BLACK
6
CONTINUOUS
10
0.489673
20
1.08374
11
0.490206
21
1.08294
0
LINE
8
BLACK
6
CONTINUOUS
10
0.490206
20
1.08294
11
0.490394
21
1.082
0
LINE
8
BLACK
6
CONTINUOUS
10
0.490394
20
1.082
11
0.490394
21
1.05543
0
LINE
8
BLACK
6
CONTINUOUS
10
0.490394
20
1.05543
11
0.490206
21
1.05448
0
LINE
8
BLACK
6
CONTINUOUS
10
0.490206
20
1.05448
11
0.489673
21
1.05369
0
LINE
8
BLACK
6
CONTINUOUS
10
0.489673
20
1.05369
11
0.488875
21
1.05315
0
LINE
8
BLACK
6
CONTINUOUS
10
0.488875
20
1.05315
11
0.487933
21
1.05297
0
LINE
8
BLACK
6
CONTINUOUS
10
0.487933
20
1.05297
11
0.483012
21
1.05297
0
LINE
8
BLACK
6
CONTINUOUS
10
0.483012
20
1.05297
11
0.48207
21
1.05315
0
LINE
8
BLACK
6
CONTINUOUS
10
0.48207
20
1.05315
11
0.481272
21
1.05369
0
LINE
8
BLACK
6
CONTINUOUS
10
0.481272
20
1.05369
11
0.480739
21
1.05448
0
LINE
8
BLACK
6
CONTINUOUS
10
0.480739
20
1.05448
11
0.480551
21
1.05543
0
LINE
8
BLACK
6
CONTINUOUS
10
0.480551
20
1.05543
11
0.480551
21
1.082
0
LINE
8
BLACK
6
CONTINUOUS
10
0.480551
20
1.082
11
0.480739
21
1.08294
0
LINE
8
BLACK
6
CONTINUOUS
10
0.480739
20
1.08294
11
0.481272
21
1.08374
0
LINE
8
BLACK
6
CONTINUOUS
10
0.481272
20
1.08374
11
0.48207
21
1.08427
0
LINE
8
BLACK
6
CONTINUOUS
10
0.48207
20
1.08427
11
0.483012
21
1.08446
0
LINE
8
BLACK
6
CONTINUOUS
10
0.483012
20
1.08446
11
0.487933
21
1.08446
0
LINE
8
BLACK
6
CONTINUOUS
10
0.487933
20
1.08446
11
0.488875
21
1.08427
0
LINE
8
BLACK
6
CONTINUOUS
10
0.50856
20
1.08427
11
0.509358
21
1.08374
0
LINE
8
BLACK
6
CONTINUOUS
10
0.509358
20
1.08374
11
0.509891
21
1.08294
0
LINE
8
BLACK
6
CONTINUOUS
10
0.509891
20
1.08294
11
0.510079
21
1.082
0
LINE
8
BLACK
6
CONTINUOUS
10
0.510079
20
1.082
11
0.510079
21
1.05543
0
LINE
8
BLACK
6
CONTINUOUS
10
0.510079
20
1.05543
11
0.509891
21
1.05448
0
LINE
8
BLACK
6
CONTINUOUS
10
0.509891
20
1.05448
11
0.509358
21
1.05369
0
LINE
8
BLACK
6
CONTINUOUS
10
0.509358
20
1.05369
11
0.50856
21
1.05315
0
LINE
8
BLACK
6
CONTINUOUS
10
0.50856
20
1.05315
11
0.507618
21
1.05297
0
LINE
8
BLACK
6
CONTINUOUS
10
0.507618
20
1.05297
11
0.502697
21
1.05297
0
LINE
8
BLACK
6
CONTINUOUS
10
0.502697
20
1.05297
11
0.501755
21
1.05315
0
LINE
8
BLACK
6
CONTINUOUS
10
0.501755
20
1.05315
11
0.500957
21
1.05369
0
LINE
8
BLACK
6
CONTINUOUS
10
0.500957
20
1.05369
11
0.500424
21
1.05448
0
LINE
8
BLACK
6
CONTINUOUS
10
0.500424
20
1.05448
11
0.500236
21
1.05543
0
LINE
8
BLACK
6
CONTINUOUS
10
0.500236
20
1.05543
11
0.500236
21
1.082
0
LINE
8
BLACK
6
CONTINUOUS
10
0.500236
20
1.082
11
0.500424
21
1.08294
0
LINE
8
BLACK
6
CONTINUOUS
10
0.500424
20
1.08294
11
0.500957
21
1.08374
0
LINE
8
BLACK
6
CONTINUOUS
10
0.500957
20
1.08374
11
0.501755
21
1.08427
0
LINE
8
BLACK
6
CONTINUOUS
10
0.501755
20
1.08427
11
0.502697
21
1.08446
0
LINE
8
BLACK
6
CONTINUOUS
10
0.502697
20
1.08446
11
0.507618
21
1.08446
0
LINE
8
BLACK
6
CONTINUOUS
10
0.507618
20
1.08446
11
0.50856
21
1.08427
0
LINE
8
BLACK
6
CONTINUOUS
10
0.528245
20
1.08427
11
0.529043
21
1.08374
0
LINE
8
BLACK
6
CONTINUOUS
10
0.529043
20
1.08374
11
0.529576
21
1.08294
0
LINE
8
BLACK
6
CONTINUOUS
10
0.529576
20
1.08294
11
0.529764
21
1.082
0
LINE
8
BLACK
6
CONTINUOUS
10
0.529764
20
1.082
11
0.529764
21
1.05543
0
LINE
8
BLACK
6
CONTINUOUS
10
0.529764
20
1.05543
11
0.529576
21
1.05448
0
LINE
8
BLACK
6
CONTINUOUS
10
0.529576
20
1.05448
11
0.529043
21
1.05369
0
LINE
8
BLACK
6
CONTINUOUS
10
0.529043
20
1.05369
11
0.528245
21
1.05315
0
LINE
8
BLACK
6
CONTINUOUS
10
0.528245
20
1.05315
11
0.527303
21
1.05297
0
LINE
8
BLACK
6
CONTINUOUS
10
0.527303
20
1.05297
11
0.522382
21
1.05297
0
LINE
8
BLACK
6
CONTINUOUS
10
0.522382
20
1.05297
11
0.52144
21
1.05315
0
LINE
8
BLACK
6
CONTINUOUS
10
0.52144
20
1.05315
11
0.520642
21
1.05369
0
LINE
8
BLACK
6
CONTINUOUS
10
0.520642
20
1.05369
11
0.520109
21
1.05448
0
LINE
8
BLACK
6
CONTINUOUS
10
0.520109
20
1.05448
11
0.519921
21
1.05543
0
LINE
8
BLACK
6
CONTINUOUS
10
0.519921
20
1.05543
11
0.519921
21
1.082
0
LINE
8
BLACK
6
CONTINUOUS
10
0.519921
20
1.082
11
0.520109
21
1.08294
0
LINE
8
BLACK
6
CONTINUOUS
10
0.520109
20
1.08294
11
0.520642
21
1.08374
0
LINE
8
BLACK
6
CONTINUOUS
10
0.520642
20
1.08374
11
0.52144
21
1.08427
0
LINE
8
BLACK
6
CONTINUOUS
10
0.52144
20
1.08427
11
0.522382
21
1.08446
0
LINE
8
BLACK
6
CONTINUOUS
10
0.522382
20
1.08446
11
0.527303
21
1.08446
0
LINE
8
BLACK
6
CONTINUOUS
10
0.527303
20
1.08446
11
0.528245
21
1.08427
0
LINE
8
BLACK
6
CONTINUOUS
10
0.235433
20
1.07533
11
0.164567
21
1.07533
0
LINE
8
BLACK
6
CONTINUOUS
10
0.164567
20
1.07533
11
0.164567
21
1.17375
0
LINE
8
BLACK
6
CONTINUOUS
10
0.164567
20
1.17375
11
0.235433
21
1.17375
0
LINE
8
BLACK
6
CONTINUOUS
10
0.235433
20
1.17375
11
0.235433
21
1.07533
0
LINE
8
BLACK
6
CONTINUOUS
10
0.586316
20
1.10101
11
0.587114
21
1.10047
0
LINE
8
BLACK
6
CONTINUOUS
10
0.587114
20
1.10047
11
0.587647
21
1.09967
0
LINE
8
BLACK
6
CONTINUOUS
10
0.587647
20
1.09967
11
0.587835
21
1.09873
0
LINE
8
BLACK
6
CONTINUOUS
10
0.587835
20
1.09873
11
0.587835
21
1.09381
0
LINE
8
BLACK
6
CONTINUOUS
10
0.587835
20
1.09381
11
0.587647
21
1.09287
0
LINE
8
BLACK
6
CONTINUOUS
10
0.587647
20
1.09287
11
0.587114
21
1.09207
0
LINE
8
BLACK
6
CONTINUOUS
10
0.587114
20
1.09207
11
0.586316
21
1.09154
0
LINE
8
BLACK
6
CONTINUOUS
10
0.586316
20
1.09154
11
0.585374
21
1.09135
0
LINE
8
BLACK
6
CONTINUOUS
10
0.585374
20
1.09135
11
0.558799
21
1.09135
0
LINE
8
BLACK
6
CONTINUOUS
10
0.558799
20
1.09135
11
0.557858
21
1.09154
0
LINE
8
BLACK
6
CONTINUOUS
10
0.557858
20
1.09154
11
0.557059
21
1.09207
0
LINE
8
BLACK
6
CONTINUOUS
10
0.557059
20
1.09207
11
0.556526
21
1.09287
0
LINE
8
BLACK
6
CONTINUOUS
10
0.556526
20
1.09287
11
0.556339
21
1.09381
0
LINE
8
BLACK
6
CONTINUOUS
10
0.556339
20
1.09381
11
0.556339
21
1.09873
0
LINE
8
BLACK
6
CONTINUOUS
10
0.556339
20
1.09873
11
0.556526
21
1.09967
0
LINE
8
BLACK
6
CONTINUOUS
10
0.556526
20
1.09967
11
0.557059
21
1.10047
0
LINE
8
BLACK
6
CONTINUOUS
10
0.557059
20
1.10047
11
0.557858
21
1.10101
0
LINE
8
BLACK
6
CONTINUOUS
10
0.557858
20
1.10101
11
0.558799
21
1.10119
0
LINE
8
BLACK
6
CONTINUOUS
10
0.558799
20
1.10119
11
0.585374
21
1.10119
0
LINE
8
BLACK
6
CONTINUOUS
10
0.585374
20
1.10119
11
0.586316
21
1.10101
0
LINE
8
BLACK
6
CONTINUOUS
10
0.472142
20
1.10101
11
0.472941
21
1.10047
0
LINE
8
BLACK
6
CONTINUOUS
10
0.472941
20
1.10047
11
0.473474
21
1.09967
0
LINE
8
BLACK
6
CONTINUOUS
10
0.473474
20
1.09967
11
0.473661
21
1.09873
0
LINE
8
BLACK
6
CONTINUOUS
10
0.473661
20
1.09873
11
0.473661
21
1.09381
0
LINE
8
BLACK
6
CONTINUOUS
10
0.473661
20
1.09381
11
0.473474
21
1.09287
0
LINE
8
BLACK
6
CONTINUOUS
10
0.473474
20
1.09287
11
0.472941
21
1.09207
0
LINE
8
BLACK
6
CONTINUOUS
10
0.472941
20
1.09207
11
0.472142
21
1.09154
0
LINE
8
BLACK
6
CONTINUOUS
10
0.472142
20
1.09154
11
0.471201
21
1.09135
0
LINE
8
BLACK
6
CONTINUOUS
10
0.471201
20
1.09135
11
0.444626
21
1.09135
0
LINE
8
BLACK
6
CONTINUOUS
10
0.444626
20
1.09135
11
0.443684
21
1.09154
0
LINE
8
BLACK
6
CONTINUOUS
10
0.443684
20
1.09154
11
0.442886
21
1.09207
0
LINE
8
BLACK
6
CONTINUOUS
10
0.442886
20
1.09207
11
0.442353
21
1.09287
0
LINE
8
BLACK
6
CONTINUOUS
10
0.442353
20
1.09287
11
0.442165
21
1.09381
0
LINE
8
BLACK
6
CONTINUOUS
10
0.442165
20
1.09381
11
0.442165
21
1.09873
0
LINE
8
BLACK
6
CONTINUOUS
10
0.442165
20
1.09873
11
0.442353
21
1.09967
0
LINE
8
BLACK
6
CONTINUOUS
10
0.442353
20
1.09967
11
0.442886
21
1.10047
0
LINE
8
BLACK
6
CONTINUOUS
10
0.442886
20
1.10047
11
0.443684
21
1.10101
0
LINE
8
BLACK
6
CONTINUOUS
10
0.443684
20
1.10101
11
0.444626
21
1.10119
0
LINE
8
BLACK
6
CONTINUOUS
10
0.444626
20
1.10119
11
0.471201
21
1.10119
0
LINE
8
BLACK
6
CONTINUOUS
10
0.471201
20
1.10119
11
0.472142
21
1.10101
0
LINE
8
BLACK
6
CONTINUOUS
10
0.541803
20
1.12308
11
0.544166
21
1.1215
0
LINE
8
BLACK
6
CONTINUOUS
10
0.544166
20
1.1215
11
0.545745
21
1.11914
0
LINE
8
BLACK
6
CONTINUOUS
10
0.545745
20
1.11914
11
0.546299
21
1.11635
0
LINE
8
BLACK
6
CONTINUOUS
10
0.546299
20
1.11635
11
0.546299
21
1.10178
0
LINE
8
BLACK
6
CONTINUOUS
10
0.546299
20
1.10178
11
0.545745
21
1.099
0
LINE
8
BLACK
6
CONTINUOUS
10
0.545745
20
1.099
11
0.544166
21
1.09663
0
LINE
8
BLACK
6
CONTINUOUS
10
0.544166
20
1.09663
11
0.541803
21
1.09506
0
LINE
8
BLACK
6
CONTINUOUS
10
0.541803
20
1.09506
11
0.539016
21
1.0945
0
LINE
8
BLACK
6
CONTINUOUS
10
0.539016
20
1.0945
11
0.524449
21
1.0945
0
LINE
8
BLACK
6
CONTINUOUS
10
0.524449
20
1.0945
11
0.521662
21
1.09506
0
LINE
8
BLACK
6
CONTINUOUS
10
0.521662
20
1.09506
11
0.519299
21
1.09663
0
LINE
8
BLACK
6
CONTINUOUS
10
0.519299
20
1.09663
11
0.51772
21
1.099
0
LINE
8
BLACK
6
CONTINUOUS
10
0.51772
20
1.099
11
0.517165
21
1.10178
0
LINE
8
BLACK
6
CONTINUOUS
10
0.517165
20
1.10178
11
0.517165
21
1.11635
0
LINE
8
BLACK
6
CONTINUOUS
10
0.517165
20
1.11635
11
0.51772
21
1.11914
0
LINE
8
BLACK
6
CONTINUOUS
10
0.51772
20
1.11914
11
0.519299
21
1.1215
0
LINE
8
BLACK
6
CONTINUOUS
10
0.519299
20
1.1215
11
0.521662
21
1.12308
0
LINE
8
BLACK
6
CONTINUOUS
10
0.521662
20
1.12308
11
0.524449
21
1.12363
0
LINE
8
BLACK
6
CONTINUOUS
10
0.524449
20
1.12363
11
0.539016
21
1.12363
0
LINE
8
BLACK
6
CONTINUOUS
10
0.539016
20
1.12363
11
0.541803
21
1.12308
0
LINE
8
BLACK
6
CONTINUOUS
10
0.508338
20
1.12308
11
0.510701
21
1.1215
0
LINE
8
BLACK
6
CONTINUOUS
10
0.510701
20
1.1215
11
0.51228
21
1.11914
0
LINE
8
BLACK
6
CONTINUOUS
10
0.51228
20
1.11914
11
0.512835
21
1.11635
0
LINE
8
BLACK
6
CONTINUOUS
10
0.512835
20
1.11635
11
0.512835
21
1.10178
0
LINE
8
BLACK
6
CONTINUOUS
10
0.512835
20
1.10178
11
0.51228
21
1.099
0
LINE
8
BLACK
6
CONTINUOUS
10
0.51228
20
1.099
11
0.510701
21
1.09663
0
LINE
8
BLACK
6
CONTINUOUS
10
0.510701
20
1.09663
11
0.508338
21
1.09506
0
LINE
8
BLACK
6
CONTINUOUS
10
0.508338
20
1.09506
11
0.505551
21
1.0945
0
LINE
8
BLACK
6
CONTINUOUS
10
0.505551
20
1.0945
11
0.490984
21
1.0945
0
LINE
8
BLACK
6
CONTINUOUS
10
0.490984
20
1.0945
11
0.488197
21
1.09506
0
LINE
8
BLACK
6
CONTINUOUS
10
0.488197
20
1.09506
11
0.485834
21
1.09663
0
LINE
8
BLACK
6
CONTINUOUS
10
0.485834
20
1.09663
11
0.484255
21
1.099
0
LINE
8
BLACK
6
CONTINUOUS
10
0.484255
20
1.099
11
0.483701
21
1.10178
0
LINE
8
BLACK
6
CONTINUOUS
10
0.483701
20
1.10178
11
0.483701
21
1.11635
0
LINE
8
BLACK
6
CONTINUOUS
10
0.483701
20
1.11635
11
0.484255
21
1.11914
0
LINE
8
BLACK
6
CONTINUOUS
10
0.484255
20
1.11914
11
0.485834
21
1.1215
0
LINE
8
BLACK
6
CONTINUOUS
10
0.485834
20
1.1215
11
0.488197
21
1.12308
0
LINE
8
BLACK
6
CONTINUOUS
10
0.488197
20
1.12308
11
0.490984
21
1.12363
0
LINE
8
BLACK
6
CONTINUOUS
10
0.490984
20
1.12363
11
0.505551
21
1.12363
0
LINE
8
BLACK
6
CONTINUOUS
10
0.505551
20
1.12363
11
0.508338
21
1.12308
0
LINE
8
BLACK
6
CONTINUOUS
10
0.472142
20
1.12069
11
0.472941
21
1.12016
0
LINE
8
BLACK
6
CONTINUOUS
10
0.472941
20
1.12016
11
0.473474
21
1.11936
0
LINE
8
BLACK
6
CONTINUOUS
10
0.473474
20
1.11936
11
0.473661
21
1.11842
0
LINE
8
BLACK
6
CONTINUOUS
10
0.473661
20
1.11842
11
0.473661
21
1.1135
0
LINE
8
BLACK
6
CONTINUOUS
10
0.473661
20
1.1135
11
0.473474
21
1.11256
0
LINE
8
BLACK
6
CONTINUOUS
10
0.473474
20
1.11256
11
0.472941
21
1.11176
0
LINE
8
BLACK
6
CONTINUOUS
10
0.472941
20
1.11176
11
0.472142
21
1.11122
0
LINE
8
BLACK
6
CONTINUOUS
10
0.472142
20
1.11122
11
0.471201
21
1.11104
0
LINE
8
BLACK
6
CONTINUOUS
10
0.471201
20
1.11104
11
0.444626
21
1.11104
0
LINE
8
BLACK
6
CONTINUOUS
10
0.444626
20
1.11104
11
0.443684
21
1.11122
0
LINE
8
BLACK
6
CONTINUOUS
10
0.443684
20
1.11122
11
0.442886
21
1.11176
0
LINE
8
BLACK
6
CONTINUOUS
10
0.442886
20
1.11176
11
0.442353
21
1.11256
0
LINE
8
BLACK
6
CONTINUOUS
10
0.442353
20
1.11256
11
0.442165
21
1.1135
0
LINE
8
BLACK
6
CONTINUOUS
10
0.442165
20
1.1135
11
0.442165
21
1.11842
0
LINE
8
BLACK
6
CONTINUOUS
10
0.442165
20
1.11842
11
0.442353
21
1.11936
0
LINE
8
BLACK
6
CONTINUOUS
10
0.442353
20
1.11936
11
0.442886
21
1.12016
0
LINE
8
BLACK
6
CONTINUOUS
10
0.442886
20
1.12016
11
0.443684
21
1.12069
0
LINE
8
BLACK
6
CONTINUOUS
10
0.443684
20
1.12069
11
0.444626
21
1.12088
0
LINE
8
BLACK
6
CONTINUOUS
10
0.444626
20
1.12088
11
0.471201
21
1.12088
0
LINE
8
BLACK
6
CONTINUOUS
10
0.471201
20
1.12088
11
0.472142
21
1.12069
0
LINE
8
BLACK
6
CONTINUOUS
10
0.586316
20
1.12069
11
0.587114
21
1.12016
0
LINE
8
BLACK
6
CONTINUOUS
10
0.587114
20
1.12016
11
0.587647
21
1.11936
0
LINE
8
BLACK
6
CONTINUOUS
10
0.587647
20
1.11936
11
0.587835
21
1.11842
0
LINE
8
BLACK
6
CONTINUOUS
10
0.587835
20
1.11842
11
0.587835
21
1.1135
0
LINE
8
BLACK
6
CONTINUOUS
10
0.587835
20
1.1135
11
0.587647
21
1.11256
0
LINE
8
BLACK
6
CONTINUOUS
10
0.587647
20
1.11256
11
0.587114
21
1.11176
0
LINE
8
BLACK
6
CONTINUOUS
10
0.587114
20
1.11176
11
0.586316
21
1.11122
0
LINE
8
BLACK
6
CONTINUOUS
10
0.586316
20
1.11122
11
0.585374
21
1.11104
0
LINE
8
BLACK
6
CONTINUOUS
10
0.585374
20
1.11104
11
0.558799
21
1.11104
0
LINE
8
BLACK
6
CONTINUOUS
10
0.558799
20
1.11104
11
0.557858
21
1.11122
0
LINE
8
BLACK
6
CONTINUOUS
10
0.557858
20
1.11122
11
0.557059
21
1.11176
0
LINE
8
BLACK
6
CONTINUOUS
10
0.557059
20
1.11176
11
0.556526
21
1.11256
0
LINE
8
BLACK
6
CONTINUOUS
10
0.556526
20
1.11256
11
0.556339
21
1.1135
0
LINE
8
BLACK
6
CONTINUOUS
10
0.556339
20
1.1135
11
0.556339
21
1.11842
0
LINE
8
BLACK
6
CONTINUOUS
10
0.556339
20
1.11842
11
0.556526
21
1.11936
0
LINE
8
BLACK
6
CONTINUOUS
10
0.556526
20
1.11936
11
0.557059
21
1.12016
0
LINE
8
BLACK
6
CONTINUOUS
10
0.557059
20
1.12016
11
0.557858
21
1.12069
0
LINE
8
BLACK
6
CONTINUOUS
10
0.557858
20
1.12069
11
0.558799
21
1.12088
0
LINE
8
BLACK
6
CONTINUOUS
10
0.558799
20
1.12088
11
0.585374
21
1.12088
0
LINE
8
BLACK
6
CONTINUOUS
10
0.585374
20
1.12088
11
0.586316
21
1.12069
0
LINE
8
BLACK
6
CONTINUOUS
10
0.508338
20
1.15654
11
0.510701
21
1.15497
0
LINE
8
BLACK
6
CONTINUOUS
10
0.510701
20
1.15497
11
0.51228
21
1.1526
0
LINE
8
BLACK
6
CONTINUOUS
10
0.51228
20
1.1526
11
0.512835
21
1.14982
0
LINE
8
BLACK
6
CONTINUOUS
10
0.512835
20
1.14982
11
0.512835
21
1.13525
0
LINE
8
BLACK
6
CONTINUOUS
10
0.512835
20
1.13525
11
0.51228
21
1.13246
0
LINE
8
BLACK
6
CONTINUOUS
10
0.51228
20
1.13246
11
0.510701
21
1.1301
0
LINE
8
BLACK
6
CONTINUOUS
10
0.510701
20
1.1301
11
0.508338
21
1.12852
0
LINE
8
BLACK
6
CONTINUOUS
10
0.508338
20
1.12852
11
0.505551
21
1.12797
0
LINE
8
BLACK
6
CONTINUOUS
10
0.505551
20
1.12797
11
0.490984
21
1.12797
0
LINE
8
BLACK
6
CONTINUOUS
10
0.490984
20
1.12797
11
0.488197
21
1.12852
0
LINE
8
BLACK
6
CONTINUOUS
10
0.488197
20
1.12852
11
0.485834
21
1.1301
0
LINE
8
BLACK
6
CONTINUOUS
10
0.485834
20
1.1301
11
0.484255
21
1.13246
0
LINE
8
BLACK
6
CONTINUOUS
10
0.484255
20
1.13246
11
0.483701
21
1.13525
0
LINE
8
BLACK
6
CONTINUOUS
10
0.483701
20
1.13525
11
0.483701
21
1.14982
0
LINE
8
BLACK
6
CONTINUOUS
10
0.483701
20
1.14982
11
0.484255
21
1.1526
0
LINE
8
BLACK
6
CONTINUOUS
10
0.484255
20
1.1526
11
0.485834
21
1.15497
0
LINE
8
BLACK
6
CONTINUOUS
10
0.485834
20
1.15497
11
0.488197
21
1.15654
0
LINE
8
BLACK
6
CONTINUOUS
10
0.488197
20
1.15654
11
0.490984
21
1.1571
0
LINE
8
BLACK
6
CONTINUOUS
10
0.490984
20
1.1571
11
0.505551
21
1.1571
0
LINE
8
BLACK
6
CONTINUOUS
10
0.505551
20
1.1571
11
0.508338
21
1.15654
0
LINE
8
BLACK
6
CONTINUOUS
10
0.541803
20
1.15654
11
0.544166
21
1.15497
0
LINE
8
BLACK
6
CONTINUOUS
10
0.544166
20
1.15497
11
0.545745
21
1.1526
0
LINE
8
BLACK
6
CONTINUOUS
10
0.545745
20
1.1526
11
0.546299
21
1.14982
0
LINE
8
BLACK
6
CONTINUOUS
10
0.546299
20
1.14982
11
0.546299
21
1.13525
0
LINE
8
BLACK
6
CONTINUOUS
10
0.546299
20
1.13525
11
0.545745
21
1.13246
0
LINE
8
BLACK
6
CONTINUOUS
10
0.545745
20
1.13246
11
0.544166
21
1.1301
0
LINE
8
BLACK
6
CONTINUOUS
10
0.544166
20
1.1301
11
0.541803
21
1.12852
0
LINE
8
BLACK
6
CONTINUOUS
10
0.541803
20
1.12852
11
0.539016
21
1.12797
0
LINE
8
BLACK
6
CONTINUOUS
10
0.539016
20
1.12797
11
0.524449
21
1.12797
0
LINE
8
BLACK
6
CONTINUOUS
10
0.524449
20
1.12797
11
0.521662
21
1.12852
0
LINE
8
BLACK
6
CONTINUOUS
10
0.521662
20
1.12852
11
0.519299
21
1.1301
0
LINE
8
BLACK
6
CONTINUOUS
10
0.519299
20
1.1301
11
0.51772
21
1.13246
0
LINE
8
BLACK
6
CONTINUOUS
10
0.51772
20
1.13246
11
0.517165
21
1.13525
0
LINE
8
BLACK
6
CONTINUOUS
10
0.517165
20
1.13525
11
0.517165
21
1.14982
0
LINE
8
BLACK
6
CONTINUOUS
10
0.517165
20
1.14982
11
0.51772
21
1.1526
0
LINE
8
BLACK
6
CONTINUOUS
10
0.51772
20
1.1526
11
0.519299
21
1.15497
0
LINE
8
BLACK
6
CONTINUOUS
10
0.519299
20
1.15497
11
0.521662
21
1.15654
0
LINE
8
BLACK
6
CONTINUOUS
10
0.521662
20
1.15654
11
0.524449
21
1.1571
0
LINE
8
BLACK
6
CONTINUOUS
10
0.524449
20
1.1571
11
0.539016
21
1.1571
0
LINE
8
BLACK
6
CONTINUOUS
10
0.539016
20
1.1571
11
0.541803
21
1.15654
0
LINE
8
BLACK
6
CONTINUOUS
10
0.586316
20
1.14038
11
0.587114
21
1.13984
0
LINE
8
BLACK
6
CONTINUOUS
10
0.587114
20
1.13984
11
0.587647
21
1.13904
0
LINE
8
BLACK
6
CONTINUOUS
10
0.587647
20
1.13904
11
0.587835
21
1.1381
0
LINE
8
BLACK
6
CONTINUOUS
10
0.587835
20
1.1381
11
0.587835
21
1.13318
0
LINE
8
BLACK
6
CONTINUOUS
10
0.587835
20
1.13318
11
0.587647
21
1.13224
0
LINE
8
BLACK
6
CONTINUOUS
10
0.587647
20
1.13224
11
0.587114
21
1.13144
0
LINE
8
BLACK
6
CONTINUOUS
10
0.587114
20
1.13144
11
0.586316
21
1.13091
0
LINE
8
BLACK
6
CONTINUOUS
10
0.586316
20
1.13091
11
0.585374
21
1.13072
0
LINE
8
BLACK
6
CONTINUOUS
10
0.585374
20
1.13072
11
0.558799
21
1.13072
0
LINE
8
BLACK
6
CONTINUOUS
10
0.558799
20
1.13072
11
0.557858
21
1.13091
0
LINE
8
BLACK
6
CONTINUOUS
10
0.557858
20
1.13091
11
0.557059
21
1.13144
0
LINE
8
BLACK
6
CONTINUOUS
10
0.557059
20
1.13144
11
0.556526
21
1.13224
0
LINE
8
BLACK
6
CONTINUOUS
10
0.556526
20
1.13224
11
0.556339
21
1.13318
0
LINE
8
BLACK
6
CONTINUOUS
10
0.556339
20
1.13318
11
0.556339
21
1.1381
0
LINE
8
BLACK
6
CONTINUOUS
10
0.556339
20
1.1381
11
0.556526
21
1.13904
0
LINE
8
BLACK
6
CONTINUOUS
10
0.556526
20
1.13904
11
0.557059
21
1.13984
0
LINE
8
BLACK
6
CONTINUOUS
10
0.557059
20
1.13984
11
0.557858
21
1.14038
0
LINE
8
BLACK
6
CONTINUOUS
10
0.557858
20
1.14038
11
0.558799
21
1.14056
0
LINE
8
BLACK
6
CONTINUOUS
10
0.558799
20
1.14056
11
0.585374
21
1.14056
0
LINE
8
BLACK
6
CONTINUOUS
10
0.585374
20
1.14056
11
0.586316
21
1.14038
0
LINE
8
BLACK
6
CONTINUOUS
10
0.472142
20
1.14038
11
0.472941
21
1.13984
0
LINE
8
BLACK
6
CONTINUOUS
10
0.472941
20
1.13984
11
0.473474
21
1.13904
0
LINE
8
BLACK
6
CONTINUOUS
10
0.473474
20
1.13904
11
0.473661
21
1.1381
0
LINE
8
BLACK
6
CONTINUOUS
10
0.473661
20
1.1381
11
0.473661
21
1.13318
0
LINE
8
BLACK
6
CONTINUOUS
10
0.473661
20
1.13318
11
0.473474
21
1.13224
0
LINE
8
BLACK
6
CONTINUOUS
10
0.473474
20
1.13224
11
0.472941
21
1.13144
0
LINE
8
BLACK
6
CONTINUOUS
10
0.472941
20
1.13144
11
0.472142
21
1.13091
0
LINE
8
BLACK
6
CONTINUOUS
10
0.472142
20
1.13091
11
0.471201
21
1.13072
0
LINE
8
BLACK
6
CONTINUOUS
10
0.471201
20
1.13072
11
0.444626
21
1.13072
0
LINE
8
BLACK
6
CONTINUOUS
10
0.444626
20
1.13072
11
0.443684
21
1.13091
0
LINE
8
BLACK
6
CONTINUOUS
10
0.443684
20
1.13091
11
0.442886
21
1.13144
0
LINE
8
BLACK
6
CONTINUOUS
10
0.442886
20
1.13144
11
0.442353
21
1.13224
0
LINE
8
BLACK
6
CONTINUOUS
10
0.442353
20
1.13224
11
0.442165
21
1.13318
0
LINE
8
BLACK
6
CONTINUOUS
10
0.442165
20
1.13318
11
0.442165
21
1.1381
0
LINE
8
BLACK
6
CONTINUOUS
10
0.442165
20
1.1381
11
0.442353
21
1.13904
0
LINE
8
BLACK
6
CONTINUOUS
10
0.442353
20
1.13904
11
0.442886
21
1.13984
0
LINE
8
BLACK
6
CONTINUOUS
10
0.442886
20
1.13984
11
0.443684
21
1.14038
0
LINE
8
BLACK
6
CONTINUOUS
10
0.443684
20
1.14038
11
0.444626
21
1.14056
0
LINE
8
BLACK
6
CONTINUOUS
10
0.444626
20
1.14056
11
0.471201
21
1.14056
0
LINE
8
BLACK
6
CONTINUOUS
10
0.471201
20
1.14056
11
0.472142
21
1.14038
0
LINE
8
BLACK
6
CONTINUOUS
10
0.767483
20
1.1725
11
0.770676
21
1.17037
0
LINE
8
BLACK
6
CONTINUOUS
10
0.770676
20
1.17037
11
0.77281
21
1.16718
0
LINE
8
BLACK
6
CONTINUOUS
10
0.77281
20
1.16718
11
0.773559
21
1.16341
0
LINE
8
BLACK
6
CONTINUOUS
10
0.773559
20
1.16341
11
0.773559
21
1.14274
0
LINE
8
BLACK
6
CONTINUOUS
10
0.773559
20
1.14274
11
0.77281
21
1.13897
0
LINE
8
BLACK
6
CONTINUOUS
10
0.77281
20
1.13897
11
0.770676
21
1.13578
0
LINE
8
BLACK
6
CONTINUOUS
10
0.770676
20
1.13578
11
0.767483
21
1.13365
0
LINE
8
BLACK
6
CONTINUOUS
10
0.767483
20
1.13365
11
0.763717
21
1.1329
0
LINE
8
BLACK
6
CONTINUOUS
10
0.763717
20
1.1329
11
0.728283
21
1.1329
0
LINE
8
BLACK
6
CONTINUOUS
10
0.728283
20
1.1329
11
0.724517
21
1.13365
0
LINE
8
BLACK
6
CONTINUOUS
10
0.724517
20
1.13365
11
0.721324
21
1.13578
0
LINE
8
BLACK
6
CONTINUOUS
10
0.721324
20
1.13578
11
0.71919
21
1.13897
0
LINE
8
BLACK
6
CONTINUOUS
10
0.71919
20
1.13897
11
0.718441
21
1.14274
0
LINE
8
BLACK
6
CONTINUOUS
10
0.718441
20
1.14274
11
0.718441
21
1.16341
0
LINE
8
BLACK
6
CONTINUOUS
10
0.718441
20
1.16341
11
0.71919
21
1.16718
0
LINE
8
BLACK
6
CONTINUOUS
10
0.71919
20
1.16718
11
0.721324
21
1.17037
0
LINE
8
BLACK
6
CONTINUOUS
10
0.721324
20
1.17037
11
0.724517
21
1.1725
0
LINE
8
BLACK
6
CONTINUOUS
10
0.724517
20
1.1725
11
0.728283
21
1.17325
0
LINE
8
BLACK
6
CONTINUOUS
10
0.728283
20
1.17325
11
0.763717
21
1.17325
0
LINE
8
BLACK
6
CONTINUOUS
10
0.763717
20
1.17325
11
0.767483
21
1.1725
0
LINE
8
BLACK
6
CONTINUOUS
10
0.387483
20
1.1725
11
0.390676
21
1.17037
0
LINE
8
BLACK
6
CONTINUOUS
10
0.390676
20
1.17037
11
0.39281
21
1.16718
0
LINE
8
BLACK
6
CONTINUOUS
10
0.39281
20
1.16718
11
0.393559
21
1.16341
0
LINE
8
BLACK
6
CONTINUOUS
10
0.393559
20
1.16341
11
0.393559
21
1.14274
0
LINE
8
BLACK
6
CONTINUOUS
10
0.393559
20
1.14274
11
0.39281
21
1.13897
0
LINE
8
BLACK
6
CONTINUOUS
10
0.39281
20
1.13897
11
0.390676
21
1.13578
0
LINE
8
BLACK
6
CONTINUOUS
10
0.390676
20
1.13578
11
0.387483
21
1.13365
0
LINE
8
BLACK
6
CONTINUOUS
10
0.387483
20
1.13365
11
0.383717
21
1.1329
0
LINE
8
BLACK
6
CONTINUOUS
10
0.383717
20
1.1329
11
0.348283
21
1.1329
0
LINE
8
BLACK
6
CONTINUOUS
10
0.348283
20
1.1329
11
0.344517
21
1.13365
0
LINE
8
BLACK
6
CONTINUOUS
10
0.344517
20
1.13365
11
0.341324
21
1.13578
0
LINE
8
BLACK
6
CONTINUOUS
10
0.341324
20
1.13578
11
0.33919
21
1.13897
0
LINE
8
BLACK
6
CONTINUOUS
10
0.33919
20
1.13897
11
0.338441
21
1.14274
0
LINE
8
BLACK
6
CONTINUOUS
10
0.338441
20
1.14274
11
0.338441
21
1.16341
0
LINE
8
BLACK
6
CONTINUOUS
10
0.338441
20
1.16341
11
0.33919
21
1.16718
0
LINE
8
BLACK
6
CONTINUOUS
10
0.33919
20
1.16718
11
0.341324
21
1.17037
0
LINE
8
BLACK
6
CONTINUOUS
10
0.341324
20
1.17037
11
0.344517
21
1.1725
0
LINE
8
BLACK
6
CONTINUOUS
10
0.344517
20
1.1725
11
0.348283
21
1.17325
0
LINE
8
BLACK
6
CONTINUOUS
10
0.348283
20
1.17325
11
0.383717
21
1.17325
0
LINE
8
BLACK
6
CONTINUOUS
10
0.383717
20
1.17325
11
0.387483
21
1.1725
0
LINE
8
BLACK
6
CONTINUOUS
10
0.586316
20
1.16006
11
0.587114
21
1.15953
0
LINE
8
BLACK
6
CONTINUOUS
10
0.587114
20
1.15953
11
0.587647
21
1.15873
0
LINE
8
BLACK
6
CONTINUOUS
10
0.587647
20
1.15873
11
0.587835
21
1.15779
0
LINE
8
BLACK
6
CONTINUOUS
10
0.587835
20
1.15779
11
0.587835
21
1.15287
0
LINE
8
BLACK
6
CONTINUOUS
10
0.587835
20
1.15287
11
0.587647
21
1.15193
0
LINE
8
BLACK
6
CONTINUOUS
10
0.587647
20
1.15193
11
0.587114
21
1.15113
0
LINE
8
BLACK
6
CONTINUOUS
10
0.587114
20
1.15113
11
0.586316
21
1.15059
0
LINE
8
BLACK
6
CONTINUOUS
10
0.586316
20
1.15059
11
0.585374
21
1.15041
0
LINE
8
BLACK
6
CONTINUOUS
10
0.585374
20
1.15041
11
0.558799
21
1.15041
0
LINE
8
BLACK
6
CONTINUOUS
10
0.558799
20
1.15041
11
0.557858
21
1.15059
0
LINE
8
BLACK
6
CONTINUOUS
10
0.557858
20
1.15059
11
0.557059
21
1.15113
0
LINE
8
BLACK
6
CONTINUOUS
10
0.557059
20
1.15113
11
0.556526
21
1.15193
0
LINE
8
BLACK
6
CONTINUOUS
10
0.556526
20
1.15193
11
0.556339
21
1.15287
0
LINE
8
BLACK
6
CONTINUOUS
10
0.556339
20
1.15287
11
0.556339
21
1.15779
0
LINE
8
BLACK
6
CONTINUOUS
10
0.556339
20
1.15779
11
0.556526
21
1.15873
0
LINE
8
BLACK
6
CONTINUOUS
10
0.556526
20
1.15873
11
0.557059
21
1.15953
0
LINE
8
BLACK
6
CONTINUOUS
10
0.557059
20
1.15953
11
0.557858
21
1.16006
0
LINE
8
BLACK
6
CONTINUOUS
10
0.557858
20
1.16006
11
0.558799
21
1.16025
0
LINE
8
BLACK
6
CONTINUOUS
10
0.558799
20
1.16025
11
0.585374
21
1.16025
0
LINE
8
BLACK
6
CONTINUOUS
10
0.585374
20
1.16025
11
0.586316
21
1.16006
0
LINE
8
BLACK
6
CONTINUOUS
10
0.472142
20
1.16006
11
0.472941
21
1.15953
0
LINE
8
BLACK
6
CONTINUOUS
10
0.472941
20
1.15953
11
0.473474
21
1.15873
0
LINE
8
BLACK
6
CONTINUOUS
10
0.473474
20
1.15873
11
0.473661
21
1.15779
0
LINE
8
BLACK
6
CONTINUOUS
10
0.473661
20
1.15779
11
0.473661
21
1.15287
0
LINE
8
BLACK
6
CONTINUOUS
10
0.473661
20
1.15287
11
0.473474
21
1.15193
0
LINE
8
BLACK
6
CONTINUOUS
10
0.473474
20
1.15193
11
0.472941
21
1.15113
0
LINE
8
BLACK
6
CONTINUOUS
10
0.472941
20
1.15113
11
0.472142
21
1.15059
0
LINE
8
BLACK
6
CONTINUOUS
10
0.472142
20
1.15059
11
0.471201
21
1.15041
0
LINE
8
BLACK
6
CONTINUOUS
10
0.471201
20
1.15041
11
0.444626
21
1.15041
0
LINE
8
BLACK
6
CONTINUOUS
10
0.444626
20
1.15041
11
0.443684
21
1.15059
0
LINE
8
BLACK
6
CONTINUOUS
10
0.443684
20
1.15059
11
0.442886
21
1.15113
0
LINE
8
BLACK
6
CONTINUOUS
10
0.442886
20
1.15113
11
0.442353
21
1.15193
0
LINE
8
BLACK
6
CONTINUOUS
10
0.442353
20
1.15193
11
0.442165
21
1.15287
0
LINE
8
BLACK
6
CONTINUOUS
10
0.442165
20
1.15287
11
0.442165
21
1.15779
0
LINE
8
BLACK
6
CONTINUOUS
10
0.442165
20
1.15779
11
0.442353
21
1.15873
0
LINE
8
BLACK
6
CONTINUOUS
10
0.442353
20
1.15873
11
0.442886
21
1.15953
0
LINE
8
BLACK
6
CONTINUOUS
10
0.442886
20
1.15953
11
0.443684
21
1.16006
0
LINE
8
BLACK
6
CONTINUOUS
10
0.443684
20
1.16006
11
0.444626
21
1.16025
0
LINE
8
BLACK
6
CONTINUOUS
10
0.444626
20
1.16025
11
0.471201
21
1.16025
0
LINE
8
BLACK
6
CONTINUOUS
10
0.471201
20
1.16025
11
0.472142
21
1.16006
0
LINE
8
BLACK
6
CONTINUOUS
10
0.54793
20
1.19845
11
0.548728
21
1.19791
0
LINE
8
BLACK
6
CONTINUOUS
10
0.548728
20
1.19791
11
0.549261
21
1.19712
0
LINE
8
BLACK
6
CONTINUOUS
10
0.549261
20
1.19712
11
0.549449
21
1.19617
0
LINE
8
BLACK
6
CONTINUOUS
10
0.549449
20
1.19617
11
0.549449
21
1.1696
0
LINE
8
BLACK
6
CONTINUOUS
10
0.549449
20
1.1696
11
0.549261
21
1.16866
0
LINE
8
BLACK
6
CONTINUOUS
10
0.549261
20
1.16866
11
0.548728
21
1.16786
0
LINE
8
BLACK
6
CONTINUOUS
10
0.548728
20
1.16786
11
0.54793
21
1.16733
0
LINE
8
BLACK
6
CONTINUOUS
10
0.54793
20
1.16733
11
0.546988
21
1.16714
0
LINE
8
BLACK
6
CONTINUOUS
10
0.546988
20
1.16714
11
0.542067
21
1.16714
0
LINE
8
BLACK
6
CONTINUOUS
10
0.542067
20
1.16714
11
0.541125
21
1.16733
0
LINE
8
BLACK
6
CONTINUOUS
10
0.541125
20
1.16733
11
0.540327
21
1.16786
0
LINE
8
BLACK
6
CONTINUOUS
10
0.540327
20
1.16786
11
0.539794
21
1.16866
0
LINE
8
BLACK
6
CONTINUOUS
10
0.539794
20
1.16866
11
0.539606
21
1.1696
0
LINE
8
BLACK
6
CONTINUOUS
10
0.539606
20
1.1696
11
0.539606
21
1.19617
0
LINE
8
BLACK
6
CONTINUOUS
10
0.539606
20
1.19617
11
0.539794
21
1.19712
0
LINE
8
BLACK
6
CONTINUOUS
10
0.539794
20
1.19712
11
0.540327
21
1.19791
0
LINE
8
BLACK
6
CONTINUOUS
10
0.540327
20
1.19791
11
0.541125
21
1.19845
0
LINE
8
BLACK
6
CONTINUOUS
10
0.541125
20
1.19845
11
0.542067
21
1.19863
0
LINE
8
BLACK
6
CONTINUOUS
10
0.542067
20
1.19863
11
0.546988
21
1.19863
0
LINE
8
BLACK
6
CONTINUOUS
10
0.546988
20
1.19863
11
0.54793
21
1.19845
0
LINE
8
BLACK
6
CONTINUOUS
10
0.528245
20
1.19845
11
0.529043
21
1.19791
0
LINE
8
BLACK
6
CONTINUOUS
10
0.529043
20
1.19791
11
0.529576
21
1.19712
0
LINE
8
BLACK
6
CONTINUOUS
10
0.529576
20
1.19712
11
0.529764
21
1.19617
0
LINE
8
BLACK
6
CONTINUOUS
10
0.529764
20
1.19617
11
0.529764
21
1.1696
0
LINE
8
BLACK
6
CONTINUOUS
10
0.529764
20
1.1696
11
0.529576
21
1.16866
0
LINE
8
BLACK
6
CONTINUOUS
10
0.529576
20
1.16866
11
0.529043
21
1.16786
0
LINE
8
BLACK
6
CONTINUOUS
10
0.529043
20
1.16786
11
0.528245
21
1.16733
0
LINE
8
BLACK
6
CONTINUOUS
10
0.528245
20
1.16733
11
0.527303
21
1.16714
0
LINE
8
BLACK
6
CONTINUOUS
10
0.527303
20
1.16714
11
0.522382
21
1.16714
0
LINE
8
BLACK
6
CONTINUOUS
10
0.522382
20
1.16714
11
0.52144
21
1.16733
0
LINE
8
BLACK
6
CONTINUOUS
10
0.52144
20
1.16733
11
0.520642
21
1.16786
0
LINE
8
BLACK
6
CONTINUOUS
10
0.520642
20
1.16786
11
0.520109
21
1.16866
0
LINE
8
BLACK
6
CONTINUOUS
10
0.520109
20
1.16866
11
0.519921
21
1.1696
0
LINE
8
BLACK
6
CONTINUOUS
10
0.519921
20
1.1696
11
0.519921
21
1.19617
0
LINE
8
BLACK
6
CONTINUOUS
10
0.519921
20
1.19617
11
0.520109
21
1.19712
0
LINE
8
BLACK
6
CONTINUOUS
10
0.520109
20
1.19712
11
0.520642
21
1.19791
0
LINE
8
BLACK
6
CONTINUOUS
10
0.520642
20
1.19791
11
0.52144
21
1.19845
0
LINE
8
BLACK
6
CONTINUOUS
10
0.52144
20
1.19845
11
0.522382
21
1.19863
0
LINE
8
BLACK
6
CONTINUOUS
10
0.522382
20
1.19863
11
0.527303
21
1.19863
0
LINE
8
BLACK
6
CONTINUOUS
10
0.527303
20
1.19863
11
0.528245
21
1.19845
0
LINE
8
BLACK
6
CONTINUOUS
10
0.50856
20
1.19845
11
0.509358
21
1.19791
0
LINE
8
BLACK
6
CONTINUOUS
10
0.509358
20
1.19791
11
0.509891
21
1.19712
0
LINE
8
BLACK
6
CONTINUOUS
10
0.509891
20
1.19712
11
0.510079
21
1.19617
0
LINE
8
BLACK
6
CONTINUOUS
10
0.510079
20
1.19617
11
0.510079
21
1.1696
0
LINE
8
BLACK
6
CONTINUOUS
10
0.510079
20
1.1696
11
0.509891
21
1.16866
0
LINE
8
BLACK
6
CONTINUOUS
10
0.509891
20
1.16866
11
0.509358
21
1.16786
0
LINE
8
BLACK
6
CONTINUOUS
10
0.509358
20
1.16786
11
0.50856
21
1.16733
0
LINE
8
BLACK
6
CONTINUOUS
10
0.50856
20
1.16733
11
0.507618
21
1.16714
0
LINE
8
BLACK
6
CONTINUOUS
10
0.507618
20
1.16714
11
0.502697
21
1.16714
0
LINE
8
BLACK
6
CONTINUOUS
10
0.502697
20
1.16714
11
0.501755
21
1.16733
0
LINE
8
BLACK
6
CONTINUOUS
10
0.501755
20
1.16733
11
0.500957
21
1.16786
0
LINE
8
BLACK
6
CONTINUOUS
10
0.500957
20
1.16786
11
0.500424
21
1.16866
0
LINE
8
BLACK
6
CONTINUOUS
10
0.500424
20
1.16866
11
0.500236
21
1.1696
0
LINE
8
BLACK
6
CONTINUOUS
10
0.500236
20
1.1696
11
0.500236
21
1.19617
0
LINE
8
BLACK
6
CONTINUOUS
10
0.500236
20
1.19617
11
0.500424
21
1.19712
0
LINE
8
BLACK
6
CONTINUOUS
10
0.500424
20
1.19712
11
0.500957
21
1.19791
0
LINE
8
BLACK
6
CONTINUOUS
10
0.500957
20
1.19791
11
0.501755
21
1.19845
0
LINE
8
BLACK
6
CONTINUOUS
10
0.501755
20
1.19845
11
0.502697
21
1.19863
0
LINE
8
BLACK
6
CONTINUOUS
10
0.502697
20
1.19863
11
0.507618
21
1.19863
0
LINE
8
BLACK
6
CONTINUOUS
10
0.507618
20
1.19863
11
0.50856
21
1.19845
0
LINE
8
BLACK
6
CONTINUOUS
10
0.488875
20
1.19845
11
0.489673
21
1.19791
0
LINE
8
BLACK
6
CONTINUOUS
10
0.489673
20
1.19791
11
0.490206
21
1.19712
0
LINE
8
BLACK
6
CONTINUOUS
10
0.490206
20
1.19712
11
0.490394
21
1.19617
0
LINE
8
BLACK
6
CONTINUOUS
10
0.490394
20
1.19617
11
0.490394
21
1.1696
0
LINE
8
BLACK
6
CONTINUOUS
10
0.490394
20
1.1696
11
0.490206
21
1.16866
0
LINE
8
BLACK
6
CONTINUOUS
10
0.490206
20
1.16866
11
0.489673
21
1.16786
0
LINE
8
BLACK
6
CONTINUOUS
10
0.489673
20
1.16786
11
0.488875
21
1.16733
0
LINE
8
BLACK
6
CONTINUOUS
10
0.488875
20
1.16733
11
0.487933
21
1.16714
0
LINE
8
BLACK
6
CONTINUOUS
10
0.487933
20
1.16714
11
0.483012
21
1.16714
0
LINE
8
BLACK
6
CONTINUOUS
10
0.483012
20
1.16714
11
0.48207
21
1.16733
0
LINE
8
BLACK
6
CONTINUOUS
10
0.48207
20
1.16733
11
0.481272
21
1.16786
0
LINE
8
BLACK
6
CONTINUOUS
10
0.481272
20
1.16786
11
0.480739
21
1.16866
0
LINE
8
BLACK
6
CONTINUOUS
10
0.480739
20
1.16866
11
0.480551
21
1.1696
0
LINE
8
BLACK
6
CONTINUOUS
10
0.480551
20
1.1696
11
0.480551
21
1.19617
0
LINE
8
BLACK
6
CONTINUOUS
10
0.480551
20
1.19617
11
0.480739
21
1.19712
0
LINE
8
BLACK
6
CONTINUOUS
10
0.480739
20
1.19712
11
0.481272
21
1.19791
0
LINE
8
BLACK
6
CONTINUOUS
10
0.481272
20
1.19791
11
0.48207
21
1.19845
0
LINE
8
BLACK
6
CONTINUOUS
10
0.48207
20
1.19845
11
0.483012
21
1.19863
0
LINE
8
BLACK
6
CONTINUOUS
10
0.483012
20
1.19863
11
0.487933
21
1.19863
0
LINE
8
BLACK
6
CONTINUOUS
10
0.487933
20
1.19863
11
0.488875
21
1.19845
0
LINE
8
BLACK
6
CONTINUOUS
10
0.905026
20
1.24081
11
0.90822
21
1.23868
0
LINE
8
BLACK
6
CONTINUOUS
10
0.90822
20
1.23868
11
0.910353
21
1.23548
0
LINE
8
BLACK
6
CONTINUOUS
10
0.910353
20
1.23548
11
0.911102
21
1.23172
0
LINE
8
BLACK
6
CONTINUOUS
10
0.911102
20
1.23172
11
0.911102
21
1.19628
0
LINE
8
BLACK
6
CONTINUOUS
10
0.911102
20
1.19628
11
0.910353
21
1.19252
0
LINE
8
BLACK
6
CONTINUOUS
10
0.910353
20
1.19252
11
0.90822
21
1.18932
0
LINE
8
BLACK
6
CONTINUOUS
10
0.90822
20
1.18932
11
0.905026
21
1.18719
0
LINE
8
BLACK
6
CONTINUOUS
10
0.905026
20
1.18719
11
0.90126
21
1.18644
0
LINE
8
BLACK
6
CONTINUOUS
10
0.90126
20
1.18644
11
0.880591
21
1.18644
0
LINE
8
BLACK
6
CONTINUOUS
10
0.880591
20
1.18644
11
0.876824
21
1.18719
0
LINE
8
BLACK
6
CONTINUOUS
10
0.876824
20
1.18719
11
0.873631
21
1.18932
0
LINE
8
BLACK
6
CONTINUOUS
10
0.873631
20
1.18932
11
0.871497
21
1.19252
0
LINE
8
BLACK
6
CONTINUOUS
10
0.871497
20
1.19252
11
0.870748
21
1.19628
0
LINE
8
BLACK
6
CONTINUOUS
10
0.870748
20
1.19628
11
0.870748
21
1.23172
0
LINE
8
BLACK
6
CONTINUOUS
10
0.870748
20
1.23172
11
0.871497
21
1.23548
0
LINE
8
BLACK
6
CONTINUOUS
10
0.871497
20
1.23548
11
0.873631
21
1.23868
0
LINE
8
BLACK
6
CONTINUOUS
10
0.873631
20
1.23868
11
0.876824
21
1.24081
0
LINE
8
BLACK
6
CONTINUOUS
10
0.876824
20
1.24081
11
0.880591
21
1.24156
0
LINE
8
BLACK
6
CONTINUOUS
10
0.880591
20
1.24156
11
0.90126
21
1.24156
0
LINE
8
BLACK
6
CONTINUOUS
10
0.90126
20
1.24156
11
0.905026
21
1.24081
0
LINE
8
BLACK
6
CONTINUOUS
10
0.833176
20
1.24081
11
0.836369
21
1.23868
0
LINE
8
BLACK
6
CONTINUOUS
10
0.836369
20
1.23868
11
0.838503
21
1.23548
0
LINE
8
BLACK
6
CONTINUOUS
10
0.838503
20
1.23548
11
0.839252
21
1.23172
0
LINE
8
BLACK
6
CONTINUOUS
10
0.839252
20
1.23172
11
0.839252
21
1.19628
0
LINE
8
BLACK
6
CONTINUOUS
10
0.839252
20
1.19628
11
0.838503
21
1.19252
0
LINE
8
BLACK
6
CONTINUOUS
10
0.838503
20
1.19252
11
0.836369
21
1.18932
0
LINE
8
BLACK
6
CONTINUOUS
10
0.836369
20
1.18932
11
0.833176
21
1.18719
0
LINE
8
BLACK
6
CONTINUOUS
10
0.833176
20
1.18719
11
0.829409
21
1.18644
0
LINE
8
BLACK
6
CONTINUOUS
10
0.829409
20
1.18644
11
0.80874
21
1.18644
0
LINE
8
BLACK
6
CONTINUOUS
10
0.80874
20
1.18644
11
0.804974
21
1.18719
0
LINE
8
BLACK
6
CONTINUOUS
10
0.804974
20
1.18719
11
0.80178
21
1.18932
0
LINE
8
BLACK
6
CONTINUOUS
10
0.80178
20
1.18932
11
0.799647
21
1.19252
0
LINE
8
BLACK
6
CONTINUOUS
10
0.799647
20
1.19252
11
0.798898
21
1.19628
0
LINE
8
BLACK
6
CONTINUOUS
10
0.798898
20
1.19628
11
0.798898
21
1.23172
0
LINE
8
BLACK
6
CONTINUOUS
10
0.798898
20
1.23172
11
0.799647
21
1.23548
0
LINE
8
BLACK
6
CONTINUOUS
10
0.799647
20
1.23548
11
0.80178
21
1.23868
0
LINE
8
BLACK
6
CONTINUOUS
10
0.80178
20
1.23868
11
0.804974
21
1.24081
0
LINE
8
BLACK
6
CONTINUOUS
10
0.804974
20
1.24081
11
0.80874
21
1.24156
0
LINE
8
BLACK
6
CONTINUOUS
10
0.80874
20
1.24156
11
0.829409
21
1.24156
0
LINE
8
BLACK
6
CONTINUOUS
10
0.829409
20
1.24156
11
0.833176
21
1.24081
0
LINE
8
BLACK
6
CONTINUOUS
10
0.767483
20
1.24435
11
0.770676
21
1.24222
0
LINE
8
BLACK
6
CONTINUOUS
10
0.770676
20
1.24222
11
0.77281
21
1.23903
0
LINE
8
BLACK
6
CONTINUOUS
10
0.77281
20
1.23903
11
0.773559
21
1.23526
0
LINE
8
BLACK
6
CONTINUOUS
10
0.773559
20
1.23526
11
0.773559
21
1.21459
0
LINE
8
BLACK
6
CONTINUOUS
10
0.773559
20
1.21459
11
0.77281
21
1.21082
0
LINE
8
BLACK
6
CONTINUOUS
10
0.77281
20
1.21082
11
0.770676
21
1.20763
0
LINE
8
BLACK
6
CONTINUOUS
10
0.770676
20
1.20763
11
0.767483
21
1.2055
0
LINE
8
BLACK
6
CONTINUOUS
10
0.767483
20
1.2055
11
0.763717
21
1.20475
0
LINE
8
BLACK
6
CONTINUOUS
10
0.763717
20
1.20475
11
0.728283
21
1.20475
0
LINE
8
BLACK
6
CONTINUOUS
10
0.728283
20
1.20475
11
0.724517
21
1.2055
0
LINE
8
BLACK
6
CONTINUOUS
10
0.724517
20
1.2055
11
0.721324
21
1.20763
0
LINE
8
BLACK
6
CONTINUOUS
10
0.721324
20
1.20763
11
0.71919
21
1.21082
0
LINE
8
BLACK
6
CONTINUOUS
10
0.71919
20
1.21082
11
0.718441
21
1.21459
0
LINE
8
BLACK
6
CONTINUOUS
10
0.718441
20
1.21459
11
0.718441
21
1.23526
0
LINE
8
BLACK
6
CONTINUOUS
10
0.718441
20
1.23526
11
0.71919
21
1.23903
0
LINE
8
BLACK
6
CONTINUOUS
10
0.71919
20
1.23903
11
0.721324
21
1.24222
0
LINE
8
BLACK
6
CONTINUOUS
10
0.721324
20
1.24222
11
0.724517
21
1.24435
0
LINE
8
BLACK
6
CONTINUOUS
10
0.724517
20
1.24435
11
0.728283
21
1.2451
0
LINE
8
BLACK
6
CONTINUOUS
10
0.728283
20
1.2451
11
0.763717
21
1.2451
0
LINE
8
BLACK
6
CONTINUOUS
10
0.763717
20
1.2451
11
0.767483
21
1.24435
0
LINE
8
BLACK
6
CONTINUOUS
10
0.387483
20
1.24435
11
0.390676
21
1.24222
0
LINE
8
BLACK
6
CONTINUOUS
10
0.390676
20
1.24222
11
0.39281
21
1.23903
0
LINE
8
BLACK
6
CONTINUOUS
10
0.39281
20
1.23903
11
0.393559
21
1.23526
0
LINE
8
BLACK
6
CONTINUOUS
10
0.393559
20
1.23526
11
0.393559
21
1.21459
0
LINE
8
BLACK
6
CONTINUOUS
10
0.393559
20
1.21459
11
0.39281
21
1.21082
0
LINE
8
BLACK
6
CONTINUOUS
10
0.39281
20
1.21082
11
0.390676
21
1.20763
0
LINE
8
BLACK
6
CONTINUOUS
10
0.390676
20
1.20763
11
0.387483
21
1.2055
0
LINE
8
BLACK
6
CONTINUOUS
10
0.387483
20
1.2055
11
0.383717
21
1.20475
0
LINE
8
BLACK
6
CONTINUOUS
10
0.383717
20
1.20475
11
0.348283
21
1.20475
0
LINE
8
BLACK
6
CONTINUOUS
10
0.348283
20
1.20475
11
0.344517
21
1.2055
0
LINE
8
BLACK
6
CONTINUOUS
10
0.344517
20
1.2055
11
0.341324
21
1.20763
0
LINE
8
BLACK
6
CONTINUOUS
10
0.341324
20
1.20763
11
0.33919
21
1.21082
0
LINE
8
BLACK
6
CONTINUOUS
10
0.33919
20
1.21082
11
0.338441
21
1.21459
0
LINE
8
BLACK
6
CONTINUOUS
10
0.338441
20
1.21459
11
0.338441
21
1.23526
0
LINE
8
BLACK
6
CONTINUOUS
10
0.338441
20
1.23526
11
0.33919
21
1.23903
0
LINE
8
BLACK
6
CONTINUOUS
10
0.33919
20
1.23903
11
0.341324
21
1.24222
0
LINE
8
BLACK
6
CONTINUOUS
10
0.341324
20
1.24222
11
0.344517
21
1.24435
0
LINE
8
BLACK
6
CONTINUOUS
10
0.344517
20
1.24435
11
0.348283
21
1.2451
0
LINE
8
BLACK
6
CONTINUOUS
10
0.348283
20
1.2451
11
0.383717
21
1.2451
0
LINE
8
BLACK
6
CONTINUOUS
10
0.383717
20
1.2451
11
0.387483
21
1.24435
0
LINE
8
BLACK
6
CONTINUOUS
10
0.832676
20
1.32061
11
0.835869
21
1.31848
0
LINE
8
BLACK
6
CONTINUOUS
10
0.835869
20
1.31848
11
0.838003
21
1.31528
0
LINE
8
BLACK
6
CONTINUOUS
10
0.838003
20
1.31528
11
0.838752
21
1.31152
0
LINE
8
BLACK
6
CONTINUOUS
10
0.838752
20
1.31152
11
0.838752
21
1.27608
0
LINE
8
BLACK
6
CONTINUOUS
10
0.838752
20
1.27608
11
0.838003
21
1.27232
0
LINE
8
BLACK
6
CONTINUOUS
10
0.838003
20
1.27232
11
0.835869
21
1.26912
0
LINE
8
BLACK
6
CONTINUOUS
10
0.835869
20
1.26912
11
0.832676
21
1.26699
0
LINE
8
BLACK
6
CONTINUOUS
10
0.832676
20
1.26699
11
0.828909
21
1.26624
0
LINE
8
BLACK
6
CONTINUOUS
10
0.828909
20
1.26624
11
0.80824
21
1.26624
0
LINE
8
BLACK
6
CONTINUOUS
10
0.80824
20
1.26624
11
0.804474
21
1.26699
0
LINE
8
BLACK
6
CONTINUOUS
10
0.804474
20
1.26699
11
0.80128
21
1.26912
0
LINE
8
BLACK
6
CONTINUOUS
10
0.80128
20
1.26912
11
0.799147
21
1.27232
0
LINE
8
BLACK
6
CONTINUOUS
10
0.799147
20
1.27232
11
0.798398
21
1.27608
0
LINE
8
BLACK
6
CONTINUOUS
10
0.798398
20
1.27608
11
0.798398
21
1.31152
0
LINE
8
BLACK
6
CONTINUOUS
10
0.798398
20
1.31152
11
0.799147
21
1.31528
0
LINE
8
BLACK
6
CONTINUOUS
10
0.799147
20
1.31528
11
0.80128
21
1.31848
0
LINE
8
BLACK
6
CONTINUOUS
10
0.80128
20
1.31848
11
0.804474
21
1.32061
0
LINE
8
BLACK
6
CONTINUOUS
10
0.804474
20
1.32061
11
0.80824
21
1.32136
0
LINE
8
BLACK
6
CONTINUOUS
10
0.80824
20
1.32136
11
0.828909
21
1.32136
0
LINE
8
BLACK
6
CONTINUOUS
10
0.828909
20
1.32136
11
0.832676
21
1.32061
0
LINE
8
BLACK
6
CONTINUOUS
10
0.904526
20
1.32061
11
0.90772
21
1.31848
0
LINE
8
BLACK
6
CONTINUOUS
10
0.90772
20
1.31848
11
0.909853
21
1.31528
0
LINE
8
BLACK
6
CONTINUOUS
10
0.909853
20
1.31528
11
0.910602
21
1.31152
0
LINE
8
BLACK
6
CONTINUOUS
10
0.910602
20
1.31152
11
0.910602
21
1.27608
0
LINE
8
BLACK
6
CONTINUOUS
10
0.910602
20
1.27608
11
0.909853
21
1.27232
0
LINE
8
BLACK
6
CONTINUOUS
10
0.909853
20
1.27232
11
0.90772
21
1.26912
0
LINE
8
BLACK
6
CONTINUOUS
10
0.90772
20
1.26912
11
0.904526
21
1.26699
0
LINE
8
BLACK
6
CONTINUOUS
10
0.904526
20
1.26699
11
0.90076
21
1.26624
0
LINE
8
BLACK
6
CONTINUOUS
10
0.90076
20
1.26624
11
0.880091
21
1.26624
0
LINE
8
BLACK
6
CONTINUOUS
10
0.880091
20
1.26624
11
0.876324
21
1.26699
0
LINE
8
BLACK
6
CONTINUOUS
10
0.876324
20
1.26699
11
0.873131
21
1.26912
0
LINE
8
BLACK
6
CONTINUOUS
10
0.873131
20
1.26912
11
0.870997
21
1.27232
0
LINE
8
BLACK
6
CONTINUOUS
10
0.870997
20
1.27232
11
0.870248
21
1.27608
0
LINE
8
BLACK
6
CONTINUOUS
10
0.870248
20
1.27608
11
0.870248
21
1.31152
0
LINE
8
BLACK
6
CONTINUOUS
10
0.870248
20
1.31152
11
0.870997
21
1.31528
0
LINE
8
BLACK
6
CONTINUOUS
10
0.870997
20
1.31528
11
0.873131
21
1.31848
0
LINE
8
BLACK
6
CONTINUOUS
10
0.873131
20
1.31848
11
0.876324
21
1.32061
0
LINE
8
BLACK
6
CONTINUOUS
10
0.876324
20
1.32061
11
0.880091
21
1.32136
0
LINE
8
BLACK
6
CONTINUOUS
10
0.880091
20
1.32136
11
0.90076
21
1.32136
0
LINE
8
BLACK
6
CONTINUOUS
10
0.90076
20
1.32136
11
0.904526
21
1.32061
0
LINE
8
BLACK
6
CONTINUOUS
10
0.767483
20
1.3065
11
0.770676
21
1.30437
0
LINE
8
BLACK
6
CONTINUOUS
10
0.770676
20
1.30437
11
0.77281
21
1.30118
0
LINE
8
BLACK
6
CONTINUOUS
10
0.77281
20
1.30118
11
0.773559
21
1.29741
0
LINE
8
BLACK
6
CONTINUOUS
10
0.773559
20
1.29741
11
0.773559
21
1.27674
0
LINE
8
BLACK
6
CONTINUOUS
10
0.773559
20
1.27674
11
0.77281
21
1.27297
0
LINE
8
BLACK
6
CONTINUOUS
10
0.77281
20
1.27297
11
0.770676
21
1.26978
0
LINE
8
BLACK
6
CONTINUOUS
10
0.770676
20
1.26978
11
0.767483
21
1.26765
0
LINE
8
BLACK
6
CONTINUOUS
10
0.767483
20
1.26765
11
0.763717
21
1.2669
0
LINE
8
BLACK
6
CONTINUOUS
10
0.763717
20
1.2669
11
0.728283
21
1.2669
0
LINE
8
BLACK
6
CONTINUOUS
10
0.728283
20
1.2669
11
0.724517
21
1.26765
0
LINE
8
BLACK
6
CONTINUOUS
10
0.724517
20
1.26765
11
0.721324
21
1.26978
0
LINE
8
BLACK
6
CONTINUOUS
10
0.721324
20
1.26978
11
0.71919
21
1.27297
0
LINE
8
BLACK
6
CONTINUOUS
10
0.71919
20
1.27297
11
0.718441
21
1.27674
0
LINE
8
BLACK
6
CONTINUOUS
10
0.718441
20
1.27674
11
0.718441
21
1.29741
0
LINE
8
BLACK
6
CONTINUOUS
10
0.718441
20
1.29741
11
0.71919
21
1.30118
0
LINE
8
BLACK
6
CONTINUOUS
10
0.71919
20
1.30118
11
0.721324
21
1.30437
0
LINE
8
BLACK
6
CONTINUOUS
10
0.721324
20
1.30437
11
0.724517
21
1.3065
0
LINE
8
BLACK
6
CONTINUOUS
10
0.724517
20
1.3065
11
0.728283
21
1.30725
0
LINE
8
BLACK
6
CONTINUOUS
10
0.728283
20
1.30725
11
0.763717
21
1.30725
0
LINE
8
BLACK
6
CONTINUOUS
10
0.763717
20
1.30725
11
0.767483
21
1.3065
0
LINE
8
BLACK
6
CONTINUOUS
10
0.421011
20
1.32979
11
0.424204
21
1.32766
0
LINE
8
BLACK
6
CONTINUOUS
10
0.424204
20
1.32766
11
0.426337
21
1.32447
0
LINE
8
BLACK
6
CONTINUOUS
10
0.426337
20
1.32447
11
0.427087
21
1.3207
0
LINE
8
BLACK
6
CONTINUOUS
10
0.427087
20
1.3207
11
0.427087
21
1.2833
0
LINE
8
BLACK
6
CONTINUOUS
10
0.427087
20
1.2833
11
0.426337
21
1.27953
0
LINE
8
BLACK
6
CONTINUOUS
10
0.426337
20
1.27953
11
0.424204
21
1.27634
0
LINE
8
BLACK
6
CONTINUOUS
10
0.424204
20
1.27634
11
0.421011
21
1.27421
0
LINE
8
BLACK
6
CONTINUOUS
10
0.421011
20
1.27421
11
0.417244
21
1.27346
0
LINE
8
BLACK
6
CONTINUOUS
10
0.417244
20
1.27346
11
0.397559
21
1.27346
0
LINE
8
BLACK
6
CONTINUOUS
10
0.397559
20
1.27346
11
0.393792
21
1.27421
0
LINE
8
BLACK
6
CONTINUOUS
10
0.393792
20
1.27421
11
0.390599
21
1.27634
0
LINE
8
BLACK
6
CONTINUOUS
10
0.390599
20
1.27634
11
0.388466
21
1.27953
0
LINE
8
BLACK
6
CONTINUOUS
10
0.388466
20
1.27953
11
0.387717
21
1.2833
0
LINE
8
BLACK
6
CONTINUOUS
10
0.387717
20
1.2833
11
0.387717
21
1.3207
0
LINE
8
BLACK
6
CONTINUOUS
10
0.387717
20
1.3207
11
0.388466
21
1.32447
0
LINE
8
BLACK
6
CONTINUOUS
10
0.388466
20
1.32447
11
0.390599
21
1.32766
0
LINE
8
BLACK
6
CONTINUOUS
10
0.390599
20
1.32766
11
0.393792
21
1.32979
0
LINE
8
BLACK
6
CONTINUOUS
10
0.393792
20
1.32979
11
0.397559
21
1.33054
0
LINE
8
BLACK
6
CONTINUOUS
10
0.397559
20
1.33054
11
0.417244
21
1.33054
0
LINE
8
BLACK
6
CONTINUOUS
10
0.417244
20
1.33054
11
0.421011
21
1.32979
0
LINE
8
BLACK
6
CONTINUOUS
10
0.346208
20
1.32979
11
0.349401
21
1.32766
0
LINE
8
BLACK
6
CONTINUOUS
10
0.349401
20
1.32766
11
0.351534
21
1.32447
0
LINE
8
BLACK
6
CONTINUOUS
10
0.351534
20
1.32447
11
0.352283
21
1.3207
0
LINE
8
BLACK
6
CONTINUOUS
10
0.352283
20
1.3207
11
0.352283
21
1.2833
0
LINE
8
BLACK
6
CONTINUOUS
10
0.352283
20
1.2833
11
0.351534
21
1.27953
0
LINE
8
BLACK
6
CONTINUOUS
10
0.351534
20
1.27953
11
0.349401
21
1.27634
0
LINE
8
BLACK
6
CONTINUOUS
10
0.349401
20
1.27634
11
0.346208
21
1.27421
0
LINE
8
BLACK
6
CONTINUOUS
10
0.346208
20
1.27421
11
0.342441
21
1.27346
0
LINE
8
BLACK
6
CONTINUOUS
10
0.342441
20
1.27346
11
0.322756
21
1.27346
0
LINE
8
BLACK
6
CONTINUOUS
10
0.322756
20
1.27346
11
0.318989
21
1.27421
0
LINE
8
BLACK
6
CONTINUOUS
10
0.318989
20
1.27421
11
0.315796
21
1.27634
0
LINE
8
BLACK
6
CONTINUOUS
10
0.315796
20
1.27634
11
0.313663
21
1.27953
0
LINE
8
BLACK
6
CONTINUOUS
10
0.313663
20
1.27953
11
0.312913
21
1.2833
0
LINE
8
BLACK
6
CONTINUOUS
10
0.312913
20
1.2833
11
0.312913
21
1.3207
0
LINE
8
BLACK
6
CONTINUOUS
10
0.312913
20
1.3207
11
0.313663
21
1.32447
0
LINE
8
BLACK
6
CONTINUOUS
10
0.313663
20
1.32447
11
0.315796
21
1.32766
0
LINE
8
BLACK
6
CONTINUOUS
10
0.315796
20
1.32766
11
0.318989
21
1.32979
0
LINE
8
BLACK
6
CONTINUOUS
10
0.318989
20
1.32979
11
0.322756
21
1.33054
0
LINE
8
BLACK
6
CONTINUOUS
10
0.322756
20
1.33054
11
0.342441
21
1.33054
0
LINE
8
BLACK
6
CONTINUOUS
10
0.342441
20
1.33054
11
0.346208
21
1.32979
0
LINE
8
BLACK
6
CONTINUOUS
10
0.586026
20
1.36131
11
0.58922
21
1.35918
0
LINE
8
BLACK
6
CONTINUOUS
10
0.58922
20
1.35918
11
0.591353
21
1.35598
0
LINE
8
BLACK
6
CONTINUOUS
10
0.591353
20
1.35598
11
0.592102
21
1.35222
0
LINE
8
BLACK
6
CONTINUOUS
10
0.592102
20
1.35222
11
0.592102
21
1.31678
0
LINE
8
BLACK
6
CONTINUOUS
10
0.592102
20
1.31678
11
0.591353
21
1.31302
0
LINE
8
BLACK
6
CONTINUOUS
10
0.591353
20
1.31302
11
0.58922
21
1.30982
0
LINE
8
BLACK
6
CONTINUOUS
10
0.58922
20
1.30982
11
0.586026
21
1.30769
0
LINE
8
BLACK
6
CONTINUOUS
10
0.586026
20
1.30769
11
0.58226
21
1.30694
0
LINE
8
BLACK
6
CONTINUOUS
10
0.58226
20
1.30694
11
0.561591
21
1.30694
0
LINE
8
BLACK
6
CONTINUOUS
10
0.561591
20
1.30694
11
0.557824
21
1.30769
0
LINE
8
BLACK
6
CONTINUOUS
10
0.557824
20
1.30769
11
0.554631
21
1.30982
0
LINE
8
BLACK
6
CONTINUOUS
10
0.554631
20
1.30982
11
0.552497
21
1.31302
0
LINE
8
BLACK
6
CONTINUOUS
10
0.552497
20
1.31302
11
0.551748
21
1.31678
0
LINE
8
BLACK
6
CONTINUOUS
10
0.551748
20
1.31678
11
0.551748
21
1.35222
0
LINE
8
BLACK
6
CONTINUOUS
10
0.551748
20
1.35222
11
0.552497
21
1.35598
0
LINE
8
BLACK
6
CONTINUOUS
10
0.552497
20
1.35598
11
0.554631
21
1.35918
0
LINE
8
BLACK
6
CONTINUOUS
10
0.554631
20
1.35918
11
0.557824
21
1.36131
0
LINE
8
BLACK
6
CONTINUOUS
10
0.557824
20
1.36131
11
0.561591
21
1.36206
0
LINE
8
BLACK
6
CONTINUOUS
10
0.561591
20
1.36206
11
0.58226
21
1.36206
0
LINE
8
BLACK
6
CONTINUOUS
10
0.58226
20
1.36206
11
0.586026
21
1.36131
0
LINE
8
BLACK
6
CONTINUOUS
10
0.514176
20
1.36131
11
0.517369
21
1.35918
0
LINE
8
BLACK
6
CONTINUOUS
10
0.517369
20
1.35918
11
0.519503
21
1.35598
0
LINE
8
BLACK
6
CONTINUOUS
10
0.519503
20
1.35598
11
0.520252
21
1.35222
0
LINE
8
BLACK
6
CONTINUOUS
10
0.520252
20
1.35222
11
0.520252
21
1.31678
0
LINE
8
BLACK
6
CONTINUOUS
10
0.520252
20
1.31678
11
0.519503
21
1.31302
0
LINE
8
BLACK
6
CONTINUOUS
10
0.519503
20
1.31302
11
0.517369
21
1.30982
0
LINE
8
BLACK
6
CONTINUOUS
10
0.517369
20
1.30982
11
0.514176
21
1.30769
0
LINE
8
BLACK
6
CONTINUOUS
10
0.514176
20
1.30769
11
0.510409
21
1.30694
0
LINE
8
BLACK
6
CONTINUOUS
10
0.510409
20
1.30694
11
0.48974
21
1.30694
0
LINE
8
BLACK
6
CONTINUOUS
10
0.48974
20
1.30694
11
0.485974
21
1.30769
0
LINE
8
BLACK
6
CONTINUOUS
10
0.485974
20
1.30769
11
0.48278
21
1.30982
0
LINE
8
BLACK
6
CONTINUOUS
10
0.48278
20
1.30982
11
0.480647
21
1.31302
0
LINE
8
BLACK
6
CONTINUOUS
10
0.480647
20
1.31302
11
0.479898
21
1.31678
0
LINE
8
BLACK
6
CONTINUOUS
10
0.479898
20
1.31678
11
0.479898
21
1.35222
0
LINE
8
BLACK
6
CONTINUOUS
10
0.479898
20
1.35222
11
0.480647
21
1.35598
0
LINE
8
BLACK
6
CONTINUOUS
10
0.480647
20
1.35598
11
0.48278
21
1.35918
0
LINE
8
BLACK
6
CONTINUOUS
10
0.48278
20
1.35918
11
0.485974
21
1.36131
0
LINE
8
BLACK
6
CONTINUOUS
10
0.485974
20
1.36131
11
0.48974
21
1.36206
0
LINE
8
BLACK
6
CONTINUOUS
10
0.48974
20
1.36206
11
0.510409
21
1.36206
0
LINE
8
BLACK
6
CONTINUOUS
10
0.510409
20
1.36206
11
0.514176
21
1.36131
0
LINE
8
BLACK
6
CONTINUOUS
10
0.767483
20
1.37835
11
0.770676
21
1.37622
0
LINE
8
BLACK
6
CONTINUOUS
10
0.770676
20
1.37622
11
0.77281
21
1.37303
0
LINE
8
BLACK
6
CONTINUOUS
10
0.77281
20
1.37303
11
0.773559
21
1.36926
0
LINE
8
BLACK
6
CONTINUOUS
10
0.773559
20
1.36926
11
0.773559
21
1.34859
0
LINE
8
BLACK
6
CONTINUOUS
10
0.773559
20
1.34859
11
0.77281
21
1.34482
0
LINE
8
BLACK
6
CONTINUOUS
10
0.77281
20
1.34482
11
0.770676
21
1.34163
0
LINE
8
BLACK
6
CONTINUOUS
10
0.770676
20
1.34163
11
0.767483
21
1.3395
0
LINE
8
BLACK
6
CONTINUOUS
10
0.767483
20
1.3395
11
0.763717
21
1.33875
0
LINE
8
BLACK
6
CONTINUOUS
10
0.763717
20
1.33875
11
0.728283
21
1.33875
0
LINE
8
BLACK
6
CONTINUOUS
10
0.728283
20
1.33875
11
0.724517
21
1.3395
0
LINE
8
BLACK
6
CONTINUOUS
10
0.724517
20
1.3395
11
0.721324
21
1.34163
0
LINE
8
BLACK
6
CONTINUOUS
10
0.721324
20
1.34163
11
0.71919
21
1.34482
0
LINE
8
BLACK
6
CONTINUOUS
10
0.71919
20
1.34482
11
0.718441
21
1.34859
0
LINE
8
BLACK
6
CONTINUOUS
10
0.718441
20
1.34859
11
0.718441
21
1.36926
0
LINE
8
BLACK
6
CONTINUOUS
10
0.718441
20
1.36926
11
0.71919
21
1.37303
0
LINE
8
BLACK
6
CONTINUOUS
10
0.71919
20
1.37303
11
0.721324
21
1.37622
0
LINE
8
BLACK
6
CONTINUOUS
10
0.721324
20
1.37622
11
0.724517
21
1.37835
0
LINE
8
BLACK
6
CONTINUOUS
10
0.724517
20
1.37835
11
0.728283
21
1.3791
0
LINE
8
BLACK
6
CONTINUOUS
10
0.728283
20
1.3791
11
0.763717
21
1.3791
0
LINE
8
BLACK
6
CONTINUOUS
10
0.763717
20
1.3791
11
0.767483
21
1.37835
0
LINE
8
BLACK
6
CONTINUOUS
10
0.347176
20
1.40981
11
0.350369
21
1.40768
0
LINE
8
BLACK
6
CONTINUOUS
10
0.350369
20
1.40768
11
0.352503
21
1.40448
0
LINE
8
BLACK
6
CONTINUOUS
10
0.352503
20
1.40448
11
0.353252
21
1.40072
0
LINE
8
BLACK
6
CONTINUOUS
10
0.353252
20
1.40072
11
0.353252
21
1.36528
0
LINE
8
BLACK
6
CONTINUOUS
10
0.353252
20
1.36528
11
0.352503
21
1.36152
0
LINE
8
BLACK
6
CONTINUOUS
10
0.352503
20
1.36152
11
0.350369
21
1.35832
0
LINE
8
BLACK
6
CONTINUOUS
10
0.350369
20
1.35832
11
0.347176
21
1.35619
0
LINE
8
BLACK
6
CONTINUOUS
10
0.347176
20
1.35619
11
0.343409
21
1.35544
0
LINE
8
BLACK
6
CONTINUOUS
10
0.343409
20
1.35544
11
0.32274
21
1.35544
0
LINE
8
BLACK
6
CONTINUOUS
10
0.32274
20
1.35544
11
0.318974
21
1.35619
0
LINE
8
BLACK
6
CONTINUOUS
10
0.318974
20
1.35619
11
0.31578
21
1.35832
0
LINE
8
BLACK
6
CONTINUOUS
10
0.31578
20
1.35832
11
0.313647
21
1.36152
0
LINE
8
BLACK
6
CONTINUOUS
10
0.313647
20
1.36152
11
0.312898
21
1.36528
0
LINE
8
BLACK
6
CONTINUOUS
10
0.312898
20
1.36528
11
0.312898
21
1.40072
0
LINE
8
BLACK
6
CONTINUOUS
10
0.312898
20
1.40072
11
0.313647
21
1.40448
0
LINE
8
BLACK
6
CONTINUOUS
10
0.313647
20
1.40448
11
0.31578
21
1.40768
0
LINE
8
BLACK
6
CONTINUOUS
10
0.31578
20
1.40768
11
0.318974
21
1.40981
0
LINE
8
BLACK
6
CONTINUOUS
10
0.318974
20
1.40981
11
0.32274
21
1.41056
0
LINE
8
BLACK
6
CONTINUOUS
10
0.32274
20
1.41056
11
0.343409
21
1.41056
0
LINE
8
BLACK
6
CONTINUOUS
10
0.343409
20
1.41056
11
0.347176
21
1.40981
0
LINE
8
BLACK
6
CONTINUOUS
10
0.419026
20
1.40981
11
0.42222
21
1.40768
0
LINE
8
BLACK
6
CONTINUOUS
10
0.42222
20
1.40768
11
0.424353
21
1.40448
0
LINE
8
BLACK
6
CONTINUOUS
10
0.424353
20
1.40448
11
0.425102
21
1.40072
0
LINE
8
BLACK
6
CONTINUOUS
10
0.425102
20
1.40072
11
0.425102
21
1.36528
0
LINE
8
BLACK
6
CONTINUOUS
10
0.425102
20
1.36528
11
0.424353
21
1.36152
0
LINE
8
BLACK
6
CONTINUOUS
10
0.424353
20
1.36152
11
0.42222
21
1.35832
0
LINE
8
BLACK
6
CONTINUOUS
10
0.42222
20
1.35832
11
0.419026
21
1.35619
0
LINE
8
BLACK
6
CONTINUOUS
10
0.419026
20
1.35619
11
0.41526
21
1.35544
0
LINE
8
BLACK
6
CONTINUOUS
10
0.41526
20
1.35544
11
0.394591
21
1.35544
0
LINE
8
BLACK
6
CONTINUOUS
10
0.394591
20
1.35544
11
0.390824
21
1.35619
0
LINE
8
BLACK
6
CONTINUOUS
10
0.390824
20
1.35619
11
0.387631
21
1.35832
0
LINE
8
BLACK
6
CONTINUOUS
10
0.387631
20
1.35832
11
0.385497
21
1.36152
0
LINE
8
BLACK
6
CONTINUOUS
10
0.385497
20
1.36152
11
0.384748
21
1.36528
0
LINE
8
BLACK
6
CONTINUOUS
10
0.384748
20
1.36528
11
0.384748
21
1.40072
0
LINE
8
BLACK
6
CONTINUOUS
10
0.384748
20
1.40072
11
0.385497
21
1.40448
0
LINE
8
BLACK
6
CONTINUOUS
10
0.385497
20
1.40448
11
0.387631
21
1.40768
0
LINE
8
BLACK
6
CONTINUOUS
10
0.387631
20
1.40768
11
0.390824
21
1.40981
0
LINE
8
BLACK
6
CONTINUOUS
10
0.390824
20
1.40981
11
0.394591
21
1.41056
0
LINE
8
BLACK
6
CONTINUOUS
10
0.394591
20
1.41056
11
0.41526
21
1.41056
0
LINE
8
BLACK
6
CONTINUOUS
10
0.41526
20
1.41056
11
0.419026
21
1.40981
0
LINE
8
BLACK
6
CONTINUOUS
10
0.940483
20
1.4205
11
0.943676
21
1.41837
0
LINE
8
BLACK
6
CONTINUOUS
10
0.943676
20
1.41837
11
0.94581
21
1.41518
0
LINE
8
BLACK
6
CONTINUOUS
10
0.94581
20
1.41518
11
0.946559
21
1.41141
0
LINE
8
BLACK
6
CONTINUOUS
10
0.946559
20
1.41141
11
0.946559
21
1.39074
0
LINE
8
BLACK
6
CONTINUOUS
10
0.946559
20
1.39074
11
0.94581
21
1.38697
0
LINE
8
BLACK
6
CONTINUOUS
10
0.94581
20
1.38697
11
0.943676
21
1.38378
0
LINE
8
BLACK
6
CONTINUOUS
10
0.943676
20
1.38378
11
0.940483
21
1.38165
0
LINE
8
BLACK
6
CONTINUOUS
10
0.940483
20
1.38165
11
0.936717
21
1.3809
0
LINE
8
BLACK
6
CONTINUOUS
10
0.936717
20
1.3809
11
0.901283
21
1.3809
0
LINE
8
BLACK
6
CONTINUOUS
10
0.901283
20
1.3809
11
0.897517
21
1.38165
0
LINE
8
BLACK
6
CONTINUOUS
10
0.897517
20
1.38165
11
0.894324
21
1.38378
0
LINE
8
BLACK
6
CONTINUOUS
10
0.894324
20
1.38378
11
0.89219
21
1.38697
0
LINE
8
BLACK
6
CONTINUOUS
10
0.89219
20
1.38697
11
0.891441
21
1.39074
0
LINE
8
BLACK
6
CONTINUOUS
10
0.891441
20
1.39074
11
0.891441
21
1.41141
0
LINE
8
BLACK
6
CONTINUOUS
10
0.891441
20
1.41141
11
0.89219
21
1.41518
0
LINE
8
BLACK
6
CONTINUOUS
10
0.89219
20
1.41518
11
0.894324
21
1.41837
0
LINE
8
BLACK
6
CONTINUOUS
10
0.894324
20
1.41837
11
0.897517
21
1.4205
0
LINE
8
BLACK
6
CONTINUOUS
10
0.897517
20
1.4205
11
0.901283
21
1.42125
0
LINE
8
BLACK
6
CONTINUOUS
10
0.901283
20
1.42125
11
0.936717
21
1.42125
0
LINE
8
BLACK
6
CONTINUOUS
10
0.936717
20
1.42125
11
0.940483
21
1.4205
0
LINE
8
BLACK
6
CONTINUOUS
10
0.593483
20
1.423
11
0.596676
21
1.42087
0
LINE
8
BLACK
6
CONTINUOUS
10
0.596676
20
1.42087
11
0.59881
21
1.41768
0
LINE
8
BLACK
6
CONTINUOUS
10
0.59881
20
1.41768
11
0.599559
21
1.41391
0
LINE
8
BLACK
6
CONTINUOUS
10
0.599559
20
1.41391
11
0.599559
21
1.39324
0
LINE
8
BLACK
6
CONTINUOUS
10
0.599559
20
1.39324
11
0.59881
21
1.38947
0
LINE
8
BLACK
6
CONTINUOUS
10
0.59881
20
1.38947
11
0.596676
21
1.38628
0
LINE
8
BLACK
6
CONTINUOUS
10
0.596676
20
1.38628
11
0.593483
21
1.38415
0
LINE
8
BLACK
6
CONTINUOUS
10
0.593483
20
1.38415
11
0.589717
21
1.3834
0
LINE
8
BLACK
6
CONTINUOUS
10
0.589717
20
1.3834
11
0.554283
21
1.3834
0
LINE
8
BLACK
6
CONTINUOUS
10
0.554283
20
1.3834
11
0.550517
21
1.38415
0
LINE
8
BLACK
6
CONTINUOUS
10
0.550517
20
1.38415
11
0.547324
21
1.38628
0
LINE
8
BLACK
6
CONTINUOUS
10
0.547324
20
1.38628
11
0.54519
21
1.38947
0
LINE
8
BLACK
6
CONTINUOUS
10
0.54519
20
1.38947
11
0.544441
21
1.39324
0
LINE
8
BLACK
6
CONTINUOUS
10
0.544441
20
1.39324
11
0.544441
21
1.41391
0
LINE
8
BLACK
6
CONTINUOUS
10
0.544441
20
1.41391
11
0.54519
21
1.41768
0
LINE
8
BLACK
6
CONTINUOUS
10
0.54519
20
1.41768
11
0.547324
21
1.42087
0
LINE
8
BLACK
6
CONTINUOUS
10
0.547324
20
1.42087
11
0.550517
21
1.423
0
LINE
8
BLACK
6
CONTINUOUS
10
0.550517
20
1.423
11
0.554283
21
1.42375
0
LINE
8
BLACK
6
CONTINUOUS
10
0.554283
20
1.42375
11
0.589717
21
1.42375
0
LINE
8
BLACK
6
CONTINUOUS
10
0.589717
20
1.42375
11
0.593483
21
1.423
0
LINE
8
BLACK
6
CONTINUOUS
10
0.518483
20
1.4238
11
0.521676
21
1.42167
0
LINE
8
BLACK
6
CONTINUOUS
10
0.521676
20
1.42167
11
0.52381
21
1.41848
0
LINE
8
BLACK
6
CONTINUOUS
10
0.52381
20
1.41848
11
0.524559
21
1.41471
0
LINE
8
BLACK
6
CONTINUOUS
10
0.524559
20
1.41471
11
0.524559
21
1.39404
0
LINE
8
BLACK
6
CONTINUOUS
10
0.524559
20
1.39404
11
0.52381
21
1.39027
0
LINE
8
BLACK
6
CONTINUOUS
10
0.52381
20
1.39027
11
0.521676
21
1.38708
0
LINE
8
BLACK
6
CONTINUOUS
10
0.521676
20
1.38708
11
0.518483
21
1.38495
0
LINE
8
BLACK
6
CONTINUOUS
10
0.518483
20
1.38495
11
0.514717
21
1.3842
0
LINE
8
BLACK
6
CONTINUOUS
10
0.514717
20
1.3842
11
0.479283
21
1.3842
0
LINE
8
BLACK
6
CONTINUOUS
10
0.479283
20
1.3842
11
0.475517
21
1.38495
0
LINE
8
BLACK
6
CONTINUOUS
10
0.475517
20
1.38495
11
0.472324
21
1.38708
0
LINE
8
BLACK
6
CONTINUOUS
10
0.472324
20
1.38708
11
0.47019
21
1.39027
0
LINE
8
BLACK
6
CONTINUOUS
10
0.47019
20
1.39027
11
0.469441
21
1.39404
0
LINE
8
BLACK
6
CONTINUOUS
10
0.469441
20
1.39404
11
0.469441
21
1.41471
0
LINE
8
BLACK
6
CONTINUOUS
10
0.469441
20
1.41471
11
0.47019
21
1.41848
0
LINE
8
BLACK
6
CONTINUOUS
10
0.47019
20
1.41848
11
0.472324
21
1.42167
0
LINE
8
BLACK
6
CONTINUOUS
10
0.472324
20
1.42167
11
0.475517
21
1.4238
0
LINE
8
BLACK
6
CONTINUOUS
10
0.475517
20
1.4238
11
0.479283
21
1.42455
0
LINE
8
BLACK
6
CONTINUOUS
10
0.479283
20
1.42455
11
0.514717
21
1.42455
0
LINE
8
BLACK
6
CONTINUOUS
10
0.514717
20
1.42455
11
0.518483
21
1.4238
0
LINE
8
BLACK
6
CONTINUOUS
10
0.425467
20
1.46953
11
0.428661
21
1.4674
0
LINE
8
BLACK
6
CONTINUOUS
10
0.428661
20
1.4674
11
0.430794
21
1.46421
0
LINE
8
BLACK
6
CONTINUOUS
10
0.430794
20
1.46421
11
0.431543
21
1.46044
0
LINE
8
BLACK
6
CONTINUOUS
10
0.431543
20
1.46044
11
0.431543
21
1.44076
0
LINE
8
BLACK
6
CONTINUOUS
10
0.431543
20
1.44076
11
0.430794
21
1.43699
0
LINE
8
BLACK
6
CONTINUOUS
10
0.430794
20
1.43699
11
0.428661
21
1.4338
0
LINE
8
BLACK
6
CONTINUOUS
10
0.428661
20
1.4338
11
0.425467
21
1.43166
0
LINE
8
BLACK
6
CONTINUOUS
10
0.425467
20
1.43166
11
0.421701
21
1.43091
0
LINE
8
BLACK
6
CONTINUOUS
10
0.421701
20
1.43091
11
0.384299
21
1.43091
0
LINE
8
BLACK
6
CONTINUOUS
10
0.384299
20
1.43091
11
0.380533
21
1.43166
0
LINE
8
BLACK
6
CONTINUOUS
10
0.380533
20
1.43166
11
0.377339
21
1.4338
0
LINE
8
BLACK
6
CONTINUOUS
10
0.377339
20
1.4338
11
0.375206
21
1.43699
0
LINE
8
BLACK
6
CONTINUOUS
10
0.375206
20
1.43699
11
0.374457
21
1.44076
0
LINE
8
BLACK
6
CONTINUOUS
10
0.374457
20
1.44076
11
0.374457
21
1.46044
0
LINE
8
BLACK
6
CONTINUOUS
10
0.374457
20
1.46044
11
0.375206
21
1.46421
0
LINE
8
BLACK
6
CONTINUOUS
10
0.375206
20
1.46421
11
0.377339
21
1.4674
0
LINE
8
BLACK
6
CONTINUOUS
10
0.377339
20
1.4674
11
0.380533
21
1.46953
0
LINE
8
BLACK
6
CONTINUOUS
10
0.380533
20
1.46953
11
0.384299
21
1.47028
0
LINE
8
BLACK
6
CONTINUOUS
10
0.384299
20
1.47028
11
0.421701
21
1.47028
0
LINE
8
BLACK
6
CONTINUOUS
10
0.421701
20
1.47028
11
0.425467
21
1.46953
0
LINE
8
BLACK
6
CONTINUOUS
10
0.940483
20
1.49235
11
0.943676
21
1.49022
0
LINE
8
BLACK
6
CONTINUOUS
10
0.943676
20
1.49022
11
0.94581
21
1.48703
0
LINE
8
BLACK
6
CONTINUOUS
10
0.94581
20
1.48703
11
0.946559
21
1.48326
0
LINE
8
BLACK
6
CONTINUOUS
10
0.946559
20
1.48326
11
0.946559
21
1.46259
0
LINE
8
BLACK
6
CONTINUOUS
10
0.946559
20
1.46259
11
0.94581
21
1.45882
0
LINE
8
BLACK
6
CONTINUOUS
10
0.94581
20
1.45882
11
0.943676
21
1.45563
0
LINE
8
BLACK
6
CONTINUOUS
10
0.943676
20
1.45563
11
0.940483
21
1.4535
0
LINE
8
BLACK
6
CONTINUOUS
10
0.940483
20
1.4535
11
0.936717
21
1.45275
0
LINE
8
BLACK
6
CONTINUOUS
10
0.936717
20
1.45275
11
0.901283
21
1.45275
0
LINE
8
BLACK
6
CONTINUOUS
10
0.901283
20
1.45275
11
0.897517
21
1.4535
0
LINE
8
BLACK
6
CONTINUOUS
10
0.897517
20
1.4535
11
0.894324
21
1.45563
0
LINE
8
BLACK
6
CONTINUOUS
10
0.894324
20
1.45563
11
0.89219
21
1.45882
0
LINE
8
BLACK
6
CONTINUOUS
10
0.89219
20
1.45882
11
0.891441
21
1.46259
0
LINE
8
BLACK
6
CONTINUOUS
10
0.891441
20
1.46259
11
0.891441
21
1.48326
0
LINE
8
BLACK
6
CONTINUOUS
10
0.891441
20
1.48326
11
0.89219
21
1.48703
0
LINE
8
BLACK
6
CONTINUOUS
10
0.89219
20
1.48703
11
0.894324
21
1.49022
0
LINE
8
BLACK
6
CONTINUOUS
10
0.894324
20
1.49022
11
0.897517
21
1.49235
0
LINE
8
BLACK
6
CONTINUOUS
10
0.897517
20
1.49235
11
0.901283
21
1.4931
0
LINE
8
BLACK
6
CONTINUOUS
10
0.901283
20
1.4931
11
0.936717
21
1.4931
0
LINE
8
BLACK
6
CONTINUOUS
10
0.936717
20
1.4931
11
0.940483
21
1.49235
0
LINE
8
BLACK
6
CONTINUOUS
10
0.593483
20
1.49485
11
0.596676
21
1.49272
0
LINE
8
BLACK
6
CONTINUOUS
10
0.596676
20
1.49272
11
0.59881
21
1.48953
0
LINE
8
BLACK
6
CONTINUOUS
10
0.59881
20
1.48953
11
0.599559
21
1.48576
0
LINE
8
BLACK
6
CONTINUOUS
10
0.599559
20
1.48576
11
0.599559
21
1.46509
0
LINE
8
BLACK
6
CONTINUOUS
10
0.599559
20
1.46509
11
0.59881
21
1.46132
0
LINE
8
BLACK
6
CONTINUOUS
10
0.59881
20
1.46132
11
0.596676
21
1.45813
0
LINE
8
BLACK
6
CONTINUOUS
10
0.596676
20
1.45813
11
0.593483
21
1.456
0
LINE
8
BLACK
6
CONTINUOUS
10
0.593483
20
1.456
11
0.589717
21
1.45525
0
LINE
8
BLACK
6
CONTINUOUS
10
0.589717
20
1.45525
11
0.554283
21
1.45525
0
LINE
8
BLACK
6
CONTINUOUS
10
0.554283
20
1.45525
11
0.550517
21
1.456
0
LINE
8
BLACK
6
CONTINUOUS
10
0.550517
20
1.456
11
0.547324
21
1.45813
0
LINE
8
BLACK
6
CONTINUOUS
10
0.547324
20
1.45813
11
0.54519
21
1.46132
0
LINE
8
BLACK
6
CONTINUOUS
10
0.54519
20
1.46132
11
0.544441
21
1.46509
0
LINE
8
BLACK
6
CONTINUOUS
10
0.544441
20
1.46509
11
0.544441
21
1.48576
0
LINE
8
BLACK
6
CONTINUOUS
10
0.544441
20
1.48576
11
0.54519
21
1.48953
0
LINE
8
BLACK
6
CONTINUOUS
10
0.54519
20
1.48953
11
0.547324
21
1.49272
0
LINE
8
BLACK
6
CONTINUOUS
10
0.547324
20
1.49272
11
0.550517
21
1.49485
0
LINE
8
BLACK
6
CONTINUOUS
10
0.550517
20
1.49485
11
0.554283
21
1.4956
0
LINE
8
BLACK
6
CONTINUOUS
10
0.554283
20
1.4956
11
0.589717
21
1.4956
0
LINE
8
BLACK
6
CONTINUOUS
10
0.589717
20
1.4956
11
0.593483
21
1.49485
0
LINE
8
BLACK
6
CONTINUOUS
10
0.518483
20
1.49565
11
0.521676
21
1.49352
0
LINE
8
BLACK
6
CONTINUOUS
10
0.521676
20
1.49352
11
0.52381
21
1.49033
0
LINE
8
BLACK
6
CONTINUOUS
10
0.52381
20
1.49033
11
0.524559
21
1.48656
0
LINE
8
BLACK
6
CONTINUOUS
10
0.524559
20
1.48656
11
0.524559
21
1.46589
0
LINE
8
BLACK
6
CONTINUOUS
10
0.524559
20
1.46589
11
0.52381
21
1.46212
0
LINE
8
BLACK
6
CONTINUOUS
10
0.52381
20
1.46212
11
0.521676
21
1.45893
0
LINE
8
BLACK
6
CONTINUOUS
10
0.521676
20
1.45893
11
0.518483
21
1.4568
0
LINE
8
BLACK
6
CONTINUOUS
10
0.518483
20
1.4568
11
0.514717
21
1.45605
0
LINE
8
BLACK
6
CONTINUOUS
10
0.514717
20
1.45605
11
0.479283
21
1.45605
0
LINE
8
BLACK
6
CONTINUOUS
10
0.479283
20
1.45605
11
0.475517
21
1.4568
0
LINE
8
BLACK
6
CONTINUOUS
10
0.475517
20
1.4568
11
0.472324
21
1.45893
0
LINE
8
BLACK
6
CONTINUOUS
10
0.472324
20
1.45893
11
0.47019
21
1.46212
0
LINE
8
BLACK
6
CONTINUOUS
10
0.47019
20
1.46212
11
0.469441
21
1.46589
0
LINE
8
BLACK
6
CONTINUOUS
10
0.469441
20
1.46589
11
0.469441
21
1.48656
0
LINE
8
BLACK
6
CONTINUOUS
10
0.469441
20
1.48656
11
0.47019
21
1.49033
0
LINE
8
BLACK
6
CONTINUOUS
10
0.47019
20
1.49033
11
0.472324
21
1.49352
0
LINE
8
BLACK
6
CONTINUOUS
10
0.472324
20
1.49352
11
0.475517
21
1.49565
0
LINE
8
BLACK
6
CONTINUOUS
10
0.475517
20
1.49565
11
0.479283
21
1.4964
0
LINE
8
BLACK
6
CONTINUOUS
10
0.479283
20
1.4964
11
0.514717
21
1.4964
0
LINE
8
BLACK
6
CONTINUOUS
10
0.514717
20
1.4964
11
0.518483
21
1.49565
0
LINE
8
BLACK
6
CONTINUOUS
10
0.425467
20
1.54434
11
0.428661
21
1.5422
0
LINE
8
BLACK
6
CONTINUOUS
10
0.428661
20
1.5422
11
0.430794
21
1.53901
0
LINE
8
BLACK
6
CONTINUOUS
10
0.430794
20
1.53901
11
0.431543
21
1.53524
0
LINE
8
BLACK
6
CONTINUOUS
10
0.431543
20
1.53524
11
0.431543
21
1.51556
0
LINE
8
BLACK
6
CONTINUOUS
10
0.431543
20
1.51556
11
0.430794
21
1.51179
0
LINE
8
BLACK
6
CONTINUOUS
10
0.430794
20
1.51179
11
0.428661
21
1.5086
0
LINE
8
BLACK
6
CONTINUOUS
10
0.428661
20
1.5086
11
0.425467
21
1.50647
0
LINE
8
BLACK
6
CONTINUOUS
10
0.425467
20
1.50647
11
0.421701
21
1.50572
0
LINE
8
BLACK
6
CONTINUOUS
10
0.421701
20
1.50572
11
0.384299
21
1.50572
0
LINE
8
BLACK
6
CONTINUOUS
10
0.384299
20
1.50572
11
0.380533
21
1.50647
0
LINE
8
BLACK
6
CONTINUOUS
10
0.380533
20
1.50647
11
0.377339
21
1.5086
0
LINE
8
BLACK
6
CONTINUOUS
10
0.377339
20
1.5086
11
0.375206
21
1.51179
0
LINE
8
BLACK
6
CONTINUOUS
10
0.375206
20
1.51179
11
0.374457
21
1.51556
0
LINE
8
BLACK
6
CONTINUOUS
10
0.374457
20
1.51556
11
0.374457
21
1.53524
0
LINE
8
BLACK
6
CONTINUOUS
10
0.374457
20
1.53524
11
0.375206
21
1.53901
0
LINE
8
BLACK
6
CONTINUOUS
10
0.375206
20
1.53901
11
0.377339
21
1.5422
0
LINE
8
BLACK
6
CONTINUOUS
10
0.377339
20
1.5422
11
0.380533
21
1.54434
0
LINE
8
BLACK
6
CONTINUOUS
10
0.380533
20
1.54434
11
0.384299
21
1.54509
0
LINE
8
BLACK
6
CONTINUOUS
10
0.384299
20
1.54509
11
0.421701
21
1.54509
0
LINE
8
BLACK
6
CONTINUOUS
10
0.421701
20
1.54509
11
0.425467
21
1.54434
0
LINE
8
BLACK
6
CONTINUOUS
10
0.731483
20
1.5455
11
0.734676
21
1.54337
0
LINE
8
BLACK
6
CONTINUOUS
10
0.734676
20
1.54337
11
0.73681
21
1.54018
0
LINE
8
BLACK
6
CONTINUOUS
10
0.73681
20
1.54018
11
0.737559
21
1.53641
0
LINE
8
BLACK
6
CONTINUOUS
10
0.737559
20
1.53641
11
0.737559
21
1.51574
0
LINE
8
BLACK
6
CONTINUOUS
10
0.737559
20
1.51574
11
0.73681
21
1.51197
0
LINE
8
BLACK
6
CONTINUOUS
10
0.73681
20
1.51197
11
0.734676
21
1.50878
0
LINE
8
BLACK
6
CONTINUOUS
10
0.734676
20
1.50878
11
0.731483
21
1.50665
0
LINE
8
BLACK
6
CONTINUOUS
10
0.731483
20
1.50665
11
0.727717
21
1.5059
0
LINE
8
BLACK
6
CONTINUOUS
10
0.727717
20
1.5059
11
0.692283
21
1.5059
0
LINE
8
BLACK
6
CONTINUOUS
10
0.692283
20
1.5059
11
0.688517
21
1.50665
0
LINE
8
BLACK
6
CONTINUOUS
10
0.688517
20
1.50665
11
0.685324
21
1.50878
0
LINE
8
BLACK
6
CONTINUOUS
10
0.685324
20
1.50878
11
0.68319
21
1.51197
0
LINE
8
BLACK
6
CONTINUOUS
10
0.68319
20
1.51197
11
0.682441
21
1.51574
0
LINE
8
BLACK
6
CONTINUOUS
10
0.682441
20
1.51574
11
0.682441
21
1.53641
0
LINE
8
BLACK
6
CONTINUOUS
10
0.682441
20
1.53641
11
0.68319
21
1.54018
0
LINE
8
BLACK
6
CONTINUOUS
10
0.68319
20
1.54018
11
0.685324
21
1.54337
0
LINE
8
BLACK
6
CONTINUOUS
10
0.685324
20
1.54337
11
0.688517
21
1.5455
0
LINE
8
BLACK
6
CONTINUOUS
10
0.688517
20
1.5455
11
0.692283
21
1.54625
0
LINE
8
BLACK
6
CONTINUOUS
10
0.692283
20
1.54625
11
0.727717
21
1.54625
0
LINE
8
BLACK
6
CONTINUOUS
10
0.727717
20
1.54625
11
0.731483
21
1.5455
0
LINE
8
BLACK
6
CONTINUOUS
10
0.823483
20
1.5455
11
0.826676
21
1.54337
0
LINE
8
BLACK
6
CONTINUOUS
10
0.826676
20
1.54337
11
0.82881
21
1.54018
0
LINE
8
BLACK
6
CONTINUOUS
10
0.82881
20
1.54018
11
0.829559
21
1.53641
0
LINE
8
BLACK
6
CONTINUOUS
10
0.829559
20
1.53641
11
0.829559
21
1.51574
0
LINE
8
BLACK
6
CONTINUOUS
10
0.829559
20
1.51574
11
0.82881
21
1.51197
0
LINE
8
BLACK
6
CONTINUOUS
10
0.82881
20
1.51197
11
0.826676
21
1.50878
0
LINE
8
BLACK
6
CONTINUOUS
10
0.826676
20
1.50878
11
0.823483
21
1.50665
0
LINE
8
BLACK
6
CONTINUOUS
10
0.823483
20
1.50665
11
0.819717
21
1.5059
0
LINE
8
BLACK
6
CONTINUOUS
10
0.819717
20
1.5059
11
0.784283
21
1.5059
0
LINE
8
BLACK
6
CONTINUOUS
10
0.784283
20
1.5059
11
0.780517
21
1.50665
0
LINE
8
BLACK
6
CONTINUOUS
10
0.780517
20
1.50665
11
0.777324
21
1.50878
0
LINE
8
BLACK
6
CONTINUOUS
10
0.777324
20
1.50878
11
0.77519
21
1.51197
0
LINE
8
BLACK
6
CONTINUOUS
10
0.77519
20
1.51197
11
0.774441
21
1.51574
0
LINE
8
BLACK
6
CONTINUOUS
10
0.774441
20
1.51574
11
0.774441
21
1.53641
0
LINE
8
BLACK
6
CONTINUOUS
10
0.774441
20
1.53641
11
0.77519
21
1.54018
0
LINE
8
BLACK
6
CONTINUOUS
10
0.77519
20
1.54018
11
0.777324
21
1.54337
0
LINE
8
BLACK
6
CONTINUOUS
10
0.777324
20
1.54337
11
0.780517
21
1.5455
0
LINE
8
BLACK
6
CONTINUOUS
10
0.780517
20
1.5455
11
0.784283
21
1.54625
0
LINE
8
BLACK
6
CONTINUOUS
10
0.784283
20
1.54625
11
0.819717
21
1.54625
0
LINE
8
BLACK
6
CONTINUOUS
10
0.819717
20
1.54625
11
0.823483
21
1.5455
0
LINE
8
BLACK
6
CONTINUOUS
10
0.823483
20
1.61735
11
0.826676
21
1.61522
0
LINE
8
BLACK
6
CONTINUOUS
10
0.826676
20
1.61522
11
0.82881
21
1.61203
0
LINE
8
BLACK
6
CONTINUOUS
10
0.82881
20
1.61203
11
0.829559
21
1.60826
0
LINE
8
BLACK
6
CONTINUOUS
10
0.829559
20
1.60826
11
0.829559
21
1.58759
0
LINE
8
BLACK
6
CONTINUOUS
10
0.829559
20
1.58759
11
0.82881
21
1.58382
0
LINE
8
BLACK
6
CONTINUOUS
10
0.82881
20
1.58382
11
0.826676
21
1.58063
0
LINE
8
BLACK
6
CONTINUOUS
10
0.826676
20
1.58063
11
0.823483
21
1.5785
0
LINE
8
BLACK
6
CONTINUOUS
10
0.823483
20
1.5785
11
0.819717
21
1.57775
0
LINE
8
BLACK
6
CONTINUOUS
10
0.819717
20
1.57775
11
0.784283
21
1.57775
0
LINE
8
BLACK
6
CONTINUOUS
10
0.784283
20
1.57775
11
0.780517
21
1.5785
0
LINE
8
BLACK
6
CONTINUOUS
10
0.780517
20
1.5785
11
0.777324
21
1.58063
0
LINE
8
BLACK
6
CONTINUOUS
10
0.777324
20
1.58063
11
0.77519
21
1.58382
0
LINE
8
BLACK
6
CONTINUOUS
10
0.77519
20
1.58382
11
0.774441
21
1.58759
0
LINE
8
BLACK
6
CONTINUOUS
10
0.774441
20
1.58759
11
0.774441
21
1.60826
0
LINE
8
BLACK
6
CONTINUOUS
10
0.774441
20
1.60826
11
0.77519
21
1.61203
0
LINE
8
BLACK
6
CONTINUOUS
10
0.77519
20
1.61203
11
0.777324
21
1.61522
0
LINE
8
BLACK
6
CONTINUOUS
10
0.777324
20
1.61522
11
0.780517
21
1.61735
0
LINE
8
BLACK
6
CONTINUOUS
10
0.780517
20
1.61735
11
0.784283
21
1.6181
0
LINE
8
BLACK
6
CONTINUOUS
10
0.784283
20
1.6181
11
0.819717
21
1.6181
0
LINE
8
BLACK
6
CONTINUOUS
10
0.819717
20
1.6181
11
0.823483
21
1.61735
0
LINE
8
BLACK
6
CONTINUOUS
10
0.731483
20
1.61735
11
0.734676
21
1.61522
0
LINE
8
BLACK
6
CONTINUOUS
10
0.734676
20
1.61522
11
0.73681
21
1.61203
0
LINE
8
BLACK
6
CONTINUOUS
10
0.73681
20
1.61203
11
0.737559
21
1.60826
0
LINE
8
BLACK
6
CONTINUOUS
10
0.737559
20
1.60826
11
0.737559
21
1.58759
0
LINE
8
BLACK
6
CONTINUOUS
10
0.737559
20
1.58759
11
0.73681
21
1.58382
0
LINE
8
BLACK
6
CONTINUOUS
10
0.73681
20
1.58382
11
0.734676
21
1.58063
0
LINE
8
BLACK
6
CONTINUOUS
10
0.734676
20
1.58063
11
0.731483
21
1.5785
0
LINE
8
BLACK
6
CONTINUOUS
10
0.731483
20
1.5785
11
0.727717
21
1.57775
0
LINE
8
BLACK
6
CONTINUOUS
10
0.727717
20
1.57775
11
0.692283
21
1.57775
0
LINE
8
BLACK
6
CONTINUOUS
10
0.692283
20
1.57775
11
0.688517
21
1.5785
0
LINE
8
BLACK
6
CONTINUOUS
10
0.688517
20
1.5785
11
0.685324
21
1.58063
0
LINE
8
BLACK
6
CONTINUOUS
10
0.685324
20
1.58063
11
0.68319
21
1.58382
0
LINE
8
BLACK
6
CONTINUOUS
10
0.68319
20
1.58382
11
0.682441
21
1.58759
0
LINE
8
BLACK
6
CONTINUOUS
10
0.682441
20
1.58759
11
0.682441
21
1.60826
0
LINE
8
BLACK
6
CONTINUOUS
10
0.682441
20
1.60826
11
0.68319
21
1.61203
0
LINE
8
BLACK
6
CONTINUOUS
10
0.68319
20
1.61203
11
0.685324
21
1.61522
0
LINE
8
BLACK
6
CONTINUOUS
10
0.685324
20
1.61522
11
0.688517
21
1.61735
0
LINE
8
BLACK
6
CONTINUOUS
10
0.688517
20
1.61735
11
0.692283
21
1.6181
0
LINE
8
BLACK
6
CONTINUOUS
10
0.692283
20
1.6181
11
0.727717
21
1.6181
0
LINE
8
BLACK
6
CONTINUOUS
10
0.727717
20
1.6181
11
0.731483
21
1.61735
0
LINE
8
BLACK
6
CONTINUOUS
10
1.15003
20
1.66681
11
1.15322
21
1.66468
0
LINE
8
BLACK
6
CONTINUOUS
10
1.15322
20
1.66468
11
1.15535
21
1.66148
0
LINE
8
BLACK
6
CONTINUOUS
10
1.15535
20
1.66148
11
1.1561
21
1.65772
0
LINE
8
BLACK
6
CONTINUOUS
10
1.1561
20
1.65772
11
1.1561
21
1.62228
0
LINE
8
BLACK
6
CONTINUOUS
10
1.1561
20
1.62228
11
1.15535
21
1.61852
0
LINE
8
BLACK
6
CONTINUOUS
10
1.15535
20
1.61852
11
1.15322
21
1.61532
0
LINE
8
BLACK
6
CONTINUOUS
10
1.15322
20
1.61532
11
1.15003
21
1.61319
0
LINE
8
BLACK
6
CONTINUOUS
10
1.15003
20
1.61319
11
1.14626
21
1.61244
0
LINE
8
BLACK
6
CONTINUOUS
10
1.14626
20
1.61244
11
1.12559
21
1.61244
0
LINE
8
BLACK
6
CONTINUOUS
10
1.12559
20
1.61244
11
1.12182
21
1.61319
0
LINE
8
BLACK
6
CONTINUOUS
10
1.12182
20
1.61319
11
1.11863
21
1.61532
0
LINE
8
BLACK
6
CONTINUOUS
10
1.11863
20
1.61532
11
1.1165
21
1.61852
0
LINE
8
BLACK
6
CONTINUOUS
10
1.1165
20
1.61852
11
1.11575
21
1.62228
0
LINE
8
BLACK
6
CONTINUOUS
10
1.11575
20
1.62228
11
1.11575
21
1.65772
0
LINE
8
BLACK
6
CONTINUOUS
10
1.11575
20
1.65772
11
1.1165
21
1.66148
0
LINE
8
BLACK
6
CONTINUOUS
10
1.1165
20
1.66148
11
1.11863
21
1.66468
0
LINE
8
BLACK
6
CONTINUOUS
10
1.11863
20
1.66468
11
1.12182
21
1.66681
0
LINE
8
BLACK
6
CONTINUOUS
10
1.12182
20
1.66681
11
1.12559
21
1.66756
0
LINE
8
BLACK
6
CONTINUOUS
10
1.12559
20
1.66756
11
1.14626
21
1.66756
0
LINE
8
BLACK
6
CONTINUOUS
10
1.14626
20
1.66756
11
1.15003
21
1.66681
0
LINE
8
BLACK
6
CONTINUOUS
10
1.07818
20
1.66681
11
1.08137
21
1.66468
0
LINE
8
BLACK
6
CONTINUOUS
10
1.08137
20
1.66468
11
1.0835
21
1.66148
0
LINE
8
BLACK
6
CONTINUOUS
10
1.0835
20
1.66148
11
1.08425
21
1.65772
0
LINE
8
BLACK
6
CONTINUOUS
10
1.08425
20
1.65772
11
1.08425
21
1.62228
0
LINE
8
BLACK
6
CONTINUOUS
10
1.08425
20
1.62228
11
1.0835
21
1.61852
0
LINE
8
BLACK
6
CONTINUOUS
10
1.0835
20
1.61852
11
1.08137
21
1.61532
0
LINE
8
BLACK
6
CONTINUOUS
10
1.08137
20
1.61532
11
1.07818
21
1.61319
0
LINE
8
BLACK
6
CONTINUOUS
10
1.07818
20
1.61319
11
1.07441
21
1.61244
0
LINE
8
BLACK
6
CONTINUOUS
10
1.07441
20
1.61244
11
1.05374
21
1.61244
0
LINE
8
BLACK
6
CONTINUOUS
10
1.05374
20
1.61244
11
1.04997
21
1.61319
0
LINE
8
BLACK
6
CONTINUOUS
10
1.04997
20
1.61319
11
1.04678
21
1.61532
0
LINE
8
BLACK
6
CONTINUOUS
10
1.04678
20
1.61532
11
1.04465
21
1.61852
0
LINE
8
BLACK
6
CONTINUOUS
10
1.04465
20
1.61852
11
1.0439
21
1.62228
0
LINE
8
BLACK
6
CONTINUOUS
10
1.0439
20
1.62228
11
1.0439
21
1.65772
0
LINE
8
BLACK
6
CONTINUOUS
10
1.0439
20
1.65772
11
1.04465
21
1.66148
0
LINE
8
BLACK
6
CONTINUOUS
10
1.04465
20
1.66148
11
1.04678
21
1.66468
0
LINE
8
BLACK
6
CONTINUOUS
10
1.04678
20
1.66468
11
1.04997
21
1.66681
0
LINE
8
BLACK
6
CONTINUOUS
10
1.04997
20
1.66681
11
1.05374
21
1.66756
0
LINE
8
BLACK
6
CONTINUOUS
10
1.05374
20
1.66756
11
1.07441
21
1.66756
0
LINE
8
BLACK
6
CONTINUOUS
10
1.07441
20
1.66756
11
1.07818
21
1.66681
0
LINE
8
BLACK
6
CONTINUOUS
10
1.11448
20
1.7335
11
1.11768
21
1.73137
0
LINE
8
BLACK
6
CONTINUOUS
10
1.11768
20
1.73137
11
1.11981
21
1.72818
0
LINE
8
BLACK
6
CONTINUOUS
10
1.11981
20
1.72818
11
1.12056
21
1.72441
0
LINE
8
BLACK
6
CONTINUOUS
10
1.12056
20
1.72441
11
1.12056
21
1.70374
0
LINE
8
BLACK
6
CONTINUOUS
10
1.12056
20
1.70374
11
1.11981
21
1.69997
0
LINE
8
BLACK
6
CONTINUOUS
10
1.11981
20
1.69997
11
1.11768
21
1.69678
0
LINE
8
BLACK
6
CONTINUOUS
10
1.11768
20
1.69678
11
1.11448
21
1.69465
0
LINE
8
BLACK
6
CONTINUOUS
10
1.11448
20
1.69465
11
1.11072
21
1.6939
0
LINE
8
BLACK
6
CONTINUOUS
10
1.11072
20
1.6939
11
1.07528
21
1.6939
0
LINE
8
BLACK
6
CONTINUOUS
10
1.07528
20
1.6939
11
1.07152
21
1.69465
0
LINE
8
BLACK
6
CONTINUOUS
10
1.07152
20
1.69465
11
1.06832
21
1.69678
0
LINE
8
BLACK
6
CONTINUOUS
10
1.06832
20
1.69678
11
1.06619
21
1.69997
0
LINE
8
BLACK
6
CONTINUOUS
10
1.06619
20
1.69997
11
1.06544
21
1.70374
0
LINE
8
BLACK
6
CONTINUOUS
10
1.06544
20
1.70374
11
1.06544
21
1.72441
0
LINE
8
BLACK
6
CONTINUOUS
10
1.06544
20
1.72441
11
1.06619
21
1.72818
0
LINE
8
BLACK
6
CONTINUOUS
10
1.06619
20
1.72818
11
1.06832
21
1.73137
0
LINE
8
BLACK
6
CONTINUOUS
10
1.06832
20
1.73137
11
1.07152
21
1.7335
0
LINE
8
BLACK
6
CONTINUOUS
10
1.07152
20
1.7335
11
1.07528
21
1.73425
0
LINE
8
BLACK
6
CONTINUOUS
10
1.07528
20
1.73425
11
1.11072
21
1.73425
0
LINE
8
BLACK
6
CONTINUOUS
10
1.11072
20
1.73425
11
1.11448
21
1.7335
0
LINE
8
BLACK
6
CONTINUOUS
10
1.11448
20
1.80535
11
1.11768
21
1.80322
0
LINE
8
BLACK
6
CONTINUOUS
10
1.11768
20
1.80322
11
1.11981
21
1.80003
0
LINE
8
BLACK
6
CONTINUOUS
10
1.11981
20
1.80003
11
1.12056
21
1.79626
0
LINE
8
BLACK
6
CONTINUOUS
10
1.12056
20
1.79626
11
1.12056
21
1.77559
0
LINE
8
BLACK
6
CONTINUOUS
10
1.12056
20
1.77559
11
1.11981
21
1.77182
0
LINE
8
BLACK
6
CONTINUOUS
10
1.11981
20
1.77182
11
1.11768
21
1.76863
0
LINE
8
BLACK
6
CONTINUOUS
10
1.11768
20
1.76863
11
1.11448
21
1.7665
0
LINE
8
BLACK
6
CONTINUOUS
10
1.11448
20
1.7665
11
1.11072
21
1.76575
0
LINE
8
BLACK
6
CONTINUOUS
10
1.11072
20
1.76575
11
1.07528
21
1.76575
0
LINE
8
BLACK
6
CONTINUOUS
10
1.07528
20
1.76575
11
1.07152
21
1.7665
0
LINE
8
BLACK
6
CONTINUOUS
10
1.07152
20
1.7665
11
1.06832
21
1.76863
0
LINE
8
BLACK
6
CONTINUOUS
10
1.06832
20
1.76863
11
1.06619
21
1.77182
0
LINE
8
BLACK
6
CONTINUOUS
10
1.06619
20
1.77182
11
1.06544
21
1.77559
0
LINE
8
BLACK
6
CONTINUOUS
10
1.06544
20
1.77559
11
1.06544
21
1.79626
0
LINE
8
BLACK
6
CONTINUOUS
10
1.06544
20
1.79626
11
1.06619
21
1.80003
0
LINE
8
BLACK
6
CONTINUOUS
10
1.06619
20
1.80003
11
1.06832
21
1.80322
0
LINE
8
BLACK
6
CONTINUOUS
10
1.06832
20
1.80322
11
1.07152
21
1.80535
0
LINE
8
BLACK
6
CONTINUOUS
10
1.07152
20
1.80535
11
1.07528
21
1.8061
0
LINE
8
BLACK
6
CONTINUOUS
10
1.07528
20
1.8061
11
1.11072
21
1.8061
0
LINE
8
BLACK
6
CONTINUOUS
10
1.11072
20
1.8061
11
1.11448
21
1.80535
0
LINE
8
BLACK
6
CONTINUOUS
10
0.567483
20
1.9635
11
0.570676
21
1.96137
0
LINE
8
BLACK
6
CONTINUOUS
10
0.570676
20
1.96137
11
0.57281
21
1.95818
0
LINE
8
BLACK
6
CONTINUOUS
10
0.57281
20
1.95818
11
0.573559
21
1.95441
0
LINE
8
BLACK
6
CONTINUOUS
10
0.573559
20
1.95441
11
0.573559
21
1.93374
0
LINE
8
BLACK
6
CONTINUOUS
10
0.573559
20
1.93374
11
0.57281
21
1.92997
0
LINE
8
BLACK
6
CONTINUOUS
10
0.57281
20
1.92997
11
0.570676
21
1.92678
0
LINE
8
BLACK
6
CONTINUOUS
10
0.570676
20
1.92678
11
0.567483
21
1.92465
0
LINE
8
BLACK
6
CONTINUOUS
10
0.567483
20
1.92465
11
0.563717
21
1.9239
0
LINE
8
BLACK
6
CONTINUOUS
10
0.563717
20
1.9239
11
0.528283
21
1.9239
0
LINE
8
BLACK
6
CONTINUOUS
10
0.528283
20
1.9239
11
0.524517
21
1.92465
0
LINE
8
BLACK
6
CONTINUOUS
10
0.524517
20
1.92465
11
0.521324
21
1.92678
0
LINE
8
BLACK
6
CONTINUOUS
10
0.521324
20
1.92678
11
0.51919
21
1.92997
0
LINE
8
BLACK
6
CONTINUOUS
10
0.51919
20
1.92997
11
0.518441
21
1.93374
0
LINE
8
BLACK
6
CONTINUOUS
10
0.518441
20
1.93374
11
0.518441
21
1.95441
0
LINE
8
BLACK
6
CONTINUOUS
10
0.518441
20
1.95441
11
0.51919
21
1.95818
0
LINE
8
BLACK
6
CONTINUOUS
10
0.51919
20
1.95818
11
0.521324
21
1.96137
0
LINE
8
BLACK
6
CONTINUOUS
10
0.521324
20
1.96137
11
0.524517
21
1.9635
0
LINE
8
BLACK
6
CONTINUOUS
10
0.524517
20
1.9635
11
0.528283
21
1.96425
0
LINE
8
BLACK
6
CONTINUOUS
10
0.528283
20
1.96425
11
0.563717
21
1.96425
0
LINE
8
BLACK
6
CONTINUOUS
10
0.563717
20
1.96425
11
0.567483
21
1.9635
0
LINE
8
BLACK
6
CONTINUOUS
10
0.465483
20
1.9635
11
0.468676
21
1.96137
0
LINE
8
BLACK
6
CONTINUOUS
10
0.468676
20
1.96137
11
0.47081
21
1.95818
0
LINE
8
BLACK
6
CONTINUOUS
10
0.47081
20
1.95818
11
0.471559
21
1.95441
0
LINE
8
BLACK
6
CONTINUOUS
10
0.471559
20
1.95441
11
0.471559
21
1.93374
0
LINE
8
BLACK
6
CONTINUOUS
10
0.471559
20
1.93374
11
0.47081
21
1.92997
0
LINE
8
BLACK
6
CONTINUOUS
10
0.47081
20
1.92997
11
0.468676
21
1.92678
0
LINE
8
BLACK
6
CONTINUOUS
10
0.468676
20
1.92678
11
0.465483
21
1.92465
0
LINE
8
BLACK
6
CONTINUOUS
10
0.465483
20
1.92465
11
0.461717
21
1.9239
0
LINE
8
BLACK
6
CONTINUOUS
10
0.461717
20
1.9239
11
0.426283
21
1.9239
0
LINE
8
BLACK
6
CONTINUOUS
10
0.426283
20
1.9239
11
0.422517
21
1.92465
0
LINE
8
BLACK
6
CONTINUOUS
10
0.422517
20
1.92465
11
0.419324
21
1.92678
0
LINE
8
BLACK
6
CONTINUOUS
10
0.419324
20
1.92678
11
0.41719
21
1.92997
0
LINE
8
BLACK
6
CONTINUOUS
10
0.41719
20
1.92997
11
0.416441
21
1.93374
0
LINE
8
BLACK
6
CONTINUOUS
10
0.416441
20
1.93374
11
0.416441
21
1.95441
0
LINE
8
BLACK
6
CONTINUOUS
10
0.416441
20
1.95441
11
0.41719
21
1.95818
0
LINE
8
BLACK
6
CONTINUOUS
10
0.41719
20
1.95818
11
0.419324
21
1.96137
0
LINE
8
BLACK
6
CONTINUOUS
10
0.419324
20
1.96137
11
0.422517
21
1.9635
0
LINE
8
BLACK
6
CONTINUOUS
10
0.422517
20
1.9635
11
0.426283
21
1.96425
0
LINE
8
BLACK
6
CONTINUOUS
10
0.426283
20
1.96425
11
0.461717
21
1.96425
0
LINE
8
BLACK
6
CONTINUOUS
10
0.461717
20
1.96425
11
0.465483
21
1.9635
0
LINE
8
BLACK
6
CONTINUOUS
10
1.11498
20
2.027
11
1.11818
21
2.02487
0
LINE
8
BLACK
6
CONTINUOUS
10
1.11818
20
2.02487
11
1.12031
21
2.02168
0
LINE
8
BLACK
6
CONTINUOUS
10
1.12031
20
2.02168
11
1.12106
21
2.01791
0
LINE
8
BLACK
6
CONTINUOUS
10
1.12106
20
2.01791
11
1.12106
21
1.99724
0
LINE
8
BLACK
6
CONTINUOUS
10
1.12106
20
1.99724
11
1.12031
21
1.99347
0
LINE
8
BLACK
6
CONTINUOUS
10
1.12031
20
1.99347
11
1.11818
21
1.99028
0
LINE
8
BLACK
6
CONTINUOUS
10
1.11818
20
1.99028
11
1.11498
21
1.98815
0
LINE
8
BLACK
6
CONTINUOUS
10
1.11498
20
1.98815
11
1.11122
21
1.9874
0
LINE
8
BLACK
6
CONTINUOUS
10
1.11122
20
1.9874
11
1.07578
21
1.9874
0
LINE
8
BLACK
6
CONTINUOUS
10
1.07578
20
1.9874
11
1.07202
21
1.98815
0
LINE
8
BLACK
6
CONTINUOUS
10
1.07202
20
1.98815
11
1.06882
21
1.99028
0
LINE
8
BLACK
6
CONTINUOUS
10
1.06882
20
1.99028
11
1.06669
21
1.99347
0
LINE
8
BLACK
6
CONTINUOUS
10
1.06669
20
1.99347
11
1.06594
21
1.99724
0
LINE
8
BLACK
6
CONTINUOUS
10
1.06594
20
1.99724
11
1.06594
21
2.01791
0
LINE
8
BLACK
6
CONTINUOUS
10
1.06594
20
2.01791
11
1.06669
21
2.02168
0
LINE
8
BLACK
6
CONTINUOUS
10
1.06669
20
2.02168
11
1.06882
21
2.02487
0
LINE
8
BLACK
6
CONTINUOUS
10
1.06882
20
2.02487
11
1.07202
21
2.027
0
LINE
8
BLACK
6
CONTINUOUS
10
1.07202
20
2.027
11
1.07578
21
2.02775
0
LINE
8
BLACK
6
CONTINUOUS
10
1.07578
20
2.02775
11
1.11122
21
2.02775
0
LINE
8
BLACK
6
CONTINUOUS
10
1.11122
20
2.02775
11
1.11498
21
2.027
0
LINE
8
BLACK
6
CONTINUOUS
10
1.19098
20
2.0275
11
1.19418
21
2.02537
0
LINE
8
BLACK
6
CONTINUOUS
10
1.19418
20
2.02537
11
1.19631
21
2.02218
0
LINE
8
BLACK
6
CONTINUOUS
10
1.19631
20
2.02218
11
1.19706
21
2.01841
0
LINE
8
BLACK
6
CONTINUOUS
10
1.19706
20
2.01841
11
1.19706
21
1.99774
0
LINE
8
BLACK
6
CONTINUOUS
10
1.19706
20
1.99774
11
1.19631
21
1.99397
0
LINE
8
BLACK
6
CONTINUOUS
10
1.19631
20
1.99397
11
1.19418
21
1.99078
0
LINE
8
BLACK
6
CONTINUOUS
10
1.19418
20
1.99078
11
1.19098
21
1.98865
0
LINE
8
BLACK
6
CONTINUOUS
10
1.19098
20
1.98865
11
1.18722
21
1.9879
0
LINE
8
BLACK
6
CONTINUOUS
10
1.18722
20
1.9879
11
1.15178
21
1.9879
0
LINE
8
BLACK
6
CONTINUOUS
10
1.15178
20
1.9879
11
1.14802
21
1.98865
0
LINE
8
BLACK
6
CONTINUOUS
10
1.14802
20
1.98865
11
1.14482
21
1.99078
0
LINE
8
BLACK
6
CONTINUOUS
10
1.14482
20
1.99078
11
1.14269
21
1.99397
0
LINE
8
BLACK
6
CONTINUOUS
10
1.14269
20
1.99397
11
1.14194
21
1.99774
0
LINE
8
BLACK
6
CONTINUOUS
10
1.14194
20
1.99774
11
1.14194
21
2.01841
0
LINE
8
BLACK
6
CONTINUOUS
10
1.14194
20
2.01841
11
1.14269
21
2.02218
0
LINE
8
BLACK
6
CONTINUOUS
10
1.14269
20
2.02218
11
1.14482
21
2.02537
0
LINE
8
BLACK
6
CONTINUOUS
10
1.14482
20
2.02537
11
1.14802
21
2.0275
0
LINE
8
BLACK
6
CONTINUOUS
10
1.14802
20
2.0275
11
1.15178
21
2.02825
0
LINE
8
BLACK
6
CONTINUOUS
10
1.15178
20
2.02825
11
1.18722
21
2.02825
0
LINE
8
BLACK
6
CONTINUOUS
10
1.18722
20
2.02825
11
1.19098
21
2.0275
0
LINE
8
BLACK
6
CONTINUOUS
10
0.465483
20
2.03535
11
0.468676
21
2.03322
0
LINE
8
BLACK
6
CONTINUOUS
10
0.468676
20
2.03322
11
0.47081
21
2.03003
0
LINE
8
BLACK
6
CONTINUOUS
10
0.47081
20
2.03003
11
0.471559
21
2.02626
0
LINE
8
BLACK
6
CONTINUOUS
10
0.471559
20
2.02626
11
0.471559
21
2.00559
0
LINE
8
BLACK
6
CONTINUOUS
10
0.471559
20
2.00559
11
0.47081
21
2.00182
0
LINE
8
BLACK
6
CONTINUOUS
10
0.47081
20
2.00182
11
0.468676
21
1.99863
0
LINE
8
BLACK
6
CONTINUOUS
10
0.468676
20
1.99863
11
0.465483
21
1.9965
0
LINE
8
BLACK
6
CONTINUOUS
10
0.465483
20
1.9965
11
0.461717
21
1.99575
0
LINE
8
BLACK
6
CONTINUOUS
10
0.461717
20
1.99575
11
0.426283
21
1.99575
0
LINE
8
BLACK
6
CONTINUOUS
10
0.426283
20
1.99575
11
0.422517
21
1.9965
0
LINE
8
BLACK
6
CONTINUOUS
10
0.422517
20
1.9965
11
0.419324
21
1.99863
0
LINE
8
BLACK
6
CONTINUOUS
10
0.419324
20
1.99863
11
0.41719
21
2.00182
0
LINE
8
BLACK
6
CONTINUOUS
10
0.41719
20
2.00182
11
0.416441
21
2.00559
0
LINE
8
BLACK
6
CONTINUOUS
10
0.416441
20
2.00559
11
0.416441
21
2.02626
0
LINE
8
BLACK
6
CONTINUOUS
10
0.416441
20
2.02626
11
0.41719
21
2.03003
0
LINE
8
BLACK
6
CONTINUOUS
10
0.41719
20
2.03003
11
0.419324
21
2.03322
0
LINE
8
BLACK
6
CONTINUOUS
10
0.419324
20
2.03322
11
0.422517
21
2.03535
0
LINE
8
BLACK
6
CONTINUOUS
10
0.422517
20
2.03535
11
0.426283
21
2.0361
0
LINE
8
BLACK
6
CONTINUOUS
10
0.426283
20
2.0361
11
0.461717
21
2.0361
0
LINE
8
BLACK
6
CONTINUOUS
10
0.461717
20
2.0361
11
0.465483
21
2.03535
0
LINE
8
BLACK
6
CONTINUOUS
10
0.567483
20
2.03535
11
0.570676
21
2.03322
0
LINE
8
BLACK
6
CONTINUOUS
10
0.570676
20
2.03322
11
0.57281
21
2.03003
0
LINE
8
BLACK
6
CONTINUOUS
10
0.57281
20
2.03003
11
0.573559
21
2.02626
0
LINE
8
BLACK
6
CONTINUOUS
10
0.573559
20
2.02626
11
0.573559
21
2.00559
0
LINE
8
BLACK
6
CONTINUOUS
10
0.573559
20
2.00559
11
0.57281
21
2.00182
0
LINE
8
BLACK
6
CONTINUOUS
10
0.57281
20
2.00182
11
0.570676
21
1.99863
0
LINE
8
BLACK
6
CONTINUOUS
10
0.570676
20
1.99863
11
0.567483
21
1.9965
0
LINE
8
BLACK
6
CONTINUOUS
10
0.567483
20
1.9965
11
0.563717
21
1.99575
0
LINE
8
BLACK
6
CONTINUOUS
10
0.563717
20
1.99575
11
0.528283
21
1.99575
0
LINE
8
BLACK
6
CONTINUOUS
10
0.528283
20
1.99575
11
0.524517
21
1.9965
0
LINE
8
BLACK
6
CONTINUOUS
10
0.524517
20
1.9965
11
0.521324
21
1.99863
0
LINE
8
BLACK
6
CONTINUOUS
10
0.521324
20
1.99863
11
0.51919
21
2.00182
0
LINE
8
BLACK
6
CONTINUOUS
10
0.51919
20
2.00182
11
0.518441
21
2.00559
0
LINE
8
BLACK
6
CONTINUOUS
10
0.518441
20
2.00559
11
0.518441
21
2.02626
0
LINE
8
BLACK
6
CONTINUOUS
10
0.518441
20
2.02626
11
0.51919
21
2.03003
0
LINE
8
BLACK
6
CONTINUOUS
10
0.51919
20
2.03003
11
0.521324
21
2.03322
0
LINE
8
BLACK
6
CONTINUOUS
10
0.521324
20
2.03322
11
0.524517
21
2.03535
0
LINE
8
BLACK
6
CONTINUOUS
10
0.524517
20
2.03535
11
0.528283
21
2.0361
0
LINE
8
BLACK
6
CONTINUOUS
10
0.528283
20
2.0361
11
0.563717
21
2.0361
0
LINE
8
BLACK
6
CONTINUOUS
10
0.563717
20
2.0361
11
0.567483
21
2.03535
0
LINE
8
BLACK
6
CONTINUOUS
10
1.11498
20
2.09885
11
1.11818
21
2.09672
0
LINE
8
BLACK
6
CONTINUOUS
10
1.11818
20
2.09672
11
1.12031
21
2.09353
0
LINE
8
BLACK
6
CONTINUOUS
10
1.12031
20
2.09353
11
1.12106
21
2.08976
0
LINE
8
BLACK
6
CONTINUOUS
10
1.12106
20
2.08976
11
1.12106
21
2.06909
0
LINE
8
BLACK
6
CONTINUOUS
10
1.12106
20
2.06909
11
1.12031
21
2.06532
0
LINE
8
BLACK
6
CONTINUOUS
10
1.12031
20
2.06532
11
1.11818
21
2.06213
0
LINE
8
BLACK
6
CONTINUOUS
10
1.11818
20
2.06213
11
1.11498
21
2.06
0
LINE
8
BLACK
6
CONTINUOUS
10
1.11498
20
2.06
11
1.11122
21
2.05925
0
LINE
8
BLACK
6
CONTINUOUS
10
1.11122
20
2.05925
11
1.07578
21
2.05925
0
LINE
8
BLACK
6
CONTINUOUS
10
1.07578
20
2.05925
11
1.07202
21
2.06
0
LINE
8
BLACK
6
CONTINUOUS
10
1.07202
20
2.06
11
1.06882
21
2.06213
0
LINE
8
BLACK
6
CONTINUOUS
10
1.06882
20
2.06213
11
1.06669
21
2.06532
0
LINE
8
BLACK
6
CONTINUOUS
10
1.06669
20
2.06532
11
1.06594
21
2.06909
0
LINE
8
BLACK
6
CONTINUOUS
10
1.06594
20
2.06909
11
1.06594
21
2.08976
0
LINE
8
BLACK
6
CONTINUOUS
10
1.06594
20
2.08976
11
1.06669
21
2.09353
0
LINE
8
BLACK
6
CONTINUOUS
10
1.06669
20
2.09353
11
1.06882
21
2.09672
0
LINE
8
BLACK
6
CONTINUOUS
10
1.06882
20
2.09672
11
1.07202
21
2.09885
0
LINE
8
BLACK
6
CONTINUOUS
10
1.07202
20
2.09885
11
1.07578
21
2.0996
0
LINE
8
BLACK
6
CONTINUOUS
10
1.07578
20
2.0996
11
1.11122
21
2.0996
0
LINE
8
BLACK
6
CONTINUOUS
10
1.11122
20
2.0996
11
1.11498
21
2.09885
0
LINE
8
BLACK
6
CONTINUOUS
10
1.19098
20
2.09935
11
1.19418
21
2.09722
0
LINE
8
BLACK
6
CONTINUOUS
10
1.19418
20
2.09722
11
1.19631
21
2.09403
0
LINE
8
BLACK
6
CONTINUOUS
10
1.19631
20
2.09403
11
1.19706
21
2.09026
0
LINE
8
BLACK
6
CONTINUOUS
10
1.19706
20
2.09026
11
1.19706
21
2.06959
0
LINE
8
BLACK
6
CONTINUOUS
10
1.19706
20
2.06959
11
1.19631
21
2.06582
0
LINE
8
BLACK
6
CONTINUOUS
10
1.19631
20
2.06582
11
1.19418
21
2.06263
0
LINE
8
BLACK
6
CONTINUOUS
10
1.19418
20
2.06263
11
1.19098
21
2.0605
0
LINE
8
BLACK
6
CONTINUOUS
10
1.19098
20
2.0605
11
1.18722
21
2.05975
0
LINE
8
BLACK
6
CONTINUOUS
10
1.18722
20
2.05975
11
1.15178
21
2.05975
0
LINE
8
BLACK
6
CONTINUOUS
10
1.15178
20
2.05975
11
1.14802
21
2.0605
0
LINE
8
BLACK
6
CONTINUOUS
10
1.14802
20
2.0605
11
1.14482
21
2.06263
0
LINE
8
BLACK
6
CONTINUOUS
10
1.14482
20
2.06263
11
1.14269
21
2.06582
0
LINE
8
BLACK
6
CONTINUOUS
10
1.14269
20
2.06582
11
1.14194
21
2.06959
0
LINE
8
BLACK
6
CONTINUOUS
10
1.14194
20
2.06959
11
1.14194
21
2.09026
0
LINE
8
BLACK
6
CONTINUOUS
10
1.14194
20
2.09026
11
1.14269
21
2.09403
0
LINE
8
BLACK
6
CONTINUOUS
10
1.14269
20
2.09403
11
1.14482
21
2.09722
0
LINE
8
BLACK
6
CONTINUOUS
10
1.14482
20
2.09722
11
1.14802
21
2.09935
0
LINE
8
BLACK
6
CONTINUOUS
10
1.14802
20
2.09935
11
1.15178
21
2.1001
0
LINE
8
BLACK
6
CONTINUOUS
10
1.15178
20
2.1001
11
1.18722
21
2.1001
0
LINE
8
BLACK
6
CONTINUOUS
10
1.18722
20
2.1001
11
1.19098
21
2.09935
  0
ENDSEC
  0
EOF
