  0
SECTION
  2
HEADER
  9
$ANGBASE
  50
0.0
  9
$ANGDIR
  70
1
  9
$MEASUREMENT
  70
0
  0
ENDSEC
  0
SECTION
  2
TABLES
  0
TABLE
  2
LTYPE
  70
4
  0
LTYPE
  5
40F
  2
CONTINUOUS
  70
0
  3
Solid line
  72
65
  73
0
  40
0.0
  0
LTYPE
  5
410
  2
DASHDOT
 70
0
  3
Dash Dot ____ _ ____ _
 72
65
 73
4
 40
2.0
 49
1.25
 49
-0.25
 49
0.25
 49
-0.25
  0
LTYPE
  5
411
  2
DASHED
 70
0
  3
Dashed __ __ __ __ __
 72
65
 73
2
 40
0.75
 49
0.5
 49
-0.25
  0
LTYPE
  5
43B
  2
DOTTED
 70
0
  3
Dotted .  .  .  .
 72
65
 73
2
 40
0.2
 49
0.0
 49
-0.2
  0
ENDTAB
  0
TABLE
  2
STYLE
  70
4
  0
STYLE
  2
KICAD
  70
0
  40
0
  41
1
  42
1
  50
0
  71
0
  3
isocp.shx
  0
STYLE
  2
KICADB
  70
0
  40
0
  41
1
  42
1
  50
0
  71
0
  3
isocp.shx
  0
STYLE
  2
KICADI
  70
0
  40
0
  41
1
  42
1
  50
15
  71
0
  3
isocp.shx
  0
STYLE
  2
KICADBI
  70
0
  40
0
  41
1
  42
1
  50
15
  71
0
  3
isocp.shx
  0
ENDTAB
  0
TABLE
  2
LAYER
  70
1
  0
LAYER
  2
BLACK
  70
0
  62
7
  6
CONTINUOUS
  0
ENDTAB
  0
ENDSEC
  0
SECTION
  2
ENTITIES
0
LINE
8
BLACK
6
CONTINUOUS
10
0.468608
20
0.109408
11
0.468031
21
0.1108
0
LINE
8
BLACK
6
CONTINUOUS
10
0.468031
20
0.1108
11
0.468031
21
0.3158
0
LINE
8
BLACK
6
CONTINUOUS
10
0.468031
20
0.3158
11
0.468608
21
0.317192
0
LINE
8
BLACK
6
CONTINUOUS
10
0.468608
20
0.317192
11
0.47
21
0.317769
0
LINE
8
BLACK
6
CONTINUOUS
10
0.47
20
0.317769
11
1.13
21
0.317769
0
LINE
8
BLACK
6
CONTINUOUS
10
1.13
20
0.317769
11
1.13139
21
0.317192
0
LINE
8
BLACK
6
CONTINUOUS
10
1.13139
20
0.317192
11
1.13197
21
0.3158
0
LINE
8
BLACK
6
CONTINUOUS
10
1.13197
20
0.3158
11
1.13197
21
0.1108
0
LINE
8
BLACK
6
CONTINUOUS
10
1.13197
20
0.1108
11
1.13139
21
0.109408
0
LINE
8
BLACK
6
CONTINUOUS
10
1.13139
20
0.109408
11
1.13
21
0.108831
0
LINE
8
BLACK
6
CONTINUOUS
10
1.13
20
0.108831
11
0.47
21
0.108831
0
LINE
8
BLACK
6
CONTINUOUS
10
0.47
20
0.108831
11
0.468608
21
0.109408
0
LINE
8
BLACK
6
CONTINUOUS
10
0.471969
20
0.313831
11
0.471969
21
0.112769
0
LINE
8
BLACK
6
CONTINUOUS
10
0.471969
20
0.112769
11
1.12803
21
0.112769
0
LINE
8
BLACK
6
CONTINUOUS
10
1.12803
20
0.112769
11
1.12803
21
0.313831
0
LINE
8
BLACK
6
CONTINUOUS
10
1.12803
20
0.313831
11
0.471969
21
0.313831
0
LINE
8
BLACK
6
CONTINUOUS
10
0.789139
20
0.179258
11
0.789829
21
0.17736
0
LINE
8
BLACK
6
CONTINUOUS
10
0.789829
20
0.17736
11
0.789829
21
0.149238
0
LINE
8
BLACK
6
CONTINUOUS
10
0.789829
20
0.149238
11
0.789676
21
0.148369
0
LINE
8
BLACK
6
CONTINUOUS
10
0.789676
20
0.148369
11
0.789678
21
0.148305
0
LINE
8
BLACK
6
CONTINUOUS
10
0.789678
20
0.148305
11
0.787803
21
0.14268
0
LINE
8
BLACK
6
CONTINUOUS
10
0.787803
20
0.14268
11
0.787315
21
0.141779
0
LINE
8
BLACK
6
CONTINUOUS
10
0.787315
20
0.141779
11
0.787164
21
0.141686
0
LINE
8
BLACK
6
CONTINUOUS
10
0.787164
20
0.141686
11
0.78709
21
0.141526
0
LINE
8
BLACK
6
CONTINUOUS
10
0.78709
20
0.141526
11
0.78334
21
0.137777
0
LINE
8
BLACK
6
CONTINUOUS
10
0.78334
20
0.137777
11
0.7825
21
0.137188
0
LINE
8
BLACK
6
CONTINUOUS
10
0.7825
20
0.137188
11
0.782324
21
0.137173
0
LINE
8
BLACK
6
CONTINUOUS
10
0.782324
20
0.137173
11
0.782186
21
0.137063
0
LINE
8
BLACK
6
CONTINUOUS
10
0.782186
20
0.137063
11
0.776562
21
0.135189
0
LINE
8
BLACK
6
CONTINUOUS
10
0.776562
20
0.135189
11
0.775689
21
0.135059
0
LINE
8
BLACK
6
CONTINUOUS
10
0.775689
20
0.135059
11
0.775628
21
0.135037
0
LINE
8
BLACK
6
CONTINUOUS
10
0.775628
20
0.135037
11
0.771879
21
0.135037
0
LINE
8
BLACK
6
CONTINUOUS
10
0.771879
20
0.135037
11
0.770869
21
0.135215
0
LINE
8
BLACK
6
CONTINUOUS
10
0.770869
20
0.135215
11
0.769321
21
0.136513
0
LINE
8
BLACK
6
CONTINUOUS
10
0.769321
20
0.136513
11
0.768971
21
0.138502
0
LINE
8
BLACK
6
CONTINUOUS
10
0.768971
20
0.138502
11
0.769981
21
0.140252
0
LINE
8
BLACK
6
CONTINUOUS
10
0.769981
20
0.140252
11
0.771879
21
0.140942
0
LINE
8
BLACK
6
CONTINUOUS
10
0.771879
20
0.140942
11
0.775149
21
0.140942
0
LINE
8
BLACK
6
CONTINUOUS
10
0.775149
20
0.140942
11
0.779657
21
0.142445
0
LINE
8
BLACK
6
CONTINUOUS
10
0.779657
20
0.142445
11
0.782421
21
0.145209
0
LINE
8
BLACK
6
CONTINUOUS
10
0.782421
20
0.145209
11
0.783924
21
0.149717
0
LINE
8
BLACK
6
CONTINUOUS
10
0.783924
20
0.149717
11
0.783924
21
0.17736
0
LINE
8
BLACK
6
CONTINUOUS
10
0.783924
20
0.17736
11
0.784102
21
0.17837
0
LINE
8
BLACK
6
CONTINUOUS
10
0.784102
20
0.17837
11
0.7854
21
0.179917
0
LINE
8
BLACK
6
CONTINUOUS
10
0.7854
20
0.179917
11
0.787389
21
0.180268
0
LINE
8
BLACK
6
CONTINUOUS
10
0.787389
20
0.180268
11
0.789139
21
0.179258
0
LINE
8
BLACK
6
CONTINUOUS
10
0.815344
20
0.180238
11
0.815511
21
0.180268
0
LINE
8
BLACK
6
CONTINUOUS
10
0.815511
20
0.180268
11
0.816253
21
0.179839
0
LINE
8
BLACK
6
CONTINUOUS
10
0.816253
20
0.179839
11
0.817038
21
0.179495
0
LINE
8
BLACK
6
CONTINUOUS
10
0.817038
20
0.179495
11
0.817113
21
0.179343
0
LINE
8
BLACK
6
CONTINUOUS
10
0.817113
20
0.179343
11
0.81726
21
0.179258
0
LINE
8
BLACK
6
CONTINUOUS
10
0.81726
20
0.179258
11
0.817553
21
0.178453
0
LINE
8
BLACK
6
CONTINUOUS
10
0.817553
20
0.178453
11
0.817933
21
0.177684
0
LINE
8
BLACK
6
CONTINUOUS
10
0.817933
20
0.177684
11
0.817893
21
0.177519
0
LINE
8
BLACK
6
CONTINUOUS
10
0.817893
20
0.177519
11
0.817951
21
0.17736
0
LINE
8
BLACK
6
CONTINUOUS
10
0.817951
20
0.17736
11
0.817951
21
0.140942
0
LINE
8
BLACK
6
CONTINUOUS
10
0.817951
20
0.140942
11
0.826247
21
0.140942
0
LINE
8
BLACK
6
CONTINUOUS
10
0.826247
20
0.140942
11
0.827257
21
0.140764
0
LINE
8
BLACK
6
CONTINUOUS
10
0.827257
20
0.140764
11
0.828804
21
0.139466
0
LINE
8
BLACK
6
CONTINUOUS
10
0.828804
20
0.139466
11
0.829155
21
0.137477
0
LINE
8
BLACK
6
CONTINUOUS
10
0.829155
20
0.137477
11
0.828145
21
0.135728
0
LINE
8
BLACK
6
CONTINUOUS
10
0.828145
20
0.135728
11
0.826247
21
0.135037
0
LINE
8
BLACK
6
CONTINUOUS
10
0.826247
20
0.135037
11
0.80375
21
0.135037
0
LINE
8
BLACK
6
CONTINUOUS
10
0.80375
20
0.135037
11
0.80274
21
0.135215
0
LINE
8
BLACK
6
CONTINUOUS
10
0.80274
20
0.135215
11
0.801192
21
0.136513
0
LINE
8
BLACK
6
CONTINUOUS
10
0.801192
20
0.136513
11
0.800842
21
0.138502
0
LINE
8
BLACK
6
CONTINUOUS
10
0.800842
20
0.138502
11
0.801852
21
0.140252
0
LINE
8
BLACK
6
CONTINUOUS
10
0.801852
20
0.140252
11
0.80375
21
0.140942
0
LINE
8
BLACK
6
CONTINUOUS
10
0.80375
20
0.140942
11
0.812045
21
0.140942
0
LINE
8
BLACK
6
CONTINUOUS
10
0.812045
20
0.140942
11
0.812045
21
0.168356
0
LINE
8
BLACK
6
CONTINUOUS
10
0.812045
20
0.168356
11
0.809587
21
0.165898
0
LINE
8
BLACK
6
CONTINUOUS
10
0.809587
20
0.165898
11
0.808864
21
0.165392
0
LINE
8
BLACK
6
CONTINUOUS
10
0.808864
20
0.165392
11
0.80882
21
0.165345
0
LINE
8
BLACK
6
CONTINUOUS
10
0.80882
20
0.165345
11
0.80507
21
0.16347
0
LINE
8
BLACK
6
CONTINUOUS
10
0.80507
20
0.16347
11
0.804087
21
0.163178
0
LINE
8
BLACK
6
CONTINUOUS
10
0.804087
20
0.163178
11
0.802123
21
0.163647
0
LINE
8
BLACK
6
CONTINUOUS
10
0.802123
20
0.163647
11
0.800919
21
0.165269
0
LINE
8
BLACK
6
CONTINUOUS
10
0.800919
20
0.165269
11
0.80104
21
0.167286
0
LINE
8
BLACK
6
CONTINUOUS
10
0.80104
20
0.167286
11
0.802429
21
0.168752
0
LINE
8
BLACK
6
CONTINUOUS
10
0.802429
20
0.168752
11
0.80575
21
0.170413
0
LINE
8
BLACK
6
CONTINUOUS
10
0.80575
20
0.170413
11
0.808954
21
0.173617
0
LINE
8
BLACK
6
CONTINUOUS
10
0.808954
20
0.173617
11
0.812541
21
0.178998
0
LINE
8
BLACK
6
CONTINUOUS
10
0.812541
20
0.178998
11
0.81325
21
0.179739
0
LINE
8
BLACK
6
CONTINUOUS
10
0.81325
20
0.179739
11
0.813413
21
0.179787
0
LINE
8
BLACK
6
CONTINUOUS
10
0.813413
20
0.179787
11
0.813522
21
0.179917
0
LINE
8
BLACK
6
CONTINUOUS
10
0.813522
20
0.179917
11
0.814366
21
0.180066
0
LINE
8
BLACK
6
CONTINUOUS
10
0.814366
20
0.180066
11
0.815188
21
0.180306
0
LINE
8
BLACK
6
CONTINUOUS
10
0.815188
20
0.180306
11
0.815344
21
0.180238
0
LINE
8
BLACK
6
CONTINUOUS
10
0.295384
20
1.53869
11
0.295513
21
1.53871
0
LINE
8
BLACK
6
CONTINUOUS
10
0.295513
20
1.53871
11
0.295626
21
1.53864
0
LINE
8
BLACK
6
CONTINUOUS
10
0.295626
20
1.53864
11
0.29601
21
1.53857
0
LINE
8
BLACK
6
CONTINUOUS
10
0.29601
20
1.53857
11
0.296598
21
1.53808
0
LINE
8
BLACK
6
CONTINUOUS
10
0.296598
20
1.53808
11
0.297262
21
1.5377
0
LINE
8
BLACK
6
CONTINUOUS
10
0.297262
20
1.5377
11
0.297353
21
1.53745
0
LINE
8
BLACK
6
CONTINUOUS
10
0.297353
20
1.53745
11
0.297557
21
1.53728
0
LINE
8
BLACK
6
CONTINUOUS
10
0.297557
20
1.53728
11
0.29769
21
1.53652
0
LINE
8
BLACK
6
CONTINUOUS
10
0.29769
20
1.53652
11
0.297953
21
1.5358
0
LINE
8
BLACK
6
CONTINUOUS
10
0.297953
20
1.5358
11
0.297953
21
1.2358
0
LINE
8
BLACK
6
CONTINUOUS
10
0.297953
20
1.2358
11
0.297885
21
1.23542
0
LINE
8
BLACK
6
CONTINUOUS
10
0.297885
20
1.23542
11
0.297908
21
1.23529
0
LINE
8
BLACK
6
CONTINUOUS
10
0.297908
20
1.23529
11
0.297842
21
1.23517
0
LINE
8
BLACK
6
CONTINUOUS
10
0.297842
20
1.23517
11
0.297775
21
1.23479
0
LINE
8
BLACK
6
CONTINUOUS
10
0.297775
20
1.23479
11
0.297282
21
1.2342
0
LINE
8
BLACK
6
CONTINUOUS
10
0.297282
20
1.2342
11
0.296898
21
1.23354
0
LINE
8
BLACK
6
CONTINUOUS
10
0.296898
20
1.23354
11
0.296648
21
1.23345
0
LINE
8
BLACK
6
CONTINUOUS
10
0.296648
20
1.23345
11
0.296476
21
1.23324
0
LINE
8
BLACK
6
CONTINUOUS
10
0.296476
20
1.23324
11
0.295721
21
1.23311
0
LINE
8
BLACK
6
CONTINUOUS
10
0.295721
20
1.23311
11
0.295
21
1.23285
0
LINE
8
BLACK
6
CONTINUOUS
10
0.295
20
1.23285
11
0.095
21
1.23285
0
LINE
8
BLACK
6
CONTINUOUS
10
0.095
20
1.23285
11
0.0946165
21
1.23291
0
LINE
8
BLACK
6
CONTINUOUS
10
0.0946165
20
1.23291
11
0.0944872
21
1.23289
0
LINE
8
BLACK
6
CONTINUOUS
10
0.0944872
20
1.23289
11
0.0943736
21
1.23296
0
LINE
8
BLACK
6
CONTINUOUS
10
0.0943736
20
1.23296
11
0.0939901
21
1.23303
0
LINE
8
BLACK
6
CONTINUOUS
10
0.0939901
20
1.23303
11
0.0934024
21
1.23352
0
LINE
8
BLACK
6
CONTINUOUS
10
0.0934024
20
1.23352
11
0.0927381
21
1.2339
0
LINE
8
BLACK
6
CONTINUOUS
10
0.0927381
20
1.2339
11
0.092647
21
1.23415
0
LINE
8
BLACK
6
CONTINUOUS
10
0.092647
20
1.23415
11
0.0924428
21
1.23432
0
LINE
8
BLACK
6
CONTINUOUS
10
0.0924428
20
1.23432
11
0.0923096
21
1.23508
0
LINE
8
BLACK
6
CONTINUOUS
10
0.0923096
20
1.23508
11
0.0920472
21
1.2358
0
LINE
8
BLACK
6
CONTINUOUS
10
0.0920472
20
1.2358
11
0.0920472
21
1.5358
0
LINE
8
BLACK
6
CONTINUOUS
10
0.0920472
20
1.5358
11
0.0921149
21
1.53618
0
LINE
8
BLACK
6
CONTINUOUS
10
0.0921149
20
1.53618
11
0.0920921
21
1.53631
0
LINE
8
BLACK
6
CONTINUOUS
10
0.0920921
20
1.53631
11
0.0921577
21
1.53643
0
LINE
8
BLACK
6
CONTINUOUS
10
0.0921577
20
1.53643
11
0.0922253
21
1.53681
0
LINE
8
BLACK
6
CONTINUOUS
10
0.0922253
20
1.53681
11
0.0927185
21
1.5374
0
LINE
8
BLACK
6
CONTINUOUS
10
0.0927185
20
1.5374
11
0.093102
21
1.53806
0
LINE
8
BLACK
6
CONTINUOUS
10
0.093102
20
1.53806
11
0.0933524
21
1.53815
0
LINE
8
BLACK
6
CONTINUOUS
10
0.0933524
20
1.53815
11
0.0935236
21
1.53836
0
LINE
8
BLACK
6
CONTINUOUS
10
0.0935236
20
1.53836
11
0.0942792
21
1.53849
0
LINE
8
BLACK
6
CONTINUOUS
10
0.0942792
20
1.53849
11
0.095
21
1.53875
0
LINE
8
BLACK
6
CONTINUOUS
10
0.095
20
1.53875
11
0.295
21
1.53875
0
LINE
8
BLACK
6
CONTINUOUS
10
0.295
20
1.53875
11
0.295384
21
1.53869
0
LINE
8
BLACK
6
CONTINUOUS
10
0.0979528
20
1.53285
11
0.0979528
21
1.23875
0
LINE
8
BLACK
6
CONTINUOUS
10
0.0979528
20
1.23875
11
0.292047
21
1.23875
0
LINE
8
BLACK
6
CONTINUOUS
10
0.292047
20
1.23875
11
0.292047
21
1.53285
0
LINE
8
BLACK
6
CONTINUOUS
10
0.292047
20
1.53285
11
0.0979528
21
1.53285
0
LINE
8
BLACK
6
CONTINUOUS
10
0.146758
20
1.64035
11
0.146181
21
1.64174
0
LINE
8
BLACK
6
CONTINUOUS
10
0.146181
20
1.64174
11
0.146181
21
1.84674
0
LINE
8
BLACK
6
CONTINUOUS
10
0.146181
20
1.84674
11
0.146758
21
1.84814
0
LINE
8
BLACK
6
CONTINUOUS
10
0.146758
20
1.84814
11
0.14815
21
1.84871
0
LINE
8
BLACK
6
CONTINUOUS
10
0.14815
20
1.84871
11
0.80815
21
1.84871
0
LINE
8
BLACK
6
CONTINUOUS
10
0.80815
20
1.84871
11
0.809542
21
1.84814
0
LINE
8
BLACK
6
CONTINUOUS
10
0.809542
20
1.84814
11
0.810118
21
1.84674
0
LINE
8
BLACK
6
CONTINUOUS
10
0.810118
20
1.84674
11
0.810118
21
1.64174
0
LINE
8
BLACK
6
CONTINUOUS
10
0.810118
20
1.64174
11
0.809542
21
1.64035
0
LINE
8
BLACK
6
CONTINUOUS
10
0.809542
20
1.64035
11
0.80815
21
1.63978
0
LINE
8
BLACK
6
CONTINUOUS
10
0.80815
20
1.63978
11
0.14815
21
1.63978
0
LINE
8
BLACK
6
CONTINUOUS
10
0.14815
20
1.63978
11
0.146758
21
1.64035
0
LINE
8
BLACK
6
CONTINUOUS
10
0.150118
20
1.84478
11
0.150118
21
1.64371
0
LINE
8
BLACK
6
CONTINUOUS
10
0.150118
20
1.64371
11
0.806181
21
1.64371
0
LINE
8
BLACK
6
CONTINUOUS
10
0.806181
20
1.64371
11
0.806181
21
1.84478
0
LINE
8
BLACK
6
CONTINUOUS
10
0.806181
20
1.84478
11
0.150118
21
1.84478
0
LINE
8
BLACK
6
CONTINUOUS
10
0.504834
20
1.82618
11
0.504969
21
1.8262
0
LINE
8
BLACK
6
CONTINUOUS
10
0.504969
20
1.8262
11
0.505074
21
1.82614
0
LINE
8
BLACK
6
CONTINUOUS
10
0.505074
20
1.82614
11
0.505406
21
1.82608
0
LINE
8
BLACK
6
CONTINUOUS
10
0.505406
20
1.82608
11
0.506016
21
1.82557
0
LINE
8
BLACK
6
CONTINUOUS
10
0.506016
20
1.82557
11
0.506697
21
1.82516
0
LINE
8
BLACK
6
CONTINUOUS
10
0.506697
20
1.82516
11
0.506773
21
1.82493
0
LINE
8
BLACK
6
CONTINUOUS
10
0.506773
20
1.82493
11
0.506953
21
1.82478
0
LINE
8
BLACK
6
CONTINUOUS
10
0.506953
20
1.82478
11
0.507092
21
1.824
0
LINE
8
BLACK
6
CONTINUOUS
10
0.507092
20
1.824
11
0.507348
21
1.82324
0
LINE
8
BLACK
6
CONTINUOUS
10
0.507348
20
1.82324
11
0.507263
21
1.82302
0
LINE
8
BLACK
6
CONTINUOUS
10
0.507263
20
1.82302
11
0.507304
21
1.82279
0
LINE
8
BLACK
6
CONTINUOUS
10
0.507304
20
1.82279
11
0.506906
21
1.8221
0
LINE
8
BLACK
6
CONTINUOUS
10
0.506906
20
1.8221
11
0.506619
21
1.82136
0
LINE
8
BLACK
6
CONTINUOUS
10
0.506619
20
1.82136
11
0.497662
21
1.81112
0
LINE
8
BLACK
6
CONTINUOUS
10
0.497662
20
1.81112
11
0.497907
21
1.81108
0
LINE
8
BLACK
6
CONTINUOUS
10
0.497907
20
1.81108
11
0.498042
21
1.81097
0
LINE
8
BLACK
6
CONTINUOUS
10
0.498042
20
1.81097
11
0.498218
21
1.81095
0
LINE
8
BLACK
6
CONTINUOUS
10
0.498218
20
1.81095
11
0.501967
21
1.80907
0
LINE
8
BLACK
6
CONTINUOUS
10
0.501967
20
1.80907
11
0.502676
21
1.80855
0
LINE
8
BLACK
6
CONTINUOUS
10
0.502676
20
1.80855
11
0.502735
21
1.80852
0
LINE
8
BLACK
6
CONTINUOUS
10
0.502735
20
1.80852
11
0.504609
21
1.80664
0
LINE
8
BLACK
6
CONTINUOUS
10
0.504609
20
1.80664
11
0.505116
21
1.80592
0
LINE
8
BLACK
6
CONTINUOUS
10
0.505116
20
1.80592
11
0.505163
21
1.80588
0
LINE
8
BLACK
6
CONTINUOUS
10
0.505163
20
1.80588
11
0.507037
21
1.80213
0
LINE
8
BLACK
6
CONTINUOUS
10
0.507037
20
1.80213
11
0.50733
21
1.80115
0
LINE
8
BLACK
6
CONTINUOUS
10
0.50733
20
1.80115
11
0.507289
21
1.80097
0
LINE
8
BLACK
6
CONTINUOUS
10
0.507289
20
1.80097
11
0.507349
21
1.80081
0
LINE
8
BLACK
6
CONTINUOUS
10
0.507349
20
1.80081
11
0.507349
21
1.79143
0
LINE
8
BLACK
6
CONTINUOUS
10
0.507349
20
1.79143
11
0.507171
21
1.79042
0
LINE
8
BLACK
6
CONTINUOUS
10
0.507171
20
1.79042
11
0.507058
21
1.79029
0
LINE
8
BLACK
6
CONTINUOUS
10
0.507058
20
1.79029
11
0.507037
21
1.79011
0
LINE
8
BLACK
6
CONTINUOUS
10
0.507037
20
1.79011
11
0.505163
21
1.78636
0
LINE
8
BLACK
6
CONTINUOUS
10
0.505163
20
1.78636
11
0.504637
21
1.78565
0
LINE
8
BLACK
6
CONTINUOUS
10
0.504637
20
1.78565
11
0.504609
21
1.7856
0
LINE
8
BLACK
6
CONTINUOUS
10
0.504609
20
1.7856
11
0.502735
21
1.78372
0
LINE
8
BLACK
6
CONTINUOUS
10
0.502735
20
1.78372
11
0.502012
21
1.78322
0
LINE
8
BLACK
6
CONTINUOUS
10
0.502012
20
1.78322
11
0.501967
21
1.78317
0
LINE
8
BLACK
6
CONTINUOUS
10
0.501967
20
1.78317
11
0.498218
21
1.78129
0
LINE
8
BLACK
6
CONTINUOUS
10
0.498218
20
1.78129
11
0.497235
21
1.781
0
LINE
8
BLACK
6
CONTINUOUS
10
0.497235
20
1.781
11
0.497063
21
1.78104
0
LINE
8
BLACK
6
CONTINUOUS
10
0.497063
20
1.78104
11
0.496897
21
1.78098
0
LINE
8
BLACK
6
CONTINUOUS
10
0.496897
20
1.78098
11
0.485649
21
1.78098
0
LINE
8
BLACK
6
CONTINUOUS
10
0.485649
20
1.78098
11
0.484639
21
1.78116
0
LINE
8
BLACK
6
CONTINUOUS
10
0.484639
20
1.78116
11
0.484504
21
1.78127
0
LINE
8
BLACK
6
CONTINUOUS
10
0.484504
20
1.78127
11
0.484328
21
1.78129
0
LINE
8
BLACK
6
CONTINUOUS
10
0.484328
20
1.78129
11
0.480579
21
1.78317
0
LINE
8
BLACK
6
CONTINUOUS
10
0.480579
20
1.78317
11
0.47987
21
1.78369
0
LINE
8
BLACK
6
CONTINUOUS
10
0.47987
20
1.78369
11
0.479811
21
1.78372
0
LINE
8
BLACK
6
CONTINUOUS
10
0.479811
20
1.78372
11
0.477936
21
1.7856
0
LINE
8
BLACK
6
CONTINUOUS
10
0.477936
20
1.7856
11
0.477348
21
1.78644
0
LINE
8
BLACK
6
CONTINUOUS
10
0.477348
20
1.78644
11
0.477172
21
1.78845
0
LINE
8
BLACK
6
CONTINUOUS
10
0.477172
20
1.78845
11
0.478331
21
1.7901
0
LINE
8
BLACK
6
CONTINUOUS
10
0.478331
20
1.7901
11
0.480282
21
1.79063
0
LINE
8
BLACK
6
CONTINUOUS
10
0.480282
20
1.79063
11
0.482112
21
1.78977
0
LINE
8
BLACK
6
CONTINUOUS
10
0.482112
20
1.78977
11
0.483648
21
1.78824
0
LINE
8
BLACK
6
CONTINUOUS
10
0.483648
20
1.78824
11
0.486346
21
1.78689
0
LINE
8
BLACK
6
CONTINUOUS
10
0.486346
20
1.78689
11
0.4962
21
1.78689
0
LINE
8
BLACK
6
CONTINUOUS
10
0.4962
20
1.78689
11
0.498898
21
1.78824
0
LINE
8
BLACK
6
CONTINUOUS
10
0.498898
20
1.78824
11
0.500095
21
1.78943
0
LINE
8
BLACK
6
CONTINUOUS
10
0.500095
20
1.78943
11
0.501444
21
1.79213
0
LINE
8
BLACK
6
CONTINUOUS
10
0.501444
20
1.79213
11
0.501444
21
1.80011
0
LINE
8
BLACK
6
CONTINUOUS
10
0.501444
20
1.80011
11
0.500095
21
1.80281
0
LINE
8
BLACK
6
CONTINUOUS
10
0.500095
20
1.80281
11
0.498898
21
1.80401
0
LINE
8
BLACK
6
CONTINUOUS
10
0.498898
20
1.80401
11
0.4962
21
1.80535
0
LINE
8
BLACK
6
CONTINUOUS
10
0.4962
20
1.80535
11
0.491273
21
1.80535
0
LINE
8
BLACK
6
CONTINUOUS
10
0.491273
20
1.80535
11
0.490836
21
1.80543
0
LINE
8
BLACK
6
CONTINUOUS
10
0.490836
20
1.80543
11
0.4907
21
1.80541
0
LINE
8
BLACK
6
CONTINUOUS
10
0.4907
20
1.80541
11
0.490596
21
1.80547
0
LINE
8
BLACK
6
CONTINUOUS
10
0.490596
20
1.80547
11
0.490263
21
1.80553
0
LINE
8
BLACK
6
CONTINUOUS
10
0.490263
20
1.80553
11
0.489653
21
1.80604
0
LINE
8
BLACK
6
CONTINUOUS
10
0.489653
20
1.80604
11
0.488972
21
1.80646
0
LINE
8
BLACK
6
CONTINUOUS
10
0.488972
20
1.80646
11
0.488896
21
1.80668
0
LINE
8
BLACK
6
CONTINUOUS
10
0.488896
20
1.80668
11
0.488716
21
1.80683
0
LINE
8
BLACK
6
CONTINUOUS
10
0.488716
20
1.80683
11
0.488578
21
1.80761
0
LINE
8
BLACK
6
CONTINUOUS
10
0.488578
20
1.80761
11
0.488321
21
1.80837
0
LINE
8
BLACK
6
CONTINUOUS
10
0.488321
20
1.80837
11
0.488406
21
1.80859
0
LINE
8
BLACK
6
CONTINUOUS
10
0.488406
20
1.80859
11
0.488365
21
1.80882
0
LINE
8
BLACK
6
CONTINUOUS
10
0.488365
20
1.80882
11
0.488763
21
1.80951
0
LINE
8
BLACK
6
CONTINUOUS
10
0.488763
20
1.80951
11
0.489051
21
1.81025
0
LINE
8
BLACK
6
CONTINUOUS
10
0.489051
20
1.81025
11
0.497889
21
1.82035
0
LINE
8
BLACK
6
CONTINUOUS
10
0.497889
20
1.82035
11
0.480024
21
1.82035
0
LINE
8
BLACK
6
CONTINUOUS
10
0.480024
20
1.82035
11
0.479014
21
1.82053
0
LINE
8
BLACK
6
CONTINUOUS
10
0.479014
20
1.82053
11
0.477467
21
1.82183
0
LINE
8
BLACK
6
CONTINUOUS
10
0.477467
20
1.82183
11
0.477116
21
1.82382
0
LINE
8
BLACK
6
CONTINUOUS
10
0.477116
20
1.82382
11
0.478126
21
1.82557
0
LINE
8
BLACK
6
CONTINUOUS
10
0.478126
20
1.82557
11
0.480024
21
1.82626
0
LINE
8
BLACK
6
CONTINUOUS
10
0.480024
20
1.82626
11
0.504396
21
1.82626
0
LINE
8
BLACK
6
CONTINUOUS
10
0.504396
20
1.82626
11
0.504834
21
1.82618
0
LINE
8
BLACK
6
CONTINUOUS
10
0.467288
20
1.8252
11
0.467979
21
1.8233
0
LINE
8
BLACK
6
CONTINUOUS
10
0.467979
20
1.8233
11
0.467979
21
1.79518
0
LINE
8
BLACK
6
CONTINUOUS
10
0.467979
20
1.79518
11
0.467826
21
1.79431
0
LINE
8
BLACK
6
CONTINUOUS
10
0.467826
20
1.79431
11
0.467827
21
1.79425
0
LINE
8
BLACK
6
CONTINUOUS
10
0.467827
20
1.79425
11
0.465953
21
1.78863
0
LINE
8
BLACK
6
CONTINUOUS
10
0.465953
20
1.78863
11
0.465464
21
1.78772
0
LINE
8
BLACK
6
CONTINUOUS
10
0.465464
20
1.78772
11
0.465314
21
1.78763
0
LINE
8
BLACK
6
CONTINUOUS
10
0.465314
20
1.78763
11
0.465239
21
1.78747
0
LINE
8
BLACK
6
CONTINUOUS
10
0.465239
20
1.78747
11
0.46149
21
1.78372
0
LINE
8
BLACK
6
CONTINUOUS
10
0.46149
20
1.78372
11
0.46065
21
1.78313
0
LINE
8
BLACK
6
CONTINUOUS
10
0.46065
20
1.78313
11
0.460474
21
1.78312
0
LINE
8
BLACK
6
CONTINUOUS
10
0.460474
20
1.78312
11
0.460336
21
1.78301
0
LINE
8
BLACK
6
CONTINUOUS
10
0.460336
20
1.78301
11
0.454711
21
1.78113
0
LINE
8
BLACK
6
CONTINUOUS
10
0.454711
20
1.78113
11
0.453838
21
1.781
0
LINE
8
BLACK
6
CONTINUOUS
10
0.453838
20
1.781
11
0.453778
21
1.78098
0
LINE
8
BLACK
6
CONTINUOUS
10
0.453778
20
1.78098
11
0.450028
21
1.78098
0
LINE
8
BLACK
6
CONTINUOUS
10
0.450028
20
1.78098
11
0.449018
21
1.78116
0
LINE
8
BLACK
6
CONTINUOUS
10
0.449018
20
1.78116
11
0.447471
21
1.78246
0
LINE
8
BLACK
6
CONTINUOUS
10
0.447471
20
1.78246
11
0.44712
21
1.78445
0
LINE
8
BLACK
6
CONTINUOUS
10
0.44712
20
1.78445
11
0.44813
21
1.7862
0
LINE
8
BLACK
6
CONTINUOUS
10
0.44813
20
1.7862
11
0.450028
21
1.78689
0
LINE
8
BLACK
6
CONTINUOUS
10
0.450028
20
1.78689
11
0.453299
21
1.78689
0
LINE
8
BLACK
6
CONTINUOUS
10
0.453299
20
1.78689
11
0.457807
21
1.78839
0
LINE
8
BLACK
6
CONTINUOUS
10
0.457807
20
1.78839
11
0.460571
21
1.79115
0
LINE
8
BLACK
6
CONTINUOUS
10
0.460571
20
1.79115
11
0.462073
21
1.79566
0
LINE
8
BLACK
6
CONTINUOUS
10
0.462073
20
1.79566
11
0.462073
21
1.8233
0
LINE
8
BLACK
6
CONTINUOUS
10
0.462073
20
1.8233
11
0.462252
21
1.82431
0
LINE
8
BLACK
6
CONTINUOUS
10
0.462252
20
1.82431
11
0.46355
21
1.82586
0
LINE
8
BLACK
6
CONTINUOUS
10
0.46355
20
1.82586
11
0.465539
21
1.82621
0
LINE
8
BLACK
6
CONTINUOUS
10
0.465539
20
1.82621
11
0.467288
21
1.8252
0
LINE
8
BLACK
6
CONTINUOUS
10
0.456608
20
2.05855
11
0.456031
21
2.05994
0
LINE
8
BLACK
6
CONTINUOUS
10
0.456031
20
2.05994
11
0.456031
21
2.26494
0
LINE
8
BLACK
6
CONTINUOUS
10
0.456031
20
2.26494
11
0.456608
21
2.26634
0
LINE
8
BLACK
6
CONTINUOUS
10
0.456608
20
2.26634
11
0.458
21
2.26691
0
LINE
8
BLACK
6
CONTINUOUS
10
0.458
20
2.26691
11
1.118
21
2.26691
0
LINE
8
BLACK
6
CONTINUOUS
10
1.118
20
2.26691
11
1.11939
21
2.26634
0
LINE
8
BLACK
6
CONTINUOUS
10
1.11939
20
2.26634
11
1.11997
21
2.26494
0
LINE
8
BLACK
6
CONTINUOUS
10
1.11997
20
2.26494
11
1.11997
21
2.05994
0
LINE
8
BLACK
6
CONTINUOUS
10
1.11997
20
2.05994
11
1.11939
21
2.05855
0
LINE
8
BLACK
6
CONTINUOUS
10
1.11939
20
2.05855
11
1.118
21
2.05798
0
LINE
8
BLACK
6
CONTINUOUS
10
1.118
20
2.05798
11
0.458
21
2.05798
0
LINE
8
BLACK
6
CONTINUOUS
10
0.458
20
2.05798
11
0.456608
21
2.05855
0
LINE
8
BLACK
6
CONTINUOUS
10
0.459969
20
2.26298
11
0.459969
21
2.06191
0
LINE
8
BLACK
6
CONTINUOUS
10
0.459969
20
2.06191
11
1.11603
21
2.06191
0
LINE
8
BLACK
6
CONTINUOUS
10
1.11603
20
2.06191
11
1.11603
21
2.26298
0
LINE
8
BLACK
6
CONTINUOUS
10
1.11603
20
2.26298
11
0.459969
21
2.26298
0
LINE
8
BLACK
6
CONTINUOUS
10
0.777139
20
2.2434
11
0.777829
21
2.2415
0
LINE
8
BLACK
6
CONTINUOUS
10
0.777829
20
2.2415
11
0.777829
21
2.21338
0
LINE
8
BLACK
6
CONTINUOUS
10
0.777829
20
2.21338
11
0.777676
21
2.21251
0
LINE
8
BLACK
6
CONTINUOUS
10
0.777676
20
2.21251
11
0.777678
21
2.21245
0
LINE
8
BLACK
6
CONTINUOUS
10
0.777678
20
2.21245
11
0.775803
21
2.20683
0
LINE
8
BLACK
6
CONTINUOUS
10
0.775803
20
2.20683
11
0.775315
21
2.20592
0
LINE
8
BLACK
6
CONTINUOUS
10
0.775315
20
2.20592
11
0.775164
21
2.20583
0
LINE
8
BLACK
6
CONTINUOUS
10
0.775164
20
2.20583
11
0.77509
21
2.20567
0
LINE
8
BLACK
6
CONTINUOUS
10
0.77509
20
2.20567
11
0.77134
21
2.20192
0
LINE
8
BLACK
6
CONTINUOUS
10
0.77134
20
2.20192
11
0.7705
21
2.20133
0
LINE
8
BLACK
6
CONTINUOUS
10
0.7705
20
2.20133
11
0.770324
21
2.20132
0
LINE
8
BLACK
6
CONTINUOUS
10
0.770324
20
2.20132
11
0.770186
21
2.20121
0
LINE
8
BLACK
6
CONTINUOUS
10
0.770186
20
2.20121
11
0.764562
21
2.19933
0
LINE
8
BLACK
6
CONTINUOUS
10
0.764562
20
2.19933
11
0.763689
21
2.1992
0
LINE
8
BLACK
6
CONTINUOUS
10
0.763689
20
2.1992
11
0.763628
21
2.19918
0
LINE
8
BLACK
6
CONTINUOUS
10
0.763628
20
2.19918
11
0.759879
21
2.19918
0
LINE
8
BLACK
6
CONTINUOUS
10
0.759879
20
2.19918
11
0.758869
21
2.19936
0
LINE
8
BLACK
6
CONTINUOUS
10
0.758869
20
2.19936
11
0.757321
21
2.20066
0
LINE
8
BLACK
6
CONTINUOUS
10
0.757321
20
2.20066
11
0.756971
21
2.20265
0
LINE
8
BLACK
6
CONTINUOUS
10
0.756971
20
2.20265
11
0.757981
21
2.2044
0
LINE
8
BLACK
6
CONTINUOUS
10
0.757981
20
2.2044
11
0.759879
21
2.20509
0
LINE
8
BLACK
6
CONTINUOUS
10
0.759879
20
2.20509
11
0.763149
21
2.20509
0
LINE
8
BLACK
6
CONTINUOUS
10
0.763149
20
2.20509
11
0.767657
21
2.20659
0
LINE
8
BLACK
6
CONTINUOUS
10
0.767657
20
2.20659
11
0.770421
21
2.20935
0
LINE
8
BLACK
6
CONTINUOUS
10
0.770421
20
2.20935
11
0.771924
21
2.21386
0
LINE
8
BLACK
6
CONTINUOUS
10
0.771924
20
2.21386
11
0.771924
21
2.2415
0
LINE
8
BLACK
6
CONTINUOUS
10
0.771924
20
2.2415
11
0.772102
21
2.24251
0
LINE
8
BLACK
6
CONTINUOUS
10
0.772102
20
2.24251
11
0.7734
21
2.24406
0
LINE
8
BLACK
6
CONTINUOUS
10
0.7734
20
2.24406
11
0.775389
21
2.24441
0
LINE
8
BLACK
6
CONTINUOUS
10
0.775389
20
2.24441
11
0.777139
21
2.2434
0
LINE
8
BLACK
6
CONTINUOUS
10
0.802529
20
2.24598
11
0.803869
21
2.24446
0
LINE
8
BLACK
6
CONTINUOUS
10
0.803869
20
2.24446
11
0.803925
21
2.24245
0
LINE
8
BLACK
6
CONTINUOUS
10
0.803925
20
2.24245
11
0.795846
21
2.21821
0
LINE
8
BLACK
6
CONTINUOUS
10
0.795846
20
2.21821
11
0.807544
21
2.21821
0
LINE
8
BLACK
6
CONTINUOUS
10
0.807544
20
2.21821
11
0.807544
21
2.22838
0
LINE
8
BLACK
6
CONTINUOUS
10
0.807544
20
2.22838
11
0.807722
21
2.22939
0
LINE
8
BLACK
6
CONTINUOUS
10
0.807722
20
2.22939
11
0.809021
21
2.23094
0
LINE
8
BLACK
6
CONTINUOUS
10
0.809021
20
2.23094
11
0.81101
21
2.23129
0
LINE
8
BLACK
6
CONTINUOUS
10
0.81101
20
2.23129
11
0.812759
21
2.23028
0
LINE
8
BLACK
6
CONTINUOUS
10
0.812759
20
2.23028
11
0.81345
21
2.22838
0
LINE
8
BLACK
6
CONTINUOUS
10
0.81345
20
2.22838
11
0.81345
21
2.21821
0
LINE
8
BLACK
6
CONTINUOUS
10
0.81345
20
2.21821
11
0.816121
21
2.21821
0
LINE
8
BLACK
6
CONTINUOUS
10
0.816121
20
2.21821
11
0.817131
21
2.21803
0
LINE
8
BLACK
6
CONTINUOUS
10
0.817131
20
2.21803
11
0.818679
21
2.21673
0
LINE
8
BLACK
6
CONTINUOUS
10
0.818679
20
2.21673
11
0.819029
21
2.21475
0
LINE
8
BLACK
6
CONTINUOUS
10
0.819029
20
2.21475
11
0.818019
21
2.213
0
LINE
8
BLACK
6
CONTINUOUS
10
0.818019
20
2.213
11
0.816121
21
2.21231
0
LINE
8
BLACK
6
CONTINUOUS
10
0.816121
20
2.21231
11
0.81345
21
2.21231
0
LINE
8
BLACK
6
CONTINUOUS
10
0.81345
20
2.21231
11
0.81345
21
2.20213
0
LINE
8
BLACK
6
CONTINUOUS
10
0.81345
20
2.20213
11
0.813272
21
2.20112
0
LINE
8
BLACK
6
CONTINUOUS
10
0.813272
20
2.20112
11
0.811974
21
2.19958
0
LINE
8
BLACK
6
CONTINUOUS
10
0.811974
20
2.19958
11
0.809984
21
2.19923
0
LINE
8
BLACK
6
CONTINUOUS
10
0.809984
20
2.19923
11
0.808235
21
2.20024
0
LINE
8
BLACK
6
CONTINUOUS
10
0.808235
20
2.20024
11
0.807544
21
2.20213
0
LINE
8
BLACK
6
CONTINUOUS
10
0.807544
20
2.20213
11
0.807544
21
2.21231
0
LINE
8
BLACK
6
CONTINUOUS
10
0.807544
20
2.21231
11
0.79175
21
2.21231
0
LINE
8
BLACK
6
CONTINUOUS
10
0.79175
20
2.21231
11
0.79074
21
2.21248
0
LINE
8
BLACK
6
CONTINUOUS
10
0.79074
20
2.21248
11
0.790567
21
2.21263
0
LINE
8
BLACK
6
CONTINUOUS
10
0.790567
20
2.21263
11
0.790344
21
2.21266
0
LINE
8
BLACK
6
CONTINUOUS
10
0.790344
20
2.21266
11
0.789809
21
2.21326
0
LINE
8
BLACK
6
CONTINUOUS
10
0.789809
20
2.21326
11
0.789192
21
2.21378
0
LINE
8
BLACK
6
CONTINUOUS
10
0.789192
20
2.21378
11
0.789153
21
2.214
0
LINE
8
BLACK
6
CONTINUOUS
10
0.789153
20
2.214
11
0.789003
21
2.21417
0
LINE
8
BLACK
6
CONTINUOUS
10
0.789003
20
2.21417
11
0.788981
21
2.21498
0
LINE
8
BLACK
6
CONTINUOUS
10
0.788981
20
2.21498
11
0.788842
21
2.21577
0
LINE
8
BLACK
6
CONTINUOUS
10
0.788842
20
2.21577
11
0.788954
21
2.21597
0
LINE
8
BLACK
6
CONTINUOUS
10
0.788954
20
2.21597
11
0.788948
21
2.21619
0
LINE
8
BLACK
6
CONTINUOUS
10
0.788948
20
2.21619
11
0.798322
21
2.24431
0
LINE
8
BLACK
6
CONTINUOUS
10
0.798322
20
2.24431
11
0.79881
21
2.24521
0
LINE
8
BLACK
6
CONTINUOUS
10
0.79881
20
2.24521
11
0.800531
21
2.24627
0
LINE
8
BLACK
6
CONTINUOUS
10
0.800531
20
2.24627
11
0.802529
21
2.24598
0
LINE
8
BLACK
6
CONTINUOUS
10
1.27792
20
0.229534
11
1.28197
21
0.242958
0
LINE
8
BLACK
6
CONTINUOUS
10
1.28197
20
0.242958
11
1.2875
21
0.255846
0
LINE
8
BLACK
6
CONTINUOUS
10
1.2875
20
0.255846
11
1.29442
21
0.268039
0
LINE
8
BLACK
6
CONTINUOUS
10
1.29442
20
0.268039
11
1.30267
21
0.279383
0
LINE
8
BLACK
6
CONTINUOUS
10
1.30267
20
0.279383
11
1.31212
21
0.289738
0
LINE
8
BLACK
6
CONTINUOUS
10
1.31212
20
0.289738
11
1.32267
21
0.298974
0
LINE
8
BLACK
6
CONTINUOUS
10
1.32267
20
0.298974
11
1.33419
21
0.306977
0
LINE
8
BLACK
6
CONTINUOUS
10
1.33419
20
0.306977
11
1.34652
21
0.313646
0
LINE
8
BLACK
6
CONTINUOUS
10
1.34652
20
0.313646
11
1.35952
21
0.318899
0
LINE
8
BLACK
6
CONTINUOUS
10
1.35952
20
0.318899
11
1.37303
21
0.32267
0
LINE
8
BLACK
6
CONTINUOUS
10
1.37303
20
0.32267
11
1.38687
21
0.324912
0
LINE
8
BLACK
6
CONTINUOUS
10
1.38687
20
0.324912
11
1.40088
21
0.325597
0
LINE
8
BLACK
6
CONTINUOUS
10
1.40088
20
0.325597
11
1.41487
21
0.324716
0
LINE
8
BLACK
6
CONTINUOUS
10
1.41487
20
0.324716
11
1.42868
21
0.322281
0
LINE
8
BLACK
6
CONTINUOUS
10
1.42868
20
0.322281
11
1.44213
21
0.318322
0
LINE
8
BLACK
6
CONTINUOUS
10
1.44213
20
0.318322
11
1.45506
21
0.312889
0
LINE
8
BLACK
6
CONTINUOUS
10
1.45506
20
0.312889
11
1.4673
21
0.306048
0
LINE
8
BLACK
6
CONTINUOUS
10
1.4673
20
0.306048
11
1.4787
21
0.297885
0
LINE
8
BLACK
6
CONTINUOUS
10
1.4787
20
0.297885
11
1.48912
21
0.288502
0
LINE
8
BLACK
6
CONTINUOUS
10
1.48912
20
0.288502
11
1.49843
21
0.278016
0
LINE
8
BLACK
6
CONTINUOUS
10
1.49843
20
0.278016
11
1.50651
21
0.266558
0
LINE
8
BLACK
6
CONTINUOUS
10
1.50651
20
0.266558
11
1.51327
21
0.25427
0
LINE
8
BLACK
6
CONTINUOUS
10
1.51327
20
0.25427
11
1.51861
21
0.241306
0
LINE
8
BLACK
6
CONTINUOUS
10
1.51861
20
0.241306
11
1.52248
21
0.227826
0
LINE
8
BLACK
6
CONTINUOUS
10
1.52248
20
0.227826
11
1.52482
21
0.214001
0
LINE
8
BLACK
6
CONTINUOUS
10
1.52482
20
0.214001
11
1.5256
21
0.2
0
LINE
8
BLACK
6
CONTINUOUS
10
1.5256
20
0.2
11
1.52555
21
0.196493
0
LINE
8
BLACK
6
CONTINUOUS
10
1.52555
20
0.196493
11
1.52438
21
0.18252
0
LINE
8
BLACK
6
CONTINUOUS
10
1.52438
20
0.18252
11
1.52165
21
0.168765
0
LINE
8
BLACK
6
CONTINUOUS
10
1.52165
20
0.168765
11
1.51741
21
0.155399
0
LINE
8
BLACK
6
CONTINUOUS
10
1.51741
20
0.155399
11
1.51171
21
0.142589
0
LINE
8
BLACK
6
CONTINUOUS
10
1.51171
20
0.142589
11
1.50461
21
0.130494
0
LINE
8
BLACK
6
CONTINUOUS
10
1.50461
20
0.130494
11
1.49622
21
0.119266
0
LINE
8
BLACK
6
CONTINUOUS
10
1.49622
20
0.119266
11
1.48662
21
0.109044
0
LINE
8
BLACK
6
CONTINUOUS
10
1.48662
20
0.109044
11
1.47594
21
0.0999558
0
LINE
8
BLACK
6
CONTINUOUS
10
1.47594
20
0.0999558
11
1.46431
21
0.0921146
0
LINE
8
BLACK
6
CONTINUOUS
10
1.46431
20
0.0921146
11
1.45189
21
0.0856181
0
LINE
8
BLACK
6
CONTINUOUS
10
1.45189
20
0.0856181
11
1.43881
21
0.0805473
0
LINE
8
BLACK
6
CONTINUOUS
10
1.43881
20
0.0805473
11
1.42526
21
0.0769654
0
LINE
8
BLACK
6
CONTINUOUS
10
1.42526
20
0.0769654
11
1.41138
21
0.0749169
0
LINE
8
BLACK
6
CONTINUOUS
10
1.41138
20
0.0749169
11
1.39737
21
0.0744276
0
LINE
8
BLACK
6
CONTINUOUS
10
1.39737
20
0.0744276
11
1.38339
21
0.0755033
0
LINE
8
BLACK
6
CONTINUOUS
10
1.38339
20
0.0755033
11
1.36961
21
0.0781309
0
LINE
8
BLACK
6
CONTINUOUS
10
1.36961
20
0.0781309
11
1.35622
21
0.0822774
0
LINE
8
BLACK
6
CONTINUOUS
10
1.35622
20
0.0822774
11
1.34337
21
0.0878912
0
LINE
8
BLACK
6
CONTINUOUS
10
1.34337
20
0.0878912
11
1.33123
21
0.0949024
0
LINE
8
BLACK
6
CONTINUOUS
10
1.33123
20
0.0949024
11
1.31994
21
0.103224
0
LINE
8
BLACK
6
CONTINUOUS
10
1.31994
20
0.103224
11
1.30965
21
0.112751
0
LINE
8
BLACK
6
CONTINUOUS
10
1.30965
20
0.112751
11
1.30049
21
0.123366
0
LINE
8
BLACK
6
CONTINUOUS
10
1.30049
20
0.123366
11
1.29257
21
0.134936
0
LINE
8
BLACK
6
CONTINUOUS
10
1.29257
20
0.134936
11
1.28598
21
0.147317
0
LINE
8
BLACK
6
CONTINUOUS
10
1.28598
20
0.147317
11
1.28082
21
0.160354
0
LINE
8
BLACK
6
CONTINUOUS
10
1.28082
20
0.160354
11
1.27714
21
0.173886
0
LINE
8
BLACK
6
CONTINUOUS
10
1.27714
20
0.173886
11
1.275
21
0.187744
0
LINE
8
BLACK
6
CONTINUOUS
10
1.275
20
0.187744
11
1.27441
21
0.201754
0
LINE
8
BLACK
6
CONTINUOUS
10
1.27441
20
0.201754
11
1.27453
21
0.20348
0
LINE
8
BLACK
6
CONTINUOUS
10
1.27453
20
0.20348
11
1.27539
21
0.215742
0
LINE
8
BLACK
6
CONTINUOUS
10
1.27539
20
0.215742
11
1.27792
21
0.229534
0
LINE
8
BLACK
6
CONTINUOUS
10
1.2914
20
0.178102
11
1.29463
21
0.165765
0
LINE
8
BLACK
6
CONTINUOUS
10
1.29463
20
0.165765
11
1.29927
21
0.153881
0
LINE
8
BLACK
6
CONTINUOUS
10
1.29927
20
0.153881
11
1.30524
21
0.142609
0
LINE
8
BLACK
6
CONTINUOUS
10
1.30524
20
0.142609
11
1.31246
21
0.132098
0
LINE
8
BLACK
6
CONTINUOUS
10
1.31246
20
0.132098
11
1.32085
21
0.122486
0
LINE
8
BLACK
6
CONTINUOUS
10
1.32085
20
0.122486
11
1.33028
21
0.113902
0
LINE
8
BLACK
6
CONTINUOUS
10
1.33028
20
0.113902
11
1.34064
21
0.106459
0
LINE
8
BLACK
6
CONTINUOUS
10
1.34064
20
0.106459
11
1.35178
21
0.100256
0
LINE
8
BLACK
6
CONTINUOUS
10
1.35178
20
0.100256
11
1.36357
21
0.095375
0
LINE
8
BLACK
6
CONTINUOUS
10
1.36357
20
0.095375
11
1.37583
21
0.0918807
0
LINE
8
BLACK
6
CONTINUOUS
10
1.37583
20
0.0918807
11
1.38842
21
0.0898194
0
LINE
8
BLACK
6
CONTINUOUS
10
1.38842
20
0.0898194
11
1.40116
21
0.0892186
0
LINE
8
BLACK
6
CONTINUOUS
10
1.40116
20
0.0892186
11
1.41389
21
0.0900861
0
LINE
8
BLACK
6
CONTINUOUS
10
1.41389
20
0.0900861
11
1.42643
21
0.0924105
0
LINE
8
BLACK
6
CONTINUOUS
10
1.42643
20
0.0924105
11
1.43862
21
0.0961609
0
LINE
8
BLACK
6
CONTINUOUS
10
1.43862
20
0.0961609
11
1.4503
21
0.101288
0
LINE
8
BLACK
6
CONTINUOUS
10
1.4503
20
0.101288
11
1.46131
21
0.107723
0
LINE
8
BLACK
6
CONTINUOUS
10
1.46131
20
0.107723
11
1.47151
21
0.115381
0
LINE
8
BLACK
6
CONTINUOUS
10
1.47151
20
0.115381
11
1.48076
21
0.124161
0
LINE
8
BLACK
6
CONTINUOUS
10
1.48076
20
0.124161
11
1.48894
21
0.133946
0
LINE
8
BLACK
6
CONTINUOUS
10
1.48894
20
0.133946
11
1.49594
21
0.144606
0
LINE
8
BLACK
6
CONTINUOUS
10
1.49594
20
0.144606
11
1.50168
21
0.156001
0
LINE
8
BLACK
6
CONTINUOUS
10
1.50168
20
0.156001
11
1.50606
21
0.167979
0
LINE
8
BLACK
6
CONTINUOUS
10
1.50606
20
0.167979
11
1.50904
21
0.180381
0
LINE
8
BLACK
6
CONTINUOUS
10
1.50904
20
0.180381
11
1.51057
21
0.193044
0
LINE
8
BLACK
6
CONTINUOUS
10
1.51057
20
0.193044
11
1.51079
21
0.2
0
LINE
8
BLACK
6
CONTINUOUS
10
1.51079
20
0.2
11
1.51005
21
0.212734
0
LINE
8
BLACK
6
CONTINUOUS
10
1.51005
20
0.212734
11
1.50786
21
0.225298
0
LINE
8
BLACK
6
CONTINUOUS
10
1.50786
20
0.225298
11
1.50424
21
0.237528
0
LINE
8
BLACK
6
CONTINUOUS
10
1.50424
20
0.237528
11
1.49923
21
0.24926
0
LINE
8
BLACK
6
CONTINUOUS
10
1.49923
20
0.24926
11
1.49291
21
0.260339
0
LINE
8
BLACK
6
CONTINUOUS
10
1.49291
20
0.260339
11
1.48536
21
0.270619
0
LINE
8
BLACK
6
CONTINUOUS
10
1.48536
20
0.270619
11
1.47668
21
0.279962
0
LINE
8
BLACK
6
CONTINUOUS
10
1.47668
20
0.279962
11
1.46698
21
0.288246
0
LINE
8
BLACK
6
CONTINUOUS
10
1.46698
20
0.288246
11
1.4564
21
0.295359
0
LINE
8
BLACK
6
CONTINUOUS
10
1.4564
20
0.295359
11
1.44506
21
0.301209
0
LINE
8
BLACK
6
CONTINUOUS
10
1.44506
20
0.301209
11
1.43313
21
0.305718
0
LINE
8
BLACK
6
CONTINUOUS
10
1.43313
20
0.305718
11
1.42076
21
0.308825
0
LINE
8
BLACK
6
CONTINUOUS
10
1.42076
20
0.308825
11
1.40811
21
0.31049
0
LINE
8
BLACK
6
CONTINUOUS
10
1.40811
20
0.31049
11
1.39536
21
0.31069
0
LINE
8
BLACK
6
CONTINUOUS
10
1.39536
20
0.31069
11
1.38267
21
0.309423
0
LINE
8
BLACK
6
CONTINUOUS
10
1.38267
20
0.309423
11
1.37021
21
0.306706
0
LINE
8
BLACK
6
CONTINUOUS
10
1.37021
20
0.306706
11
1.35814
21
0.302575
0
LINE
8
BLACK
6
CONTINUOUS
10
1.35814
20
0.302575
11
1.34663
21
0.297084
0
LINE
8
BLACK
6
CONTINUOUS
10
1.34663
20
0.297084
11
1.33582
21
0.290306
0
LINE
8
BLACK
6
CONTINUOUS
10
1.33582
20
0.290306
11
1.32587
21
0.282331
0
LINE
8
BLACK
6
CONTINUOUS
10
1.32587
20
0.282331
11
1.3169
21
0.273265
0
LINE
8
BLACK
6
CONTINUOUS
10
1.3169
20
0.273265
11
1.30903
21
0.263228
0
LINE
8
BLACK
6
CONTINUOUS
10
1.30903
20
0.263228
11
1.30236
21
0.252353
0
LINE
8
BLACK
6
CONTINUOUS
10
1.30236
20
0.252353
11
1.29699
21
0.240784
0
LINE
8
BLACK
6
CONTINUOUS
10
1.29699
20
0.240784
11
1.29299
21
0.228674
0
LINE
8
BLACK
6
CONTINUOUS
10
1.29299
20
0.228674
11
1.2904
21
0.216184
0
LINE
8
BLACK
6
CONTINUOUS
10
1.2904
20
0.216184
11
1.28927
21
0.20348
0
LINE
8
BLACK
6
CONTINUOUS
10
1.28927
20
0.20348
11
1.2896
21
0.19073
0
LINE
8
BLACK
6
CONTINUOUS
10
1.2896
20
0.19073
11
1.2914
21
0.178102
0
LINE
8
BLACK
6
CONTINUOUS
10
1.27792
20
2.22953
11
1.28197
21
2.24296
0
LINE
8
BLACK
6
CONTINUOUS
10
1.28197
20
2.24296
11
1.2875
21
2.25585
0
LINE
8
BLACK
6
CONTINUOUS
10
1.2875
20
2.25585
11
1.29442
21
2.26804
0
LINE
8
BLACK
6
CONTINUOUS
10
1.29442
20
2.26804
11
1.30267
21
2.27938
0
LINE
8
BLACK
6
CONTINUOUS
10
1.30267
20
2.27938
11
1.31212
21
2.28974
0
LINE
8
BLACK
6
CONTINUOUS
10
1.31212
20
2.28974
11
1.32267
21
2.29897
0
LINE
8
BLACK
6
CONTINUOUS
10
1.32267
20
2.29897
11
1.33419
21
2.30698
0
LINE
8
BLACK
6
CONTINUOUS
10
1.33419
20
2.30698
11
1.34652
21
2.31365
0
LINE
8
BLACK
6
CONTINUOUS
10
1.34652
20
2.31365
11
1.35952
21
2.3189
0
LINE
8
BLACK
6
CONTINUOUS
10
1.35952
20
2.3189
11
1.37303
21
2.32267
0
LINE
8
BLACK
6
CONTINUOUS
10
1.37303
20
2.32267
11
1.38687
21
2.32491
0
LINE
8
BLACK
6
CONTINUOUS
10
1.38687
20
2.32491
11
1.40088
21
2.3256
0
LINE
8
BLACK
6
CONTINUOUS
10
1.40088
20
2.3256
11
1.41487
21
2.32472
0
LINE
8
BLACK
6
CONTINUOUS
10
1.41487
20
2.32472
11
1.42868
21
2.32228
0
LINE
8
BLACK
6
CONTINUOUS
10
1.42868
20
2.32228
11
1.44213
21
2.31832
0
LINE
8
BLACK
6
CONTINUOUS
10
1.44213
20
2.31832
11
1.45506
21
2.31289
0
LINE
8
BLACK
6
CONTINUOUS
10
1.45506
20
2.31289
11
1.4673
21
2.30605
0
LINE
8
BLACK
6
CONTINUOUS
10
1.4673
20
2.30605
11
1.4787
21
2.29788
0
LINE
8
BLACK
6
CONTINUOUS
10
1.4787
20
2.29788
11
1.48912
21
2.2885
0
LINE
8
BLACK
6
CONTINUOUS
10
1.48912
20
2.2885
11
1.49843
21
2.27802
0
LINE
8
BLACK
6
CONTINUOUS
10
1.49843
20
2.27802
11
1.50651
21
2.26656
0
LINE
8
BLACK
6
CONTINUOUS
10
1.50651
20
2.26656
11
1.51327
21
2.25427
0
LINE
8
BLACK
6
CONTINUOUS
10
1.51327
20
2.25427
11
1.51861
21
2.24131
0
LINE
8
BLACK
6
CONTINUOUS
10
1.51861
20
2.24131
11
1.52248
21
2.22783
0
LINE
8
BLACK
6
CONTINUOUS
10
1.52248
20
2.22783
11
1.52482
21
2.214
0
LINE
8
BLACK
6
CONTINUOUS
10
1.52482
20
2.214
11
1.5256
21
2.2
0
LINE
8
BLACK
6
CONTINUOUS
10
1.5256
20
2.2
11
1.52555
21
2.19649
0
LINE
8
BLACK
6
CONTINUOUS
10
1.52555
20
2.19649
11
1.52438
21
2.18252
0
LINE
8
BLACK
6
CONTINUOUS
10
1.52438
20
2.18252
11
1.52165
21
2.16876
0
LINE
8
BLACK
6
CONTINUOUS
10
1.52165
20
2.16876
11
1.51741
21
2.1554
0
LINE
8
BLACK
6
CONTINUOUS
10
1.51741
20
2.1554
11
1.51171
21
2.14259
0
LINE
8
BLACK
6
CONTINUOUS
10
1.51171
20
2.14259
11
1.50461
21
2.13049
0
LINE
8
BLACK
6
CONTINUOUS
10
1.50461
20
2.13049
11
1.49622
21
2.11927
0
LINE
8
BLACK
6
CONTINUOUS
10
1.49622
20
2.11927
11
1.48662
21
2.10904
0
LINE
8
BLACK
6
CONTINUOUS
10
1.48662
20
2.10904
11
1.47594
21
2.09996
0
LINE
8
BLACK
6
CONTINUOUS
10
1.47594
20
2.09996
11
1.46431
21
2.09211
0
LINE
8
BLACK
6
CONTINUOUS
10
1.46431
20
2.09211
11
1.45189
21
2.08562
0
LINE
8
BLACK
6
CONTINUOUS
10
1.45189
20
2.08562
11
1.43881
21
2.08055
0
LINE
8
BLACK
6
CONTINUOUS
10
1.43881
20
2.08055
11
1.42526
21
2.07697
0
LINE
8
BLACK
6
CONTINUOUS
10
1.42526
20
2.07697
11
1.41138
21
2.07492
0
LINE
8
BLACK
6
CONTINUOUS
10
1.41138
20
2.07492
11
1.39737
21
2.07443
0
LINE
8
BLACK
6
CONTINUOUS
10
1.39737
20
2.07443
11
1.38339
21
2.0755
0
LINE
8
BLACK
6
CONTINUOUS
10
1.38339
20
2.0755
11
1.36961
21
2.07813
0
LINE
8
BLACK
6
CONTINUOUS
10
1.36961
20
2.07813
11
1.35622
21
2.08228
0
LINE
8
BLACK
6
CONTINUOUS
10
1.35622
20
2.08228
11
1.34337
21
2.08789
0
LINE
8
BLACK
6
CONTINUOUS
10
1.34337
20
2.08789
11
1.33123
21
2.0949
0
LINE
8
BLACK
6
CONTINUOUS
10
1.33123
20
2.0949
11
1.31994
21
2.10322
0
LINE
8
BLACK
6
CONTINUOUS
10
1.31994
20
2.10322
11
1.30965
21
2.11275
0
LINE
8
BLACK
6
CONTINUOUS
10
1.30965
20
2.11275
11
1.30049
21
2.12337
0
LINE
8
BLACK
6
CONTINUOUS
10
1.30049
20
2.12337
11
1.29257
21
2.13494
0
LINE
8
BLACK
6
CONTINUOUS
10
1.29257
20
2.13494
11
1.28598
21
2.14732
0
LINE
8
BLACK
6
CONTINUOUS
10
1.28598
20
2.14732
11
1.28082
21
2.16035
0
LINE
8
BLACK
6
CONTINUOUS
10
1.28082
20
2.16035
11
1.27714
21
2.17389
0
LINE
8
BLACK
6
CONTINUOUS
10
1.27714
20
2.17389
11
1.275
21
2.18774
0
LINE
8
BLACK
6
CONTINUOUS
10
1.275
20
2.18774
11
1.27441
21
2.20175
0
LINE
8
BLACK
6
CONTINUOUS
10
1.27441
20
2.20175
11
1.27453
21
2.20348
0
LINE
8
BLACK
6
CONTINUOUS
10
1.27453
20
2.20348
11
1.27539
21
2.21574
0
LINE
8
BLACK
6
CONTINUOUS
10
1.27539
20
2.21574
11
1.27792
21
2.22953
0
LINE
8
BLACK
6
CONTINUOUS
10
1.2914
20
2.1781
11
1.29463
21
2.16576
0
LINE
8
BLACK
6
CONTINUOUS
10
1.29463
20
2.16576
11
1.29927
21
2.15388
0
LINE
8
BLACK
6
CONTINUOUS
10
1.29927
20
2.15388
11
1.30524
21
2.14261
0
LINE
8
BLACK
6
CONTINUOUS
10
1.30524
20
2.14261
11
1.31246
21
2.1321
0
LINE
8
BLACK
6
CONTINUOUS
10
1.31246
20
2.1321
11
1.32085
21
2.12249
0
LINE
8
BLACK
6
CONTINUOUS
10
1.32085
20
2.12249
11
1.33028
21
2.1139
0
LINE
8
BLACK
6
CONTINUOUS
10
1.33028
20
2.1139
11
1.34064
21
2.10646
0
LINE
8
BLACK
6
CONTINUOUS
10
1.34064
20
2.10646
11
1.35178
21
2.10026
0
LINE
8
BLACK
6
CONTINUOUS
10
1.35178
20
2.10026
11
1.36357
21
2.09537
0
LINE
8
BLACK
6
CONTINUOUS
10
1.36357
20
2.09537
11
1.37583
21
2.09188
0
LINE
8
BLACK
6
CONTINUOUS
10
1.37583
20
2.09188
11
1.38842
21
2.08982
0
LINE
8
BLACK
6
CONTINUOUS
10
1.38842
20
2.08982
11
1.40116
21
2.08922
0
LINE
8
BLACK
6
CONTINUOUS
10
1.40116
20
2.08922
11
1.41389
21
2.09009
0
LINE
8
BLACK
6
CONTINUOUS
10
1.41389
20
2.09009
11
1.42643
21
2.09241
0
LINE
8
BLACK
6
CONTINUOUS
10
1.42643
20
2.09241
11
1.43862
21
2.09616
0
LINE
8
BLACK
6
CONTINUOUS
10
1.43862
20
2.09616
11
1.4503
21
2.10129
0
LINE
8
BLACK
6
CONTINUOUS
10
1.4503
20
2.10129
11
1.46131
21
2.10772
0
LINE
8
BLACK
6
CONTINUOUS
10
1.46131
20
2.10772
11
1.47151
21
2.11538
0
LINE
8
BLACK
6
CONTINUOUS
10
1.47151
20
2.11538
11
1.48076
21
2.12416
0
LINE
8
BLACK
6
CONTINUOUS
10
1.48076
20
2.12416
11
1.48894
21
2.13395
0
LINE
8
BLACK
6
CONTINUOUS
10
1.48894
20
2.13395
11
1.49594
21
2.14461
0
LINE
8
BLACK
6
CONTINUOUS
10
1.49594
20
2.14461
11
1.50168
21
2.156
0
LINE
8
BLACK
6
CONTINUOUS
10
1.50168
20
2.156
11
1.50606
21
2.16798
0
LINE
8
BLACK
6
CONTINUOUS
10
1.50606
20
2.16798
11
1.50904
21
2.18038
0
LINE
8
BLACK
6
CONTINUOUS
10
1.50904
20
2.18038
11
1.51057
21
2.19304
0
LINE
8
BLACK
6
CONTINUOUS
10
1.51057
20
2.19304
11
1.51079
21
2.2
0
LINE
8
BLACK
6
CONTINUOUS
10
1.51079
20
2.2
11
1.51005
21
2.21273
0
LINE
8
BLACK
6
CONTINUOUS
10
1.51005
20
2.21273
11
1.50786
21
2.2253
0
LINE
8
BLACK
6
CONTINUOUS
10
1.50786
20
2.2253
11
1.50424
21
2.23753
0
LINE
8
BLACK
6
CONTINUOUS
10
1.50424
20
2.23753
11
1.49923
21
2.24926
0
LINE
8
BLACK
6
CONTINUOUS
10
1.49923
20
2.24926
11
1.49291
21
2.26034
0
LINE
8
BLACK
6
CONTINUOUS
10
1.49291
20
2.26034
11
1.48536
21
2.27062
0
LINE
8
BLACK
6
CONTINUOUS
10
1.48536
20
2.27062
11
1.47668
21
2.27996
0
LINE
8
BLACK
6
CONTINUOUS
10
1.47668
20
2.27996
11
1.46698
21
2.28825
0
LINE
8
BLACK
6
CONTINUOUS
10
1.46698
20
2.28825
11
1.4564
21
2.29536
0
LINE
8
BLACK
6
CONTINUOUS
10
1.4564
20
2.29536
11
1.44506
21
2.30121
0
LINE
8
BLACK
6
CONTINUOUS
10
1.44506
20
2.30121
11
1.43313
21
2.30572
0
LINE
8
BLACK
6
CONTINUOUS
10
1.43313
20
2.30572
11
1.42076
21
2.30883
0
LINE
8
BLACK
6
CONTINUOUS
10
1.42076
20
2.30883
11
1.40811
21
2.31049
0
LINE
8
BLACK
6
CONTINUOUS
10
1.40811
20
2.31049
11
1.39536
21
2.31069
0
LINE
8
BLACK
6
CONTINUOUS
10
1.39536
20
2.31069
11
1.38267
21
2.30942
0
LINE
8
BLACK
6
CONTINUOUS
10
1.38267
20
2.30942
11
1.37021
21
2.30671
0
LINE
8
BLACK
6
CONTINUOUS
10
1.37021
20
2.30671
11
1.35814
21
2.30257
0
LINE
8
BLACK
6
CONTINUOUS
10
1.35814
20
2.30257
11
1.34663
21
2.29708
0
LINE
8
BLACK
6
CONTINUOUS
10
1.34663
20
2.29708
11
1.33582
21
2.29031
0
LINE
8
BLACK
6
CONTINUOUS
10
1.33582
20
2.29031
11
1.32587
21
2.28233
0
LINE
8
BLACK
6
CONTINUOUS
10
1.32587
20
2.28233
11
1.3169
21
2.27327
0
LINE
8
BLACK
6
CONTINUOUS
10
1.3169
20
2.27327
11
1.30903
21
2.26323
0
LINE
8
BLACK
6
CONTINUOUS
10
1.30903
20
2.26323
11
1.30236
21
2.25235
0
LINE
8
BLACK
6
CONTINUOUS
10
1.30236
20
2.25235
11
1.29699
21
2.24078
0
LINE
8
BLACK
6
CONTINUOUS
10
1.29699
20
2.24078
11
1.29299
21
2.22867
0
LINE
8
BLACK
6
CONTINUOUS
10
1.29299
20
2.22867
11
1.2904
21
2.21618
0
LINE
8
BLACK
6
CONTINUOUS
10
1.2904
20
2.21618
11
1.28927
21
2.20348
0
LINE
8
BLACK
6
CONTINUOUS
10
1.28927
20
2.20348
11
1.2896
21
2.19073
0
LINE
8
BLACK
6
CONTINUOUS
10
1.2896
20
2.19073
11
1.2914
21
2.1781
  0
ENDSEC
  0
EOF
