  0
SECTION
  2
HEADER
  9
$ANGBASE
  50
0.0
  9
$ANGDIR
  70
1
  9
$MEASUREMENT
  70
0
  0
ENDSEC
  0
SECTION
  2
TABLES
  0
TABLE
  2
LTYPE
  70
4
  0
LTYPE
  5
40F
  2
CONTINUOUS
  70
0
  3
Solid line
  72
65
  73
0
  40
0.0
  0
LTYPE
  5
410
  2
DASHDOT
 70
0
  3
Dash Dot ____ _ ____ _
 72
65
 73
4
 40
2.0
 49
1.25
 49
-0.25
 49
0.25
 49
-0.25
  0
LTYPE
  5
411
  2
DASHED
 70
0
  3
Dashed __ __ __ __ __
 72
65
 73
2
 40
0.75
 49
0.5
 49
-0.25
  0
LTYPE
  5
43B
  2
DOTTED
 70
0
  3
Dotted .  .  .  .
 72
65
 73
2
 40
0.2
 49
0.0
 49
-0.2
  0
ENDTAB
  0
TABLE
  2
STYLE
  70
4
  0
STYLE
  2
KICAD
  70
0
  40
0
  41
1
  42
1
  50
0
  71
0
  3
isocp.shx
  0
STYLE
  2
KICADB
  70
0
  40
0
  41
1
  42
1
  50
0
  71
0
  3
isocp.shx
  0
STYLE
  2
KICADI
  70
0
  40
0
  41
1
  42
1
  50
15
  71
0
  3
isocp.shx
  0
STYLE
  2
KICADBI
  70
0
  40
0
  41
1
  42
1
  50
15
  71
0
  3
isocp.shx
  0
ENDTAB
  0
TABLE
  2
LAYER
  70
1
  0
LAYER
  2
BLACK
  70
0
  62
7
  6
CONTINUOUS
  0
ENDTAB
  0
ENDSEC
  0
SECTION
  2
ENTITIES
0
LINE
8
BLACK
6
CONTINUOUS
10
1.23439
20
0.387142
11
1.23439
21
0.254858
0
LINE
8
BLACK
6
CONTINUOUS
10
1.23439
20
0.254858
11
1.2341
21
0.254162
0
LINE
8
BLACK
6
CONTINUOUS
10
1.2341
20
0.254162
11
1.2334
21
0.253874
0
LINE
8
BLACK
6
CONTINUOUS
10
1.2334
20
0.253874
11
1.1586
21
0.253874
0
LINE
8
BLACK
6
CONTINUOUS
10
1.1586
20
0.253874
11
1.1585
21
0.253915
0
LINE
8
BLACK
6
CONTINUOUS
10
1.1585
20
0.253915
11
1.1584
21
0.253874
0
LINE
8
BLACK
6
CONTINUOUS
10
1.1584
20
0.253874
11
1.0836
21
0.253874
0
LINE
8
BLACK
6
CONTINUOUS
10
1.0836
20
0.253874
11
1.0829
21
0.254162
0
LINE
8
BLACK
6
CONTINUOUS
10
1.0829
20
0.254162
11
1.08261
21
0.254858
0
LINE
8
BLACK
6
CONTINUOUS
10
1.08261
20
0.254858
11
1.08261
21
0.387142
0
LINE
8
BLACK
6
CONTINUOUS
10
1.08261
20
0.387142
11
1.0829
21
0.387838
0
LINE
8
BLACK
6
CONTINUOUS
10
1.0829
20
0.387838
11
1.0836
21
0.388126
0
LINE
8
BLACK
6
CONTINUOUS
10
1.0836
20
0.388126
11
1.1584
21
0.388126
0
LINE
8
BLACK
6
CONTINUOUS
10
1.1584
20
0.388126
11
1.1585
21
0.388085
0
LINE
8
BLACK
6
CONTINUOUS
10
1.1585
20
0.388085
11
1.1586
21
0.388126
0
LINE
8
BLACK
6
CONTINUOUS
10
1.1586
20
0.388126
11
1.2334
21
0.388126
0
LINE
8
BLACK
6
CONTINUOUS
10
1.2334
20
0.388126
11
1.2341
21
0.387838
0
LINE
8
BLACK
6
CONTINUOUS
10
1.2341
20
0.387838
11
1.23439
21
0.387142
0
LINE
8
BLACK
6
CONTINUOUS
10
1.15958
20
0.386157
11
1.15958
21
0.255843
0
LINE
8
BLACK
6
CONTINUOUS
10
1.15958
20
0.255843
11
1.23242
21
0.255843
0
LINE
8
BLACK
6
CONTINUOUS
10
1.23242
20
0.255843
11
1.23242
21
0.386157
0
LINE
8
BLACK
6
CONTINUOUS
10
1.23242
20
0.386157
11
1.15958
21
0.386157
0
LINE
8
BLACK
6
CONTINUOUS
10
1.08458
20
0.386157
11
1.08458
21
0.255843
0
LINE
8
BLACK
6
CONTINUOUS
10
1.08458
20
0.255843
11
1.15742
21
0.255843
0
LINE
8
BLACK
6
CONTINUOUS
10
1.15742
20
0.255843
11
1.15742
21
0.386157
0
LINE
8
BLACK
6
CONTINUOUS
10
1.15742
20
0.386157
11
1.08458
21
0.386157
0
LINE
8
BLACK
6
CONTINUOUS
10
0.325564
20
0.370213
11
0.325276
21
0.370909
0
LINE
8
BLACK
6
CONTINUOUS
10
0.325276
20
0.370909
11
0.325276
21
0.709491
0
LINE
8
BLACK
6
CONTINUOUS
10
0.325276
20
0.709491
11
0.325564
21
0.710187
0
LINE
8
BLACK
6
CONTINUOUS
10
0.325564
20
0.710187
11
0.32626
21
0.710476
0
LINE
8
BLACK
6
CONTINUOUS
10
0.32626
20
0.710476
11
0.48374
21
0.710476
0
LINE
8
BLACK
6
CONTINUOUS
10
0.48374
20
0.710476
11
0.484436
21
0.710187
0
LINE
8
BLACK
6
CONTINUOUS
10
0.484436
20
0.710187
11
0.484724
21
0.709491
0
LINE
8
BLACK
6
CONTINUOUS
10
0.484724
20
0.709491
11
0.484724
21
0.370909
0
LINE
8
BLACK
6
CONTINUOUS
10
0.484724
20
0.370909
11
0.484436
21
0.370213
0
LINE
8
BLACK
6
CONTINUOUS
10
0.484436
20
0.370213
11
0.48374
21
0.369924
0
LINE
8
BLACK
6
CONTINUOUS
10
0.48374
20
0.369924
11
0.32626
21
0.369924
0
LINE
8
BLACK
6
CONTINUOUS
10
0.32626
20
0.369924
11
0.325564
21
0.370213
0
LINE
8
BLACK
6
CONTINUOUS
10
0.327244
20
0.708507
11
0.327244
21
0.371893
0
LINE
8
BLACK
6
CONTINUOUS
10
0.327244
20
0.371893
11
0.482756
21
0.371893
0
LINE
8
BLACK
6
CONTINUOUS
10
0.482756
20
0.371893
11
0.482756
21
0.708507
0
LINE
8
BLACK
6
CONTINUOUS
10
0.482756
20
0.708507
11
0.327244
21
0.708507
0
LINE
8
BLACK
6
CONTINUOUS
10
0.497902
20
0.393162
11
0.497614
21
0.393858
0
LINE
8
BLACK
6
CONTINUOUS
10
0.497614
20
0.393858
11
0.497614
21
0.526142
0
LINE
8
BLACK
6
CONTINUOUS
10
0.497614
20
0.526142
11
0.497902
21
0.526838
0
LINE
8
BLACK
6
CONTINUOUS
10
0.497902
20
0.526838
11
0.498598
21
0.527126
0
LINE
8
BLACK
6
CONTINUOUS
10
0.498598
20
0.527126
11
0.573402
21
0.527126
0
LINE
8
BLACK
6
CONTINUOUS
10
0.573402
20
0.527126
11
0.574098
21
0.526838
0
LINE
8
BLACK
6
CONTINUOUS
10
0.574098
20
0.526838
11
0.574386
21
0.526142
0
LINE
8
BLACK
6
CONTINUOUS
10
0.574386
20
0.526142
11
0.574386
21
0.393858
0
LINE
8
BLACK
6
CONTINUOUS
10
0.574386
20
0.393858
11
0.574098
21
0.393162
0
LINE
8
BLACK
6
CONTINUOUS
10
0.574098
20
0.393162
11
0.573402
21
0.392874
0
LINE
8
BLACK
6
CONTINUOUS
10
0.573402
20
0.392874
11
0.498598
21
0.392874
0
LINE
8
BLACK
6
CONTINUOUS
10
0.498598
20
0.392874
11
0.497902
21
0.393162
0
LINE
8
BLACK
6
CONTINUOUS
10
0.499583
20
0.525157
11
0.499583
21
0.394843
0
LINE
8
BLACK
6
CONTINUOUS
10
0.499583
20
0.394843
11
0.572417
21
0.394843
0
LINE
8
BLACK
6
CONTINUOUS
10
0.572417
20
0.394843
11
0.572417
21
0.525157
0
LINE
8
BLACK
6
CONTINUOUS
10
0.572417
20
0.525157
11
0.499583
21
0.525157
0
LINE
8
BLACK
6
CONTINUOUS
10
0.577902
20
0.393162
11
0.577614
21
0.393858
0
LINE
8
BLACK
6
CONTINUOUS
10
0.577614
20
0.393858
11
0.577614
21
0.526142
0
LINE
8
BLACK
6
CONTINUOUS
10
0.577614
20
0.526142
11
0.577902
21
0.526838
0
LINE
8
BLACK
6
CONTINUOUS
10
0.577902
20
0.526838
11
0.578598
21
0.527126
0
LINE
8
BLACK
6
CONTINUOUS
10
0.578598
20
0.527126
11
0.653402
21
0.527126
0
LINE
8
BLACK
6
CONTINUOUS
10
0.653402
20
0.527126
11
0.654098
21
0.526838
0
LINE
8
BLACK
6
CONTINUOUS
10
0.654098
20
0.526838
11
0.654386
21
0.526142
0
LINE
8
BLACK
6
CONTINUOUS
10
0.654386
20
0.526142
11
0.654386
21
0.393858
0
LINE
8
BLACK
6
CONTINUOUS
10
0.654386
20
0.393858
11
0.654098
21
0.393162
0
LINE
8
BLACK
6
CONTINUOUS
10
0.654098
20
0.393162
11
0.653402
21
0.392874
0
LINE
8
BLACK
6
CONTINUOUS
10
0.653402
20
0.392874
11
0.578598
21
0.392874
0
LINE
8
BLACK
6
CONTINUOUS
10
0.578598
20
0.392874
11
0.577902
21
0.393162
0
LINE
8
BLACK
6
CONTINUOUS
10
0.579583
20
0.525157
11
0.579583
21
0.394843
0
LINE
8
BLACK
6
CONTINUOUS
10
0.579583
20
0.394843
11
0.652417
21
0.394843
0
LINE
8
BLACK
6
CONTINUOUS
10
0.652417
20
0.394843
11
0.652417
21
0.525157
0
LINE
8
BLACK
6
CONTINUOUS
10
0.652417
20
0.525157
11
0.579583
21
0.525157
0
LINE
8
BLACK
6
CONTINUOUS
10
0.883902
20
0.479662
11
0.883614
21
0.480358
0
LINE
8
BLACK
6
CONTINUOUS
10
0.883614
20
0.480358
11
0.883614
21
0.612642
0
LINE
8
BLACK
6
CONTINUOUS
10
0.883614
20
0.612642
11
0.883902
21
0.613338
0
LINE
8
BLACK
6
CONTINUOUS
10
0.883902
20
0.613338
11
0.884598
21
0.613626
0
LINE
8
BLACK
6
CONTINUOUS
10
0.884598
20
0.613626
11
0.959402
21
0.613626
0
LINE
8
BLACK
6
CONTINUOUS
10
0.959402
20
0.613626
11
0.960098
21
0.613338
0
LINE
8
BLACK
6
CONTINUOUS
10
0.960098
20
0.613338
11
0.960386
21
0.612642
0
LINE
8
BLACK
6
CONTINUOUS
10
0.960386
20
0.612642
11
0.960386
21
0.480358
0
LINE
8
BLACK
6
CONTINUOUS
10
0.960386
20
0.480358
11
0.960098
21
0.479662
0
LINE
8
BLACK
6
CONTINUOUS
10
0.960098
20
0.479662
11
0.959402
21
0.479374
0
LINE
8
BLACK
6
CONTINUOUS
10
0.959402
20
0.479374
11
0.884598
21
0.479374
0
LINE
8
BLACK
6
CONTINUOUS
10
0.884598
20
0.479374
11
0.883902
21
0.479662
0
LINE
8
BLACK
6
CONTINUOUS
10
0.885583
20
0.611657
11
0.885583
21
0.481343
0
LINE
8
BLACK
6
CONTINUOUS
10
0.885583
20
0.481343
11
0.958417
21
0.481343
0
LINE
8
BLACK
6
CONTINUOUS
10
0.958417
20
0.481343
11
0.958417
21
0.611657
0
LINE
8
BLACK
6
CONTINUOUS
10
0.958417
20
0.611657
11
0.885583
21
0.611657
0
LINE
8
BLACK
6
CONTINUOUS
10
0.330406
20
0.736049
11
0.330118
21
0.736745
0
LINE
8
BLACK
6
CONTINUOUS
10
0.330118
20
0.736745
11
0.330118
21
1.01234
0
LINE
8
BLACK
6
CONTINUOUS
10
0.330118
20
1.01234
11
0.330406
21
1.01303
0
LINE
8
BLACK
6
CONTINUOUS
10
0.330406
20
1.01303
11
0.331102
21
1.01332
0
LINE
8
BLACK
6
CONTINUOUS
10
0.331102
20
1.01332
11
0.468898
21
1.01332
0
LINE
8
BLACK
6
CONTINUOUS
10
0.468898
20
1.01332
11
0.469594
21
1.01303
0
LINE
8
BLACK
6
CONTINUOUS
10
0.469594
20
1.01303
11
0.469882
21
1.01234
0
LINE
8
BLACK
6
CONTINUOUS
10
0.469882
20
1.01234
11
0.469882
21
0.736745
0
LINE
8
BLACK
6
CONTINUOUS
10
0.469882
20
0.736745
11
0.469594
21
0.736049
0
LINE
8
BLACK
6
CONTINUOUS
10
0.469594
20
0.736049
11
0.468898
21
0.735761
0
LINE
8
BLACK
6
CONTINUOUS
10
0.468898
20
0.735761
11
0.331102
21
0.735761
0
LINE
8
BLACK
6
CONTINUOUS
10
0.331102
20
0.735761
11
0.330406
21
0.736049
0
LINE
8
BLACK
6
CONTINUOUS
10
0.332087
20
1.01135
11
0.332087
21
0.737729
0
LINE
8
BLACK
6
CONTINUOUS
10
0.332087
20
0.737729
11
0.467913
21
0.737729
0
LINE
8
BLACK
6
CONTINUOUS
10
0.467913
20
0.737729
11
0.467913
21
1.01135
0
LINE
8
BLACK
6
CONTINUOUS
10
0.467913
20
1.01135
11
0.332087
21
1.01135
0
LINE
8
BLACK
6
CONTINUOUS
10
1.03116
20
0.746902
11
1.03087
21
0.747598
0
LINE
8
BLACK
6
CONTINUOUS
10
1.03087
20
0.747598
11
1.03087
21
0.822402
0
LINE
8
BLACK
6
CONTINUOUS
10
1.03087
20
0.822402
11
1.03116
21
0.823098
0
LINE
8
BLACK
6
CONTINUOUS
10
1.03116
20
0.823098
11
1.03186
21
0.823386
0
LINE
8
BLACK
6
CONTINUOUS
10
1.03186
20
0.823386
11
1.16414
21
0.823386
0
LINE
8
BLACK
6
CONTINUOUS
10
1.16414
20
0.823386
11
1.16484
21
0.823098
0
LINE
8
BLACK
6
CONTINUOUS
10
1.16484
20
0.823098
11
1.16513
21
0.822402
0
LINE
8
BLACK
6
CONTINUOUS
10
1.16513
20
0.822402
11
1.16513
21
0.747598
0
LINE
8
BLACK
6
CONTINUOUS
10
1.16513
20
0.747598
11
1.16484
21
0.746902
0
LINE
8
BLACK
6
CONTINUOUS
10
1.16484
20
0.746902
11
1.16414
21
0.746614
0
LINE
8
BLACK
6
CONTINUOUS
10
1.16414
20
0.746614
11
1.03186
21
0.746614
0
LINE
8
BLACK
6
CONTINUOUS
10
1.03186
20
0.746614
11
1.03116
21
0.746902
0
LINE
8
BLACK
6
CONTINUOUS
10
1.03284
20
0.821417
11
1.03284
21
0.748583
0
LINE
8
BLACK
6
CONTINUOUS
10
1.03284
20
0.748583
11
1.16316
21
0.748583
0
LINE
8
BLACK
6
CONTINUOUS
10
1.16316
20
0.748583
11
1.16316
21
0.821417
0
LINE
8
BLACK
6
CONTINUOUS
10
1.16316
20
0.821417
11
1.03284
21
0.821417
0
LINE
8
BLACK
6
CONTINUOUS
10
0.487162
20
0.754902
11
0.486874
21
0.755598
0
LINE
8
BLACK
6
CONTINUOUS
10
0.486874
20
0.755598
11
0.486874
21
0.830402
0
LINE
8
BLACK
6
CONTINUOUS
10
0.486874
20
0.830402
11
0.487162
21
0.831098
0
LINE
8
BLACK
6
CONTINUOUS
10
0.487162
20
0.831098
11
0.487858
21
0.831386
0
LINE
8
BLACK
6
CONTINUOUS
10
0.487858
20
0.831386
11
0.620142
21
0.831386
0
LINE
8
BLACK
6
CONTINUOUS
10
0.620142
20
0.831386
11
0.620838
21
0.831098
0
LINE
8
BLACK
6
CONTINUOUS
10
0.620838
20
0.831098
11
0.621126
21
0.830402
0
LINE
8
BLACK
6
CONTINUOUS
10
0.621126
20
0.830402
11
0.621126
21
0.755598
0
LINE
8
BLACK
6
CONTINUOUS
10
0.621126
20
0.755598
11
0.620838
21
0.754902
0
LINE
8
BLACK
6
CONTINUOUS
10
0.620838
20
0.754902
11
0.620142
21
0.754614
0
LINE
8
BLACK
6
CONTINUOUS
10
0.620142
20
0.754614
11
0.487858
21
0.754614
0
LINE
8
BLACK
6
CONTINUOUS
10
0.487858
20
0.754614
11
0.487162
21
0.754902
0
LINE
8
BLACK
6
CONTINUOUS
10
0.488843
20
0.829417
11
0.488843
21
0.756583
0
LINE
8
BLACK
6
CONTINUOUS
10
0.488843
20
0.756583
11
0.619157
21
0.756583
0
LINE
8
BLACK
6
CONTINUOUS
10
0.619157
20
0.756583
11
0.619157
21
0.829417
0
LINE
8
BLACK
6
CONTINUOUS
10
0.619157
20
0.829417
11
0.488843
21
0.829417
0
LINE
8
BLACK
6
CONTINUOUS
10
0.705902
20
0.835162
11
0.705614
21
0.835858
0
LINE
8
BLACK
6
CONTINUOUS
10
0.705614
20
0.835858
11
0.705614
21
0.968142
0
LINE
8
BLACK
6
CONTINUOUS
10
0.705614
20
0.968142
11
0.705902
21
0.968838
0
LINE
8
BLACK
6
CONTINUOUS
10
0.705902
20
0.968838
11
0.706598
21
0.969126
0
LINE
8
BLACK
6
CONTINUOUS
10
0.706598
20
0.969126
11
0.781402
21
0.969126
0
LINE
8
BLACK
6
CONTINUOUS
10
0.781402
20
0.969126
11
0.782098
21
0.968838
0
LINE
8
BLACK
6
CONTINUOUS
10
0.782098
20
0.968838
11
0.782386
21
0.968142
0
LINE
8
BLACK
6
CONTINUOUS
10
0.782386
20
0.968142
11
0.782386
21
0.835858
0
LINE
8
BLACK
6
CONTINUOUS
10
0.782386
20
0.835858
11
0.782098
21
0.835162
0
LINE
8
BLACK
6
CONTINUOUS
10
0.782098
20
0.835162
11
0.781402
21
0.834874
0
LINE
8
BLACK
6
CONTINUOUS
10
0.781402
20
0.834874
11
0.706598
21
0.834874
0
LINE
8
BLACK
6
CONTINUOUS
10
0.706598
20
0.834874
11
0.705902
21
0.835162
0
LINE
8
BLACK
6
CONTINUOUS
10
0.707583
20
0.967157
11
0.707583
21
0.836843
0
LINE
8
BLACK
6
CONTINUOUS
10
0.707583
20
0.836843
11
0.780417
21
0.836843
0
LINE
8
BLACK
6
CONTINUOUS
10
0.780417
20
0.836843
11
0.780417
21
0.967157
0
LINE
8
BLACK
6
CONTINUOUS
10
0.780417
20
0.967157
11
0.707583
21
0.967157
0
LINE
8
BLACK
6
CONTINUOUS
10
0.787162
20
0.889902
11
0.786874
21
0.890598
0
LINE
8
BLACK
6
CONTINUOUS
10
0.786874
20
0.890598
11
0.786874
21
0.965402
0
LINE
8
BLACK
6
CONTINUOUS
10
0.786874
20
0.965402
11
0.787162
21
0.966098
0
LINE
8
BLACK
6
CONTINUOUS
10
0.787162
20
0.966098
11
0.787858
21
0.966386
0
LINE
8
BLACK
6
CONTINUOUS
10
0.787858
20
0.966386
11
0.920142
21
0.966386
0
LINE
8
BLACK
6
CONTINUOUS
10
0.920142
20
0.966386
11
0.920838
21
0.966098
0
LINE
8
BLACK
6
CONTINUOUS
10
0.920838
20
0.966098
11
0.921126
21
0.965402
0
LINE
8
BLACK
6
CONTINUOUS
10
0.921126
20
0.965402
11
0.921126
21
0.890598
0
LINE
8
BLACK
6
CONTINUOUS
10
0.921126
20
0.890598
11
0.920838
21
0.889902
0
LINE
8
BLACK
6
CONTINUOUS
10
0.920838
20
0.889902
11
0.920142
21
0.889614
0
LINE
8
BLACK
6
CONTINUOUS
10
0.920142
20
0.889614
11
0.787858
21
0.889614
0
LINE
8
BLACK
6
CONTINUOUS
10
0.787858
20
0.889614
11
0.787162
21
0.889902
0
LINE
8
BLACK
6
CONTINUOUS
10
0.788843
20
0.964417
11
0.788843
21
0.891583
0
LINE
8
BLACK
6
CONTINUOUS
10
0.788843
20
0.891583
11
0.919157
21
0.891583
0
LINE
8
BLACK
6
CONTINUOUS
10
0.919157
20
0.891583
11
0.919157
21
0.964417
0
LINE
8
BLACK
6
CONTINUOUS
10
0.919157
20
0.964417
11
0.788843
21
0.964417
0
LINE
8
BLACK
6
CONTINUOUS
10
0.130406
20
0.907309
11
0.130118
21
0.908005
0
LINE
8
BLACK
6
CONTINUOUS
10
0.130118
20
0.908005
11
0.130118
21
1.1836
0
LINE
8
BLACK
6
CONTINUOUS
10
0.130118
20
1.1836
11
0.130406
21
1.18429
0
LINE
8
BLACK
6
CONTINUOUS
10
0.130406
20
1.18429
11
0.131102
21
1.18458
0
LINE
8
BLACK
6
CONTINUOUS
10
0.131102
20
1.18458
11
0.268898
21
1.18458
0
LINE
8
BLACK
6
CONTINUOUS
10
0.268898
20
1.18458
11
0.269594
21
1.18429
0
LINE
8
BLACK
6
CONTINUOUS
10
0.269594
20
1.18429
11
0.269882
21
1.1836
0
LINE
8
BLACK
6
CONTINUOUS
10
0.269882
20
1.1836
11
0.269882
21
0.908005
0
LINE
8
BLACK
6
CONTINUOUS
10
0.269882
20
0.908005
11
0.269594
21
0.907309
0
LINE
8
BLACK
6
CONTINUOUS
10
0.269594
20
0.907309
11
0.268898
21
0.90702
0
LINE
8
BLACK
6
CONTINUOUS
10
0.268898
20
0.90702
11
0.131102
21
0.90702
0
LINE
8
BLACK
6
CONTINUOUS
10
0.131102
20
0.90702
11
0.130406
21
0.907309
0
LINE
8
BLACK
6
CONTINUOUS
10
0.132087
20
1.18261
11
0.132087
21
0.908989
0
LINE
8
BLACK
6
CONTINUOUS
10
0.132087
20
0.908989
11
0.267913
21
0.908989
0
LINE
8
BLACK
6
CONTINUOUS
10
0.267913
20
0.908989
11
0.267913
21
1.18261
0
LINE
8
BLACK
6
CONTINUOUS
10
0.267913
20
1.18261
11
0.132087
21
1.18261
0
LINE
8
BLACK
6
CONTINUOUS
10
0.706902
20
0.970162
11
0.706614
21
0.970858
0
LINE
8
BLACK
6
CONTINUOUS
10
0.706614
20
0.970858
11
0.706614
21
1.10314
0
LINE
8
BLACK
6
CONTINUOUS
10
0.706614
20
1.10314
11
0.706902
21
1.10384
0
LINE
8
BLACK
6
CONTINUOUS
10
0.706902
20
1.10384
11
0.707598
21
1.10413
0
LINE
8
BLACK
6
CONTINUOUS
10
0.707598
20
1.10413
11
0.782402
21
1.10413
0
LINE
8
BLACK
6
CONTINUOUS
10
0.782402
20
1.10413
11
0.783098
21
1.10384
0
LINE
8
BLACK
6
CONTINUOUS
10
0.783098
20
1.10384
11
0.783386
21
1.10314
0
LINE
8
BLACK
6
CONTINUOUS
10
0.783386
20
1.10314
11
0.783386
21
0.970858
0
LINE
8
BLACK
6
CONTINUOUS
10
0.783386
20
0.970858
11
0.783098
21
0.970162
0
LINE
8
BLACK
6
CONTINUOUS
10
0.783098
20
0.970162
11
0.782402
21
0.969874
0
LINE
8
BLACK
6
CONTINUOUS
10
0.782402
20
0.969874
11
0.707598
21
0.969874
0
LINE
8
BLACK
6
CONTINUOUS
10
0.707598
20
0.969874
11
0.706902
21
0.970162
0
LINE
8
BLACK
6
CONTINUOUS
10
0.708583
20
1.10216
11
0.708583
21
0.971843
0
LINE
8
BLACK
6
CONTINUOUS
10
0.708583
20
0.971843
11
0.781417
21
0.971843
0
LINE
8
BLACK
6
CONTINUOUS
10
0.781417
20
0.971843
11
0.781417
21
1.10216
0
LINE
8
BLACK
6
CONTINUOUS
10
0.781417
20
1.10216
11
0.708583
21
1.10216
0
LINE
8
BLACK
6
CONTINUOUS
10
0.787162
20
0.970902
11
0.786874
21
0.971598
0
LINE
8
BLACK
6
CONTINUOUS
10
0.786874
20
0.971598
11
0.786874
21
1.0464
0
LINE
8
BLACK
6
CONTINUOUS
10
0.786874
20
1.0464
11
0.787162
21
1.0471
0
LINE
8
BLACK
6
CONTINUOUS
10
0.787162
20
1.0471
11
0.787858
21
1.04739
0
LINE
8
BLACK
6
CONTINUOUS
10
0.787858
20
1.04739
11
0.920142
21
1.04739
0
LINE
8
BLACK
6
CONTINUOUS
10
0.920142
20
1.04739
11
0.920838
21
1.0471
0
LINE
8
BLACK
6
CONTINUOUS
10
0.920838
20
1.0471
11
0.921126
21
1.0464
0
LINE
8
BLACK
6
CONTINUOUS
10
0.921126
20
1.0464
11
0.921126
21
0.971598
0
LINE
8
BLACK
6
CONTINUOUS
10
0.921126
20
0.971598
11
0.920838
21
0.970902
0
LINE
8
BLACK
6
CONTINUOUS
10
0.920838
20
0.970902
11
0.920142
21
0.970614
0
LINE
8
BLACK
6
CONTINUOUS
10
0.920142
20
0.970614
11
0.787858
21
0.970614
0
LINE
8
BLACK
6
CONTINUOUS
10
0.787858
20
0.970614
11
0.787162
21
0.970902
0
LINE
8
BLACK
6
CONTINUOUS
10
0.788843
20
1.04542
11
0.788843
21
0.972583
0
LINE
8
BLACK
6
CONTINUOUS
10
0.788843
20
0.972583
11
0.919157
21
0.972583
0
LINE
8
BLACK
6
CONTINUOUS
10
0.919157
20
0.972583
11
0.919157
21
1.04542
0
LINE
8
BLACK
6
CONTINUOUS
10
0.919157
20
1.04542
11
0.788843
21
1.04542
0
LINE
8
BLACK
6
CONTINUOUS
10
0.431627
20
1.04243
11
0.431339
21
1.04312
0
LINE
8
BLACK
6
CONTINUOUS
10
0.431339
20
1.04312
11
0.431339
21
1.20848
0
LINE
8
BLACK
6
CONTINUOUS
10
0.431339
20
1.20848
11
0.431627
21
1.20917
0
LINE
8
BLACK
6
CONTINUOUS
10
0.431627
20
1.20917
11
0.432323
21
1.20946
0
LINE
8
BLACK
6
CONTINUOUS
10
0.432323
20
1.20946
11
0.597677
21
1.20946
0
LINE
8
BLACK
6
CONTINUOUS
10
0.597677
20
1.20946
11
0.598373
21
1.20917
0
LINE
8
BLACK
6
CONTINUOUS
10
0.598373
20
1.20917
11
0.598661
21
1.20848
0
LINE
8
BLACK
6
CONTINUOUS
10
0.598661
20
1.20848
11
0.598661
21
1.04312
0
LINE
8
BLACK
6
CONTINUOUS
10
0.598661
20
1.04312
11
0.598373
21
1.04243
0
LINE
8
BLACK
6
CONTINUOUS
10
0.598373
20
1.04243
11
0.597677
21
1.04214
0
LINE
8
BLACK
6
CONTINUOUS
10
0.597677
20
1.04214
11
0.432323
21
1.04214
0
LINE
8
BLACK
6
CONTINUOUS
10
0.432323
20
1.04214
11
0.431627
21
1.04243
0
LINE
8
BLACK
6
CONTINUOUS
10
0.433307
20
1.20749
11
0.433307
21
1.04411
0
LINE
8
BLACK
6
CONTINUOUS
10
0.433307
20
1.04411
11
0.596693
21
1.04411
0
LINE
8
BLACK
6
CONTINUOUS
10
0.596693
20
1.04411
11
0.596693
21
1.20749
0
LINE
8
BLACK
6
CONTINUOUS
10
0.596693
20
1.20749
11
0.433307
21
1.20749
0
LINE
8
BLACK
6
CONTINUOUS
10
0.707902
20
1.12216
11
0.707614
21
1.12286
0
LINE
8
BLACK
6
CONTINUOUS
10
0.707614
20
1.12286
11
0.707614
21
1.25514
0
LINE
8
BLACK
6
CONTINUOUS
10
0.707614
20
1.25514
11
0.707902
21
1.25584
0
LINE
8
BLACK
6
CONTINUOUS
10
0.707902
20
1.25584
11
0.708294
21
1.256
0
LINE
8
BLACK
6
CONTINUOUS
10
0.708294
20
1.256
11
0.707902
21
1.25616
0
LINE
8
BLACK
6
CONTINUOUS
10
0.707902
20
1.25616
11
0.707614
21
1.25686
0
LINE
8
BLACK
6
CONTINUOUS
10
0.707614
20
1.25686
11
0.707614
21
1.38914
0
LINE
8
BLACK
6
CONTINUOUS
10
0.707614
20
1.38914
11
0.707902
21
1.38984
0
LINE
8
BLACK
6
CONTINUOUS
10
0.707902
20
1.38984
11
0.708598
21
1.39013
0
LINE
8
BLACK
6
CONTINUOUS
10
0.708598
20
1.39013
11
0.783402
21
1.39013
0
LINE
8
BLACK
6
CONTINUOUS
10
0.783402
20
1.39013
11
0.784098
21
1.38984
0
LINE
8
BLACK
6
CONTINUOUS
10
0.784098
20
1.38984
11
0.784386
21
1.38914
0
LINE
8
BLACK
6
CONTINUOUS
10
0.784386
20
1.38914
11
0.784386
21
1.25686
0
LINE
8
BLACK
6
CONTINUOUS
10
0.784386
20
1.25686
11
0.784098
21
1.25616
0
LINE
8
BLACK
6
CONTINUOUS
10
0.784098
20
1.25616
11
0.783706
21
1.256
0
LINE
8
BLACK
6
CONTINUOUS
10
0.783706
20
1.256
11
0.784098
21
1.25584
0
LINE
8
BLACK
6
CONTINUOUS
10
0.784098
20
1.25584
11
0.784386
21
1.25514
0
LINE
8
BLACK
6
CONTINUOUS
10
0.784386
20
1.25514
11
0.784386
21
1.12286
0
LINE
8
BLACK
6
CONTINUOUS
10
0.784386
20
1.12286
11
0.784098
21
1.12216
0
LINE
8
BLACK
6
CONTINUOUS
10
0.784098
20
1.12216
11
0.783402
21
1.12187
0
LINE
8
BLACK
6
CONTINUOUS
10
0.783402
20
1.12187
11
0.708598
21
1.12187
0
LINE
8
BLACK
6
CONTINUOUS
10
0.708598
20
1.12187
11
0.707902
21
1.12216
0
LINE
8
BLACK
6
CONTINUOUS
10
0.709583
20
1.25416
11
0.709583
21
1.12384
0
LINE
8
BLACK
6
CONTINUOUS
10
0.709583
20
1.12384
11
0.782417
21
1.12384
0
LINE
8
BLACK
6
CONTINUOUS
10
0.782417
20
1.12384
11
0.782417
21
1.25416
0
LINE
8
BLACK
6
CONTINUOUS
10
0.782417
20
1.25416
11
0.709583
21
1.25416
0
LINE
8
BLACK
6
CONTINUOUS
10
0.709583
20
1.38816
11
0.709583
21
1.25784
0
LINE
8
BLACK
6
CONTINUOUS
10
0.709583
20
1.25784
11
0.782417
21
1.25784
0
LINE
8
BLACK
6
CONTINUOUS
10
0.782417
20
1.25784
11
0.782417
21
1.38816
0
LINE
8
BLACK
6
CONTINUOUS
10
0.782417
20
1.38816
11
0.709583
21
1.38816
0
LINE
8
BLACK
6
CONTINUOUS
10
0.327902
20
1.12216
11
0.327614
21
1.12286
0
LINE
8
BLACK
6
CONTINUOUS
10
0.327614
20
1.12286
11
0.327614
21
1.25514
0
LINE
8
BLACK
6
CONTINUOUS
10
0.327614
20
1.25514
11
0.327902
21
1.25584
0
LINE
8
BLACK
6
CONTINUOUS
10
0.327902
20
1.25584
11
0.328598
21
1.25613
0
LINE
8
BLACK
6
CONTINUOUS
10
0.328598
20
1.25613
11
0.403402
21
1.25613
0
LINE
8
BLACK
6
CONTINUOUS
10
0.403402
20
1.25613
11
0.404098
21
1.25584
0
LINE
8
BLACK
6
CONTINUOUS
10
0.404098
20
1.25584
11
0.404386
21
1.25514
0
LINE
8
BLACK
6
CONTINUOUS
10
0.404386
20
1.25514
11
0.404386
21
1.12286
0
LINE
8
BLACK
6
CONTINUOUS
10
0.404386
20
1.12286
11
0.404098
21
1.12216
0
LINE
8
BLACK
6
CONTINUOUS
10
0.404098
20
1.12216
11
0.403402
21
1.12187
0
LINE
8
BLACK
6
CONTINUOUS
10
0.403402
20
1.12187
11
0.328598
21
1.12187
0
LINE
8
BLACK
6
CONTINUOUS
10
0.328598
20
1.12187
11
0.327902
21
1.12216
0
LINE
8
BLACK
6
CONTINUOUS
10
0.329583
20
1.25416
11
0.329583
21
1.12384
0
LINE
8
BLACK
6
CONTINUOUS
10
0.329583
20
1.12384
11
0.402417
21
1.12384
0
LINE
8
BLACK
6
CONTINUOUS
10
0.402417
20
1.12384
11
0.402417
21
1.25416
0
LINE
8
BLACK
6
CONTINUOUS
10
0.402417
20
1.25416
11
0.329583
21
1.25416
0
LINE
8
BLACK
6
CONTINUOUS
10
0.788162
20
1.1759
11
0.787874
21
1.1766
0
LINE
8
BLACK
6
CONTINUOUS
10
0.787874
20
1.1766
11
0.787874
21
1.2514
0
LINE
8
BLACK
6
CONTINUOUS
10
0.787874
20
1.2514
11
0.788162
21
1.2521
0
LINE
8
BLACK
6
CONTINUOUS
10
0.788162
20
1.2521
11
0.788858
21
1.25239
0
LINE
8
BLACK
6
CONTINUOUS
10
0.788858
20
1.25239
11
0.921142
21
1.25239
0
LINE
8
BLACK
6
CONTINUOUS
10
0.921142
20
1.25239
11
0.921838
21
1.2521
0
LINE
8
BLACK
6
CONTINUOUS
10
0.921838
20
1.2521
11
0.922126
21
1.2514
0
LINE
8
BLACK
6
CONTINUOUS
10
0.922126
20
1.2514
11
0.922126
21
1.1766
0
LINE
8
BLACK
6
CONTINUOUS
10
0.922126
20
1.1766
11
0.921838
21
1.1759
0
LINE
8
BLACK
6
CONTINUOUS
10
0.921838
20
1.1759
11
0.921142
21
1.17561
0
LINE
8
BLACK
6
CONTINUOUS
10
0.921142
20
1.17561
11
0.788858
21
1.17561
0
LINE
8
BLACK
6
CONTINUOUS
10
0.788858
20
1.17561
11
0.788162
21
1.1759
0
LINE
8
BLACK
6
CONTINUOUS
10
0.789843
20
1.25042
11
0.789843
21
1.17758
0
LINE
8
BLACK
6
CONTINUOUS
10
0.789843
20
1.17758
11
0.920157
21
1.17758
0
LINE
8
BLACK
6
CONTINUOUS
10
0.920157
20
1.17758
11
0.920157
21
1.25042
0
LINE
8
BLACK
6
CONTINUOUS
10
0.920157
20
1.25042
11
0.789843
21
1.25042
0
LINE
8
BLACK
6
CONTINUOUS
10
0.787662
20
1.2557
11
0.787374
21
1.2564
0
LINE
8
BLACK
6
CONTINUOUS
10
0.787374
20
1.2564
11
0.787374
21
1.3312
0
LINE
8
BLACK
6
CONTINUOUS
10
0.787374
20
1.3312
11
0.787662
21
1.3319
0
LINE
8
BLACK
6
CONTINUOUS
10
0.787662
20
1.3319
11
0.788358
21
1.33219
0
LINE
8
BLACK
6
CONTINUOUS
10
0.788358
20
1.33219
11
0.920642
21
1.33219
0
LINE
8
BLACK
6
CONTINUOUS
10
0.920642
20
1.33219
11
0.921338
21
1.3319
0
LINE
8
BLACK
6
CONTINUOUS
10
0.921338
20
1.3319
11
0.921626
21
1.3312
0
LINE
8
BLACK
6
CONTINUOUS
10
0.921626
20
1.3312
11
0.921626
21
1.2564
0
LINE
8
BLACK
6
CONTINUOUS
10
0.921626
20
1.2564
11
0.921338
21
1.2557
0
LINE
8
BLACK
6
CONTINUOUS
10
0.921338
20
1.2557
11
0.920642
21
1.25541
0
LINE
8
BLACK
6
CONTINUOUS
10
0.920642
20
1.25541
11
0.788358
21
1.25541
0
LINE
8
BLACK
6
CONTINUOUS
10
0.788358
20
1.25541
11
0.787662
21
1.2557
0
LINE
8
BLACK
6
CONTINUOUS
10
0.789343
20
1.33022
11
0.789343
21
1.25738
0
LINE
8
BLACK
6
CONTINUOUS
10
0.789343
20
1.25738
11
0.919657
21
1.25738
0
LINE
8
BLACK
6
CONTINUOUS
10
0.919657
20
1.25738
11
0.919657
21
1.33022
0
LINE
8
BLACK
6
CONTINUOUS
10
0.919657
20
1.33022
11
0.789343
21
1.33022
0
LINE
8
BLACK
6
CONTINUOUS
10
0.302375
20
1.26272
11
0.302087
21
1.26342
0
LINE
8
BLACK
6
CONTINUOUS
10
0.302087
20
1.26342
11
0.302087
21
1.34058
0
LINE
8
BLACK
6
CONTINUOUS
10
0.302087
20
1.34058
11
0.302375
21
1.34128
0
LINE
8
BLACK
6
CONTINUOUS
10
0.302375
20
1.34128
11
0.303071
21
1.34157
0
LINE
8
BLACK
6
CONTINUOUS
10
0.303071
20
1.34157
11
0.436929
21
1.34157
0
LINE
8
BLACK
6
CONTINUOUS
10
0.436929
20
1.34157
11
0.437625
21
1.34128
0
LINE
8
BLACK
6
CONTINUOUS
10
0.437625
20
1.34128
11
0.437913
21
1.34058
0
LINE
8
BLACK
6
CONTINUOUS
10
0.437913
20
1.34058
11
0.437913
21
1.26342
0
LINE
8
BLACK
6
CONTINUOUS
10
0.437913
20
1.26342
11
0.437625
21
1.26272
0
LINE
8
BLACK
6
CONTINUOUS
10
0.437625
20
1.26272
11
0.436929
21
1.26243
0
LINE
8
BLACK
6
CONTINUOUS
10
0.436929
20
1.26243
11
0.303071
21
1.26243
0
LINE
8
BLACK
6
CONTINUOUS
10
0.303071
20
1.26243
11
0.302375
21
1.26272
0
LINE
8
BLACK
6
CONTINUOUS
10
0.304055
20
1.3396
11
0.304055
21
1.2644
0
LINE
8
BLACK
6
CONTINUOUS
10
0.304055
20
1.2644
11
0.435945
21
1.2644
0
LINE
8
BLACK
6
CONTINUOUS
10
0.435945
20
1.2644
11
0.435945
21
1.3396
0
LINE
8
BLACK
6
CONTINUOUS
10
0.435945
20
1.3396
11
0.304055
21
1.3396
0
LINE
8
BLACK
6
CONTINUOUS
10
0.610386
20
1.50564
11
0.610386
21
1.37336
0
LINE
8
BLACK
6
CONTINUOUS
10
0.610386
20
1.37336
11
0.610098
21
1.37266
0
LINE
8
BLACK
6
CONTINUOUS
10
0.610098
20
1.37266
11
0.609402
21
1.37237
0
LINE
8
BLACK
6
CONTINUOUS
10
0.609402
20
1.37237
11
0.60293
21
1.37237
0
LINE
8
BLACK
6
CONTINUOUS
10
0.60293
20
1.37237
11
0.603126
21
1.3719
0
LINE
8
BLACK
6
CONTINUOUS
10
0.603126
20
1.3719
11
0.603126
21
1.2971
0
LINE
8
BLACK
6
CONTINUOUS
10
0.603126
20
1.2971
11
0.602838
21
1.2964
0
LINE
8
BLACK
6
CONTINUOUS
10
0.602838
20
1.2964
11
0.602142
21
1.29611
0
LINE
8
BLACK
6
CONTINUOUS
10
0.602142
20
1.29611
11
0.469858
21
1.29611
0
LINE
8
BLACK
6
CONTINUOUS
10
0.469858
20
1.29611
11
0.469162
21
1.2964
0
LINE
8
BLACK
6
CONTINUOUS
10
0.469162
20
1.2964
11
0.468874
21
1.2971
0
LINE
8
BLACK
6
CONTINUOUS
10
0.468874
20
1.2971
11
0.468874
21
1.3719
0
LINE
8
BLACK
6
CONTINUOUS
10
0.468874
20
1.3719
11
0.469162
21
1.3726
0
LINE
8
BLACK
6
CONTINUOUS
10
0.469162
20
1.3726
11
0.469858
21
1.37289
0
LINE
8
BLACK
6
CONTINUOUS
10
0.469858
20
1.37289
11
0.53381
21
1.37289
0
LINE
8
BLACK
6
CONTINUOUS
10
0.53381
20
1.37289
11
0.53369
21
1.37317
0
LINE
8
BLACK
6
CONTINUOUS
10
0.53369
20
1.37317
11
0.459598
21
1.37317
0
LINE
8
BLACK
6
CONTINUOUS
10
0.459598
20
1.37317
11
0.458902
21
1.37346
0
LINE
8
BLACK
6
CONTINUOUS
10
0.458902
20
1.37346
11
0.458614
21
1.37416
0
LINE
8
BLACK
6
CONTINUOUS
10
0.458614
20
1.37416
11
0.458614
21
1.50644
0
LINE
8
BLACK
6
CONTINUOUS
10
0.458614
20
1.50644
11
0.458902
21
1.50714
0
LINE
8
BLACK
6
CONTINUOUS
10
0.458902
20
1.50714
11
0.459598
21
1.50743
0
LINE
8
BLACK
6
CONTINUOUS
10
0.459598
20
1.50743
11
0.534402
21
1.50743
0
LINE
8
BLACK
6
CONTINUOUS
10
0.534402
20
1.50743
11
0.535098
21
1.50714
0
LINE
8
BLACK
6
CONTINUOUS
10
0.535098
20
1.50714
11
0.53531
21
1.50663
0
LINE
8
BLACK
6
CONTINUOUS
10
0.53531
20
1.50663
11
0.609402
21
1.50663
0
LINE
8
BLACK
6
CONTINUOUS
10
0.609402
20
1.50663
11
0.610098
21
1.50634
0
LINE
8
BLACK
6
CONTINUOUS
10
0.610098
20
1.50634
11
0.610386
21
1.50564
0
LINE
8
BLACK
6
CONTINUOUS
10
0.470843
20
1.37092
11
0.470843
21
1.29808
0
LINE
8
BLACK
6
CONTINUOUS
10
0.470843
20
1.29808
11
0.601157
21
1.29808
0
LINE
8
BLACK
6
CONTINUOUS
10
0.601157
20
1.29808
11
0.601157
21
1.37092
0
LINE
8
BLACK
6
CONTINUOUS
10
0.601157
20
1.37092
11
0.470843
21
1.37092
0
LINE
8
BLACK
6
CONTINUOUS
10
0.535583
20
1.50466
11
0.535583
21
1.37434
0
LINE
8
BLACK
6
CONTINUOUS
10
0.535583
20
1.37434
11
0.608417
21
1.37434
0
LINE
8
BLACK
6
CONTINUOUS
10
0.608417
20
1.37434
11
0.608417
21
1.50466
0
LINE
8
BLACK
6
CONTINUOUS
10
0.608417
20
1.50466
11
0.535583
21
1.50466
0
LINE
8
BLACK
6
CONTINUOUS
10
0.460583
20
1.50546
11
0.460583
21
1.37514
0
LINE
8
BLACK
6
CONTINUOUS
10
0.460583
20
1.37514
11
0.533417
21
1.37514
0
LINE
8
BLACK
6
CONTINUOUS
10
0.533417
20
1.37514
11
0.533417
21
1.50546
0
LINE
8
BLACK
6
CONTINUOUS
10
0.533417
20
1.50546
11
0.460583
21
1.50546
0
LINE
8
BLACK
6
CONTINUOUS
10
0.436126
20
1.3456
11
0.435838
21
1.3449
0
LINE
8
BLACK
6
CONTINUOUS
10
0.435838
20
1.3449
11
0.435142
21
1.34461
0
LINE
8
BLACK
6
CONTINUOUS
10
0.435142
20
1.34461
11
0.302858
21
1.34461
0
LINE
8
BLACK
6
CONTINUOUS
10
0.302858
20
1.34461
11
0.302162
21
1.3449
0
LINE
8
BLACK
6
CONTINUOUS
10
0.302162
20
1.3449
11
0.301874
21
1.3456
0
LINE
8
BLACK
6
CONTINUOUS
10
0.301874
20
1.3456
11
0.301874
21
1.4204
0
LINE
8
BLACK
6
CONTINUOUS
10
0.301874
20
1.4204
11
0.302162
21
1.4211
0
LINE
8
BLACK
6
CONTINUOUS
10
0.302162
20
1.4211
11
0.302858
21
1.42139
0
LINE
8
BLACK
6
CONTINUOUS
10
0.302858
20
1.42139
11
0.363433
21
1.42139
0
LINE
8
BLACK
6
CONTINUOUS
10
0.363433
20
1.42139
11
0.363433
21
1.55493
0
LINE
8
BLACK
6
CONTINUOUS
10
0.363433
20
1.55493
11
0.363721
21
1.55563
0
LINE
8
BLACK
6
CONTINUOUS
10
0.363721
20
1.55563
11
0.364417
21
1.55591
0
LINE
8
BLACK
6
CONTINUOUS
10
0.364417
20
1.55591
11
0.441583
21
1.55591
0
LINE
8
BLACK
6
CONTINUOUS
10
0.441583
20
1.55591
11
0.442279
21
1.55563
0
LINE
8
BLACK
6
CONTINUOUS
10
0.442279
20
1.55563
11
0.442567
21
1.55493
0
LINE
8
BLACK
6
CONTINUOUS
10
0.442567
20
1.55493
11
0.442567
21
1.42107
0
LINE
8
BLACK
6
CONTINUOUS
10
0.442567
20
1.42107
11
0.442279
21
1.42037
0
LINE
8
BLACK
6
CONTINUOUS
10
0.442279
20
1.42037
11
0.441583
21
1.42009
0
LINE
8
BLACK
6
CONTINUOUS
10
0.441583
20
1.42009
11
0.436126
21
1.42009
0
LINE
8
BLACK
6
CONTINUOUS
10
0.436126
20
1.42009
11
0.436126
21
1.3456
0
LINE
8
BLACK
6
CONTINUOUS
10
0.303843
20
1.41942
11
0.303843
21
1.34658
0
LINE
8
BLACK
6
CONTINUOUS
10
0.303843
20
1.34658
11
0.434157
21
1.34658
0
LINE
8
BLACK
6
CONTINUOUS
10
0.434157
20
1.34658
11
0.434157
21
1.41942
0
LINE
8
BLACK
6
CONTINUOUS
10
0.434157
20
1.41942
11
0.303843
21
1.41942
0
LINE
8
BLACK
6
CONTINUOUS
10
0.365402
20
1.55394
11
0.365402
21
1.42206
0
LINE
8
BLACK
6
CONTINUOUS
10
0.365402
20
1.42206
11
0.440598
21
1.42206
0
LINE
8
BLACK
6
CONTINUOUS
10
0.440598
20
1.42206
11
0.440598
21
1.55394
0
LINE
8
BLACK
6
CONTINUOUS
10
0.440598
20
1.55394
11
0.365402
21
1.55394
0
LINE
8
BLACK
6
CONTINUOUS
10
0.880902
20
1.37016
11
0.880614
21
1.37086
0
LINE
8
BLACK
6
CONTINUOUS
10
0.880614
20
1.37086
11
0.880614
21
1.50314
0
LINE
8
BLACK
6
CONTINUOUS
10
0.880614
20
1.50314
11
0.880902
21
1.50384
0
LINE
8
BLACK
6
CONTINUOUS
10
0.880902
20
1.50384
11
0.881598
21
1.50413
0
LINE
8
BLACK
6
CONTINUOUS
10
0.881598
20
1.50413
11
0.956402
21
1.50413
0
LINE
8
BLACK
6
CONTINUOUS
10
0.956402
20
1.50413
11
0.957098
21
1.50384
0
LINE
8
BLACK
6
CONTINUOUS
10
0.957098
20
1.50384
11
0.957386
21
1.50314
0
LINE
8
BLACK
6
CONTINUOUS
10
0.957386
20
1.50314
11
0.957386
21
1.37086
0
LINE
8
BLACK
6
CONTINUOUS
10
0.957386
20
1.37086
11
0.957098
21
1.37016
0
LINE
8
BLACK
6
CONTINUOUS
10
0.957098
20
1.37016
11
0.956402
21
1.36987
0
LINE
8
BLACK
6
CONTINUOUS
10
0.956402
20
1.36987
11
0.881598
21
1.36987
0
LINE
8
BLACK
6
CONTINUOUS
10
0.881598
20
1.36987
11
0.880902
21
1.37016
0
LINE
8
BLACK
6
CONTINUOUS
10
0.882583
20
1.50216
11
0.882583
21
1.37184
0
LINE
8
BLACK
6
CONTINUOUS
10
0.882583
20
1.37184
11
0.955417
21
1.37184
0
LINE
8
BLACK
6
CONTINUOUS
10
0.955417
20
1.37184
11
0.955417
21
1.50216
0
LINE
8
BLACK
6
CONTINUOUS
10
0.955417
20
1.50216
11
0.882583
21
1.50216
0
LINE
8
BLACK
6
CONTINUOUS
10
0.763902
20
1.49516
11
0.763614
21
1.49586
0
LINE
8
BLACK
6
CONTINUOUS
10
0.763614
20
1.49586
11
0.763614
21
1.62814
0
LINE
8
BLACK
6
CONTINUOUS
10
0.763614
20
1.62814
11
0.763902
21
1.62884
0
LINE
8
BLACK
6
CONTINUOUS
10
0.763902
20
1.62884
11
0.764598
21
1.62913
0
LINE
8
BLACK
6
CONTINUOUS
10
0.764598
20
1.62913
11
0.839402
21
1.62913
0
LINE
8
BLACK
6
CONTINUOUS
10
0.839402
20
1.62913
11
0.840098
21
1.62884
0
LINE
8
BLACK
6
CONTINUOUS
10
0.840098
20
1.62884
11
0.840386
21
1.62814
0
LINE
8
BLACK
6
CONTINUOUS
10
0.840386
20
1.62814
11
0.840386
21
1.49586
0
LINE
8
BLACK
6
CONTINUOUS
10
0.840386
20
1.49586
11
0.840098
21
1.49516
0
LINE
8
BLACK
6
CONTINUOUS
10
0.840098
20
1.49516
11
0.839402
21
1.49487
0
LINE
8
BLACK
6
CONTINUOUS
10
0.839402
20
1.49487
11
0.764598
21
1.49487
0
LINE
8
BLACK
6
CONTINUOUS
10
0.764598
20
1.49487
11
0.763902
21
1.49516
0
LINE
8
BLACK
6
CONTINUOUS
10
0.765583
20
1.62716
11
0.765583
21
1.49684
0
LINE
8
BLACK
6
CONTINUOUS
10
0.765583
20
1.49684
11
0.838417
21
1.49684
0
LINE
8
BLACK
6
CONTINUOUS
10
0.838417
20
1.49684
11
0.838417
21
1.62716
0
LINE
8
BLACK
6
CONTINUOUS
10
0.838417
20
1.62716
11
0.765583
21
1.62716
0
LINE
8
BLACK
6
CONTINUOUS
10
0.671902
20
1.49516
11
0.671614
21
1.49586
0
LINE
8
BLACK
6
CONTINUOUS
10
0.671614
20
1.49586
11
0.671614
21
1.62814
0
LINE
8
BLACK
6
CONTINUOUS
10
0.671614
20
1.62814
11
0.671902
21
1.62884
0
LINE
8
BLACK
6
CONTINUOUS
10
0.671902
20
1.62884
11
0.672598
21
1.62913
0
LINE
8
BLACK
6
CONTINUOUS
10
0.672598
20
1.62913
11
0.747402
21
1.62913
0
LINE
8
BLACK
6
CONTINUOUS
10
0.747402
20
1.62913
11
0.748098
21
1.62884
0
LINE
8
BLACK
6
CONTINUOUS
10
0.748098
20
1.62884
11
0.748386
21
1.62814
0
LINE
8
BLACK
6
CONTINUOUS
10
0.748386
20
1.62814
11
0.748386
21
1.49586
0
LINE
8
BLACK
6
CONTINUOUS
10
0.748386
20
1.49586
11
0.748098
21
1.49516
0
LINE
8
BLACK
6
CONTINUOUS
10
0.748098
20
1.49516
11
0.747402
21
1.49487
0
LINE
8
BLACK
6
CONTINUOUS
10
0.747402
20
1.49487
11
0.672598
21
1.49487
0
LINE
8
BLACK
6
CONTINUOUS
10
0.672598
20
1.49487
11
0.671902
21
1.49516
0
LINE
8
BLACK
6
CONTINUOUS
10
0.673583
20
1.62716
11
0.673583
21
1.49684
0
LINE
8
BLACK
6
CONTINUOUS
10
0.673583
20
1.49684
11
0.746417
21
1.49684
0
LINE
8
BLACK
6
CONTINUOUS
10
0.746417
20
1.49684
11
0.746417
21
1.62716
0
LINE
8
BLACK
6
CONTINUOUS
10
0.746417
20
1.62716
11
0.673583
21
1.62716
0
LINE
8
BLACK
6
CONTINUOUS
10
1.03316
20
1.6019
11
1.03287
21
1.6026
0
LINE
8
BLACK
6
CONTINUOUS
10
1.03287
20
1.6026
11
1.03287
21
1.6774
0
LINE
8
BLACK
6
CONTINUOUS
10
1.03287
20
1.6774
11
1.03316
21
1.6781
0
LINE
8
BLACK
6
CONTINUOUS
10
1.03316
20
1.6781
11
1.03386
21
1.67839
0
LINE
8
BLACK
6
CONTINUOUS
10
1.03386
20
1.67839
11
1.16614
21
1.67839
0
LINE
8
BLACK
6
CONTINUOUS
10
1.16614
20
1.67839
11
1.16684
21
1.6781
0
LINE
8
BLACK
6
CONTINUOUS
10
1.16684
20
1.6781
11
1.16713
21
1.6774
0
LINE
8
BLACK
6
CONTINUOUS
10
1.16713
20
1.6774
11
1.16713
21
1.6026
0
LINE
8
BLACK
6
CONTINUOUS
10
1.16713
20
1.6026
11
1.16684
21
1.6019
0
LINE
8
BLACK
6
CONTINUOUS
10
1.16684
20
1.6019
11
1.16614
21
1.60161
0
LINE
8
BLACK
6
CONTINUOUS
10
1.16614
20
1.60161
11
1.03386
21
1.60161
0
LINE
8
BLACK
6
CONTINUOUS
10
1.03386
20
1.60161
11
1.03316
21
1.6019
0
LINE
8
BLACK
6
CONTINUOUS
10
1.03484
20
1.67642
11
1.03484
21
1.60358
0
LINE
8
BLACK
6
CONTINUOUS
10
1.03484
20
1.60358
11
1.16516
21
1.60358
0
LINE
8
BLACK
6
CONTINUOUS
10
1.16516
20
1.60358
11
1.16516
21
1.67642
0
LINE
8
BLACK
6
CONTINUOUS
10
1.16516
20
1.67642
11
1.03484
21
1.67642
0
LINE
8
BLACK
6
CONTINUOUS
10
1.0549
20
1.68316
11
1.05461
21
1.68386
0
LINE
8
BLACK
6
CONTINUOUS
10
1.05461
20
1.68386
11
1.05461
21
1.81614
0
LINE
8
BLACK
6
CONTINUOUS
10
1.05461
20
1.81614
11
1.0549
21
1.81684
0
LINE
8
BLACK
6
CONTINUOUS
10
1.0549
20
1.81684
11
1.0556
21
1.81713
0
LINE
8
BLACK
6
CONTINUOUS
10
1.0556
20
1.81713
11
1.1304
21
1.81713
0
LINE
8
BLACK
6
CONTINUOUS
10
1.1304
20
1.81713
11
1.1311
21
1.81684
0
LINE
8
BLACK
6
CONTINUOUS
10
1.1311
20
1.81684
11
1.13139
21
1.81614
0
LINE
8
BLACK
6
CONTINUOUS
10
1.13139
20
1.81614
11
1.13139
21
1.68386
0
LINE
8
BLACK
6
CONTINUOUS
10
1.13139
20
1.68386
11
1.1311
21
1.68316
0
LINE
8
BLACK
6
CONTINUOUS
10
1.1311
20
1.68316
11
1.1304
21
1.68287
0
LINE
8
BLACK
6
CONTINUOUS
10
1.1304
20
1.68287
11
1.0556
21
1.68287
0
LINE
8
BLACK
6
CONTINUOUS
10
1.0556
20
1.68287
11
1.0549
21
1.68316
0
LINE
8
BLACK
6
CONTINUOUS
10
1.05658
20
1.81516
11
1.05658
21
1.68484
0
LINE
8
BLACK
6
CONTINUOUS
10
1.05658
20
1.68484
11
1.12942
21
1.68484
0
LINE
8
BLACK
6
CONTINUOUS
10
1.12942
20
1.68484
11
1.12942
21
1.81516
0
LINE
8
BLACK
6
CONTINUOUS
10
1.12942
20
1.81516
11
1.05658
21
1.81516
0
LINE
8
BLACK
6
CONTINUOUS
10
0.405902
20
1.91316
11
0.405614
21
1.91386
0
LINE
8
BLACK
6
CONTINUOUS
10
0.405614
20
1.91386
11
0.405614
21
2.04614
0
LINE
8
BLACK
6
CONTINUOUS
10
0.405614
20
2.04614
11
0.405902
21
2.04684
0
LINE
8
BLACK
6
CONTINUOUS
10
0.405902
20
2.04684
11
0.406598
21
2.04713
0
LINE
8
BLACK
6
CONTINUOUS
10
0.406598
20
2.04713
11
0.481402
21
2.04713
0
LINE
8
BLACK
6
CONTINUOUS
10
0.481402
20
2.04713
11
0.482098
21
2.04684
0
LINE
8
BLACK
6
CONTINUOUS
10
0.482098
20
2.04684
11
0.482386
21
2.04614
0
LINE
8
BLACK
6
CONTINUOUS
10
0.482386
20
2.04614
11
0.482386
21
1.91386
0
LINE
8
BLACK
6
CONTINUOUS
10
0.482386
20
1.91386
11
0.482098
21
1.91316
0
LINE
8
BLACK
6
CONTINUOUS
10
0.482098
20
1.91316
11
0.481402
21
1.91287
0
LINE
8
BLACK
6
CONTINUOUS
10
0.481402
20
1.91287
11
0.406598
21
1.91287
0
LINE
8
BLACK
6
CONTINUOUS
10
0.406598
20
1.91287
11
0.405902
21
1.91316
0
LINE
8
BLACK
6
CONTINUOUS
10
0.407583
20
2.04516
11
0.407583
21
1.91484
0
LINE
8
BLACK
6
CONTINUOUS
10
0.407583
20
1.91484
11
0.480417
21
1.91484
0
LINE
8
BLACK
6
CONTINUOUS
10
0.480417
20
1.91484
11
0.480417
21
2.04516
0
LINE
8
BLACK
6
CONTINUOUS
10
0.480417
20
2.04516
11
0.407583
21
2.04516
0
LINE
8
BLACK
6
CONTINUOUS
10
0.507902
20
1.91316
11
0.507614
21
1.91386
0
LINE
8
BLACK
6
CONTINUOUS
10
0.507614
20
1.91386
11
0.507614
21
2.04614
0
LINE
8
BLACK
6
CONTINUOUS
10
0.507614
20
2.04614
11
0.507902
21
2.04684
0
LINE
8
BLACK
6
CONTINUOUS
10
0.507902
20
2.04684
11
0.508598
21
2.04713
0
LINE
8
BLACK
6
CONTINUOUS
10
0.508598
20
2.04713
11
0.583402
21
2.04713
0
LINE
8
BLACK
6
CONTINUOUS
10
0.583402
20
2.04713
11
0.584098
21
2.04684
0
LINE
8
BLACK
6
CONTINUOUS
10
0.584098
20
2.04684
11
0.584386
21
2.04614
0
LINE
8
BLACK
6
CONTINUOUS
10
0.584386
20
2.04614
11
0.584386
21
1.91386
0
LINE
8
BLACK
6
CONTINUOUS
10
0.584386
20
1.91386
11
0.584098
21
1.91316
0
LINE
8
BLACK
6
CONTINUOUS
10
0.584098
20
1.91316
11
0.583402
21
1.91287
0
LINE
8
BLACK
6
CONTINUOUS
10
0.583402
20
1.91287
11
0.508598
21
1.91287
0
LINE
8
BLACK
6
CONTINUOUS
10
0.508598
20
1.91287
11
0.507902
21
1.91316
0
LINE
8
BLACK
6
CONTINUOUS
10
0.509583
20
2.04516
11
0.509583
21
1.91484
0
LINE
8
BLACK
6
CONTINUOUS
10
0.509583
20
1.91484
11
0.582417
21
1.91484
0
LINE
8
BLACK
6
CONTINUOUS
10
0.582417
20
1.91484
11
0.582417
21
2.04516
0
LINE
8
BLACK
6
CONTINUOUS
10
0.582417
20
2.04516
11
0.509583
21
2.04516
0
LINE
8
BLACK
6
CONTINUOUS
10
1.13175
20
1.97702
11
1.1316
21
1.97666
0
LINE
8
BLACK
6
CONTINUOUS
10
1.1316
20
1.97666
11
1.1309
21
1.97637
0
LINE
8
BLACK
6
CONTINUOUS
10
1.1309
20
1.97637
11
1.0561
21
1.97637
0
LINE
8
BLACK
6
CONTINUOUS
10
1.0561
20
1.97637
11
1.0554
21
1.97666
0
LINE
8
BLACK
6
CONTINUOUS
10
1.0554
20
1.97666
11
1.05511
21
1.97736
0
LINE
8
BLACK
6
CONTINUOUS
10
1.05511
20
1.97736
11
1.05511
21
2.10964
0
LINE
8
BLACK
6
CONTINUOUS
10
1.05511
20
2.10964
11
1.0554
21
2.11034
0
LINE
8
BLACK
6
CONTINUOUS
10
1.0554
20
2.11034
11
1.0561
21
2.11063
0
LINE
8
BLACK
6
CONTINUOUS
10
1.0561
20
2.11063
11
1.1309
21
2.11063
0
LINE
8
BLACK
6
CONTINUOUS
10
1.1309
20
2.11063
11
1.13125
21
2.11048
0
LINE
8
BLACK
6
CONTINUOUS
10
1.13125
20
2.11048
11
1.1314
21
2.11084
0
LINE
8
BLACK
6
CONTINUOUS
10
1.1314
20
2.11084
11
1.1321
21
2.11113
0
LINE
8
BLACK
6
CONTINUOUS
10
1.1321
20
2.11113
11
1.2069
21
2.11113
0
LINE
8
BLACK
6
CONTINUOUS
10
1.2069
20
2.11113
11
1.2076
21
2.11084
0
LINE
8
BLACK
6
CONTINUOUS
10
1.2076
20
2.11084
11
1.20789
21
2.11014
0
LINE
8
BLACK
6
CONTINUOUS
10
1.20789
20
2.11014
11
1.20789
21
1.97786
0
LINE
8
BLACK
6
CONTINUOUS
10
1.20789
20
1.97786
11
1.2076
21
1.97716
0
LINE
8
BLACK
6
CONTINUOUS
10
1.2076
20
1.97716
11
1.2069
21
1.97687
0
LINE
8
BLACK
6
CONTINUOUS
10
1.2069
20
1.97687
11
1.1321
21
1.97687
0
LINE
8
BLACK
6
CONTINUOUS
10
1.1321
20
1.97687
11
1.13175
21
1.97702
0
LINE
8
BLACK
6
CONTINUOUS
10
1.05708
20
2.10866
11
1.05708
21
1.97834
0
LINE
8
BLACK
6
CONTINUOUS
10
1.05708
20
1.97834
11
1.12992
21
1.97834
0
LINE
8
BLACK
6
CONTINUOUS
10
1.12992
20
1.97834
11
1.12992
21
2.10866
0
LINE
8
BLACK
6
CONTINUOUS
10
1.12992
20
2.10866
11
1.05708
21
2.10866
0
LINE
8
BLACK
6
CONTINUOUS
10
1.13308
20
2.10916
11
1.13308
21
1.97884
0
LINE
8
BLACK
6
CONTINUOUS
10
1.13308
20
1.97884
11
1.20592
21
1.97884
0
LINE
8
BLACK
6
CONTINUOUS
10
1.20592
20
1.97884
11
1.20592
21
2.10916
0
LINE
8
BLACK
6
CONTINUOUS
10
1.20592
20
2.10916
11
1.13308
21
2.10916
  0
ENDSEC
  0
EOF
