  0
SECTION
  2
HEADER
  9
$ANGBASE
  50
0.0
  9
$ANGDIR
  70
1
  9
$MEASUREMENT
  70
0
  0
ENDSEC
  0
SECTION
  2
TABLES
  0
TABLE
  2
LTYPE
  70
4
  0
LTYPE
  5
40F
  2
CONTINUOUS
  70
0
  3
Solid line
  72
65
  73
0
  40
0.0
  0
LTYPE
  5
410
  2
DASHDOT
 70
0
  3
Dash Dot ____ _ ____ _
 72
65
 73
4
 40
2.0
 49
1.25
 49
-0.25
 49
0.25
 49
-0.25
  0
LTYPE
  5
411
  2
DASHED
 70
0
  3
Dashed __ __ __ __ __
 72
65
 73
2
 40
0.75
 49
0.5
 49
-0.25
  0
LTYPE
  5
43B
  2
DOTTED
 70
0
  3
Dotted .  .  .  .
 72
65
 73
2
 40
0.2
 49
0.0
 49
-0.2
  0
ENDTAB
  0
TABLE
  2
STYLE
  70
4
  0
STYLE
  2
KICAD
  70
0
  40
0
  41
1
  42
1
  50
0
  71
0
  3
isocp.shx
  0
STYLE
  2
KICADB
  70
0
  40
0
  41
1
  42
1
  50
0
  71
0
  3
isocp.shx
  0
STYLE
  2
KICADI
  70
0
  40
0
  41
1
  42
1
  50
15
  71
0
  3
isocp.shx
  0
STYLE
  2
KICADBI
  70
0
  40
0
  41
1
  42
1
  50
15
  71
0
  3
isocp.shx
  0
ENDTAB
  0
TABLE
  2
LAYER
  70
1
  0
LAYER
  2
BLACK
  70
0
  62
7
  6
CONTINUOUS
  0
ENDTAB
  0
ENDSEC
  0
SECTION
  2
ENTITIES
0
LINE
8
BLACK
6
CONTINUOUS
10
0.46269
20
0.102781
11
0.462402
21
0.103477
0
LINE
8
BLACK
6
CONTINUOUS
10
0.462402
20
0.103477
11
0.462402
21
0.320013
0
LINE
8
BLACK
6
CONTINUOUS
10
0.462402
20
0.320013
11
0.46269
21
0.320709
0
LINE
8
BLACK
6
CONTINUOUS
10
0.46269
20
0.320709
11
0.463386
21
0.320997
0
LINE
8
BLACK
6
CONTINUOUS
10
0.463386
20
0.320997
11
1.13661
21
0.320997
0
LINE
8
BLACK
6
CONTINUOUS
10
1.13661
20
0.320997
11
1.13731
21
0.320709
0
LINE
8
BLACK
6
CONTINUOUS
10
1.13731
20
0.320709
11
1.1376
21
0.320013
0
LINE
8
BLACK
6
CONTINUOUS
10
1.1376
20
0.320013
11
1.1376
21
0.103477
0
LINE
8
BLACK
6
CONTINUOUS
10
1.1376
20
0.103477
11
1.13731
21
0.102781
0
LINE
8
BLACK
6
CONTINUOUS
10
1.13731
20
0.102781
11
1.13661
21
0.102493
0
LINE
8
BLACK
6
CONTINUOUS
10
1.13661
20
0.102493
11
0.463386
21
0.102493
0
LINE
8
BLACK
6
CONTINUOUS
10
0.463386
20
0.102493
11
0.46269
21
0.102781
0
LINE
8
BLACK
6
CONTINUOUS
10
0.46437
20
0.319028
11
0.46437
21
0.104461
0
LINE
8
BLACK
6
CONTINUOUS
10
0.46437
20
0.104461
11
1.13563
21
0.104461
0
LINE
8
BLACK
6
CONTINUOUS
10
1.13563
20
0.104461
11
1.13563
21
0.319028
0
LINE
8
BLACK
6
CONTINUOUS
10
1.13563
20
0.319028
11
0.46437
21
0.319028
0
LINE
8
BLACK
6
CONTINUOUS
10
0.140839
20
1.63684
11
0.140551
21
1.63753
0
LINE
8
BLACK
6
CONTINUOUS
10
0.140551
20
1.63753
11
0.140551
21
1.85407
0
LINE
8
BLACK
6
CONTINUOUS
10
0.140551
20
1.85407
11
0.140839
21
1.85476
0
LINE
8
BLACK
6
CONTINUOUS
10
0.140839
20
1.85476
11
0.141535
21
1.85505
0
LINE
8
BLACK
6
CONTINUOUS
10
0.141535
20
1.85505
11
0.814764
21
1.85505
0
LINE
8
BLACK
6
CONTINUOUS
10
0.814764
20
1.85505
11
0.81546
21
1.85476
0
LINE
8
BLACK
6
CONTINUOUS
10
0.81546
20
1.85476
11
0.815748
21
1.85407
0
LINE
8
BLACK
6
CONTINUOUS
10
0.815748
20
1.85407
11
0.815748
21
1.63753
0
LINE
8
BLACK
6
CONTINUOUS
10
0.815748
20
1.63753
11
0.81546
21
1.63684
0
LINE
8
BLACK
6
CONTINUOUS
10
0.81546
20
1.63684
11
0.814764
21
1.63655
0
LINE
8
BLACK
6
CONTINUOUS
10
0.814764
20
1.63655
11
0.141535
21
1.63655
0
LINE
8
BLACK
6
CONTINUOUS
10
0.141535
20
1.63655
11
0.140839
21
1.63684
0
LINE
8
BLACK
6
CONTINUOUS
10
0.14252
20
1.85308
11
0.14252
21
1.63852
0
LINE
8
BLACK
6
CONTINUOUS
10
0.14252
20
1.63852
11
0.81378
21
1.63852
0
LINE
8
BLACK
6
CONTINUOUS
10
0.81378
20
1.63852
11
0.81378
21
1.85308
0
LINE
8
BLACK
6
CONTINUOUS
10
0.81378
20
1.85308
11
0.14252
21
1.85308
0
LINE
8
BLACK
6
CONTINUOUS
10
0.45069
20
2.05504
11
0.450402
21
2.05573
0
LINE
8
BLACK
6
CONTINUOUS
10
0.450402
20
2.05573
11
0.450402
21
2.27227
0
LINE
8
BLACK
6
CONTINUOUS
10
0.450402
20
2.27227
11
0.45069
21
2.27296
0
LINE
8
BLACK
6
CONTINUOUS
10
0.45069
20
2.27296
11
0.451386
21
2.27325
0
LINE
8
BLACK
6
CONTINUOUS
10
0.451386
20
2.27325
11
1.12461
21
2.27325
0
LINE
8
BLACK
6
CONTINUOUS
10
1.12461
20
2.27325
11
1.12531
21
2.27296
0
LINE
8
BLACK
6
CONTINUOUS
10
1.12531
20
2.27296
11
1.1256
21
2.27227
0
LINE
8
BLACK
6
CONTINUOUS
10
1.1256
20
2.27227
11
1.1256
21
2.05573
0
LINE
8
BLACK
6
CONTINUOUS
10
1.1256
20
2.05573
11
1.12531
21
2.05504
0
LINE
8
BLACK
6
CONTINUOUS
10
1.12531
20
2.05504
11
1.12461
21
2.05475
0
LINE
8
BLACK
6
CONTINUOUS
10
1.12461
20
2.05475
11
0.451386
21
2.05475
0
LINE
8
BLACK
6
CONTINUOUS
10
0.451386
20
2.05475
11
0.45069
21
2.05504
0
LINE
8
BLACK
6
CONTINUOUS
10
0.45237
20
2.27128
11
0.45237
21
2.05672
0
LINE
8
BLACK
6
CONTINUOUS
10
0.45237
20
2.05672
11
1.12363
21
2.05672
0
LINE
8
BLACK
6
CONTINUOUS
10
1.12363
20
2.05672
11
1.12363
21
2.27128
0
LINE
8
BLACK
6
CONTINUOUS
10
1.12363
20
2.27128
11
0.45237
21
2.27128
  0
ENDSEC
  0
EOF
