  0
SECTION
  2
HEADER
  9
$ANGBASE
  50
0.0
  9
$ANGDIR
  70
1
  9
$MEASUREMENT
  70
0
  0
ENDSEC
  0
SECTION
  2
TABLES
  0
TABLE
  2
LTYPE
  70
4
  0
LTYPE
  5
40F
  2
CONTINUOUS
  70
0
  3
Solid line
  72
65
  73
0
  40
0.0
  0
LTYPE
  5
410
  2
DASHDOT
 70
0
  3
Dash Dot ____ _ ____ _
 72
65
 73
4
 40
2.0
 49
1.25
 49
-0.25
 49
0.25
 49
-0.25
  0
LTYPE
  5
411
  2
DASHED
 70
0
  3
Dashed __ __ __ __ __
 72
65
 73
2
 40
0.75
 49
0.5
 49
-0.25
  0
LTYPE
  5
43B
  2
DOTTED
 70
0
  3
Dotted .  .  .  .
 72
65
 73
2
 40
0.2
 49
0.0
 49
-0.2
  0
ENDTAB
  0
TABLE
  2
STYLE
  70
4
  0
STYLE
  2
KICAD
  70
0
  40
0
  41
1
  42
1
  50
0
  71
0
  3
isocp.shx
  0
STYLE
  2
KICADB
  70
0
  40
0
  41
1
  42
1
  50
0
  71
0
  3
isocp.shx
  0
STYLE
  2
KICADI
  70
0
  40
0
  41
1
  42
1
  50
15
  71
0
  3
isocp.shx
  0
STYLE
  2
KICADBI
  70
0
  40
0
  41
1
  42
1
  50
15
  71
0
  3
isocp.shx
  0
ENDTAB
  0
TABLE
  2
LAYER
  70
1
  0
LAYER
  2
BLACK
  70
0
  62
7
  6
CONTINUOUS
  0
ENDTAB
  0
ENDSEC
  0
SECTION
  2
ENTITIES
0
LINE
8
BLACK
6
CONTINUOUS
10
0.0300203
20
2.36732
11
0.0310871
21
2.36891
0
LINE
8
BLACK
6
CONTINUOUS
10
0.0310871
20
2.36891
11
0.0326837
21
2.36998
0
LINE
8
BLACK
6
CONTINUOUS
10
0.0326837
20
2.36998
11
0.0345669
21
2.37035
0
LINE
8
BLACK
6
CONTINUOUS
10
0.0345669
20
2.37035
11
1.56543
21
2.37035
0
LINE
8
BLACK
6
CONTINUOUS
10
1.56543
20
2.37035
11
1.56732
21
2.36998
0
LINE
8
BLACK
6
CONTINUOUS
10
1.56732
20
2.36998
11
1.56891
21
2.36891
0
LINE
8
BLACK
6
CONTINUOUS
10
1.56891
20
2.36891
11
1.56998
21
2.36732
0
LINE
8
BLACK
6
CONTINUOUS
10
1.56998
20
2.36732
11
1.57035
21
2.36543
0
LINE
8
BLACK
6
CONTINUOUS
10
1.57035
20
2.36543
11
1.57035
21
0.0345669
0
LINE
8
BLACK
6
CONTINUOUS
10
1.57035
20
0.0345669
11
1.56998
21
0.0326837
0
LINE
8
BLACK
6
CONTINUOUS
10
1.56998
20
0.0326837
11
1.56891
21
0.0310871
0
LINE
8
BLACK
6
CONTINUOUS
10
1.56891
20
0.0310871
11
1.56732
21
0.0300203
0
LINE
8
BLACK
6
CONTINUOUS
10
1.56732
20
0.0300203
11
1.56543
21
0.0296457
0
LINE
8
BLACK
6
CONTINUOUS
10
1.56543
20
0.0296457
11
0.0345669
21
0.0296457
0
LINE
8
BLACK
6
CONTINUOUS
10
0.0345669
20
0.0296457
11
0.0326837
21
0.0300203
0
LINE
8
BLACK
6
CONTINUOUS
10
0.0326837
20
0.0300203
11
0.0310871
21
0.0310871
0
LINE
8
BLACK
6
CONTINUOUS
10
0.0310871
20
0.0310871
11
0.0300203
21
0.0326837
0
LINE
8
BLACK
6
CONTINUOUS
10
0.0300203
20
0.0326837
11
0.0296457
21
0.0345669
0
LINE
8
BLACK
6
CONTINUOUS
10
0.0296457
20
0.0345669
11
0.0296457
21
2.36543
0
LINE
8
BLACK
6
CONTINUOUS
10
0.0296457
20
2.36543
11
0.0300203
21
2.36732
0
LINE
8
BLACK
6
CONTINUOUS
10
1.18134
20
1.29228
11
1.18339
21
1.2832
0
LINE
8
BLACK
6
CONTINUOUS
10
1.18339
20
1.2832
11
1.18351
21
1.28282
0
LINE
8
BLACK
6
CONTINUOUS
10
1.18351
20
1.28282
11
1.18701
21
1.2742
0
LINE
8
BLACK
6
CONTINUOUS
10
1.18701
20
1.2742
11
1.18719
21
1.27384
0
LINE
8
BLACK
6
CONTINUOUS
10
1.18719
20
1.27384
11
1.19205
21
1.2659
0
LINE
8
BLACK
6
CONTINUOUS
10
1.19205
20
1.2659
11
1.19229
21
1.26558
0
LINE
8
BLACK
6
CONTINUOUS
10
1.19229
20
1.26558
11
1.19838
21
1.25855
0
LINE
8
BLACK
6
CONTINUOUS
10
1.19838
20
1.25855
11
1.19867
21
1.25827
0
LINE
8
BLACK
6
CONTINUOUS
10
1.19867
20
1.25827
11
1.20583
21
1.25232
0
LINE
8
BLACK
6
CONTINUOUS
10
1.20583
20
1.25232
11
1.20615
21
1.2521
0
LINE
8
BLACK
6
CONTINUOUS
10
1.20615
20
1.2521
11
1.21419
21
1.2474
0
LINE
8
BLACK
6
CONTINUOUS
10
1.21419
20
1.2474
11
1.21455
21
1.24723
0
LINE
8
BLACK
6
CONTINUOUS
10
1.21455
20
1.24723
11
1.22325
21
1.24391
0
LINE
8
BLACK
6
CONTINUOUS
10
1.22325
20
1.24391
11
1.22363
21
1.2438
0
LINE
8
BLACK
6
CONTINUOUS
10
1.22363
20
1.2438
11
1.23275
21
1.24194
0
LINE
8
BLACK
6
CONTINUOUS
10
1.23275
20
1.24194
11
1.23315
21
1.24189
0
LINE
8
BLACK
6
CONTINUOUS
10
1.23315
20
1.24189
11
1.24245
21
1.24155
0
LINE
8
BLACK
6
CONTINUOUS
10
1.24245
20
1.24155
11
1.24284
21
1.24157
0
LINE
8
BLACK
6
CONTINUOUS
10
1.24284
20
1.24157
11
1.25208
21
1.24275
0
LINE
8
BLACK
6
CONTINUOUS
10
1.25208
20
1.24275
11
1.25247
21
1.24283
0
LINE
8
BLACK
6
CONTINUOUS
10
1.25247
20
1.24283
11
1.26139
21
1.24551
0
LINE
8
BLACK
6
CONTINUOUS
10
1.26139
20
1.24551
11
1.26175
21
1.24565
0
LINE
8
BLACK
6
CONTINUOUS
10
1.26175
20
1.24565
11
1.27011
21
1.24975
0
LINE
8
BLACK
6
CONTINUOUS
10
1.27011
20
1.24975
11
1.27045
21
1.24995
0
LINE
8
BLACK
6
CONTINUOUS
10
1.27045
20
1.24995
11
1.27803
21
1.25536
0
LINE
8
BLACK
6
CONTINUOUS
10
1.27803
20
1.25536
11
1.27834
21
1.25562
0
LINE
8
BLACK
6
CONTINUOUS
10
1.27834
20
1.25562
11
1.28493
21
1.26219
0
LINE
8
BLACK
6
CONTINUOUS
10
1.28493
20
1.26219
11
1.28519
21
1.26249
0
LINE
8
BLACK
6
CONTINUOUS
10
1.28519
20
1.26249
11
1.29062
21
1.27005
0
LINE
8
BLACK
6
CONTINUOUS
10
1.29062
20
1.27005
11
1.29083
21
1.27039
0
LINE
8
BLACK
6
CONTINUOUS
10
1.29083
20
1.27039
11
1.29495
21
1.27874
0
LINE
8
BLACK
6
CONTINUOUS
10
1.29495
20
1.27874
11
1.2951
21
1.2791
0
LINE
8
BLACK
6
CONTINUOUS
10
1.2951
20
1.2791
11
1.2978
21
1.28801
0
LINE
8
BLACK
6
CONTINUOUS
10
1.2978
20
1.28801
11
1.29789
21
1.2884
0
LINE
8
BLACK
6
CONTINUOUS
10
1.29789
20
1.2884
11
1.29911
21
1.2977
0
LINE
8
BLACK
6
CONTINUOUS
10
1.29911
20
1.2977
11
1.29913
21
1.29796
0
LINE
8
BLACK
6
CONTINUOUS
10
1.29913
20
1.29796
11
1.2992
21
1.30059
0
LINE
8
BLACK
6
CONTINUOUS
10
1.2992
20
1.30059
11
1.29919
21
1.30085
0
LINE
8
BLACK
6
CONTINUOUS
10
1.29919
20
1.30085
11
1.29842
21
1.3102
0
LINE
8
BLACK
6
CONTINUOUS
10
1.29842
20
1.3102
11
1.29835
21
1.31059
0
LINE
8
BLACK
6
CONTINUOUS
10
1.29835
20
1.31059
11
1.29609
21
1.31962
0
LINE
8
BLACK
6
CONTINUOUS
10
1.29609
20
1.31962
11
1.29596
21
1.31999
0
LINE
8
BLACK
6
CONTINUOUS
10
1.29596
20
1.31999
11
1.29225
21
1.32853
0
LINE
8
BLACK
6
CONTINUOUS
10
1.29225
20
1.32853
11
1.29206
21
1.32888
0
LINE
8
BLACK
6
CONTINUOUS
10
1.29206
20
1.32888
11
1.287
21
1.3367
0
LINE
8
BLACK
6
CONTINUOUS
10
1.287
20
1.3367
11
1.28676
21
1.33701
0
LINE
8
BLACK
6
CONTINUOUS
10
1.28676
20
1.33701
11
1.28049
21
1.3439
0
LINE
8
BLACK
6
CONTINUOUS
10
1.28049
20
1.3439
11
1.2802
21
1.34417
0
LINE
8
BLACK
6
CONTINUOUS
10
1.2802
20
1.34417
11
1.2729
21
1.34994
0
LINE
8
BLACK
6
CONTINUOUS
10
1.2729
20
1.34994
11
1.27257
21
1.35016
0
LINE
8
BLACK
6
CONTINUOUS
10
1.27257
20
1.35016
11
1.26442
21
1.35466
0
LINE
8
BLACK
6
CONTINUOUS
10
1.26442
20
1.35466
11
1.26406
21
1.35482
0
LINE
8
BLACK
6
CONTINUOUS
10
1.26406
20
1.35482
11
1.25528
21
1.35793
0
LINE
8
BLACK
6
CONTINUOUS
10
1.25528
20
1.35793
11
1.2549
21
1.35803
0
LINE
8
BLACK
6
CONTINUOUS
10
1.2549
20
1.35803
11
1.24573
21
1.35966
0
LINE
8
BLACK
6
CONTINUOUS
10
1.24573
20
1.35966
11
1.24534
21
1.3597
0
LINE
8
BLACK
6
CONTINUOUS
10
1.24534
20
1.3597
11
1.23603
21
1.35981
0
LINE
8
BLACK
6
CONTINUOUS
10
1.23603
20
1.35981
11
1.23563
21
1.35978
0
LINE
8
BLACK
6
CONTINUOUS
10
1.23563
20
1.35978
11
1.22643
21
1.35838
0
LINE
8
BLACK
6
CONTINUOUS
10
1.22643
20
1.35838
11
1.22604
21
1.35828
0
LINE
8
BLACK
6
CONTINUOUS
10
1.22604
20
1.35828
11
1.21719
21
1.35539
0
LINE
8
BLACK
6
CONTINUOUS
10
1.21719
20
1.35539
11
1.21683
21
1.35524
0
LINE
8
BLACK
6
CONTINUOUS
10
1.21683
20
1.35524
11
1.20857
21
1.35094
0
LINE
8
BLACK
6
CONTINUOUS
10
1.20857
20
1.35094
11
1.20824
21
1.35073
0
LINE
8
BLACK
6
CONTINUOUS
10
1.20824
20
1.35073
11
1.20079
21
1.34514
0
LINE
8
BLACK
6
CONTINUOUS
10
1.20079
20
1.34514
11
1.20049
21
1.34488
0
LINE
8
BLACK
6
CONTINUOUS
10
1.20049
20
1.34488
11
1.19406
21
1.33814
0
LINE
8
BLACK
6
CONTINUOUS
10
1.19406
20
1.33814
11
1.19381
21
1.33784
0
LINE
8
BLACK
6
CONTINUOUS
10
1.19381
20
1.33784
11
1.18857
21
1.33015
0
LINE
8
BLACK
6
CONTINUOUS
10
1.18857
20
1.33015
11
1.18837
21
1.3298
0
LINE
8
BLACK
6
CONTINUOUS
10
1.18837
20
1.3298
11
1.18445
21
1.32136
0
LINE
8
BLACK
6
CONTINUOUS
10
1.18445
20
1.32136
11
1.18431
21
1.32098
0
LINE
8
BLACK
6
CONTINUOUS
10
1.18431
20
1.32098
11
1.18183
21
1.31201
0
LINE
8
BLACK
6
CONTINUOUS
10
1.18183
20
1.31201
11
1.18175
21
1.31162
0
LINE
8
BLACK
6
CONTINUOUS
10
1.18175
20
1.31162
11
1.18076
21
1.30237
0
LINE
8
BLACK
6
CONTINUOUS
10
1.18076
20
1.30237
11
1.18075
21
1.30197
0
LINE
8
BLACK
6
CONTINUOUS
10
1.18075
20
1.30197
11
1.18129
21
1.29268
0
LINE
8
BLACK
6
CONTINUOUS
10
1.18129
20
1.29268
11
1.18134
21
1.29228
0
LINE
8
BLACK
6
CONTINUOUS
10
1.24469
20
1.34575
11
1.25282
21
1.34413
0
LINE
8
BLACK
6
CONTINUOUS
10
1.25282
20
1.34413
11
1.26052
21
1.34106
0
LINE
8
BLACK
6
CONTINUOUS
10
1.26052
20
1.34106
11
1.26752
21
1.33664
0
LINE
8
BLACK
6
CONTINUOUS
10
1.26752
20
1.33664
11
1.27361
21
1.33102
0
LINE
8
BLACK
6
CONTINUOUS
10
1.27361
20
1.33102
11
1.27856
21
1.32438
0
LINE
8
BLACK
6
CONTINUOUS
10
1.27856
20
1.32438
11
1.28223
21
1.31695
0
LINE
8
BLACK
6
CONTINUOUS
10
1.28223
20
1.31695
11
1.28448
21
1.30897
0
LINE
8
BLACK
6
CONTINUOUS
10
1.28448
20
1.30897
11
1.28524
21
1.30072
0
LINE
8
BLACK
6
CONTINUOUS
10
1.28524
20
1.30072
11
1.28517
21
1.29835
0
LINE
8
BLACK
6
CONTINUOUS
10
1.28517
20
1.29835
11
1.28399
21
1.29015
0
LINE
8
BLACK
6
CONTINUOUS
10
1.28399
20
1.29015
11
1.28132
21
1.28231
0
LINE
8
BLACK
6
CONTINUOUS
10
1.28132
20
1.28231
11
1.27727
21
1.27508
0
LINE
8
BLACK
6
CONTINUOUS
10
1.27727
20
1.27508
11
1.27198
21
1.26871
0
LINE
8
BLACK
6
CONTINUOUS
10
1.27198
20
1.26871
11
1.2656
21
1.26341
0
LINE
8
BLACK
6
CONTINUOUS
10
1.2656
20
1.26341
11
1.25838
21
1.25936
0
LINE
8
BLACK
6
CONTINUOUS
10
1.25838
20
1.25936
11
1.25053
21
1.2567
0
LINE
8
BLACK
6
CONTINUOUS
10
1.25053
20
1.2567
11
1.24233
21
1.25551
0
LINE
8
BLACK
6
CONTINUOUS
10
1.24233
20
1.25551
11
1.23405
21
1.25583
0
LINE
8
BLACK
6
CONTINUOUS
10
1.23405
20
1.25583
11
1.22597
21
1.25766
0
LINE
8
BLACK
6
CONTINUOUS
10
1.22597
20
1.25766
11
1.21836
21
1.26093
0
LINE
8
BLACK
6
CONTINUOUS
10
1.21836
20
1.26093
11
1.21147
21
1.26554
0
LINE
8
BLACK
6
CONTINUOUS
10
1.21147
20
1.26554
11
1.20553
21
1.27132
0
LINE
8
BLACK
6
CONTINUOUS
10
1.20553
20
1.27132
11
1.20075
21
1.27808
0
LINE
8
BLACK
6
CONTINUOUS
10
1.20075
20
1.27808
11
1.19728
21
1.28561
0
LINE
8
BLACK
6
CONTINUOUS
10
1.19728
20
1.28561
11
1.19524
21
1.29364
0
LINE
8
BLACK
6
CONTINUOUS
10
1.19524
20
1.29364
11
1.1947
21
1.30191
0
LINE
8
BLACK
6
CONTINUOUS
10
1.1947
20
1.30191
11
1.19567
21
1.31013
0
LINE
8
BLACK
6
CONTINUOUS
10
1.19567
20
1.31013
11
1.19813
21
1.31805
0
LINE
8
BLACK
6
CONTINUOUS
10
1.19813
20
1.31805
11
1.20199
21
1.32538
0
LINE
8
BLACK
6
CONTINUOUS
10
1.20199
20
1.32538
11
1.20712
21
1.33189
0
LINE
8
BLACK
6
CONTINUOUS
10
1.20712
20
1.33189
11
1.21335
21
1.33735
0
LINE
8
BLACK
6
CONTINUOUS
10
1.21335
20
1.33735
11
1.22047
21
1.34159
0
LINE
8
BLACK
6
CONTINUOUS
10
1.22047
20
1.34159
11
1.22824
21
1.34445
0
LINE
8
BLACK
6
CONTINUOUS
10
1.22824
20
1.34445
11
1.23641
21
1.34586
0
LINE
8
BLACK
6
CONTINUOUS
10
1.23641
20
1.34586
11
1.24469
21
1.34575
0
CIRCLE
8
BLACK
10
1.063
20
0.28
40
0.011811
0
CIRCLE
8
BLACK
10
1.008
20
0.752
40
0.011811
0
CIRCLE
8
BLACK
10
0.776
20
0.444
40
0.011811
0
CIRCLE
8
BLACK
10
1.027
20
1.512
40
0.011811
0
CIRCLE
8
BLACK
10
1.011
20
1.681
40
0.011811
0
CIRCLE
8
BLACK
10
0.776
20
0.552
40
0.011811
0
CIRCLE
8
BLACK
10
0.863
20
1.912
40
0.011811
0
CIRCLE
8
BLACK
10
0.686
20
0.932
40
0.011811
0
CIRCLE
8
BLACK
10
1.1
20
1.566
40
0.011811
0
CIRCLE
8
BLACK
10
1.386
20
1.492
40
0.011811
0
CIRCLE
8
BLACK
10
0.324
20
0.534
40
0.011811
0
CIRCLE
8
BLACK
10
0.768
20
2.026
40
0.011811
0
CIRCLE
8
BLACK
10
0.643
20
0.969
40
0.011811
0
CIRCLE
8
BLACK
10
0.345
20
1.523
40
0.011811
0
CIRCLE
8
BLACK
10
0.918
20
1.856
40
0.011811
0
CIRCLE
8
BLACK
10
0.677
20
0.485
40
0.011811
0
CIRCLE
8
BLACK
10
0.599
20
1.617
40
0.011811
0
CIRCLE
8
BLACK
10
0.404
20
1.578
40
0.011811
0
CIRCLE
8
BLACK
10
1.118
20
0.234
40
0.011811
0
CIRCLE
8
BLACK
10
0.824
20
0.749
40
0.011811
0
CIRCLE
8
BLACK
10
0.903
20
1.087
40
0.011811
0
CIRCLE
8
BLACK
10
0.663
20
2.022
40
0.011811
0
CIRCLE
8
BLACK
10
0.700828
20
1.14672
40
0.011811
0
CIRCLE
8
BLACK
10
0.811
20
1.362
40
0.011811
0
CIRCLE
8
BLACK
10
0.286
20
0.93
40
0.011811
0
CIRCLE
8
BLACK
10
0.676
20
0.592
40
0.011811
0
CIRCLE
8
BLACK
10
1.089
20
0.987
40
0.011811
0
CIRCLE
8
BLACK
10
0.305
20
1.152
40
0.011811
0
CIRCLE
8
BLACK
10
1.156
20
0.578
40
0.011811
0
CIRCLE
8
BLACK
10
1.399
20
0.883
40
0.011811
0
CIRCLE
8
BLACK
10
0.4
20
0.346
40
0.011811
0
CIRCLE
8
BLACK
10
0.355
20
0.346
40
0.011811
0
CIRCLE
8
BLACK
10
0.82
20
0.382
40
0.011811
0
CIRCLE
8
BLACK
10
0.682
20
1.3
40
0.011811
0
CIRCLE
8
BLACK
10
1.096
20
1.467
40
0.011811
0
CIRCLE
8
BLACK
10
1.155
20
0.468
40
0.011811
0
CIRCLE
8
BLACK
10
0.615
20
1.23
40
0.011811
0
CIRCLE
8
BLACK
10
0.676
20
0.536
40
0.011811
0
CIRCLE
8
BLACK
10
1.094
20
1.246
40
0.011811
0
CIRCLE
8
BLACK
10
0.999
20
0.422
40
0.011811
0
CIRCLE
8
BLACK
10
0.882
20
1.761
40
0.011811
0
CIRCLE
8
BLACK
10
0.806
20
1.151
40
0.011811
0
CIRCLE
8
BLACK
10
0.587
20
1.562
40
0.011811
0
CIRCLE
8
BLACK
10
0.788
20
0.336
40
0.011811
0
CIRCLE
8
BLACK
10
1.368
20
0.786
40
0.011811
0
CIRCLE
8
BLACK
10
0.647
20
1.267
40
0.011811
0
CIRCLE
8
BLACK
10
1.386
20
1.577
40
0.011811
0
CIRCLE
8
BLACK
10
1.381
20
1.645
40
0.011811
0
CIRCLE
8
BLACK
10
0.807
20
1.079
40
0.011811
0
CIRCLE
8
BLACK
10
1.028
20
1.158
40
0.011811
0
CIRCLE
8
BLACK
10
0.851
20
0.849
40
0.011811
0
CIRCLE
8
BLACK
10
1.198
20
0.228
40
0.011811
0
CIRCLE
8
BLACK
10
0.675
20
0.861
40
0.011811
0
CIRCLE
8
BLACK
10
0.926
20
0.412
40
0.011811
0
CIRCLE
8
BLACK
10
1.093
20
1.154
40
0.011811
0
CIRCLE
8
BLACK
10
1.024
20
1.21
40
0.011811
0
CIRCLE
8
BLACK
10
0.364
20
1.092
40
0.011811
0
CIRCLE
8
BLACK
10
0.989
20
1.548
40
0.011811
0
CIRCLE
8
BLACK
10
0.44
20
0.346
40
0.011811
0
CIRCLE
8
BLACK
10
0.677
20
0.422
40
0.011811
0
CIRCLE
8
BLACK
10
0.677
20
1.361
40
0.011811
0
CIRCLE
8
BLACK
10
0.776
20
0.502
40
0.011811
0
CIRCLE
8
BLACK
10
0.288
20
0.368
40
0.011811
0
CIRCLE
8
BLACK
10
0.817
20
1.967
40
0.011811
0
CIRCLE
8
BLACK
10
0.606
20
1.007
40
0.011811
0
CIRCLE
8
BLACK
10
0.804
20
0.84
40
0.011811
0
CIRCLE
8
BLACK
10
0.955
20
1.208
40
0.011811
0
CIRCLE
8
BLACK
10
0.499
20
0.994
40
0.011811
0
CIRCLE
8
BLACK
10
0.5
20
0.939
40
0.011811
0
CIRCLE
8
BLACK
10
0.954
20
1.137
40
0.011811
0
CIRCLE
8
BLACK
10
0.677
20
0.366
40
0.011811
0
CIRCLE
8
BLACK
10
0.832
20
1.804
40
0.011811
0
CIRCLE
8
BLACK
10
0.419
20
1.091
40
0.011811
0
CIRCLE
8
BLACK
10
0.586
20
0.866
40
0.00787402
0
CIRCLE
8
BLACK
10
0.917
20
0.701
40
0.00787402
0
CIRCLE
8
BLACK
10
0.654
20
1.604
40
0.00787402
0
CIRCLE
8
BLACK
10
0.494
20
2.02
40
0.00787402
0
CIRCLE
8
BLACK
10
0.578
20
0.348
40
0.00787402
  0
ENDSEC
  0
EOF
