  0
SECTION
  2
HEADER
  9
$ANGBASE
  50
0.0
  9
$ANGDIR
  70
1
  9
$MEASUREMENT
  70
0
  0
ENDSEC
  0
SECTION
  2
TABLES
  0
TABLE
  2
LTYPE
  70
4
  0
LTYPE
  5
40F
  2
CONTINUOUS
  70
0
  3
Solid line
  72
65
  73
0
  40
0.0
  0
LTYPE
  5
410
  2
DASHDOT
 70
0
  3
Dash Dot ____ _ ____ _
 72
65
 73
4
 40
2.0
 49
1.25
 49
-0.25
 49
0.25
 49
-0.25
  0
LTYPE
  5
411
  2
DASHED
 70
0
  3
Dashed __ __ __ __ __
 72
65
 73
2
 40
0.75
 49
0.5
 49
-0.25
  0
LTYPE
  5
43B
  2
DOTTED
 70
0
  3
Dotted .  .  .  .
 72
65
 73
2
 40
0.2
 49
0.0
 49
-0.2
  0
ENDTAB
  0
TABLE
  2
STYLE
  70
4
  0
STYLE
  2
KICAD
  70
0
  40
0
  41
1
  42
1
  50
0
  71
0
  3
isocp.shx
  0
STYLE
  2
KICADB
  70
0
  40
0
  41
1
  42
1
  50
0
  71
0
  3
isocp.shx
  0
STYLE
  2
KICADI
  70
0
  40
0
  41
1
  42
1
  50
15
  71
0
  3
isocp.shx
  0
STYLE
  2
KICADBI
  70
0
  40
0
  41
1
  42
1
  50
15
  71
0
  3
isocp.shx
  0
ENDTAB
  0
TABLE
  2
LAYER
  70
1
  0
LAYER
  2
BLACK
  70
0
  62
7
  6
CONTINUOUS
  0
ENDTAB
  0
ENDSEC
  0
SECTION
  2
ENTITIES
0
LINE
8
BLACK
6
CONTINUOUS
10
0.0300203
20
2.36732
11
0.0310871
21
2.36891
0
LINE
8
BLACK
6
CONTINUOUS
10
0.0310871
20
2.36891
11
0.0326837
21
2.36998
0
LINE
8
BLACK
6
CONTINUOUS
10
0.0326837
20
2.36998
11
0.0345669
21
2.37035
0
LINE
8
BLACK
6
CONTINUOUS
10
0.0345669
20
2.37035
11
1.56543
21
2.37035
0
LINE
8
BLACK
6
CONTINUOUS
10
1.56543
20
2.37035
11
1.56732
21
2.36998
0
LINE
8
BLACK
6
CONTINUOUS
10
1.56732
20
2.36998
11
1.56891
21
2.36891
0
LINE
8
BLACK
6
CONTINUOUS
10
1.56891
20
2.36891
11
1.56998
21
2.36732
0
LINE
8
BLACK
6
CONTINUOUS
10
1.56998
20
2.36732
11
1.57035
21
2.36543
0
LINE
8
BLACK
6
CONTINUOUS
10
1.57035
20
2.36543
11
1.57035
21
0.0345669
0
LINE
8
BLACK
6
CONTINUOUS
10
1.57035
20
0.0345669
11
1.56998
21
0.0326837
0
LINE
8
BLACK
6
CONTINUOUS
10
1.56998
20
0.0326837
11
1.56891
21
0.0310871
0
LINE
8
BLACK
6
CONTINUOUS
10
1.56891
20
0.0310871
11
1.56732
21
0.0300203
0
LINE
8
BLACK
6
CONTINUOUS
10
1.56732
20
0.0300203
11
1.56543
21
0.0296457
0
LINE
8
BLACK
6
CONTINUOUS
10
1.56543
20
0.0296457
11
0.0345669
21
0.0296457
0
LINE
8
BLACK
6
CONTINUOUS
10
0.0345669
20
0.0296457
11
0.0326837
21
0.0300203
0
LINE
8
BLACK
6
CONTINUOUS
10
0.0326837
20
0.0300203
11
0.0310871
21
0.0310871
0
LINE
8
BLACK
6
CONTINUOUS
10
0.0310871
20
0.0310871
11
0.0300203
21
0.0326837
0
LINE
8
BLACK
6
CONTINUOUS
10
0.0300203
20
0.0326837
11
0.0296457
21
0.0345669
0
LINE
8
BLACK
6
CONTINUOUS
10
0.0296457
20
0.0345669
11
0.0296457
21
2.36543
0
LINE
8
BLACK
6
CONTINUOUS
10
0.0296457
20
2.36543
11
0.0300203
21
2.36732
0
LINE
8
BLACK
6
CONTINUOUS
10
0.551198
20
1.1038
11
0.564737
21
1.09026
0
LINE
8
BLACK
6
CONTINUOUS
10
0.564737
20
1.09026
11
0.565189
21
1.09001
0
LINE
8
BLACK
6
CONTINUOUS
10
0.565189
20
1.09001
11
0.565308
21
1.0901
0
LINE
8
BLACK
6
CONTINUOUS
10
0.565308
20
1.0901
11
0.567526
21
1.09594
0
LINE
8
BLACK
6
CONTINUOUS
10
0.567526
20
1.09594
11
0.567659
21
1.09646
0
LINE
8
BLACK
6
CONTINUOUS
10
0.567659
20
1.09646
11
0.568593
21
1.10311
0
LINE
8
BLACK
6
CONTINUOUS
10
0.568593
20
1.10311
11
0.568616
21
1.10341
0
LINE
8
BLACK
6
CONTINUOUS
10
0.568616
20
1.10341
11
0.568624
21
1.10399
0
LINE
8
BLACK
6
CONTINUOUS
10
0.568624
20
1.10399
11
0.568609
21
1.1043
0
LINE
8
BLACK
6
CONTINUOUS
10
0.568609
20
1.1043
11
0.567862
21
1.11096
0
LINE
8
BLACK
6
CONTINUOUS
10
0.567862
20
1.11096
11
0.567743
21
1.11149
0
LINE
8
BLACK
6
CONTINUOUS
10
0.567743
20
1.11149
11
0.567118
21
1.11328
0
LINE
8
BLACK
6
CONTINUOUS
10
0.567118
20
1.11328
11
0.566852
21
1.11518
0
LINE
8
BLACK
6
CONTINUOUS
10
0.566852
20
1.11518
11
0.567165
21
1.11665
0
LINE
8
BLACK
6
CONTINUOUS
10
0.567165
20
1.11665
11
0.567526
21
1.1176
0
LINE
8
BLACK
6
CONTINUOUS
10
0.567526
20
1.1176
11
0.567659
21
1.11812
0
LINE
8
BLACK
6
CONTINUOUS
10
0.567659
20
1.11812
11
0.568593
21
1.12476
0
LINE
8
BLACK
6
CONTINUOUS
10
0.568593
20
1.12476
11
0.568616
21
1.12506
0
LINE
8
BLACK
6
CONTINUOUS
10
0.568616
20
1.12506
11
0.568624
21
1.12565
0
LINE
8
BLACK
6
CONTINUOUS
10
0.568624
20
1.12565
11
0.568609
21
1.12595
0
LINE
8
BLACK
6
CONTINUOUS
10
0.568609
20
1.12595
11
0.567862
21
1.13261
0
LINE
8
BLACK
6
CONTINUOUS
10
0.567862
20
1.13261
11
0.567743
21
1.13314
0
LINE
8
BLACK
6
CONTINUOUS
10
0.567743
20
1.13314
11
0.567118
21
1.13493
0
LINE
8
BLACK
6
CONTINUOUS
10
0.567118
20
1.13493
11
0.566852
21
1.13684
0
LINE
8
BLACK
6
CONTINUOUS
10
0.566852
20
1.13684
11
0.567165
21
1.1383
0
LINE
8
BLACK
6
CONTINUOUS
10
0.567165
20
1.1383
11
0.567526
21
1.13925
0
LINE
8
BLACK
6
CONTINUOUS
10
0.567526
20
1.13925
11
0.567659
21
1.13977
0
LINE
8
BLACK
6
CONTINUOUS
10
0.567659
20
1.13977
11
0.568593
21
1.14641
0
LINE
8
BLACK
6
CONTINUOUS
10
0.568593
20
1.14641
11
0.568616
21
1.14671
0
LINE
8
BLACK
6
CONTINUOUS
10
0.568616
20
1.14671
11
0.568624
21
1.1473
0
LINE
8
BLACK
6
CONTINUOUS
10
0.568624
20
1.1473
11
0.568609
21
1.1476
0
LINE
8
BLACK
6
CONTINUOUS
10
0.568609
20
1.1476
11
0.567862
21
1.15427
0
LINE
8
BLACK
6
CONTINUOUS
10
0.567862
20
1.15427
11
0.567743
21
1.15479
0
LINE
8
BLACK
6
CONTINUOUS
10
0.567743
20
1.15479
11
0.565577
21
1.16101
0
LINE
8
BLACK
6
CONTINUOUS
10
0.565577
20
1.16101
11
0.565449
21
1.16128
0
LINE
8
BLACK
6
CONTINUOUS
10
0.565449
20
1.16128
11
0.565135
21
1.16156
0
LINE
8
BLACK
6
CONTINUOUS
10
0.565135
20
1.16156
11
0.564815
21
1.16142
0
LINE
8
BLACK
6
CONTINUOUS
10
0.564815
20
1.16142
11
0.551324
21
1.14793
0
LINE
8
BLACK
6
CONTINUOUS
10
0.551324
20
1.14793
11
0.551037
21
1.1474
0
LINE
8
BLACK
6
CONTINUOUS
10
0.551037
20
1.1474
11
0.551041
21
1.14735
0
LINE
8
BLACK
6
CONTINUOUS
10
0.551041
20
1.14735
11
0.551198
21
1.14711
0
LINE
8
BLACK
6
CONTINUOUS
10
0.551198
20
1.14711
11
0.563908
21
1.1344
0
LINE
8
BLACK
6
CONTINUOUS
10
0.563908
20
1.1344
11
0.564975
21
1.1328
0
LINE
8
BLACK
6
CONTINUOUS
10
0.564975
20
1.1328
11
0.565349
21
1.13092
0
LINE
8
BLACK
6
CONTINUOUS
10
0.565349
20
1.13092
11
0.564975
21
1.12903
0
LINE
8
BLACK
6
CONTINUOUS
10
0.564975
20
1.12903
11
0.563908
21
1.12744
0
LINE
8
BLACK
6
CONTINUOUS
10
0.563908
20
1.12744
11
0.562743
21
1.12627
0
LINE
8
BLACK
6
CONTINUOUS
10
0.562743
20
1.12627
11
0.562456
21
1.12575
0
LINE
8
BLACK
6
CONTINUOUS
10
0.562456
20
1.12575
11
0.56246
21
1.1257
0
LINE
8
BLACK
6
CONTINUOUS
10
0.56246
20
1.1257
11
0.562617
21
1.12545
0
LINE
8
BLACK
6
CONTINUOUS
10
0.562617
20
1.12545
11
0.563908
21
1.12416
0
LINE
8
BLACK
6
CONTINUOUS
10
0.563908
20
1.12416
11
0.564975
21
1.12257
0
LINE
8
BLACK
6
CONTINUOUS
10
0.564975
20
1.12257
11
0.565349
21
1.12068
0
LINE
8
BLACK
6
CONTINUOUS
10
0.565349
20
1.12068
11
0.564975
21
1.1188
0
LINE
8
BLACK
6
CONTINUOUS
10
0.564975
20
1.1188
11
0.563908
21
1.1172
0
LINE
8
BLACK
6
CONTINUOUS
10
0.563908
20
1.1172
11
0.551324
21
1.10462
0
LINE
8
BLACK
6
CONTINUOUS
10
0.551324
20
1.10462
11
0.551037
21
1.10409
0
LINE
8
BLACK
6
CONTINUOUS
10
0.551037
20
1.10409
11
0.551041
21
1.10404
0
LINE
8
BLACK
6
CONTINUOUS
10
0.551041
20
1.10404
11
0.551198
21
1.1038
0
CIRCLE
8
BLACK
10
1.063
20
0.28
40
0.011811
0
CIRCLE
8
BLACK
10
1.008
20
0.752
40
0.011811
0
CIRCLE
8
BLACK
10
0.776
20
0.444
40
0.011811
0
CIRCLE
8
BLACK
10
1.027
20
1.512
40
0.011811
0
CIRCLE
8
BLACK
10
1.011
20
1.681
40
0.011811
0
CIRCLE
8
BLACK
10
0.776
20
0.552
40
0.011811
0
CIRCLE
8
BLACK
10
0.863
20
1.912
40
0.011811
0
CIRCLE
8
BLACK
10
0.686
20
0.932
40
0.011811
0
CIRCLE
8
BLACK
10
1.1
20
1.566
40
0.011811
0
CIRCLE
8
BLACK
10
1.386
20
1.492
40
0.011811
0
CIRCLE
8
BLACK
10
0.324
20
0.534
40
0.011811
0
CIRCLE
8
BLACK
10
0.768
20
2.026
40
0.011811
0
CIRCLE
8
BLACK
10
0.643
20
0.969
40
0.011811
0
CIRCLE
8
BLACK
10
0.345
20
1.523
40
0.011811
0
CIRCLE
8
BLACK
10
0.918
20
1.856
40
0.011811
0
CIRCLE
8
BLACK
10
0.677
20
0.485
40
0.011811
0
CIRCLE
8
BLACK
10
0.599
20
1.617
40
0.011811
0
CIRCLE
8
BLACK
10
0.404
20
1.578
40
0.011811
0
CIRCLE
8
BLACK
10
1.118
20
0.234
40
0.011811
0
CIRCLE
8
BLACK
10
0.824
20
0.749
40
0.011811
0
CIRCLE
8
BLACK
10
0.903
20
1.087
40
0.011811
0
CIRCLE
8
BLACK
10
0.663
20
2.022
40
0.011811
0
CIRCLE
8
BLACK
10
0.700828
20
1.14672
40
0.011811
0
CIRCLE
8
BLACK
10
0.811
20
1.362
40
0.011811
0
CIRCLE
8
BLACK
10
0.286
20
0.93
40
0.011811
0
CIRCLE
8
BLACK
10
0.676
20
0.592
40
0.011811
0
CIRCLE
8
BLACK
10
1.089
20
0.987
40
0.011811
0
CIRCLE
8
BLACK
10
0.305
20
1.152
40
0.011811
0
CIRCLE
8
BLACK
10
1.156
20
0.578
40
0.011811
0
CIRCLE
8
BLACK
10
1.399
20
0.883
40
0.011811
0
CIRCLE
8
BLACK
10
0.4
20
0.346
40
0.011811
0
CIRCLE
8
BLACK
10
0.355
20
0.346
40
0.011811
0
CIRCLE
8
BLACK
10
0.82
20
0.382
40
0.011811
0
CIRCLE
8
BLACK
10
0.682
20
1.3
40
0.011811
0
CIRCLE
8
BLACK
10
1.096
20
1.467
40
0.011811
0
CIRCLE
8
BLACK
10
1.155
20
0.468
40
0.011811
0
CIRCLE
8
BLACK
10
0.615
20
1.23
40
0.011811
0
CIRCLE
8
BLACK
10
0.676
20
0.536
40
0.011811
0
CIRCLE
8
BLACK
10
1.094
20
1.246
40
0.011811
0
CIRCLE
8
BLACK
10
0.999
20
0.422
40
0.011811
0
CIRCLE
8
BLACK
10
0.882
20
1.761
40
0.011811
0
CIRCLE
8
BLACK
10
0.806
20
1.151
40
0.011811
0
CIRCLE
8
BLACK
10
0.587
20
1.562
40
0.011811
0
CIRCLE
8
BLACK
10
0.788
20
0.336
40
0.011811
0
CIRCLE
8
BLACK
10
1.368
20
0.786
40
0.011811
0
CIRCLE
8
BLACK
10
0.647
20
1.267
40
0.011811
0
CIRCLE
8
BLACK
10
1.386
20
1.577
40
0.011811
0
CIRCLE
8
BLACK
10
1.381
20
1.645
40
0.011811
0
CIRCLE
8
BLACK
10
0.807
20
1.079
40
0.011811
0
CIRCLE
8
BLACK
10
1.028
20
1.158
40
0.011811
0
CIRCLE
8
BLACK
10
0.851
20
0.849
40
0.011811
0
CIRCLE
8
BLACK
10
1.198
20
0.228
40
0.011811
0
CIRCLE
8
BLACK
10
0.675
20
0.861
40
0.011811
0
CIRCLE
8
BLACK
10
0.926
20
0.412
40
0.011811
0
CIRCLE
8
BLACK
10
1.093
20
1.154
40
0.011811
0
CIRCLE
8
BLACK
10
1.024
20
1.21
40
0.011811
0
CIRCLE
8
BLACK
10
0.364
20
1.092
40
0.011811
0
CIRCLE
8
BLACK
10
0.989
20
1.548
40
0.011811
0
CIRCLE
8
BLACK
10
0.44
20
0.346
40
0.011811
0
CIRCLE
8
BLACK
10
0.677
20
0.422
40
0.011811
0
CIRCLE
8
BLACK
10
0.677
20
1.361
40
0.011811
0
CIRCLE
8
BLACK
10
0.776
20
0.502
40
0.011811
0
CIRCLE
8
BLACK
10
0.288
20
0.368
40
0.011811
0
CIRCLE
8
BLACK
10
0.817
20
1.967
40
0.011811
0
CIRCLE
8
BLACK
10
0.606
20
1.007
40
0.011811
0
CIRCLE
8
BLACK
10
0.804
20
0.84
40
0.011811
0
CIRCLE
8
BLACK
10
0.955
20
1.208
40
0.011811
0
CIRCLE
8
BLACK
10
0.499
20
0.994
40
0.011811
0
CIRCLE
8
BLACK
10
0.5
20
0.939
40
0.011811
0
CIRCLE
8
BLACK
10
0.954
20
1.137
40
0.011811
0
CIRCLE
8
BLACK
10
0.677
20
0.366
40
0.011811
0
CIRCLE
8
BLACK
10
0.832
20
1.804
40
0.011811
0
CIRCLE
8
BLACK
10
0.419
20
1.091
40
0.011811
0
CIRCLE
8
BLACK
10
0.586
20
0.866
40
0.00787402
0
CIRCLE
8
BLACK
10
0.917
20
0.701
40
0.00787402
0
CIRCLE
8
BLACK
10
0.654
20
1.604
40
0.00787402
0
CIRCLE
8
BLACK
10
0.494
20
2.02
40
0.00787402
0
CIRCLE
8
BLACK
10
0.578
20
0.348
40
0.00787402
  0
ENDSEC
  0
EOF
