  0
SECTION
  2
HEADER
  9
$ANGBASE
  50
0.0
  9
$ANGDIR
  70
1
  9
$MEASUREMENT
  70
0
  0
ENDSEC
  0
SECTION
  2
TABLES
  0
TABLE
  2
LTYPE
  70
4
  0
LTYPE
  5
40F
  2
CONTINUOUS
  70
0
  3
Solid line
  72
65
  73
0
  40
0.0
  0
LTYPE
  5
410
  2
DASHDOT
 70
0
  3
Dash Dot ____ _ ____ _
 72
65
 73
4
 40
2.0
 49
1.25
 49
-0.25
 49
0.25
 49
-0.25
  0
LTYPE
  5
411
  2
DASHED
 70
0
  3
Dashed __ __ __ __ __
 72
65
 73
2
 40
0.75
 49
0.5
 49
-0.25
  0
LTYPE
  5
43B
  2
DOTTED
 70
0
  3
Dotted .  .  .  .
 72
65
 73
2
 40
0.2
 49
0.0
 49
-0.2
  0
ENDTAB
  0
TABLE
  2
STYLE
  70
4
  0
STYLE
  2
KICAD
  70
0
  40
0
  41
1
  42
1
  50
0
  71
0
  3
isocp.shx
  0
STYLE
  2
KICADB
  70
0
  40
0
  41
1
  42
1
  50
0
  71
0
  3
isocp.shx
  0
STYLE
  2
KICADI
  70
0
  40
0
  41
1
  42
1
  50
15
  71
0
  3
isocp.shx
  0
STYLE
  2
KICADBI
  70
0
  40
0
  41
1
  42
1
  50
15
  71
0
  3
isocp.shx
  0
ENDTAB
  0
TABLE
  2
LAYER
  70
1
  0
LAYER
  2
BLACK
  70
0
  62
7
  6
CONTINUOUS
  0
ENDTAB
  0
ENDSEC
  0
SECTION
  2
ENTITIES
0
LINE
8
BLACK
6
CONTINUOUS
10
0.214917
20
0.320898
11
0.228769
21
0.318456
0
LINE
8
BLACK
6
CONTINUOUS
10
0.228769
20
0.318456
11
0.242262
21
0.314484
0
LINE
8
BLACK
6
CONTINUOUS
10
0.242262
20
0.314484
11
0.255228
21
0.309034
0
LINE
8
BLACK
6
CONTINUOUS
10
0.255228
20
0.309034
11
0.267506
21
0.302172
0
LINE
8
BLACK
6
CONTINUOUS
10
0.267506
20
0.302172
11
0.278942
21
0.293984
0
LINE
8
BLACK
6
CONTINUOUS
10
0.278942
20
0.293984
11
0.289395
21
0.284573
0
LINE
8
BLACK
6
CONTINUOUS
10
0.289395
20
0.284573
11
0.298733
21
0.274055
0
LINE
8
BLACK
6
CONTINUOUS
10
0.298733
20
0.274055
11
0.306841
21
0.262561
0
LINE
8
BLACK
6
CONTINUOUS
10
0.306841
20
0.262561
11
0.313617
21
0.250236
0
LINE
8
BLACK
6
CONTINUOUS
10
0.313617
20
0.250236
11
0.318977
21
0.237232
0
LINE
8
BLACK
6
CONTINUOUS
10
0.318977
20
0.237232
11
0.322853
21
0.223712
0
LINE
8
BLACK
6
CONTINUOUS
10
0.322853
20
0.223712
11
0.325199
21
0.209843
0
LINE
8
BLACK
6
CONTINUOUS
10
0.325199
20
0.209843
11
0.325984
21
0.1958
0
LINE
8
BLACK
6
CONTINUOUS
10
0.325984
20
0.1958
11
0.325935
21
0.192282
0
LINE
8
BLACK
6
CONTINUOUS
10
0.325935
20
0.192282
11
0.324758
21
0.178266
0
LINE
8
BLACK
6
CONTINUOUS
10
0.324758
20
0.178266
11
0.322026
21
0.164469
0
LINE
8
BLACK
6
CONTINUOUS
10
0.322026
20
0.164469
11
0.317773
21
0.151062
0
LINE
8
BLACK
6
CONTINUOUS
10
0.317773
20
0.151062
11
0.312052
21
0.138213
0
LINE
8
BLACK
6
CONTINUOUS
10
0.312052
20
0.138213
11
0.304935
21
0.126081
0
LINE
8
BLACK
6
CONTINUOUS
10
0.304935
20
0.126081
11
0.29651
21
0.114819
0
LINE
8
BLACK
6
CONTINUOUS
10
0.29651
20
0.114819
11
0.286881
21
0.104566
0
LINE
8
BLACK
6
CONTINUOUS
10
0.286881
20
0.104566
11
0.27617
21
0.0954498
0
LINE
8
BLACK
6
CONTINUOUS
10
0.27617
20
0.0954498
11
0.264509
21
0.0875846
0
LINE
8
BLACK
6
CONTINUOUS
10
0.264509
20
0.0875846
11
0.252045
21
0.0810682
0
LINE
8
BLACK
6
CONTINUOUS
10
0.252045
20
0.0810682
11
0.238931
21
0.0759819
0
LINE
8
BLACK
6
CONTINUOUS
10
0.238931
20
0.0759819
11
0.225333
21
0.0723889
0
LINE
8
BLACK
6
CONTINUOUS
10
0.225333
20
0.0723889
11
0.211418
21
0.0703343
0
LINE
8
BLACK
6
CONTINUOUS
10
0.211418
20
0.0703343
11
0.197362
21
0.0698434
0
LINE
8
BLACK
6
CONTINUOUS
10
0.197362
20
0.0698434
11
0.183338
21
0.0709224
0
LINE
8
BLACK
6
CONTINUOUS
10
0.183338
20
0.0709224
11
0.169522
21
0.073558
0
LINE
8
BLACK
6
CONTINUOUS
10
0.169522
20
0.073558
11
0.156085
21
0.0777172
0
LINE
8
BLACK
6
CONTINUOUS
10
0.156085
20
0.0777172
11
0.143197
21
0.0833482
0
LINE
8
BLACK
6
CONTINUOUS
10
0.143197
20
0.0833482
11
0.131016
21
0.0903809
0
LINE
8
BLACK
6
CONTINUOUS
10
0.131016
20
0.0903809
11
0.119695
21
0.0987275
0
LINE
8
BLACK
6
CONTINUOUS
10
0.119695
20
0.0987275
11
0.109375
21
0.108284
0
LINE
8
BLACK
6
CONTINUOUS
10
0.109375
20
0.108284
11
0.100184
21
0.118931
0
LINE
8
BLACK
6
CONTINUOUS
10
0.100184
20
0.118931
11
0.0922376
21
0.130537
0
LINE
8
BLACK
6
CONTINUOUS
10
0.0922376
20
0.130537
11
0.0856343
21
0.142956
0
LINE
8
BLACK
6
CONTINUOUS
10
0.0856343
20
0.142956
11
0.0804566
21
0.156033
0
LINE
8
BLACK
6
CONTINUOUS
10
0.0804566
20
0.156033
11
0.0767688
21
0.169606
0
LINE
8
BLACK
6
CONTINUOUS
10
0.0767688
20
0.169606
11
0.074617
21
0.183506
0
LINE
8
BLACK
6
CONTINUOUS
10
0.074617
20
0.183506
11
0.074028
21
0.197559
0
LINE
8
BLACK
6
CONTINUOUS
10
0.074028
20
0.197559
11
0.0750092
21
0.21159
0
LINE
8
BLACK
6
CONTINUOUS
10
0.0750092
20
0.21159
11
0.0775482
21
0.225424
0
LINE
8
BLACK
6
CONTINUOUS
10
0.0775482
20
0.225424
11
0.0816135
21
0.238889
0
LINE
8
BLACK
6
CONTINUOUS
10
0.0816135
20
0.238889
11
0.0871544
21
0.251817
0
LINE
8
BLACK
6
CONTINUOUS
10
0.0871544
20
0.251817
11
0.0941019
21
0.264047
0
LINE
8
BLACK
6
CONTINUOUS
10
0.0941019
20
0.264047
11
0.102369
21
0.275426
0
LINE
8
BLACK
6
CONTINUOUS
10
0.102369
20
0.275426
11
0.111853
21
0.285812
0
LINE
8
BLACK
6
CONTINUOUS
10
0.111853
20
0.285812
11
0.122436
21
0.295077
0
LINE
8
BLACK
6
CONTINUOUS
10
0.122436
20
0.295077
11
0.133986
21
0.303104
0
LINE
8
BLACK
6
CONTINUOUS
10
0.133986
20
0.303104
11
0.146359
21
0.309794
0
LINE
8
BLACK
6
CONTINUOUS
10
0.146359
20
0.309794
11
0.1594
21
0.315063
0
LINE
8
BLACK
6
CONTINUOUS
10
0.1594
20
0.315063
11
0.172947
21
0.318845
0
LINE
8
BLACK
6
CONTINUOUS
10
0.172947
20
0.318845
11
0.186831
21
0.321094
0
LINE
8
BLACK
6
CONTINUOUS
10
0.186831
20
0.321094
11
0.20088
21
0.321781
0
LINE
8
BLACK
6
CONTINUOUS
10
0.20088
20
0.321781
11
0.214917
21
0.320898
0
LINE
8
BLACK
6
CONTINUOUS
10
1.41492
20
0.325098
11
1.42877
21
0.322656
0
LINE
8
BLACK
6
CONTINUOUS
10
1.42877
20
0.322656
11
1.44226
21
0.318684
0
LINE
8
BLACK
6
CONTINUOUS
10
1.44226
20
0.318684
11
1.45523
21
0.313234
0
LINE
8
BLACK
6
CONTINUOUS
10
1.45523
20
0.313234
11
1.46751
21
0.306372
0
LINE
8
BLACK
6
CONTINUOUS
10
1.46751
20
0.306372
11
1.47894
21
0.298184
0
LINE
8
BLACK
6
CONTINUOUS
10
1.47894
20
0.298184
11
1.48939
21
0.288773
0
LINE
8
BLACK
6
CONTINUOUS
10
1.48939
20
0.288773
11
1.49873
21
0.278255
0
LINE
8
BLACK
6
CONTINUOUS
10
1.49873
20
0.278255
11
1.50684
21
0.266761
0
LINE
8
BLACK
6
CONTINUOUS
10
1.50684
20
0.266761
11
1.51362
21
0.254436
0
LINE
8
BLACK
6
CONTINUOUS
10
1.51362
20
0.254436
11
1.51898
21
0.241432
0
LINE
8
BLACK
6
CONTINUOUS
10
1.51898
20
0.241432
11
1.52285
21
0.227912
0
LINE
8
BLACK
6
CONTINUOUS
10
1.52285
20
0.227912
11
1.5252
21
0.214043
0
LINE
8
BLACK
6
CONTINUOUS
10
1.5252
20
0.214043
11
1.52598
21
0.2
0
LINE
8
BLACK
6
CONTINUOUS
10
1.52598
20
0.2
11
1.52594
21
0.196482
0
LINE
8
BLACK
6
CONTINUOUS
10
1.52594
20
0.196482
11
1.52476
21
0.182466
0
LINE
8
BLACK
6
CONTINUOUS
10
1.52476
20
0.182466
11
1.52203
21
0.168669
0
LINE
8
BLACK
6
CONTINUOUS
10
1.52203
20
0.168669
11
1.51777
21
0.155262
0
LINE
8
BLACK
6
CONTINUOUS
10
1.51777
20
0.155262
11
1.51205
21
0.142413
0
LINE
8
BLACK
6
CONTINUOUS
10
1.51205
20
0.142413
11
1.50493
21
0.130281
0
LINE
8
BLACK
6
CONTINUOUS
10
1.50493
20
0.130281
11
1.49651
21
0.119019
0
LINE
8
BLACK
6
CONTINUOUS
10
1.49651
20
0.119019
11
1.48688
21
0.108766
0
LINE
8
BLACK
6
CONTINUOUS
10
1.48688
20
0.108766
11
1.47617
21
0.0996498
0
LINE
8
BLACK
6
CONTINUOUS
10
1.47617
20
0.0996498
11
1.46451
21
0.0917846
0
LINE
8
BLACK
6
CONTINUOUS
10
1.46451
20
0.0917846
11
1.45204
21
0.0852682
0
LINE
8
BLACK
6
CONTINUOUS
10
1.45204
20
0.0852682
11
1.43893
21
0.0801819
0
LINE
8
BLACK
6
CONTINUOUS
10
1.43893
20
0.0801819
11
1.42533
21
0.0765889
0
LINE
8
BLACK
6
CONTINUOUS
10
1.42533
20
0.0765889
11
1.41142
21
0.0745343
0
LINE
8
BLACK
6
CONTINUOUS
10
1.41142
20
0.0745343
11
1.39736
21
0.0740434
0
LINE
8
BLACK
6
CONTINUOUS
10
1.39736
20
0.0740434
11
1.38334
21
0.0751224
0
LINE
8
BLACK
6
CONTINUOUS
10
1.38334
20
0.0751224
11
1.36952
21
0.077758
0
LINE
8
BLACK
6
CONTINUOUS
10
1.36952
20
0.077758
11
1.35609
21
0.0819172
0
LINE
8
BLACK
6
CONTINUOUS
10
1.35609
20
0.0819172
11
1.3432
21
0.0875482
0
LINE
8
BLACK
6
CONTINUOUS
10
1.3432
20
0.0875482
11
1.33102
21
0.0945809
0
LINE
8
BLACK
6
CONTINUOUS
10
1.33102
20
0.0945809
11
1.31969
21
0.102927
0
LINE
8
BLACK
6
CONTINUOUS
10
1.31969
20
0.102927
11
1.30937
21
0.112484
0
LINE
8
BLACK
6
CONTINUOUS
10
1.30937
20
0.112484
11
1.30018
21
0.123131
0
LINE
8
BLACK
6
CONTINUOUS
10
1.30018
20
0.123131
11
1.29224
21
0.134737
0
LINE
8
BLACK
6
CONTINUOUS
10
1.29224
20
0.134737
11
1.28563
21
0.147156
0
LINE
8
BLACK
6
CONTINUOUS
10
1.28563
20
0.147156
11
1.28046
21
0.160233
0
LINE
8
BLACK
6
CONTINUOUS
10
1.28046
20
0.160233
11
1.27677
21
0.173806
0
LINE
8
BLACK
6
CONTINUOUS
10
1.27677
20
0.173806
11
1.27462
21
0.187706
0
LINE
8
BLACK
6
CONTINUOUS
10
1.27462
20
0.187706
11
1.27403
21
0.201759
0
LINE
8
BLACK
6
CONTINUOUS
10
1.27403
20
0.201759
11
1.27501
21
0.21579
0
LINE
8
BLACK
6
CONTINUOUS
10
1.27501
20
0.21579
11
1.27755
21
0.229624
0
LINE
8
BLACK
6
CONTINUOUS
10
1.27755
20
0.229624
11
1.28161
21
0.243089
0
LINE
8
BLACK
6
CONTINUOUS
10
1.28161
20
0.243089
11
1.28715
21
0.256017
0
LINE
8
BLACK
6
CONTINUOUS
10
1.28715
20
0.256017
11
1.2941
21
0.268247
0
LINE
8
BLACK
6
CONTINUOUS
10
1.2941
20
0.268247
11
1.30237
21
0.279626
0
LINE
8
BLACK
6
CONTINUOUS
10
1.30237
20
0.279626
11
1.31185
21
0.290012
0
LINE
8
BLACK
6
CONTINUOUS
10
1.31185
20
0.290012
11
1.32244
21
0.299277
0
LINE
8
BLACK
6
CONTINUOUS
10
1.32244
20
0.299277
11
1.33399
21
0.307304
0
LINE
8
BLACK
6
CONTINUOUS
10
1.33399
20
0.307304
11
1.34636
21
0.313994
0
LINE
8
BLACK
6
CONTINUOUS
10
1.34636
20
0.313994
11
1.3594
21
0.319263
0
LINE
8
BLACK
6
CONTINUOUS
10
1.3594
20
0.319263
11
1.37295
21
0.323045
0
LINE
8
BLACK
6
CONTINUOUS
10
1.37295
20
0.323045
11
1.38683
21
0.325294
0
LINE
8
BLACK
6
CONTINUOUS
10
1.38683
20
0.325294
11
1.40088
21
0.325981
0
LINE
8
BLACK
6
CONTINUOUS
10
1.40088
20
0.325981
11
1.41492
21
0.325098
0
LINE
8
BLACK
6
CONTINUOUS
10
1.06364
20
0.229208
11
1.07285
21
0.227567
0
LINE
8
BLACK
6
CONTINUOUS
10
1.07285
20
0.227567
11
1.08167
21
0.224445
0
LINE
8
BLACK
6
CONTINUOUS
10
1.08167
20
0.224445
11
1.08986
21
0.219923
0
LINE
8
BLACK
6
CONTINUOUS
10
1.08986
20
0.219923
11
1.0972
21
0.214125
0
LINE
8
BLACK
6
CONTINUOUS
10
1.0972
20
0.214125
11
1.1035
21
0.207206
0
LINE
8
BLACK
6
CONTINUOUS
10
1.1035
20
0.207206
11
1.10858
21
0.199351
0
LINE
8
BLACK
6
CONTINUOUS
10
1.10858
20
0.199351
11
1.11231
21
0.190772
0
LINE
8
BLACK
6
CONTINUOUS
10
1.11231
20
0.190772
11
1.11459
21
0.181699
0
LINE
8
BLACK
6
CONTINUOUS
10
1.11459
20
0.181699
11
1.11535
21
0.172375
0
LINE
8
BLACK
6
CONTINUOUS
10
1.11535
20
0.172375
11
1.11529
21
0.169586
0
LINE
8
BLACK
6
CONTINUOUS
10
1.11529
20
0.169586
11
1.11407
21
0.160311
0
LINE
8
BLACK
6
CONTINUOUS
10
1.11407
20
0.160311
11
1.11135
21
0.15136
0
LINE
8
BLACK
6
CONTINUOUS
10
1.11135
20
0.15136
11
1.1072
21
0.142973
0
LINE
8
BLACK
6
CONTINUOUS
10
1.1072
20
0.142973
11
1.10174
21
0.135376
0
LINE
8
BLACK
6
CONTINUOUS
10
1.10174
20
0.135376
11
1.09511
21
0.128772
0
LINE
8
BLACK
6
CONTINUOUS
10
1.09511
20
0.128772
11
1.0875
21
0.12334
0
LINE
8
BLACK
6
CONTINUOUS
10
1.0875
20
0.12334
11
1.0791
21
0.119224
0
LINE
8
BLACK
6
CONTINUOUS
10
1.0791
20
0.119224
11
1.07014
21
0.116536
0
LINE
8
BLACK
6
CONTINUOUS
10
1.07014
20
0.116536
11
1.06086
21
0.115347
0
LINE
8
BLACK
6
CONTINUOUS
10
1.06086
20
0.115347
11
1.05151
21
0.11569
0
LINE
8
BLACK
6
CONTINUOUS
10
1.05151
20
0.11569
11
1.04234
21
0.117555
0
LINE
8
BLACK
6
CONTINUOUS
10
1.04234
20
0.117555
11
1.0336
21
0.120892
0
LINE
8
BLACK
6
CONTINUOUS
10
1.0336
20
0.120892
11
1.02552
21
0.125612
0
LINE
8
BLACK
6
CONTINUOUS
10
1.02552
20
0.125612
11
1.01833
21
0.131588
0
LINE
8
BLACK
6
CONTINUOUS
10
1.01833
20
0.131588
11
1.0122
21
0.138659
0
LINE
8
BLACK
6
CONTINUOUS
10
1.0122
20
0.138659
11
1.00731
21
0.146636
0
LINE
8
BLACK
6
CONTINUOUS
10
1.00731
20
0.146636
11
1.00379
21
0.155304
0
LINE
8
BLACK
6
CONTINUOUS
10
1.00379
20
0.155304
11
1.00174
21
0.16443
0
LINE
8
BLACK
6
CONTINUOUS
10
1.00174
20
0.16443
11
1.0012
21
0.17377
0
LINE
8
BLACK
6
CONTINUOUS
10
1.0012
20
0.17377
11
1.00219
21
0.183072
0
LINE
8
BLACK
6
CONTINUOUS
10
1.00219
20
0.183072
11
1.00469
21
0.192087
0
LINE
8
BLACK
6
CONTINUOUS
10
1.00469
20
0.192087
11
1.00863
21
0.200572
0
LINE
8
BLACK
6
CONTINUOUS
10
1.00863
20
0.200572
11
1.0139
21
0.208301
0
LINE
8
BLACK
6
CONTINUOUS
10
1.0139
20
0.208301
11
1.02037
21
0.215064
0
LINE
8
BLACK
6
CONTINUOUS
10
1.02037
20
0.215064
11
1.02785
21
0.220681
0
LINE
8
BLACK
6
CONTINUOUS
10
1.02785
20
0.220681
11
1.03615
21
0.225001
0
LINE
8
BLACK
6
CONTINUOUS
10
1.03615
20
0.225001
11
1.04504
21
0.227907
0
LINE
8
BLACK
6
CONTINUOUS
10
1.04504
20
0.227907
11
1.05429
21
0.229322
0
LINE
8
BLACK
6
CONTINUOUS
10
1.05429
20
0.229322
11
1.06364
21
0.229208
0
LINE
8
BLACK
6
CONTINUOUS
10
0.558522
20
0.268578
11
0.567732
21
0.266938
0
LINE
8
BLACK
6
CONTINUOUS
10
0.567732
20
0.266938
11
0.576551
21
0.263815
0
LINE
8
BLACK
6
CONTINUOUS
10
0.576551
20
0.263815
11
0.584741
21
0.259294
0
LINE
8
BLACK
6
CONTINUOUS
10
0.584741
20
0.259294
11
0.592083
21
0.253495
0
LINE
8
BLACK
6
CONTINUOUS
10
0.592083
20
0.253495
11
0.598379
21
0.246576
0
LINE
8
BLACK
6
CONTINUOUS
10
0.598379
20
0.246576
11
0.60346
21
0.238721
0
LINE
8
BLACK
6
CONTINUOUS
10
0.60346
20
0.238721
11
0.607191
21
0.230142
0
LINE
8
BLACK
6
CONTINUOUS
10
0.607191
20
0.230142
11
0.60947
21
0.221069
0
LINE
8
BLACK
6
CONTINUOUS
10
0.60947
20
0.221069
11
0.610236
21
0.211745
0
LINE
8
BLACK
6
CONTINUOUS
10
0.610236
20
0.211745
11
0.610168
21
0.208956
0
LINE
8
BLACK
6
CONTINUOUS
10
0.610168
20
0.208956
11
0.608947
21
0.199681
0
LINE
8
BLACK
6
CONTINUOUS
10
0.608947
20
0.199681
11
0.606227
21
0.19073
0
LINE
8
BLACK
6
CONTINUOUS
10
0.606227
20
0.19073
11
0.602082
21
0.182343
0
LINE
8
BLACK
6
CONTINUOUS
10
0.602082
20
0.182343
11
0.596623
21
0.174746
0
LINE
8
BLACK
6
CONTINUOUS
10
0.596623
20
0.174746
11
0.589997
21
0.168142
0
LINE
8
BLACK
6
CONTINUOUS
10
0.589997
20
0.168142
11
0.58238
21
0.16271
0
LINE
8
BLACK
6
CONTINUOUS
10
0.58238
20
0.16271
11
0.573979
21
0.158594
0
LINE
8
BLACK
6
CONTINUOUS
10
0.573979
20
0.158594
11
0.565019
21
0.155906
0
LINE
8
BLACK
6
CONTINUOUS
10
0.565019
20
0.155906
11
0.555739
21
0.154717
0
LINE
8
BLACK
6
CONTINUOUS
10
0.555739
20
0.154717
11
0.54639
21
0.15506
0
LINE
8
BLACK
6
CONTINUOUS
10
0.54639
20
0.15506
11
0.537223
21
0.156925
0
LINE
8
BLACK
6
CONTINUOUS
10
0.537223
20
0.156925
11
0.528483
21
0.160262
0
LINE
8
BLACK
6
CONTINUOUS
10
0.528483
20
0.160262
11
0.520406
21
0.164982
0
LINE
8
BLACK
6
CONTINUOUS
10
0.520406
20
0.164982
11
0.513208
21
0.170958
0
LINE
8
BLACK
6
CONTINUOUS
10
0.513208
20
0.170958
11
0.507083
21
0.178029
0
LINE
8
BLACK
6
CONTINUOUS
10
0.507083
20
0.178029
11
0.502195
21
0.186006
0
LINE
8
BLACK
6
CONTINUOUS
10
0.502195
20
0.186006
11
0.498675
21
0.194674
0
LINE
8
BLACK
6
CONTINUOUS
10
0.498675
20
0.194674
11
0.496619
21
0.2038
0
LINE
8
BLACK
6
CONTINUOUS
10
0.496619
20
0.2038
11
0.49608
21
0.21314
0
LINE
8
BLACK
6
CONTINUOUS
10
0.49608
20
0.21314
11
0.497074
21
0.222442
0
LINE
8
BLACK
6
CONTINUOUS
10
0.497074
20
0.222442
11
0.499574
21
0.231457
0
LINE
8
BLACK
6
CONTINUOUS
10
0.499574
20
0.231457
11
0.503513
21
0.239942
0
LINE
8
BLACK
6
CONTINUOUS
10
0.503513
20
0.239942
11
0.508785
21
0.247671
0
LINE
8
BLACK
6
CONTINUOUS
10
0.508785
20
0.247671
11
0.515248
21
0.254434
0
LINE
8
BLACK
6
CONTINUOUS
10
0.515248
20
0.254434
11
0.522729
21
0.260051
0
LINE
8
BLACK
6
CONTINUOUS
10
0.522729
20
0.260051
11
0.531028
21
0.264371
0
LINE
8
BLACK
6
CONTINUOUS
10
0.531028
20
0.264371
11
0.53992
21
0.267277
0
LINE
8
BLACK
6
CONTINUOUS
10
0.53992
20
0.267277
11
0.549167
21
0.268692
0
LINE
8
BLACK
6
CONTINUOUS
10
0.549167
20
0.268692
11
0.558522
21
0.268578
0
LINE
8
BLACK
6
CONTINUOUS
10
0.755229
20
0.244743
11
0.761774
21
0.24276
0
LINE
8
BLACK
6
CONTINUOUS
10
0.761774
20
0.24276
11
0.767688
21
0.239326
0
LINE
8
BLACK
6
CONTINUOUS
10
0.767688
20
0.239326
11
0.772653
21
0.234622
0
LINE
8
BLACK
6
CONTINUOUS
10
0.772653
20
0.234622
11
0.776402
21
0.228903
0
LINE
8
BLACK
6
CONTINUOUS
10
0.776402
20
0.228903
11
0.778736
21
0.222475
0
LINE
8
BLACK
6
CONTINUOUS
10
0.778736
20
0.222475
11
0.779528
21
0.215682
0
LINE
8
BLACK
6
CONTINUOUS
10
0.779528
20
0.215682
11
0.779528
21
0.207808
0
LINE
8
BLACK
6
CONTINUOUS
10
0.779528
20
0.207808
11
0.779301
21
0.204158
0
LINE
8
BLACK
6
CONTINUOUS
10
0.779301
20
0.204158
11
0.777676
21
0.197515
0
LINE
8
BLACK
6
CONTINUOUS
10
0.777676
20
0.197515
11
0.774566
21
0.191425
0
LINE
8
BLACK
6
CONTINUOUS
10
0.774566
20
0.191425
11
0.770138
21
0.186213
0
LINE
8
BLACK
6
CONTINUOUS
10
0.770138
20
0.186213
11
0.76463
21
0.182159
0
LINE
8
BLACK
6
CONTINUOUS
10
0.76463
20
0.182159
11
0.758337
21
0.179482
0
LINE
8
BLACK
6
CONTINUOUS
10
0.758337
20
0.179482
11
0.751597
21
0.178324
0
LINE
8
BLACK
6
CONTINUOUS
10
0.751597
20
0.178324
11
0.744771
21
0.178747
0
LINE
8
BLACK
6
CONTINUOUS
10
0.744771
20
0.178747
11
0.738226
21
0.180729
0
LINE
8
BLACK
6
CONTINUOUS
10
0.738226
20
0.180729
11
0.732312
21
0.184164
0
LINE
8
BLACK
6
CONTINUOUS
10
0.732312
20
0.184164
11
0.727347
21
0.188867
0
LINE
8
BLACK
6
CONTINUOUS
10
0.727347
20
0.188867
11
0.72505
21
0.192372
0
LINE
8
BLACK
6
CONTINUOUS
10
0.72505
20
0.192372
11
0.724566
21
0.191425
0
LINE
8
BLACK
6
CONTINUOUS
10
0.724566
20
0.191425
11
0.720138
21
0.186213
0
LINE
8
BLACK
6
CONTINUOUS
10
0.720138
20
0.186213
11
0.71463
21
0.182159
0
LINE
8
BLACK
6
CONTINUOUS
10
0.71463
20
0.182159
11
0.708337
21
0.179482
0
LINE
8
BLACK
6
CONTINUOUS
10
0.708337
20
0.179482
11
0.701597
21
0.178324
0
LINE
8
BLACK
6
CONTINUOUS
10
0.701597
20
0.178324
11
0.694771
21
0.178747
0
LINE
8
BLACK
6
CONTINUOUS
10
0.694771
20
0.178747
11
0.688226
21
0.180729
0
LINE
8
BLACK
6
CONTINUOUS
10
0.688226
20
0.180729
11
0.682312
21
0.184164
0
LINE
8
BLACK
6
CONTINUOUS
10
0.682312
20
0.184164
11
0.677347
21
0.188867
0
LINE
8
BLACK
6
CONTINUOUS
10
0.677347
20
0.188867
11
0.673598
21
0.194587
0
LINE
8
BLACK
6
CONTINUOUS
10
0.673598
20
0.194587
11
0.671264
21
0.201015
0
LINE
8
BLACK
6
CONTINUOUS
10
0.671264
20
0.201015
11
0.670472
21
0.207808
0
LINE
8
BLACK
6
CONTINUOUS
10
0.670472
20
0.207808
11
0.670472
21
0.215682
0
LINE
8
BLACK
6
CONTINUOUS
10
0.670472
20
0.215682
11
0.670699
21
0.219332
0
LINE
8
BLACK
6
CONTINUOUS
10
0.670699
20
0.219332
11
0.672324
21
0.225974
0
LINE
8
BLACK
6
CONTINUOUS
10
0.672324
20
0.225974
11
0.675434
21
0.232065
0
LINE
8
BLACK
6
CONTINUOUS
10
0.675434
20
0.232065
11
0.679862
21
0.237277
0
LINE
8
BLACK
6
CONTINUOUS
10
0.679862
20
0.237277
11
0.68537
21
0.24133
0
LINE
8
BLACK
6
CONTINUOUS
10
0.68537
20
0.24133
11
0.691663
21
0.244008
0
LINE
8
BLACK
6
CONTINUOUS
10
0.691663
20
0.244008
11
0.698403
21
0.245166
0
LINE
8
BLACK
6
CONTINUOUS
10
0.698403
20
0.245166
11
0.705229
21
0.244743
0
LINE
8
BLACK
6
CONTINUOUS
10
0.705229
20
0.244743
11
0.711774
21
0.24276
0
LINE
8
BLACK
6
CONTINUOUS
10
0.711774
20
0.24276
11
0.717688
21
0.239326
0
LINE
8
BLACK
6
CONTINUOUS
10
0.717688
20
0.239326
11
0.722653
21
0.234622
0
LINE
8
BLACK
6
CONTINUOUS
10
0.722653
20
0.234622
11
0.72495
21
0.231117
0
LINE
8
BLACK
6
CONTINUOUS
10
0.72495
20
0.231117
11
0.725434
21
0.232065
0
LINE
8
BLACK
6
CONTINUOUS
10
0.725434
20
0.232065
11
0.729862
21
0.237277
0
LINE
8
BLACK
6
CONTINUOUS
10
0.729862
20
0.237277
11
0.73537
21
0.24133
0
LINE
8
BLACK
6
CONTINUOUS
10
0.73537
20
0.24133
11
0.741663
21
0.244008
0
LINE
8
BLACK
6
CONTINUOUS
10
0.741663
20
0.244008
11
0.748403
21
0.245166
0
LINE
8
BLACK
6
CONTINUOUS
10
0.748403
20
0.245166
11
0.755229
21
0.244743
0
LINE
8
BLACK
6
CONTINUOUS
10
0.905229
20
0.244743
11
0.911774
21
0.24276
0
LINE
8
BLACK
6
CONTINUOUS
10
0.911774
20
0.24276
11
0.917688
21
0.239326
0
LINE
8
BLACK
6
CONTINUOUS
10
0.917688
20
0.239326
11
0.922653
21
0.234622
0
LINE
8
BLACK
6
CONTINUOUS
10
0.922653
20
0.234622
11
0.926402
21
0.228903
0
LINE
8
BLACK
6
CONTINUOUS
10
0.926402
20
0.228903
11
0.928736
21
0.222475
0
LINE
8
BLACK
6
CONTINUOUS
10
0.928736
20
0.222475
11
0.929528
21
0.215682
0
LINE
8
BLACK
6
CONTINUOUS
10
0.929528
20
0.215682
11
0.929528
21
0.207808
0
LINE
8
BLACK
6
CONTINUOUS
10
0.929528
20
0.207808
11
0.929301
21
0.204158
0
LINE
8
BLACK
6
CONTINUOUS
10
0.929301
20
0.204158
11
0.927676
21
0.197515
0
LINE
8
BLACK
6
CONTINUOUS
10
0.927676
20
0.197515
11
0.924566
21
0.191425
0
LINE
8
BLACK
6
CONTINUOUS
10
0.924566
20
0.191425
11
0.920138
21
0.186213
0
LINE
8
BLACK
6
CONTINUOUS
10
0.920138
20
0.186213
11
0.91463
21
0.182159
0
LINE
8
BLACK
6
CONTINUOUS
10
0.91463
20
0.182159
11
0.908337
21
0.179482
0
LINE
8
BLACK
6
CONTINUOUS
10
0.908337
20
0.179482
11
0.901597
21
0.178324
0
LINE
8
BLACK
6
CONTINUOUS
10
0.901597
20
0.178324
11
0.894771
21
0.178747
0
LINE
8
BLACK
6
CONTINUOUS
10
0.894771
20
0.178747
11
0.888226
21
0.180729
0
LINE
8
BLACK
6
CONTINUOUS
10
0.888226
20
0.180729
11
0.882312
21
0.184164
0
LINE
8
BLACK
6
CONTINUOUS
10
0.882312
20
0.184164
11
0.877347
21
0.188867
0
LINE
8
BLACK
6
CONTINUOUS
10
0.877347
20
0.188867
11
0.87505
21
0.192372
0
LINE
8
BLACK
6
CONTINUOUS
10
0.87505
20
0.192372
11
0.874566
21
0.191425
0
LINE
8
BLACK
6
CONTINUOUS
10
0.874566
20
0.191425
11
0.870138
21
0.186213
0
LINE
8
BLACK
6
CONTINUOUS
10
0.870138
20
0.186213
11
0.86463
21
0.182159
0
LINE
8
BLACK
6
CONTINUOUS
10
0.86463
20
0.182159
11
0.858337
21
0.179482
0
LINE
8
BLACK
6
CONTINUOUS
10
0.858337
20
0.179482
11
0.851597
21
0.178324
0
LINE
8
BLACK
6
CONTINUOUS
10
0.851597
20
0.178324
11
0.844771
21
0.178747
0
LINE
8
BLACK
6
CONTINUOUS
10
0.844771
20
0.178747
11
0.838226
21
0.180729
0
LINE
8
BLACK
6
CONTINUOUS
10
0.838226
20
0.180729
11
0.832312
21
0.184164
0
LINE
8
BLACK
6
CONTINUOUS
10
0.832312
20
0.184164
11
0.827347
21
0.188867
0
LINE
8
BLACK
6
CONTINUOUS
10
0.827347
20
0.188867
11
0.823598
21
0.194587
0
LINE
8
BLACK
6
CONTINUOUS
10
0.823598
20
0.194587
11
0.821264
21
0.201015
0
LINE
8
BLACK
6
CONTINUOUS
10
0.821264
20
0.201015
11
0.820472
21
0.207808
0
LINE
8
BLACK
6
CONTINUOUS
10
0.820472
20
0.207808
11
0.820472
21
0.215682
0
LINE
8
BLACK
6
CONTINUOUS
10
0.820472
20
0.215682
11
0.820699
21
0.219332
0
LINE
8
BLACK
6
CONTINUOUS
10
0.820699
20
0.219332
11
0.822324
21
0.225974
0
LINE
8
BLACK
6
CONTINUOUS
10
0.822324
20
0.225974
11
0.825434
21
0.232065
0
LINE
8
BLACK
6
CONTINUOUS
10
0.825434
20
0.232065
11
0.829862
21
0.237277
0
LINE
8
BLACK
6
CONTINUOUS
10
0.829862
20
0.237277
11
0.83537
21
0.24133
0
LINE
8
BLACK
6
CONTINUOUS
10
0.83537
20
0.24133
11
0.841663
21
0.244008
0
LINE
8
BLACK
6
CONTINUOUS
10
0.841663
20
0.244008
11
0.848403
21
0.245166
0
LINE
8
BLACK
6
CONTINUOUS
10
0.848403
20
0.245166
11
0.855229
21
0.244743
0
LINE
8
BLACK
6
CONTINUOUS
10
0.855229
20
0.244743
11
0.861774
21
0.24276
0
LINE
8
BLACK
6
CONTINUOUS
10
0.861774
20
0.24276
11
0.867688
21
0.239326
0
LINE
8
BLACK
6
CONTINUOUS
10
0.867688
20
0.239326
11
0.872653
21
0.234622
0
LINE
8
BLACK
6
CONTINUOUS
10
0.872653
20
0.234622
11
0.87495
21
0.231117
0
LINE
8
BLACK
6
CONTINUOUS
10
0.87495
20
0.231117
11
0.875434
21
0.232065
0
LINE
8
BLACK
6
CONTINUOUS
10
0.875434
20
0.232065
11
0.879862
21
0.237277
0
LINE
8
BLACK
6
CONTINUOUS
10
0.879862
20
0.237277
11
0.88537
21
0.24133
0
LINE
8
BLACK
6
CONTINUOUS
10
0.88537
20
0.24133
11
0.891663
21
0.244008
0
LINE
8
BLACK
6
CONTINUOUS
10
0.891663
20
0.244008
11
0.898403
21
0.245166
0
LINE
8
BLACK
6
CONTINUOUS
10
0.898403
20
0.245166
11
0.905229
21
0.244743
0
LINE
8
BLACK
6
CONTINUOUS
10
0.655229
20
0.303798
11
0.661774
21
0.301816
0
LINE
8
BLACK
6
CONTINUOUS
10
0.661774
20
0.301816
11
0.667688
21
0.298381
0
LINE
8
BLACK
6
CONTINUOUS
10
0.667688
20
0.298381
11
0.672653
21
0.293677
0
LINE
8
BLACK
6
CONTINUOUS
10
0.672653
20
0.293677
11
0.676402
21
0.287958
0
LINE
8
BLACK
6
CONTINUOUS
10
0.676402
20
0.287958
11
0.678736
21
0.28153
0
LINE
8
BLACK
6
CONTINUOUS
10
0.678736
20
0.28153
11
0.679528
21
0.274737
0
LINE
8
BLACK
6
CONTINUOUS
10
0.679528
20
0.274737
11
0.679528
21
0.266863
0
LINE
8
BLACK
6
CONTINUOUS
10
0.679528
20
0.266863
11
0.679301
21
0.263213
0
LINE
8
BLACK
6
CONTINUOUS
10
0.679301
20
0.263213
11
0.677676
21
0.256571
0
LINE
8
BLACK
6
CONTINUOUS
10
0.677676
20
0.256571
11
0.674566
21
0.25048
0
LINE
8
BLACK
6
CONTINUOUS
10
0.674566
20
0.25048
11
0.670138
21
0.245268
0
LINE
8
BLACK
6
CONTINUOUS
10
0.670138
20
0.245268
11
0.66463
21
0.241214
0
LINE
8
BLACK
6
CONTINUOUS
10
0.66463
20
0.241214
11
0.658337
21
0.238537
0
LINE
8
BLACK
6
CONTINUOUS
10
0.658337
20
0.238537
11
0.651597
21
0.237379
0
LINE
8
BLACK
6
CONTINUOUS
10
0.651597
20
0.237379
11
0.644771
21
0.237802
0
LINE
8
BLACK
6
CONTINUOUS
10
0.644771
20
0.237802
11
0.638226
21
0.239784
0
LINE
8
BLACK
6
CONTINUOUS
10
0.638226
20
0.239784
11
0.632312
21
0.243219
0
LINE
8
BLACK
6
CONTINUOUS
10
0.632312
20
0.243219
11
0.627347
21
0.247923
0
LINE
8
BLACK
6
CONTINUOUS
10
0.627347
20
0.247923
11
0.623598
21
0.253642
0
LINE
8
BLACK
6
CONTINUOUS
10
0.623598
20
0.253642
11
0.621264
21
0.26007
0
LINE
8
BLACK
6
CONTINUOUS
10
0.621264
20
0.26007
11
0.620472
21
0.266863
0
LINE
8
BLACK
6
CONTINUOUS
10
0.620472
20
0.266863
11
0.620472
21
0.274737
0
LINE
8
BLACK
6
CONTINUOUS
10
0.620472
20
0.274737
11
0.620699
21
0.278387
0
LINE
8
BLACK
6
CONTINUOUS
10
0.620699
20
0.278387
11
0.622324
21
0.285029
0
LINE
8
BLACK
6
CONTINUOUS
10
0.622324
20
0.285029
11
0.625434
21
0.29112
0
LINE
8
BLACK
6
CONTINUOUS
10
0.625434
20
0.29112
11
0.629862
21
0.296332
0
LINE
8
BLACK
6
CONTINUOUS
10
0.629862
20
0.296332
11
0.63537
21
0.300386
0
LINE
8
BLACK
6
CONTINUOUS
10
0.63537
20
0.300386
11
0.641663
21
0.303063
0
LINE
8
BLACK
6
CONTINUOUS
10
0.641663
20
0.303063
11
0.648403
21
0.304221
0
LINE
8
BLACK
6
CONTINUOUS
10
0.648403
20
0.304221
11
0.655229
21
0.303798
0
LINE
8
BLACK
6
CONTINUOUS
10
0.955229
20
0.303798
11
0.961774
21
0.301816
0
LINE
8
BLACK
6
CONTINUOUS
10
0.961774
20
0.301816
11
0.967688
21
0.298381
0
LINE
8
BLACK
6
CONTINUOUS
10
0.967688
20
0.298381
11
0.972653
21
0.293677
0
LINE
8
BLACK
6
CONTINUOUS
10
0.972653
20
0.293677
11
0.976402
21
0.287958
0
LINE
8
BLACK
6
CONTINUOUS
10
0.976402
20
0.287958
11
0.978736
21
0.28153
0
LINE
8
BLACK
6
CONTINUOUS
10
0.978736
20
0.28153
11
0.979528
21
0.274737
0
LINE
8
BLACK
6
CONTINUOUS
10
0.979528
20
0.274737
11
0.979528
21
0.266863
0
LINE
8
BLACK
6
CONTINUOUS
10
0.979528
20
0.266863
11
0.979301
21
0.263213
0
LINE
8
BLACK
6
CONTINUOUS
10
0.979301
20
0.263213
11
0.977676
21
0.256571
0
LINE
8
BLACK
6
CONTINUOUS
10
0.977676
20
0.256571
11
0.974566
21
0.25048
0
LINE
8
BLACK
6
CONTINUOUS
10
0.974566
20
0.25048
11
0.970138
21
0.245268
0
LINE
8
BLACK
6
CONTINUOUS
10
0.970138
20
0.245268
11
0.96463
21
0.241214
0
LINE
8
BLACK
6
CONTINUOUS
10
0.96463
20
0.241214
11
0.958337
21
0.238537
0
LINE
8
BLACK
6
CONTINUOUS
10
0.958337
20
0.238537
11
0.951597
21
0.237379
0
LINE
8
BLACK
6
CONTINUOUS
10
0.951597
20
0.237379
11
0.944771
21
0.237802
0
LINE
8
BLACK
6
CONTINUOUS
10
0.944771
20
0.237802
11
0.938226
21
0.239784
0
LINE
8
BLACK
6
CONTINUOUS
10
0.938226
20
0.239784
11
0.932312
21
0.243219
0
LINE
8
BLACK
6
CONTINUOUS
10
0.932312
20
0.243219
11
0.927347
21
0.247923
0
LINE
8
BLACK
6
CONTINUOUS
10
0.927347
20
0.247923
11
0.923598
21
0.253642
0
LINE
8
BLACK
6
CONTINUOUS
10
0.923598
20
0.253642
11
0.921264
21
0.26007
0
LINE
8
BLACK
6
CONTINUOUS
10
0.921264
20
0.26007
11
0.920472
21
0.266863
0
LINE
8
BLACK
6
CONTINUOUS
10
0.920472
20
0.266863
11
0.920472
21
0.274737
0
LINE
8
BLACK
6
CONTINUOUS
10
0.920472
20
0.274737
11
0.920699
21
0.278387
0
LINE
8
BLACK
6
CONTINUOUS
10
0.920699
20
0.278387
11
0.922324
21
0.285029
0
LINE
8
BLACK
6
CONTINUOUS
10
0.922324
20
0.285029
11
0.925434
21
0.29112
0
LINE
8
BLACK
6
CONTINUOUS
10
0.925434
20
0.29112
11
0.929862
21
0.296332
0
LINE
8
BLACK
6
CONTINUOUS
10
0.929862
20
0.296332
11
0.93537
21
0.300386
0
LINE
8
BLACK
6
CONTINUOUS
10
0.93537
20
0.300386
11
0.941663
21
0.303063
0
LINE
8
BLACK
6
CONTINUOUS
10
0.941663
20
0.303063
11
0.948403
21
0.304221
0
LINE
8
BLACK
6
CONTINUOUS
10
0.948403
20
0.304221
11
0.955229
21
0.303798
0
LINE
8
BLACK
6
CONTINUOUS
10
0.805229
20
0.303798
11
0.811774
21
0.301816
0
LINE
8
BLACK
6
CONTINUOUS
10
0.811774
20
0.301816
11
0.817688
21
0.298381
0
LINE
8
BLACK
6
CONTINUOUS
10
0.817688
20
0.298381
11
0.822653
21
0.293677
0
LINE
8
BLACK
6
CONTINUOUS
10
0.822653
20
0.293677
11
0.826402
21
0.287958
0
LINE
8
BLACK
6
CONTINUOUS
10
0.826402
20
0.287958
11
0.828736
21
0.28153
0
LINE
8
BLACK
6
CONTINUOUS
10
0.828736
20
0.28153
11
0.829528
21
0.274737
0
LINE
8
BLACK
6
CONTINUOUS
10
0.829528
20
0.274737
11
0.829528
21
0.266863
0
LINE
8
BLACK
6
CONTINUOUS
10
0.829528
20
0.266863
11
0.829301
21
0.263213
0
LINE
8
BLACK
6
CONTINUOUS
10
0.829301
20
0.263213
11
0.827676
21
0.256571
0
LINE
8
BLACK
6
CONTINUOUS
10
0.827676
20
0.256571
11
0.824566
21
0.25048
0
LINE
8
BLACK
6
CONTINUOUS
10
0.824566
20
0.25048
11
0.820138
21
0.245268
0
LINE
8
BLACK
6
CONTINUOUS
10
0.820138
20
0.245268
11
0.81463
21
0.241214
0
LINE
8
BLACK
6
CONTINUOUS
10
0.81463
20
0.241214
11
0.808337
21
0.238537
0
LINE
8
BLACK
6
CONTINUOUS
10
0.808337
20
0.238537
11
0.801597
21
0.237379
0
LINE
8
BLACK
6
CONTINUOUS
10
0.801597
20
0.237379
11
0.794771
21
0.237802
0
LINE
8
BLACK
6
CONTINUOUS
10
0.794771
20
0.237802
11
0.788226
21
0.239784
0
LINE
8
BLACK
6
CONTINUOUS
10
0.788226
20
0.239784
11
0.782312
21
0.243219
0
LINE
8
BLACK
6
CONTINUOUS
10
0.782312
20
0.243219
11
0.777347
21
0.247923
0
LINE
8
BLACK
6
CONTINUOUS
10
0.777347
20
0.247923
11
0.773598
21
0.253642
0
LINE
8
BLACK
6
CONTINUOUS
10
0.773598
20
0.253642
11
0.771264
21
0.26007
0
LINE
8
BLACK
6
CONTINUOUS
10
0.771264
20
0.26007
11
0.770472
21
0.266863
0
LINE
8
BLACK
6
CONTINUOUS
10
0.770472
20
0.266863
11
0.770472
21
0.274737
0
LINE
8
BLACK
6
CONTINUOUS
10
0.770472
20
0.274737
11
0.770699
21
0.278387
0
LINE
8
BLACK
6
CONTINUOUS
10
0.770699
20
0.278387
11
0.772324
21
0.285029
0
LINE
8
BLACK
6
CONTINUOUS
10
0.772324
20
0.285029
11
0.775434
21
0.29112
0
LINE
8
BLACK
6
CONTINUOUS
10
0.775434
20
0.29112
11
0.779862
21
0.296332
0
LINE
8
BLACK
6
CONTINUOUS
10
0.779862
20
0.296332
11
0.78537
21
0.300386
0
LINE
8
BLACK
6
CONTINUOUS
10
0.78537
20
0.300386
11
0.791663
21
0.303063
0
LINE
8
BLACK
6
CONTINUOUS
10
0.791663
20
0.303063
11
0.798403
21
0.304221
0
LINE
8
BLACK
6
CONTINUOUS
10
0.798403
20
0.304221
11
0.805229
21
0.303798
0
LINE
8
BLACK
6
CONTINUOUS
10
1.24919
20
0.503063
11
1.25814
21
0.500666
0
LINE
8
BLACK
6
CONTINUOUS
10
1.25814
20
0.500666
11
1.26654
21
0.49675
0
LINE
8
BLACK
6
CONTINUOUS
10
1.26654
20
0.49675
11
1.27412
21
0.491436
0
LINE
8
BLACK
6
CONTINUOUS
10
1.27412
20
0.491436
11
1.28068
21
0.484885
0
LINE
8
BLACK
6
CONTINUOUS
10
1.28068
20
0.484885
11
1.28599
21
0.477296
0
LINE
8
BLACK
6
CONTINUOUS
10
1.28599
20
0.477296
11
1.2899
21
0.468899
0
LINE
8
BLACK
6
CONTINUOUS
10
1.2899
20
0.468899
11
1.2923
21
0.459951
0
LINE
8
BLACK
6
CONTINUOUS
10
1.2923
20
0.459951
11
1.29311
21
0.450721
0
LINE
8
BLACK
6
CONTINUOUS
10
1.29311
20
0.450721
11
1.2923
21
0.441492
0
LINE
8
BLACK
6
CONTINUOUS
10
1.2923
20
0.441492
11
1.2899
21
0.432543
0
LINE
8
BLACK
6
CONTINUOUS
10
1.2899
20
0.432543
11
1.28599
21
0.424146
0
LINE
8
BLACK
6
CONTINUOUS
10
1.28599
20
0.424146
11
1.28068
21
0.416557
0
LINE
8
BLACK
6
CONTINUOUS
10
1.28068
20
0.416557
11
1.27412
21
0.410006
0
LINE
8
BLACK
6
CONTINUOUS
10
1.27412
20
0.410006
11
1.26654
21
0.404692
0
LINE
8
BLACK
6
CONTINUOUS
10
1.26654
20
0.404692
11
1.25814
21
0.400777
0
LINE
8
BLACK
6
CONTINUOUS
10
1.25814
20
0.400777
11
1.24919
21
0.398379
0
LINE
8
BLACK
6
CONTINUOUS
10
1.24919
20
0.398379
11
1.23996
21
0.397572
0
LINE
8
BLACK
6
CONTINUOUS
10
1.23996
20
0.397572
11
1.23073
21
0.398379
0
LINE
8
BLACK
6
CONTINUOUS
10
1.23073
20
0.398379
11
1.22178
21
0.400777
0
LINE
8
BLACK
6
CONTINUOUS
10
1.22178
20
0.400777
11
1.21339
21
0.404692
0
LINE
8
BLACK
6
CONTINUOUS
10
1.21339
20
0.404692
11
1.2058
21
0.410006
0
LINE
8
BLACK
6
CONTINUOUS
10
1.2058
20
0.410006
11
1.19925
21
0.416557
0
LINE
8
BLACK
6
CONTINUOUS
10
1.19925
20
0.416557
11
1.19393
21
0.424146
0
LINE
8
BLACK
6
CONTINUOUS
10
1.19393
20
0.424146
11
1.19002
21
0.432543
0
LINE
8
BLACK
6
CONTINUOUS
10
1.19002
20
0.432543
11
1.18762
21
0.441492
0
LINE
8
BLACK
6
CONTINUOUS
10
1.18762
20
0.441492
11
1.18681
21
0.450721
0
LINE
8
BLACK
6
CONTINUOUS
10
1.18681
20
0.450721
11
1.18762
21
0.459951
0
LINE
8
BLACK
6
CONTINUOUS
10
1.18762
20
0.459951
11
1.19002
21
0.468899
0
LINE
8
BLACK
6
CONTINUOUS
10
1.19002
20
0.468899
11
1.19393
21
0.477296
0
LINE
8
BLACK
6
CONTINUOUS
10
1.19393
20
0.477296
11
1.19925
21
0.484885
0
LINE
8
BLACK
6
CONTINUOUS
10
1.19925
20
0.484885
11
1.2058
21
0.491436
0
LINE
8
BLACK
6
CONTINUOUS
10
1.2058
20
0.491436
11
1.21339
21
0.49675
0
LINE
8
BLACK
6
CONTINUOUS
10
1.21339
20
0.49675
11
1.22178
21
0.500666
0
LINE
8
BLACK
6
CONTINUOUS
10
1.22178
20
0.500666
11
1.23073
21
0.503063
0
LINE
8
BLACK
6
CONTINUOUS
10
1.23073
20
0.503063
11
1.23996
21
0.503871
0
LINE
8
BLACK
6
CONTINUOUS
10
1.23996
20
0.503871
11
1.24919
21
0.503063
0
LINE
8
BLACK
6
CONTINUOUS
10
0.178013
20
0.483075
11
0.180568
21
0.481368
0
LINE
8
BLACK
6
CONTINUOUS
10
0.180568
20
0.481368
11
0.182275
21
0.478813
0
LINE
8
BLACK
6
CONTINUOUS
10
0.182275
20
0.478813
11
0.182874
21
0.4758
0
LINE
8
BLACK
6
CONTINUOUS
10
0.182874
20
0.4758
11
0.182874
21
0.4158
0
LINE
8
BLACK
6
CONTINUOUS
10
0.182874
20
0.4158
11
0.182275
21
0.412787
0
LINE
8
BLACK
6
CONTINUOUS
10
0.182275
20
0.412787
11
0.180568
21
0.410232
0
LINE
8
BLACK
6
CONTINUOUS
10
0.180568
20
0.410232
11
0.178013
21
0.408525
0
LINE
8
BLACK
6
CONTINUOUS
10
0.178013
20
0.408525
11
0.175
21
0.407926
0
LINE
8
BLACK
6
CONTINUOUS
10
0.175
20
0.407926
11
0.115
21
0.407926
0
LINE
8
BLACK
6
CONTINUOUS
10
0.115
20
0.407926
11
0.111987
21
0.408525
0
LINE
8
BLACK
6
CONTINUOUS
10
0.111987
20
0.408525
11
0.109432
21
0.410232
0
LINE
8
BLACK
6
CONTINUOUS
10
0.109432
20
0.410232
11
0.107725
21
0.412787
0
LINE
8
BLACK
6
CONTINUOUS
10
0.107725
20
0.412787
11
0.107126
21
0.4158
0
LINE
8
BLACK
6
CONTINUOUS
10
0.107126
20
0.4158
11
0.107126
21
0.4758
0
LINE
8
BLACK
6
CONTINUOUS
10
0.107126
20
0.4758
11
0.107725
21
0.478813
0
LINE
8
BLACK
6
CONTINUOUS
10
0.107725
20
0.478813
11
0.109432
21
0.481368
0
LINE
8
BLACK
6
CONTINUOUS
10
0.109432
20
0.481368
11
0.111987
21
0.483075
0
LINE
8
BLACK
6
CONTINUOUS
10
0.111987
20
0.483075
11
0.115
21
0.483674
0
LINE
8
BLACK
6
CONTINUOUS
10
0.115
20
0.483674
11
0.175
21
0.483674
0
LINE
8
BLACK
6
CONTINUOUS
10
0.175
20
0.483674
11
0.178013
21
0.483075
0
LINE
8
BLACK
6
CONTINUOUS
10
0.278013
20
0.483075
11
0.280568
21
0.481368
0
LINE
8
BLACK
6
CONTINUOUS
10
0.280568
20
0.481368
11
0.282275
21
0.478813
0
LINE
8
BLACK
6
CONTINUOUS
10
0.282275
20
0.478813
11
0.282874
21
0.4758
0
LINE
8
BLACK
6
CONTINUOUS
10
0.282874
20
0.4758
11
0.282874
21
0.4158
0
LINE
8
BLACK
6
CONTINUOUS
10
0.282874
20
0.4158
11
0.282275
21
0.412787
0
LINE
8
BLACK
6
CONTINUOUS
10
0.282275
20
0.412787
11
0.280568
21
0.410232
0
LINE
8
BLACK
6
CONTINUOUS
10
0.280568
20
0.410232
11
0.278013
21
0.408525
0
LINE
8
BLACK
6
CONTINUOUS
10
0.278013
20
0.408525
11
0.275
21
0.407926
0
LINE
8
BLACK
6
CONTINUOUS
10
0.275
20
0.407926
11
0.215
21
0.407926
0
LINE
8
BLACK
6
CONTINUOUS
10
0.215
20
0.407926
11
0.211987
21
0.408525
0
LINE
8
BLACK
6
CONTINUOUS
10
0.211987
20
0.408525
11
0.209432
21
0.410232
0
LINE
8
BLACK
6
CONTINUOUS
10
0.209432
20
0.410232
11
0.207725
21
0.412787
0
LINE
8
BLACK
6
CONTINUOUS
10
0.207725
20
0.412787
11
0.207126
21
0.4158
0
LINE
8
BLACK
6
CONTINUOUS
10
0.207126
20
0.4158
11
0.207126
21
0.4758
0
LINE
8
BLACK
6
CONTINUOUS
10
0.207126
20
0.4758
11
0.207725
21
0.478813
0
LINE
8
BLACK
6
CONTINUOUS
10
0.207725
20
0.478813
11
0.209432
21
0.481368
0
LINE
8
BLACK
6
CONTINUOUS
10
0.209432
20
0.481368
11
0.211987
21
0.483075
0
LINE
8
BLACK
6
CONTINUOUS
10
0.211987
20
0.483075
11
0.215
21
0.483674
0
LINE
8
BLACK
6
CONTINUOUS
10
0.215
20
0.483674
11
0.275
21
0.483674
0
LINE
8
BLACK
6
CONTINUOUS
10
0.275
20
0.483674
11
0.278013
21
0.483075
0
LINE
8
BLACK
6
CONTINUOUS
10
1.38639
20
0.592738
11
1.39642
21
0.590415
0
LINE
8
BLACK
6
CONTINUOUS
10
1.39642
20
0.590415
11
1.40601
21
0.586703
0
LINE
8
BLACK
6
CONTINUOUS
10
1.40601
20
0.586703
11
1.41499
21
0.581676
0
LINE
8
BLACK
6
CONTINUOUS
10
1.41499
20
0.581676
11
1.42317
21
0.575434
0
LINE
8
BLACK
6
CONTINUOUS
10
1.42317
20
0.575434
11
1.43038
21
0.568102
0
LINE
8
BLACK
6
CONTINUOUS
10
1.43038
20
0.568102
11
1.4365
21
0.559827
0
LINE
8
BLACK
6
CONTINUOUS
10
1.4365
20
0.559827
11
1.44138
21
0.550773
0
LINE
8
BLACK
6
CONTINUOUS
10
1.44138
20
0.550773
11
1.44494
21
0.54112
0
LINE
8
BLACK
6
CONTINUOUS
10
1.44494
20
0.54112
11
1.44711
21
0.531062
0
LINE
8
BLACK
6
CONTINUOUS
10
1.44711
20
0.531062
11
1.44783
21
0.5208
0
LINE
8
BLACK
6
CONTINUOUS
10
1.44783
20
0.5208
11
1.44769
21
0.516227
0
LINE
8
BLACK
6
CONTINUOUS
10
1.44769
20
0.516227
11
1.44632
21
0.50603
0
LINE
8
BLACK
6
CONTINUOUS
10
1.44632
20
0.50603
11
1.44353
21
0.496128
0
LINE
8
BLACK
6
CONTINUOUS
10
1.44353
20
0.496128
11
1.43937
21
0.486719
0
LINE
8
BLACK
6
CONTINUOUS
10
1.43937
20
0.486719
11
1.43392
21
0.477989
0
LINE
8
BLACK
6
CONTINUOUS
10
1.43392
20
0.477989
11
1.4273
21
0.470113
0
LINE
8
BLACK
6
CONTINUOUS
10
1.4273
20
0.470113
11
1.41964
21
0.463249
0
LINE
8
BLACK
6
CONTINUOUS
10
1.41964
20
0.463249
11
1.41109
21
0.457534
0
LINE
8
BLACK
6
CONTINUOUS
10
1.41109
20
0.457534
11
1.40181
21
0.45308
0
LINE
8
BLACK
6
CONTINUOUS
10
1.40181
20
0.45308
11
1.392
21
0.449978
0
LINE
8
BLACK
6
CONTINUOUS
10
1.392
20
0.449978
11
1.38185
21
0.448289
0
LINE
8
BLACK
6
CONTINUOUS
10
1.38185
20
0.448289
11
1.37157
21
0.448046
0
LINE
8
BLACK
6
CONTINUOUS
10
1.37157
20
0.448046
11
1.36135
21
0.449255
0
LINE
8
BLACK
6
CONTINUOUS
10
1.36135
20
0.449255
11
1.35141
21
0.451892
0
LINE
8
BLACK
6
CONTINUOUS
10
1.35141
20
0.451892
11
1.34193
21
0.455904
0
LINE
8
BLACK
6
CONTINUOUS
10
1.34193
20
0.455904
11
1.33312
21
0.46121
0
LINE
8
BLACK
6
CONTINUOUS
10
1.33312
20
0.46121
11
1.32514
21
0.467706
0
LINE
8
BLACK
6
CONTINUOUS
10
1.32514
20
0.467706
11
1.31816
21
0.475261
0
LINE
8
BLACK
6
CONTINUOUS
10
1.31816
20
0.475261
11
1.31231
21
0.483724
0
LINE
8
BLACK
6
CONTINUOUS
10
1.31231
20
0.483724
11
1.30771
21
0.492927
0
LINE
8
BLACK
6
CONTINUOUS
10
1.30771
20
0.492927
11
1.30445
21
0.502687
0
LINE
8
BLACK
6
CONTINUOUS
10
1.30445
20
0.502687
11
1.30261
21
0.512808
0
LINE
8
BLACK
6
CONTINUOUS
10
1.30261
20
0.512808
11
1.3022
21
0.523088
0
LINE
8
BLACK
6
CONTINUOUS
10
1.3022
20
0.523088
11
1.30325
21
0.533322
0
LINE
8
BLACK
6
CONTINUOUS
10
1.30325
20
0.533322
11
1.30573
21
0.543307
0
LINE
8
BLACK
6
CONTINUOUS
10
1.30573
20
0.543307
11
1.30959
21
0.552843
0
LINE
8
BLACK
6
CONTINUOUS
10
1.30959
20
0.552843
11
1.31476
21
0.561739
0
LINE
8
BLACK
6
CONTINUOUS
10
1.31476
20
0.561739
11
1.32113
21
0.569819
0
LINE
8
BLACK
6
CONTINUOUS
10
1.32113
20
0.569819
11
1.32857
21
0.57692
0
LINE
8
BLACK
6
CONTINUOUS
10
1.32857
20
0.57692
11
1.33694
21
0.582902
0
LINE
8
BLACK
6
CONTINUOUS
10
1.33694
20
0.582902
11
1.34607
21
0.587644
0
LINE
8
BLACK
6
CONTINUOUS
10
1.34607
20
0.587644
11
1.35578
21
0.591053
0
LINE
8
BLACK
6
CONTINUOUS
10
1.35578
20
0.591053
11
1.36587
21
0.59306
0
LINE
8
BLACK
6
CONTINUOUS
10
1.36587
20
0.59306
11
1.37614
21
0.593626
0
LINE
8
BLACK
6
CONTINUOUS
10
1.37614
20
0.593626
11
1.38639
21
0.592738
0
LINE
8
BLACK
6
CONTINUOUS
10
1.02268
20
0.537359
11
1.02965
21
0.5352
0
LINE
8
BLACK
6
CONTINUOUS
10
1.02965
20
0.5352
11
1.03607
21
0.531729
0
LINE
8
BLACK
6
CONTINUOUS
10
1.03607
20
0.531729
11
1.0417
21
0.527076
0
LINE
8
BLACK
6
CONTINUOUS
10
1.0417
20
0.527076
11
1.04631
21
0.521419
0
LINE
8
BLACK
6
CONTINUOUS
10
1.04631
20
0.521419
11
1.04974
21
0.514974
0
LINE
8
BLACK
6
CONTINUOUS
10
1.04974
20
0.514974
11
1.05185
21
0.507986
0
LINE
8
BLACK
6
CONTINUOUS
10
1.05185
20
0.507986
11
1.05256
21
0.500721
0
LINE
8
BLACK
6
CONTINUOUS
10
1.05256
20
0.500721
11
1.05254
21
0.499677
0
LINE
8
BLACK
6
CONTINUOUS
10
1.05254
20
0.499677
11
1.05163
21
0.492435
0
LINE
8
BLACK
6
CONTINUOUS
10
1.05163
20
0.492435
11
1.04933
21
0.485509
0
LINE
8
BLACK
6
CONTINUOUS
10
1.04933
20
0.485509
11
1.04572
21
0.479162
0
LINE
8
BLACK
6
CONTINUOUS
10
1.04572
20
0.479162
11
1.04095
21
0.473636
0
LINE
8
BLACK
6
CONTINUOUS
10
1.04095
20
0.473636
11
1.0352
21
0.469142
0
LINE
8
BLACK
6
CONTINUOUS
10
1.0352
20
0.469142
11
1.02868
21
0.465851
0
LINE
8
BLACK
6
CONTINUOUS
10
1.02868
20
0.465851
11
1.02165
21
0.463888
0
LINE
8
BLACK
6
CONTINUOUS
10
1.02165
20
0.463888
11
1.01437
21
0.463328
0
LINE
8
BLACK
6
CONTINUOUS
10
1.01437
20
0.463328
11
1.00713
21
0.464192
0
LINE
8
BLACK
6
CONTINUOUS
10
1.00713
20
0.464192
11
1.00018
21
0.466448
0
LINE
8
BLACK
6
CONTINUOUS
10
1.00018
20
0.466448
11
0.993812
21
0.470009
0
LINE
8
BLACK
6
CONTINUOUS
10
0.993812
20
0.470009
11
0.988253
21
0.47474
0
LINE
8
BLACK
6
CONTINUOUS
10
0.988253
20
0.47474
11
0.983719
21
0.480461
0
LINE
8
BLACK
6
CONTINUOUS
10
0.983719
20
0.480461
11
0.980382
21
0.486953
0
LINE
8
BLACK
6
CONTINUOUS
10
0.980382
20
0.486953
11
0.97837
21
0.49397
0
LINE
8
BLACK
6
CONTINUOUS
10
0.97837
20
0.49397
11
0.97776
21
0.501243
0
LINE
8
BLACK
6
CONTINUOUS
10
0.97776
20
0.501243
11
0.978573
21
0.508497
0
LINE
8
BLACK
6
CONTINUOUS
10
0.978573
20
0.508497
11
0.98078
21
0.515455
0
LINE
8
BLACK
6
CONTINUOUS
10
0.98078
20
0.515455
11
0.984297
21
0.521852
0
LINE
8
BLACK
6
CONTINUOUS
10
0.984297
20
0.521852
11
0.988989
21
0.527444
0
LINE
8
BLACK
6
CONTINUOUS
10
0.988989
20
0.527444
11
0.994678
21
0.532018
0
LINE
8
BLACK
6
CONTINUOUS
10
0.994678
20
0.532018
11
1.00115
21
0.535399
0
LINE
8
BLACK
6
CONTINUOUS
10
1.00115
20
0.535399
11
1.00815
21
0.53746
0
LINE
8
BLACK
6
CONTINUOUS
10
1.00815
20
0.53746
11
1.01542
21
0.538122
0
LINE
8
BLACK
6
CONTINUOUS
10
1.01542
20
0.538122
11
1.02268
21
0.537359
0
LINE
8
BLACK
6
CONTINUOUS
10
0.178013
20
0.583075
11
0.180568
21
0.581368
0
LINE
8
BLACK
6
CONTINUOUS
10
0.180568
20
0.581368
11
0.182275
21
0.578813
0
LINE
8
BLACK
6
CONTINUOUS
10
0.182275
20
0.578813
11
0.182874
21
0.5758
0
LINE
8
BLACK
6
CONTINUOUS
10
0.182874
20
0.5758
11
0.182874
21
0.5158
0
LINE
8
BLACK
6
CONTINUOUS
10
0.182874
20
0.5158
11
0.182275
21
0.512787
0
LINE
8
BLACK
6
CONTINUOUS
10
0.182275
20
0.512787
11
0.180568
21
0.510232
0
LINE
8
BLACK
6
CONTINUOUS
10
0.180568
20
0.510232
11
0.178013
21
0.508525
0
LINE
8
BLACK
6
CONTINUOUS
10
0.178013
20
0.508525
11
0.175
21
0.507926
0
LINE
8
BLACK
6
CONTINUOUS
10
0.175
20
0.507926
11
0.115
21
0.507926
0
LINE
8
BLACK
6
CONTINUOUS
10
0.115
20
0.507926
11
0.111987
21
0.508525
0
LINE
8
BLACK
6
CONTINUOUS
10
0.111987
20
0.508525
11
0.109432
21
0.510232
0
LINE
8
BLACK
6
CONTINUOUS
10
0.109432
20
0.510232
11
0.107725
21
0.512787
0
LINE
8
BLACK
6
CONTINUOUS
10
0.107725
20
0.512787
11
0.107126
21
0.5158
0
LINE
8
BLACK
6
CONTINUOUS
10
0.107126
20
0.5158
11
0.107126
21
0.5758
0
LINE
8
BLACK
6
CONTINUOUS
10
0.107126
20
0.5758
11
0.107725
21
0.578813
0
LINE
8
BLACK
6
CONTINUOUS
10
0.107725
20
0.578813
11
0.109432
21
0.581368
0
LINE
8
BLACK
6
CONTINUOUS
10
0.109432
20
0.581368
11
0.111987
21
0.583075
0
LINE
8
BLACK
6
CONTINUOUS
10
0.111987
20
0.583075
11
0.115
21
0.583674
0
LINE
8
BLACK
6
CONTINUOUS
10
0.115
20
0.583674
11
0.175
21
0.583674
0
LINE
8
BLACK
6
CONTINUOUS
10
0.175
20
0.583674
11
0.178013
21
0.583075
0
LINE
8
BLACK
6
CONTINUOUS
10
0.278013
20
0.583075
11
0.280568
21
0.581368
0
LINE
8
BLACK
6
CONTINUOUS
10
0.280568
20
0.581368
11
0.282275
21
0.578813
0
LINE
8
BLACK
6
CONTINUOUS
10
0.282275
20
0.578813
11
0.282874
21
0.5758
0
LINE
8
BLACK
6
CONTINUOUS
10
0.282874
20
0.5758
11
0.282874
21
0.5158
0
LINE
8
BLACK
6
CONTINUOUS
10
0.282874
20
0.5158
11
0.282275
21
0.512787
0
LINE
8
BLACK
6
CONTINUOUS
10
0.282275
20
0.512787
11
0.280568
21
0.510232
0
LINE
8
BLACK
6
CONTINUOUS
10
0.280568
20
0.510232
11
0.278013
21
0.508525
0
LINE
8
BLACK
6
CONTINUOUS
10
0.278013
20
0.508525
11
0.275
21
0.507926
0
LINE
8
BLACK
6
CONTINUOUS
10
0.275
20
0.507926
11
0.215
21
0.507926
0
LINE
8
BLACK
6
CONTINUOUS
10
0.215
20
0.507926
11
0.211987
21
0.508525
0
LINE
8
BLACK
6
CONTINUOUS
10
0.211987
20
0.508525
11
0.209432
21
0.510232
0
LINE
8
BLACK
6
CONTINUOUS
10
0.209432
20
0.510232
11
0.207725
21
0.512787
0
LINE
8
BLACK
6
CONTINUOUS
10
0.207725
20
0.512787
11
0.207126
21
0.5158
0
LINE
8
BLACK
6
CONTINUOUS
10
0.207126
20
0.5158
11
0.207126
21
0.5758
0
LINE
8
BLACK
6
CONTINUOUS
10
0.207126
20
0.5758
11
0.207725
21
0.578813
0
LINE
8
BLACK
6
CONTINUOUS
10
0.207725
20
0.578813
11
0.209432
21
0.581368
0
LINE
8
BLACK
6
CONTINUOUS
10
0.209432
20
0.581368
11
0.211987
21
0.583075
0
LINE
8
BLACK
6
CONTINUOUS
10
0.211987
20
0.583075
11
0.215
21
0.583674
0
LINE
8
BLACK
6
CONTINUOUS
10
0.215
20
0.583674
11
0.275
21
0.583674
0
LINE
8
BLACK
6
CONTINUOUS
10
0.275
20
0.583674
11
0.278013
21
0.583075
0
LINE
8
BLACK
6
CONTINUOUS
10
1.02268
20
0.627516
11
1.02965
21
0.625358
0
LINE
8
BLACK
6
CONTINUOUS
10
1.02965
20
0.625358
11
1.03607
21
0.621886
0
LINE
8
BLACK
6
CONTINUOUS
10
1.03607
20
0.621886
11
1.0417
21
0.617233
0
LINE
8
BLACK
6
CONTINUOUS
10
1.0417
20
0.617233
11
1.04631
21
0.611576
0
LINE
8
BLACK
6
CONTINUOUS
10
1.04631
20
0.611576
11
1.04974
21
0.605131
0
LINE
8
BLACK
6
CONTINUOUS
10
1.04974
20
0.605131
11
1.05185
21
0.598143
0
LINE
8
BLACK
6
CONTINUOUS
10
1.05185
20
0.598143
11
1.05256
21
0.590879
0
LINE
8
BLACK
6
CONTINUOUS
10
1.05256
20
0.590879
11
1.05254
21
0.589834
0
LINE
8
BLACK
6
CONTINUOUS
10
1.05254
20
0.589834
11
1.05163
21
0.582592
0
LINE
8
BLACK
6
CONTINUOUS
10
1.05163
20
0.582592
11
1.04933
21
0.575666
0
LINE
8
BLACK
6
CONTINUOUS
10
1.04933
20
0.575666
11
1.04572
21
0.569319
0
LINE
8
BLACK
6
CONTINUOUS
10
1.04572
20
0.569319
11
1.04095
21
0.563794
0
LINE
8
BLACK
6
CONTINUOUS
10
1.04095
20
0.563794
11
1.0352
21
0.5593
0
LINE
8
BLACK
6
CONTINUOUS
10
1.0352
20
0.5593
11
1.02868
21
0.556008
0
LINE
8
BLACK
6
CONTINUOUS
10
1.02868
20
0.556008
11
1.02165
21
0.554045
0
LINE
8
BLACK
6
CONTINUOUS
10
1.02165
20
0.554045
11
1.01437
21
0.553485
0
LINE
8
BLACK
6
CONTINUOUS
10
1.01437
20
0.553485
11
1.00713
21
0.55435
0
LINE
8
BLACK
6
CONTINUOUS
10
1.00713
20
0.55435
11
1.00018
21
0.556605
0
LINE
8
BLACK
6
CONTINUOUS
10
1.00018
20
0.556605
11
0.993812
21
0.560166
0
LINE
8
BLACK
6
CONTINUOUS
10
0.993812
20
0.560166
11
0.988253
21
0.564897
0
LINE
8
BLACK
6
CONTINUOUS
10
0.988253
20
0.564897
11
0.983719
21
0.570618
0
LINE
8
BLACK
6
CONTINUOUS
10
0.983719
20
0.570618
11
0.980382
21
0.57711
0
LINE
8
BLACK
6
CONTINUOUS
10
0.980382
20
0.57711
11
0.97837
21
0.584127
0
LINE
8
BLACK
6
CONTINUOUS
10
0.97837
20
0.584127
11
0.97776
21
0.591401
0
LINE
8
BLACK
6
CONTINUOUS
10
0.97776
20
0.591401
11
0.978573
21
0.598655
0
LINE
8
BLACK
6
CONTINUOUS
10
0.978573
20
0.598655
11
0.98078
21
0.605613
0
LINE
8
BLACK
6
CONTINUOUS
10
0.98078
20
0.605613
11
0.984297
21
0.612009
0
LINE
8
BLACK
6
CONTINUOUS
10
0.984297
20
0.612009
11
0.988989
21
0.617601
0
LINE
8
BLACK
6
CONTINUOUS
10
0.988989
20
0.617601
11
0.994678
21
0.622175
0
LINE
8
BLACK
6
CONTINUOUS
10
0.994678
20
0.622175
11
1.00115
21
0.625557
0
LINE
8
BLACK
6
CONTINUOUS
10
1.00115
20
0.625557
11
1.00815
21
0.627618
0
LINE
8
BLACK
6
CONTINUOUS
10
1.00815
20
0.627618
11
1.01542
21
0.628279
0
LINE
8
BLACK
6
CONTINUOUS
10
1.01542
20
0.628279
11
1.02268
21
0.627516
0
LINE
8
BLACK
6
CONTINUOUS
10
1.21526
20
0.662469
11
1.22165
21
0.659624
0
LINE
8
BLACK
6
CONTINUOUS
10
1.22165
20
0.659624
11
1.22731
21
0.655512
0
LINE
8
BLACK
6
CONTINUOUS
10
1.22731
20
0.655512
11
1.23199
21
0.650312
0
LINE
8
BLACK
6
CONTINUOUS
10
1.23199
20
0.650312
11
1.23549
21
0.644254
0
LINE
8
BLACK
6
CONTINUOUS
10
1.23549
20
0.644254
11
1.23765
21
0.6376
0
LINE
8
BLACK
6
CONTINUOUS
10
1.23765
20
0.6376
11
1.23839
21
0.630643
0
LINE
8
BLACK
6
CONTINUOUS
10
1.23839
20
0.630643
11
1.23765
21
0.623685
0
LINE
8
BLACK
6
CONTINUOUS
10
1.23765
20
0.623685
11
1.23549
21
0.617031
0
LINE
8
BLACK
6
CONTINUOUS
10
1.23549
20
0.617031
11
1.23199
21
0.610973
0
LINE
8
BLACK
6
CONTINUOUS
10
1.23199
20
0.610973
11
1.22731
21
0.605774
0
LINE
8
BLACK
6
CONTINUOUS
10
1.22731
20
0.605774
11
1.22165
21
0.601661
0
LINE
8
BLACK
6
CONTINUOUS
10
1.22165
20
0.601661
11
1.21526
21
0.598816
0
LINE
8
BLACK
6
CONTINUOUS
10
1.21526
20
0.598816
11
1.20842
21
0.597361
0
LINE
8
BLACK
6
CONTINUOUS
10
1.20842
20
0.597361
11
1.20142
21
0.597361
0
LINE
8
BLACK
6
CONTINUOUS
10
1.20142
20
0.597361
11
1.19458
21
0.598816
0
LINE
8
BLACK
6
CONTINUOUS
10
1.19458
20
0.598816
11
1.18819
21
0.601661
0
LINE
8
BLACK
6
CONTINUOUS
10
1.18819
20
0.601661
11
1.18253
21
0.605774
0
LINE
8
BLACK
6
CONTINUOUS
10
1.18253
20
0.605774
11
1.17785
21
0.610973
0
LINE
8
BLACK
6
CONTINUOUS
10
1.17785
20
0.610973
11
1.17435
21
0.617031
0
LINE
8
BLACK
6
CONTINUOUS
10
1.17435
20
0.617031
11
1.17219
21
0.623685
0
LINE
8
BLACK
6
CONTINUOUS
10
1.17219
20
0.623685
11
1.17146
21
0.630643
0
LINE
8
BLACK
6
CONTINUOUS
10
1.17146
20
0.630643
11
1.17219
21
0.6376
0
LINE
8
BLACK
6
CONTINUOUS
10
1.17219
20
0.6376
11
1.17435
21
0.644254
0
LINE
8
BLACK
6
CONTINUOUS
10
1.17435
20
0.644254
11
1.17785
21
0.650312
0
LINE
8
BLACK
6
CONTINUOUS
10
1.17785
20
0.650312
11
1.18253
21
0.655512
0
LINE
8
BLACK
6
CONTINUOUS
10
1.18253
20
0.655512
11
1.18819
21
0.659624
0
LINE
8
BLACK
6
CONTINUOUS
10
1.18819
20
0.659624
11
1.19458
21
0.662469
0
LINE
8
BLACK
6
CONTINUOUS
10
1.19458
20
0.662469
11
1.20142
21
0.663924
0
LINE
8
BLACK
6
CONTINUOUS
10
1.20142
20
0.663924
11
1.20842
21
0.663924
0
LINE
8
BLACK
6
CONTINUOUS
10
1.20842
20
0.663924
11
1.21526
21
0.662469
0
LINE
8
BLACK
6
CONTINUOUS
10
0.278013
20
0.683075
11
0.280568
21
0.681368
0
LINE
8
BLACK
6
CONTINUOUS
10
0.280568
20
0.681368
11
0.282275
21
0.678813
0
LINE
8
BLACK
6
CONTINUOUS
10
0.282275
20
0.678813
11
0.282874
21
0.6758
0
LINE
8
BLACK
6
CONTINUOUS
10
0.282874
20
0.6758
11
0.282874
21
0.6158
0
LINE
8
BLACK
6
CONTINUOUS
10
0.282874
20
0.6158
11
0.282275
21
0.612787
0
LINE
8
BLACK
6
CONTINUOUS
10
0.282275
20
0.612787
11
0.280568
21
0.610232
0
LINE
8
BLACK
6
CONTINUOUS
10
0.280568
20
0.610232
11
0.278013
21
0.608525
0
LINE
8
BLACK
6
CONTINUOUS
10
0.278013
20
0.608525
11
0.275
21
0.607926
0
LINE
8
BLACK
6
CONTINUOUS
10
0.275
20
0.607926
11
0.215
21
0.607926
0
LINE
8
BLACK
6
CONTINUOUS
10
0.215
20
0.607926
11
0.211987
21
0.608525
0
LINE
8
BLACK
6
CONTINUOUS
10
0.211987
20
0.608525
11
0.209432
21
0.610232
0
LINE
8
BLACK
6
CONTINUOUS
10
0.209432
20
0.610232
11
0.207725
21
0.612787
0
LINE
8
BLACK
6
CONTINUOUS
10
0.207725
20
0.612787
11
0.207126
21
0.6158
0
LINE
8
BLACK
6
CONTINUOUS
10
0.207126
20
0.6158
11
0.207126
21
0.6758
0
LINE
8
BLACK
6
CONTINUOUS
10
0.207126
20
0.6758
11
0.207725
21
0.678813
0
LINE
8
BLACK
6
CONTINUOUS
10
0.207725
20
0.678813
11
0.209432
21
0.681368
0
LINE
8
BLACK
6
CONTINUOUS
10
0.209432
20
0.681368
11
0.211987
21
0.683075
0
LINE
8
BLACK
6
CONTINUOUS
10
0.211987
20
0.683075
11
0.215
21
0.683674
0
LINE
8
BLACK
6
CONTINUOUS
10
0.215
20
0.683674
11
0.275
21
0.683674
0
LINE
8
BLACK
6
CONTINUOUS
10
0.275
20
0.683674
11
0.278013
21
0.683075
0
LINE
8
BLACK
6
CONTINUOUS
10
0.178013
20
0.683075
11
0.180568
21
0.681368
0
LINE
8
BLACK
6
CONTINUOUS
10
0.180568
20
0.681368
11
0.182275
21
0.678813
0
LINE
8
BLACK
6
CONTINUOUS
10
0.182275
20
0.678813
11
0.182874
21
0.6758
0
LINE
8
BLACK
6
CONTINUOUS
10
0.182874
20
0.6758
11
0.182874
21
0.6158
0
LINE
8
BLACK
6
CONTINUOUS
10
0.182874
20
0.6158
11
0.182275
21
0.612787
0
LINE
8
BLACK
6
CONTINUOUS
10
0.182275
20
0.612787
11
0.180568
21
0.610232
0
LINE
8
BLACK
6
CONTINUOUS
10
0.180568
20
0.610232
11
0.178013
21
0.608525
0
LINE
8
BLACK
6
CONTINUOUS
10
0.178013
20
0.608525
11
0.175
21
0.607926
0
LINE
8
BLACK
6
CONTINUOUS
10
0.175
20
0.607926
11
0.115
21
0.607926
0
LINE
8
BLACK
6
CONTINUOUS
10
0.115
20
0.607926
11
0.111987
21
0.608525
0
LINE
8
BLACK
6
CONTINUOUS
10
0.111987
20
0.608525
11
0.109432
21
0.610232
0
LINE
8
BLACK
6
CONTINUOUS
10
0.109432
20
0.610232
11
0.107725
21
0.612787
0
LINE
8
BLACK
6
CONTINUOUS
10
0.107725
20
0.612787
11
0.107126
21
0.6158
0
LINE
8
BLACK
6
CONTINUOUS
10
0.107126
20
0.6158
11
0.107126
21
0.6758
0
LINE
8
BLACK
6
CONTINUOUS
10
0.107126
20
0.6758
11
0.107725
21
0.678813
0
LINE
8
BLACK
6
CONTINUOUS
10
0.107725
20
0.678813
11
0.109432
21
0.681368
0
LINE
8
BLACK
6
CONTINUOUS
10
0.109432
20
0.681368
11
0.111987
21
0.683075
0
LINE
8
BLACK
6
CONTINUOUS
10
0.111987
20
0.683075
11
0.115
21
0.683674
0
LINE
8
BLACK
6
CONTINUOUS
10
0.115
20
0.683674
11
0.175
21
0.683674
0
LINE
8
BLACK
6
CONTINUOUS
10
0.175
20
0.683674
11
0.178013
21
0.683075
0
LINE
8
BLACK
6
CONTINUOUS
10
1.28534
20
0.702627
11
1.29173
21
0.699781
0
LINE
8
BLACK
6
CONTINUOUS
10
1.29173
20
0.699781
11
1.29739
21
0.695669
0
LINE
8
BLACK
6
CONTINUOUS
10
1.29739
20
0.695669
11
1.30207
21
0.69047
0
LINE
8
BLACK
6
CONTINUOUS
10
1.30207
20
0.69047
11
1.30557
21
0.684411
0
LINE
8
BLACK
6
CONTINUOUS
10
1.30557
20
0.684411
11
1.30773
21
0.677758
0
LINE
8
BLACK
6
CONTINUOUS
10
1.30773
20
0.677758
11
1.30846
21
0.6708
0
LINE
8
BLACK
6
CONTINUOUS
10
1.30846
20
0.6708
11
1.30773
21
0.663842
0
LINE
8
BLACK
6
CONTINUOUS
10
1.30773
20
0.663842
11
1.30557
21
0.657189
0
LINE
8
BLACK
6
CONTINUOUS
10
1.30557
20
0.657189
11
1.30207
21
0.65113
0
LINE
8
BLACK
6
CONTINUOUS
10
1.30207
20
0.65113
11
1.29739
21
0.645931
0
LINE
8
BLACK
6
CONTINUOUS
10
1.29739
20
0.645931
11
1.29173
21
0.641819
0
LINE
8
BLACK
6
CONTINUOUS
10
1.29173
20
0.641819
11
1.28534
21
0.638973
0
LINE
8
BLACK
6
CONTINUOUS
10
1.28534
20
0.638973
11
1.2785
21
0.637519
0
LINE
8
BLACK
6
CONTINUOUS
10
1.2785
20
0.637519
11
1.2715
21
0.637519
0
LINE
8
BLACK
6
CONTINUOUS
10
1.2715
20
0.637519
11
1.26466
21
0.638973
0
LINE
8
BLACK
6
CONTINUOUS
10
1.26466
20
0.638973
11
1.25827
21
0.641819
0
LINE
8
BLACK
6
CONTINUOUS
10
1.25827
20
0.641819
11
1.25261
21
0.645931
0
LINE
8
BLACK
6
CONTINUOUS
10
1.25261
20
0.645931
11
1.24793
21
0.65113
0
LINE
8
BLACK
6
CONTINUOUS
10
1.24793
20
0.65113
11
1.24443
21
0.657189
0
LINE
8
BLACK
6
CONTINUOUS
10
1.24443
20
0.657189
11
1.24227
21
0.663842
0
LINE
8
BLACK
6
CONTINUOUS
10
1.24227
20
0.663842
11
1.24154
21
0.6708
0
LINE
8
BLACK
6
CONTINUOUS
10
1.24154
20
0.6708
11
1.24227
21
0.677758
0
LINE
8
BLACK
6
CONTINUOUS
10
1.24227
20
0.677758
11
1.24443
21
0.684411
0
LINE
8
BLACK
6
CONTINUOUS
10
1.24443
20
0.684411
11
1.24793
21
0.69047
0
LINE
8
BLACK
6
CONTINUOUS
10
1.24793
20
0.69047
11
1.25261
21
0.695669
0
LINE
8
BLACK
6
CONTINUOUS
10
1.25261
20
0.695669
11
1.25827
21
0.699781
0
LINE
8
BLACK
6
CONTINUOUS
10
1.25827
20
0.699781
11
1.26466
21
0.702627
0
LINE
8
BLACK
6
CONTINUOUS
10
1.26466
20
0.702627
11
1.2715
21
0.704081
0
LINE
8
BLACK
6
CONTINUOUS
10
1.2715
20
0.704081
11
1.2785
21
0.704081
0
LINE
8
BLACK
6
CONTINUOUS
10
1.2785
20
0.704081
11
1.28534
21
0.702627
0
LINE
8
BLACK
6
CONTINUOUS
10
1.21526
20
0.74239
11
1.22165
21
0.739545
0
LINE
8
BLACK
6
CONTINUOUS
10
1.22165
20
0.739545
11
1.22731
21
0.735433
0
LINE
8
BLACK
6
CONTINUOUS
10
1.22731
20
0.735433
11
1.23199
21
0.730234
0
LINE
8
BLACK
6
CONTINUOUS
10
1.23199
20
0.730234
11
1.23549
21
0.724175
0
LINE
8
BLACK
6
CONTINUOUS
10
1.23549
20
0.724175
11
1.23765
21
0.717521
0
LINE
8
BLACK
6
CONTINUOUS
10
1.23765
20
0.717521
11
1.23839
21
0.710564
0
LINE
8
BLACK
6
CONTINUOUS
10
1.23839
20
0.710564
11
1.23765
21
0.703606
0
LINE
8
BLACK
6
CONTINUOUS
10
1.23765
20
0.703606
11
1.23549
21
0.696953
0
LINE
8
BLACK
6
CONTINUOUS
10
1.23549
20
0.696953
11
1.23199
21
0.690894
0
LINE
8
BLACK
6
CONTINUOUS
10
1.23199
20
0.690894
11
1.22731
21
0.685695
0
LINE
8
BLACK
6
CONTINUOUS
10
1.22731
20
0.685695
11
1.22165
21
0.681583
0
LINE
8
BLACK
6
CONTINUOUS
10
1.22165
20
0.681583
11
1.21526
21
0.678737
0
LINE
8
BLACK
6
CONTINUOUS
10
1.21526
20
0.678737
11
1.20842
21
0.677283
0
LINE
8
BLACK
6
CONTINUOUS
10
1.20842
20
0.677283
11
1.20142
21
0.677283
0
LINE
8
BLACK
6
CONTINUOUS
10
1.20142
20
0.677283
11
1.19458
21
0.678737
0
LINE
8
BLACK
6
CONTINUOUS
10
1.19458
20
0.678737
11
1.18819
21
0.681583
0
LINE
8
BLACK
6
CONTINUOUS
10
1.18819
20
0.681583
11
1.18253
21
0.685695
0
LINE
8
BLACK
6
CONTINUOUS
10
1.18253
20
0.685695
11
1.17785
21
0.690894
0
LINE
8
BLACK
6
CONTINUOUS
10
1.17785
20
0.690894
11
1.17435
21
0.696953
0
LINE
8
BLACK
6
CONTINUOUS
10
1.17435
20
0.696953
11
1.17219
21
0.703606
0
LINE
8
BLACK
6
CONTINUOUS
10
1.17219
20
0.703606
11
1.17146
21
0.710564
0
LINE
8
BLACK
6
CONTINUOUS
10
1.17146
20
0.710564
11
1.17219
21
0.717521
0
LINE
8
BLACK
6
CONTINUOUS
10
1.17219
20
0.717521
11
1.17435
21
0.724175
0
LINE
8
BLACK
6
CONTINUOUS
10
1.17435
20
0.724175
11
1.17785
21
0.730234
0
LINE
8
BLACK
6
CONTINUOUS
10
1.17785
20
0.730234
11
1.18253
21
0.735433
0
LINE
8
BLACK
6
CONTINUOUS
10
1.18253
20
0.735433
11
1.18819
21
0.739545
0
LINE
8
BLACK
6
CONTINUOUS
10
1.18819
20
0.739545
11
1.19458
21
0.74239
0
LINE
8
BLACK
6
CONTINUOUS
10
1.19458
20
0.74239
11
1.20142
21
0.743845
0
LINE
8
BLACK
6
CONTINUOUS
10
1.20142
20
0.743845
11
1.20842
21
0.743845
0
LINE
8
BLACK
6
CONTINUOUS
10
1.20842
20
0.743845
11
1.21526
21
0.74239
0
LINE
8
BLACK
6
CONTINUOUS
10
0.178013
20
0.783075
11
0.180568
21
0.781368
0
LINE
8
BLACK
6
CONTINUOUS
10
0.180568
20
0.781368
11
0.182275
21
0.778813
0
LINE
8
BLACK
6
CONTINUOUS
10
0.182275
20
0.778813
11
0.182874
21
0.7758
0
LINE
8
BLACK
6
CONTINUOUS
10
0.182874
20
0.7758
11
0.182874
21
0.7158
0
LINE
8
BLACK
6
CONTINUOUS
10
0.182874
20
0.7158
11
0.182275
21
0.712787
0
LINE
8
BLACK
6
CONTINUOUS
10
0.182275
20
0.712787
11
0.180568
21
0.710232
0
LINE
8
BLACK
6
CONTINUOUS
10
0.180568
20
0.710232
11
0.178013
21
0.708525
0
LINE
8
BLACK
6
CONTINUOUS
10
0.178013
20
0.708525
11
0.175
21
0.707926
0
LINE
8
BLACK
6
CONTINUOUS
10
0.175
20
0.707926
11
0.115
21
0.707926
0
LINE
8
BLACK
6
CONTINUOUS
10
0.115
20
0.707926
11
0.111987
21
0.708525
0
LINE
8
BLACK
6
CONTINUOUS
10
0.111987
20
0.708525
11
0.109432
21
0.710232
0
LINE
8
BLACK
6
CONTINUOUS
10
0.109432
20
0.710232
11
0.107725
21
0.712787
0
LINE
8
BLACK
6
CONTINUOUS
10
0.107725
20
0.712787
11
0.107126
21
0.7158
0
LINE
8
BLACK
6
CONTINUOUS
10
0.107126
20
0.7158
11
0.107126
21
0.7758
0
LINE
8
BLACK
6
CONTINUOUS
10
0.107126
20
0.7758
11
0.107725
21
0.778813
0
LINE
8
BLACK
6
CONTINUOUS
10
0.107725
20
0.778813
11
0.109432
21
0.781368
0
LINE
8
BLACK
6
CONTINUOUS
10
0.109432
20
0.781368
11
0.111987
21
0.783075
0
LINE
8
BLACK
6
CONTINUOUS
10
0.111987
20
0.783075
11
0.115
21
0.783674
0
LINE
8
BLACK
6
CONTINUOUS
10
0.115
20
0.783674
11
0.175
21
0.783674
0
LINE
8
BLACK
6
CONTINUOUS
10
0.175
20
0.783674
11
0.178013
21
0.783075
0
LINE
8
BLACK
6
CONTINUOUS
10
0.278013
20
0.783075
11
0.280568
21
0.781368
0
LINE
8
BLACK
6
CONTINUOUS
10
0.280568
20
0.781368
11
0.282275
21
0.778813
0
LINE
8
BLACK
6
CONTINUOUS
10
0.282275
20
0.778813
11
0.282874
21
0.7758
0
LINE
8
BLACK
6
CONTINUOUS
10
0.282874
20
0.7758
11
0.282874
21
0.7158
0
LINE
8
BLACK
6
CONTINUOUS
10
0.282874
20
0.7158
11
0.282275
21
0.712787
0
LINE
8
BLACK
6
CONTINUOUS
10
0.282275
20
0.712787
11
0.280568
21
0.710232
0
LINE
8
BLACK
6
CONTINUOUS
10
0.280568
20
0.710232
11
0.278013
21
0.708525
0
LINE
8
BLACK
6
CONTINUOUS
10
0.278013
20
0.708525
11
0.275
21
0.707926
0
LINE
8
BLACK
6
CONTINUOUS
10
0.275
20
0.707926
11
0.215
21
0.707926
0
LINE
8
BLACK
6
CONTINUOUS
10
0.215
20
0.707926
11
0.211987
21
0.708525
0
LINE
8
BLACK
6
CONTINUOUS
10
0.211987
20
0.708525
11
0.209432
21
0.710232
0
LINE
8
BLACK
6
CONTINUOUS
10
0.209432
20
0.710232
11
0.207725
21
0.712787
0
LINE
8
BLACK
6
CONTINUOUS
10
0.207725
20
0.712787
11
0.207126
21
0.7158
0
LINE
8
BLACK
6
CONTINUOUS
10
0.207126
20
0.7158
11
0.207126
21
0.7758
0
LINE
8
BLACK
6
CONTINUOUS
10
0.207126
20
0.7758
11
0.207725
21
0.778813
0
LINE
8
BLACK
6
CONTINUOUS
10
0.207725
20
0.778813
11
0.209432
21
0.781368
0
LINE
8
BLACK
6
CONTINUOUS
10
0.209432
20
0.781368
11
0.211987
21
0.783075
0
LINE
8
BLACK
6
CONTINUOUS
10
0.211987
20
0.783075
11
0.215
21
0.783674
0
LINE
8
BLACK
6
CONTINUOUS
10
0.215
20
0.783674
11
0.275
21
0.783674
0
LINE
8
BLACK
6
CONTINUOUS
10
0.275
20
0.783674
11
0.278013
21
0.783075
0
LINE
8
BLACK
6
CONTINUOUS
10
1.28534
20
0.782548
11
1.29173
21
0.779702
0
LINE
8
BLACK
6
CONTINUOUS
10
1.29173
20
0.779702
11
1.29739
21
0.77559
0
LINE
8
BLACK
6
CONTINUOUS
10
1.29739
20
0.77559
11
1.30207
21
0.770391
0
LINE
8
BLACK
6
CONTINUOUS
10
1.30207
20
0.770391
11
1.30557
21
0.764333
0
LINE
8
BLACK
6
CONTINUOUS
10
1.30557
20
0.764333
11
1.30773
21
0.757679
0
LINE
8
BLACK
6
CONTINUOUS
10
1.30773
20
0.757679
11
1.30846
21
0.750721
0
LINE
8
BLACK
6
CONTINUOUS
10
1.30846
20
0.750721
11
1.30773
21
0.743764
0
LINE
8
BLACK
6
CONTINUOUS
10
1.30773
20
0.743764
11
1.30557
21
0.73711
0
LINE
8
BLACK
6
CONTINUOUS
10
1.30557
20
0.73711
11
1.30207
21
0.731051
0
LINE
8
BLACK
6
CONTINUOUS
10
1.30207
20
0.731051
11
1.29739
21
0.725852
0
LINE
8
BLACK
6
CONTINUOUS
10
1.29739
20
0.725852
11
1.29173
21
0.72174
0
LINE
8
BLACK
6
CONTINUOUS
10
1.29173
20
0.72174
11
1.28534
21
0.718895
0
LINE
8
BLACK
6
CONTINUOUS
10
1.28534
20
0.718895
11
1.2785
21
0.71744
0
LINE
8
BLACK
6
CONTINUOUS
10
1.2785
20
0.71744
11
1.2715
21
0.71744
0
LINE
8
BLACK
6
CONTINUOUS
10
1.2715
20
0.71744
11
1.26466
21
0.718895
0
LINE
8
BLACK
6
CONTINUOUS
10
1.26466
20
0.718895
11
1.25827
21
0.72174
0
LINE
8
BLACK
6
CONTINUOUS
10
1.25827
20
0.72174
11
1.25261
21
0.725852
0
LINE
8
BLACK
6
CONTINUOUS
10
1.25261
20
0.725852
11
1.24793
21
0.731051
0
LINE
8
BLACK
6
CONTINUOUS
10
1.24793
20
0.731051
11
1.24443
21
0.73711
0
LINE
8
BLACK
6
CONTINUOUS
10
1.24443
20
0.73711
11
1.24227
21
0.743764
0
LINE
8
BLACK
6
CONTINUOUS
10
1.24227
20
0.743764
11
1.24154
21
0.750721
0
LINE
8
BLACK
6
CONTINUOUS
10
1.24154
20
0.750721
11
1.24227
21
0.757679
0
LINE
8
BLACK
6
CONTINUOUS
10
1.24227
20
0.757679
11
1.24443
21
0.764333
0
LINE
8
BLACK
6
CONTINUOUS
10
1.24443
20
0.764333
11
1.24793
21
0.770391
0
LINE
8
BLACK
6
CONTINUOUS
10
1.24793
20
0.770391
11
1.25261
21
0.77559
0
LINE
8
BLACK
6
CONTINUOUS
10
1.25261
20
0.77559
11
1.25827
21
0.779702
0
LINE
8
BLACK
6
CONTINUOUS
10
1.25827
20
0.779702
11
1.26466
21
0.782548
0
LINE
8
BLACK
6
CONTINUOUS
10
1.26466
20
0.782548
11
1.2715
21
0.784003
0
LINE
8
BLACK
6
CONTINUOUS
10
1.2715
20
0.784003
11
1.2785
21
0.784003
0
LINE
8
BLACK
6
CONTINUOUS
10
1.2785
20
0.784003
11
1.28534
21
0.782548
0
LINE
8
BLACK
6
CONTINUOUS
10
1.21526
20
0.822312
11
1.22165
21
0.819466
0
LINE
8
BLACK
6
CONTINUOUS
10
1.22165
20
0.819466
11
1.22731
21
0.815354
0
LINE
8
BLACK
6
CONTINUOUS
10
1.22731
20
0.815354
11
1.23199
21
0.810155
0
LINE
8
BLACK
6
CONTINUOUS
10
1.23199
20
0.810155
11
1.23549
21
0.804096
0
LINE
8
BLACK
6
CONTINUOUS
10
1.23549
20
0.804096
11
1.23765
21
0.797443
0
LINE
8
BLACK
6
CONTINUOUS
10
1.23765
20
0.797443
11
1.23839
21
0.790485
0
LINE
8
BLACK
6
CONTINUOUS
10
1.23839
20
0.790485
11
1.23765
21
0.783527
0
LINE
8
BLACK
6
CONTINUOUS
10
1.23765
20
0.783527
11
1.23549
21
0.776874
0
LINE
8
BLACK
6
CONTINUOUS
10
1.23549
20
0.776874
11
1.23199
21
0.770815
0
LINE
8
BLACK
6
CONTINUOUS
10
1.23199
20
0.770815
11
1.22731
21
0.765616
0
LINE
8
BLACK
6
CONTINUOUS
10
1.22731
20
0.765616
11
1.22165
21
0.761504
0
LINE
8
BLACK
6
CONTINUOUS
10
1.22165
20
0.761504
11
1.21526
21
0.758658
0
LINE
8
BLACK
6
CONTINUOUS
10
1.21526
20
0.758658
11
1.20842
21
0.757204
0
LINE
8
BLACK
6
CONTINUOUS
10
1.20842
20
0.757204
11
1.20142
21
0.757204
0
LINE
8
BLACK
6
CONTINUOUS
10
1.20142
20
0.757204
11
1.19458
21
0.758658
0
LINE
8
BLACK
6
CONTINUOUS
10
1.19458
20
0.758658
11
1.18819
21
0.761504
0
LINE
8
BLACK
6
CONTINUOUS
10
1.18819
20
0.761504
11
1.18253
21
0.765616
0
LINE
8
BLACK
6
CONTINUOUS
10
1.18253
20
0.765616
11
1.17785
21
0.770815
0
LINE
8
BLACK
6
CONTINUOUS
10
1.17785
20
0.770815
11
1.17435
21
0.776874
0
LINE
8
BLACK
6
CONTINUOUS
10
1.17435
20
0.776874
11
1.17219
21
0.783527
0
LINE
8
BLACK
6
CONTINUOUS
10
1.17219
20
0.783527
11
1.17146
21
0.790485
0
LINE
8
BLACK
6
CONTINUOUS
10
1.17146
20
0.790485
11
1.17219
21
0.797443
0
LINE
8
BLACK
6
CONTINUOUS
10
1.17219
20
0.797443
11
1.17435
21
0.804096
0
LINE
8
BLACK
6
CONTINUOUS
10
1.17435
20
0.804096
11
1.17785
21
0.810155
0
LINE
8
BLACK
6
CONTINUOUS
10
1.17785
20
0.810155
11
1.18253
21
0.815354
0
LINE
8
BLACK
6
CONTINUOUS
10
1.18253
20
0.815354
11
1.18819
21
0.819466
0
LINE
8
BLACK
6
CONTINUOUS
10
1.18819
20
0.819466
11
1.19458
21
0.822312
0
LINE
8
BLACK
6
CONTINUOUS
10
1.19458
20
0.822312
11
1.20142
21
0.823766
0
LINE
8
BLACK
6
CONTINUOUS
10
1.20142
20
0.823766
11
1.20842
21
0.823766
0
LINE
8
BLACK
6
CONTINUOUS
10
1.20842
20
0.823766
11
1.21526
21
0.822312
0
LINE
8
BLACK
6
CONTINUOUS
10
1.28534
20
0.862469
11
1.29173
21
0.859624
0
LINE
8
BLACK
6
CONTINUOUS
10
1.29173
20
0.859624
11
1.29739
21
0.855512
0
LINE
8
BLACK
6
CONTINUOUS
10
1.29739
20
0.855512
11
1.30207
21
0.850312
0
LINE
8
BLACK
6
CONTINUOUS
10
1.30207
20
0.850312
11
1.30557
21
0.844254
0
LINE
8
BLACK
6
CONTINUOUS
10
1.30557
20
0.844254
11
1.30773
21
0.8376
0
LINE
8
BLACK
6
CONTINUOUS
10
1.30773
20
0.8376
11
1.30846
21
0.830643
0
LINE
8
BLACK
6
CONTINUOUS
10
1.30846
20
0.830643
11
1.30773
21
0.823685
0
LINE
8
BLACK
6
CONTINUOUS
10
1.30773
20
0.823685
11
1.30557
21
0.817031
0
LINE
8
BLACK
6
CONTINUOUS
10
1.30557
20
0.817031
11
1.30207
21
0.810973
0
LINE
8
BLACK
6
CONTINUOUS
10
1.30207
20
0.810973
11
1.29739
21
0.805774
0
LINE
8
BLACK
6
CONTINUOUS
10
1.29739
20
0.805774
11
1.29173
21
0.801661
0
LINE
8
BLACK
6
CONTINUOUS
10
1.29173
20
0.801661
11
1.28534
21
0.798816
0
LINE
8
BLACK
6
CONTINUOUS
10
1.28534
20
0.798816
11
1.2785
21
0.797361
0
LINE
8
BLACK
6
CONTINUOUS
10
1.2785
20
0.797361
11
1.2715
21
0.797361
0
LINE
8
BLACK
6
CONTINUOUS
10
1.2715
20
0.797361
11
1.26466
21
0.798816
0
LINE
8
BLACK
6
CONTINUOUS
10
1.26466
20
0.798816
11
1.25827
21
0.801661
0
LINE
8
BLACK
6
CONTINUOUS
10
1.25827
20
0.801661
11
1.25261
21
0.805774
0
LINE
8
BLACK
6
CONTINUOUS
10
1.25261
20
0.805774
11
1.24793
21
0.810973
0
LINE
8
BLACK
6
CONTINUOUS
10
1.24793
20
0.810973
11
1.24443
21
0.817031
0
LINE
8
BLACK
6
CONTINUOUS
10
1.24443
20
0.817031
11
1.24227
21
0.823685
0
LINE
8
BLACK
6
CONTINUOUS
10
1.24227
20
0.823685
11
1.24154
21
0.830643
0
LINE
8
BLACK
6
CONTINUOUS
10
1.24154
20
0.830643
11
1.24227
21
0.8376
0
LINE
8
BLACK
6
CONTINUOUS
10
1.24227
20
0.8376
11
1.24443
21
0.844254
0
LINE
8
BLACK
6
CONTINUOUS
10
1.24443
20
0.844254
11
1.24793
21
0.850312
0
LINE
8
BLACK
6
CONTINUOUS
10
1.24793
20
0.850312
11
1.25261
21
0.855512
0
LINE
8
BLACK
6
CONTINUOUS
10
1.25261
20
0.855512
11
1.25827
21
0.859624
0
LINE
8
BLACK
6
CONTINUOUS
10
1.25827
20
0.859624
11
1.26466
21
0.862469
0
LINE
8
BLACK
6
CONTINUOUS
10
1.26466
20
0.862469
11
1.2715
21
0.863924
0
LINE
8
BLACK
6
CONTINUOUS
10
1.2715
20
0.863924
11
1.2785
21
0.863924
0
LINE
8
BLACK
6
CONTINUOUS
10
1.2785
20
0.863924
11
1.28534
21
0.862469
0
LINE
8
BLACK
6
CONTINUOUS
10
1.21526
20
0.902233
11
1.22165
21
0.899387
0
LINE
8
BLACK
6
CONTINUOUS
10
1.22165
20
0.899387
11
1.22731
21
0.895275
0
LINE
8
BLACK
6
CONTINUOUS
10
1.22731
20
0.895275
11
1.23199
21
0.890076
0
LINE
8
BLACK
6
CONTINUOUS
10
1.23199
20
0.890076
11
1.23549
21
0.884018
0
LINE
8
BLACK
6
CONTINUOUS
10
1.23549
20
0.884018
11
1.23765
21
0.877364
0
LINE
8
BLACK
6
CONTINUOUS
10
1.23765
20
0.877364
11
1.23839
21
0.870406
0
LINE
8
BLACK
6
CONTINUOUS
10
1.23839
20
0.870406
11
1.23765
21
0.863449
0
LINE
8
BLACK
6
CONTINUOUS
10
1.23765
20
0.863449
11
1.23549
21
0.856795
0
LINE
8
BLACK
6
CONTINUOUS
10
1.23549
20
0.856795
11
1.23199
21
0.850736
0
LINE
8
BLACK
6
CONTINUOUS
10
1.23199
20
0.850736
11
1.22731
21
0.845537
0
LINE
8
BLACK
6
CONTINUOUS
10
1.22731
20
0.845537
11
1.22165
21
0.841425
0
LINE
8
BLACK
6
CONTINUOUS
10
1.22165
20
0.841425
11
1.21526
21
0.83858
0
LINE
8
BLACK
6
CONTINUOUS
10
1.21526
20
0.83858
11
1.20842
21
0.837125
0
LINE
8
BLACK
6
CONTINUOUS
10
1.20842
20
0.837125
11
1.20142
21
0.837125
0
LINE
8
BLACK
6
CONTINUOUS
10
1.20142
20
0.837125
11
1.19458
21
0.83858
0
LINE
8
BLACK
6
CONTINUOUS
10
1.19458
20
0.83858
11
1.18819
21
0.841425
0
LINE
8
BLACK
6
CONTINUOUS
10
1.18819
20
0.841425
11
1.18253
21
0.845537
0
LINE
8
BLACK
6
CONTINUOUS
10
1.18253
20
0.845537
11
1.17785
21
0.850736
0
LINE
8
BLACK
6
CONTINUOUS
10
1.17785
20
0.850736
11
1.17435
21
0.856795
0
LINE
8
BLACK
6
CONTINUOUS
10
1.17435
20
0.856795
11
1.17219
21
0.863449
0
LINE
8
BLACK
6
CONTINUOUS
10
1.17219
20
0.863449
11
1.17146
21
0.870406
0
LINE
8
BLACK
6
CONTINUOUS
10
1.17146
20
0.870406
11
1.17219
21
0.877364
0
LINE
8
BLACK
6
CONTINUOUS
10
1.17219
20
0.877364
11
1.17435
21
0.884018
0
LINE
8
BLACK
6
CONTINUOUS
10
1.17435
20
0.884018
11
1.17785
21
0.890076
0
LINE
8
BLACK
6
CONTINUOUS
10
1.17785
20
0.890076
11
1.18253
21
0.895275
0
LINE
8
BLACK
6
CONTINUOUS
10
1.18253
20
0.895275
11
1.18819
21
0.899387
0
LINE
8
BLACK
6
CONTINUOUS
10
1.18819
20
0.899387
11
1.19458
21
0.902233
0
LINE
8
BLACK
6
CONTINUOUS
10
1.19458
20
0.902233
11
1.20142
21
0.903688
0
LINE
8
BLACK
6
CONTINUOUS
10
1.20142
20
0.903688
11
1.20842
21
0.903688
0
LINE
8
BLACK
6
CONTINUOUS
10
1.20842
20
0.903688
11
1.21526
21
0.902233
0
LINE
8
BLACK
6
CONTINUOUS
10
1.28534
20
0.94239
11
1.29173
21
0.939545
0
LINE
8
BLACK
6
CONTINUOUS
10
1.29173
20
0.939545
11
1.29739
21
0.935433
0
LINE
8
BLACK
6
CONTINUOUS
10
1.29739
20
0.935433
11
1.30207
21
0.930234
0
LINE
8
BLACK
6
CONTINUOUS
10
1.30207
20
0.930234
11
1.30557
21
0.924175
0
LINE
8
BLACK
6
CONTINUOUS
10
1.30557
20
0.924175
11
1.30773
21
0.917521
0
LINE
8
BLACK
6
CONTINUOUS
10
1.30773
20
0.917521
11
1.30846
21
0.910564
0
LINE
8
BLACK
6
CONTINUOUS
10
1.30846
20
0.910564
11
1.30773
21
0.903606
0
LINE
8
BLACK
6
CONTINUOUS
10
1.30773
20
0.903606
11
1.30557
21
0.896953
0
LINE
8
BLACK
6
CONTINUOUS
10
1.30557
20
0.896953
11
1.30207
21
0.890894
0
LINE
8
BLACK
6
CONTINUOUS
10
1.30207
20
0.890894
11
1.29739
21
0.885695
0
LINE
8
BLACK
6
CONTINUOUS
10
1.29739
20
0.885695
11
1.29173
21
0.881583
0
LINE
8
BLACK
6
CONTINUOUS
10
1.29173
20
0.881583
11
1.28534
21
0.878737
0
LINE
8
BLACK
6
CONTINUOUS
10
1.28534
20
0.878737
11
1.2785
21
0.877283
0
LINE
8
BLACK
6
CONTINUOUS
10
1.2785
20
0.877283
11
1.2715
21
0.877283
0
LINE
8
BLACK
6
CONTINUOUS
10
1.2715
20
0.877283
11
1.26466
21
0.878737
0
LINE
8
BLACK
6
CONTINUOUS
10
1.26466
20
0.878737
11
1.25827
21
0.881583
0
LINE
8
BLACK
6
CONTINUOUS
10
1.25827
20
0.881583
11
1.25261
21
0.885695
0
LINE
8
BLACK
6
CONTINUOUS
10
1.25261
20
0.885695
11
1.24793
21
0.890894
0
LINE
8
BLACK
6
CONTINUOUS
10
1.24793
20
0.890894
11
1.24443
21
0.896953
0
LINE
8
BLACK
6
CONTINUOUS
10
1.24443
20
0.896953
11
1.24227
21
0.903606
0
LINE
8
BLACK
6
CONTINUOUS
10
1.24227
20
0.903606
11
1.24154
21
0.910564
0
LINE
8
BLACK
6
CONTINUOUS
10
1.24154
20
0.910564
11
1.24227
21
0.917521
0
LINE
8
BLACK
6
CONTINUOUS
10
1.24227
20
0.917521
11
1.24443
21
0.924175
0
LINE
8
BLACK
6
CONTINUOUS
10
1.24443
20
0.924175
11
1.24793
21
0.930234
0
LINE
8
BLACK
6
CONTINUOUS
10
1.24793
20
0.930234
11
1.25261
21
0.935433
0
LINE
8
BLACK
6
CONTINUOUS
10
1.25261
20
0.935433
11
1.25827
21
0.939545
0
LINE
8
BLACK
6
CONTINUOUS
10
1.25827
20
0.939545
11
1.26466
21
0.94239
0
LINE
8
BLACK
6
CONTINUOUS
10
1.26466
20
0.94239
11
1.2715
21
0.943845
0
LINE
8
BLACK
6
CONTINUOUS
10
1.2715
20
0.943845
11
1.2785
21
0.943845
0
LINE
8
BLACK
6
CONTINUOUS
10
1.2785
20
0.943845
11
1.28534
21
0.94239
0
LINE
8
BLACK
6
CONTINUOUS
10
1.02268
20
0.987359
11
1.02965
21
0.9852
0
LINE
8
BLACK
6
CONTINUOUS
10
1.02965
20
0.9852
11
1.03607
21
0.981729
0
LINE
8
BLACK
6
CONTINUOUS
10
1.03607
20
0.981729
11
1.0417
21
0.977076
0
LINE
8
BLACK
6
CONTINUOUS
10
1.0417
20
0.977076
11
1.04631
21
0.971419
0
LINE
8
BLACK
6
CONTINUOUS
10
1.04631
20
0.971419
11
1.04974
21
0.964974
0
LINE
8
BLACK
6
CONTINUOUS
10
1.04974
20
0.964974
11
1.05185
21
0.957986
0
LINE
8
BLACK
6
CONTINUOUS
10
1.05185
20
0.957986
11
1.05256
21
0.950721
0
LINE
8
BLACK
6
CONTINUOUS
10
1.05256
20
0.950721
11
1.05254
21
0.949677
0
LINE
8
BLACK
6
CONTINUOUS
10
1.05254
20
0.949677
11
1.05163
21
0.942435
0
LINE
8
BLACK
6
CONTINUOUS
10
1.05163
20
0.942435
11
1.04933
21
0.935509
0
LINE
8
BLACK
6
CONTINUOUS
10
1.04933
20
0.935509
11
1.04572
21
0.929162
0
LINE
8
BLACK
6
CONTINUOUS
10
1.04572
20
0.929162
11
1.04095
21
0.923636
0
LINE
8
BLACK
6
CONTINUOUS
10
1.04095
20
0.923636
11
1.0352
21
0.919142
0
LINE
8
BLACK
6
CONTINUOUS
10
1.0352
20
0.919142
11
1.02868
21
0.915851
0
LINE
8
BLACK
6
CONTINUOUS
10
1.02868
20
0.915851
11
1.02165
21
0.913888
0
LINE
8
BLACK
6
CONTINUOUS
10
1.02165
20
0.913888
11
1.01437
21
0.913328
0
LINE
8
BLACK
6
CONTINUOUS
10
1.01437
20
0.913328
11
1.00713
21
0.914192
0
LINE
8
BLACK
6
CONTINUOUS
10
1.00713
20
0.914192
11
1.00018
21
0.916448
0
LINE
8
BLACK
6
CONTINUOUS
10
1.00018
20
0.916448
11
0.993812
21
0.920009
0
LINE
8
BLACK
6
CONTINUOUS
10
0.993812
20
0.920009
11
0.988253
21
0.92474
0
LINE
8
BLACK
6
CONTINUOUS
10
0.988253
20
0.92474
11
0.983719
21
0.930461
0
LINE
8
BLACK
6
CONTINUOUS
10
0.983719
20
0.930461
11
0.980382
21
0.936953
0
LINE
8
BLACK
6
CONTINUOUS
10
0.980382
20
0.936953
11
0.97837
21
0.94397
0
LINE
8
BLACK
6
CONTINUOUS
10
0.97837
20
0.94397
11
0.97776
21
0.951243
0
LINE
8
BLACK
6
CONTINUOUS
10
0.97776
20
0.951243
11
0.978573
21
0.958497
0
LINE
8
BLACK
6
CONTINUOUS
10
0.978573
20
0.958497
11
0.98078
21
0.965455
0
LINE
8
BLACK
6
CONTINUOUS
10
0.98078
20
0.965455
11
0.984297
21
0.971852
0
LINE
8
BLACK
6
CONTINUOUS
10
0.984297
20
0.971852
11
0.988989
21
0.977444
0
LINE
8
BLACK
6
CONTINUOUS
10
0.988989
20
0.977444
11
0.994678
21
0.982018
0
LINE
8
BLACK
6
CONTINUOUS
10
0.994678
20
0.982018
11
1.00115
21
0.985399
0
LINE
8
BLACK
6
CONTINUOUS
10
1.00115
20
0.985399
11
1.00815
21
0.98746
0
LINE
8
BLACK
6
CONTINUOUS
10
1.00815
20
0.98746
11
1.01542
21
0.988122
0
LINE
8
BLACK
6
CONTINUOUS
10
1.01542
20
0.988122
11
1.02268
21
0.987359
0
LINE
8
BLACK
6
CONTINUOUS
10
1.38639
20
1.09274
11
1.39642
21
1.09041
0
LINE
8
BLACK
6
CONTINUOUS
10
1.39642
20
1.09041
11
1.40601
21
1.0867
0
LINE
8
BLACK
6
CONTINUOUS
10
1.40601
20
1.0867
11
1.41499
21
1.08168
0
LINE
8
BLACK
6
CONTINUOUS
10
1.41499
20
1.08168
11
1.42317
21
1.07543
0
LINE
8
BLACK
6
CONTINUOUS
10
1.42317
20
1.07543
11
1.43038
21
1.0681
0
LINE
8
BLACK
6
CONTINUOUS
10
1.43038
20
1.0681
11
1.4365
21
1.05983
0
LINE
8
BLACK
6
CONTINUOUS
10
1.4365
20
1.05983
11
1.44138
21
1.05077
0
LINE
8
BLACK
6
CONTINUOUS
10
1.44138
20
1.05077
11
1.44494
21
1.04112
0
LINE
8
BLACK
6
CONTINUOUS
10
1.44494
20
1.04112
11
1.44711
21
1.03106
0
LINE
8
BLACK
6
CONTINUOUS
10
1.44711
20
1.03106
11
1.44783
21
1.0208
0
LINE
8
BLACK
6
CONTINUOUS
10
1.44783
20
1.0208
11
1.44769
21
1.01623
0
LINE
8
BLACK
6
CONTINUOUS
10
1.44769
20
1.01623
11
1.44632
21
1.00603
0
LINE
8
BLACK
6
CONTINUOUS
10
1.44632
20
1.00603
11
1.44353
21
0.996128
0
LINE
8
BLACK
6
CONTINUOUS
10
1.44353
20
0.996128
11
1.43937
21
0.986719
0
LINE
8
BLACK
6
CONTINUOUS
10
1.43937
20
0.986719
11
1.43392
21
0.977989
0
LINE
8
BLACK
6
CONTINUOUS
10
1.43392
20
0.977989
11
1.4273
21
0.970113
0
LINE
8
BLACK
6
CONTINUOUS
10
1.4273
20
0.970113
11
1.41964
21
0.963249
0
LINE
8
BLACK
6
CONTINUOUS
10
1.41964
20
0.963249
11
1.41109
21
0.957534
0
LINE
8
BLACK
6
CONTINUOUS
10
1.41109
20
0.957534
11
1.40181
21
0.95308
0
LINE
8
BLACK
6
CONTINUOUS
10
1.40181
20
0.95308
11
1.392
21
0.949978
0
LINE
8
BLACK
6
CONTINUOUS
10
1.392
20
0.949978
11
1.38185
21
0.948289
0
LINE
8
BLACK
6
CONTINUOUS
10
1.38185
20
0.948289
11
1.37157
21
0.948046
0
LINE
8
BLACK
6
CONTINUOUS
10
1.37157
20
0.948046
11
1.36135
21
0.949255
0
LINE
8
BLACK
6
CONTINUOUS
10
1.36135
20
0.949255
11
1.35141
21
0.951892
0
LINE
8
BLACK
6
CONTINUOUS
10
1.35141
20
0.951892
11
1.34193
21
0.955904
0
LINE
8
BLACK
6
CONTINUOUS
10
1.34193
20
0.955904
11
1.33312
21
0.96121
0
LINE
8
BLACK
6
CONTINUOUS
10
1.33312
20
0.96121
11
1.32514
21
0.967706
0
LINE
8
BLACK
6
CONTINUOUS
10
1.32514
20
0.967706
11
1.31816
21
0.975261
0
LINE
8
BLACK
6
CONTINUOUS
10
1.31816
20
0.975261
11
1.31231
21
0.983724
0
LINE
8
BLACK
6
CONTINUOUS
10
1.31231
20
0.983724
11
1.30771
21
0.992927
0
LINE
8
BLACK
6
CONTINUOUS
10
1.30771
20
0.992927
11
1.30445
21
1.00269
0
LINE
8
BLACK
6
CONTINUOUS
10
1.30445
20
1.00269
11
1.30261
21
1.01281
0
LINE
8
BLACK
6
CONTINUOUS
10
1.30261
20
1.01281
11
1.3022
21
1.02309
0
LINE
8
BLACK
6
CONTINUOUS
10
1.3022
20
1.02309
11
1.30325
21
1.03332
0
LINE
8
BLACK
6
CONTINUOUS
10
1.30325
20
1.03332
11
1.30573
21
1.04331
0
LINE
8
BLACK
6
CONTINUOUS
10
1.30573
20
1.04331
11
1.30959
21
1.05284
0
LINE
8
BLACK
6
CONTINUOUS
10
1.30959
20
1.05284
11
1.31476
21
1.06174
0
LINE
8
BLACK
6
CONTINUOUS
10
1.31476
20
1.06174
11
1.32113
21
1.06982
0
LINE
8
BLACK
6
CONTINUOUS
10
1.32113
20
1.06982
11
1.32857
21
1.07692
0
LINE
8
BLACK
6
CONTINUOUS
10
1.32857
20
1.07692
11
1.33694
21
1.0829
0
LINE
8
BLACK
6
CONTINUOUS
10
1.33694
20
1.0829
11
1.34607
21
1.08764
0
LINE
8
BLACK
6
CONTINUOUS
10
1.34607
20
1.08764
11
1.35578
21
1.09105
0
LINE
8
BLACK
6
CONTINUOUS
10
1.35578
20
1.09105
11
1.36587
21
1.09306
0
LINE
8
BLACK
6
CONTINUOUS
10
1.36587
20
1.09306
11
1.37614
21
1.09363
0
LINE
8
BLACK
6
CONTINUOUS
10
1.37614
20
1.09363
11
1.38639
21
1.09274
0
LINE
8
BLACK
6
CONTINUOUS
10
1.02268
20
1.07752
11
1.02965
21
1.07536
0
LINE
8
BLACK
6
CONTINUOUS
10
1.02965
20
1.07536
11
1.03607
21
1.07189
0
LINE
8
BLACK
6
CONTINUOUS
10
1.03607
20
1.07189
11
1.0417
21
1.06723
0
LINE
8
BLACK
6
CONTINUOUS
10
1.0417
20
1.06723
11
1.04631
21
1.06158
0
LINE
8
BLACK
6
CONTINUOUS
10
1.04631
20
1.06158
11
1.04974
21
1.05513
0
LINE
8
BLACK
6
CONTINUOUS
10
1.04974
20
1.05513
11
1.05185
21
1.04814
0
LINE
8
BLACK
6
CONTINUOUS
10
1.05185
20
1.04814
11
1.05256
21
1.04088
0
LINE
8
BLACK
6
CONTINUOUS
10
1.05256
20
1.04088
11
1.05254
21
1.03983
0
LINE
8
BLACK
6
CONTINUOUS
10
1.05254
20
1.03983
11
1.05163
21
1.03259
0
LINE
8
BLACK
6
CONTINUOUS
10
1.05163
20
1.03259
11
1.04933
21
1.02567
0
LINE
8
BLACK
6
CONTINUOUS
10
1.04933
20
1.02567
11
1.04572
21
1.01932
0
LINE
8
BLACK
6
CONTINUOUS
10
1.04572
20
1.01932
11
1.04095
21
1.01379
0
LINE
8
BLACK
6
CONTINUOUS
10
1.04095
20
1.01379
11
1.0352
21
1.0093
0
LINE
8
BLACK
6
CONTINUOUS
10
1.0352
20
1.0093
11
1.02868
21
1.00601
0
LINE
8
BLACK
6
CONTINUOUS
10
1.02868
20
1.00601
11
1.02165
21
1.00405
0
LINE
8
BLACK
6
CONTINUOUS
10
1.02165
20
1.00405
11
1.01437
21
1.00349
0
LINE
8
BLACK
6
CONTINUOUS
10
1.01437
20
1.00349
11
1.00713
21
1.00435
0
LINE
8
BLACK
6
CONTINUOUS
10
1.00713
20
1.00435
11
1.00018
21
1.00661
0
LINE
8
BLACK
6
CONTINUOUS
10
1.00018
20
1.00661
11
0.993812
21
1.01017
0
LINE
8
BLACK
6
CONTINUOUS
10
0.993812
20
1.01017
11
0.988253
21
1.0149
0
LINE
8
BLACK
6
CONTINUOUS
10
0.988253
20
1.0149
11
0.983719
21
1.02062
0
LINE
8
BLACK
6
CONTINUOUS
10
0.983719
20
1.02062
11
0.980382
21
1.02711
0
LINE
8
BLACK
6
CONTINUOUS
10
0.980382
20
1.02711
11
0.97837
21
1.03413
0
LINE
8
BLACK
6
CONTINUOUS
10
0.97837
20
1.03413
11
0.97776
21
1.0414
0
LINE
8
BLACK
6
CONTINUOUS
10
0.97776
20
1.0414
11
0.978573
21
1.04865
0
LINE
8
BLACK
6
CONTINUOUS
10
0.978573
20
1.04865
11
0.98078
21
1.05561
0
LINE
8
BLACK
6
CONTINUOUS
10
0.98078
20
1.05561
11
0.984297
21
1.06201
0
LINE
8
BLACK
6
CONTINUOUS
10
0.984297
20
1.06201
11
0.988989
21
1.0676
0
LINE
8
BLACK
6
CONTINUOUS
10
0.988989
20
1.0676
11
0.994678
21
1.07218
0
LINE
8
BLACK
6
CONTINUOUS
10
0.994678
20
1.07218
11
1.00115
21
1.07556
0
LINE
8
BLACK
6
CONTINUOUS
10
1.00115
20
1.07556
11
1.00815
21
1.07762
0
LINE
8
BLACK
6
CONTINUOUS
10
1.00815
20
1.07762
11
1.01542
21
1.07828
0
LINE
8
BLACK
6
CONTINUOUS
10
1.01542
20
1.07828
11
1.02268
21
1.07752
0
LINE
8
BLACK
6
CONTINUOUS
10
1.24919
20
1.14322
11
1.25814
21
1.14082
0
LINE
8
BLACK
6
CONTINUOUS
10
1.25814
20
1.14082
11
1.26654
21
1.13691
0
LINE
8
BLACK
6
CONTINUOUS
10
1.26654
20
1.13691
11
1.27412
21
1.13159
0
LINE
8
BLACK
6
CONTINUOUS
10
1.27412
20
1.13159
11
1.28068
21
1.12504
0
LINE
8
BLACK
6
CONTINUOUS
10
1.28068
20
1.12504
11
1.28599
21
1.11745
0
LINE
8
BLACK
6
CONTINUOUS
10
1.28599
20
1.11745
11
1.2899
21
1.10906
0
LINE
8
BLACK
6
CONTINUOUS
10
1.2899
20
1.10906
11
1.2923
21
1.10011
0
LINE
8
BLACK
6
CONTINUOUS
10
1.2923
20
1.10011
11
1.29311
21
1.09088
0
LINE
8
BLACK
6
CONTINUOUS
10
1.29311
20
1.09088
11
1.2923
21
1.08165
0
LINE
8
BLACK
6
CONTINUOUS
10
1.2923
20
1.08165
11
1.2899
21
1.0727
0
LINE
8
BLACK
6
CONTINUOUS
10
1.2899
20
1.0727
11
1.28599
21
1.0643
0
LINE
8
BLACK
6
CONTINUOUS
10
1.28599
20
1.0643
11
1.28068
21
1.05671
0
LINE
8
BLACK
6
CONTINUOUS
10
1.28068
20
1.05671
11
1.27412
21
1.05016
0
LINE
8
BLACK
6
CONTINUOUS
10
1.27412
20
1.05016
11
1.26654
21
1.04485
0
LINE
8
BLACK
6
CONTINUOUS
10
1.26654
20
1.04485
11
1.25814
21
1.04093
0
LINE
8
BLACK
6
CONTINUOUS
10
1.25814
20
1.04093
11
1.24919
21
1.03854
0
LINE
8
BLACK
6
CONTINUOUS
10
1.24919
20
1.03854
11
1.23996
21
1.03773
0
LINE
8
BLACK
6
CONTINUOUS
10
1.23996
20
1.03773
11
1.23073
21
1.03854
0
LINE
8
BLACK
6
CONTINUOUS
10
1.23073
20
1.03854
11
1.22178
21
1.04093
0
LINE
8
BLACK
6
CONTINUOUS
10
1.22178
20
1.04093
11
1.21339
21
1.04485
0
LINE
8
BLACK
6
CONTINUOUS
10
1.21339
20
1.04485
11
1.2058
21
1.05016
0
LINE
8
BLACK
6
CONTINUOUS
10
1.2058
20
1.05016
11
1.19925
21
1.05671
0
LINE
8
BLACK
6
CONTINUOUS
10
1.19925
20
1.05671
11
1.19393
21
1.0643
0
LINE
8
BLACK
6
CONTINUOUS
10
1.19393
20
1.0643
11
1.19002
21
1.0727
0
LINE
8
BLACK
6
CONTINUOUS
10
1.19002
20
1.0727
11
1.18762
21
1.08165
0
LINE
8
BLACK
6
CONTINUOUS
10
1.18762
20
1.08165
11
1.18681
21
1.09088
0
LINE
8
BLACK
6
CONTINUOUS
10
1.18681
20
1.09088
11
1.18762
21
1.10011
0
LINE
8
BLACK
6
CONTINUOUS
10
1.18762
20
1.10011
11
1.19002
21
1.10906
0
LINE
8
BLACK
6
CONTINUOUS
10
1.19002
20
1.10906
11
1.19393
21
1.11745
0
LINE
8
BLACK
6
CONTINUOUS
10
1.19393
20
1.11745
11
1.19925
21
1.12504
0
LINE
8
BLACK
6
CONTINUOUS
10
1.19925
20
1.12504
11
1.2058
21
1.13159
0
LINE
8
BLACK
6
CONTINUOUS
10
1.2058
20
1.13159
11
1.21339
21
1.13691
0
LINE
8
BLACK
6
CONTINUOUS
10
1.21339
20
1.13691
11
1.22178
21
1.14082
0
LINE
8
BLACK
6
CONTINUOUS
10
1.22178
20
1.14082
11
1.23073
21
1.14322
0
LINE
8
BLACK
6
CONTINUOUS
10
1.23073
20
1.14322
11
1.23996
21
1.14403
0
LINE
8
BLACK
6
CONTINUOUS
10
1.23996
20
1.14403
11
1.24919
21
1.14322
0
LINE
8
BLACK
6
CONTINUOUS
10
1.24919
20
1.35306
11
1.25814
21
1.35067
0
LINE
8
BLACK
6
CONTINUOUS
10
1.25814
20
1.35067
11
1.26654
21
1.34675
0
LINE
8
BLACK
6
CONTINUOUS
10
1.26654
20
1.34675
11
1.27412
21
1.34144
0
LINE
8
BLACK
6
CONTINUOUS
10
1.27412
20
1.34144
11
1.28068
21
1.33489
0
LINE
8
BLACK
6
CONTINUOUS
10
1.28068
20
1.33489
11
1.28599
21
1.3273
0
LINE
8
BLACK
6
CONTINUOUS
10
1.28599
20
1.3273
11
1.2899
21
1.3189
0
LINE
8
BLACK
6
CONTINUOUS
10
1.2899
20
1.3189
11
1.2923
21
1.30995
0
LINE
8
BLACK
6
CONTINUOUS
10
1.2923
20
1.30995
11
1.29311
21
1.30072
0
LINE
8
BLACK
6
CONTINUOUS
10
1.29311
20
1.30072
11
1.2923
21
1.29149
0
LINE
8
BLACK
6
CONTINUOUS
10
1.2923
20
1.29149
11
1.2899
21
1.28254
0
LINE
8
BLACK
6
CONTINUOUS
10
1.2899
20
1.28254
11
1.28599
21
1.27415
0
LINE
8
BLACK
6
CONTINUOUS
10
1.28599
20
1.27415
11
1.28068
21
1.26656
0
LINE
8
BLACK
6
CONTINUOUS
10
1.28068
20
1.26656
11
1.27412
21
1.26001
0
LINE
8
BLACK
6
CONTINUOUS
10
1.27412
20
1.26001
11
1.26654
21
1.25469
0
LINE
8
BLACK
6
CONTINUOUS
10
1.26654
20
1.25469
11
1.25814
21
1.25078
0
LINE
8
BLACK
6
CONTINUOUS
10
1.25814
20
1.25078
11
1.24919
21
1.24838
0
LINE
8
BLACK
6
CONTINUOUS
10
1.24919
20
1.24838
11
1.23996
21
1.24757
0
LINE
8
BLACK
6
CONTINUOUS
10
1.23996
20
1.24757
11
1.23073
21
1.24838
0
LINE
8
BLACK
6
CONTINUOUS
10
1.23073
20
1.24838
11
1.22178
21
1.25078
0
LINE
8
BLACK
6
CONTINUOUS
10
1.22178
20
1.25078
11
1.21339
21
1.25469
0
LINE
8
BLACK
6
CONTINUOUS
10
1.21339
20
1.25469
11
1.2058
21
1.26001
0
LINE
8
BLACK
6
CONTINUOUS
10
1.2058
20
1.26001
11
1.19925
21
1.26656
0
LINE
8
BLACK
6
CONTINUOUS
10
1.19925
20
1.26656
11
1.19393
21
1.27415
0
LINE
8
BLACK
6
CONTINUOUS
10
1.19393
20
1.27415
11
1.19002
21
1.28254
0
LINE
8
BLACK
6
CONTINUOUS
10
1.19002
20
1.28254
11
1.18762
21
1.29149
0
LINE
8
BLACK
6
CONTINUOUS
10
1.18762
20
1.29149
11
1.18681
21
1.30072
0
LINE
8
BLACK
6
CONTINUOUS
10
1.18681
20
1.30072
11
1.18762
21
1.30995
0
LINE
8
BLACK
6
CONTINUOUS
10
1.18762
20
1.30995
11
1.19002
21
1.3189
0
LINE
8
BLACK
6
CONTINUOUS
10
1.19002
20
1.3189
11
1.19393
21
1.3273
0
LINE
8
BLACK
6
CONTINUOUS
10
1.19393
20
1.3273
11
1.19925
21
1.33489
0
LINE
8
BLACK
6
CONTINUOUS
10
1.19925
20
1.33489
11
1.2058
21
1.34144
0
LINE
8
BLACK
6
CONTINUOUS
10
1.2058
20
1.34144
11
1.21339
21
1.34675
0
LINE
8
BLACK
6
CONTINUOUS
10
1.21339
20
1.34675
11
1.22178
21
1.35067
0
LINE
8
BLACK
6
CONTINUOUS
10
1.22178
20
1.35067
11
1.23073
21
1.35306
0
LINE
8
BLACK
6
CONTINUOUS
10
1.23073
20
1.35306
11
1.23996
21
1.35387
0
LINE
8
BLACK
6
CONTINUOUS
10
1.23996
20
1.35387
11
1.24919
21
1.35306
0
LINE
8
BLACK
6
CONTINUOUS
10
0.178013
20
1.32307
11
0.180568
21
1.32137
0
LINE
8
BLACK
6
CONTINUOUS
10
0.180568
20
1.32137
11
0.182275
21
1.31881
0
LINE
8
BLACK
6
CONTINUOUS
10
0.182275
20
1.31881
11
0.182874
21
1.3158
0
LINE
8
BLACK
6
CONTINUOUS
10
0.182874
20
1.3158
11
0.182874
21
1.2558
0
LINE
8
BLACK
6
CONTINUOUS
10
0.182874
20
1.2558
11
0.182275
21
1.25279
0
LINE
8
BLACK
6
CONTINUOUS
10
0.182275
20
1.25279
11
0.180568
21
1.25023
0
LINE
8
BLACK
6
CONTINUOUS
10
0.180568
20
1.25023
11
0.178013
21
1.24853
0
LINE
8
BLACK
6
CONTINUOUS
10
0.178013
20
1.24853
11
0.175
21
1.24793
0
LINE
8
BLACK
6
CONTINUOUS
10
0.175
20
1.24793
11
0.115
21
1.24793
0
LINE
8
BLACK
6
CONTINUOUS
10
0.115
20
1.24793
11
0.111987
21
1.24853
0
LINE
8
BLACK
6
CONTINUOUS
10
0.111987
20
1.24853
11
0.109432
21
1.25023
0
LINE
8
BLACK
6
CONTINUOUS
10
0.109432
20
1.25023
11
0.107725
21
1.25279
0
LINE
8
BLACK
6
CONTINUOUS
10
0.107725
20
1.25279
11
0.107126
21
1.2558
0
LINE
8
BLACK
6
CONTINUOUS
10
0.107126
20
1.2558
11
0.107126
21
1.3158
0
LINE
8
BLACK
6
CONTINUOUS
10
0.107126
20
1.3158
11
0.107725
21
1.31881
0
LINE
8
BLACK
6
CONTINUOUS
10
0.107725
20
1.31881
11
0.109432
21
1.32137
0
LINE
8
BLACK
6
CONTINUOUS
10
0.109432
20
1.32137
11
0.111987
21
1.32307
0
LINE
8
BLACK
6
CONTINUOUS
10
0.111987
20
1.32307
11
0.115
21
1.32367
0
LINE
8
BLACK
6
CONTINUOUS
10
0.115
20
1.32367
11
0.175
21
1.32367
0
LINE
8
BLACK
6
CONTINUOUS
10
0.175
20
1.32367
11
0.178013
21
1.32307
0
LINE
8
BLACK
6
CONTINUOUS
10
0.278013
20
1.32307
11
0.280568
21
1.32137
0
LINE
8
BLACK
6
CONTINUOUS
10
0.280568
20
1.32137
11
0.282275
21
1.31881
0
LINE
8
BLACK
6
CONTINUOUS
10
0.282275
20
1.31881
11
0.282874
21
1.3158
0
LINE
8
BLACK
6
CONTINUOUS
10
0.282874
20
1.3158
11
0.282874
21
1.2558
0
LINE
8
BLACK
6
CONTINUOUS
10
0.282874
20
1.2558
11
0.282275
21
1.25279
0
LINE
8
BLACK
6
CONTINUOUS
10
0.282275
20
1.25279
11
0.280568
21
1.25023
0
LINE
8
BLACK
6
CONTINUOUS
10
0.280568
20
1.25023
11
0.278013
21
1.24853
0
LINE
8
BLACK
6
CONTINUOUS
10
0.278013
20
1.24853
11
0.275
21
1.24793
0
LINE
8
BLACK
6
CONTINUOUS
10
0.275
20
1.24793
11
0.215
21
1.24793
0
LINE
8
BLACK
6
CONTINUOUS
10
0.215
20
1.24793
11
0.211987
21
1.24853
0
LINE
8
BLACK
6
CONTINUOUS
10
0.211987
20
1.24853
11
0.209432
21
1.25023
0
LINE
8
BLACK
6
CONTINUOUS
10
0.209432
20
1.25023
11
0.207725
21
1.25279
0
LINE
8
BLACK
6
CONTINUOUS
10
0.207725
20
1.25279
11
0.207126
21
1.2558
0
LINE
8
BLACK
6
CONTINUOUS
10
0.207126
20
1.2558
11
0.207126
21
1.3158
0
LINE
8
BLACK
6
CONTINUOUS
10
0.207126
20
1.3158
11
0.207725
21
1.31881
0
LINE
8
BLACK
6
CONTINUOUS
10
0.207725
20
1.31881
11
0.209432
21
1.32137
0
LINE
8
BLACK
6
CONTINUOUS
10
0.209432
20
1.32137
11
0.211987
21
1.32307
0
LINE
8
BLACK
6
CONTINUOUS
10
0.211987
20
1.32307
11
0.215
21
1.32367
0
LINE
8
BLACK
6
CONTINUOUS
10
0.215
20
1.32367
11
0.275
21
1.32367
0
LINE
8
BLACK
6
CONTINUOUS
10
0.275
20
1.32367
11
0.278013
21
1.32307
0
LINE
8
BLACK
6
CONTINUOUS
10
1.38639
20
1.44274
11
1.39642
21
1.44041
0
LINE
8
BLACK
6
CONTINUOUS
10
1.39642
20
1.44041
11
1.40601
21
1.4367
0
LINE
8
BLACK
6
CONTINUOUS
10
1.40601
20
1.4367
11
1.41499
21
1.43168
0
LINE
8
BLACK
6
CONTINUOUS
10
1.41499
20
1.43168
11
1.42317
21
1.42543
0
LINE
8
BLACK
6
CONTINUOUS
10
1.42317
20
1.42543
11
1.43038
21
1.4181
0
LINE
8
BLACK
6
CONTINUOUS
10
1.43038
20
1.4181
11
1.4365
21
1.40983
0
LINE
8
BLACK
6
CONTINUOUS
10
1.4365
20
1.40983
11
1.44138
21
1.40077
0
LINE
8
BLACK
6
CONTINUOUS
10
1.44138
20
1.40077
11
1.44494
21
1.39112
0
LINE
8
BLACK
6
CONTINUOUS
10
1.44494
20
1.39112
11
1.44711
21
1.38106
0
LINE
8
BLACK
6
CONTINUOUS
10
1.44711
20
1.38106
11
1.44783
21
1.3708
0
LINE
8
BLACK
6
CONTINUOUS
10
1.44783
20
1.3708
11
1.44769
21
1.36623
0
LINE
8
BLACK
6
CONTINUOUS
10
1.44769
20
1.36623
11
1.44632
21
1.35603
0
LINE
8
BLACK
6
CONTINUOUS
10
1.44632
20
1.35603
11
1.44353
21
1.34613
0
LINE
8
BLACK
6
CONTINUOUS
10
1.44353
20
1.34613
11
1.43937
21
1.33672
0
LINE
8
BLACK
6
CONTINUOUS
10
1.43937
20
1.33672
11
1.43392
21
1.32799
0
LINE
8
BLACK
6
CONTINUOUS
10
1.43392
20
1.32799
11
1.4273
21
1.32011
0
LINE
8
BLACK
6
CONTINUOUS
10
1.4273
20
1.32011
11
1.41964
21
1.31325
0
LINE
8
BLACK
6
CONTINUOUS
10
1.41964
20
1.31325
11
1.41109
21
1.30753
0
LINE
8
BLACK
6
CONTINUOUS
10
1.41109
20
1.30753
11
1.40181
21
1.30308
0
LINE
8
BLACK
6
CONTINUOUS
10
1.40181
20
1.30308
11
1.392
21
1.29998
0
LINE
8
BLACK
6
CONTINUOUS
10
1.392
20
1.29998
11
1.38185
21
1.29829
0
LINE
8
BLACK
6
CONTINUOUS
10
1.38185
20
1.29829
11
1.37157
21
1.29805
0
LINE
8
BLACK
6
CONTINUOUS
10
1.37157
20
1.29805
11
1.36135
21
1.29926
0
LINE
8
BLACK
6
CONTINUOUS
10
1.36135
20
1.29926
11
1.35141
21
1.30189
0
LINE
8
BLACK
6
CONTINUOUS
10
1.35141
20
1.30189
11
1.34193
21
1.3059
0
LINE
8
BLACK
6
CONTINUOUS
10
1.34193
20
1.3059
11
1.33312
21
1.31121
0
LINE
8
BLACK
6
CONTINUOUS
10
1.33312
20
1.31121
11
1.32514
21
1.31771
0
LINE
8
BLACK
6
CONTINUOUS
10
1.32514
20
1.31771
11
1.31816
21
1.32526
0
LINE
8
BLACK
6
CONTINUOUS
10
1.31816
20
1.32526
11
1.31231
21
1.33372
0
LINE
8
BLACK
6
CONTINUOUS
10
1.31231
20
1.33372
11
1.30771
21
1.34293
0
LINE
8
BLACK
6
CONTINUOUS
10
1.30771
20
1.34293
11
1.30445
21
1.35269
0
LINE
8
BLACK
6
CONTINUOUS
10
1.30445
20
1.35269
11
1.30261
21
1.36281
0
LINE
8
BLACK
6
CONTINUOUS
10
1.30261
20
1.36281
11
1.3022
21
1.37309
0
LINE
8
BLACK
6
CONTINUOUS
10
1.3022
20
1.37309
11
1.30325
21
1.38332
0
LINE
8
BLACK
6
CONTINUOUS
10
1.30325
20
1.38332
11
1.30573
21
1.39331
0
LINE
8
BLACK
6
CONTINUOUS
10
1.30573
20
1.39331
11
1.30959
21
1.40284
0
LINE
8
BLACK
6
CONTINUOUS
10
1.30959
20
1.40284
11
1.31476
21
1.41174
0
LINE
8
BLACK
6
CONTINUOUS
10
1.31476
20
1.41174
11
1.32113
21
1.41982
0
LINE
8
BLACK
6
CONTINUOUS
10
1.32113
20
1.41982
11
1.32857
21
1.42692
0
LINE
8
BLACK
6
CONTINUOUS
10
1.32857
20
1.42692
11
1.33694
21
1.4329
0
LINE
8
BLACK
6
CONTINUOUS
10
1.33694
20
1.4329
11
1.34607
21
1.43764
0
LINE
8
BLACK
6
CONTINUOUS
10
1.34607
20
1.43764
11
1.35578
21
1.44105
0
LINE
8
BLACK
6
CONTINUOUS
10
1.35578
20
1.44105
11
1.36587
21
1.44306
0
LINE
8
BLACK
6
CONTINUOUS
10
1.36587
20
1.44306
11
1.37614
21
1.44363
0
LINE
8
BLACK
6
CONTINUOUS
10
1.37614
20
1.44363
11
1.38639
21
1.44274
0
LINE
8
BLACK
6
CONTINUOUS
10
1.02268
20
1.38736
11
1.02965
21
1.3852
0
LINE
8
BLACK
6
CONTINUOUS
10
1.02965
20
1.3852
11
1.03607
21
1.38173
0
LINE
8
BLACK
6
CONTINUOUS
10
1.03607
20
1.38173
11
1.0417
21
1.37708
0
LINE
8
BLACK
6
CONTINUOUS
10
1.0417
20
1.37708
11
1.04631
21
1.37142
0
LINE
8
BLACK
6
CONTINUOUS
10
1.04631
20
1.37142
11
1.04974
21
1.36497
0
LINE
8
BLACK
6
CONTINUOUS
10
1.04974
20
1.36497
11
1.05185
21
1.35799
0
LINE
8
BLACK
6
CONTINUOUS
10
1.05185
20
1.35799
11
1.05256
21
1.35072
0
LINE
8
BLACK
6
CONTINUOUS
10
1.05256
20
1.35072
11
1.05254
21
1.34968
0
LINE
8
BLACK
6
CONTINUOUS
10
1.05254
20
1.34968
11
1.05163
21
1.34244
0
LINE
8
BLACK
6
CONTINUOUS
10
1.05163
20
1.34244
11
1.04933
21
1.33551
0
LINE
8
BLACK
6
CONTINUOUS
10
1.04933
20
1.33551
11
1.04572
21
1.32916
0
LINE
8
BLACK
6
CONTINUOUS
10
1.04572
20
1.32916
11
1.04095
21
1.32364
0
LINE
8
BLACK
6
CONTINUOUS
10
1.04095
20
1.32364
11
1.0352
21
1.31914
0
LINE
8
BLACK
6
CONTINUOUS
10
1.0352
20
1.31914
11
1.02868
21
1.31585
0
LINE
8
BLACK
6
CONTINUOUS
10
1.02868
20
1.31585
11
1.02165
21
1.31389
0
LINE
8
BLACK
6
CONTINUOUS
10
1.02165
20
1.31389
11
1.01437
21
1.31333
0
LINE
8
BLACK
6
CONTINUOUS
10
1.01437
20
1.31333
11
1.00713
21
1.31419
0
LINE
8
BLACK
6
CONTINUOUS
10
1.00713
20
1.31419
11
1.00018
21
1.31645
0
LINE
8
BLACK
6
CONTINUOUS
10
1.00018
20
1.31645
11
0.993812
21
1.32001
0
LINE
8
BLACK
6
CONTINUOUS
10
0.993812
20
1.32001
11
0.988253
21
1.32474
0
LINE
8
BLACK
6
CONTINUOUS
10
0.988253
20
1.32474
11
0.983719
21
1.33046
0
LINE
8
BLACK
6
CONTINUOUS
10
0.983719
20
1.33046
11
0.980382
21
1.33695
0
LINE
8
BLACK
6
CONTINUOUS
10
0.980382
20
1.33695
11
0.97837
21
1.34397
0
LINE
8
BLACK
6
CONTINUOUS
10
0.97837
20
1.34397
11
0.97776
21
1.35124
0
LINE
8
BLACK
6
CONTINUOUS
10
0.97776
20
1.35124
11
0.978573
21
1.3585
0
LINE
8
BLACK
6
CONTINUOUS
10
0.978573
20
1.3585
11
0.98078
21
1.36546
0
LINE
8
BLACK
6
CONTINUOUS
10
0.98078
20
1.36546
11
0.984297
21
1.37185
0
LINE
8
BLACK
6
CONTINUOUS
10
0.984297
20
1.37185
11
0.988989
21
1.37744
0
LINE
8
BLACK
6
CONTINUOUS
10
0.988989
20
1.37744
11
0.994678
21
1.38202
0
LINE
8
BLACK
6
CONTINUOUS
10
0.994678
20
1.38202
11
1.00115
21
1.3854
0
LINE
8
BLACK
6
CONTINUOUS
10
1.00115
20
1.3854
11
1.00815
21
1.38746
0
LINE
8
BLACK
6
CONTINUOUS
10
1.00815
20
1.38746
11
1.01542
21
1.38812
0
LINE
8
BLACK
6
CONTINUOUS
10
1.01542
20
1.38812
11
1.02268
21
1.38736
0
LINE
8
BLACK
6
CONTINUOUS
10
0.178013
20
1.42307
11
0.180568
21
1.42137
0
LINE
8
BLACK
6
CONTINUOUS
10
0.180568
20
1.42137
11
0.182275
21
1.41881
0
LINE
8
BLACK
6
CONTINUOUS
10
0.182275
20
1.41881
11
0.182874
21
1.4158
0
LINE
8
BLACK
6
CONTINUOUS
10
0.182874
20
1.4158
11
0.182874
21
1.3558
0
LINE
8
BLACK
6
CONTINUOUS
10
0.182874
20
1.3558
11
0.182275
21
1.35279
0
LINE
8
BLACK
6
CONTINUOUS
10
0.182275
20
1.35279
11
0.180568
21
1.35023
0
LINE
8
BLACK
6
CONTINUOUS
10
0.180568
20
1.35023
11
0.178013
21
1.34853
0
LINE
8
BLACK
6
CONTINUOUS
10
0.178013
20
1.34853
11
0.175
21
1.34793
0
LINE
8
BLACK
6
CONTINUOUS
10
0.175
20
1.34793
11
0.115
21
1.34793
0
LINE
8
BLACK
6
CONTINUOUS
10
0.115
20
1.34793
11
0.111987
21
1.34853
0
LINE
8
BLACK
6
CONTINUOUS
10
0.111987
20
1.34853
11
0.109432
21
1.35023
0
LINE
8
BLACK
6
CONTINUOUS
10
0.109432
20
1.35023
11
0.107725
21
1.35279
0
LINE
8
BLACK
6
CONTINUOUS
10
0.107725
20
1.35279
11
0.107126
21
1.3558
0
LINE
8
BLACK
6
CONTINUOUS
10
0.107126
20
1.3558
11
0.107126
21
1.4158
0
LINE
8
BLACK
6
CONTINUOUS
10
0.107126
20
1.4158
11
0.107725
21
1.41881
0
LINE
8
BLACK
6
CONTINUOUS
10
0.107725
20
1.41881
11
0.109432
21
1.42137
0
LINE
8
BLACK
6
CONTINUOUS
10
0.109432
20
1.42137
11
0.111987
21
1.42307
0
LINE
8
BLACK
6
CONTINUOUS
10
0.111987
20
1.42307
11
0.115
21
1.42367
0
LINE
8
BLACK
6
CONTINUOUS
10
0.115
20
1.42367
11
0.175
21
1.42367
0
LINE
8
BLACK
6
CONTINUOUS
10
0.175
20
1.42367
11
0.178013
21
1.42307
0
LINE
8
BLACK
6
CONTINUOUS
10
0.278013
20
1.42307
11
0.280568
21
1.42137
0
LINE
8
BLACK
6
CONTINUOUS
10
0.280568
20
1.42137
11
0.282275
21
1.41881
0
LINE
8
BLACK
6
CONTINUOUS
10
0.282275
20
1.41881
11
0.282874
21
1.4158
0
LINE
8
BLACK
6
CONTINUOUS
10
0.282874
20
1.4158
11
0.282874
21
1.3558
0
LINE
8
BLACK
6
CONTINUOUS
10
0.282874
20
1.3558
11
0.282275
21
1.35279
0
LINE
8
BLACK
6
CONTINUOUS
10
0.282275
20
1.35279
11
0.280568
21
1.35023
0
LINE
8
BLACK
6
CONTINUOUS
10
0.280568
20
1.35023
11
0.278013
21
1.34853
0
LINE
8
BLACK
6
CONTINUOUS
10
0.278013
20
1.34853
11
0.275
21
1.34793
0
LINE
8
BLACK
6
CONTINUOUS
10
0.275
20
1.34793
11
0.215
21
1.34793
0
LINE
8
BLACK
6
CONTINUOUS
10
0.215
20
1.34793
11
0.211987
21
1.34853
0
LINE
8
BLACK
6
CONTINUOUS
10
0.211987
20
1.34853
11
0.209432
21
1.35023
0
LINE
8
BLACK
6
CONTINUOUS
10
0.209432
20
1.35023
11
0.207725
21
1.35279
0
LINE
8
BLACK
6
CONTINUOUS
10
0.207725
20
1.35279
11
0.207126
21
1.3558
0
LINE
8
BLACK
6
CONTINUOUS
10
0.207126
20
1.3558
11
0.207126
21
1.4158
0
LINE
8
BLACK
6
CONTINUOUS
10
0.207126
20
1.4158
11
0.207725
21
1.41881
0
LINE
8
BLACK
6
CONTINUOUS
10
0.207725
20
1.41881
11
0.209432
21
1.42137
0
LINE
8
BLACK
6
CONTINUOUS
10
0.209432
20
1.42137
11
0.211987
21
1.42307
0
LINE
8
BLACK
6
CONTINUOUS
10
0.211987
20
1.42307
11
0.215
21
1.42367
0
LINE
8
BLACK
6
CONTINUOUS
10
0.215
20
1.42367
11
0.275
21
1.42367
0
LINE
8
BLACK
6
CONTINUOUS
10
0.275
20
1.42367
11
0.278013
21
1.42307
0
LINE
8
BLACK
6
CONTINUOUS
10
1.02268
20
1.47752
11
1.02965
21
1.47536
0
LINE
8
BLACK
6
CONTINUOUS
10
1.02965
20
1.47536
11
1.03607
21
1.47189
0
LINE
8
BLACK
6
CONTINUOUS
10
1.03607
20
1.47189
11
1.0417
21
1.46723
0
LINE
8
BLACK
6
CONTINUOUS
10
1.0417
20
1.46723
11
1.04631
21
1.46158
0
LINE
8
BLACK
6
CONTINUOUS
10
1.04631
20
1.46158
11
1.04974
21
1.45513
0
LINE
8
BLACK
6
CONTINUOUS
10
1.04974
20
1.45513
11
1.05185
21
1.44814
0
LINE
8
BLACK
6
CONTINUOUS
10
1.05185
20
1.44814
11
1.05256
21
1.44088
0
LINE
8
BLACK
6
CONTINUOUS
10
1.05256
20
1.44088
11
1.05254
21
1.43983
0
LINE
8
BLACK
6
CONTINUOUS
10
1.05254
20
1.43983
11
1.05163
21
1.43259
0
LINE
8
BLACK
6
CONTINUOUS
10
1.05163
20
1.43259
11
1.04933
21
1.42567
0
LINE
8
BLACK
6
CONTINUOUS
10
1.04933
20
1.42567
11
1.04572
21
1.41932
0
LINE
8
BLACK
6
CONTINUOUS
10
1.04572
20
1.41932
11
1.04095
21
1.41379
0
LINE
8
BLACK
6
CONTINUOUS
10
1.04095
20
1.41379
11
1.0352
21
1.4093
0
LINE
8
BLACK
6
CONTINUOUS
10
1.0352
20
1.4093
11
1.02868
21
1.40601
0
LINE
8
BLACK
6
CONTINUOUS
10
1.02868
20
1.40601
11
1.02165
21
1.40405
0
LINE
8
BLACK
6
CONTINUOUS
10
1.02165
20
1.40405
11
1.01437
21
1.40349
0
LINE
8
BLACK
6
CONTINUOUS
10
1.01437
20
1.40349
11
1.00713
21
1.40435
0
LINE
8
BLACK
6
CONTINUOUS
10
1.00713
20
1.40435
11
1.00018
21
1.40661
0
LINE
8
BLACK
6
CONTINUOUS
10
1.00018
20
1.40661
11
0.993812
21
1.41017
0
LINE
8
BLACK
6
CONTINUOUS
10
0.993812
20
1.41017
11
0.988253
21
1.4149
0
LINE
8
BLACK
6
CONTINUOUS
10
0.988253
20
1.4149
11
0.983719
21
1.42062
0
LINE
8
BLACK
6
CONTINUOUS
10
0.983719
20
1.42062
11
0.980382
21
1.42711
0
LINE
8
BLACK
6
CONTINUOUS
10
0.980382
20
1.42711
11
0.97837
21
1.43413
0
LINE
8
BLACK
6
CONTINUOUS
10
0.97837
20
1.43413
11
0.97776
21
1.4414
0
LINE
8
BLACK
6
CONTINUOUS
10
0.97776
20
1.4414
11
0.978573
21
1.44865
0
LINE
8
BLACK
6
CONTINUOUS
10
0.978573
20
1.44865
11
0.98078
21
1.45561
0
LINE
8
BLACK
6
CONTINUOUS
10
0.98078
20
1.45561
11
0.984297
21
1.46201
0
LINE
8
BLACK
6
CONTINUOUS
10
0.984297
20
1.46201
11
0.988989
21
1.4676
0
LINE
8
BLACK
6
CONTINUOUS
10
0.988989
20
1.4676
11
0.994678
21
1.47218
0
LINE
8
BLACK
6
CONTINUOUS
10
0.994678
20
1.47218
11
1.00115
21
1.47556
0
LINE
8
BLACK
6
CONTINUOUS
10
1.00115
20
1.47556
11
1.00815
21
1.47762
0
LINE
8
BLACK
6
CONTINUOUS
10
1.00815
20
1.47762
11
1.01542
21
1.47828
0
LINE
8
BLACK
6
CONTINUOUS
10
1.01542
20
1.47828
11
1.02268
21
1.47752
0
LINE
8
BLACK
6
CONTINUOUS
10
1.21526
20
1.51247
11
1.22165
21
1.50962
0
LINE
8
BLACK
6
CONTINUOUS
10
1.22165
20
1.50962
11
1.22731
21
1.50551
0
LINE
8
BLACK
6
CONTINUOUS
10
1.22731
20
1.50551
11
1.23199
21
1.50031
0
LINE
8
BLACK
6
CONTINUOUS
10
1.23199
20
1.50031
11
1.23549
21
1.49425
0
LINE
8
BLACK
6
CONTINUOUS
10
1.23549
20
1.49425
11
1.23765
21
1.4876
0
LINE
8
BLACK
6
CONTINUOUS
10
1.23765
20
1.4876
11
1.23839
21
1.48064
0
LINE
8
BLACK
6
CONTINUOUS
10
1.23839
20
1.48064
11
1.23765
21
1.47368
0
LINE
8
BLACK
6
CONTINUOUS
10
1.23765
20
1.47368
11
1.23549
21
1.46703
0
LINE
8
BLACK
6
CONTINUOUS
10
1.23549
20
1.46703
11
1.23199
21
1.46097
0
LINE
8
BLACK
6
CONTINUOUS
10
1.23199
20
1.46097
11
1.22731
21
1.45577
0
LINE
8
BLACK
6
CONTINUOUS
10
1.22731
20
1.45577
11
1.22165
21
1.45166
0
LINE
8
BLACK
6
CONTINUOUS
10
1.22165
20
1.45166
11
1.21526
21
1.44882
0
LINE
8
BLACK
6
CONTINUOUS
10
1.21526
20
1.44882
11
1.20842
21
1.44736
0
LINE
8
BLACK
6
CONTINUOUS
10
1.20842
20
1.44736
11
1.20142
21
1.44736
0
LINE
8
BLACK
6
CONTINUOUS
10
1.20142
20
1.44736
11
1.19458
21
1.44882
0
LINE
8
BLACK
6
CONTINUOUS
10
1.19458
20
1.44882
11
1.18819
21
1.45166
0
LINE
8
BLACK
6
CONTINUOUS
10
1.18819
20
1.45166
11
1.18253
21
1.45577
0
LINE
8
BLACK
6
CONTINUOUS
10
1.18253
20
1.45577
11
1.17785
21
1.46097
0
LINE
8
BLACK
6
CONTINUOUS
10
1.17785
20
1.46097
11
1.17435
21
1.46703
0
LINE
8
BLACK
6
CONTINUOUS
10
1.17435
20
1.46703
11
1.17219
21
1.47368
0
LINE
8
BLACK
6
CONTINUOUS
10
1.17219
20
1.47368
11
1.17146
21
1.48064
0
LINE
8
BLACK
6
CONTINUOUS
10
1.17146
20
1.48064
11
1.17219
21
1.4876
0
LINE
8
BLACK
6
CONTINUOUS
10
1.17219
20
1.4876
11
1.17435
21
1.49425
0
LINE
8
BLACK
6
CONTINUOUS
10
1.17435
20
1.49425
11
1.17785
21
1.50031
0
LINE
8
BLACK
6
CONTINUOUS
10
1.17785
20
1.50031
11
1.18253
21
1.50551
0
LINE
8
BLACK
6
CONTINUOUS
10
1.18253
20
1.50551
11
1.18819
21
1.50962
0
LINE
8
BLACK
6
CONTINUOUS
10
1.18819
20
1.50962
11
1.19458
21
1.51247
0
LINE
8
BLACK
6
CONTINUOUS
10
1.19458
20
1.51247
11
1.20142
21
1.51392
0
LINE
8
BLACK
6
CONTINUOUS
10
1.20142
20
1.51392
11
1.20842
21
1.51392
0
LINE
8
BLACK
6
CONTINUOUS
10
1.20842
20
1.51392
11
1.21526
21
1.51247
0
LINE
8
BLACK
6
CONTINUOUS
10
0.278013
20
1.52307
11
0.280568
21
1.52137
0
LINE
8
BLACK
6
CONTINUOUS
10
0.280568
20
1.52137
11
0.282275
21
1.51881
0
LINE
8
BLACK
6
CONTINUOUS
10
0.282275
20
1.51881
11
0.282874
21
1.5158
0
LINE
8
BLACK
6
CONTINUOUS
10
0.282874
20
1.5158
11
0.282874
21
1.4558
0
LINE
8
BLACK
6
CONTINUOUS
10
0.282874
20
1.4558
11
0.282275
21
1.45279
0
LINE
8
BLACK
6
CONTINUOUS
10
0.282275
20
1.45279
11
0.280568
21
1.45023
0
LINE
8
BLACK
6
CONTINUOUS
10
0.280568
20
1.45023
11
0.278013
21
1.44853
0
LINE
8
BLACK
6
CONTINUOUS
10
0.278013
20
1.44853
11
0.275
21
1.44793
0
LINE
8
BLACK
6
CONTINUOUS
10
0.275
20
1.44793
11
0.215
21
1.44793
0
LINE
8
BLACK
6
CONTINUOUS
10
0.215
20
1.44793
11
0.211987
21
1.44853
0
LINE
8
BLACK
6
CONTINUOUS
10
0.211987
20
1.44853
11
0.209432
21
1.45023
0
LINE
8
BLACK
6
CONTINUOUS
10
0.209432
20
1.45023
11
0.207725
21
1.45279
0
LINE
8
BLACK
6
CONTINUOUS
10
0.207725
20
1.45279
11
0.207126
21
1.4558
0
LINE
8
BLACK
6
CONTINUOUS
10
0.207126
20
1.4558
11
0.207126
21
1.5158
0
LINE
8
BLACK
6
CONTINUOUS
10
0.207126
20
1.5158
11
0.207725
21
1.51881
0
LINE
8
BLACK
6
CONTINUOUS
10
0.207725
20
1.51881
11
0.209432
21
1.52137
0
LINE
8
BLACK
6
CONTINUOUS
10
0.209432
20
1.52137
11
0.211987
21
1.52307
0
LINE
8
BLACK
6
CONTINUOUS
10
0.211987
20
1.52307
11
0.215
21
1.52367
0
LINE
8
BLACK
6
CONTINUOUS
10
0.215
20
1.52367
11
0.275
21
1.52367
0
LINE
8
BLACK
6
CONTINUOUS
10
0.275
20
1.52367
11
0.278013
21
1.52307
0
LINE
8
BLACK
6
CONTINUOUS
10
0.178013
20
1.52307
11
0.180568
21
1.52137
0
LINE
8
BLACK
6
CONTINUOUS
10
0.180568
20
1.52137
11
0.182275
21
1.51881
0
LINE
8
BLACK
6
CONTINUOUS
10
0.182275
20
1.51881
11
0.182874
21
1.5158
0
LINE
8
BLACK
6
CONTINUOUS
10
0.182874
20
1.5158
11
0.182874
21
1.4558
0
LINE
8
BLACK
6
CONTINUOUS
10
0.182874
20
1.4558
11
0.182275
21
1.45279
0
LINE
8
BLACK
6
CONTINUOUS
10
0.182275
20
1.45279
11
0.180568
21
1.45023
0
LINE
8
BLACK
6
CONTINUOUS
10
0.180568
20
1.45023
11
0.178013
21
1.44853
0
LINE
8
BLACK
6
CONTINUOUS
10
0.178013
20
1.44853
11
0.175
21
1.44793
0
LINE
8
BLACK
6
CONTINUOUS
10
0.175
20
1.44793
11
0.115
21
1.44793
0
LINE
8
BLACK
6
CONTINUOUS
10
0.115
20
1.44793
11
0.111987
21
1.44853
0
LINE
8
BLACK
6
CONTINUOUS
10
0.111987
20
1.44853
11
0.109432
21
1.45023
0
LINE
8
BLACK
6
CONTINUOUS
10
0.109432
20
1.45023
11
0.107725
21
1.45279
0
LINE
8
BLACK
6
CONTINUOUS
10
0.107725
20
1.45279
11
0.107126
21
1.4558
0
LINE
8
BLACK
6
CONTINUOUS
10
0.107126
20
1.4558
11
0.107126
21
1.5158
0
LINE
8
BLACK
6
CONTINUOUS
10
0.107126
20
1.5158
11
0.107725
21
1.51881
0
LINE
8
BLACK
6
CONTINUOUS
10
0.107725
20
1.51881
11
0.109432
21
1.52137
0
LINE
8
BLACK
6
CONTINUOUS
10
0.109432
20
1.52137
11
0.111987
21
1.52307
0
LINE
8
BLACK
6
CONTINUOUS
10
0.111987
20
1.52307
11
0.115
21
1.52367
0
LINE
8
BLACK
6
CONTINUOUS
10
0.115
20
1.52367
11
0.175
21
1.52367
0
LINE
8
BLACK
6
CONTINUOUS
10
0.175
20
1.52367
11
0.178013
21
1.52307
0
LINE
8
BLACK
6
CONTINUOUS
10
1.28534
20
1.55263
11
1.29173
21
1.54978
0
LINE
8
BLACK
6
CONTINUOUS
10
1.29173
20
1.54978
11
1.29739
21
1.54567
0
LINE
8
BLACK
6
CONTINUOUS
10
1.29739
20
1.54567
11
1.30207
21
1.54047
0
LINE
8
BLACK
6
CONTINUOUS
10
1.30207
20
1.54047
11
1.30557
21
1.53441
0
LINE
8
BLACK
6
CONTINUOUS
10
1.30557
20
1.53441
11
1.30773
21
1.52776
0
LINE
8
BLACK
6
CONTINUOUS
10
1.30773
20
1.52776
11
1.30846
21
1.5208
0
LINE
8
BLACK
6
CONTINUOUS
10
1.30846
20
1.5208
11
1.30773
21
1.51384
0
LINE
8
BLACK
6
CONTINUOUS
10
1.30773
20
1.51384
11
1.30557
21
1.50719
0
LINE
8
BLACK
6
CONTINUOUS
10
1.30557
20
1.50719
11
1.30207
21
1.50113
0
LINE
8
BLACK
6
CONTINUOUS
10
1.30207
20
1.50113
11
1.29739
21
1.49593
0
LINE
8
BLACK
6
CONTINUOUS
10
1.29739
20
1.49593
11
1.29173
21
1.49182
0
LINE
8
BLACK
6
CONTINUOUS
10
1.29173
20
1.49182
11
1.28534
21
1.48897
0
LINE
8
BLACK
6
CONTINUOUS
10
1.28534
20
1.48897
11
1.2785
21
1.48752
0
LINE
8
BLACK
6
CONTINUOUS
10
1.2785
20
1.48752
11
1.2715
21
1.48752
0
LINE
8
BLACK
6
CONTINUOUS
10
1.2715
20
1.48752
11
1.26466
21
1.48897
0
LINE
8
BLACK
6
CONTINUOUS
10
1.26466
20
1.48897
11
1.25827
21
1.49182
0
LINE
8
BLACK
6
CONTINUOUS
10
1.25827
20
1.49182
11
1.25261
21
1.49593
0
LINE
8
BLACK
6
CONTINUOUS
10
1.25261
20
1.49593
11
1.24793
21
1.50113
0
LINE
8
BLACK
6
CONTINUOUS
10
1.24793
20
1.50113
11
1.24443
21
1.50719
0
LINE
8
BLACK
6
CONTINUOUS
10
1.24443
20
1.50719
11
1.24227
21
1.51384
0
LINE
8
BLACK
6
CONTINUOUS
10
1.24227
20
1.51384
11
1.24154
21
1.5208
0
LINE
8
BLACK
6
CONTINUOUS
10
1.24154
20
1.5208
11
1.24227
21
1.52776
0
LINE
8
BLACK
6
CONTINUOUS
10
1.24227
20
1.52776
11
1.24443
21
1.53441
0
LINE
8
BLACK
6
CONTINUOUS
10
1.24443
20
1.53441
11
1.24793
21
1.54047
0
LINE
8
BLACK
6
CONTINUOUS
10
1.24793
20
1.54047
11
1.25261
21
1.54567
0
LINE
8
BLACK
6
CONTINUOUS
10
1.25261
20
1.54567
11
1.25827
21
1.54978
0
LINE
8
BLACK
6
CONTINUOUS
10
1.25827
20
1.54978
11
1.26466
21
1.55263
0
LINE
8
BLACK
6
CONTINUOUS
10
1.26466
20
1.55263
11
1.2715
21
1.55408
0
LINE
8
BLACK
6
CONTINUOUS
10
1.2715
20
1.55408
11
1.2785
21
1.55408
0
LINE
8
BLACK
6
CONTINUOUS
10
1.2785
20
1.55408
11
1.28534
21
1.55263
0
LINE
8
BLACK
6
CONTINUOUS
10
1.21526
20
1.59239
11
1.22165
21
1.58954
0
LINE
8
BLACK
6
CONTINUOUS
10
1.22165
20
1.58954
11
1.22731
21
1.58543
0
LINE
8
BLACK
6
CONTINUOUS
10
1.22731
20
1.58543
11
1.23199
21
1.58023
0
LINE
8
BLACK
6
CONTINUOUS
10
1.23199
20
1.58023
11
1.23549
21
1.57418
0
LINE
8
BLACK
6
CONTINUOUS
10
1.23549
20
1.57418
11
1.23765
21
1.56752
0
LINE
8
BLACK
6
CONTINUOUS
10
1.23765
20
1.56752
11
1.23839
21
1.56056
0
LINE
8
BLACK
6
CONTINUOUS
10
1.23839
20
1.56056
11
1.23765
21
1.55361
0
LINE
8
BLACK
6
CONTINUOUS
10
1.23765
20
1.55361
11
1.23549
21
1.54695
0
LINE
8
BLACK
6
CONTINUOUS
10
1.23549
20
1.54695
11
1.23199
21
1.54089
0
LINE
8
BLACK
6
CONTINUOUS
10
1.23199
20
1.54089
11
1.22731
21
1.53569
0
LINE
8
BLACK
6
CONTINUOUS
10
1.22731
20
1.53569
11
1.22165
21
1.53158
0
LINE
8
BLACK
6
CONTINUOUS
10
1.22165
20
1.53158
11
1.21526
21
1.52874
0
LINE
8
BLACK
6
CONTINUOUS
10
1.21526
20
1.52874
11
1.20842
21
1.52728
0
LINE
8
BLACK
6
CONTINUOUS
10
1.20842
20
1.52728
11
1.20142
21
1.52728
0
LINE
8
BLACK
6
CONTINUOUS
10
1.20142
20
1.52728
11
1.19458
21
1.52874
0
LINE
8
BLACK
6
CONTINUOUS
10
1.19458
20
1.52874
11
1.18819
21
1.53158
0
LINE
8
BLACK
6
CONTINUOUS
10
1.18819
20
1.53158
11
1.18253
21
1.53569
0
LINE
8
BLACK
6
CONTINUOUS
10
1.18253
20
1.53569
11
1.17785
21
1.54089
0
LINE
8
BLACK
6
CONTINUOUS
10
1.17785
20
1.54089
11
1.17435
21
1.54695
0
LINE
8
BLACK
6
CONTINUOUS
10
1.17435
20
1.54695
11
1.17219
21
1.55361
0
LINE
8
BLACK
6
CONTINUOUS
10
1.17219
20
1.55361
11
1.17146
21
1.56056
0
LINE
8
BLACK
6
CONTINUOUS
10
1.17146
20
1.56056
11
1.17219
21
1.56752
0
LINE
8
BLACK
6
CONTINUOUS
10
1.17219
20
1.56752
11
1.17435
21
1.57418
0
LINE
8
BLACK
6
CONTINUOUS
10
1.17435
20
1.57418
11
1.17785
21
1.58023
0
LINE
8
BLACK
6
CONTINUOUS
10
1.17785
20
1.58023
11
1.18253
21
1.58543
0
LINE
8
BLACK
6
CONTINUOUS
10
1.18253
20
1.58543
11
1.18819
21
1.58954
0
LINE
8
BLACK
6
CONTINUOUS
10
1.18819
20
1.58954
11
1.19458
21
1.59239
0
LINE
8
BLACK
6
CONTINUOUS
10
1.19458
20
1.59239
11
1.20142
21
1.59385
0
LINE
8
BLACK
6
CONTINUOUS
10
1.20142
20
1.59385
11
1.20842
21
1.59385
0
LINE
8
BLACK
6
CONTINUOUS
10
1.20842
20
1.59385
11
1.21526
21
1.59239
0
LINE
8
BLACK
6
CONTINUOUS
10
1.28534
20
1.63255
11
1.29173
21
1.6297
0
LINE
8
BLACK
6
CONTINUOUS
10
1.29173
20
1.6297
11
1.29739
21
1.62559
0
LINE
8
BLACK
6
CONTINUOUS
10
1.29739
20
1.62559
11
1.30207
21
1.62039
0
LINE
8
BLACK
6
CONTINUOUS
10
1.30207
20
1.62039
11
1.30557
21
1.61433
0
LINE
8
BLACK
6
CONTINUOUS
10
1.30557
20
1.61433
11
1.30773
21
1.60768
0
LINE
8
BLACK
6
CONTINUOUS
10
1.30773
20
1.60768
11
1.30846
21
1.60072
0
LINE
8
BLACK
6
CONTINUOUS
10
1.30846
20
1.60072
11
1.30773
21
1.59376
0
LINE
8
BLACK
6
CONTINUOUS
10
1.30773
20
1.59376
11
1.30557
21
1.58711
0
LINE
8
BLACK
6
CONTINUOUS
10
1.30557
20
1.58711
11
1.30207
21
1.58105
0
LINE
8
BLACK
6
CONTINUOUS
10
1.30207
20
1.58105
11
1.29739
21
1.57585
0
LINE
8
BLACK
6
CONTINUOUS
10
1.29739
20
1.57585
11
1.29173
21
1.57174
0
LINE
8
BLACK
6
CONTINUOUS
10
1.29173
20
1.57174
11
1.28534
21
1.56889
0
LINE
8
BLACK
6
CONTINUOUS
10
1.28534
20
1.56889
11
1.2785
21
1.56744
0
LINE
8
BLACK
6
CONTINUOUS
10
1.2785
20
1.56744
11
1.2715
21
1.56744
0
LINE
8
BLACK
6
CONTINUOUS
10
1.2715
20
1.56744
11
1.26466
21
1.56889
0
LINE
8
BLACK
6
CONTINUOUS
10
1.26466
20
1.56889
11
1.25827
21
1.57174
0
LINE
8
BLACK
6
CONTINUOUS
10
1.25827
20
1.57174
11
1.25261
21
1.57585
0
LINE
8
BLACK
6
CONTINUOUS
10
1.25261
20
1.57585
11
1.24793
21
1.58105
0
LINE
8
BLACK
6
CONTINUOUS
10
1.24793
20
1.58105
11
1.24443
21
1.58711
0
LINE
8
BLACK
6
CONTINUOUS
10
1.24443
20
1.58711
11
1.24227
21
1.59376
0
LINE
8
BLACK
6
CONTINUOUS
10
1.24227
20
1.59376
11
1.24154
21
1.60072
0
LINE
8
BLACK
6
CONTINUOUS
10
1.24154
20
1.60072
11
1.24227
21
1.60768
0
LINE
8
BLACK
6
CONTINUOUS
10
1.24227
20
1.60768
11
1.24443
21
1.61433
0
LINE
8
BLACK
6
CONTINUOUS
10
1.24443
20
1.61433
11
1.24793
21
1.62039
0
LINE
8
BLACK
6
CONTINUOUS
10
1.24793
20
1.62039
11
1.25261
21
1.62559
0
LINE
8
BLACK
6
CONTINUOUS
10
1.25261
20
1.62559
11
1.25827
21
1.6297
0
LINE
8
BLACK
6
CONTINUOUS
10
1.25827
20
1.6297
11
1.26466
21
1.63255
0
LINE
8
BLACK
6
CONTINUOUS
10
1.26466
20
1.63255
11
1.2715
21
1.634
0
LINE
8
BLACK
6
CONTINUOUS
10
1.2715
20
1.634
11
1.2785
21
1.634
0
LINE
8
BLACK
6
CONTINUOUS
10
1.2785
20
1.634
11
1.28534
21
1.63255
0
LINE
8
BLACK
6
CONTINUOUS
10
1.21526
20
1.67231
11
1.22165
21
1.66947
0
LINE
8
BLACK
6
CONTINUOUS
10
1.22165
20
1.66947
11
1.22731
21
1.66535
0
LINE
8
BLACK
6
CONTINUOUS
10
1.22731
20
1.66535
11
1.23199
21
1.66016
0
LINE
8
BLACK
6
CONTINUOUS
10
1.23199
20
1.66016
11
1.23549
21
1.6541
0
LINE
8
BLACK
6
CONTINUOUS
10
1.23549
20
1.6541
11
1.23765
21
1.64744
0
LINE
8
BLACK
6
CONTINUOUS
10
1.23765
20
1.64744
11
1.23839
21
1.64049
0
LINE
8
BLACK
6
CONTINUOUS
10
1.23839
20
1.64049
11
1.23765
21
1.63353
0
LINE
8
BLACK
6
CONTINUOUS
10
1.23765
20
1.63353
11
1.23549
21
1.62687
0
LINE
8
BLACK
6
CONTINUOUS
10
1.23549
20
1.62687
11
1.23199
21
1.62082
0
LINE
8
BLACK
6
CONTINUOUS
10
1.23199
20
1.62082
11
1.22731
21
1.61562
0
LINE
8
BLACK
6
CONTINUOUS
10
1.22731
20
1.61562
11
1.22165
21
1.6115
0
LINE
8
BLACK
6
CONTINUOUS
10
1.22165
20
1.6115
11
1.21526
21
1.60866
0
LINE
8
BLACK
6
CONTINUOUS
10
1.21526
20
1.60866
11
1.20842
21
1.6072
0
LINE
8
BLACK
6
CONTINUOUS
10
1.20842
20
1.6072
11
1.20142
21
1.6072
0
LINE
8
BLACK
6
CONTINUOUS
10
1.20142
20
1.6072
11
1.19458
21
1.60866
0
LINE
8
BLACK
6
CONTINUOUS
10
1.19458
20
1.60866
11
1.18819
21
1.6115
0
LINE
8
BLACK
6
CONTINUOUS
10
1.18819
20
1.6115
11
1.18253
21
1.61562
0
LINE
8
BLACK
6
CONTINUOUS
10
1.18253
20
1.61562
11
1.17785
21
1.62082
0
LINE
8
BLACK
6
CONTINUOUS
10
1.17785
20
1.62082
11
1.17435
21
1.62687
0
LINE
8
BLACK
6
CONTINUOUS
10
1.17435
20
1.62687
11
1.17219
21
1.63353
0
LINE
8
BLACK
6
CONTINUOUS
10
1.17219
20
1.63353
11
1.17146
21
1.64049
0
LINE
8
BLACK
6
CONTINUOUS
10
1.17146
20
1.64049
11
1.17219
21
1.64744
0
LINE
8
BLACK
6
CONTINUOUS
10
1.17219
20
1.64744
11
1.17435
21
1.6541
0
LINE
8
BLACK
6
CONTINUOUS
10
1.17435
20
1.6541
11
1.17785
21
1.66016
0
LINE
8
BLACK
6
CONTINUOUS
10
1.17785
20
1.66016
11
1.18253
21
1.66535
0
LINE
8
BLACK
6
CONTINUOUS
10
1.18253
20
1.66535
11
1.18819
21
1.66947
0
LINE
8
BLACK
6
CONTINUOUS
10
1.18819
20
1.66947
11
1.19458
21
1.67231
0
LINE
8
BLACK
6
CONTINUOUS
10
1.19458
20
1.67231
11
1.20142
21
1.67377
0
LINE
8
BLACK
6
CONTINUOUS
10
1.20142
20
1.67377
11
1.20842
21
1.67377
0
LINE
8
BLACK
6
CONTINUOUS
10
1.20842
20
1.67377
11
1.21526
21
1.67231
0
LINE
8
BLACK
6
CONTINUOUS
10
1.28534
20
1.71247
11
1.29173
21
1.70962
0
LINE
8
BLACK
6
CONTINUOUS
10
1.29173
20
1.70962
11
1.29739
21
1.70551
0
LINE
8
BLACK
6
CONTINUOUS
10
1.29739
20
1.70551
11
1.30207
21
1.70031
0
LINE
8
BLACK
6
CONTINUOUS
10
1.30207
20
1.70031
11
1.30557
21
1.69425
0
LINE
8
BLACK
6
CONTINUOUS
10
1.30557
20
1.69425
11
1.30773
21
1.6876
0
LINE
8
BLACK
6
CONTINUOUS
10
1.30773
20
1.6876
11
1.30846
21
1.68064
0
LINE
8
BLACK
6
CONTINUOUS
10
1.30846
20
1.68064
11
1.30773
21
1.67368
0
LINE
8
BLACK
6
CONTINUOUS
10
1.30773
20
1.67368
11
1.30557
21
1.66703
0
LINE
8
BLACK
6
CONTINUOUS
10
1.30557
20
1.66703
11
1.30207
21
1.66097
0
LINE
8
BLACK
6
CONTINUOUS
10
1.30207
20
1.66097
11
1.29739
21
1.65577
0
LINE
8
BLACK
6
CONTINUOUS
10
1.29739
20
1.65577
11
1.29173
21
1.65166
0
LINE
8
BLACK
6
CONTINUOUS
10
1.29173
20
1.65166
11
1.28534
21
1.64882
0
LINE
8
BLACK
6
CONTINUOUS
10
1.28534
20
1.64882
11
1.2785
21
1.64736
0
LINE
8
BLACK
6
CONTINUOUS
10
1.2785
20
1.64736
11
1.2715
21
1.64736
0
LINE
8
BLACK
6
CONTINUOUS
10
1.2715
20
1.64736
11
1.26466
21
1.64882
0
LINE
8
BLACK
6
CONTINUOUS
10
1.26466
20
1.64882
11
1.25827
21
1.65166
0
LINE
8
BLACK
6
CONTINUOUS
10
1.25827
20
1.65166
11
1.25261
21
1.65577
0
LINE
8
BLACK
6
CONTINUOUS
10
1.25261
20
1.65577
11
1.24793
21
1.66097
0
LINE
8
BLACK
6
CONTINUOUS
10
1.24793
20
1.66097
11
1.24443
21
1.66703
0
LINE
8
BLACK
6
CONTINUOUS
10
1.24443
20
1.66703
11
1.24227
21
1.67368
0
LINE
8
BLACK
6
CONTINUOUS
10
1.24227
20
1.67368
11
1.24154
21
1.68064
0
LINE
8
BLACK
6
CONTINUOUS
10
1.24154
20
1.68064
11
1.24227
21
1.6876
0
LINE
8
BLACK
6
CONTINUOUS
10
1.24227
20
1.6876
11
1.24443
21
1.69425
0
LINE
8
BLACK
6
CONTINUOUS
10
1.24443
20
1.69425
11
1.24793
21
1.70031
0
LINE
8
BLACK
6
CONTINUOUS
10
1.24793
20
1.70031
11
1.25261
21
1.70551
0
LINE
8
BLACK
6
CONTINUOUS
10
1.25261
20
1.70551
11
1.25827
21
1.70962
0
LINE
8
BLACK
6
CONTINUOUS
10
1.25827
20
1.70962
11
1.26466
21
1.71247
0
LINE
8
BLACK
6
CONTINUOUS
10
1.26466
20
1.71247
11
1.2715
21
1.71392
0
LINE
8
BLACK
6
CONTINUOUS
10
1.2715
20
1.71392
11
1.2785
21
1.71392
0
LINE
8
BLACK
6
CONTINUOUS
10
1.2785
20
1.71392
11
1.28534
21
1.71247
0
LINE
8
BLACK
6
CONTINUOUS
10
0.483379
20
1.71974
11
0.489924
21
1.71776
0
LINE
8
BLACK
6
CONTINUOUS
10
0.489924
20
1.71776
11
0.495837
21
1.71433
0
LINE
8
BLACK
6
CONTINUOUS
10
0.495837
20
1.71433
11
0.500802
21
1.70962
0
LINE
8
BLACK
6
CONTINUOUS
10
0.500802
20
1.70962
11
0.504552
21
1.7039
0
LINE
8
BLACK
6
CONTINUOUS
10
0.504552
20
1.7039
11
0.506885
21
1.69747
0
LINE
8
BLACK
6
CONTINUOUS
10
0.506885
20
1.69747
11
0.507677
21
1.69068
0
LINE
8
BLACK
6
CONTINUOUS
10
0.507677
20
1.69068
11
0.507677
21
1.68281
0
LINE
8
BLACK
6
CONTINUOUS
10
0.507677
20
1.68281
11
0.507451
21
1.67916
0
LINE
8
BLACK
6
CONTINUOUS
10
0.507451
20
1.67916
11
0.505825
21
1.67252
0
LINE
8
BLACK
6
CONTINUOUS
10
0.505825
20
1.67252
11
0.502715
21
1.66642
0
LINE
8
BLACK
6
CONTINUOUS
10
0.502715
20
1.66642
11
0.498287
21
1.66121
0
LINE
8
BLACK
6
CONTINUOUS
10
0.498287
20
1.66121
11
0.492779
21
1.65716
0
LINE
8
BLACK
6
CONTINUOUS
10
0.492779
20
1.65716
11
0.486486
21
1.65448
0
LINE
8
BLACK
6
CONTINUOUS
10
0.486486
20
1.65448
11
0.479746
21
1.65332
0
LINE
8
BLACK
6
CONTINUOUS
10
0.479746
20
1.65332
11
0.472921
21
1.65375
0
LINE
8
BLACK
6
CONTINUOUS
10
0.472921
20
1.65375
11
0.466376
21
1.65573
0
LINE
8
BLACK
6
CONTINUOUS
10
0.466376
20
1.65573
11
0.460462
21
1.65916
0
LINE
8
BLACK
6
CONTINUOUS
10
0.460462
20
1.65916
11
0.455497
21
1.66387
0
LINE
8
BLACK
6
CONTINUOUS
10
0.455497
20
1.66387
11
0.451747
21
1.66959
0
LINE
8
BLACK
6
CONTINUOUS
10
0.451747
20
1.66959
11
0.449414
21
1.67602
0
LINE
8
BLACK
6
CONTINUOUS
10
0.449414
20
1.67602
11
0.448622
21
1.68281
0
LINE
8
BLACK
6
CONTINUOUS
10
0.448622
20
1.68281
11
0.448622
21
1.69068
0
LINE
8
BLACK
6
CONTINUOUS
10
0.448622
20
1.69068
11
0.448848
21
1.69433
0
LINE
8
BLACK
6
CONTINUOUS
10
0.448848
20
1.69433
11
0.450474
21
1.70097
0
LINE
8
BLACK
6
CONTINUOUS
10
0.450474
20
1.70097
11
0.453584
21
1.70707
0
LINE
8
BLACK
6
CONTINUOUS
10
0.453584
20
1.70707
11
0.458012
21
1.71228
0
LINE
8
BLACK
6
CONTINUOUS
10
0.458012
20
1.71228
11
0.46352
21
1.71633
0
LINE
8
BLACK
6
CONTINUOUS
10
0.46352
20
1.71633
11
0.469813
21
1.71901
0
LINE
8
BLACK
6
CONTINUOUS
10
0.469813
20
1.71901
11
0.476553
21
1.72017
0
LINE
8
BLACK
6
CONTINUOUS
10
0.476553
20
1.72017
11
0.483379
21
1.71974
0
LINE
8
BLACK
6
CONTINUOUS
10
0.333379
20
1.71974
11
0.339924
21
1.71776
0
LINE
8
BLACK
6
CONTINUOUS
10
0.339924
20
1.71776
11
0.345837
21
1.71433
0
LINE
8
BLACK
6
CONTINUOUS
10
0.345837
20
1.71433
11
0.350802
21
1.70962
0
LINE
8
BLACK
6
CONTINUOUS
10
0.350802
20
1.70962
11
0.354552
21
1.7039
0
LINE
8
BLACK
6
CONTINUOUS
10
0.354552
20
1.7039
11
0.356885
21
1.69747
0
LINE
8
BLACK
6
CONTINUOUS
10
0.356885
20
1.69747
11
0.357677
21
1.69068
0
LINE
8
BLACK
6
CONTINUOUS
10
0.357677
20
1.69068
11
0.357677
21
1.68281
0
LINE
8
BLACK
6
CONTINUOUS
10
0.357677
20
1.68281
11
0.357451
21
1.67916
0
LINE
8
BLACK
6
CONTINUOUS
10
0.357451
20
1.67916
11
0.355825
21
1.67252
0
LINE
8
BLACK
6
CONTINUOUS
10
0.355825
20
1.67252
11
0.352715
21
1.66642
0
LINE
8
BLACK
6
CONTINUOUS
10
0.352715
20
1.66642
11
0.348287
21
1.66121
0
LINE
8
BLACK
6
CONTINUOUS
10
0.348287
20
1.66121
11
0.342779
21
1.65716
0
LINE
8
BLACK
6
CONTINUOUS
10
0.342779
20
1.65716
11
0.336486
21
1.65448
0
LINE
8
BLACK
6
CONTINUOUS
10
0.336486
20
1.65448
11
0.329746
21
1.65332
0
LINE
8
BLACK
6
CONTINUOUS
10
0.329746
20
1.65332
11
0.322921
21
1.65375
0
LINE
8
BLACK
6
CONTINUOUS
10
0.322921
20
1.65375
11
0.316376
21
1.65573
0
LINE
8
BLACK
6
CONTINUOUS
10
0.316376
20
1.65573
11
0.310462
21
1.65916
0
LINE
8
BLACK
6
CONTINUOUS
10
0.310462
20
1.65916
11
0.305497
21
1.66387
0
LINE
8
BLACK
6
CONTINUOUS
10
0.305497
20
1.66387
11
0.301747
21
1.66959
0
LINE
8
BLACK
6
CONTINUOUS
10
0.301747
20
1.66959
11
0.299414
21
1.67602
0
LINE
8
BLACK
6
CONTINUOUS
10
0.299414
20
1.67602
11
0.298622
21
1.68281
0
LINE
8
BLACK
6
CONTINUOUS
10
0.298622
20
1.68281
11
0.298622
21
1.69068
0
LINE
8
BLACK
6
CONTINUOUS
10
0.298622
20
1.69068
11
0.298848
21
1.69433
0
LINE
8
BLACK
6
CONTINUOUS
10
0.298848
20
1.69433
11
0.300474
21
1.70097
0
LINE
8
BLACK
6
CONTINUOUS
10
0.300474
20
1.70097
11
0.303584
21
1.70707
0
LINE
8
BLACK
6
CONTINUOUS
10
0.303584
20
1.70707
11
0.308012
21
1.71228
0
LINE
8
BLACK
6
CONTINUOUS
10
0.308012
20
1.71228
11
0.31352
21
1.71633
0
LINE
8
BLACK
6
CONTINUOUS
10
0.31352
20
1.71633
11
0.319813
21
1.71901
0
LINE
8
BLACK
6
CONTINUOUS
10
0.319813
20
1.71901
11
0.326553
21
1.72017
0
LINE
8
BLACK
6
CONTINUOUS
10
0.326553
20
1.72017
11
0.333379
21
1.71974
0
LINE
8
BLACK
6
CONTINUOUS
10
0.633379
20
1.71974
11
0.639924
21
1.71776
0
LINE
8
BLACK
6
CONTINUOUS
10
0.639924
20
1.71776
11
0.645837
21
1.71433
0
LINE
8
BLACK
6
CONTINUOUS
10
0.645837
20
1.71433
11
0.650802
21
1.70962
0
LINE
8
BLACK
6
CONTINUOUS
10
0.650802
20
1.70962
11
0.654552
21
1.7039
0
LINE
8
BLACK
6
CONTINUOUS
10
0.654552
20
1.7039
11
0.656885
21
1.69747
0
LINE
8
BLACK
6
CONTINUOUS
10
0.656885
20
1.69747
11
0.657677
21
1.69068
0
LINE
8
BLACK
6
CONTINUOUS
10
0.657677
20
1.69068
11
0.657677
21
1.68281
0
LINE
8
BLACK
6
CONTINUOUS
10
0.657677
20
1.68281
11
0.657451
21
1.67916
0
LINE
8
BLACK
6
CONTINUOUS
10
0.657451
20
1.67916
11
0.655825
21
1.67252
0
LINE
8
BLACK
6
CONTINUOUS
10
0.655825
20
1.67252
11
0.652715
21
1.66642
0
LINE
8
BLACK
6
CONTINUOUS
10
0.652715
20
1.66642
11
0.648287
21
1.66121
0
LINE
8
BLACK
6
CONTINUOUS
10
0.648287
20
1.66121
11
0.642779
21
1.65716
0
LINE
8
BLACK
6
CONTINUOUS
10
0.642779
20
1.65716
11
0.636486
21
1.65448
0
LINE
8
BLACK
6
CONTINUOUS
10
0.636486
20
1.65448
11
0.629746
21
1.65332
0
LINE
8
BLACK
6
CONTINUOUS
10
0.629746
20
1.65332
11
0.622921
21
1.65375
0
LINE
8
BLACK
6
CONTINUOUS
10
0.622921
20
1.65375
11
0.616376
21
1.65573
0
LINE
8
BLACK
6
CONTINUOUS
10
0.616376
20
1.65573
11
0.610462
21
1.65916
0
LINE
8
BLACK
6
CONTINUOUS
10
0.610462
20
1.65916
11
0.605497
21
1.66387
0
LINE
8
BLACK
6
CONTINUOUS
10
0.605497
20
1.66387
11
0.601747
21
1.66959
0
LINE
8
BLACK
6
CONTINUOUS
10
0.601747
20
1.66959
11
0.599414
21
1.67602
0
LINE
8
BLACK
6
CONTINUOUS
10
0.599414
20
1.67602
11
0.598622
21
1.68281
0
LINE
8
BLACK
6
CONTINUOUS
10
0.598622
20
1.68281
11
0.598622
21
1.69068
0
LINE
8
BLACK
6
CONTINUOUS
10
0.598622
20
1.69068
11
0.598848
21
1.69433
0
LINE
8
BLACK
6
CONTINUOUS
10
0.598848
20
1.69433
11
0.600474
21
1.70097
0
LINE
8
BLACK
6
CONTINUOUS
10
0.600474
20
1.70097
11
0.603584
21
1.70707
0
LINE
8
BLACK
6
CONTINUOUS
10
0.603584
20
1.70707
11
0.608012
21
1.71228
0
LINE
8
BLACK
6
CONTINUOUS
10
0.608012
20
1.71228
11
0.61352
21
1.71633
0
LINE
8
BLACK
6
CONTINUOUS
10
0.61352
20
1.71633
11
0.619813
21
1.71901
0
LINE
8
BLACK
6
CONTINUOUS
10
0.619813
20
1.71901
11
0.626553
21
1.72017
0
LINE
8
BLACK
6
CONTINUOUS
10
0.626553
20
1.72017
11
0.633379
21
1.71974
0
LINE
8
BLACK
6
CONTINUOUS
10
1.21526
20
1.75223
11
1.22165
21
1.74939
0
LINE
8
BLACK
6
CONTINUOUS
10
1.22165
20
1.74939
11
1.22731
21
1.74528
0
LINE
8
BLACK
6
CONTINUOUS
10
1.22731
20
1.74528
11
1.23199
21
1.74008
0
LINE
8
BLACK
6
CONTINUOUS
10
1.23199
20
1.74008
11
1.23549
21
1.73402
0
LINE
8
BLACK
6
CONTINUOUS
10
1.23549
20
1.73402
11
1.23765
21
1.72736
0
LINE
8
BLACK
6
CONTINUOUS
10
1.23765
20
1.72736
11
1.23839
21
1.72041
0
LINE
8
BLACK
6
CONTINUOUS
10
1.23839
20
1.72041
11
1.23765
21
1.71345
0
LINE
8
BLACK
6
CONTINUOUS
10
1.23765
20
1.71345
11
1.23549
21
1.7068
0
LINE
8
BLACK
6
CONTINUOUS
10
1.23549
20
1.7068
11
1.23199
21
1.70074
0
LINE
8
BLACK
6
CONTINUOUS
10
1.23199
20
1.70074
11
1.22731
21
1.69554
0
LINE
8
BLACK
6
CONTINUOUS
10
1.22731
20
1.69554
11
1.22165
21
1.69143
0
LINE
8
BLACK
6
CONTINUOUS
10
1.22165
20
1.69143
11
1.21526
21
1.68858
0
LINE
8
BLACK
6
CONTINUOUS
10
1.21526
20
1.68858
11
1.20842
21
1.68713
0
LINE
8
BLACK
6
CONTINUOUS
10
1.20842
20
1.68713
11
1.20142
21
1.68713
0
LINE
8
BLACK
6
CONTINUOUS
10
1.20142
20
1.68713
11
1.19458
21
1.68858
0
LINE
8
BLACK
6
CONTINUOUS
10
1.19458
20
1.68858
11
1.18819
21
1.69143
0
LINE
8
BLACK
6
CONTINUOUS
10
1.18819
20
1.69143
11
1.18253
21
1.69554
0
LINE
8
BLACK
6
CONTINUOUS
10
1.18253
20
1.69554
11
1.17785
21
1.70074
0
LINE
8
BLACK
6
CONTINUOUS
10
1.17785
20
1.70074
11
1.17435
21
1.7068
0
LINE
8
BLACK
6
CONTINUOUS
10
1.17435
20
1.7068
11
1.17219
21
1.71345
0
LINE
8
BLACK
6
CONTINUOUS
10
1.17219
20
1.71345
11
1.17146
21
1.72041
0
LINE
8
BLACK
6
CONTINUOUS
10
1.17146
20
1.72041
11
1.17219
21
1.72736
0
LINE
8
BLACK
6
CONTINUOUS
10
1.17219
20
1.72736
11
1.17435
21
1.73402
0
LINE
8
BLACK
6
CONTINUOUS
10
1.17435
20
1.73402
11
1.17785
21
1.74008
0
LINE
8
BLACK
6
CONTINUOUS
10
1.17785
20
1.74008
11
1.18253
21
1.74528
0
LINE
8
BLACK
6
CONTINUOUS
10
1.18253
20
1.74528
11
1.18819
21
1.74939
0
LINE
8
BLACK
6
CONTINUOUS
10
1.18819
20
1.74939
11
1.19458
21
1.75223
0
LINE
8
BLACK
6
CONTINUOUS
10
1.19458
20
1.75223
11
1.20142
21
1.75369
0
LINE
8
BLACK
6
CONTINUOUS
10
1.20142
20
1.75369
11
1.20842
21
1.75369
0
LINE
8
BLACK
6
CONTINUOUS
10
1.20842
20
1.75369
11
1.21526
21
1.75223
0
LINE
8
BLACK
6
CONTINUOUS
10
0.730372
20
1.80263
11
0.739583
21
1.80099
0
LINE
8
BLACK
6
CONTINUOUS
10
0.739583
20
1.80099
11
0.748401
21
1.79787
0
LINE
8
BLACK
6
CONTINUOUS
10
0.748401
20
1.79787
11
0.756591
21
1.79335
0
LINE
8
BLACK
6
CONTINUOUS
10
0.756591
20
1.79335
11
0.763933
21
1.78755
0
LINE
8
BLACK
6
CONTINUOUS
10
0.763933
20
1.78755
11
0.770229
21
1.78063
0
LINE
8
BLACK
6
CONTINUOUS
10
0.770229
20
1.78063
11
0.775311
21
1.77278
0
LINE
8
BLACK
6
CONTINUOUS
10
0.775311
20
1.77278
11
0.779041
21
1.7642
0
LINE
8
BLACK
6
CONTINUOUS
10
0.779041
20
1.7642
11
0.78132
21
1.75512
0
LINE
8
BLACK
6
CONTINUOUS
10
0.78132
20
1.75512
11
0.782087
21
1.7458
0
LINE
8
BLACK
6
CONTINUOUS
10
0.782087
20
1.7458
11
0.782018
21
1.74301
0
LINE
8
BLACK
6
CONTINUOUS
10
0.782018
20
1.74301
11
0.780797
21
1.73374
0
LINE
8
BLACK
6
CONTINUOUS
10
0.780797
20
1.73374
11
0.778078
21
1.72479
0
LINE
8
BLACK
6
CONTINUOUS
10
0.778078
20
1.72479
11
0.773933
21
1.7164
0
LINE
8
BLACK
6
CONTINUOUS
10
0.773933
20
1.7164
11
0.768474
21
1.7088
0
LINE
8
BLACK
6
CONTINUOUS
10
0.768474
20
1.7088
11
0.761847
21
1.7022
0
LINE
8
BLACK
6
CONTINUOUS
10
0.761847
20
1.7022
11
0.754231
21
1.69676
0
LINE
8
BLACK
6
CONTINUOUS
10
0.754231
20
1.69676
11
0.74583
21
1.69265
0
LINE
8
BLACK
6
CONTINUOUS
10
0.74583
20
1.69265
11
0.736869
21
1.68996
0
LINE
8
BLACK
6
CONTINUOUS
10
0.736869
20
1.68996
11
0.72759
21
1.68877
0
LINE
8
BLACK
6
CONTINUOUS
10
0.72759
20
1.68877
11
0.718241
21
1.68911
0
LINE
8
BLACK
6
CONTINUOUS
10
0.718241
20
1.68911
11
0.709073
21
1.69098
0
LINE
8
BLACK
6
CONTINUOUS
10
0.709073
20
1.69098
11
0.700334
21
1.69432
0
LINE
8
BLACK
6
CONTINUOUS
10
0.700334
20
1.69432
11
0.692256
21
1.69904
0
LINE
8
BLACK
6
CONTINUOUS
10
0.692256
20
1.69904
11
0.685059
21
1.70501
0
LINE
8
BLACK
6
CONTINUOUS
10
0.685059
20
1.70501
11
0.678933
21
1.71208
0
LINE
8
BLACK
6
CONTINUOUS
10
0.678933
20
1.71208
11
0.674045
21
1.72006
0
LINE
8
BLACK
6
CONTINUOUS
10
0.674045
20
1.72006
11
0.670526
21
1.72873
0
LINE
8
BLACK
6
CONTINUOUS
10
0.670526
20
1.72873
11
0.668469
21
1.73786
0
LINE
8
BLACK
6
CONTINUOUS
10
0.668469
20
1.73786
11
0.66793
21
1.74719
0
LINE
8
BLACK
6
CONTINUOUS
10
0.66793
20
1.74719
11
0.668925
21
1.7565
0
LINE
8
BLACK
6
CONTINUOUS
10
0.668925
20
1.7565
11
0.671425
21
1.76551
0
LINE
8
BLACK
6
CONTINUOUS
10
0.671425
20
1.76551
11
0.675363
21
1.774
0
LINE
8
BLACK
6
CONTINUOUS
10
0.675363
20
1.774
11
0.680635
21
1.78173
0
LINE
8
BLACK
6
CONTINUOUS
10
0.680635
20
1.78173
11
0.687099
21
1.78849
0
LINE
8
BLACK
6
CONTINUOUS
10
0.687099
20
1.78849
11
0.69458
21
1.79411
0
LINE
8
BLACK
6
CONTINUOUS
10
0.69458
20
1.79411
11
0.702878
21
1.79843
0
LINE
8
BLACK
6
CONTINUOUS
10
0.702878
20
1.79843
11
0.71177
21
1.80133
0
LINE
8
BLACK
6
CONTINUOUS
10
0.71177
20
1.80133
11
0.721018
21
1.80275
0
LINE
8
BLACK
6
CONTINUOUS
10
0.721018
20
1.80275
11
0.730372
21
1.80263
0
LINE
8
BLACK
6
CONTINUOUS
10
0.583379
20
1.7788
11
0.589924
21
1.77682
0
LINE
8
BLACK
6
CONTINUOUS
10
0.589924
20
1.77682
11
0.595837
21
1.77338
0
LINE
8
BLACK
6
CONTINUOUS
10
0.595837
20
1.77338
11
0.600802
21
1.76868
0
LINE
8
BLACK
6
CONTINUOUS
10
0.600802
20
1.76868
11
0.604552
21
1.76296
0
LINE
8
BLACK
6
CONTINUOUS
10
0.604552
20
1.76296
11
0.606885
21
1.75653
0
LINE
8
BLACK
6
CONTINUOUS
10
0.606885
20
1.75653
11
0.607677
21
1.74974
0
LINE
8
BLACK
6
CONTINUOUS
10
0.607677
20
1.74974
11
0.607677
21
1.74186
0
LINE
8
BLACK
6
CONTINUOUS
10
0.607677
20
1.74186
11
0.607451
21
1.73821
0
LINE
8
BLACK
6
CONTINUOUS
10
0.607451
20
1.73821
11
0.605825
21
1.73157
0
LINE
8
BLACK
6
CONTINUOUS
10
0.605825
20
1.73157
11
0.602715
21
1.72548
0
LINE
8
BLACK
6
CONTINUOUS
10
0.602715
20
1.72548
11
0.598287
21
1.72027
0
LINE
8
BLACK
6
CONTINUOUS
10
0.598287
20
1.72027
11
0.592779
21
1.71621
0
LINE
8
BLACK
6
CONTINUOUS
10
0.592779
20
1.71621
11
0.586486
21
1.71354
0
LINE
8
BLACK
6
CONTINUOUS
10
0.586486
20
1.71354
11
0.579746
21
1.71238
0
LINE
8
BLACK
6
CONTINUOUS
10
0.579746
20
1.71238
11
0.572921
21
1.7128
0
LINE
8
BLACK
6
CONTINUOUS
10
0.572921
20
1.7128
11
0.566376
21
1.71478
0
LINE
8
BLACK
6
CONTINUOUS
10
0.566376
20
1.71478
11
0.560462
21
1.71822
0
LINE
8
BLACK
6
CONTINUOUS
10
0.560462
20
1.71822
11
0.555497
21
1.72292
0
LINE
8
BLACK
6
CONTINUOUS
10
0.555497
20
1.72292
11
0.553199
21
1.72643
0
LINE
8
BLACK
6
CONTINUOUS
10
0.553199
20
1.72643
11
0.552715
21
1.72548
0
LINE
8
BLACK
6
CONTINUOUS
10
0.552715
20
1.72548
11
0.548287
21
1.72027
0
LINE
8
BLACK
6
CONTINUOUS
10
0.548287
20
1.72027
11
0.542779
21
1.71621
0
LINE
8
BLACK
6
CONTINUOUS
10
0.542779
20
1.71621
11
0.536486
21
1.71354
0
LINE
8
BLACK
6
CONTINUOUS
10
0.536486
20
1.71354
11
0.529746
21
1.71238
0
LINE
8
BLACK
6
CONTINUOUS
10
0.529746
20
1.71238
11
0.522921
21
1.7128
0
LINE
8
BLACK
6
CONTINUOUS
10
0.522921
20
1.7128
11
0.516376
21
1.71478
0
LINE
8
BLACK
6
CONTINUOUS
10
0.516376
20
1.71478
11
0.510462
21
1.71822
0
LINE
8
BLACK
6
CONTINUOUS
10
0.510462
20
1.71822
11
0.505497
21
1.72292
0
LINE
8
BLACK
6
CONTINUOUS
10
0.505497
20
1.72292
11
0.501747
21
1.72864
0
LINE
8
BLACK
6
CONTINUOUS
10
0.501747
20
1.72864
11
0.499414
21
1.73507
0
LINE
8
BLACK
6
CONTINUOUS
10
0.499414
20
1.73507
11
0.498622
21
1.74186
0
LINE
8
BLACK
6
CONTINUOUS
10
0.498622
20
1.74186
11
0.498622
21
1.74974
0
LINE
8
BLACK
6
CONTINUOUS
10
0.498622
20
1.74974
11
0.498848
21
1.75339
0
LINE
8
BLACK
6
CONTINUOUS
10
0.498848
20
1.75339
11
0.500474
21
1.76003
0
LINE
8
BLACK
6
CONTINUOUS
10
0.500474
20
1.76003
11
0.503584
21
1.76612
0
LINE
8
BLACK
6
CONTINUOUS
10
0.503584
20
1.76612
11
0.508012
21
1.77133
0
LINE
8
BLACK
6
CONTINUOUS
10
0.508012
20
1.77133
11
0.51352
21
1.77539
0
LINE
8
BLACK
6
CONTINUOUS
10
0.51352
20
1.77539
11
0.519813
21
1.77806
0
LINE
8
BLACK
6
CONTINUOUS
10
0.519813
20
1.77806
11
0.526553
21
1.77922
0
LINE
8
BLACK
6
CONTINUOUS
10
0.526553
20
1.77922
11
0.533379
21
1.7788
0
LINE
8
BLACK
6
CONTINUOUS
10
0.533379
20
1.7788
11
0.539924
21
1.77682
0
LINE
8
BLACK
6
CONTINUOUS
10
0.539924
20
1.77682
11
0.545837
21
1.77338
0
LINE
8
BLACK
6
CONTINUOUS
10
0.545837
20
1.77338
11
0.550802
21
1.76868
0
LINE
8
BLACK
6
CONTINUOUS
10
0.550802
20
1.76868
11
0.5531
21
1.76517
0
LINE
8
BLACK
6
CONTINUOUS
10
0.5531
20
1.76517
11
0.553584
21
1.76612
0
LINE
8
BLACK
6
CONTINUOUS
10
0.553584
20
1.76612
11
0.558012
21
1.77133
0
LINE
8
BLACK
6
CONTINUOUS
10
0.558012
20
1.77133
11
0.56352
21
1.77539
0
LINE
8
BLACK
6
CONTINUOUS
10
0.56352
20
1.77539
11
0.569813
21
1.77806
0
LINE
8
BLACK
6
CONTINUOUS
10
0.569813
20
1.77806
11
0.576553
21
1.77922
0
LINE
8
BLACK
6
CONTINUOUS
10
0.576553
20
1.77922
11
0.583379
21
1.7788
0
LINE
8
BLACK
6
CONTINUOUS
10
0.433379
20
1.7788
11
0.439924
21
1.77682
0
LINE
8
BLACK
6
CONTINUOUS
10
0.439924
20
1.77682
11
0.445837
21
1.77338
0
LINE
8
BLACK
6
CONTINUOUS
10
0.445837
20
1.77338
11
0.450802
21
1.76868
0
LINE
8
BLACK
6
CONTINUOUS
10
0.450802
20
1.76868
11
0.454552
21
1.76296
0
LINE
8
BLACK
6
CONTINUOUS
10
0.454552
20
1.76296
11
0.456885
21
1.75653
0
LINE
8
BLACK
6
CONTINUOUS
10
0.456885
20
1.75653
11
0.457677
21
1.74974
0
LINE
8
BLACK
6
CONTINUOUS
10
0.457677
20
1.74974
11
0.457677
21
1.74186
0
LINE
8
BLACK
6
CONTINUOUS
10
0.457677
20
1.74186
11
0.457451
21
1.73821
0
LINE
8
BLACK
6
CONTINUOUS
10
0.457451
20
1.73821
11
0.455825
21
1.73157
0
LINE
8
BLACK
6
CONTINUOUS
10
0.455825
20
1.73157
11
0.452715
21
1.72548
0
LINE
8
BLACK
6
CONTINUOUS
10
0.452715
20
1.72548
11
0.448287
21
1.72027
0
LINE
8
BLACK
6
CONTINUOUS
10
0.448287
20
1.72027
11
0.442779
21
1.71621
0
LINE
8
BLACK
6
CONTINUOUS
10
0.442779
20
1.71621
11
0.436486
21
1.71354
0
LINE
8
BLACK
6
CONTINUOUS
10
0.436486
20
1.71354
11
0.429746
21
1.71238
0
LINE
8
BLACK
6
CONTINUOUS
10
0.429746
20
1.71238
11
0.422921
21
1.7128
0
LINE
8
BLACK
6
CONTINUOUS
10
0.422921
20
1.7128
11
0.416376
21
1.71478
0
LINE
8
BLACK
6
CONTINUOUS
10
0.416376
20
1.71478
11
0.410462
21
1.71822
0
LINE
8
BLACK
6
CONTINUOUS
10
0.410462
20
1.71822
11
0.405497
21
1.72292
0
LINE
8
BLACK
6
CONTINUOUS
10
0.405497
20
1.72292
11
0.403199
21
1.72643
0
LINE
8
BLACK
6
CONTINUOUS
10
0.403199
20
1.72643
11
0.402715
21
1.72548
0
LINE
8
BLACK
6
CONTINUOUS
10
0.402715
20
1.72548
11
0.398287
21
1.72027
0
LINE
8
BLACK
6
CONTINUOUS
10
0.398287
20
1.72027
11
0.392779
21
1.71621
0
LINE
8
BLACK
6
CONTINUOUS
10
0.392779
20
1.71621
11
0.386486
21
1.71354
0
LINE
8
BLACK
6
CONTINUOUS
10
0.386486
20
1.71354
11
0.379746
21
1.71238
0
LINE
8
BLACK
6
CONTINUOUS
10
0.379746
20
1.71238
11
0.372921
21
1.7128
0
LINE
8
BLACK
6
CONTINUOUS
10
0.372921
20
1.7128
11
0.366376
21
1.71478
0
LINE
8
BLACK
6
CONTINUOUS
10
0.366376
20
1.71478
11
0.360462
21
1.71822
0
LINE
8
BLACK
6
CONTINUOUS
10
0.360462
20
1.71822
11
0.355497
21
1.72292
0
LINE
8
BLACK
6
CONTINUOUS
10
0.355497
20
1.72292
11
0.351747
21
1.72864
0
LINE
8
BLACK
6
CONTINUOUS
10
0.351747
20
1.72864
11
0.349414
21
1.73507
0
LINE
8
BLACK
6
CONTINUOUS
10
0.349414
20
1.73507
11
0.348622
21
1.74186
0
LINE
8
BLACK
6
CONTINUOUS
10
0.348622
20
1.74186
11
0.348622
21
1.74974
0
LINE
8
BLACK
6
CONTINUOUS
10
0.348622
20
1.74974
11
0.348848
21
1.75339
0
LINE
8
BLACK
6
CONTINUOUS
10
0.348848
20
1.75339
11
0.350474
21
1.76003
0
LINE
8
BLACK
6
CONTINUOUS
10
0.350474
20
1.76003
11
0.353584
21
1.76612
0
LINE
8
BLACK
6
CONTINUOUS
10
0.353584
20
1.76612
11
0.358012
21
1.77133
0
LINE
8
BLACK
6
CONTINUOUS
10
0.358012
20
1.77133
11
0.36352
21
1.77539
0
LINE
8
BLACK
6
CONTINUOUS
10
0.36352
20
1.77539
11
0.369813
21
1.77806
0
LINE
8
BLACK
6
CONTINUOUS
10
0.369813
20
1.77806
11
0.376553
21
1.77922
0
LINE
8
BLACK
6
CONTINUOUS
10
0.376553
20
1.77922
11
0.383379
21
1.7788
0
LINE
8
BLACK
6
CONTINUOUS
10
0.383379
20
1.7788
11
0.389924
21
1.77682
0
LINE
8
BLACK
6
CONTINUOUS
10
0.389924
20
1.77682
11
0.395837
21
1.77338
0
LINE
8
BLACK
6
CONTINUOUS
10
0.395837
20
1.77338
11
0.400802
21
1.76868
0
LINE
8
BLACK
6
CONTINUOUS
10
0.400802
20
1.76868
11
0.4031
21
1.76517
0
LINE
8
BLACK
6
CONTINUOUS
10
0.4031
20
1.76517
11
0.403584
21
1.76612
0
LINE
8
BLACK
6
CONTINUOUS
10
0.403584
20
1.76612
11
0.408012
21
1.77133
0
LINE
8
BLACK
6
CONTINUOUS
10
0.408012
20
1.77133
11
0.41352
21
1.77539
0
LINE
8
BLACK
6
CONTINUOUS
10
0.41352
20
1.77539
11
0.419813
21
1.77806
0
LINE
8
BLACK
6
CONTINUOUS
10
0.419813
20
1.77806
11
0.426553
21
1.77922
0
LINE
8
BLACK
6
CONTINUOUS
10
0.426553
20
1.77922
11
0.433379
21
1.7788
0
LINE
8
BLACK
6
CONTINUOUS
10
1.28534
20
1.79239
11
1.29173
21
1.78954
0
LINE
8
BLACK
6
CONTINUOUS
10
1.29173
20
1.78954
11
1.29739
21
1.78543
0
LINE
8
BLACK
6
CONTINUOUS
10
1.29739
20
1.78543
11
1.30207
21
1.78023
0
LINE
8
BLACK
6
CONTINUOUS
10
1.30207
20
1.78023
11
1.30557
21
1.77418
0
LINE
8
BLACK
6
CONTINUOUS
10
1.30557
20
1.77418
11
1.30773
21
1.76752
0
LINE
8
BLACK
6
CONTINUOUS
10
1.30773
20
1.76752
11
1.30846
21
1.76056
0
LINE
8
BLACK
6
CONTINUOUS
10
1.30846
20
1.76056
11
1.30773
21
1.75361
0
LINE
8
BLACK
6
CONTINUOUS
10
1.30773
20
1.75361
11
1.30557
21
1.74695
0
LINE
8
BLACK
6
CONTINUOUS
10
1.30557
20
1.74695
11
1.30207
21
1.74089
0
LINE
8
BLACK
6
CONTINUOUS
10
1.30207
20
1.74089
11
1.29739
21
1.73569
0
LINE
8
BLACK
6
CONTINUOUS
10
1.29739
20
1.73569
11
1.29173
21
1.73158
0
LINE
8
BLACK
6
CONTINUOUS
10
1.29173
20
1.73158
11
1.28534
21
1.72874
0
LINE
8
BLACK
6
CONTINUOUS
10
1.28534
20
1.72874
11
1.2785
21
1.72728
0
LINE
8
BLACK
6
CONTINUOUS
10
1.2785
20
1.72728
11
1.2715
21
1.72728
0
LINE
8
BLACK
6
CONTINUOUS
10
1.2715
20
1.72728
11
1.26466
21
1.72874
0
LINE
8
BLACK
6
CONTINUOUS
10
1.26466
20
1.72874
11
1.25827
21
1.73158
0
LINE
8
BLACK
6
CONTINUOUS
10
1.25827
20
1.73158
11
1.25261
21
1.73569
0
LINE
8
BLACK
6
CONTINUOUS
10
1.25261
20
1.73569
11
1.24793
21
1.74089
0
LINE
8
BLACK
6
CONTINUOUS
10
1.24793
20
1.74089
11
1.24443
21
1.74695
0
LINE
8
BLACK
6
CONTINUOUS
10
1.24443
20
1.74695
11
1.24227
21
1.75361
0
LINE
8
BLACK
6
CONTINUOUS
10
1.24227
20
1.75361
11
1.24154
21
1.76056
0
LINE
8
BLACK
6
CONTINUOUS
10
1.24154
20
1.76056
11
1.24227
21
1.76752
0
LINE
8
BLACK
6
CONTINUOUS
10
1.24227
20
1.76752
11
1.24443
21
1.77418
0
LINE
8
BLACK
6
CONTINUOUS
10
1.24443
20
1.77418
11
1.24793
21
1.78023
0
LINE
8
BLACK
6
CONTINUOUS
10
1.24793
20
1.78023
11
1.25261
21
1.78543
0
LINE
8
BLACK
6
CONTINUOUS
10
1.25261
20
1.78543
11
1.25827
21
1.78954
0
LINE
8
BLACK
6
CONTINUOUS
10
1.25827
20
1.78954
11
1.26466
21
1.79239
0
LINE
8
BLACK
6
CONTINUOUS
10
1.26466
20
1.79239
11
1.2715
21
1.79385
0
LINE
8
BLACK
6
CONTINUOUS
10
1.2715
20
1.79385
11
1.2785
21
1.79385
0
LINE
8
BLACK
6
CONTINUOUS
10
1.2785
20
1.79385
11
1.28534
21
1.79239
0
LINE
8
BLACK
6
CONTINUOUS
10
0.225254
20
1.842
11
0.234464
21
1.84036
0
LINE
8
BLACK
6
CONTINUOUS
10
0.234464
20
1.84036
11
0.243283
21
1.83724
0
LINE
8
BLACK
6
CONTINUOUS
10
0.243283
20
1.83724
11
0.251473
21
1.83272
0
LINE
8
BLACK
6
CONTINUOUS
10
0.251473
20
1.83272
11
0.258815
21
1.82692
0
LINE
8
BLACK
6
CONTINUOUS
10
0.258815
20
1.82692
11
0.265111
21
1.82
0
LINE
8
BLACK
6
CONTINUOUS
10
0.265111
20
1.82
11
0.270193
21
1.81215
0
LINE
8
BLACK
6
CONTINUOUS
10
0.270193
20
1.81215
11
0.273923
21
1.80357
0
LINE
8
BLACK
6
CONTINUOUS
10
0.273923
20
1.80357
11
0.276202
21
1.79449
0
LINE
8
BLACK
6
CONTINUOUS
10
0.276202
20
1.79449
11
0.276969
21
1.78517
0
LINE
8
BLACK
6
CONTINUOUS
10
0.276969
20
1.78517
11
0.2769
21
1.78238
0
LINE
8
BLACK
6
CONTINUOUS
10
0.2769
20
1.78238
11
0.275679
21
1.77311
0
LINE
8
BLACK
6
CONTINUOUS
10
0.275679
20
1.77311
11
0.27296
21
1.76416
0
LINE
8
BLACK
6
CONTINUOUS
10
0.27296
20
1.76416
11
0.268815
21
1.75577
0
LINE
8
BLACK
6
CONTINUOUS
10
0.268815
20
1.75577
11
0.263356
21
1.74817
0
LINE
8
BLACK
6
CONTINUOUS
10
0.263356
20
1.74817
11
0.256729
21
1.74157
0
LINE
8
BLACK
6
CONTINUOUS
10
0.256729
20
1.74157
11
0.249113
21
1.73613
0
LINE
8
BLACK
6
CONTINUOUS
10
0.249113
20
1.73613
11
0.240711
21
1.73202
0
LINE
8
BLACK
6
CONTINUOUS
10
0.240711
20
1.73202
11
0.231751
21
1.72933
0
LINE
8
BLACK
6
CONTINUOUS
10
0.231751
20
1.72933
11
0.222471
21
1.72814
0
LINE
8
BLACK
6
CONTINUOUS
10
0.222471
20
1.72814
11
0.213123
21
1.72849
0
LINE
8
BLACK
6
CONTINUOUS
10
0.213123
20
1.72849
11
0.203955
21
1.73035
0
LINE
8
BLACK
6
CONTINUOUS
10
0.203955
20
1.73035
11
0.195216
21
1.73369
0
LINE
8
BLACK
6
CONTINUOUS
10
0.195216
20
1.73369
11
0.187138
21
1.73841
0
LINE
8
BLACK
6
CONTINUOUS
10
0.187138
20
1.73841
11
0.17994
21
1.74438
0
LINE
8
BLACK
6
CONTINUOUS
10
0.17994
20
1.74438
11
0.173815
21
1.75145
0
LINE
8
BLACK
6
CONTINUOUS
10
0.173815
20
1.75145
11
0.168927
21
1.75943
0
LINE
8
BLACK
6
CONTINUOUS
10
0.168927
20
1.75943
11
0.165408
21
1.7681
0
LINE
8
BLACK
6
CONTINUOUS
10
0.165408
20
1.7681
11
0.163351
21
1.77723
0
LINE
8
BLACK
6
CONTINUOUS
10
0.163351
20
1.77723
11
0.162812
21
1.78656
0
LINE
8
BLACK
6
CONTINUOUS
10
0.162812
20
1.78656
11
0.163806
21
1.79587
0
LINE
8
BLACK
6
CONTINUOUS
10
0.163806
20
1.79587
11
0.166306
21
1.80488
0
LINE
8
BLACK
6
CONTINUOUS
10
0.166306
20
1.80488
11
0.170245
21
1.81337
0
LINE
8
BLACK
6
CONTINUOUS
10
0.170245
20
1.81337
11
0.175517
21
1.8211
0
LINE
8
BLACK
6
CONTINUOUS
10
0.175517
20
1.8211
11
0.181981
21
1.82786
0
LINE
8
BLACK
6
CONTINUOUS
10
0.181981
20
1.82786
11
0.189462
21
1.83348
0
LINE
8
BLACK
6
CONTINUOUS
10
0.189462
20
1.83348
11
0.19776
21
1.8378
0
LINE
8
BLACK
6
CONTINUOUS
10
0.19776
20
1.8378
11
0.206652
21
1.8407
0
LINE
8
BLACK
6
CONTINUOUS
10
0.206652
20
1.8407
11
0.2159
21
1.84212
0
LINE
8
BLACK
6
CONTINUOUS
10
0.2159
20
1.84212
11
0.225254
21
1.842
0
LINE
8
BLACK
6
CONTINUOUS
10
1.02268
20
1.83736
11
1.02965
21
1.8352
0
LINE
8
BLACK
6
CONTINUOUS
10
1.02965
20
1.8352
11
1.03607
21
1.83173
0
LINE
8
BLACK
6
CONTINUOUS
10
1.03607
20
1.83173
11
1.0417
21
1.82708
0
LINE
8
BLACK
6
CONTINUOUS
10
1.0417
20
1.82708
11
1.04631
21
1.82142
0
LINE
8
BLACK
6
CONTINUOUS
10
1.04631
20
1.82142
11
1.04974
21
1.81497
0
LINE
8
BLACK
6
CONTINUOUS
10
1.04974
20
1.81497
11
1.05185
21
1.80799
0
LINE
8
BLACK
6
CONTINUOUS
10
1.05185
20
1.80799
11
1.05256
21
1.80072
0
LINE
8
BLACK
6
CONTINUOUS
10
1.05256
20
1.80072
11
1.05254
21
1.79968
0
LINE
8
BLACK
6
CONTINUOUS
10
1.05254
20
1.79968
11
1.05163
21
1.79244
0
LINE
8
BLACK
6
CONTINUOUS
10
1.05163
20
1.79244
11
1.04933
21
1.78551
0
LINE
8
BLACK
6
CONTINUOUS
10
1.04933
20
1.78551
11
1.04572
21
1.77916
0
LINE
8
BLACK
6
CONTINUOUS
10
1.04572
20
1.77916
11
1.04095
21
1.77364
0
LINE
8
BLACK
6
CONTINUOUS
10
1.04095
20
1.77364
11
1.0352
21
1.76914
0
LINE
8
BLACK
6
CONTINUOUS
10
1.0352
20
1.76914
11
1.02868
21
1.76585
0
LINE
8
BLACK
6
CONTINUOUS
10
1.02868
20
1.76585
11
1.02165
21
1.76389
0
LINE
8
BLACK
6
CONTINUOUS
10
1.02165
20
1.76389
11
1.01437
21
1.76333
0
LINE
8
BLACK
6
CONTINUOUS
10
1.01437
20
1.76333
11
1.00713
21
1.76419
0
LINE
8
BLACK
6
CONTINUOUS
10
1.00713
20
1.76419
11
1.00018
21
1.76645
0
LINE
8
BLACK
6
CONTINUOUS
10
1.00018
20
1.76645
11
0.993812
21
1.77001
0
LINE
8
BLACK
6
CONTINUOUS
10
0.993812
20
1.77001
11
0.988253
21
1.77474
0
LINE
8
BLACK
6
CONTINUOUS
10
0.988253
20
1.77474
11
0.983719
21
1.78046
0
LINE
8
BLACK
6
CONTINUOUS
10
0.983719
20
1.78046
11
0.980382
21
1.78695
0
LINE
8
BLACK
6
CONTINUOUS
10
0.980382
20
1.78695
11
0.97837
21
1.79397
0
LINE
8
BLACK
6
CONTINUOUS
10
0.97837
20
1.79397
11
0.97776
21
1.80124
0
LINE
8
BLACK
6
CONTINUOUS
10
0.97776
20
1.80124
11
0.978573
21
1.8085
0
LINE
8
BLACK
6
CONTINUOUS
10
0.978573
20
1.8085
11
0.98078
21
1.81546
0
LINE
8
BLACK
6
CONTINUOUS
10
0.98078
20
1.81546
11
0.984297
21
1.82185
0
LINE
8
BLACK
6
CONTINUOUS
10
0.984297
20
1.82185
11
0.988989
21
1.82744
0
LINE
8
BLACK
6
CONTINUOUS
10
0.988989
20
1.82744
11
0.994678
21
1.83202
0
LINE
8
BLACK
6
CONTINUOUS
10
0.994678
20
1.83202
11
1.00115
21
1.8354
0
LINE
8
BLACK
6
CONTINUOUS
10
1.00115
20
1.8354
11
1.00815
21
1.83746
0
LINE
8
BLACK
6
CONTINUOUS
10
1.00815
20
1.83746
11
1.01542
21
1.83812
0
LINE
8
BLACK
6
CONTINUOUS
10
1.01542
20
1.83812
11
1.02268
21
1.83736
0
LINE
8
BLACK
6
CONTINUOUS
10
1.38639
20
1.94274
11
1.39642
21
1.94041
0
LINE
8
BLACK
6
CONTINUOUS
10
1.39642
20
1.94041
11
1.40601
21
1.9367
0
LINE
8
BLACK
6
CONTINUOUS
10
1.40601
20
1.9367
11
1.41499
21
1.93168
0
LINE
8
BLACK
6
CONTINUOUS
10
1.41499
20
1.93168
11
1.42317
21
1.92543
0
LINE
8
BLACK
6
CONTINUOUS
10
1.42317
20
1.92543
11
1.43038
21
1.9181
0
LINE
8
BLACK
6
CONTINUOUS
10
1.43038
20
1.9181
11
1.4365
21
1.90983
0
LINE
8
BLACK
6
CONTINUOUS
10
1.4365
20
1.90983
11
1.44138
21
1.90077
0
LINE
8
BLACK
6
CONTINUOUS
10
1.44138
20
1.90077
11
1.44494
21
1.89112
0
LINE
8
BLACK
6
CONTINUOUS
10
1.44494
20
1.89112
11
1.44711
21
1.88106
0
LINE
8
BLACK
6
CONTINUOUS
10
1.44711
20
1.88106
11
1.44783
21
1.8708
0
LINE
8
BLACK
6
CONTINUOUS
10
1.44783
20
1.8708
11
1.44769
21
1.86623
0
LINE
8
BLACK
6
CONTINUOUS
10
1.44769
20
1.86623
11
1.44632
21
1.85603
0
LINE
8
BLACK
6
CONTINUOUS
10
1.44632
20
1.85603
11
1.44353
21
1.84613
0
LINE
8
BLACK
6
CONTINUOUS
10
1.44353
20
1.84613
11
1.43937
21
1.83672
0
LINE
8
BLACK
6
CONTINUOUS
10
1.43937
20
1.83672
11
1.43392
21
1.82799
0
LINE
8
BLACK
6
CONTINUOUS
10
1.43392
20
1.82799
11
1.4273
21
1.82011
0
LINE
8
BLACK
6
CONTINUOUS
10
1.4273
20
1.82011
11
1.41964
21
1.81325
0
LINE
8
BLACK
6
CONTINUOUS
10
1.41964
20
1.81325
11
1.41109
21
1.80753
0
LINE
8
BLACK
6
CONTINUOUS
10
1.41109
20
1.80753
11
1.40181
21
1.80308
0
LINE
8
BLACK
6
CONTINUOUS
10
1.40181
20
1.80308
11
1.392
21
1.79998
0
LINE
8
BLACK
6
CONTINUOUS
10
1.392
20
1.79998
11
1.38185
21
1.79829
0
LINE
8
BLACK
6
CONTINUOUS
10
1.38185
20
1.79829
11
1.37157
21
1.79805
0
LINE
8
BLACK
6
CONTINUOUS
10
1.37157
20
1.79805
11
1.36135
21
1.79926
0
LINE
8
BLACK
6
CONTINUOUS
10
1.36135
20
1.79926
11
1.35141
21
1.80189
0
LINE
8
BLACK
6
CONTINUOUS
10
1.35141
20
1.80189
11
1.34193
21
1.8059
0
LINE
8
BLACK
6
CONTINUOUS
10
1.34193
20
1.8059
11
1.33312
21
1.81121
0
LINE
8
BLACK
6
CONTINUOUS
10
1.33312
20
1.81121
11
1.32514
21
1.81771
0
LINE
8
BLACK
6
CONTINUOUS
10
1.32514
20
1.81771
11
1.31816
21
1.82526
0
LINE
8
BLACK
6
CONTINUOUS
10
1.31816
20
1.82526
11
1.31231
21
1.83372
0
LINE
8
BLACK
6
CONTINUOUS
10
1.31231
20
1.83372
11
1.30771
21
1.84293
0
LINE
8
BLACK
6
CONTINUOUS
10
1.30771
20
1.84293
11
1.30445
21
1.85269
0
LINE
8
BLACK
6
CONTINUOUS
10
1.30445
20
1.85269
11
1.30261
21
1.86281
0
LINE
8
BLACK
6
CONTINUOUS
10
1.30261
20
1.86281
11
1.3022
21
1.87309
0
LINE
8
BLACK
6
CONTINUOUS
10
1.3022
20
1.87309
11
1.30325
21
1.88332
0
LINE
8
BLACK
6
CONTINUOUS
10
1.30325
20
1.88332
11
1.30573
21
1.89331
0
LINE
8
BLACK
6
CONTINUOUS
10
1.30573
20
1.89331
11
1.30959
21
1.90284
0
LINE
8
BLACK
6
CONTINUOUS
10
1.30959
20
1.90284
11
1.31476
21
1.91174
0
LINE
8
BLACK
6
CONTINUOUS
10
1.31476
20
1.91174
11
1.32113
21
1.91982
0
LINE
8
BLACK
6
CONTINUOUS
10
1.32113
20
1.91982
11
1.32857
21
1.92692
0
LINE
8
BLACK
6
CONTINUOUS
10
1.32857
20
1.92692
11
1.33694
21
1.9329
0
LINE
8
BLACK
6
CONTINUOUS
10
1.33694
20
1.9329
11
1.34607
21
1.93764
0
LINE
8
BLACK
6
CONTINUOUS
10
1.34607
20
1.93764
11
1.35578
21
1.94105
0
LINE
8
BLACK
6
CONTINUOUS
10
1.35578
20
1.94105
11
1.36587
21
1.94306
0
LINE
8
BLACK
6
CONTINUOUS
10
1.36587
20
1.94306
11
1.37614
21
1.94363
0
LINE
8
BLACK
6
CONTINUOUS
10
1.37614
20
1.94363
11
1.38639
21
1.94274
0
LINE
8
BLACK
6
CONTINUOUS
10
1.02268
20
1.92752
11
1.02965
21
1.92536
0
LINE
8
BLACK
6
CONTINUOUS
10
1.02965
20
1.92536
11
1.03607
21
1.92189
0
LINE
8
BLACK
6
CONTINUOUS
10
1.03607
20
1.92189
11
1.0417
21
1.91723
0
LINE
8
BLACK
6
CONTINUOUS
10
1.0417
20
1.91723
11
1.04631
21
1.91158
0
LINE
8
BLACK
6
CONTINUOUS
10
1.04631
20
1.91158
11
1.04974
21
1.90513
0
LINE
8
BLACK
6
CONTINUOUS
10
1.04974
20
1.90513
11
1.05185
21
1.89814
0
LINE
8
BLACK
6
CONTINUOUS
10
1.05185
20
1.89814
11
1.05256
21
1.89088
0
LINE
8
BLACK
6
CONTINUOUS
10
1.05256
20
1.89088
11
1.05254
21
1.88983
0
LINE
8
BLACK
6
CONTINUOUS
10
1.05254
20
1.88983
11
1.05163
21
1.88259
0
LINE
8
BLACK
6
CONTINUOUS
10
1.05163
20
1.88259
11
1.04933
21
1.87567
0
LINE
8
BLACK
6
CONTINUOUS
10
1.04933
20
1.87567
11
1.04572
21
1.86932
0
LINE
8
BLACK
6
CONTINUOUS
10
1.04572
20
1.86932
11
1.04095
21
1.86379
0
LINE
8
BLACK
6
CONTINUOUS
10
1.04095
20
1.86379
11
1.0352
21
1.8593
0
LINE
8
BLACK
6
CONTINUOUS
10
1.0352
20
1.8593
11
1.02868
21
1.85601
0
LINE
8
BLACK
6
CONTINUOUS
10
1.02868
20
1.85601
11
1.02165
21
1.85405
0
LINE
8
BLACK
6
CONTINUOUS
10
1.02165
20
1.85405
11
1.01437
21
1.85349
0
LINE
8
BLACK
6
CONTINUOUS
10
1.01437
20
1.85349
11
1.00713
21
1.85435
0
LINE
8
BLACK
6
CONTINUOUS
10
1.00713
20
1.85435
11
1.00018
21
1.85661
0
LINE
8
BLACK
6
CONTINUOUS
10
1.00018
20
1.85661
11
0.993812
21
1.86017
0
LINE
8
BLACK
6
CONTINUOUS
10
0.993812
20
1.86017
11
0.988253
21
1.8649
0
LINE
8
BLACK
6
CONTINUOUS
10
0.988253
20
1.8649
11
0.983719
21
1.87062
0
LINE
8
BLACK
6
CONTINUOUS
10
0.983719
20
1.87062
11
0.980382
21
1.87711
0
LINE
8
BLACK
6
CONTINUOUS
10
0.980382
20
1.87711
11
0.97837
21
1.88413
0
LINE
8
BLACK
6
CONTINUOUS
10
0.97837
20
1.88413
11
0.97776
21
1.8914
0
LINE
8
BLACK
6
CONTINUOUS
10
0.97776
20
1.8914
11
0.978573
21
1.89865
0
LINE
8
BLACK
6
CONTINUOUS
10
0.978573
20
1.89865
11
0.98078
21
1.90561
0
LINE
8
BLACK
6
CONTINUOUS
10
0.98078
20
1.90561
11
0.984297
21
1.91201
0
LINE
8
BLACK
6
CONTINUOUS
10
0.984297
20
1.91201
11
0.988989
21
1.9176
0
LINE
8
BLACK
6
CONTINUOUS
10
0.988989
20
1.9176
11
0.994678
21
1.92218
0
LINE
8
BLACK
6
CONTINUOUS
10
0.994678
20
1.92218
11
1.00115
21
1.92556
0
LINE
8
BLACK
6
CONTINUOUS
10
1.00115
20
1.92556
11
1.00815
21
1.92762
0
LINE
8
BLACK
6
CONTINUOUS
10
1.00815
20
1.92762
11
1.01542
21
1.92828
0
LINE
8
BLACK
6
CONTINUOUS
10
1.01542
20
1.92828
11
1.02268
21
1.92752
0
LINE
8
BLACK
6
CONTINUOUS
10
1.24919
20
1.99322
11
1.25814
21
1.99082
0
LINE
8
BLACK
6
CONTINUOUS
10
1.25814
20
1.99082
11
1.26654
21
1.98691
0
LINE
8
BLACK
6
CONTINUOUS
10
1.26654
20
1.98691
11
1.27412
21
1.98159
0
LINE
8
BLACK
6
CONTINUOUS
10
1.27412
20
1.98159
11
1.28068
21
1.97504
0
LINE
8
BLACK
6
CONTINUOUS
10
1.28068
20
1.97504
11
1.28599
21
1.96745
0
LINE
8
BLACK
6
CONTINUOUS
10
1.28599
20
1.96745
11
1.2899
21
1.95906
0
LINE
8
BLACK
6
CONTINUOUS
10
1.2899
20
1.95906
11
1.2923
21
1.95011
0
LINE
8
BLACK
6
CONTINUOUS
10
1.2923
20
1.95011
11
1.29311
21
1.94088
0
LINE
8
BLACK
6
CONTINUOUS
10
1.29311
20
1.94088
11
1.2923
21
1.93165
0
LINE
8
BLACK
6
CONTINUOUS
10
1.2923
20
1.93165
11
1.2899
21
1.9227
0
LINE
8
BLACK
6
CONTINUOUS
10
1.2899
20
1.9227
11
1.28599
21
1.9143
0
LINE
8
BLACK
6
CONTINUOUS
10
1.28599
20
1.9143
11
1.28068
21
1.90671
0
LINE
8
BLACK
6
CONTINUOUS
10
1.28068
20
1.90671
11
1.27412
21
1.90016
0
LINE
8
BLACK
6
CONTINUOUS
10
1.27412
20
1.90016
11
1.26654
21
1.89485
0
LINE
8
BLACK
6
CONTINUOUS
10
1.26654
20
1.89485
11
1.25814
21
1.89093
0
LINE
8
BLACK
6
CONTINUOUS
10
1.25814
20
1.89093
11
1.24919
21
1.88854
0
LINE
8
BLACK
6
CONTINUOUS
10
1.24919
20
1.88854
11
1.23996
21
1.88773
0
LINE
8
BLACK
6
CONTINUOUS
10
1.23996
20
1.88773
11
1.23073
21
1.88854
0
LINE
8
BLACK
6
CONTINUOUS
10
1.23073
20
1.88854
11
1.22178
21
1.89093
0
LINE
8
BLACK
6
CONTINUOUS
10
1.22178
20
1.89093
11
1.21339
21
1.89485
0
LINE
8
BLACK
6
CONTINUOUS
10
1.21339
20
1.89485
11
1.2058
21
1.90016
0
LINE
8
BLACK
6
CONTINUOUS
10
1.2058
20
1.90016
11
1.19925
21
1.90671
0
LINE
8
BLACK
6
CONTINUOUS
10
1.19925
20
1.90671
11
1.19393
21
1.9143
0
LINE
8
BLACK
6
CONTINUOUS
10
1.19393
20
1.9143
11
1.19002
21
1.9227
0
LINE
8
BLACK
6
CONTINUOUS
10
1.19002
20
1.9227
11
1.18762
21
1.93165
0
LINE
8
BLACK
6
CONTINUOUS
10
1.18762
20
1.93165
11
1.18681
21
1.94088
0
LINE
8
BLACK
6
CONTINUOUS
10
1.18681
20
1.94088
11
1.18762
21
1.95011
0
LINE
8
BLACK
6
CONTINUOUS
10
1.18762
20
1.95011
11
1.19002
21
1.95906
0
LINE
8
BLACK
6
CONTINUOUS
10
1.19002
20
1.95906
11
1.19393
21
1.96745
0
LINE
8
BLACK
6
CONTINUOUS
10
1.19393
20
1.96745
11
1.19925
21
1.97504
0
LINE
8
BLACK
6
CONTINUOUS
10
1.19925
20
1.97504
11
1.2058
21
1.98159
0
LINE
8
BLACK
6
CONTINUOUS
10
1.2058
20
1.98159
11
1.21339
21
1.98691
0
LINE
8
BLACK
6
CONTINUOUS
10
1.21339
20
1.98691
11
1.22178
21
1.99082
0
LINE
8
BLACK
6
CONTINUOUS
10
1.22178
20
1.99082
11
1.23073
21
1.99322
0
LINE
8
BLACK
6
CONTINUOUS
10
1.23073
20
1.99322
11
1.23996
21
1.99403
0
LINE
8
BLACK
6
CONTINUOUS
10
1.23996
20
1.99403
11
1.24919
21
1.99322
0
LINE
8
BLACK
6
CONTINUOUS
10
0.643229
20
2.13794
11
0.649774
21
2.13596
0
LINE
8
BLACK
6
CONTINUOUS
10
0.649774
20
2.13596
11
0.655688
21
2.13253
0
LINE
8
BLACK
6
CONTINUOUS
10
0.655688
20
2.13253
11
0.660653
21
2.12782
0
LINE
8
BLACK
6
CONTINUOUS
10
0.660653
20
2.12782
11
0.664402
21
2.1221
0
LINE
8
BLACK
6
CONTINUOUS
10
0.664402
20
2.1221
11
0.666736
21
2.11567
0
LINE
8
BLACK
6
CONTINUOUS
10
0.666736
20
2.11567
11
0.667528
21
2.10888
0
LINE
8
BLACK
6
CONTINUOUS
10
0.667528
20
2.10888
11
0.667528
21
2.10101
0
LINE
8
BLACK
6
CONTINUOUS
10
0.667528
20
2.10101
11
0.667301
21
2.09736
0
LINE
8
BLACK
6
CONTINUOUS
10
0.667301
20
2.09736
11
0.665676
21
2.09072
0
LINE
8
BLACK
6
CONTINUOUS
10
0.665676
20
2.09072
11
0.662566
21
2.08462
0
LINE
8
BLACK
6
CONTINUOUS
10
0.662566
20
2.08462
11
0.658138
21
2.07941
0
LINE
8
BLACK
6
CONTINUOUS
10
0.658138
20
2.07941
11
0.65263
21
2.07536
0
LINE
8
BLACK
6
CONTINUOUS
10
0.65263
20
2.07536
11
0.646337
21
2.07268
0
LINE
8
BLACK
6
CONTINUOUS
10
0.646337
20
2.07268
11
0.639597
21
2.07152
0
LINE
8
BLACK
6
CONTINUOUS
10
0.639597
20
2.07152
11
0.632771
21
2.07195
0
LINE
8
BLACK
6
CONTINUOUS
10
0.632771
20
2.07195
11
0.626226
21
2.07393
0
LINE
8
BLACK
6
CONTINUOUS
10
0.626226
20
2.07393
11
0.620312
21
2.07736
0
LINE
8
BLACK
6
CONTINUOUS
10
0.620312
20
2.07736
11
0.615347
21
2.08207
0
LINE
8
BLACK
6
CONTINUOUS
10
0.615347
20
2.08207
11
0.611598
21
2.08779
0
LINE
8
BLACK
6
CONTINUOUS
10
0.611598
20
2.08779
11
0.609264
21
2.09422
0
LINE
8
BLACK
6
CONTINUOUS
10
0.609264
20
2.09422
11
0.608472
21
2.10101
0
LINE
8
BLACK
6
CONTINUOUS
10
0.608472
20
2.10101
11
0.608472
21
2.10888
0
LINE
8
BLACK
6
CONTINUOUS
10
0.608472
20
2.10888
11
0.608699
21
2.11253
0
LINE
8
BLACK
6
CONTINUOUS
10
0.608699
20
2.11253
11
0.610324
21
2.11917
0
LINE
8
BLACK
6
CONTINUOUS
10
0.610324
20
2.11917
11
0.613434
21
2.12527
0
LINE
8
BLACK
6
CONTINUOUS
10
0.613434
20
2.12527
11
0.617862
21
2.13048
0
LINE
8
BLACK
6
CONTINUOUS
10
0.617862
20
2.13048
11
0.62337
21
2.13453
0
LINE
8
BLACK
6
CONTINUOUS
10
0.62337
20
2.13453
11
0.629663
21
2.13721
0
LINE
8
BLACK
6
CONTINUOUS
10
0.629663
20
2.13721
11
0.636403
21
2.13837
0
LINE
8
BLACK
6
CONTINUOUS
10
0.636403
20
2.13837
11
0.643229
21
2.13794
0
LINE
8
BLACK
6
CONTINUOUS
10
0.793229
20
2.13794
11
0.799774
21
2.13596
0
LINE
8
BLACK
6
CONTINUOUS
10
0.799774
20
2.13596
11
0.805688
21
2.13253
0
LINE
8
BLACK
6
CONTINUOUS
10
0.805688
20
2.13253
11
0.810653
21
2.12782
0
LINE
8
BLACK
6
CONTINUOUS
10
0.810653
20
2.12782
11
0.814402
21
2.1221
0
LINE
8
BLACK
6
CONTINUOUS
10
0.814402
20
2.1221
11
0.816736
21
2.11567
0
LINE
8
BLACK
6
CONTINUOUS
10
0.816736
20
2.11567
11
0.817528
21
2.10888
0
LINE
8
BLACK
6
CONTINUOUS
10
0.817528
20
2.10888
11
0.817528
21
2.10101
0
LINE
8
BLACK
6
CONTINUOUS
10
0.817528
20
2.10101
11
0.817301
21
2.09736
0
LINE
8
BLACK
6
CONTINUOUS
10
0.817301
20
2.09736
11
0.815676
21
2.09072
0
LINE
8
BLACK
6
CONTINUOUS
10
0.815676
20
2.09072
11
0.812566
21
2.08462
0
LINE
8
BLACK
6
CONTINUOUS
10
0.812566
20
2.08462
11
0.808138
21
2.07941
0
LINE
8
BLACK
6
CONTINUOUS
10
0.808138
20
2.07941
11
0.80263
21
2.07536
0
LINE
8
BLACK
6
CONTINUOUS
10
0.80263
20
2.07536
11
0.796337
21
2.07268
0
LINE
8
BLACK
6
CONTINUOUS
10
0.796337
20
2.07268
11
0.789597
21
2.07152
0
LINE
8
BLACK
6
CONTINUOUS
10
0.789597
20
2.07152
11
0.782771
21
2.07195
0
LINE
8
BLACK
6
CONTINUOUS
10
0.782771
20
2.07195
11
0.776226
21
2.07393
0
LINE
8
BLACK
6
CONTINUOUS
10
0.776226
20
2.07393
11
0.770312
21
2.07736
0
LINE
8
BLACK
6
CONTINUOUS
10
0.770312
20
2.07736
11
0.765347
21
2.08207
0
LINE
8
BLACK
6
CONTINUOUS
10
0.765347
20
2.08207
11
0.761598
21
2.08779
0
LINE
8
BLACK
6
CONTINUOUS
10
0.761598
20
2.08779
11
0.759264
21
2.09422
0
LINE
8
BLACK
6
CONTINUOUS
10
0.759264
20
2.09422
11
0.758472
21
2.10101
0
LINE
8
BLACK
6
CONTINUOUS
10
0.758472
20
2.10101
11
0.758472
21
2.10888
0
LINE
8
BLACK
6
CONTINUOUS
10
0.758472
20
2.10888
11
0.758699
21
2.11253
0
LINE
8
BLACK
6
CONTINUOUS
10
0.758699
20
2.11253
11
0.760324
21
2.11917
0
LINE
8
BLACK
6
CONTINUOUS
10
0.760324
20
2.11917
11
0.763434
21
2.12527
0
LINE
8
BLACK
6
CONTINUOUS
10
0.763434
20
2.12527
11
0.767862
21
2.13048
0
LINE
8
BLACK
6
CONTINUOUS
10
0.767862
20
2.13048
11
0.77337
21
2.13453
0
LINE
8
BLACK
6
CONTINUOUS
10
0.77337
20
2.13453
11
0.779663
21
2.13721
0
LINE
8
BLACK
6
CONTINUOUS
10
0.779663
20
2.13721
11
0.786403
21
2.13837
0
LINE
8
BLACK
6
CONTINUOUS
10
0.786403
20
2.13837
11
0.793229
21
2.13794
0
LINE
8
BLACK
6
CONTINUOUS
10
0.943229
20
2.13794
11
0.949774
21
2.13596
0
LINE
8
BLACK
6
CONTINUOUS
10
0.949774
20
2.13596
11
0.955688
21
2.13253
0
LINE
8
BLACK
6
CONTINUOUS
10
0.955688
20
2.13253
11
0.960653
21
2.12782
0
LINE
8
BLACK
6
CONTINUOUS
10
0.960653
20
2.12782
11
0.964402
21
2.1221
0
LINE
8
BLACK
6
CONTINUOUS
10
0.964402
20
2.1221
11
0.966736
21
2.11567
0
LINE
8
BLACK
6
CONTINUOUS
10
0.966736
20
2.11567
11
0.967528
21
2.10888
0
LINE
8
BLACK
6
CONTINUOUS
10
0.967528
20
2.10888
11
0.967528
21
2.10101
0
LINE
8
BLACK
6
CONTINUOUS
10
0.967528
20
2.10101
11
0.967301
21
2.09736
0
LINE
8
BLACK
6
CONTINUOUS
10
0.967301
20
2.09736
11
0.965676
21
2.09072
0
LINE
8
BLACK
6
CONTINUOUS
10
0.965676
20
2.09072
11
0.962566
21
2.08462
0
LINE
8
BLACK
6
CONTINUOUS
10
0.962566
20
2.08462
11
0.958138
21
2.07941
0
LINE
8
BLACK
6
CONTINUOUS
10
0.958138
20
2.07941
11
0.95263
21
2.07536
0
LINE
8
BLACK
6
CONTINUOUS
10
0.95263
20
2.07536
11
0.946337
21
2.07268
0
LINE
8
BLACK
6
CONTINUOUS
10
0.946337
20
2.07268
11
0.939597
21
2.07152
0
LINE
8
BLACK
6
CONTINUOUS
10
0.939597
20
2.07152
11
0.932771
21
2.07195
0
LINE
8
BLACK
6
CONTINUOUS
10
0.932771
20
2.07195
11
0.926226
21
2.07393
0
LINE
8
BLACK
6
CONTINUOUS
10
0.926226
20
2.07393
11
0.920312
21
2.07736
0
LINE
8
BLACK
6
CONTINUOUS
10
0.920312
20
2.07736
11
0.915347
21
2.08207
0
LINE
8
BLACK
6
CONTINUOUS
10
0.915347
20
2.08207
11
0.911598
21
2.08779
0
LINE
8
BLACK
6
CONTINUOUS
10
0.911598
20
2.08779
11
0.909264
21
2.09422
0
LINE
8
BLACK
6
CONTINUOUS
10
0.909264
20
2.09422
11
0.908472
21
2.10101
0
LINE
8
BLACK
6
CONTINUOUS
10
0.908472
20
2.10101
11
0.908472
21
2.10888
0
LINE
8
BLACK
6
CONTINUOUS
10
0.908472
20
2.10888
11
0.908699
21
2.11253
0
LINE
8
BLACK
6
CONTINUOUS
10
0.908699
20
2.11253
11
0.910324
21
2.11917
0
LINE
8
BLACK
6
CONTINUOUS
10
0.910324
20
2.11917
11
0.913434
21
2.12527
0
LINE
8
BLACK
6
CONTINUOUS
10
0.913434
20
2.12527
11
0.917862
21
2.13048
0
LINE
8
BLACK
6
CONTINUOUS
10
0.917862
20
2.13048
11
0.92337
21
2.13453
0
LINE
8
BLACK
6
CONTINUOUS
10
0.92337
20
2.13453
11
0.929663
21
2.13721
0
LINE
8
BLACK
6
CONTINUOUS
10
0.929663
20
2.13721
11
0.936403
21
2.13837
0
LINE
8
BLACK
6
CONTINUOUS
10
0.936403
20
2.13837
11
0.943229
21
2.13794
0
LINE
8
BLACK
6
CONTINUOUS
10
1.41492
20
2.3251
11
1.42877
21
2.32266
0
LINE
8
BLACK
6
CONTINUOUS
10
1.42877
20
2.32266
11
1.44226
21
2.31868
0
LINE
8
BLACK
6
CONTINUOUS
10
1.44226
20
2.31868
11
1.45523
21
2.31323
0
LINE
8
BLACK
6
CONTINUOUS
10
1.45523
20
2.31323
11
1.46751
21
2.30637
0
LINE
8
BLACK
6
CONTINUOUS
10
1.46751
20
2.30637
11
1.47894
21
2.29818
0
LINE
8
BLACK
6
CONTINUOUS
10
1.47894
20
2.29818
11
1.48939
21
2.28877
0
LINE
8
BLACK
6
CONTINUOUS
10
1.48939
20
2.28877
11
1.49873
21
2.27825
0
LINE
8
BLACK
6
CONTINUOUS
10
1.49873
20
2.27825
11
1.50684
21
2.26676
0
LINE
8
BLACK
6
CONTINUOUS
10
1.50684
20
2.26676
11
1.51362
21
2.25444
0
LINE
8
BLACK
6
CONTINUOUS
10
1.51362
20
2.25444
11
1.51898
21
2.24143
0
LINE
8
BLACK
6
CONTINUOUS
10
1.51898
20
2.24143
11
1.52285
21
2.22791
0
LINE
8
BLACK
6
CONTINUOUS
10
1.52285
20
2.22791
11
1.5252
21
2.21404
0
LINE
8
BLACK
6
CONTINUOUS
10
1.5252
20
2.21404
11
1.52598
21
2.2
0
LINE
8
BLACK
6
CONTINUOUS
10
1.52598
20
2.2
11
1.52594
21
2.19648
0
LINE
8
BLACK
6
CONTINUOUS
10
1.52594
20
2.19648
11
1.52476
21
2.18247
0
LINE
8
BLACK
6
CONTINUOUS
10
1.52476
20
2.18247
11
1.52203
21
2.16867
0
LINE
8
BLACK
6
CONTINUOUS
10
1.52203
20
2.16867
11
1.51777
21
2.15526
0
LINE
8
BLACK
6
CONTINUOUS
10
1.51777
20
2.15526
11
1.51205
21
2.14241
0
LINE
8
BLACK
6
CONTINUOUS
10
1.51205
20
2.14241
11
1.50493
21
2.13028
0
LINE
8
BLACK
6
CONTINUOUS
10
1.50493
20
2.13028
11
1.49651
21
2.11902
0
LINE
8
BLACK
6
CONTINUOUS
10
1.49651
20
2.11902
11
1.48688
21
2.10877
0
LINE
8
BLACK
6
CONTINUOUS
10
1.48688
20
2.10877
11
1.47617
21
2.09965
0
LINE
8
BLACK
6
CONTINUOUS
10
1.47617
20
2.09965
11
1.46451
21
2.09178
0
LINE
8
BLACK
6
CONTINUOUS
10
1.46451
20
2.09178
11
1.45204
21
2.08527
0
LINE
8
BLACK
6
CONTINUOUS
10
1.45204
20
2.08527
11
1.43893
21
2.08018
0
LINE
8
BLACK
6
CONTINUOUS
10
1.43893
20
2.08018
11
1.42533
21
2.07659
0
LINE
8
BLACK
6
CONTINUOUS
10
1.42533
20
2.07659
11
1.41142
21
2.07453
0
LINE
8
BLACK
6
CONTINUOUS
10
1.41142
20
2.07453
11
1.39736
21
2.07404
0
LINE
8
BLACK
6
CONTINUOUS
10
1.39736
20
2.07404
11
1.38334
21
2.07512
0
LINE
8
BLACK
6
CONTINUOUS
10
1.38334
20
2.07512
11
1.36952
21
2.07776
0
LINE
8
BLACK
6
CONTINUOUS
10
1.36952
20
2.07776
11
1.35609
21
2.08192
0
LINE
8
BLACK
6
CONTINUOUS
10
1.35609
20
2.08192
11
1.3432
21
2.08755
0
LINE
8
BLACK
6
CONTINUOUS
10
1.3432
20
2.08755
11
1.33102
21
2.09458
0
LINE
8
BLACK
6
CONTINUOUS
10
1.33102
20
2.09458
11
1.31969
21
2.10293
0
LINE
8
BLACK
6
CONTINUOUS
10
1.31969
20
2.10293
11
1.30937
21
2.11248
0
LINE
8
BLACK
6
CONTINUOUS
10
1.30937
20
2.11248
11
1.30018
21
2.12313
0
LINE
8
BLACK
6
CONTINUOUS
10
1.30018
20
2.12313
11
1.29224
21
2.13474
0
LINE
8
BLACK
6
CONTINUOUS
10
1.29224
20
2.13474
11
1.28563
21
2.14716
0
LINE
8
BLACK
6
CONTINUOUS
10
1.28563
20
2.14716
11
1.28046
21
2.16023
0
LINE
8
BLACK
6
CONTINUOUS
10
1.28046
20
2.16023
11
1.27677
21
2.17381
0
LINE
8
BLACK
6
CONTINUOUS
10
1.27677
20
2.17381
11
1.27462
21
2.18771
0
LINE
8
BLACK
6
CONTINUOUS
10
1.27462
20
2.18771
11
1.27403
21
2.20176
0
LINE
8
BLACK
6
CONTINUOUS
10
1.27403
20
2.20176
11
1.27501
21
2.21579
0
LINE
8
BLACK
6
CONTINUOUS
10
1.27501
20
2.21579
11
1.27755
21
2.22962
0
LINE
8
BLACK
6
CONTINUOUS
10
1.27755
20
2.22962
11
1.28161
21
2.24309
0
LINE
8
BLACK
6
CONTINUOUS
10
1.28161
20
2.24309
11
1.28715
21
2.25602
0
LINE
8
BLACK
6
CONTINUOUS
10
1.28715
20
2.25602
11
1.2941
21
2.26825
0
LINE
8
BLACK
6
CONTINUOUS
10
1.2941
20
2.26825
11
1.30237
21
2.27963
0
LINE
8
BLACK
6
CONTINUOUS
10
1.30237
20
2.27963
11
1.31185
21
2.29001
0
LINE
8
BLACK
6
CONTINUOUS
10
1.31185
20
2.29001
11
1.32244
21
2.29928
0
LINE
8
BLACK
6
CONTINUOUS
10
1.32244
20
2.29928
11
1.33399
21
2.3073
0
LINE
8
BLACK
6
CONTINUOUS
10
1.33399
20
2.3073
11
1.34636
21
2.31399
0
LINE
8
BLACK
6
CONTINUOUS
10
1.34636
20
2.31399
11
1.3594
21
2.31926
0
LINE
8
BLACK
6
CONTINUOUS
10
1.3594
20
2.31926
11
1.37295
21
2.32305
0
LINE
8
BLACK
6
CONTINUOUS
10
1.37295
20
2.32305
11
1.38683
21
2.32529
0
LINE
8
BLACK
6
CONTINUOUS
10
1.38683
20
2.32529
11
1.40088
21
2.32598
0
LINE
8
BLACK
6
CONTINUOUS
10
1.40088
20
2.32598
11
1.41492
21
2.3251
0
LINE
8
BLACK
6
CONTINUOUS
10
0.214917
20
2.3251
11
0.228769
21
2.32266
0
LINE
8
BLACK
6
CONTINUOUS
10
0.228769
20
2.32266
11
0.242262
21
2.31868
0
LINE
8
BLACK
6
CONTINUOUS
10
0.242262
20
2.31868
11
0.255228
21
2.31323
0
LINE
8
BLACK
6
CONTINUOUS
10
0.255228
20
2.31323
11
0.267506
21
2.30637
0
LINE
8
BLACK
6
CONTINUOUS
10
0.267506
20
2.30637
11
0.278942
21
2.29818
0
LINE
8
BLACK
6
CONTINUOUS
10
0.278942
20
2.29818
11
0.289395
21
2.28877
0
LINE
8
BLACK
6
CONTINUOUS
10
0.289395
20
2.28877
11
0.298733
21
2.27825
0
LINE
8
BLACK
6
CONTINUOUS
10
0.298733
20
2.27825
11
0.306841
21
2.26676
0
LINE
8
BLACK
6
CONTINUOUS
10
0.306841
20
2.26676
11
0.313617
21
2.25444
0
LINE
8
BLACK
6
CONTINUOUS
10
0.313617
20
2.25444
11
0.318977
21
2.24143
0
LINE
8
BLACK
6
CONTINUOUS
10
0.318977
20
2.24143
11
0.322853
21
2.22791
0
LINE
8
BLACK
6
CONTINUOUS
10
0.322853
20
2.22791
11
0.325199
21
2.21404
0
LINE
8
BLACK
6
CONTINUOUS
10
0.325199
20
2.21404
11
0.325984
21
2.2
0
LINE
8
BLACK
6
CONTINUOUS
10
0.325984
20
2.2
11
0.325935
21
2.19648
0
LINE
8
BLACK
6
CONTINUOUS
10
0.325935
20
2.19648
11
0.324758
21
2.18247
0
LINE
8
BLACK
6
CONTINUOUS
10
0.324758
20
2.18247
11
0.322026
21
2.16867
0
LINE
8
BLACK
6
CONTINUOUS
10
0.322026
20
2.16867
11
0.317773
21
2.15526
0
LINE
8
BLACK
6
CONTINUOUS
10
0.317773
20
2.15526
11
0.312052
21
2.14241
0
LINE
8
BLACK
6
CONTINUOUS
10
0.312052
20
2.14241
11
0.304935
21
2.13028
0
LINE
8
BLACK
6
CONTINUOUS
10
0.304935
20
2.13028
11
0.29651
21
2.11902
0
LINE
8
BLACK
6
CONTINUOUS
10
0.29651
20
2.11902
11
0.286881
21
2.10877
0
LINE
8
BLACK
6
CONTINUOUS
10
0.286881
20
2.10877
11
0.27617
21
2.09965
0
LINE
8
BLACK
6
CONTINUOUS
10
0.27617
20
2.09965
11
0.264509
21
2.09178
0
LINE
8
BLACK
6
CONTINUOUS
10
0.264509
20
2.09178
11
0.252045
21
2.08527
0
LINE
8
BLACK
6
CONTINUOUS
10
0.252045
20
2.08527
11
0.238931
21
2.08018
0
LINE
8
BLACK
6
CONTINUOUS
10
0.238931
20
2.08018
11
0.225333
21
2.07659
0
LINE
8
BLACK
6
CONTINUOUS
10
0.225333
20
2.07659
11
0.211418
21
2.07453
0
LINE
8
BLACK
6
CONTINUOUS
10
0.211418
20
2.07453
11
0.197362
21
2.07404
0
LINE
8
BLACK
6
CONTINUOUS
10
0.197362
20
2.07404
11
0.183338
21
2.07512
0
LINE
8
BLACK
6
CONTINUOUS
10
0.183338
20
2.07512
11
0.169522
21
2.07776
0
LINE
8
BLACK
6
CONTINUOUS
10
0.169522
20
2.07776
11
0.156085
21
2.08192
0
LINE
8
BLACK
6
CONTINUOUS
10
0.156085
20
2.08192
11
0.143197
21
2.08755
0
LINE
8
BLACK
6
CONTINUOUS
10
0.143197
20
2.08755
11
0.131016
21
2.09458
0
LINE
8
BLACK
6
CONTINUOUS
10
0.131016
20
2.09458
11
0.119695
21
2.10293
0
LINE
8
BLACK
6
CONTINUOUS
10
0.119695
20
2.10293
11
0.109375
21
2.11248
0
LINE
8
BLACK
6
CONTINUOUS
10
0.109375
20
2.11248
11
0.100184
21
2.12313
0
LINE
8
BLACK
6
CONTINUOUS
10
0.100184
20
2.12313
11
0.0922376
21
2.13474
0
LINE
8
BLACK
6
CONTINUOUS
10
0.0922376
20
2.13474
11
0.0856343
21
2.14716
0
LINE
8
BLACK
6
CONTINUOUS
10
0.0856343
20
2.14716
11
0.0804566
21
2.16023
0
LINE
8
BLACK
6
CONTINUOUS
10
0.0804566
20
2.16023
11
0.0767688
21
2.17381
0
LINE
8
BLACK
6
CONTINUOUS
10
0.0767688
20
2.17381
11
0.074617
21
2.18771
0
LINE
8
BLACK
6
CONTINUOUS
10
0.074617
20
2.18771
11
0.074028
21
2.20176
0
LINE
8
BLACK
6
CONTINUOUS
10
0.074028
20
2.20176
11
0.0750092
21
2.21579
0
LINE
8
BLACK
6
CONTINUOUS
10
0.0750092
20
2.21579
11
0.0775482
21
2.22962
0
LINE
8
BLACK
6
CONTINUOUS
10
0.0775482
20
2.22962
11
0.0816135
21
2.24309
0
LINE
8
BLACK
6
CONTINUOUS
10
0.0816135
20
2.24309
11
0.0871544
21
2.25602
0
LINE
8
BLACK
6
CONTINUOUS
10
0.0871544
20
2.25602
11
0.0941019
21
2.26825
0
LINE
8
BLACK
6
CONTINUOUS
10
0.0941019
20
2.26825
11
0.102369
21
2.27963
0
LINE
8
BLACK
6
CONTINUOUS
10
0.102369
20
2.27963
11
0.111853
21
2.29001
0
LINE
8
BLACK
6
CONTINUOUS
10
0.111853
20
2.29001
11
0.122436
21
2.29928
0
LINE
8
BLACK
6
CONTINUOUS
10
0.122436
20
2.29928
11
0.133986
21
2.3073
0
LINE
8
BLACK
6
CONTINUOUS
10
0.133986
20
2.3073
11
0.146359
21
2.31399
0
LINE
8
BLACK
6
CONTINUOUS
10
0.146359
20
2.31399
11
0.1594
21
2.31926
0
LINE
8
BLACK
6
CONTINUOUS
10
0.1594
20
2.31926
11
0.172947
21
2.32305
0
LINE
8
BLACK
6
CONTINUOUS
10
0.172947
20
2.32305
11
0.186831
21
2.32529
0
LINE
8
BLACK
6
CONTINUOUS
10
0.186831
20
2.32529
11
0.20088
21
2.32598
0
LINE
8
BLACK
6
CONTINUOUS
10
0.20088
20
2.32598
11
0.214917
21
2.3251
0
LINE
8
BLACK
6
CONTINUOUS
10
1.04022
20
2.22083
11
1.04943
21
2.21919
0
LINE
8
BLACK
6
CONTINUOUS
10
1.04943
20
2.21919
11
1.05825
21
2.21607
0
LINE
8
BLACK
6
CONTINUOUS
10
1.05825
20
2.21607
11
1.06644
21
2.21155
0
LINE
8
BLACK
6
CONTINUOUS
10
1.06644
20
2.21155
11
1.07378
21
2.20575
0
LINE
8
BLACK
6
CONTINUOUS
10
1.07378
20
2.20575
11
1.08008
21
2.19883
0
LINE
8
BLACK
6
CONTINUOUS
10
1.08008
20
2.19883
11
1.08516
21
2.19098
0
LINE
8
BLACK
6
CONTINUOUS
10
1.08516
20
2.19098
11
1.08889
21
2.1824
0
LINE
8
BLACK
6
CONTINUOUS
10
1.08889
20
2.1824
11
1.09117
21
2.17332
0
LINE
8
BLACK
6
CONTINUOUS
10
1.09117
20
2.17332
11
1.09194
21
2.164
0
LINE
8
BLACK
6
CONTINUOUS
10
1.09194
20
2.164
11
1.09187
21
2.16121
0
LINE
8
BLACK
6
CONTINUOUS
10
1.09187
20
2.16121
11
1.09065
21
2.15194
0
LINE
8
BLACK
6
CONTINUOUS
10
1.09065
20
2.15194
11
1.08793
21
2.14298
0
LINE
8
BLACK
6
CONTINUOUS
10
1.08793
20
2.14298
11
1.08378
21
2.1346
0
LINE
8
BLACK
6
CONTINUOUS
10
1.08378
20
2.1346
11
1.07832
21
2.127
0
LINE
8
BLACK
6
CONTINUOUS
10
1.07832
20
2.127
11
1.0717
21
2.1204
0
LINE
8
BLACK
6
CONTINUOUS
10
1.0717
20
2.1204
11
1.06408
21
2.11496
0
LINE
8
BLACK
6
CONTINUOUS
10
1.06408
20
2.11496
11
1.05568
21
2.11085
0
LINE
8
BLACK
6
CONTINUOUS
10
1.05568
20
2.11085
11
1.04672
21
2.10816
0
LINE
8
BLACK
6
CONTINUOUS
10
1.04672
20
2.10816
11
1.03744
21
2.10697
0
LINE
8
BLACK
6
CONTINUOUS
10
1.03744
20
2.10697
11
1.02809
21
2.10731
0
LINE
8
BLACK
6
CONTINUOUS
10
1.02809
20
2.10731
11
1.01892
21
2.10918
0
LINE
8
BLACK
6
CONTINUOUS
10
1.01892
20
2.10918
11
1.01018
21
2.11252
0
LINE
8
BLACK
6
CONTINUOUS
10
1.01018
20
2.11252
11
1.00211
21
2.11724
0
LINE
8
BLACK
6
CONTINUOUS
10
1.00211
20
2.11724
11
0.994909
21
2.12321
0
LINE
8
BLACK
6
CONTINUOUS
10
0.994909
20
2.12321
11
0.988784
21
2.13028
0
LINE
8
BLACK
6
CONTINUOUS
10
0.988784
20
2.13028
11
0.983896
21
2.13826
0
LINE
8
BLACK
6
CONTINUOUS
10
0.983896
20
2.13826
11
0.980376
21
2.14693
0
LINE
8
BLACK
6
CONTINUOUS
10
0.980376
20
2.14693
11
0.978319
21
2.15606
0
LINE
8
BLACK
6
CONTINUOUS
10
0.978319
20
2.15606
11
0.977781
21
2.16539
0
LINE
8
BLACK
6
CONTINUOUS
10
0.977781
20
2.16539
11
0.978775
21
2.1747
0
LINE
8
BLACK
6
CONTINUOUS
10
0.978775
20
2.1747
11
0.981275
21
2.18371
0
LINE
8
BLACK
6
CONTINUOUS
10
0.981275
20
2.18371
11
0.985214
21
2.1922
0
LINE
8
BLACK
6
CONTINUOUS
10
0.985214
20
2.1922
11
0.990486
21
2.19993
0
LINE
8
BLACK
6
CONTINUOUS
10
0.990486
20
2.19993
11
0.996949
21
2.20669
0
LINE
8
BLACK
6
CONTINUOUS
10
0.996949
20
2.20669
11
1.00443
21
2.21231
0
LINE
8
BLACK
6
CONTINUOUS
10
1.00443
20
2.21231
11
1.01273
21
2.21663
0
LINE
8
BLACK
6
CONTINUOUS
10
1.01273
20
2.21663
11
1.02162
21
2.21953
0
LINE
8
BLACK
6
CONTINUOUS
10
1.02162
20
2.21953
11
1.03087
21
2.22095
0
LINE
8
BLACK
6
CONTINUOUS
10
1.03087
20
2.22095
11
1.04022
21
2.22083
0
LINE
8
BLACK
6
CONTINUOUS
10
0.743229
20
2.197
11
0.749774
21
2.19502
0
LINE
8
BLACK
6
CONTINUOUS
10
0.749774
20
2.19502
11
0.755688
21
2.19158
0
LINE
8
BLACK
6
CONTINUOUS
10
0.755688
20
2.19158
11
0.760653
21
2.18688
0
LINE
8
BLACK
6
CONTINUOUS
10
0.760653
20
2.18688
11
0.764402
21
2.18116
0
LINE
8
BLACK
6
CONTINUOUS
10
0.764402
20
2.18116
11
0.766736
21
2.17473
0
LINE
8
BLACK
6
CONTINUOUS
10
0.766736
20
2.17473
11
0.767528
21
2.16794
0
LINE
8
BLACK
6
CONTINUOUS
10
0.767528
20
2.16794
11
0.767528
21
2.16006
0
LINE
8
BLACK
6
CONTINUOUS
10
0.767528
20
2.16006
11
0.767301
21
2.15641
0
LINE
8
BLACK
6
CONTINUOUS
10
0.767301
20
2.15641
11
0.765676
21
2.14977
0
LINE
8
BLACK
6
CONTINUOUS
10
0.765676
20
2.14977
11
0.762566
21
2.14368
0
LINE
8
BLACK
6
CONTINUOUS
10
0.762566
20
2.14368
11
0.758138
21
2.13847
0
LINE
8
BLACK
6
CONTINUOUS
10
0.758138
20
2.13847
11
0.75263
21
2.13441
0
LINE
8
BLACK
6
CONTINUOUS
10
0.75263
20
2.13441
11
0.746337
21
2.13174
0
LINE
8
BLACK
6
CONTINUOUS
10
0.746337
20
2.13174
11
0.739597
21
2.13058
0
LINE
8
BLACK
6
CONTINUOUS
10
0.739597
20
2.13058
11
0.732771
21
2.131
0
LINE
8
BLACK
6
CONTINUOUS
10
0.732771
20
2.131
11
0.726226
21
2.13298
0
LINE
8
BLACK
6
CONTINUOUS
10
0.726226
20
2.13298
11
0.720312
21
2.13642
0
LINE
8
BLACK
6
CONTINUOUS
10
0.720312
20
2.13642
11
0.715347
21
2.14112
0
LINE
8
BLACK
6
CONTINUOUS
10
0.715347
20
2.14112
11
0.71305
21
2.14463
0
LINE
8
BLACK
6
CONTINUOUS
10
0.71305
20
2.14463
11
0.712566
21
2.14368
0
LINE
8
BLACK
6
CONTINUOUS
10
0.712566
20
2.14368
11
0.708138
21
2.13847
0
LINE
8
BLACK
6
CONTINUOUS
10
0.708138
20
2.13847
11
0.70263
21
2.13441
0
LINE
8
BLACK
6
CONTINUOUS
10
0.70263
20
2.13441
11
0.696337
21
2.13174
0
LINE
8
BLACK
6
CONTINUOUS
10
0.696337
20
2.13174
11
0.689597
21
2.13058
0
LINE
8
BLACK
6
CONTINUOUS
10
0.689597
20
2.13058
11
0.682771
21
2.131
0
LINE
8
BLACK
6
CONTINUOUS
10
0.682771
20
2.131
11
0.676226
21
2.13298
0
LINE
8
BLACK
6
CONTINUOUS
10
0.676226
20
2.13298
11
0.670312
21
2.13642
0
LINE
8
BLACK
6
CONTINUOUS
10
0.670312
20
2.13642
11
0.665347
21
2.14112
0
LINE
8
BLACK
6
CONTINUOUS
10
0.665347
20
2.14112
11
0.661598
21
2.14684
0
LINE
8
BLACK
6
CONTINUOUS
10
0.661598
20
2.14684
11
0.659264
21
2.15327
0
LINE
8
BLACK
6
CONTINUOUS
10
0.659264
20
2.15327
11
0.658472
21
2.16006
0
LINE
8
BLACK
6
CONTINUOUS
10
0.658472
20
2.16006
11
0.658472
21
2.16794
0
LINE
8
BLACK
6
CONTINUOUS
10
0.658472
20
2.16794
11
0.658699
21
2.17159
0
LINE
8
BLACK
6
CONTINUOUS
10
0.658699
20
2.17159
11
0.660324
21
2.17823
0
LINE
8
BLACK
6
CONTINUOUS
10
0.660324
20
2.17823
11
0.663434
21
2.18432
0
LINE
8
BLACK
6
CONTINUOUS
10
0.663434
20
2.18432
11
0.667862
21
2.18953
0
LINE
8
BLACK
6
CONTINUOUS
10
0.667862
20
2.18953
11
0.67337
21
2.19359
0
LINE
8
BLACK
6
CONTINUOUS
10
0.67337
20
2.19359
11
0.679663
21
2.19626
0
LINE
8
BLACK
6
CONTINUOUS
10
0.679663
20
2.19626
11
0.686403
21
2.19742
0
LINE
8
BLACK
6
CONTINUOUS
10
0.686403
20
2.19742
11
0.693229
21
2.197
0
LINE
8
BLACK
6
CONTINUOUS
10
0.693229
20
2.197
11
0.699774
21
2.19502
0
LINE
8
BLACK
6
CONTINUOUS
10
0.699774
20
2.19502
11
0.705688
21
2.19158
0
LINE
8
BLACK
6
CONTINUOUS
10
0.705688
20
2.19158
11
0.710653
21
2.18688
0
LINE
8
BLACK
6
CONTINUOUS
10
0.710653
20
2.18688
11
0.71295
21
2.18337
0
LINE
8
BLACK
6
CONTINUOUS
10
0.71295
20
2.18337
11
0.713434
21
2.18432
0
LINE
8
BLACK
6
CONTINUOUS
10
0.713434
20
2.18432
11
0.717862
21
2.18953
0
LINE
8
BLACK
6
CONTINUOUS
10
0.717862
20
2.18953
11
0.72337
21
2.19359
0
LINE
8
BLACK
6
CONTINUOUS
10
0.72337
20
2.19359
11
0.729663
21
2.19626
0
LINE
8
BLACK
6
CONTINUOUS
10
0.729663
20
2.19626
11
0.736403
21
2.19742
0
LINE
8
BLACK
6
CONTINUOUS
10
0.736403
20
2.19742
11
0.743229
21
2.197
0
LINE
8
BLACK
6
CONTINUOUS
10
0.893229
20
2.197
11
0.899774
21
2.19502
0
LINE
8
BLACK
6
CONTINUOUS
10
0.899774
20
2.19502
11
0.905688
21
2.19158
0
LINE
8
BLACK
6
CONTINUOUS
10
0.905688
20
2.19158
11
0.910653
21
2.18688
0
LINE
8
BLACK
6
CONTINUOUS
10
0.910653
20
2.18688
11
0.914402
21
2.18116
0
LINE
8
BLACK
6
CONTINUOUS
10
0.914402
20
2.18116
11
0.916736
21
2.17473
0
LINE
8
BLACK
6
CONTINUOUS
10
0.916736
20
2.17473
11
0.917528
21
2.16794
0
LINE
8
BLACK
6
CONTINUOUS
10
0.917528
20
2.16794
11
0.917528
21
2.16006
0
LINE
8
BLACK
6
CONTINUOUS
10
0.917528
20
2.16006
11
0.917301
21
2.15641
0
LINE
8
BLACK
6
CONTINUOUS
10
0.917301
20
2.15641
11
0.915676
21
2.14977
0
LINE
8
BLACK
6
CONTINUOUS
10
0.915676
20
2.14977
11
0.912566
21
2.14368
0
LINE
8
BLACK
6
CONTINUOUS
10
0.912566
20
2.14368
11
0.908138
21
2.13847
0
LINE
8
BLACK
6
CONTINUOUS
10
0.908138
20
2.13847
11
0.90263
21
2.13441
0
LINE
8
BLACK
6
CONTINUOUS
10
0.90263
20
2.13441
11
0.896337
21
2.13174
0
LINE
8
BLACK
6
CONTINUOUS
10
0.896337
20
2.13174
11
0.889597
21
2.13058
0
LINE
8
BLACK
6
CONTINUOUS
10
0.889597
20
2.13058
11
0.882771
21
2.131
0
LINE
8
BLACK
6
CONTINUOUS
10
0.882771
20
2.131
11
0.876226
21
2.13298
0
LINE
8
BLACK
6
CONTINUOUS
10
0.876226
20
2.13298
11
0.870312
21
2.13642
0
LINE
8
BLACK
6
CONTINUOUS
10
0.870312
20
2.13642
11
0.865347
21
2.14112
0
LINE
8
BLACK
6
CONTINUOUS
10
0.865347
20
2.14112
11
0.86305
21
2.14463
0
LINE
8
BLACK
6
CONTINUOUS
10
0.86305
20
2.14463
11
0.862566
21
2.14368
0
LINE
8
BLACK
6
CONTINUOUS
10
0.862566
20
2.14368
11
0.858138
21
2.13847
0
LINE
8
BLACK
6
CONTINUOUS
10
0.858138
20
2.13847
11
0.85263
21
2.13441
0
LINE
8
BLACK
6
CONTINUOUS
10
0.85263
20
2.13441
11
0.846337
21
2.13174
0
LINE
8
BLACK
6
CONTINUOUS
10
0.846337
20
2.13174
11
0.839597
21
2.13058
0
LINE
8
BLACK
6
CONTINUOUS
10
0.839597
20
2.13058
11
0.832771
21
2.131
0
LINE
8
BLACK
6
CONTINUOUS
10
0.832771
20
2.131
11
0.826226
21
2.13298
0
LINE
8
BLACK
6
CONTINUOUS
10
0.826226
20
2.13298
11
0.820312
21
2.13642
0
LINE
8
BLACK
6
CONTINUOUS
10
0.820312
20
2.13642
11
0.815347
21
2.14112
0
LINE
8
BLACK
6
CONTINUOUS
10
0.815347
20
2.14112
11
0.811598
21
2.14684
0
LINE
8
BLACK
6
CONTINUOUS
10
0.811598
20
2.14684
11
0.809264
21
2.15327
0
LINE
8
BLACK
6
CONTINUOUS
10
0.809264
20
2.15327
11
0.808472
21
2.16006
0
LINE
8
BLACK
6
CONTINUOUS
10
0.808472
20
2.16006
11
0.808472
21
2.16794
0
LINE
8
BLACK
6
CONTINUOUS
10
0.808472
20
2.16794
11
0.808699
21
2.17159
0
LINE
8
BLACK
6
CONTINUOUS
10
0.808699
20
2.17159
11
0.810324
21
2.17823
0
LINE
8
BLACK
6
CONTINUOUS
10
0.810324
20
2.17823
11
0.813434
21
2.18432
0
LINE
8
BLACK
6
CONTINUOUS
10
0.813434
20
2.18432
11
0.817862
21
2.18953
0
LINE
8
BLACK
6
CONTINUOUS
10
0.817862
20
2.18953
11
0.82337
21
2.19359
0
LINE
8
BLACK
6
CONTINUOUS
10
0.82337
20
2.19359
11
0.829663
21
2.19626
0
LINE
8
BLACK
6
CONTINUOUS
10
0.829663
20
2.19626
11
0.836403
21
2.19742
0
LINE
8
BLACK
6
CONTINUOUS
10
0.836403
20
2.19742
11
0.843229
21
2.197
0
LINE
8
BLACK
6
CONTINUOUS
10
0.843229
20
2.197
11
0.849774
21
2.19502
0
LINE
8
BLACK
6
CONTINUOUS
10
0.849774
20
2.19502
11
0.855688
21
2.19158
0
LINE
8
BLACK
6
CONTINUOUS
10
0.855688
20
2.19158
11
0.860653
21
2.18688
0
LINE
8
BLACK
6
CONTINUOUS
10
0.860653
20
2.18688
11
0.86295
21
2.18337
0
LINE
8
BLACK
6
CONTINUOUS
10
0.86295
20
2.18337
11
0.863434
21
2.18432
0
LINE
8
BLACK
6
CONTINUOUS
10
0.863434
20
2.18432
11
0.867862
21
2.18953
0
LINE
8
BLACK
6
CONTINUOUS
10
0.867862
20
2.18953
11
0.87337
21
2.19359
0
LINE
8
BLACK
6
CONTINUOUS
10
0.87337
20
2.19359
11
0.879663
21
2.19626
0
LINE
8
BLACK
6
CONTINUOUS
10
0.879663
20
2.19626
11
0.886403
21
2.19742
0
LINE
8
BLACK
6
CONTINUOUS
10
0.886403
20
2.19742
11
0.893229
21
2.197
0
LINE
8
BLACK
6
CONTINUOUS
10
0.535105
20
2.2602
11
0.544315
21
2.25856
0
LINE
8
BLACK
6
CONTINUOUS
10
0.544315
20
2.25856
11
0.553133
21
2.25544
0
LINE
8
BLACK
6
CONTINUOUS
10
0.553133
20
2.25544
11
0.561324
21
2.25092
0
LINE
8
BLACK
6
CONTINUOUS
10
0.561324
20
2.25092
11
0.568665
21
2.24512
0
LINE
8
BLACK
6
CONTINUOUS
10
0.568665
20
2.24512
11
0.574961
21
2.2382
0
LINE
8
BLACK
6
CONTINUOUS
10
0.574961
20
2.2382
11
0.580043
21
2.23035
0
LINE
8
BLACK
6
CONTINUOUS
10
0.580043
20
2.23035
11
0.583773
21
2.22177
0
LINE
8
BLACK
6
CONTINUOUS
10
0.583773
20
2.22177
11
0.586052
21
2.21269
0
LINE
8
BLACK
6
CONTINUOUS
10
0.586052
20
2.21269
11
0.586819
21
2.20337
0
LINE
8
BLACK
6
CONTINUOUS
10
0.586819
20
2.20337
11
0.586751
21
2.20058
0
LINE
8
BLACK
6
CONTINUOUS
10
0.586751
20
2.20058
11
0.58553
21
2.19131
0
LINE
8
BLACK
6
CONTINUOUS
10
0.58553
20
2.19131
11
0.58281
21
2.18236
0
LINE
8
BLACK
6
CONTINUOUS
10
0.58281
20
2.18236
11
0.578665
21
2.17397
0
LINE
8
BLACK
6
CONTINUOUS
10
0.578665
20
2.17397
11
0.573206
21
2.16637
0
LINE
8
BLACK
6
CONTINUOUS
10
0.573206
20
2.16637
11
0.566579
21
2.15977
0
LINE
8
BLACK
6
CONTINUOUS
10
0.566579
20
2.15977
11
0.558963
21
2.15433
0
LINE
8
BLACK
6
CONTINUOUS
10
0.558963
20
2.15433
11
0.550562
21
2.15022
0
LINE
8
BLACK
6
CONTINUOUS
10
0.550562
20
2.15022
11
0.541601
21
2.14753
0
LINE
8
BLACK
6
CONTINUOUS
10
0.541601
20
2.14753
11
0.532322
21
2.14634
0
LINE
8
BLACK
6
CONTINUOUS
10
0.532322
20
2.14634
11
0.522973
21
2.14669
0
LINE
8
BLACK
6
CONTINUOUS
10
0.522973
20
2.14669
11
0.513806
21
2.14855
0
LINE
8
BLACK
6
CONTINUOUS
10
0.513806
20
2.14855
11
0.505066
21
2.15189
0
LINE
8
BLACK
6
CONTINUOUS
10
0.505066
20
2.15189
11
0.496989
21
2.15661
0
LINE
8
BLACK
6
CONTINUOUS
10
0.496989
20
2.15661
11
0.489791
21
2.16258
0
LINE
8
BLACK
6
CONTINUOUS
10
0.489791
20
2.16258
11
0.483666
21
2.16965
0
LINE
8
BLACK
6
CONTINUOUS
10
0.483666
20
2.16965
11
0.478778
21
2.17763
0
LINE
8
BLACK
6
CONTINUOUS
10
0.478778
20
2.17763
11
0.475258
21
2.1863
0
LINE
8
BLACK
6
CONTINUOUS
10
0.475258
20
2.1863
11
0.473201
21
2.19543
0
LINE
8
BLACK
6
CONTINUOUS
10
0.473201
20
2.19543
11
0.472663
21
2.20476
0
LINE
8
BLACK
6
CONTINUOUS
10
0.472663
20
2.20476
11
0.473657
21
2.21407
0
LINE
8
BLACK
6
CONTINUOUS
10
0.473657
20
2.21407
11
0.476157
21
2.22308
0
LINE
8
BLACK
6
CONTINUOUS
10
0.476157
20
2.22308
11
0.480096
21
2.23157
0
LINE
8
BLACK
6
CONTINUOUS
10
0.480096
20
2.23157
11
0.485368
21
2.2393
0
LINE
8
BLACK
6
CONTINUOUS
10
0.485368
20
2.2393
11
0.491831
21
2.24606
0
LINE
8
BLACK
6
CONTINUOUS
10
0.491831
20
2.24606
11
0.499312
21
2.25168
0
LINE
8
BLACK
6
CONTINUOUS
10
0.499312
20
2.25168
11
0.50761
21
2.256
0
LINE
8
BLACK
6
CONTINUOUS
10
0.50761
20
2.256
11
0.516503
21
2.2589
0
LINE
8
BLACK
6
CONTINUOUS
10
0.516503
20
2.2589
11
0.52575
21
2.26032
0
LINE
8
BLACK
6
CONTINUOUS
10
0.52575
20
2.26032
11
0.535105
21
2.2602
  0
ENDSEC
  0
EOF
